<svg xmlns="http://www.w3.org/2000/svg" width="1100" height="560" viewBox="0 0 1100 560">
<defs>
<linearGradient id="bg" x1="0" y1="0" x2="1" y2="1"><stop offset="0%" stop-color="#0b1220"/><stop offset="100%" stop-color="#111827"/></linearGradient>
<linearGradient id="repo-0" x1="0" y1="0" x2="0" y2="1"><stop offset="0%" stop-color="#34d399"/><stop offset="100%" stop-color="#059669"/></linearGradient>
<linearGradient id="repo-1" x1="0" y1="0" x2="0" y2="1"><stop offset="0%" stop-color="#f59e0b"/><stop offset="100%" stop-color="#d97706"/></linearGradient>
</defs>
<rect x="0" y="0" width="1100" height="560" fill="url(#bg)" rx="16"/>
<text x="90" y="44" fill="#f9fafb" font-size="28" font-family="-apple-system,BlinkMacSystemFont,Segoe UI,Helvetica,Arial,sans-serif" font-weight="700">GripMock GitHub Metrics - Forks</text>
<text x="90" y="70" fill="#9ca3af" font-size="16" font-family="-apple-system,BlinkMacSystemFont,Segoe UI,Helvetica,Arial,sans-serif">GitHub forks by snapshot date</text>
<line x1="90" y1="90.00" x2="1036" y2="90.00" stroke="#1f2937" stroke-width="1"/>
<text x="80" y="95.00" text-anchor="end" fill="#9ca3af" font-size="12" font-family="-apple-system,BlinkMacSystemFont,Segoe UI,Helvetica,Arial,sans-serif">185</text>
<line x1="90" y1="153.00" x2="1036" y2="153.00" stroke="#1f2937" stroke-width="1"/>
<text x="80" y="158.00" text-anchor="end" fill="#9ca3af" font-size="12" font-family="-apple-system,BlinkMacSystemFont,Segoe UI,Helvetica,Arial,sans-serif">154</text>
<line x1="90" y1="216.00" x2="1036" y2="216.00" stroke="#1f2937" stroke-width="1"/>
<text x="80" y="221.00" text-anchor="end" fill="#9ca3af" font-size="12" font-family="-apple-system,BlinkMacSystemFont,Segoe UI,Helvetica,Arial,sans-serif">123</text>
<line x1="90" y1="279.00" x2="1036" y2="279.00" stroke="#1f2937" stroke-width="1"/>
<text x="80" y="284.00" text-anchor="end" fill="#9ca3af" font-size="12" font-family="-apple-system,BlinkMacSystemFont,Segoe UI,Helvetica,Arial,sans-serif">92</text>
<line x1="90" y1="342.00" x2="1036" y2="342.00" stroke="#1f2937" stroke-width="1"/>
<text x="80" y="347.00" text-anchor="end" fill="#9ca3af" font-size="12" font-family="-apple-system,BlinkMacSystemFont,Segoe UI,Helvetica,Arial,sans-serif">62</text>
<line x1="90" y1="405.00" x2="1036" y2="405.00" stroke="#1f2937" stroke-width="1"/>
<text x="80" y="410.00" text-anchor="end" fill="#9ca3af" font-size="12" font-family="-apple-system,BlinkMacSystemFont,Segoe UI,Helvetica,Arial,sans-serif">31</text>
<line x1="90" y1="468.00" x2="1036" y2="468.00" stroke="#1f2937" stroke-width="1"/>
<text x="80" y="473.00" text-anchor="end" fill="#9ca3af" font-size="12" font-family="-apple-system,BlinkMacSystemFont,Segoe UI,Helvetica,Arial,sans-serif">0</text>
<line x1="90" y1="468" x2="1036" y2="468" stroke="#4b5563" stroke-width="1.4"/>
<line x1="90" y1="90" x2="90" y2="468" stroke="#4b5563" stroke-width="1.4"/>
<line x1="90.00" y1="468" x2="90.00" y2="474" stroke="#6b7280" stroke-width="1"/>
<text x="90.00" y="494" text-anchor="start" fill="#9ca3af" font-size="12" font-family="-apple-system,BlinkMacSystemFont,Segoe UI,Helvetica,Arial,sans-serif">2018-04-24</text>
<line x1="279.20" y1="468" x2="279.20" y2="474" stroke="#6b7280" stroke-width="1"/>
<text x="279.20" y="494" text-anchor="middle" fill="#9ca3af" font-size="12" font-family="-apple-system,BlinkMacSystemFont,Segoe UI,Helvetica,Arial,sans-serif">2019-12-02</text>
<line x1="468.40" y1="468" x2="468.40" y2="474" stroke="#6b7280" stroke-width="1"/>
<text x="468.40" y="494" text-anchor="middle" fill="#9ca3af" font-size="12" font-family="-apple-system,BlinkMacSystemFont,Segoe UI,Helvetica,Arial,sans-serif">2021-07-11</text>
<line x1="657.60" y1="468" x2="657.60" y2="474" stroke="#6b7280" stroke-width="1"/>
<text x="657.60" y="494" text-anchor="middle" fill="#9ca3af" font-size="12" font-family="-apple-system,BlinkMacSystemFont,Segoe UI,Helvetica,Arial,sans-serif">2023-02-18</text>
<line x1="846.80" y1="468" x2="846.80" y2="474" stroke="#6b7280" stroke-width="1"/>
<text x="846.80" y="494" text-anchor="middle" fill="#9ca3af" font-size="12" font-family="-apple-system,BlinkMacSystemFont,Segoe UI,Helvetica,Arial,sans-serif">2024-09-28</text>
<line x1="1036.00" y1="468" x2="1036.00" y2="474" stroke="#6b7280" stroke-width="1"/>
<text x="1036.00" y="494" text-anchor="end" fill="#9ca3af" font-size="12" font-family="-apple-system,BlinkMacSystemFont,Segoe UI,Helvetica,Arial,sans-serif">2026-05-08</text>
<polyline fill="none" stroke="url(#repo-0)" stroke-width="4" stroke-linecap="round" stroke-linejoin="round" points="715.12,468.00 721.75,468.00 734.64,468.00 748.18,468.00 750.11,468.00 753.33,468.00 764.93,468.00 767.19,468.00 772.67,468.00 772.99,468.00 777.82,468.00 785.55,468.00 797.80,468.00 801.02,468.00 805.21,468.00 808.76,468.00 823.58,468.00 828.09,468.00 828.73,468.00 830.02,468.00 836.14,468.00 849.68,468.00 852.58,468.00 859.34,468.00 864.82,468.00 865.47,468.00 866.11,468.00 886.09,468.00 888.67,468.00 889.31,468.00 895.43,468.00 896.08,468.00 899.95,465.95 901.23,465.95 901.56,465.95 901.88,465.95 904.78,463.91 906.39,463.91 908.00,463.91 913.16,461.86 917.67,459.82 919.28,459.82 919.92,457.77 926.69,457.77 930.56,457.77 942.16,457.77 944.41,457.77 945.06,455.73 946.99,455.73 948.92,455.73 951.82,453.68 956.98,453.68 963.75,453.68 967.93,453.68 979.21,453.68 981.47,453.68 986.30,453.68 986.62,453.68 987.59,453.68 990.17,453.68 990.49,451.64 999.19,451.64 1005.96,451.64 1006.60,451.64 1008.86,451.64 1015.30,451.64 1017.56,451.64 1019.17,451.64 1020.78,451.64 1024.08,451.64 1025.04,451.64 1025.36,451.64 1026.01,451.64 1026.33,451.64 1026.65,451.64 1031.17,451.64 1031.49,451.64 1031.81,451.64 1035.69,451.64 1036.00,449.59"/>
<circle cx="715.12" cy="468.00" r="3.8" fill="#3bf2af" stroke="#111827" stroke-width="1"/>
<circle cx="748.18" cy="468.00" r="3.8" fill="#3bf2af" stroke="#111827" stroke-width="1"/>
<circle cx="764.93" cy="468.00" r="3.8" fill="#3bf2af" stroke="#111827" stroke-width="1"/>
<circle cx="772.99" cy="468.00" r="3.8" fill="#3bf2af" stroke="#111827" stroke-width="1"/>
<circle cx="797.80" cy="468.00" r="3.8" fill="#3bf2af" stroke="#111827" stroke-width="1"/>
<circle cx="808.76" cy="468.00" r="3.8" fill="#3bf2af" stroke="#111827" stroke-width="1"/>
<circle cx="828.73" cy="468.00" r="3.8" fill="#3bf2af" stroke="#111827" stroke-width="1"/>
<circle cx="849.68" cy="468.00" r="3.8" fill="#3bf2af" stroke="#111827" stroke-width="1"/>
<circle cx="864.82" cy="468.00" r="3.8" fill="#3bf2af" stroke="#111827" stroke-width="1"/>
<circle cx="886.09" cy="468.00" r="3.8" fill="#3bf2af" stroke="#111827" stroke-width="1"/>
<circle cx="895.43" cy="468.00" r="3.8" fill="#3bf2af" stroke="#111827" stroke-width="1"/>
<circle cx="901.23" cy="465.95" r="3.8" fill="#3bf2af" stroke="#111827" stroke-width="1"/>
<circle cx="904.78" cy="463.91" r="3.8" fill="#3bf2af" stroke="#111827" stroke-width="1"/>
<circle cx="913.16" cy="461.86" r="3.8" fill="#3bf2af" stroke="#111827" stroke-width="1"/>
<circle cx="919.92" cy="457.77" r="3.8" fill="#3bf2af" stroke="#111827" stroke-width="1"/>
<circle cx="942.16" cy="457.77" r="3.8" fill="#3bf2af" stroke="#111827" stroke-width="1"/>
<circle cx="946.99" cy="455.73" r="3.8" fill="#3bf2af" stroke="#111827" stroke-width="1"/>
<circle cx="956.98" cy="453.68" r="3.8" fill="#3bf2af" stroke="#111827" stroke-width="1"/>
<circle cx="979.21" cy="453.68" r="3.8" fill="#3bf2af" stroke="#111827" stroke-width="1"/>
<circle cx="986.62" cy="453.68" r="3.8" fill="#3bf2af" stroke="#111827" stroke-width="1"/>
<circle cx="990.49" cy="451.64" r="3.8" fill="#3bf2af" stroke="#111827" stroke-width="1"/>
<circle cx="1006.60" cy="451.64" r="3.8" fill="#3bf2af" stroke="#111827" stroke-width="1"/>
<circle cx="1017.56" cy="451.64" r="3.8" fill="#3bf2af" stroke="#111827" stroke-width="1"/>
<circle cx="1024.08" cy="451.64" r="3.8" fill="#3bf2af" stroke="#111827" stroke-width="1"/>
<circle cx="1026.01" cy="451.64" r="3.8" fill="#3bf2af" stroke="#111827" stroke-width="1"/>
<circle cx="1031.17" cy="451.64" r="3.8" fill="#3bf2af" stroke="#111827" stroke-width="1"/>
<circle cx="1035.69" cy="451.64" r="3.8" fill="#3bf2af" stroke="#111827" stroke-width="1"/>
<circle cx="1036.00" cy="449.59" r="3.8" fill="#3bf2af" stroke="#111827" stroke-width="1"/>
<text x="1028.00" y="439.59" text-anchor="end" fill="#3bf2af" font-size="12" font-family="-apple-system,BlinkMacSystemFont,Segoe UI,Helvetica,Arial,sans-serif">9</text>
<polyline fill="none" stroke="url(#repo-1)" stroke-width="4" stroke-linecap="round" stroke-linejoin="round" points="90.00,468.00 91.80,468.00 92.45,468.00 95.99,468.00 99.54,468.00 136.27,468.00 137.24,465.95 143.04,463.91 148.84,463.91 153.35,461.86 156.89,461.86 157.54,461.86 157.86,461.86 158.18,461.86 159.79,461.86 160.44,461.86 164.63,459.82 164.95,459.82 168.82,459.82 169.78,459.82 170.10,459.82 171.72,459.82 173.33,459.82 175.26,459.82 176.23,459.82 181.38,459.82 183.96,459.82 185.57,459.82 185.89,459.82 191.05,459.82 191.37,459.82 192.02,457.77 195.24,457.77 195.88,457.77 196.20,455.73 196.53,453.68 202.33,453.68 203.94,451.64 210.06,451.64 211.35,451.64 211.99,449.59 214.57,447.55 217.47,447.55 221.34,445.50 221.66,445.50 223.92,445.50 226.17,445.50 229.39,445.50 230.36,445.50 232.62,445.50 234.87,445.50 236.80,445.50 237.13,445.50 237.45,445.50 240.03,445.50 240.67,445.50 241.32,445.50 241.64,443.45 241.96,441.41 242.28,441.41 244.86,441.41 245.50,441.41 248.08,439.36 253.56,439.36 254.20,437.32 254.53,437.32 254.85,437.32 255.49,433.23 256.78,433.23 257.10,433.23 259.04,433.23 259.36,433.23 261.62,433.23 262.58,433.23 263.23,433.23 264.19,431.18 265.80,431.18 266.13,429.14 267.09,429.14 269.99,429.14 273.54,429.14 274.51,429.14 275.47,429.14 275.79,429.14 277.08,429.14 277.41,429.14 278.05,429.14 279.02,429.14 280.63,429.14 281.27,429.14 281.59,429.14 281.92,429.14 283.53,429.14 284.49,429.14 285.14,429.14 286.43,427.09 286.75,425.05 288.36,425.05 291.91,425.05 293.84,425.05 295.45,423.00 295.77,423.00 298.03,423.00 299.64,423.00 299.96,420.95 301.89,420.95 302.22,420.95 302.86,418.91 303.83,416.86 304.15,416.86 304.47,416.86 304.79,416.86 309.31,414.82 313.17,414.82 313.49,414.82 314.14,414.82 315.43,414.82 315.75,414.82 317.36,412.77 318.01,410.73 318.33,410.73 318.65,410.73 318.97,410.73 320.58,410.73 323.81,408.68 325.09,408.68 325.42,406.64 326.06,406.64 326.38,404.59 327.03,402.55 327.67,402.55 328.32,400.50 329.61,398.45 330.25,398.45 332.18,398.45 332.51,398.45 333.79,398.45 335.73,398.45 337.02,398.45 338.31,396.41 338.63,396.41 339.27,396.41 340.24,396.41 341.21,396.41 342.82,396.41 344.43,396.41 346.04,396.41 348.94,394.36 351.52,394.36 351.84,394.36 352.16,394.36 356.99,394.36 357.96,394.36 358.93,394.36 359.25,394.36 360.22,394.36 362.47,394.36 362.79,394.36 364.41,394.36 366.34,392.32 369.56,392.32 370.53,392.32 371.50,392.32 372.78,392.32 373.43,392.32 373.75,392.32 374.40,390.27 376.01,390.27 377.30,390.27 381.48,388.23 383.10,388.23 384.06,388.23 386.96,386.18 387.61,384.14 387.93,384.14 388.25,384.14 389.86,384.14 390.83,384.14 392.12,384.14 392.44,384.14 393.08,384.14 395.34,384.14 395.66,384.14 396.31,384.14 398.56,384.14 399.21,384.14 400.50,384.14 401.46,382.09 401.78,382.09 402.11,382.09 405.97,382.09 406.62,382.09 407.91,382.09 408.23,382.09 409.52,382.09 410.81,382.09 411.13,382.09 411.45,382.09 413.06,382.09 413.71,382.09 415.32,380.05 416.61,378.00 417.57,378.00 419.51,378.00 420.80,378.00 422.41,378.00 422.73,378.00 423.37,378.00 424.02,378.00 424.66,378.00 424.98,375.95 425.95,373.91 426.27,373.91 426.60,373.91 426.92,371.86 428.53,371.86 429.17,369.82 430.46,369.82 431.11,369.82 432.07,369.82 432.72,369.82 433.68,369.82 434.97,369.82 436.26,367.77 437.55,365.73 437.87,365.73 439.48,365.73 439.81,365.73 440.45,365.73 440.77,365.73 441.42,365.73 441.74,365.73 443.35,365.73 444.64,365.73 446.25,363.68 450.76,363.68 451.08,363.68 451.41,361.64 451.73,361.64 452.70,357.55 453.02,357.55 453.34,357.55 453.66,357.55 454.95,355.50 455.60,355.50 455.92,355.50 456.88,353.45 457.21,351.41 457.85,351.41 459.78,351.41 460.11,351.41 460.43,351.41 461.72,351.41 463.97,351.41 464.30,351.41 464.94,351.41 467.20,351.41 468.81,351.41 470.42,349.36 473.32,347.32 474.61,347.32 474.93,347.32 475.25,345.27 475.90,345.27 476.22,343.23 476.54,343.23 477.51,343.23 477.83,343.23 478.80,343.23 480.41,343.23 480.73,339.14 481.05,339.14 481.37,339.14 481.70,339.14 482.02,339.14 482.34,339.14 482.99,339.14 483.31,339.14 483.63,335.05 484.60,335.05 485.24,335.05 485.89,335.05 487.17,335.05 488.46,335.05 488.79,335.05 489.11,333.00 489.43,330.95 491.04,330.95 492.33,330.95 492.65,330.95 493.94,330.95 494.26,330.95 494.59,328.91 497.81,328.91 498.13,328.91 498.77,328.91 500.39,328.91 501.03,328.91 501.67,328.91 502.96,326.86 503.61,326.86 503.93,324.82 504.25,324.82 504.57,322.77 505.86,322.77 506.19,322.77 506.83,322.77 507.15,322.77 508.12,322.77 508.44,322.77 509.73,322.77 512.63,322.77 513.60,322.77 514.56,322.77 514.89,320.73 515.21,320.73 515.53,318.68 515.85,318.68 516.50,318.68 518.75,316.64 520.04,316.64 520.36,316.64 520.69,316.64 521.65,316.64 522.94,314.59 524.23,314.59 525.84,314.59 526.16,314.59 529.71,314.59 531.32,314.59 531.96,314.59 532.61,314.59 535.19,314.59 535.83,314.59 536.15,314.59 537.12,314.59 537.76,314.59 538.41,312.55 539.05,312.55 539.70,312.55 540.99,312.55 541.31,312.55 541.63,312.55 543.24,310.50 543.89,310.50 544.21,310.50 545.17,310.50 545.82,310.50 546.46,310.50 548.07,310.50 548.40,308.45 548.72,308.45 549.69,308.45 550.33,306.41 550.97,306.41 552.59,306.41 555.49,306.41 555.81,306.41 557.10,306.41 557.42,306.41 558.71,306.41 559.03,306.41 559.35,304.36 560.00,304.36 560.96,304.36 561.29,304.36 561.61,304.36 562.25,304.36 563.54,304.36 564.51,302.32 564.83,302.32 569.02,302.32 569.34,302.32 570.31,302.32 570.95,302.32 573.21,302.32 574.17,300.27 574.50,300.27 574.82,300.27 577.40,300.27 577.72,300.27 578.04,300.27 579.01,300.27 579.33,300.27 579.97,300.27 582.23,300.27 582.88,300.27 583.52,296.18 584.49,296.18 584.81,296.18 585.78,296.18 591.25,296.18 592.54,296.18 592.86,296.18 594.48,296.18 595.12,294.14 595.44,294.14 595.76,292.09 596.09,292.09 597.05,290.05 598.02,290.05 598.34,290.05 600.28,290.05 600.60,290.05 601.24,290.05 602.21,290.05 602.85,290.05 603.18,290.05 604.46,290.05 605.11,288.00 605.75,288.00 606.72,288.00 607.04,288.00 611.23,288.00 612.20,285.95 613.16,285.95 613.49,285.95 615.10,285.95 615.42,285.95 615.74,285.95 616.06,285.95 617.35,285.95 618.32,285.95 620.58,285.95 621.54,285.95 621.86,285.95 622.51,283.91 623.15,283.91 625.09,283.91 625.41,283.91 628.63,283.91 628.95,283.91 629.92,283.91 630.24,283.91 631.21,283.91 631.53,279.82 631.85,279.82 633.46,279.82 633.79,279.82 634.75,279.82 636.36,279.82 637.65,279.82 638.62,277.77 642.16,275.73 642.49,273.68 644.42,271.64 645.06,271.64 645.71,269.59 647.00,267.55 647.32,265.50 649.90,265.50 652.80,265.50 653.44,265.50 653.76,263.45 654.09,263.45 656.99,261.41 658.28,259.36 658.60,259.36 658.92,259.36 659.56,257.32 660.85,257.32 661.18,257.32 661.82,257.32 663.11,257.32 664.72,257.32 665.04,255.27 665.69,255.27 666.01,255.27 666.33,253.23 666.65,253.23 666.98,253.23 667.62,253.23 671.49,253.23 673.74,251.18 676.00,249.14 676.96,247.09 677.29,245.05 677.61,245.05 678.58,243.00 678.90,243.00 681.15,240.95 681.48,240.95 682.76,238.91 683.09,238.91 683.41,238.91 684.70,238.91 685.66,236.86 686.95,236.86 687.92,234.82 688.24,232.77 690.18,232.77 690.82,232.77 691.79,232.77 692.11,232.77 692.75,232.77 694.69,230.73 695.33,228.68 695.98,228.68 696.30,228.68 696.94,228.68 697.27,228.68 698.23,228.68 698.55,228.68 699.20,228.68 700.49,228.68 700.81,228.68 701.45,228.68 702.10,228.68 703.39,228.68 703.71,226.64 705.00,226.64 706.29,226.64 707.90,224.59 708.87,224.59 709.19,224.59 710.80,222.55 711.12,222.55 712.41,222.55 713.38,222.55 714.02,220.50 714.99,220.50 716.28,220.50 716.60,220.50 717.24,220.50 719.82,220.50 721.75,218.45 724.01,218.45 727.55,218.45 727.88,216.41 728.20,216.41 730.13,216.41 730.78,216.41 731.10,216.41 731.42,214.36 732.39,214.36 732.71,212.32 733.35,212.32 735.93,212.32 737.54,212.32 738.19,210.27 739.80,208.23 741.09,208.23 743.99,206.18 745.28,204.14 747.21,204.14 753.01,202.09 755.27,200.05 755.91,200.05 758.81,200.05 759.45,200.05 760.10,200.05 762.03,200.05 762.68,200.05 763.32,200.05 763.64,198.00 763.97,198.00 766.54,198.00 769.44,198.00 771.05,198.00 772.99,198.00 775.89,195.95 778.47,195.95 779.75,195.95 780.40,195.95 781.69,195.95 783.30,195.95 783.94,195.95 784.59,195.95 786.52,195.95 787.81,195.95 788.13,195.95 791.03,193.91 791.35,193.91 791.68,191.86 792.32,191.86 793.29,189.82 794.58,189.82 796.51,189.82 796.83,189.82 797.80,187.77 800.06,185.73 802.31,185.73 804.24,185.73 806.82,185.73 807.47,185.73 807.79,185.73 808.76,183.68 809.08,183.68 809.40,183.68 810.04,183.68 811.33,181.64 813.59,181.64 813.91,179.59 814.88,179.59 816.81,179.59 818.42,179.59 818.74,179.59 820.03,179.59 821.00,179.59 821.32,177.55 822.61,177.55 823.26,175.50 824.87,175.50 825.19,173.45 825.51,173.45 827.44,173.45 828.41,173.45 828.73,173.45 830.67,171.41 831.96,171.41 832.28,171.41 832.60,169.36 834.86,169.36 836.47,169.36 840.33,169.36 840.66,169.36 842.59,169.36 845.49,169.36 848.71,169.36 850.64,169.36 850.97,169.36 851.29,169.36 851.93,169.36 854.51,169.36 856.77,169.36 859.99,169.36 860.31,167.32 863.21,167.32 864.18,167.32 865.47,167.32 875.46,167.32 876.74,167.32 877.07,167.32 880.29,167.32 881.90,167.32 884.16,167.32 884.80,165.27 885.12,165.27 887.06,165.27 888.34,165.27 888.99,165.27 889.31,165.27 889.63,165.27 890.60,165.27 892.21,165.27 892.53,163.23 894.14,163.23 896.40,163.23 898.66,163.23 899.30,163.23 902.85,163.23 903.17,163.23 904.78,163.23 906.39,163.23 909.29,163.23 910.58,163.23 912.83,159.14 913.16,159.14 913.80,157.09 915.41,157.09 915.73,157.09 916.38,157.09 917.35,157.09 917.67,157.09 917.99,157.09 918.31,157.09 919.60,157.09 919.92,155.05 921.86,155.05 922.18,155.05 923.79,155.05 924.11,155.05 924.76,155.05 925.40,153.00 926.37,153.00 929.59,153.00 935.39,153.00 936.68,153.00 938.29,150.95 939.58,150.95 940.87,150.95 941.83,150.95 942.80,150.95 945.06,148.91 946.67,148.91 947.31,146.86 949.57,144.82 949.89,142.77 950.21,142.77 953.76,142.77 955.69,142.77 956.01,140.73 958.91,140.73 963.75,140.73 965.03,138.68 965.36,138.68 966.32,138.68 970.19,138.68 974.70,138.68 975.02,136.64 979.21,136.64 981.79,136.64 994.36,136.64 997.26,136.64 998.22,136.64 999.83,136.64 1000.16,136.64 1005.96,136.64 1008.54,136.64 1013.69,136.64 1015.30,136.64 1017.56,136.64 1024.08,124.36 1026.98,124.36 1027.29,124.36 1027.95,124.36 1028.27,124.36 1029.23,124.36 1029.55,124.36 1030.84,124.36 1031.17,124.36 1035.04,124.36 1035.36,124.36 1035.69,124.36 1036.00,124.36"/>
<circle cx="90.00" cy="468.00" r="3.8" fill="#ffb50c" stroke="#111827" stroke-width="1"/>
<circle cx="191.37" cy="459.82" r="3.8" fill="#ffb50c" stroke="#111827" stroke-width="1"/>
<circle cx="244.86" cy="441.41" r="3.8" fill="#ffb50c" stroke="#111827" stroke-width="1"/>
<circle cx="281.59" cy="429.14" r="3.8" fill="#ffb50c" stroke="#111827" stroke-width="1"/>
<circle cx="318.33" cy="410.73" r="3.8" fill="#ffb50c" stroke="#111827" stroke-width="1"/>
<circle cx="352.16" cy="394.36" r="3.8" fill="#ffb50c" stroke="#111827" stroke-width="1"/>
<circle cx="393.08" cy="384.14" r="3.8" fill="#ffb50c" stroke="#111827" stroke-width="1"/>
<circle cx="424.98" cy="375.95" r="3.8" fill="#ffb50c" stroke="#111827" stroke-width="1"/>
<circle cx="453.02" cy="357.55" r="3.8" fill="#ffb50c" stroke="#111827" stroke-width="1"/>
<circle cx="480.73" cy="339.14" r="3.8" fill="#ffb50c" stroke="#111827" stroke-width="1"/>
<circle cx="503.61" cy="326.86" r="3.8" fill="#ffb50c" stroke="#111827" stroke-width="1"/>
<circle cx="531.96" cy="314.59" r="3.8" fill="#ffb50c" stroke="#111827" stroke-width="1"/>
<circle cx="558.71" cy="306.41" r="3.8" fill="#ffb50c" stroke="#111827" stroke-width="1"/>
<circle cx="585.78" cy="296.18" r="3.8" fill="#ffb50c" stroke="#111827" stroke-width="1"/>
<circle cx="616.06" cy="285.95" r="3.8" fill="#ffb50c" stroke="#111827" stroke-width="1"/>
<circle cx="649.90" cy="265.50" r="3.8" fill="#ffb50c" stroke="#111827" stroke-width="1"/>
<circle cx="681.15" cy="240.95" r="3.8" fill="#ffb50c" stroke="#111827" stroke-width="1"/>
<circle cx="705.00" cy="226.64" r="3.8" fill="#ffb50c" stroke="#111827" stroke-width="1"/>
<circle cx="739.80" cy="208.23" r="3.8" fill="#ffb50c" stroke="#111827" stroke-width="1"/>
<circle cx="788.13" cy="195.95" r="3.8" fill="#ffb50c" stroke="#111827" stroke-width="1"/>
<circle cx="822.61" cy="177.55" r="3.8" fill="#ffb50c" stroke="#111827" stroke-width="1"/>
<circle cx="875.46" cy="167.32" r="3.8" fill="#ffb50c" stroke="#111827" stroke-width="1"/>
<circle cx="915.73" cy="157.09" r="3.8" fill="#ffb50c" stroke="#111827" stroke-width="1"/>
<circle cx="955.69" cy="142.77" r="3.8" fill="#ffb50c" stroke="#111827" stroke-width="1"/>
<circle cx="1031.17" cy="124.36" r="3.8" fill="#ffb50c" stroke="#111827" stroke-width="1"/>
<circle cx="1036.00" cy="124.36" r="3.8" fill="#ffb50c" stroke="#111827" stroke-width="1"/>
<text x="1028.00" y="114.36" text-anchor="end" fill="#ffb50c" font-size="12" font-family="-apple-system,BlinkMacSystemFont,Segoe UI,Helvetica,Arial,sans-serif">168</text>
<rect x="90.00" y="514.00" width="14" height="14" fill="url(#repo-0)" rx="3"/>
<text x="112.00" y="526.00" fill="#3bf2af" font-size="13" font-family="-apple-system,BlinkMacSystemFont,Segoe UI,Helvetica,Arial,sans-serif">bavix/gripmock</text>
<rect x="280.00" y="514.00" width="14" height="14" fill="url(#repo-1)" rx="3"/>
<text x="302.00" y="526.00" fill="#ffb50c" font-size="13" font-family="-apple-system,BlinkMacSystemFont,Segoe UI,Helvetica,Arial,sans-serif">tokopedia/gripmock</text>
<text x="1036.00" y="526.00" text-anchor="end" fill="#9ca3af" font-size="12" font-family="-apple-system,BlinkMacSystemFont,Segoe UI,Helvetica,Arial,sans-serif">Source: https://github.com/bavix/artifact-stats/blob/master/stats/github.csv</text>
</svg>