<svg xmlns="http://www.w3.org/2000/svg" width="1100" height="560" viewBox="0 0 1100 560">
<defs>
<linearGradient id="bg" x1="0" y1="0" x2="1" y2="1"><stop offset="0%" stop-color="#0b1220"/><stop offset="100%" stop-color="#111827"/></linearGradient>
<linearGradient id="repo-0" x1="0" y1="0" x2="0" y2="1"><stop offset="0%" stop-color="#34d399"/><stop offset="100%" stop-color="#059669"/></linearGradient>
<linearGradient id="repo-1" x1="0" y1="0" x2="0" y2="1"><stop offset="0%" stop-color="#f59e0b"/><stop offset="100%" stop-color="#d97706"/></linearGradient>
</defs>
<rect x="0" y="0" width="1100" height="560" fill="url(#bg)" rx="16"/>
<text x="90" y="44" fill="#f9fafb" font-size="28" font-family="-apple-system,BlinkMacSystemFont,Segoe UI,Helvetica,Arial,sans-serif" font-weight="700">GripMock GitHub Metrics - Forks</text>
<text x="90" y="70" fill="#9ca3af" font-size="16" font-family="-apple-system,BlinkMacSystemFont,Segoe UI,Helvetica,Arial,sans-serif">GitHub forks by snapshot date</text>
<line x1="90" y1="90.00" x2="1036" y2="90.00" stroke="#1f2937" stroke-width="1"/>
<text x="80" y="95.00" text-anchor="end" fill="#9ca3af" font-size="12" font-family="-apple-system,BlinkMacSystemFont,Segoe UI,Helvetica,Arial,sans-serif">185</text>
<line x1="90" y1="153.00" x2="1036" y2="153.00" stroke="#1f2937" stroke-width="1"/>
<text x="80" y="158.00" text-anchor="end" fill="#9ca3af" font-size="12" font-family="-apple-system,BlinkMacSystemFont,Segoe UI,Helvetica,Arial,sans-serif">154</text>
<line x1="90" y1="216.00" x2="1036" y2="216.00" stroke="#1f2937" stroke-width="1"/>
<text x="80" y="221.00" text-anchor="end" fill="#9ca3af" font-size="12" font-family="-apple-system,BlinkMacSystemFont,Segoe UI,Helvetica,Arial,sans-serif">123</text>
<line x1="90" y1="279.00" x2="1036" y2="279.00" stroke="#1f2937" stroke-width="1"/>
<text x="80" y="284.00" text-anchor="end" fill="#9ca3af" font-size="12" font-family="-apple-system,BlinkMacSystemFont,Segoe UI,Helvetica,Arial,sans-serif">92</text>
<line x1="90" y1="342.00" x2="1036" y2="342.00" stroke="#1f2937" stroke-width="1"/>
<text x="80" y="347.00" text-anchor="end" fill="#9ca3af" font-size="12" font-family="-apple-system,BlinkMacSystemFont,Segoe UI,Helvetica,Arial,sans-serif">62</text>
<line x1="90" y1="405.00" x2="1036" y2="405.00" stroke="#1f2937" stroke-width="1"/>
<text x="80" y="410.00" text-anchor="end" fill="#9ca3af" font-size="12" font-family="-apple-system,BlinkMacSystemFont,Segoe UI,Helvetica,Arial,sans-serif">31</text>
<line x1="90" y1="468.00" x2="1036" y2="468.00" stroke="#1f2937" stroke-width="1"/>
<text x="80" y="473.00" text-anchor="end" fill="#9ca3af" font-size="12" font-family="-apple-system,BlinkMacSystemFont,Segoe UI,Helvetica,Arial,sans-serif">0</text>
<line x1="90" y1="468" x2="1036" y2="468" stroke="#4b5563" stroke-width="1.4"/>
<line x1="90" y1="90" x2="90" y2="468" stroke="#4b5563" stroke-width="1.4"/>
<line x1="90.00" y1="468" x2="90.00" y2="474" stroke="#6b7280" stroke-width="1"/>
<text x="90.00" y="494" text-anchor="start" fill="#9ca3af" font-size="12" font-family="-apple-system,BlinkMacSystemFont,Segoe UI,Helvetica,Arial,sans-serif">2018-04-24</text>
<line x1="279.20" y1="468" x2="279.20" y2="474" stroke="#6b7280" stroke-width="1"/>
<text x="279.20" y="494" text-anchor="middle" fill="#9ca3af" font-size="12" font-family="-apple-system,BlinkMacSystemFont,Segoe UI,Helvetica,Arial,sans-serif">2019-11-27</text>
<line x1="468.40" y1="468" x2="468.40" y2="474" stroke="#6b7280" stroke-width="1"/>
<text x="468.40" y="494" text-anchor="middle" fill="#9ca3af" font-size="12" font-family="-apple-system,BlinkMacSystemFont,Segoe UI,Helvetica,Arial,sans-serif">2021-07-02</text>
<line x1="657.60" y1="468" x2="657.60" y2="474" stroke="#6b7280" stroke-width="1"/>
<text x="657.60" y="494" text-anchor="middle" fill="#9ca3af" font-size="12" font-family="-apple-system,BlinkMacSystemFont,Segoe UI,Helvetica,Arial,sans-serif">2023-02-05</text>
<line x1="846.80" y1="468" x2="846.80" y2="474" stroke="#6b7280" stroke-width="1"/>
<text x="846.80" y="494" text-anchor="middle" fill="#9ca3af" font-size="12" font-family="-apple-system,BlinkMacSystemFont,Segoe UI,Helvetica,Arial,sans-serif">2024-09-09</text>
<line x1="1036.00" y1="468" x2="1036.00" y2="474" stroke="#6b7280" stroke-width="1"/>
<text x="1036.00" y="494" text-anchor="end" fill="#9ca3af" font-size="12" font-family="-apple-system,BlinkMacSystemFont,Segoe UI,Helvetica,Arial,sans-serif">2026-04-15</text>
<polyline fill="none" stroke="url(#repo-0)" stroke-width="4" stroke-linecap="round" stroke-linejoin="round" points="720.05,468.00 726.74,468.00 739.73,468.00 753.37,468.00 755.32,468.00 758.57,468.00 770.26,468.00 772.54,468.00 778.06,468.00 778.38,468.00 783.25,468.00 791.05,468.00 803.39,468.00 806.64,468.00 810.86,468.00 814.43,468.00 829.37,468.00 833.92,468.00 834.57,468.00 835.87,468.00 842.04,468.00 855.68,468.00 858.60,468.00 865.42,468.00 870.94,468.00 871.59,468.00 872.24,468.00 892.38,468.00 894.97,468.00 895.62,468.00 901.79,468.00 902.44,468.00 906.34,465.95 907.64,465.95 907.96,465.95 908.29,465.95 911.21,463.91 912.84,463.91 914.46,463.91 919.66,461.86 924.20,459.82 925.83,459.82 926.48,457.77 933.30,457.77 937.19,457.77 948.89,457.77 951.16,457.77 951.81,455.73 953.76,455.73 955.71,455.73 958.63,453.68 963.83,453.68 970.65,453.68 974.87,453.68 986.23,453.68 988.51,453.68 993.38,453.68 993.70,453.68 994.68,453.68 997.28,453.68 997.60,451.64 1006.37,451.64 1013.19,451.64 1013.84,451.64 1016.11,451.64 1022.61,451.64 1024.88,451.64 1026.51,451.64 1028.13,451.64 1031.46,451.64 1032.42,451.64 1032.75,451.64 1033.40,451.64 1033.72,451.64 1034.05,451.64 1036.00,451.64"/>
<circle cx="720.05" cy="468.00" r="3.8" fill="#3bf2af" stroke="#111827" stroke-width="1"/>
<circle cx="753.37" cy="468.00" r="3.8" fill="#3bf2af" stroke="#111827" stroke-width="1"/>
<circle cx="770.26" cy="468.00" r="3.8" fill="#3bf2af" stroke="#111827" stroke-width="1"/>
<circle cx="778.38" cy="468.00" r="3.8" fill="#3bf2af" stroke="#111827" stroke-width="1"/>
<circle cx="803.39" cy="468.00" r="3.8" fill="#3bf2af" stroke="#111827" stroke-width="1"/>
<circle cx="814.43" cy="468.00" r="3.8" fill="#3bf2af" stroke="#111827" stroke-width="1"/>
<circle cx="834.57" cy="468.00" r="3.8" fill="#3bf2af" stroke="#111827" stroke-width="1"/>
<circle cx="855.68" cy="468.00" r="3.8" fill="#3bf2af" stroke="#111827" stroke-width="1"/>
<circle cx="870.94" cy="468.00" r="3.8" fill="#3bf2af" stroke="#111827" stroke-width="1"/>
<circle cx="892.38" cy="468.00" r="3.8" fill="#3bf2af" stroke="#111827" stroke-width="1"/>
<circle cx="901.79" cy="468.00" r="3.8" fill="#3bf2af" stroke="#111827" stroke-width="1"/>
<circle cx="907.64" cy="465.95" r="3.8" fill="#3bf2af" stroke="#111827" stroke-width="1"/>
<circle cx="911.21" cy="463.91" r="3.8" fill="#3bf2af" stroke="#111827" stroke-width="1"/>
<circle cx="919.66" cy="461.86" r="3.8" fill="#3bf2af" stroke="#111827" stroke-width="1"/>
<circle cx="926.48" cy="457.77" r="3.8" fill="#3bf2af" stroke="#111827" stroke-width="1"/>
<circle cx="948.89" cy="457.77" r="3.8" fill="#3bf2af" stroke="#111827" stroke-width="1"/>
<circle cx="953.76" cy="455.73" r="3.8" fill="#3bf2af" stroke="#111827" stroke-width="1"/>
<circle cx="963.83" cy="453.68" r="3.8" fill="#3bf2af" stroke="#111827" stroke-width="1"/>
<circle cx="986.23" cy="453.68" r="3.8" fill="#3bf2af" stroke="#111827" stroke-width="1"/>
<circle cx="993.70" cy="453.68" r="3.8" fill="#3bf2af" stroke="#111827" stroke-width="1"/>
<circle cx="997.60" cy="451.64" r="3.8" fill="#3bf2af" stroke="#111827" stroke-width="1"/>
<circle cx="1013.84" cy="451.64" r="3.8" fill="#3bf2af" stroke="#111827" stroke-width="1"/>
<circle cx="1024.88" cy="451.64" r="3.8" fill="#3bf2af" stroke="#111827" stroke-width="1"/>
<circle cx="1031.46" cy="451.64" r="3.8" fill="#3bf2af" stroke="#111827" stroke-width="1"/>
<circle cx="1033.40" cy="451.64" r="3.8" fill="#3bf2af" stroke="#111827" stroke-width="1"/>
<circle cx="1036.00" cy="451.64" r="3.8" fill="#3bf2af" stroke="#111827" stroke-width="1"/>
<text x="1028.00" y="441.64" text-anchor="end" fill="#3bf2af" font-size="12" font-family="-apple-system,BlinkMacSystemFont,Segoe UI,Helvetica,Arial,sans-serif">8</text>
<polyline fill="none" stroke="url(#repo-1)" stroke-width="4" stroke-linecap="round" stroke-linejoin="round" points="90.00,468.00 91.82,468.00 92.47,468.00 96.04,468.00 99.61,468.00 136.64,468.00 137.61,465.95 143.46,463.91 149.30,463.91 153.85,461.86 157.42,461.86 158.07,461.86 158.40,461.86 158.72,461.86 160.34,461.86 160.99,461.86 165.22,459.82 165.54,459.82 169.44,459.82 170.41,459.82 170.74,459.82 172.36,459.82 173.98,459.82 175.93,459.82 176.91,459.82 182.10,459.82 184.70,459.82 186.33,459.82 186.65,459.82 191.85,459.82 192.17,459.82 192.82,457.77 196.07,457.77 196.72,457.77 197.04,455.73 197.37,453.68 203.21,453.68 204.84,451.64 211.01,451.64 212.31,451.64 212.96,449.59 215.55,447.55 218.48,447.55 222.38,445.50 222.70,445.50 224.97,445.50 227.25,445.50 230.49,445.50 231.47,445.50 233.74,445.50 236.02,445.50 237.96,445.50 238.29,445.50 238.61,445.50 241.21,445.50 241.86,445.50 242.51,445.50 242.84,443.45 243.16,441.41 243.49,441.41 246.08,441.41 246.73,441.41 249.33,439.36 254.85,439.36 255.50,437.32 255.83,437.32 256.15,437.32 256.80,433.23 258.10,433.23 258.42,433.23 260.37,433.23 260.70,433.23 262.97,433.23 263.95,433.23 264.60,433.23 265.57,431.18 267.19,431.18 267.52,429.14 268.49,429.14 271.42,429.14 274.99,429.14 275.96,429.14 276.94,429.14 277.26,429.14 278.56,429.14 278.89,429.14 279.53,429.14 280.51,429.14 282.13,429.14 282.78,429.14 283.11,429.14 283.43,429.14 285.06,429.14 286.03,429.14 286.68,429.14 287.98,427.09 288.30,425.05 289.93,425.05 293.50,425.05 295.45,425.05 297.07,423.00 297.40,423.00 299.67,423.00 301.29,423.00 301.62,420.95 303.57,420.95 303.89,420.95 304.54,418.91 305.52,416.86 305.84,416.86 306.17,416.86 306.49,416.86 311.04,414.82 314.93,414.82 315.26,414.82 315.91,414.82 317.21,414.82 317.53,414.82 319.16,412.77 319.81,410.73 320.13,410.73 320.46,410.73 320.78,410.73 322.40,410.73 325.65,408.68 326.95,408.68 327.28,406.64 327.93,406.64 328.25,404.59 328.90,402.55 329.55,402.55 330.20,400.50 331.50,398.45 332.15,398.45 334.10,398.45 334.42,398.45 335.72,398.45 337.67,398.45 338.97,398.45 340.27,396.41 340.59,396.41 341.24,396.41 342.22,396.41 343.19,396.41 344.81,396.41 346.44,396.41 348.06,396.41 350.98,394.36 353.58,394.36 353.91,394.36 354.23,394.36 359.10,394.36 360.08,394.36 361.05,394.36 361.38,394.36 362.35,394.36 364.62,394.36 364.95,394.36 366.57,394.36 368.52,392.32 371.77,392.32 372.74,392.32 373.72,392.32 375.02,392.32 375.67,392.32 375.99,392.32 376.64,390.27 378.26,390.27 379.56,390.27 383.79,388.23 385.41,388.23 386.38,388.23 389.31,386.18 389.96,384.14 390.28,384.14 390.61,384.14 392.23,384.14 393.20,384.14 394.50,384.14 394.83,384.14 395.48,384.14 397.75,384.14 398.08,384.14 398.73,384.14 401.00,384.14 401.65,384.14 402.95,384.14 403.92,382.09 404.25,382.09 404.57,382.09 408.47,382.09 409.12,382.09 410.42,382.09 410.74,382.09 412.04,382.09 413.34,382.09 413.66,382.09 413.99,382.09 415.61,382.09 416.26,382.09 417.89,380.05 419.19,378.00 420.16,378.00 422.11,378.00 423.41,378.00 425.03,378.00 425.36,378.00 426.01,378.00 426.66,378.00 427.31,378.00 427.63,375.95 428.60,373.91 428.93,373.91 429.25,373.91 429.58,371.86 431.20,371.86 431.85,369.82 433.15,369.82 433.80,369.82 434.77,369.82 435.42,369.82 436.40,369.82 437.70,369.82 439.00,367.77 440.30,365.73 440.62,365.73 442.24,365.73 442.57,365.73 443.22,365.73 443.54,365.73 444.19,365.73 444.52,365.73 446.14,365.73 447.44,365.73 449.06,363.68 453.61,363.68 453.94,363.68 454.26,361.64 454.59,361.64 455.56,357.55 455.88,357.55 456.21,357.55 456.53,357.55 457.83,355.50 458.48,355.50 458.81,355.50 459.78,353.45 460.11,351.41 460.76,351.41 462.70,351.41 463.03,351.41 463.35,351.41 464.65,351.41 466.93,351.41 467.25,351.41 467.90,351.41 470.17,351.41 471.80,351.41 473.42,349.36 476.35,347.32 477.64,347.32 477.97,347.32 478.29,345.27 478.94,345.27 479.27,343.23 479.59,343.23 480.57,343.23 480.89,343.23 481.87,343.23 483.49,343.23 483.82,339.14 484.14,339.14 484.46,339.14 484.79,339.14 485.11,339.14 485.44,339.14 486.09,339.14 486.41,339.14 486.74,335.05 487.71,335.05 488.36,335.05 489.01,335.05 490.31,335.05 491.61,335.05 491.93,335.05 492.26,333.00 492.58,330.95 494.21,330.95 495.51,330.95 495.83,330.95 497.13,330.95 497.46,330.95 497.78,328.91 501.03,328.91 501.35,328.91 502.00,328.91 503.63,328.91 504.28,328.91 504.93,328.91 506.22,326.86 506.87,326.86 507.20,324.82 507.52,324.82 507.85,322.77 509.15,322.77 509.47,322.77 510.12,322.77 510.45,322.77 511.42,322.77 511.75,322.77 513.04,322.77 515.97,322.77 516.94,322.77 517.92,322.77 518.24,320.73 518.57,320.73 518.89,318.68 519.21,318.68 519.86,318.68 522.14,316.64 523.44,316.64 523.76,316.64 524.09,316.64 525.06,316.64 526.36,314.59 527.66,314.59 529.28,314.59 529.61,314.59 533.18,314.59 534.80,314.59 535.45,314.59 536.10,314.59 538.70,314.59 539.35,314.59 539.68,314.59 540.65,314.59 541.30,314.59 541.95,312.55 542.60,312.55 543.25,312.55 544.55,312.55 544.87,312.55 545.20,312.55 546.82,310.50 547.47,310.50 547.79,310.50 548.77,310.50 549.42,310.50 550.07,310.50 551.69,310.50 552.02,308.45 552.34,308.45 553.32,308.45 553.97,306.41 554.61,306.41 556.24,306.41 559.16,306.41 559.49,306.41 560.79,306.41 561.11,306.41 562.41,306.41 562.73,306.41 563.06,304.36 563.71,304.36 564.68,304.36 565.01,304.36 565.33,304.36 565.98,304.36 567.28,304.36 568.26,302.32 568.58,302.32 572.80,302.32 573.13,302.32 574.10,302.32 574.75,302.32 577.02,302.32 578.00,300.27 578.32,300.27 578.65,300.27 581.25,300.27 581.57,300.27 581.90,300.27 582.87,300.27 583.19,300.27 583.84,300.27 586.12,300.27 586.77,300.27 587.42,296.18 588.39,296.18 588.72,296.18 589.69,296.18 595.21,296.18 596.51,296.18 596.84,296.18 598.46,296.18 599.11,294.14 599.43,294.14 599.76,292.09 600.08,292.09 601.06,290.05 602.03,290.05 602.36,290.05 604.30,290.05 604.63,290.05 605.28,290.05 606.25,290.05 606.90,290.05 607.23,290.05 608.53,290.05 609.18,288.00 609.83,288.00 610.80,288.00 611.12,288.00 615.35,288.00 616.32,285.95 617.30,285.95 617.62,285.95 619.24,285.95 619.57,285.95 619.89,285.95 620.22,285.95 621.52,285.95 622.49,285.95 624.77,285.95 625.74,285.95 626.06,285.95 626.71,283.91 627.36,283.91 629.31,283.91 629.64,283.91 632.88,283.91 633.21,283.91 634.18,283.91 634.51,283.91 635.48,283.91 635.81,279.82 636.13,279.82 637.76,279.82 638.08,279.82 639.06,279.82 640.68,279.82 641.98,279.82 642.95,277.77 646.52,275.73 646.85,273.68 648.80,271.64 649.45,271.64 650.10,269.59 651.40,267.55 651.72,265.50 654.32,265.50 657.24,265.50 657.89,265.50 658.22,263.45 658.54,263.45 661.46,261.41 662.76,259.36 663.09,259.36 663.41,259.36 664.06,257.32 665.36,257.32 665.69,257.32 666.34,257.32 667.63,257.32 669.26,257.32 669.58,255.27 670.23,255.27 670.56,255.27 670.88,253.23 671.21,253.23 671.53,253.23 672.18,253.23 676.08,253.23 678.35,251.18 680.63,249.14 681.60,247.09 681.92,245.05 682.25,245.05 683.22,243.00 683.55,243.00 685.82,240.95 686.15,240.95 687.45,238.91 687.77,238.91 688.10,238.91 689.39,238.91 690.37,236.86 691.67,236.86 692.64,234.82 692.97,232.77 694.92,232.77 695.57,232.77 696.54,232.77 696.86,232.77 697.51,232.77 699.46,230.73 700.11,228.68 700.76,228.68 701.09,228.68 701.74,228.68 702.06,228.68 703.03,228.68 703.36,228.68 704.01,228.68 705.31,228.68 705.63,228.68 706.28,228.68 706.93,228.68 708.23,228.68 708.56,226.64 709.86,226.64 711.15,226.64 712.78,224.59 713.75,224.59 714.08,224.59 715.70,222.55 716.03,222.55 717.32,222.55 718.30,222.55 718.95,220.50 719.92,220.50 721.22,220.50 721.55,220.50 722.20,220.50 724.79,220.50 726.74,218.45 729.02,218.45 732.59,218.45 732.91,216.41 733.24,216.41 735.19,216.41 735.84,216.41 736.16,216.41 736.49,214.36 737.46,214.36 737.79,212.32 738.43,212.32 741.03,212.32 742.66,212.32 743.31,210.27 744.93,208.23 746.23,208.23 749.15,206.18 750.45,204.14 752.40,204.14 758.25,202.09 760.52,200.05 761.17,200.05 764.09,200.05 764.74,200.05 765.39,200.05 767.34,200.05 767.99,200.05 768.64,200.05 768.96,198.00 769.29,198.00 771.89,198.00 774.81,198.00 776.43,198.00 778.38,198.00 781.30,195.95 783.90,195.95 785.20,195.95 785.85,195.95 787.15,195.95 788.77,195.95 789.42,195.95 790.07,195.95 792.02,195.95 793.32,195.95 793.65,195.95 796.57,193.91 796.89,193.91 797.22,191.86 797.87,191.86 798.84,189.82 800.14,189.82 802.09,189.82 802.41,189.82 803.39,187.77 805.66,185.73 807.94,185.73 809.88,185.73 812.48,185.73 813.13,185.73 813.46,185.73 814.43,183.68 814.76,183.68 815.08,183.68 815.73,183.68 817.03,181.64 819.30,181.64 819.63,179.59 820.60,179.59 822.55,179.59 824.17,179.59 824.50,179.59 825.80,179.59 826.77,179.59 827.10,177.55 828.40,177.55 829.05,175.50 830.67,175.50 830.99,173.45 831.32,173.45 833.27,173.45 834.24,173.45 834.57,173.45 836.52,171.41 837.81,171.41 838.14,171.41 838.46,169.36 840.74,169.36 842.36,169.36 846.26,169.36 846.58,169.36 848.53,169.36 851.45,169.36 854.70,169.36 856.65,169.36 856.98,169.36 857.30,169.36 857.95,169.36 860.55,169.36 862.82,169.36 866.07,169.36 866.39,167.32 869.32,167.32 870.29,167.32 871.59,167.32 881.66,167.32 882.96,167.32 883.28,167.32 886.53,167.32 888.15,167.32 890.43,167.32 891.08,165.27 891.40,165.27 893.35,165.27 894.65,165.27 895.30,165.27 895.62,165.27 895.95,165.27 896.92,165.27 898.55,165.27 898.87,163.23 900.50,163.23 902.77,163.23 905.04,163.23 905.69,163.23 909.26,163.23 909.59,163.23 911.21,163.23 912.84,163.23 915.76,163.23 917.06,163.23 919.33,159.14 919.66,159.14 920.31,157.09 921.93,157.09 922.25,157.09 922.90,157.09 923.88,157.09 924.20,157.09 924.53,157.09 924.85,157.09 926.15,157.09 926.48,155.05 928.43,155.05 928.75,155.05 930.37,155.05 930.70,155.05 931.35,155.05 932.00,153.00 932.97,153.00 936.22,153.00 942.07,153.00 943.36,153.00 944.99,150.95 946.29,150.95 947.59,150.95 948.56,150.95 949.54,150.95 951.81,148.91 953.43,148.91 954.08,146.86 956.36,144.82 956.68,142.77 957.01,142.77 960.58,142.77 962.53,142.77 962.85,140.73 965.77,140.73 970.65,140.73 971.94,138.68 972.27,138.68 973.24,138.68 977.14,138.68 981.69,138.68 982.01,136.64 986.23,136.64 988.83,136.64 1001.50,136.64 1004.42,136.64 1005.40,136.64 1007.02,136.64 1007.34,136.64 1013.19,136.64 1015.79,136.64 1020.98,136.64 1022.61,136.64 1024.88,136.64 1031.46,124.36 1034.38,124.36 1034.70,124.36 1035.36,124.36 1035.68,124.36 1036.00,124.36"/>
<circle cx="90.00" cy="468.00" r="3.8" fill="#ffb50c" stroke="#111827" stroke-width="1"/>
<circle cx="191.85" cy="459.82" r="3.8" fill="#ffb50c" stroke="#111827" stroke-width="1"/>
<circle cx="243.16" cy="441.41" r="3.8" fill="#ffb50c" stroke="#111827" stroke-width="1"/>
<circle cx="280.51" cy="429.14" r="3.8" fill="#ffb50c" stroke="#111827" stroke-width="1"/>
<circle cx="317.21" cy="414.82" r="3.8" fill="#ffb50c" stroke="#111827" stroke-width="1"/>
<circle cx="346.44" cy="396.41" r="3.8" fill="#ffb50c" stroke="#111827" stroke-width="1"/>
<circle cx="390.28" cy="384.14" r="3.8" fill="#ffb50c" stroke="#111827" stroke-width="1"/>
<circle cx="422.11" cy="378.00" r="3.8" fill="#ffb50c" stroke="#111827" stroke-width="1"/>
<circle cx="446.14" cy="365.73" r="3.8" fill="#ffb50c" stroke="#111827" stroke-width="1"/>
<circle cx="477.97" cy="347.32" r="3.8" fill="#ffb50c" stroke="#111827" stroke-width="1"/>
<circle cx="497.13" cy="330.95" r="3.8" fill="#ffb50c" stroke="#111827" stroke-width="1"/>
<circle cx="522.14" cy="316.64" r="3.8" fill="#ffb50c" stroke="#111827" stroke-width="1"/>
<circle cx="550.07" cy="310.50" r="3.8" fill="#ffb50c" stroke="#111827" stroke-width="1"/>
<circle cx="578.32" cy="300.27" r="3.8" fill="#ffb50c" stroke="#111827" stroke-width="1"/>
<circle cx="606.90" cy="290.05" r="3.8" fill="#ffb50c" stroke="#111827" stroke-width="1"/>
<circle cx="635.81" cy="279.82" r="3.8" fill="#ffb50c" stroke="#111827" stroke-width="1"/>
<circle cx="669.26" cy="257.32" r="3.8" fill="#ffb50c" stroke="#111827" stroke-width="1"/>
<circle cx="696.86" cy="232.77" r="3.8" fill="#ffb50c" stroke="#111827" stroke-width="1"/>
<circle cx="721.55" cy="220.50" r="3.8" fill="#ffb50c" stroke="#111827" stroke-width="1"/>
<circle cx="767.34" cy="200.05" r="3.8" fill="#ffb50c" stroke="#111827" stroke-width="1"/>
<circle cx="805.66" cy="185.73" r="3.8" fill="#ffb50c" stroke="#111827" stroke-width="1"/>
<circle cx="837.81" cy="171.41" r="3.8" fill="#ffb50c" stroke="#111827" stroke-width="1"/>
<circle cx="893.35" cy="165.27" r="3.8" fill="#ffb50c" stroke="#111827" stroke-width="1"/>
<circle cx="926.48" cy="155.05" r="3.8" fill="#ffb50c" stroke="#111827" stroke-width="1"/>
<circle cx="973.24" cy="138.68" r="3.8" fill="#ffb50c" stroke="#111827" stroke-width="1"/>
<circle cx="1036.00" cy="124.36" r="3.8" fill="#ffb50c" stroke="#111827" stroke-width="1"/>
<text x="1028.00" y="114.36" text-anchor="end" fill="#ffb50c" font-size="12" font-family="-apple-system,BlinkMacSystemFont,Segoe UI,Helvetica,Arial,sans-serif">168</text>
<rect x="90.00" y="514.00" width="14" height="14" fill="url(#repo-0)" rx="3"/>
<text x="112.00" y="526.00" fill="#3bf2af" font-size="13" font-family="-apple-system,BlinkMacSystemFont,Segoe UI,Helvetica,Arial,sans-serif">bavix/gripmock</text>
<rect x="280.00" y="514.00" width="14" height="14" fill="url(#repo-1)" rx="3"/>
<text x="302.00" y="526.00" fill="#ffb50c" font-size="13" font-family="-apple-system,BlinkMacSystemFont,Segoe UI,Helvetica,Arial,sans-serif">tokopedia/gripmock</text>
<text x="1036.00" y="526.00" text-anchor="end" fill="#9ca3af" font-size="12" font-family="-apple-system,BlinkMacSystemFont,Segoe UI,Helvetica,Arial,sans-serif">Source: https://github.com/bavix/artifact-stats/blob/master/stats/github.csv</text>
</svg>