<svg xmlns="http://www.w3.org/2000/svg" width="1100" height="560" viewBox="0 0 1100 560">
<defs>
<linearGradient id="bg" x1="0" y1="0" x2="1" y2="1"><stop offset="0%" stop-color="#0b1220"/><stop offset="100%" stop-color="#111827"/></linearGradient>
<linearGradient id="repo-0" x1="0" y1="0" x2="0" y2="1"><stop offset="0%" stop-color="#34d399"/><stop offset="100%" stop-color="#059669"/></linearGradient>
<linearGradient id="repo-1" x1="0" y1="0" x2="0" y2="1"><stop offset="0%" stop-color="#f59e0b"/><stop offset="100%" stop-color="#d97706"/></linearGradient>
</defs>
<rect x="0" y="0" width="1100" height="560" fill="url(#bg)" rx="16"/>
<text x="90" y="44" fill="#f9fafb" font-size="28" font-family="-apple-system,BlinkMacSystemFont,Segoe UI,Helvetica,Arial,sans-serif" font-weight="700">GripMock GitHub Metrics - Stars</text>
<text x="90" y="70" fill="#9ca3af" font-size="16" font-family="-apple-system,BlinkMacSystemFont,Segoe UI,Helvetica,Arial,sans-serif">GitHub stars by snapshot date</text>
<line x1="90" y1="90.0" x2="1036" y2="90.0" stroke="#1f2937" stroke-width="1"/>
<text x="80" y="95.0" text-anchor="end" fill="#9ca3af" font-size="12" font-family="-apple-system,BlinkMacSystemFont,Segoe UI,Helvetica,Arial,sans-serif">810</text>
<line x1="90" y1="153.0" x2="1036" y2="153.0" stroke="#1f2937" stroke-width="1"/>
<text x="80" y="158.0" text-anchor="end" fill="#9ca3af" font-size="12" font-family="-apple-system,BlinkMacSystemFont,Segoe UI,Helvetica,Arial,sans-serif">675</text>
<line x1="90" y1="216.0" x2="1036" y2="216.0" stroke="#1f2937" stroke-width="1"/>
<text x="80" y="221.0" text-anchor="end" fill="#9ca3af" font-size="12" font-family="-apple-system,BlinkMacSystemFont,Segoe UI,Helvetica,Arial,sans-serif">540</text>
<line x1="90" y1="279.0" x2="1036" y2="279.0" stroke="#1f2937" stroke-width="1"/>
<text x="80" y="284.0" text-anchor="end" fill="#9ca3af" font-size="12" font-family="-apple-system,BlinkMacSystemFont,Segoe UI,Helvetica,Arial,sans-serif">405</text>
<line x1="90" y1="342.0" x2="1036" y2="342.0" stroke="#1f2937" stroke-width="1"/>
<text x="80" y="347.0" text-anchor="end" fill="#9ca3af" font-size="12" font-family="-apple-system,BlinkMacSystemFont,Segoe UI,Helvetica,Arial,sans-serif">270</text>
<line x1="90" y1="405.0" x2="1036" y2="405.0" stroke="#1f2937" stroke-width="1"/>
<text x="80" y="410.0" text-anchor="end" fill="#9ca3af" font-size="12" font-family="-apple-system,BlinkMacSystemFont,Segoe UI,Helvetica,Arial,sans-serif">135</text>
<line x1="90" y1="468.0" x2="1036" y2="468.0" stroke="#1f2937" stroke-width="1"/>
<text x="80" y="473.0" text-anchor="end" fill="#9ca3af" font-size="12" font-family="-apple-system,BlinkMacSystemFont,Segoe UI,Helvetica,Arial,sans-serif">0</text>
<line x1="90" y1="468" x2="1036" y2="468" stroke="#4b5563" stroke-width="1.4"/>
<line x1="90" y1="90" x2="90" y2="468" stroke="#4b5563" stroke-width="1.4"/>
<line x1="90.0" y1="468" x2="90.0" y2="474" stroke="#6b7280" stroke-width="1"/>
<text x="90.0" y="494" text-anchor="start" fill="#9ca3af" font-size="12" font-family="-apple-system,BlinkMacSystemFont,Segoe UI,Helvetica,Arial,sans-serif">2018-04-24</text>
<line x1="279.2" y1="468" x2="279.2" y2="474" stroke="#6b7280" stroke-width="1"/>
<text x="279.2" y="494" text-anchor="middle" fill="#9ca3af" font-size="12" font-family="-apple-system,BlinkMacSystemFont,Segoe UI,Helvetica,Arial,sans-serif">2019-11-26</text>
<line x1="468.4" y1="468" x2="468.4" y2="474" stroke="#6b7280" stroke-width="1"/>
<text x="468.4" y="494" text-anchor="middle" fill="#9ca3af" font-size="12" font-family="-apple-system,BlinkMacSystemFont,Segoe UI,Helvetica,Arial,sans-serif">2021-06-29</text>
<line x1="657.6" y1="468" x2="657.6" y2="474" stroke="#6b7280" stroke-width="1"/>
<text x="657.6" y="494" text-anchor="middle" fill="#9ca3af" font-size="12" font-family="-apple-system,BlinkMacSystemFont,Segoe UI,Helvetica,Arial,sans-serif">2023-01-31</text>
<line x1="846.8" y1="468" x2="846.8" y2="474" stroke="#6b7280" stroke-width="1"/>
<text x="846.8" y="494" text-anchor="middle" fill="#9ca3af" font-size="12" font-family="-apple-system,BlinkMacSystemFont,Segoe UI,Helvetica,Arial,sans-serif">2024-09-03</text>
<line x1="1036.0" y1="468" x2="1036.0" y2="474" stroke="#6b7280" stroke-width="1"/>
<text x="1036.0" y="494" text-anchor="end" fill="#9ca3af" font-size="12" font-family="-apple-system,BlinkMacSystemFont,Segoe UI,Helvetica,Arial,sans-serif">2026-04-07</text>
<polyline fill="none" stroke="url(#repo-0)" stroke-width="4" stroke-linecap="round" stroke-linejoin="round" points="721.79,468.00 728.50,467.53 741.53,467.07 755.20,466.60 757.16,466.13 760.41,465.67 772.14,465.20 774.42,464.73 779.95,464.26 780.28,463.80 785.16,463.33 792.98,462.86 805.36,462.40 808.61,461.93 812.85,461.46 816.43,461.00 831.41,460.53 835.97,460.06 836.62,459.60 837.92,459.13 844.11,458.66 857.79,458.20 860.72,457.73 867.56,457.26 873.09,456.79 873.75,456.33 874.40,455.86 894.59,455.39 897.19,454.93 897.84,454.46 904.03,453.99 904.68,453.53 908.59,453.53 909.89,453.06 910.22,452.59 910.55,452.13 913.48,451.66 915.10,451.19 916.73,450.72 921.94,450.72 926.50,450.72 928.13,450.26 928.78,450.26 935.62,449.79 939.53,449.32 951.25,448.86 953.53,448.39 954.18,448.39 956.14,447.92 958.09,447.46 961.02,447.46 966.23,446.99 973.07,446.52 977.31,446.06 988.71,445.59 990.98,445.12 995.87,444.66 996.20,444.19 997.17,443.72 999.78,443.25 1000.10,443.25 1008.90,442.79 1015.74,442.32 1016.39,441.85 1018.67,441.39 1025.18,440.92 1027.46,440.45 1029.09,439.99 1030.72,439.52 1034.05,439.52 1035.02,439.52 1035.35,439.05 1036.00,439.05"/>
<circle cx="721.79" cy="468.00" r="3.8" fill="#3bf2af" stroke="#111827" stroke-width="1"/>
<circle cx="755.20" cy="466.60" r="3.8" fill="#3bf2af" stroke="#111827" stroke-width="1"/>
<circle cx="772.14" cy="465.20" r="3.8" fill="#3bf2af" stroke="#111827" stroke-width="1"/>
<circle cx="780.28" cy="463.80" r="3.8" fill="#3bf2af" stroke="#111827" stroke-width="1"/>
<circle cx="805.36" cy="462.40" r="3.8" fill="#3bf2af" stroke="#111827" stroke-width="1"/>
<circle cx="816.43" cy="461.00" r="3.8" fill="#3bf2af" stroke="#111827" stroke-width="1"/>
<circle cx="836.62" cy="459.60" r="3.8" fill="#3bf2af" stroke="#111827" stroke-width="1"/>
<circle cx="857.79" cy="458.20" r="3.8" fill="#3bf2af" stroke="#111827" stroke-width="1"/>
<circle cx="873.09" cy="456.79" r="3.8" fill="#3bf2af" stroke="#111827" stroke-width="1"/>
<circle cx="894.59" cy="455.39" r="3.8" fill="#3bf2af" stroke="#111827" stroke-width="1"/>
<circle cx="904.03" cy="453.99" r="3.8" fill="#3bf2af" stroke="#111827" stroke-width="1"/>
<circle cx="909.89" cy="453.06" r="3.8" fill="#3bf2af" stroke="#111827" stroke-width="1"/>
<circle cx="913.48" cy="451.66" r="3.8" fill="#3bf2af" stroke="#111827" stroke-width="1"/>
<circle cx="921.94" cy="450.72" r="3.8" fill="#3bf2af" stroke="#111827" stroke-width="1"/>
<circle cx="928.78" cy="450.26" r="3.8" fill="#3bf2af" stroke="#111827" stroke-width="1"/>
<circle cx="951.25" cy="448.86" r="3.8" fill="#3bf2af" stroke="#111827" stroke-width="1"/>
<circle cx="956.14" cy="447.92" r="3.8" fill="#3bf2af" stroke="#111827" stroke-width="1"/>
<circle cx="966.23" cy="446.99" r="3.8" fill="#3bf2af" stroke="#111827" stroke-width="1"/>
<circle cx="988.71" cy="445.59" r="3.8" fill="#3bf2af" stroke="#111827" stroke-width="1"/>
<circle cx="996.20" cy="444.19" r="3.8" fill="#3bf2af" stroke="#111827" stroke-width="1"/>
<circle cx="1000.10" cy="443.25" r="3.8" fill="#3bf2af" stroke="#111827" stroke-width="1"/>
<circle cx="1016.39" cy="441.85" r="3.8" fill="#3bf2af" stroke="#111827" stroke-width="1"/>
<circle cx="1027.46" cy="440.45" r="3.8" fill="#3bf2af" stroke="#111827" stroke-width="1"/>
<circle cx="1034.05" cy="439.52" r="3.8" fill="#3bf2af" stroke="#111827" stroke-width="1"/>
<circle cx="1036.00" cy="439.05" r="3.8" fill="#3bf2af" stroke="#111827" stroke-width="1"/>
<text x="1028.0" y="429.1" text-anchor="end" fill="#3bf2af" font-size="12" font-family="-apple-system,BlinkMacSystemFont,Segoe UI,Helvetica,Arial,sans-serif">62</text>
<polyline fill="none" stroke="url(#repo-1)" stroke-width="4" stroke-linecap="round" stroke-linejoin="round" points="90.00,468.00 91.82,466.60 92.47,466.13 96.06,465.67 99.64,465.20 136.76,464.73 137.74,464.26 143.60,464.26 149.47,463.80 154.02,463.80 157.61,463.33 158.26,462.86 158.58,462.40 158.91,461.93 160.54,461.46 161.19,461.00 165.42,460.53 165.75,460.06 169.66,459.60 170.63,459.13 170.96,458.66 172.59,458.20 174.22,457.26 176.17,456.79 177.15,456.33 182.36,455.86 184.96,455.39 186.59,454.93 186.92,454.46 192.13,453.99 192.45,453.53 193.10,453.06 196.36,452.59 197.01,451.66 197.34,451.66 197.66,451.66 203.53,451.19 205.15,451.19 211.34,450.72 212.64,450.26 213.30,450.26 215.90,449.79 218.83,449.32 222.74,449.32 223.07,448.86 225.35,448.39 227.62,447.92 230.88,447.46 231.86,446.99 234.14,446.52 236.42,446.06 238.37,445.59 238.70,445.12 239.02,444.66 241.63,444.19 242.28,443.72 242.93,442.79 243.26,442.32 243.58,441.39 243.91,440.92 246.51,440.45 247.16,439.52 249.77,439.52 255.31,439.05 255.96,439.05 256.28,438.59 256.61,438.12 257.26,438.12 258.56,437.65 258.89,437.18 260.84,436.72 261.17,436.25 263.45,435.78 264.43,434.85 265.08,433.92 266.05,433.92 267.68,433.45 268.01,432.98 268.98,432.52 271.92,432.05 275.50,431.58 276.47,431.12 277.45,430.65 277.78,430.18 279.08,429.71 279.41,429.25 280.06,428.78 281.03,427.38 282.66,426.91 283.31,426.45 283.64,425.98 283.97,424.58 285.59,424.11 286.57,423.64 287.22,423.18 288.52,423.18 288.85,422.71 290.48,422.24 294.06,421.78 296.01,421.31 297.64,421.31 297.97,420.38 300.25,419.91 301.88,419.44 302.20,419.44 304.16,418.98 304.48,418.51 305.13,418.51 306.11,418.51 306.44,418.04 306.76,417.58 307.09,417.11 311.65,415.71 315.55,415.24 315.88,414.77 316.53,414.31 317.83,413.84 318.16,413.37 319.79,413.37 320.44,412.91 320.77,412.44 321.09,411.97 321.42,411.51 323.04,411.04 326.30,410.57 327.60,410.10 327.93,410.10 328.58,409.64 328.91,409.64 329.56,408.24 330.21,407.77 330.86,407.77 332.16,407.30 332.81,406.84 334.77,406.37 335.09,405.90 336.40,405.44 338.35,404.97 339.65,404.50 340.96,404.50 341.28,404.04 341.93,403.57 342.91,403.10 343.89,402.63 345.52,402.17 347.14,401.70 348.77,401.23 351.70,400.77 354.31,400.30 354.63,399.83 354.96,399.37 359.85,398.90 360.82,398.43 361.80,397.97 362.12,397.03 363.10,396.56 365.38,395.63 365.71,394.70 367.34,394.23 369.29,394.23 372.55,393.76 373.52,393.30 374.50,392.83 375.80,391.90 376.45,391.43 376.78,390.96 377.43,390.50 379.06,389.56 380.36,389.09 384.60,388.16 386.22,386.76 387.20,385.83 390.13,385.83 390.78,385.83 391.11,385.36 391.43,384.43 393.06,383.49 394.04,383.02 395.34,382.56 395.67,382.09 396.32,381.62 398.60,381.16 398.93,380.69 399.58,380.22 401.86,379.76 402.51,379.29 403.81,378.82 404.79,378.36 405.11,377.89 405.44,377.42 409.35,376.96 410.00,376.49 411.30,375.55 411.63,375.09 412.93,374.62 414.23,371.35 414.56,370.42 414.88,369.95 416.51,369.48 417.16,369.02 418.79,369.02 420.09,368.55 421.07,368.08 423.02,367.15 424.33,366.68 425.96,366.22 426.28,365.75 426.93,365.28 427.58,364.35 428.23,363.88 428.56,363.88 429.54,363.88 429.86,363.42 430.19,362.95 430.51,362.48 432.14,362.01 432.79,361.08 434.10,360.61 434.75,359.68 435.73,359.21 436.38,358.75 437.35,358.28 438.66,357.81 439.96,357.81 441.26,357.35 441.59,356.88 443.22,356.41 443.54,355.94 444.19,355.48 444.52,355.01 445.17,354.54 445.50,353.14 447.12,352.68 448.43,352.21 450.05,351.74 454.61,350.81 454.94,350.34 455.27,350.34 455.59,349.88 456.57,349.41 456.89,348.94 457.22,348.47 457.54,347.54 458.85,347.07 459.50,346.14 459.82,344.74 460.80,344.74 461.13,344.74 461.78,343.81 463.73,343.34 464.06,342.40 464.38,341.94 465.69,341.47 467.97,341.00 468.29,340.54 468.94,340.07 471.22,339.60 472.85,339.14 474.48,339.14 477.41,339.14 478.71,338.67 479.04,338.20 479.36,338.20 480.02,337.74 480.34,336.80 480.67,336.33 481.64,335.87 481.97,335.40 482.95,334.93 484.58,334.00 484.90,334.00 485.23,333.07 485.55,332.60 485.88,331.20 486.20,330.27 486.53,329.80 487.18,329.33 487.51,327.46 487.83,327.00 488.81,326.53 489.46,325.60 490.11,325.13 491.41,324.66 492.72,324.20 493.04,323.73 493.37,323.26 493.69,322.79 495.32,322.33 496.62,321.86 496.95,321.39 498.25,320.46 498.58,319.53 498.90,319.53 502.16,319.06 502.49,318.59 503.14,318.13 504.77,317.19 505.42,316.73 506.07,316.26 507.37,316.26 508.02,315.32 508.35,315.32 508.67,313.46 509.00,311.12 510.30,310.66 510.63,310.19 511.28,309.72 511.61,309.25 512.58,308.79 512.91,308.32 514.21,307.85 517.14,307.39 518.12,306.92 519.10,306.45 519.42,305.05 519.75,304.59 520.07,304.12 520.40,303.65 521.05,303.19 523.33,303.19 524.63,302.72 524.96,302.25 525.28,301.78 526.26,301.32 527.56,301.32 528.87,300.85 530.49,300.38 530.82,299.92 534.40,299.45 536.03,298.98 536.68,298.05 537.33,297.58 539.94,297.12 540.59,296.65 540.92,296.18 541.89,295.71 542.54,295.25 543.19,295.25 543.85,294.78 544.50,294.31 545.80,293.85 546.13,293.38 546.45,292.91 548.08,292.91 548.73,292.45 549.06,291.98 550.03,291.05 550.69,290.11 551.34,289.65 552.96,288.71 553.29,288.71 553.62,288.24 554.59,287.78 555.24,287.31 555.90,286.84 557.52,286.38 560.46,285.91 560.78,285.44 562.08,284.98 562.41,284.51 563.71,284.04 564.04,283.58 564.36,281.71 565.01,281.24 565.99,280.77 566.32,280.31 566.64,279.84 567.29,279.37 568.60,278.91 569.57,278.91 569.90,278.44 574.13,277.97 574.46,277.51 575.44,276.57 576.09,276.11 578.37,275.64 579.34,275.17 579.67,274.70 580.00,274.24 582.60,273.30 582.93,272.84 583.25,270.97 584.23,270.50 584.55,270.04 585.21,269.57 587.49,269.10 588.14,268.63 588.79,268.63 589.77,268.17 590.09,267.70 591.07,267.23 596.60,266.77 597.91,265.83 598.23,265.37 599.86,264.90 600.51,264.90 600.84,263.97 601.16,263.97 601.49,263.50 602.47,263.03 603.44,262.57 603.77,262.10 605.72,261.63 606.05,261.16 606.70,260.23 607.68,259.76 608.33,259.30 608.65,258.83 609.96,258.36 610.61,258.36 611.26,257.90 612.24,257.43 612.56,256.96 616.80,256.50 617.77,256.50 618.75,256.03 619.07,255.56 620.70,255.09 621.03,254.16 621.35,253.69 621.68,252.76 622.98,252.29 623.96,251.83 626.24,250.89 627.22,250.43 627.54,249.96 628.19,249.96 628.84,248.56 630.80,248.09 631.12,247.62 634.38,247.16 634.71,246.69 635.68,245.29 636.01,244.82 636.99,244.36 637.31,244.36 637.64,243.89 639.27,243.42 639.59,242.49 640.57,241.55 642.20,241.09 643.50,240.62 644.48,240.62 648.06,240.62 648.38,240.62 650.34,240.62 650.99,239.69 651.64,239.69 652.94,239.69 653.27,239.69 655.88,239.22 658.81,238.75 659.46,238.29 659.78,237.35 660.11,236.89 663.04,236.42 664.34,236.42 664.67,235.95 664.99,235.49 665.65,235.49 666.95,235.02 667.27,234.55 667.92,234.08 669.23,233.62 670.86,233.15 671.18,233.15 671.83,232.68 672.16,232.22 672.48,232.22 672.81,231.75 673.14,231.28 673.79,230.82 677.69,230.35 679.97,230.35 682.25,230.35 683.23,230.35 683.56,229.88 683.88,229.42 684.86,229.42 685.19,228.95 687.46,228.48 687.79,228.01 689.09,228.01 689.42,227.55 689.74,227.08 691.05,226.61 692.02,226.61 693.33,225.68 694.30,225.68 694.63,225.68 696.58,225.21 697.23,224.28 698.21,223.81 698.54,223.35 699.19,222.88 701.14,221.95 701.79,221.95 702.45,221.48 702.77,221.01 703.42,220.54 703.75,220.08 704.72,219.61 705.05,218.68 705.70,218.21 707.00,217.74 707.33,217.28 707.98,216.34 708.63,215.88 709.94,215.41 710.26,214.94 711.56,214.47 712.87,214.01 714.49,214.01 715.47,213.54 715.80,213.07 717.43,213.07 717.75,212.61 719.05,212.14 720.03,210.74 720.68,210.74 721.66,210.27 722.96,209.81 723.29,209.34 723.94,208.87 726.54,208.41 728.50,207.94 730.78,207.47 734.36,207.00 734.69,207.00 735.01,206.54 736.97,205.14 737.62,204.67 737.94,204.20 738.27,203.74 739.25,203.27 739.57,202.80 740.22,202.34 742.83,201.40 744.46,200.93 745.11,200.93 746.74,200.93 748.04,200.47 750.97,200.00 752.27,200.00 754.23,199.53 760.09,199.53 762.37,199.53 763.02,199.07 765.95,198.60 766.60,198.13 767.25,197.67 769.21,197.20 769.86,196.73 770.51,195.80 770.84,195.80 771.16,195.33 773.77,194.87 776.70,194.40 778.33,193.93 780.28,193.46 783.21,193.46 785.82,192.06 787.12,191.60 787.77,191.13 789.07,190.66 790.70,190.20 791.35,189.73 792.00,189.26 793.96,188.80 795.26,188.33 795.59,187.39 798.52,187.39 798.84,186.93 799.17,186.93 799.82,186.46 800.80,186.46 802.10,185.99 804.05,185.53 804.38,185.06 805.36,185.06 807.64,185.06 809.91,184.59 811.87,184.13 814.47,183.66 815.13,183.19 815.45,182.73 816.43,182.73 816.75,182.26 817.08,181.79 817.73,180.86 819.03,180.39 821.31,179.92 821.64,179.46 822.62,178.52 824.57,178.06 826.20,177.59 826.52,177.12 827.83,176.66 828.80,176.19 829.13,176.19 830.43,175.72 831.08,175.72 832.71,175.26 833.04,174.79 833.36,173.39 835.32,172.92 836.29,172.45 836.62,171.99 838.57,171.99 839.88,171.52 840.20,170.12 840.53,170.12 842.81,168.72 844.44,168.25 848.34,167.79 848.67,167.32 850.62,166.85 853.55,166.38 856.81,165.92 858.76,164.98 859.09,164.52 859.42,164.05 860.07,163.58 862.67,163.12 864.95,162.65 868.21,162.18 868.53,162.18 871.47,161.72 872.44,161.25 873.75,160.78 883.84,160.31 885.14,159.38 885.47,158.91 888.73,158.45 890.35,157.51 892.63,157.05 893.29,157.05 893.61,156.58 895.56,156.11 896.87,155.65 897.52,155.18 897.84,154.71 898.17,154.25 899.15,153.78 900.78,153.31 901.10,153.31 902.73,152.84 905.01,152.38 907.29,151.91 907.94,151.44 911.52,150.98 911.85,150.51 913.48,150.04 915.10,149.58 918.04,149.11 919.34,148.64 921.62,148.64 921.94,148.18 922.60,148.18 924.22,147.71 924.55,147.24 925.20,146.77 926.18,145.84 926.50,144.44 926.83,143.51 927.15,143.04 928.46,142.57 928.78,142.57 930.74,142.11 931.06,141.64 932.69,141.17 933.02,140.71 933.67,140.24 934.32,140.24 935.30,139.77 938.55,139.30 944.41,138.84 945.72,138.37 947.35,137.90 948.65,137.44 949.95,136.97 950.93,136.50 951.91,135.57 954.18,135.57 955.81,135.10 956.46,135.10 958.74,135.10 959.07,135.10 959.40,134.64 962.98,134.17 964.93,133.70 965.26,133.70 968.19,133.23 973.07,132.77 974.38,132.77 974.70,132.30 975.68,131.83 979.59,131.37 984.15,130.90 984.47,130.90 988.71,130.43 991.31,129.97 1004.01,129.50 1006.94,128.57 1007.92,128.10 1009.55,127.63 1009.87,126.70 1015.74,126.23 1018.34,125.76 1023.55,125.30 1025.18,124.83 1027.46,124.36 1034.05,124.36 1036.00,124.36"/>
<circle cx="90.00" cy="468.00" r="3.8" fill="#ffb50c" stroke="#111827" stroke-width="1"/>
<circle cx="192.13" cy="453.99" r="3.8" fill="#ffb50c" stroke="#111827" stroke-width="1"/>
<circle cx="243.58" cy="441.39" r="3.8" fill="#ffb50c" stroke="#111827" stroke-width="1"/>
<circle cx="281.03" cy="427.38" r="3.8" fill="#ffb50c" stroke="#111827" stroke-width="1"/>
<circle cx="317.83" cy="413.84" r="3.8" fill="#ffb50c" stroke="#111827" stroke-width="1"/>
<circle cx="347.14" cy="401.70" r="3.8" fill="#ffb50c" stroke="#111827" stroke-width="1"/>
<circle cx="391.11" cy="385.36" r="3.8" fill="#ffb50c" stroke="#111827" stroke-width="1"/>
<circle cx="423.02" cy="367.15" r="3.8" fill="#ffb50c" stroke="#111827" stroke-width="1"/>
<circle cx="447.12" cy="352.68" r="3.8" fill="#ffb50c" stroke="#111827" stroke-width="1"/>
<circle cx="479.04" cy="338.20" r="3.8" fill="#ffb50c" stroke="#111827" stroke-width="1"/>
<circle cx="498.25" cy="320.46" r="3.8" fill="#ffb50c" stroke="#111827" stroke-width="1"/>
<circle cx="523.33" cy="303.19" r="3.8" fill="#ffb50c" stroke="#111827" stroke-width="1"/>
<circle cx="551.34" cy="289.65" r="3.8" fill="#ffb50c" stroke="#111827" stroke-width="1"/>
<circle cx="579.67" cy="274.70" r="3.8" fill="#ffb50c" stroke="#111827" stroke-width="1"/>
<circle cx="608.33" cy="259.30" r="3.8" fill="#ffb50c" stroke="#111827" stroke-width="1"/>
<circle cx="637.31" cy="244.36" r="3.8" fill="#ffb50c" stroke="#111827" stroke-width="1"/>
<circle cx="670.86" cy="233.15" r="3.8" fill="#ffb50c" stroke="#111827" stroke-width="1"/>
<circle cx="698.54" cy="223.35" r="3.8" fill="#ffb50c" stroke="#111827" stroke-width="1"/>
<circle cx="723.29" cy="209.34" r="3.8" fill="#ffb50c" stroke="#111827" stroke-width="1"/>
<circle cx="769.21" cy="197.20" r="3.8" fill="#ffb50c" stroke="#111827" stroke-width="1"/>
<circle cx="807.64" cy="185.06" r="3.8" fill="#ffb50c" stroke="#111827" stroke-width="1"/>
<circle cx="839.88" cy="171.52" r="3.8" fill="#ffb50c" stroke="#111827" stroke-width="1"/>
<circle cx="895.56" cy="156.11" r="3.8" fill="#ffb50c" stroke="#111827" stroke-width="1"/>
<circle cx="928.78" cy="142.57" r="3.8" fill="#ffb50c" stroke="#111827" stroke-width="1"/>
<circle cx="975.68" cy="131.83" r="3.8" fill="#ffb50c" stroke="#111827" stroke-width="1"/>
<circle cx="1036.00" cy="124.36" r="3.8" fill="#ffb50c" stroke="#111827" stroke-width="1"/>
<text x="1028.0" y="114.4" text-anchor="end" fill="#ffb50c" font-size="12" font-family="-apple-system,BlinkMacSystemFont,Segoe UI,Helvetica,Arial,sans-serif">736</text>
<rect x="90" y="514" width="14" height="14" fill="url(#repo-0)" rx="3"/>
<text x="112" y="526" fill="#3bf2af" font-size="13" font-family="-apple-system,BlinkMacSystemFont,Segoe UI,Helvetica,Arial,sans-serif">bavix/gripmock</text>
<rect x="280" y="514" width="14" height="14" fill="url(#repo-1)" rx="3"/>
<text x="302" y="526" fill="#ffb50c" font-size="13" font-family="-apple-system,BlinkMacSystemFont,Segoe UI,Helvetica,Arial,sans-serif">tokopedia/gripmock</text>
<text x="1036" y="526" text-anchor="end" fill="#9ca3af" font-size="12" font-family="-apple-system,BlinkMacSystemFont,Segoe UI,Helvetica,Arial,sans-serif">Source: https://github.com/bavix/artifact-stats/blob/master/stats/github.csv</text>
</svg>