<svg xmlns="http://www.w3.org/2000/svg" width="1100" height="560" viewBox="0 0 1100 560">
<defs>
<linearGradient id="bg" x1="0" y1="0" x2="1" y2="1"><stop offset="0%" stop-color="#0b1220"/><stop offset="100%" stop-color="#111827"/></linearGradient>
<linearGradient id="repo-0" x1="0" y1="0" x2="0" y2="1"><stop offset="0%" stop-color="#34d399"/><stop offset="100%" stop-color="#059669"/></linearGradient>
<linearGradient id="repo-1" x1="0" y1="0" x2="0" y2="1"><stop offset="0%" stop-color="#f59e0b"/><stop offset="100%" stop-color="#d97706"/></linearGradient>
</defs>
<rect x="0" y="0" width="1100" height="560" fill="url(#bg)" rx="16"/>
<text x="90" y="44" fill="#f9fafb" font-size="28" font-family="-apple-system,BlinkMacSystemFont,Segoe UI,Helvetica,Arial,sans-serif" font-weight="700">GripMock GitHub Metrics - Stars</text>
<text x="90" y="70" fill="#9ca3af" font-size="16" font-family="-apple-system,BlinkMacSystemFont,Segoe UI,Helvetica,Arial,sans-serif">GitHub stars by snapshot date</text>
<line x1="90" y1="90.00" x2="1036" y2="90.00" stroke="#1f2937" stroke-width="1"/>
<text x="80" y="95.00" text-anchor="end" fill="#9ca3af" font-size="12" font-family="-apple-system,BlinkMacSystemFont,Segoe UI,Helvetica,Arial,sans-serif">811</text>
<line x1="90" y1="153.00" x2="1036" y2="153.00" stroke="#1f2937" stroke-width="1"/>
<text x="80" y="158.00" text-anchor="end" fill="#9ca3af" font-size="12" font-family="-apple-system,BlinkMacSystemFont,Segoe UI,Helvetica,Arial,sans-serif">676</text>
<line x1="90" y1="216.00" x2="1036" y2="216.00" stroke="#1f2937" stroke-width="1"/>
<text x="80" y="221.00" text-anchor="end" fill="#9ca3af" font-size="12" font-family="-apple-system,BlinkMacSystemFont,Segoe UI,Helvetica,Arial,sans-serif">540</text>
<line x1="90" y1="279.00" x2="1036" y2="279.00" stroke="#1f2937" stroke-width="1"/>
<text x="80" y="284.00" text-anchor="end" fill="#9ca3af" font-size="12" font-family="-apple-system,BlinkMacSystemFont,Segoe UI,Helvetica,Arial,sans-serif">405</text>
<line x1="90" y1="342.00" x2="1036" y2="342.00" stroke="#1f2937" stroke-width="1"/>
<text x="80" y="347.00" text-anchor="end" fill="#9ca3af" font-size="12" font-family="-apple-system,BlinkMacSystemFont,Segoe UI,Helvetica,Arial,sans-serif">270</text>
<line x1="90" y1="405.00" x2="1036" y2="405.00" stroke="#1f2937" stroke-width="1"/>
<text x="80" y="410.00" text-anchor="end" fill="#9ca3af" font-size="12" font-family="-apple-system,BlinkMacSystemFont,Segoe UI,Helvetica,Arial,sans-serif">135</text>
<line x1="90" y1="468.00" x2="1036" y2="468.00" stroke="#1f2937" stroke-width="1"/>
<text x="80" y="473.00" text-anchor="end" fill="#9ca3af" font-size="12" font-family="-apple-system,BlinkMacSystemFont,Segoe UI,Helvetica,Arial,sans-serif">0</text>
<line x1="90" y1="468" x2="1036" y2="468" stroke="#4b5563" stroke-width="1.4"/>
<line x1="90" y1="90" x2="90" y2="468" stroke="#4b5563" stroke-width="1.4"/>
<line x1="90.00" y1="468" x2="90.00" y2="474" stroke="#6b7280" stroke-width="1"/>
<text x="90.00" y="494" text-anchor="start" fill="#9ca3af" font-size="12" font-family="-apple-system,BlinkMacSystemFont,Segoe UI,Helvetica,Arial,sans-serif">2018-04-24</text>
<line x1="279.20" y1="468" x2="279.20" y2="474" stroke="#6b7280" stroke-width="1"/>
<text x="279.20" y="494" text-anchor="middle" fill="#9ca3af" font-size="12" font-family="-apple-system,BlinkMacSystemFont,Segoe UI,Helvetica,Arial,sans-serif">2019-11-28</text>
<line x1="468.40" y1="468" x2="468.40" y2="474" stroke="#6b7280" stroke-width="1"/>
<text x="468.40" y="494" text-anchor="middle" fill="#9ca3af" font-size="12" font-family="-apple-system,BlinkMacSystemFont,Segoe UI,Helvetica,Arial,sans-serif">2021-07-03</text>
<line x1="657.60" y1="468" x2="657.60" y2="474" stroke="#6b7280" stroke-width="1"/>
<text x="657.60" y="494" text-anchor="middle" fill="#9ca3af" font-size="12" font-family="-apple-system,BlinkMacSystemFont,Segoe UI,Helvetica,Arial,sans-serif">2023-02-06</text>
<line x1="846.80" y1="468" x2="846.80" y2="474" stroke="#6b7280" stroke-width="1"/>
<text x="846.80" y="494" text-anchor="middle" fill="#9ca3af" font-size="12" font-family="-apple-system,BlinkMacSystemFont,Segoe UI,Helvetica,Arial,sans-serif">2024-09-11</text>
<line x1="1036.00" y1="468" x2="1036.00" y2="474" stroke="#6b7280" stroke-width="1"/>
<text x="1036.00" y="494" text-anchor="end" fill="#9ca3af" font-size="12" font-family="-apple-system,BlinkMacSystemFont,Segoe UI,Helvetica,Arial,sans-serif">2026-04-17</text>
<polyline fill="none" stroke="url(#repo-0)" stroke-width="4" stroke-linecap="round" stroke-linejoin="round" points="719.62,468.00 726.31,467.53 739.29,467.07 752.92,466.60 754.87,466.13 758.11,465.67 769.80,465.20 772.07,464.74 777.58,464.27 777.91,463.80 782.78,463.34 790.57,462.87 802.90,462.40 806.14,461.94 810.36,461.47 813.93,461.01 828.86,460.54 833.41,460.07 834.06,459.61 835.35,459.14 841.52,458.67 855.15,458.21 858.07,457.74 864.89,457.28 870.40,456.81 871.05,456.34 871.70,455.88 891.82,455.41 894.42,454.94 895.07,454.48 901.24,454.01 901.89,453.55 905.78,453.55 907.08,453.08 907.40,452.61 907.73,452.15 910.65,451.68 912.27,451.21 913.89,450.75 919.09,450.75 923.63,450.75 925.25,450.28 925.90,450.28 932.72,449.82 936.61,449.35 948.30,448.88 950.57,448.42 951.22,448.42 953.16,447.95 955.11,447.48 958.03,447.48 963.23,447.02 970.04,446.55 974.26,446.09 985.62,445.62 987.89,445.15 992.76,444.69 993.08,444.22 994.06,443.75 996.65,443.29 996.98,443.29 1005.74,442.82 1012.56,442.36 1013.21,441.89 1015.48,441.42 1021.97,440.96 1024.24,440.49 1025.86,440.02 1027.49,439.56 1030.81,439.56 1031.77,439.56 1032.10,439.09 1032.75,439.09 1033.08,438.63 1033.40,439.09 1036.00,439.09"/>
<circle cx="719.62" cy="468.00" r="3.8" fill="#3bf2af" stroke="#111827" stroke-width="1"/>
<circle cx="752.92" cy="466.60" r="3.8" fill="#3bf2af" stroke="#111827" stroke-width="1"/>
<circle cx="769.80" cy="465.20" r="3.8" fill="#3bf2af" stroke="#111827" stroke-width="1"/>
<circle cx="777.91" cy="463.80" r="3.8" fill="#3bf2af" stroke="#111827" stroke-width="1"/>
<circle cx="802.90" cy="462.40" r="3.8" fill="#3bf2af" stroke="#111827" stroke-width="1"/>
<circle cx="813.93" cy="461.01" r="3.8" fill="#3bf2af" stroke="#111827" stroke-width="1"/>
<circle cx="834.06" cy="459.61" r="3.8" fill="#3bf2af" stroke="#111827" stroke-width="1"/>
<circle cx="855.15" cy="458.21" r="3.8" fill="#3bf2af" stroke="#111827" stroke-width="1"/>
<circle cx="870.40" cy="456.81" r="3.8" fill="#3bf2af" stroke="#111827" stroke-width="1"/>
<circle cx="891.82" cy="455.41" r="3.8" fill="#3bf2af" stroke="#111827" stroke-width="1"/>
<circle cx="901.24" cy="454.01" r="3.8" fill="#3bf2af" stroke="#111827" stroke-width="1"/>
<circle cx="907.08" cy="453.08" r="3.8" fill="#3bf2af" stroke="#111827" stroke-width="1"/>
<circle cx="910.65" cy="451.68" r="3.8" fill="#3bf2af" stroke="#111827" stroke-width="1"/>
<circle cx="919.09" cy="450.75" r="3.8" fill="#3bf2af" stroke="#111827" stroke-width="1"/>
<circle cx="925.90" cy="450.28" r="3.8" fill="#3bf2af" stroke="#111827" stroke-width="1"/>
<circle cx="948.30" cy="448.88" r="3.8" fill="#3bf2af" stroke="#111827" stroke-width="1"/>
<circle cx="953.16" cy="447.95" r="3.8" fill="#3bf2af" stroke="#111827" stroke-width="1"/>
<circle cx="963.23" cy="447.02" r="3.8" fill="#3bf2af" stroke="#111827" stroke-width="1"/>
<circle cx="985.62" cy="445.62" r="3.8" fill="#3bf2af" stroke="#111827" stroke-width="1"/>
<circle cx="993.08" cy="444.22" r="3.8" fill="#3bf2af" stroke="#111827" stroke-width="1"/>
<circle cx="996.98" cy="443.29" r="3.8" fill="#3bf2af" stroke="#111827" stroke-width="1"/>
<circle cx="1013.21" cy="441.89" r="3.8" fill="#3bf2af" stroke="#111827" stroke-width="1"/>
<circle cx="1024.24" cy="440.49" r="3.8" fill="#3bf2af" stroke="#111827" stroke-width="1"/>
<circle cx="1030.81" cy="439.56" r="3.8" fill="#3bf2af" stroke="#111827" stroke-width="1"/>
<circle cx="1032.75" cy="439.09" r="3.8" fill="#3bf2af" stroke="#111827" stroke-width="1"/>
<circle cx="1036.00" cy="439.09" r="3.8" fill="#3bf2af" stroke="#111827" stroke-width="1"/>
<text x="1028.00" y="429.09" text-anchor="end" fill="#3bf2af" font-size="12" font-family="-apple-system,BlinkMacSystemFont,Segoe UI,Helvetica,Arial,sans-serif">62</text>
<polyline fill="none" stroke="url(#repo-1)" stroke-width="4" stroke-linecap="round" stroke-linejoin="round" points="90.00,468.00 91.82,466.60 92.47,466.13 96.04,465.67 99.61,465.20 136.60,464.74 137.58,464.27 143.42,464.27 149.26,463.80 153.80,463.80 157.37,463.34 158.02,462.87 158.35,462.40 158.67,461.94 160.30,461.47 160.94,461.01 165.16,460.54 165.49,460.07 169.38,459.61 170.36,459.14 170.68,458.67 172.30,458.21 173.93,457.28 175.87,456.81 176.85,456.34 182.04,455.88 184.64,455.41 186.26,454.94 186.58,454.48 191.78,454.01 192.10,453.55 192.75,453.08 196.00,452.61 196.64,451.68 196.97,451.68 197.29,451.68 203.14,451.21 204.76,451.21 210.92,450.75 212.22,450.28 212.87,450.28 215.47,449.82 218.39,449.35 222.28,449.35 222.61,448.88 224.88,448.42 227.15,447.95 230.40,447.48 231.37,447.02 233.64,446.55 235.92,446.09 237.86,445.62 238.19,445.15 238.51,444.69 241.11,444.22 241.76,443.75 242.41,442.82 242.73,442.36 243.06,441.42 243.38,440.96 245.98,440.49 246.63,439.56 249.22,439.56 254.74,439.09 255.39,439.09 255.71,438.63 256.04,438.16 256.69,438.16 257.98,437.69 258.31,437.23 260.26,436.76 260.58,436.29 262.85,435.83 263.83,434.90 264.48,433.96 265.45,433.96 267.07,433.50 267.40,433.03 268.37,432.56 271.29,432.10 274.86,431.63 275.83,431.17 276.81,430.70 277.13,430.23 278.43,429.77 278.76,429.30 279.40,428.83 280.38,427.44 282.00,426.97 282.65,426.50 282.97,426.04 283.30,424.64 284.92,424.17 285.90,423.70 286.54,423.24 287.84,423.24 288.17,422.77 289.79,422.31 293.36,421.84 295.31,421.37 296.93,421.37 297.25,420.44 299.53,419.97 301.15,419.51 301.47,419.51 303.42,419.04 303.75,418.58 304.39,418.58 305.37,418.58 305.69,418.11 306.02,417.64 306.34,417.18 310.89,415.78 314.78,415.31 315.10,414.85 315.75,414.38 317.05,413.91 317.38,413.45 319.00,413.45 319.65,412.98 319.97,412.51 320.30,412.05 320.62,411.58 322.24,411.12 325.49,410.65 326.79,410.18 327.11,410.18 327.76,409.72 328.09,409.72 328.74,408.32 329.38,407.85 330.03,407.85 331.33,407.39 331.98,406.92 333.93,406.45 334.25,405.99 335.55,405.52 337.50,405.05 338.80,404.59 340.09,404.59 340.42,404.12 341.07,403.66 342.04,403.19 343.02,402.72 344.64,402.26 346.26,401.79 347.88,401.32 350.80,400.86 353.40,400.39 353.73,399.93 354.05,399.46 358.92,398.99 359.89,398.53 360.87,398.06 361.19,397.13 362.16,396.66 364.44,395.73 364.76,394.80 366.38,394.33 368.33,394.33 371.58,393.86 372.55,393.40 373.52,392.93 374.82,392.00 375.47,391.53 375.79,391.07 376.44,390.60 378.07,389.67 379.36,389.20 383.58,388.27 385.21,386.87 386.18,385.94 389.10,385.94 389.75,385.94 390.07,385.47 390.40,384.54 392.02,383.61 393.00,383.14 394.29,382.67 394.62,382.21 395.27,381.74 397.54,381.27 397.86,380.81 398.51,380.34 400.78,379.88 401.43,379.41 402.73,378.94 403.71,378.48 404.03,378.01 404.36,377.54 408.25,377.08 408.90,376.61 410.20,375.68 410.52,375.21 411.82,374.75 413.12,371.48 413.44,370.55 413.77,370.08 415.39,369.62 416.04,369.15 417.66,369.15 418.96,368.69 419.93,368.22 421.88,367.29 423.18,366.82 424.80,366.35 425.13,365.89 425.78,365.42 426.42,364.49 427.07,364.02 427.40,364.02 428.37,364.02 428.70,363.56 429.02,363.09 429.35,362.62 430.97,362.16 431.62,361.23 432.92,360.76 433.56,359.83 434.54,359.36 435.19,358.89 436.16,358.43 437.46,357.96 438.76,357.96 440.06,357.50 440.38,357.03 442.00,356.56 442.33,356.10 442.98,355.63 443.30,355.16 443.95,354.70 444.27,353.30 445.90,352.83 447.20,352.37 448.82,351.90 453.36,350.97 453.69,350.50 454.01,350.50 454.34,350.04 455.31,349.57 455.63,349.10 455.96,348.64 456.28,347.70 457.58,347.24 458.23,346.31 458.55,344.91 459.53,344.91 459.85,344.91 460.50,343.97 462.45,343.51 462.77,342.58 463.10,342.11 464.40,341.64 466.67,341.18 466.99,340.71 467.64,340.24 469.91,339.78 471.54,339.31 473.16,339.31 476.08,339.31 477.38,338.84 477.70,338.38 478.03,338.38 478.68,337.91 479.00,336.98 479.33,336.51 480.30,336.05 480.62,335.58 481.60,335.11 483.22,334.18 483.54,334.18 483.87,333.25 484.19,332.78 484.52,331.38 484.84,330.45 485.17,329.99 485.82,329.52 486.14,327.65 486.47,327.19 487.44,326.72 488.09,325.79 488.74,325.32 490.04,324.86 491.33,324.39 491.66,323.92 491.98,323.46 492.31,322.99 493.93,322.53 495.23,322.06 495.55,321.59 496.85,320.66 497.18,319.73 497.50,319.73 500.75,319.26 501.07,318.80 501.72,318.33 503.34,317.40 503.99,316.93 504.64,316.46 505.94,316.46 506.59,315.53 506.91,315.53 507.24,313.67 507.56,311.34 508.86,310.87 509.18,310.40 509.83,309.94 510.16,309.47 511.13,309.00 511.46,308.54 512.75,308.07 515.67,307.61 516.65,307.14 517.62,306.67 517.95,305.27 518.27,304.81 518.60,304.34 518.92,303.88 519.57,303.41 521.84,303.41 523.14,302.94 523.46,302.48 523.79,302.01 524.76,301.54 526.06,301.54 527.36,301.08 528.98,300.61 529.31,300.15 532.88,299.68 534.50,299.21 535.15,298.28 535.80,297.81 538.39,297.35 539.04,296.88 539.37,296.41 540.34,295.95 540.99,295.48 541.64,295.48 542.29,295.02 542.94,294.55 544.23,294.08 544.56,293.62 544.88,293.15 546.51,293.15 547.16,292.68 547.48,292.22 548.45,291.29 549.10,290.35 549.75,289.89 551.37,288.95 551.70,288.95 552.02,288.49 553.00,288.02 553.65,287.56 554.30,287.09 555.92,286.62 558.84,286.16 559.16,285.69 560.46,285.22 560.79,284.76 562.08,284.29 562.41,283.83 562.73,281.96 563.38,281.49 564.36,281.03 564.68,280.56 565.01,280.10 565.65,279.63 566.95,279.16 567.93,279.16 568.25,278.70 572.47,278.23 572.79,277.76 573.77,276.83 574.42,276.37 576.69,275.90 577.66,275.43 577.99,274.97 578.31,274.50 580.91,273.57 581.23,273.10 581.56,271.24 582.53,270.77 582.86,270.30 583.51,269.84 585.78,269.37 586.43,268.91 587.08,268.91 588.05,268.44 588.37,267.97 589.35,267.51 594.86,267.04 596.16,266.11 596.49,265.64 598.11,265.18 598.76,265.18 599.08,264.24 599.41,264.24 599.73,263.78 600.71,263.31 601.68,262.84 602.00,262.38 603.95,261.91 604.28,261.45 604.93,260.51 605.90,260.05 606.55,259.58 606.87,259.11 608.17,258.65 608.82,258.65 609.47,258.18 610.44,257.72 610.77,257.25 614.99,256.78 615.96,256.78 616.93,256.32 617.26,255.85 618.88,255.38 619.21,254.45 619.53,253.98 619.85,253.05 621.15,252.59 622.13,252.12 624.40,251.19 625.37,250.72 625.70,250.25 626.35,250.25 626.99,248.86 628.94,248.39 629.27,247.92 632.51,247.46 632.84,246.99 633.81,245.59 634.13,245.13 635.11,244.66 635.43,244.66 635.76,244.19 637.38,243.73 637.70,242.79 638.68,241.86 640.30,241.40 641.60,240.93 642.57,240.93 646.14,240.93 646.47,240.93 648.41,240.93 649.06,240.00 649.71,240.00 651.01,240.00 651.34,240.00 653.93,239.53 656.85,239.06 657.50,238.60 657.83,237.67 658.15,237.20 661.07,236.73 662.37,236.73 662.69,236.27 663.02,235.80 663.67,235.80 664.97,235.33 665.29,234.87 665.94,234.40 667.24,233.94 668.86,233.47 669.19,233.47 669.83,233.00 670.16,232.54 670.48,232.54 670.81,232.07 671.13,231.60 671.78,231.14 675.68,230.67 677.95,230.67 680.22,230.67 681.19,230.67 681.52,230.21 681.84,229.74 682.82,229.74 683.14,229.27 685.41,228.81 685.74,228.34 687.04,228.34 687.36,227.87 687.68,227.41 688.98,226.94 689.96,226.94 691.25,226.01 692.23,226.01 692.55,226.01 694.50,225.54 695.15,224.61 696.12,224.14 696.45,223.68 697.10,223.21 699.04,222.28 699.69,222.28 700.34,221.81 700.67,221.35 701.32,220.88 701.64,220.41 702.61,219.95 702.94,219.02 703.59,218.55 704.89,218.08 705.21,217.62 705.86,216.68 706.51,216.22 707.81,215.75 708.13,215.29 709.43,214.82 710.73,214.35 712.35,214.35 713.32,213.89 713.65,213.42 715.27,213.42 715.60,212.95 716.89,212.49 717.87,211.09 718.52,211.09 719.49,210.62 720.79,210.16 721.11,209.69 721.76,209.22 724.36,208.76 726.31,208.29 728.58,207.82 732.15,207.36 732.47,207.36 732.80,206.89 734.74,205.49 735.39,205.03 735.72,204.56 736.04,204.09 737.02,203.63 737.34,203.16 737.99,202.70 740.59,201.76 742.21,201.30 742.86,201.30 744.48,201.30 745.78,200.83 748.70,200.36 750.00,200.36 751.94,199.90 757.79,199.90 760.06,199.90 760.71,199.43 763.63,198.97 764.28,198.50 764.93,198.03 766.87,197.57 767.52,197.10 768.17,196.17 768.50,196.17 768.82,195.70 771.42,195.24 774.34,194.77 775.96,194.30 777.91,193.84 780.83,193.84 783.43,192.44 784.72,191.97 785.37,191.51 786.67,191.04 788.29,190.57 788.94,190.11 789.59,189.64 791.54,189.17 792.84,188.71 793.16,187.78 796.08,187.78 796.41,187.31 796.73,187.31 797.38,186.84 798.36,186.84 799.65,186.38 801.60,185.91 801.93,185.44 802.90,185.44 805.17,185.44 807.44,184.98 809.39,184.51 811.99,184.05 812.64,183.58 812.96,183.11 813.93,183.11 814.26,182.65 814.58,182.18 815.23,181.25 816.53,180.78 818.80,180.32 819.13,179.85 820.10,178.92 822.05,178.45 823.67,177.98 823.99,177.52 825.29,177.05 826.27,176.59 826.59,176.59 827.89,176.12 828.54,176.12 830.16,175.65 830.49,175.19 830.81,173.79 832.76,173.32 833.73,172.86 834.06,172.39 836.00,172.39 837.30,171.92 837.63,170.52 837.95,170.52 840.22,169.12 841.84,168.66 845.74,168.19 846.06,167.73 848.01,167.26 850.93,166.79 854.18,166.33 856.12,165.39 856.45,164.93 856.77,164.46 857.42,164.00 860.02,163.53 862.29,163.06 865.54,162.60 865.86,162.60 868.78,162.13 869.76,161.66 871.05,161.20 881.11,160.73 882.41,159.80 882.74,159.33 885.98,158.87 887.61,157.93 889.88,157.47 890.53,157.47 890.85,157.00 892.80,156.54 894.10,156.07 894.75,155.60 895.07,155.14 895.39,154.67 896.37,154.20 897.99,153.74 898.32,153.74 899.94,153.27 902.21,152.81 904.48,152.34 905.13,151.87 908.70,151.41 909.03,150.94 910.65,150.47 912.27,150.01 915.19,149.54 916.49,149.08 918.76,149.08 919.09,148.61 919.74,148.61 921.36,148.14 921.68,147.68 922.33,147.21 923.31,146.28 923.63,144.88 923.95,143.95 924.28,143.48 925.58,143.01 925.90,143.01 927.85,142.55 928.17,142.08 929.80,141.62 930.12,141.15 930.77,140.68 931.42,140.68 932.39,140.22 935.64,139.75 941.48,139.28 942.78,138.82 944.40,138.35 945.70,137.89 947.00,137.42 947.97,136.95 948.95,136.02 951.22,136.02 952.84,135.55 953.49,135.55 955.76,135.55 956.09,135.55 956.41,135.09 959.98,134.62 961.93,134.16 962.25,134.16 965.17,133.69 970.04,133.22 971.34,133.22 971.66,132.76 972.64,132.29 976.53,131.82 981.08,131.36 981.40,131.36 985.62,130.89 988.22,130.43 1000.87,129.96 1003.79,129.03 1004.77,128.56 1006.39,128.09 1006.71,127.16 1012.56,126.69 1015.15,126.23 1020.35,125.76 1021.97,125.30 1024.24,124.83 1030.81,124.83 1033.73,124.83 1034.05,124.36 1034.71,124.36 1035.03,124.83 1036.00,124.83"/>
<circle cx="90.00" cy="468.00" r="3.8" fill="#ffb50c" stroke="#111827" stroke-width="1"/>
<circle cx="191.78" cy="454.01" r="3.8" fill="#ffb50c" stroke="#111827" stroke-width="1"/>
<circle cx="243.06" cy="441.42" r="3.8" fill="#ffb50c" stroke="#111827" stroke-width="1"/>
<circle cx="280.38" cy="427.44" r="3.8" fill="#ffb50c" stroke="#111827" stroke-width="1"/>
<circle cx="317.05" cy="413.91" r="3.8" fill="#ffb50c" stroke="#111827" stroke-width="1"/>
<circle cx="346.26" cy="401.79" r="3.8" fill="#ffb50c" stroke="#111827" stroke-width="1"/>
<circle cx="390.07" cy="385.47" r="3.8" fill="#ffb50c" stroke="#111827" stroke-width="1"/>
<circle cx="421.88" cy="367.29" r="3.8" fill="#ffb50c" stroke="#111827" stroke-width="1"/>
<circle cx="445.90" cy="352.83" r="3.8" fill="#ffb50c" stroke="#111827" stroke-width="1"/>
<circle cx="477.70" cy="338.38" r="3.8" fill="#ffb50c" stroke="#111827" stroke-width="1"/>
<circle cx="496.85" cy="320.66" r="3.8" fill="#ffb50c" stroke="#111827" stroke-width="1"/>
<circle cx="521.84" cy="303.41" r="3.8" fill="#ffb50c" stroke="#111827" stroke-width="1"/>
<circle cx="549.75" cy="289.89" r="3.8" fill="#ffb50c" stroke="#111827" stroke-width="1"/>
<circle cx="577.99" cy="274.97" r="3.8" fill="#ffb50c" stroke="#111827" stroke-width="1"/>
<circle cx="606.55" cy="259.58" r="3.8" fill="#ffb50c" stroke="#111827" stroke-width="1"/>
<circle cx="635.43" cy="244.66" r="3.8" fill="#ffb50c" stroke="#111827" stroke-width="1"/>
<circle cx="668.86" cy="233.47" r="3.8" fill="#ffb50c" stroke="#111827" stroke-width="1"/>
<circle cx="696.45" cy="223.68" r="3.8" fill="#ffb50c" stroke="#111827" stroke-width="1"/>
<circle cx="721.11" cy="209.69" r="3.8" fill="#ffb50c" stroke="#111827" stroke-width="1"/>
<circle cx="766.87" cy="197.57" r="3.8" fill="#ffb50c" stroke="#111827" stroke-width="1"/>
<circle cx="805.17" cy="185.44" r="3.8" fill="#ffb50c" stroke="#111827" stroke-width="1"/>
<circle cx="837.30" cy="171.92" r="3.8" fill="#ffb50c" stroke="#111827" stroke-width="1"/>
<circle cx="892.80" cy="156.54" r="3.8" fill="#ffb50c" stroke="#111827" stroke-width="1"/>
<circle cx="925.90" cy="143.01" r="3.8" fill="#ffb50c" stroke="#111827" stroke-width="1"/>
<circle cx="972.64" cy="132.29" r="3.8" fill="#ffb50c" stroke="#111827" stroke-width="1"/>
<circle cx="1036.00" cy="124.83" r="3.8" fill="#ffb50c" stroke="#111827" stroke-width="1"/>
<text x="1028.00" y="114.83" text-anchor="end" fill="#ffb50c" font-size="12" font-family="-apple-system,BlinkMacSystemFont,Segoe UI,Helvetica,Arial,sans-serif">736</text>
<rect x="90.00" y="514.00" width="14" height="14" fill="url(#repo-0)" rx="3"/>
<text x="112.00" y="526.00" fill="#3bf2af" font-size="13" font-family="-apple-system,BlinkMacSystemFont,Segoe UI,Helvetica,Arial,sans-serif">bavix/gripmock</text>
<rect x="280.00" y="514.00" width="14" height="14" fill="url(#repo-1)" rx="3"/>
<text x="302.00" y="526.00" fill="#ffb50c" font-size="13" font-family="-apple-system,BlinkMacSystemFont,Segoe UI,Helvetica,Arial,sans-serif">tokopedia/gripmock</text>
<text x="1036.00" y="526.00" text-anchor="end" fill="#9ca3af" font-size="12" font-family="-apple-system,BlinkMacSystemFont,Segoe UI,Helvetica,Arial,sans-serif">Source: https://github.com/bavix/artifact-stats/blob/master/stats/github.csv</text>
</svg>