<svg xmlns="http://www.w3.org/2000/svg" width="1100" height="560" viewBox="0 0 1100 560">
<defs>
<linearGradient id="bg" x1="0" y1="0" x2="1" y2="1"><stop offset="0%" stop-color="#0b1220"/><stop offset="100%" stop-color="#111827"/></linearGradient>
<linearGradient id="repo-0" x1="0" y1="0" x2="0" y2="1"><stop offset="0%" stop-color="#34d399"/><stop offset="100%" stop-color="#059669"/></linearGradient>
<linearGradient id="repo-1" x1="0" y1="0" x2="0" y2="1"><stop offset="0%" stop-color="#f59e0b"/><stop offset="100%" stop-color="#d97706"/></linearGradient>
</defs>
<rect x="0" y="0" width="1100" height="560" fill="url(#bg)" rx="16"/>
<text x="90" y="44" fill="#f9fafb" font-size="28" font-family="-apple-system,BlinkMacSystemFont,Segoe UI,Helvetica,Arial,sans-serif" font-weight="700">GripMock GitHub Metrics - Forks</text>
<text x="90" y="70" fill="#9ca3af" font-size="16" font-family="-apple-system,BlinkMacSystemFont,Segoe UI,Helvetica,Arial,sans-serif">GitHub forks by snapshot date</text>
<line x1="90" y1="90.00" x2="1036" y2="90.00" stroke="#1f2937" stroke-width="1"/>
<text x="80" y="95.00" text-anchor="end" fill="#9ca3af" font-size="12" font-family="-apple-system,BlinkMacSystemFont,Segoe UI,Helvetica,Arial,sans-serif">185</text>
<line x1="90" y1="153.00" x2="1036" y2="153.00" stroke="#1f2937" stroke-width="1"/>
<text x="80" y="158.00" text-anchor="end" fill="#9ca3af" font-size="12" font-family="-apple-system,BlinkMacSystemFont,Segoe UI,Helvetica,Arial,sans-serif">154</text>
<line x1="90" y1="216.00" x2="1036" y2="216.00" stroke="#1f2937" stroke-width="1"/>
<text x="80" y="221.00" text-anchor="end" fill="#9ca3af" font-size="12" font-family="-apple-system,BlinkMacSystemFont,Segoe UI,Helvetica,Arial,sans-serif">123</text>
<line x1="90" y1="279.00" x2="1036" y2="279.00" stroke="#1f2937" stroke-width="1"/>
<text x="80" y="284.00" text-anchor="end" fill="#9ca3af" font-size="12" font-family="-apple-system,BlinkMacSystemFont,Segoe UI,Helvetica,Arial,sans-serif">92</text>
<line x1="90" y1="342.00" x2="1036" y2="342.00" stroke="#1f2937" stroke-width="1"/>
<text x="80" y="347.00" text-anchor="end" fill="#9ca3af" font-size="12" font-family="-apple-system,BlinkMacSystemFont,Segoe UI,Helvetica,Arial,sans-serif">62</text>
<line x1="90" y1="405.00" x2="1036" y2="405.00" stroke="#1f2937" stroke-width="1"/>
<text x="80" y="410.00" text-anchor="end" fill="#9ca3af" font-size="12" font-family="-apple-system,BlinkMacSystemFont,Segoe UI,Helvetica,Arial,sans-serif">31</text>
<line x1="90" y1="468.00" x2="1036" y2="468.00" stroke="#1f2937" stroke-width="1"/>
<text x="80" y="473.00" text-anchor="end" fill="#9ca3af" font-size="12" font-family="-apple-system,BlinkMacSystemFont,Segoe UI,Helvetica,Arial,sans-serif">0</text>
<line x1="90" y1="468" x2="1036" y2="468" stroke="#4b5563" stroke-width="1.4"/>
<line x1="90" y1="90" x2="90" y2="468" stroke="#4b5563" stroke-width="1.4"/>
<line x1="90.00" y1="468" x2="90.00" y2="474" stroke="#6b7280" stroke-width="1"/>
<text x="90.00" y="494" text-anchor="start" fill="#9ca3af" font-size="12" font-family="-apple-system,BlinkMacSystemFont,Segoe UI,Helvetica,Arial,sans-serif">2018-04-24</text>
<line x1="279.20" y1="468" x2="279.20" y2="474" stroke="#6b7280" stroke-width="1"/>
<text x="279.20" y="494" text-anchor="middle" fill="#9ca3af" font-size="12" font-family="-apple-system,BlinkMacSystemFont,Segoe UI,Helvetica,Arial,sans-serif">2019-11-29</text>
<line x1="468.40" y1="468" x2="468.40" y2="474" stroke="#6b7280" stroke-width="1"/>
<text x="468.40" y="494" text-anchor="middle" fill="#9ca3af" font-size="12" font-family="-apple-system,BlinkMacSystemFont,Segoe UI,Helvetica,Arial,sans-serif">2021-07-05</text>
<line x1="657.60" y1="468" x2="657.60" y2="474" stroke="#6b7280" stroke-width="1"/>
<text x="657.60" y="494" text-anchor="middle" fill="#9ca3af" font-size="12" font-family="-apple-system,BlinkMacSystemFont,Segoe UI,Helvetica,Arial,sans-serif">2023-02-09</text>
<line x1="846.80" y1="468" x2="846.80" y2="474" stroke="#6b7280" stroke-width="1"/>
<text x="846.80" y="494" text-anchor="middle" fill="#9ca3af" font-size="12" font-family="-apple-system,BlinkMacSystemFont,Segoe UI,Helvetica,Arial,sans-serif">2024-09-15</text>
<line x1="1036.00" y1="468" x2="1036.00" y2="474" stroke="#6b7280" stroke-width="1"/>
<text x="1036.00" y="494" text-anchor="end" fill="#9ca3af" font-size="12" font-family="-apple-system,BlinkMacSystemFont,Segoe UI,Helvetica,Arial,sans-serif">2026-04-22</text>
<polyline fill="none" stroke="url(#repo-0)" stroke-width="4" stroke-linecap="round" stroke-linejoin="round" points="718.54,468.00 725.22,468.00 738.18,468.00 751.78,468.00 753.73,468.00 756.97,468.00 768.63,468.00 770.90,468.00 776.41,468.00 776.73,468.00 781.59,468.00 789.37,468.00 801.68,468.00 804.92,468.00 809.13,468.00 812.69,468.00 827.60,468.00 832.13,468.00 832.78,468.00 834.08,468.00 840.23,468.00 853.84,468.00 856.76,468.00 863.56,468.00 869.07,468.00 869.72,468.00 870.36,468.00 890.45,468.00 893.04,468.00 893.69,468.00 899.85,468.00 900.50,468.00 904.38,465.95 905.68,465.95 906.00,465.95 906.33,465.95 909.24,463.91 910.86,463.91 912.48,463.91 917.67,461.86 922.20,459.82 923.82,459.82 924.47,457.77 931.27,457.77 935.16,457.77 946.83,457.77 949.09,457.77 949.74,455.73 951.69,455.73 953.63,455.73 956.55,453.68 961.73,453.68 968.53,453.68 972.75,453.68 984.09,453.68 986.35,453.68 991.21,453.68 991.54,453.68 992.51,453.68 995.10,453.68 995.43,451.64 1004.17,451.64 1010.98,451.64 1011.62,451.64 1013.89,451.64 1020.37,451.64 1022.64,451.64 1024.26,451.64 1025.88,451.64 1029.20,451.64 1030.16,451.64 1030.49,451.64 1031.14,451.64 1031.46,451.64 1031.79,451.64 1036.00,451.64"/>
<circle cx="718.54" cy="468.00" r="3.8" fill="#3bf2af" stroke="#111827" stroke-width="1"/>
<circle cx="751.78" cy="468.00" r="3.8" fill="#3bf2af" stroke="#111827" stroke-width="1"/>
<circle cx="768.63" cy="468.00" r="3.8" fill="#3bf2af" stroke="#111827" stroke-width="1"/>
<circle cx="776.73" cy="468.00" r="3.8" fill="#3bf2af" stroke="#111827" stroke-width="1"/>
<circle cx="801.68" cy="468.00" r="3.8" fill="#3bf2af" stroke="#111827" stroke-width="1"/>
<circle cx="812.69" cy="468.00" r="3.8" fill="#3bf2af" stroke="#111827" stroke-width="1"/>
<circle cx="832.78" cy="468.00" r="3.8" fill="#3bf2af" stroke="#111827" stroke-width="1"/>
<circle cx="853.84" cy="468.00" r="3.8" fill="#3bf2af" stroke="#111827" stroke-width="1"/>
<circle cx="869.07" cy="468.00" r="3.8" fill="#3bf2af" stroke="#111827" stroke-width="1"/>
<circle cx="890.45" cy="468.00" r="3.8" fill="#3bf2af" stroke="#111827" stroke-width="1"/>
<circle cx="899.85" cy="468.00" r="3.8" fill="#3bf2af" stroke="#111827" stroke-width="1"/>
<circle cx="905.68" cy="465.95" r="3.8" fill="#3bf2af" stroke="#111827" stroke-width="1"/>
<circle cx="909.24" cy="463.91" r="3.8" fill="#3bf2af" stroke="#111827" stroke-width="1"/>
<circle cx="917.67" cy="461.86" r="3.8" fill="#3bf2af" stroke="#111827" stroke-width="1"/>
<circle cx="924.47" cy="457.77" r="3.8" fill="#3bf2af" stroke="#111827" stroke-width="1"/>
<circle cx="946.83" cy="457.77" r="3.8" fill="#3bf2af" stroke="#111827" stroke-width="1"/>
<circle cx="951.69" cy="455.73" r="3.8" fill="#3bf2af" stroke="#111827" stroke-width="1"/>
<circle cx="961.73" cy="453.68" r="3.8" fill="#3bf2af" stroke="#111827" stroke-width="1"/>
<circle cx="984.09" cy="453.68" r="3.8" fill="#3bf2af" stroke="#111827" stroke-width="1"/>
<circle cx="991.54" cy="453.68" r="3.8" fill="#3bf2af" stroke="#111827" stroke-width="1"/>
<circle cx="995.43" cy="451.64" r="3.8" fill="#3bf2af" stroke="#111827" stroke-width="1"/>
<circle cx="1011.62" cy="451.64" r="3.8" fill="#3bf2af" stroke="#111827" stroke-width="1"/>
<circle cx="1022.64" cy="451.64" r="3.8" fill="#3bf2af" stroke="#111827" stroke-width="1"/>
<circle cx="1029.20" cy="451.64" r="3.8" fill="#3bf2af" stroke="#111827" stroke-width="1"/>
<circle cx="1031.14" cy="451.64" r="3.8" fill="#3bf2af" stroke="#111827" stroke-width="1"/>
<circle cx="1036.00" cy="451.64" r="3.8" fill="#3bf2af" stroke="#111827" stroke-width="1"/>
<text x="1028.00" y="441.64" text-anchor="end" fill="#3bf2af" font-size="12" font-family="-apple-system,BlinkMacSystemFont,Segoe UI,Helvetica,Arial,sans-serif">8</text>
<polyline fill="none" stroke="url(#repo-1)" stroke-width="4" stroke-linecap="round" stroke-linejoin="round" points="90.00,468.00 91.81,468.00 92.46,468.00 96.02,468.00 99.59,468.00 136.52,468.00 137.50,465.95 143.33,463.91 149.16,463.91 153.70,461.86 157.26,461.86 157.91,461.86 158.23,461.86 158.56,461.86 160.18,461.86 160.82,461.86 165.04,459.82 165.36,459.82 169.25,459.82 170.22,459.82 170.54,459.82 172.16,459.82 173.78,459.82 175.73,459.82 176.70,459.82 181.88,459.82 184.47,459.82 186.09,459.82 186.42,459.82 191.60,459.82 191.93,459.82 192.57,457.77 195.81,457.77 196.46,457.77 196.79,455.73 197.11,453.68 202.94,453.68 204.56,451.64 210.72,451.64 212.01,451.64 212.66,449.59 215.25,447.55 218.17,447.55 222.06,445.50 222.38,445.50 224.65,445.50 226.92,445.50 230.16,445.50 231.13,445.50 233.40,445.50 235.67,445.50 237.61,445.50 237.93,445.50 238.26,445.50 240.85,445.50 241.50,445.50 242.15,445.50 242.47,443.45 242.79,441.41 243.12,441.41 245.71,441.41 246.36,441.41 248.95,439.36 254.46,439.36 255.10,437.32 255.43,437.32 255.75,437.32 256.40,433.23 257.70,433.23 258.02,433.23 259.96,433.23 260.29,433.23 262.56,433.23 263.53,433.23 264.18,433.23 265.15,431.18 266.77,431.18 267.09,429.14 268.06,429.14 270.98,429.14 274.54,429.14 275.52,429.14 276.49,429.14 276.81,429.14 278.11,429.14 278.43,429.14 279.08,429.14 280.05,429.14 281.67,429.14 282.32,429.14 282.64,429.14 282.97,429.14 284.59,429.14 285.56,429.14 286.21,429.14 287.50,427.09 287.83,425.05 289.45,425.05 293.01,425.05 294.96,425.05 296.58,423.00 296.90,423.00 299.17,423.00 300.79,423.00 301.11,420.95 303.06,420.95 303.38,420.95 304.03,418.91 305.00,416.86 305.32,416.86 305.65,416.86 305.97,416.86 310.51,414.82 314.40,414.82 314.72,414.82 315.37,414.82 316.66,414.82 316.99,414.82 318.61,412.77 319.26,410.73 319.58,410.73 319.90,410.73 320.23,410.73 321.85,410.73 325.09,408.68 326.38,408.68 326.71,406.64 327.35,406.64 327.68,404.59 328.33,402.55 328.97,402.55 329.62,400.50 330.92,398.45 331.57,398.45 333.51,398.45 333.83,398.45 335.13,398.45 337.07,398.45 338.37,398.45 339.67,396.41 339.99,396.41 340.64,396.41 341.61,396.41 342.58,396.41 344.20,396.41 345.82,396.41 347.44,396.41 350.36,394.36 352.95,394.36 353.27,394.36 353.60,394.36 358.46,394.36 359.43,394.36 360.40,394.36 360.73,394.36 361.70,394.36 363.97,394.36 364.29,394.36 365.91,394.36 367.85,392.32 371.09,392.32 372.07,392.32 373.04,392.32 374.33,392.32 374.98,392.32 375.31,392.32 375.95,390.27 377.57,390.27 378.87,390.27 383.08,388.23 384.70,388.23 385.67,388.23 388.59,386.18 389.24,384.14 389.56,384.14 389.89,384.14 391.51,384.14 392.48,384.14 393.77,384.14 394.10,384.14 394.75,384.14 397.01,384.14 397.34,384.14 397.98,384.14 400.25,384.14 400.90,384.14 402.20,384.14 403.17,382.09 403.49,382.09 403.82,382.09 407.70,382.09 408.35,382.09 409.65,382.09 409.97,382.09 411.27,382.09 412.56,382.09 412.89,382.09 413.21,382.09 414.83,382.09 415.48,382.09 417.10,380.05 418.40,378.00 419.37,378.00 421.31,378.00 422.61,378.00 424.23,378.00 424.55,378.00 425.20,378.00 425.85,378.00 426.50,378.00 426.82,375.95 427.79,373.91 428.12,373.91 428.44,373.91 428.76,371.86 430.38,371.86 431.03,369.82 432.33,369.82 432.98,369.82 433.95,369.82 434.60,369.82 435.57,369.82 436.86,369.82 438.16,367.77 439.46,365.73 439.78,365.73 441.40,365.73 441.72,365.73 442.37,365.73 442.70,365.73 443.34,365.73 443.67,365.73 445.29,365.73 446.58,365.73 448.20,363.68 452.74,363.68 453.06,363.68 453.39,361.64 453.71,361.64 454.68,357.55 455.01,357.55 455.33,357.55 455.66,357.55 456.95,355.50 457.60,355.50 457.92,355.50 458.90,353.45 459.22,351.41 459.87,351.41 461.81,351.41 462.14,351.41 462.46,351.41 463.76,351.41 466.02,351.41 466.35,351.41 467.00,351.41 469.26,351.41 470.88,351.41 472.50,349.36 475.42,347.32 476.71,347.32 477.04,347.32 477.36,345.27 478.01,345.27 478.33,343.23 478.66,343.23 479.63,343.23 479.95,343.23 480.93,343.23 482.55,343.23 482.87,339.14 483.19,339.14 483.52,339.14 483.84,339.14 484.17,339.14 484.49,339.14 485.14,339.14 485.46,339.14 485.79,335.05 486.76,335.05 487.41,335.05 488.05,335.05 489.35,335.05 490.65,335.05 490.97,335.05 491.29,333.00 491.62,330.95 493.24,330.95 494.53,330.95 494.86,330.95 496.15,330.95 496.48,330.95 496.80,328.91 500.04,328.91 500.37,328.91 501.01,328.91 502.63,328.91 503.28,328.91 503.93,328.91 505.23,326.86 505.87,326.86 506.20,324.82 506.52,324.82 506.85,322.77 508.14,322.77 508.47,322.77 509.11,322.77 509.44,322.77 510.41,322.77 510.73,322.77 512.03,322.77 514.95,322.77 515.92,322.77 516.89,322.77 517.21,320.73 517.54,320.73 517.86,318.68 518.19,318.68 518.83,318.68 521.10,316.64 522.40,316.64 522.72,316.64 523.05,316.64 524.02,316.64 525.31,314.59 526.61,314.59 528.23,314.59 528.55,314.59 532.12,314.59 533.74,314.59 534.39,314.59 535.03,314.59 537.63,314.59 538.27,314.59 538.60,314.59 539.57,314.59 540.22,314.59 540.87,312.55 541.51,312.55 542.16,312.55 543.46,312.55 543.78,312.55 544.11,312.55 545.73,310.50 546.37,310.50 546.70,310.50 547.67,310.50 548.32,310.50 548.96,310.50 550.58,310.50 550.91,308.45 551.23,308.45 552.20,308.45 552.85,306.41 553.50,306.41 555.12,306.41 558.04,306.41 558.36,306.41 559.66,306.41 559.98,306.41 561.28,306.41 561.60,306.41 561.92,304.36 562.57,304.36 563.54,304.36 563.87,304.36 564.19,304.36 564.84,304.36 566.14,304.36 567.11,302.32 567.43,302.32 571.64,302.32 571.97,302.32 572.94,302.32 573.59,302.32 575.86,302.32 576.83,300.27 577.15,300.27 577.48,300.27 580.07,300.27 580.39,300.27 580.72,300.27 581.69,300.27 582.01,300.27 582.66,300.27 584.93,300.27 585.58,300.27 586.22,296.18 587.20,296.18 587.52,296.18 588.49,296.18 594.00,296.18 595.30,296.18 595.62,296.18 597.24,296.18 597.89,294.14 598.21,294.14 598.54,292.09 598.86,292.09 599.83,290.05 600.80,290.05 601.13,290.05 603.07,290.05 603.40,290.05 604.04,290.05 605.02,290.05 605.66,290.05 605.99,290.05 607.28,290.05 607.93,288.00 608.58,288.00 609.55,288.00 609.88,288.00 614.09,288.00 615.06,285.95 616.03,285.95 616.36,285.95 617.98,285.95 618.30,285.95 618.62,285.95 618.95,285.95 620.24,285.95 621.22,285.95 623.48,285.95 624.45,285.95 624.78,285.95 625.43,283.91 626.07,283.91 628.02,283.91 628.34,283.91 631.58,283.91 631.91,283.91 632.88,283.91 633.20,283.91 634.17,283.91 634.50,279.82 634.82,279.82 636.44,279.82 636.77,279.82 637.74,279.82 639.36,279.82 640.65,279.82 641.63,277.77 645.19,275.73 645.51,273.68 647.46,271.64 648.11,271.64 648.75,269.59 650.05,267.55 650.37,265.50 652.97,265.50 655.88,265.50 656.53,265.50 656.85,263.45 657.18,263.45 660.09,261.41 661.39,259.36 661.71,259.36 662.04,259.36 662.69,257.32 663.98,257.32 664.31,257.32 664.95,257.32 666.25,257.32 667.87,257.32 668.19,255.27 668.84,255.27 669.17,255.27 669.49,253.23 669.81,253.23 670.14,253.23 670.79,253.23 674.67,253.23 676.94,251.18 679.21,249.14 680.18,247.09 680.51,245.05 680.83,245.05 681.80,243.00 682.13,243.00 684.39,240.95 684.72,240.95 686.01,238.91 686.34,238.91 686.66,238.91 687.96,238.91 688.93,236.86 690.23,236.86 691.20,234.82 691.52,232.77 693.47,232.77 694.11,232.77 695.09,232.77 695.41,232.77 696.06,232.77 698.00,230.73 698.65,228.68 699.30,228.68 699.62,228.68 700.27,228.68 700.59,228.68 701.56,228.68 701.89,228.68 702.54,228.68 703.83,228.68 704.16,228.68 704.80,228.68 705.45,228.68 706.75,228.68 707.07,226.64 708.37,226.64 709.66,226.64 711.28,224.59 712.26,224.59 712.58,224.59 714.20,222.55 714.52,222.55 715.82,222.55 716.79,222.55 717.44,220.50 718.41,220.50 719.71,220.50 720.03,220.50 720.68,220.50 723.27,220.50 725.22,218.45 727.48,218.45 731.05,218.45 731.37,216.41 731.70,216.41 733.64,216.41 734.29,216.41 734.61,216.41 734.94,214.36 735.91,214.36 736.23,212.32 736.88,212.32 739.47,212.32 741.09,212.32 741.74,210.27 743.36,208.23 744.66,208.23 747.57,206.18 748.87,204.14 750.81,204.14 756.64,202.09 758.91,200.05 759.56,200.05 762.48,200.05 763.12,200.05 763.77,200.05 765.72,200.05 766.36,200.05 767.01,200.05 767.34,198.00 767.66,198.00 770.25,198.00 773.17,198.00 774.79,198.00 776.73,198.00 779.65,195.95 782.24,195.95 783.53,195.95 784.18,195.95 785.48,195.95 787.10,195.95 787.75,195.95 788.39,195.95 790.34,195.95 791.63,195.95 791.96,195.95 794.87,193.91 795.20,193.91 795.52,191.86 796.17,191.86 797.14,189.82 798.44,189.82 800.38,189.82 800.71,189.82 801.68,187.77 803.95,185.73 806.21,185.73 808.16,185.73 810.75,185.73 811.40,185.73 811.72,185.73 812.69,183.68 813.02,183.68 813.34,183.68 813.99,183.68 815.29,181.64 817.55,181.64 817.88,179.59 818.85,179.59 820.79,179.59 822.41,179.59 822.74,179.59 824.03,179.59 825.01,179.59 825.33,177.55 826.63,177.55 827.27,175.50 828.89,175.50 829.22,173.45 829.54,173.45 831.49,173.45 832.46,173.45 832.78,173.45 834.73,171.41 836.02,171.41 836.35,171.41 836.67,169.36 838.94,169.36 840.56,169.36 844.45,169.36 844.77,169.36 846.71,169.36 849.63,169.36 852.87,169.36 854.81,169.36 855.14,169.36 855.46,169.36 856.11,169.36 858.70,169.36 860.97,169.36 864.21,169.36 864.53,167.32 867.45,167.32 868.42,167.32 869.72,167.32 879.76,167.32 881.06,167.32 881.38,167.32 884.62,167.32 886.24,167.32 888.51,167.32 889.16,165.27 889.48,165.27 891.42,165.27 892.72,165.27 893.37,165.27 893.69,165.27 894.02,165.27 894.99,165.27 896.61,165.27 896.93,163.23 898.55,163.23 900.82,163.23 903.09,163.23 903.74,163.23 907.30,163.23 907.62,163.23 909.24,163.23 910.86,163.23 913.78,163.23 915.08,163.23 917.34,159.14 917.67,159.14 918.32,157.09 919.94,157.09 920.26,157.09 920.91,157.09 921.88,157.09 922.20,157.09 922.53,157.09 922.85,157.09 924.15,157.09 924.47,155.05 926.42,155.05 926.74,155.05 928.36,155.05 928.68,155.05 929.33,155.05 929.98,153.00 930.95,153.00 934.19,153.00 940.02,153.00 941.32,153.00 942.94,150.95 944.23,150.95 945.53,150.95 946.50,150.95 947.47,150.95 949.74,148.91 951.36,148.91 952.01,146.86 954.28,144.82 954.60,142.77 954.93,142.77 958.49,142.77 960.43,142.77 960.76,140.73 963.67,140.73 968.53,140.73 969.83,138.68 970.15,138.68 971.13,138.68 975.01,138.68 979.55,138.68 979.87,136.64 984.09,136.64 986.68,136.64 999.31,136.64 1002.23,136.64 1003.20,136.64 1004.82,136.64 1005.14,136.64 1010.98,136.64 1013.57,136.64 1018.75,136.64 1020.37,136.64 1022.64,136.64 1029.20,124.36 1032.11,124.36 1032.43,124.36 1033.09,124.36 1033.41,124.36 1034.38,124.36 1034.70,124.36 1036.00,124.36"/>
<circle cx="90.00" cy="468.00" r="3.8" fill="#ffb50c" stroke="#111827" stroke-width="1"/>
<circle cx="191.93" cy="459.82" r="3.8" fill="#ffb50c" stroke="#111827" stroke-width="1"/>
<circle cx="245.71" cy="441.41" r="3.8" fill="#ffb50c" stroke="#111827" stroke-width="1"/>
<circle cx="282.64" cy="429.14" r="3.8" fill="#ffb50c" stroke="#111827" stroke-width="1"/>
<circle cx="319.58" cy="410.73" r="3.8" fill="#ffb50c" stroke="#111827" stroke-width="1"/>
<circle cx="353.60" cy="394.36" r="3.8" fill="#ffb50c" stroke="#111827" stroke-width="1"/>
<circle cx="394.75" cy="384.14" r="3.8" fill="#ffb50c" stroke="#111827" stroke-width="1"/>
<circle cx="426.82" cy="375.95" r="3.8" fill="#ffb50c" stroke="#111827" stroke-width="1"/>
<circle cx="455.01" cy="357.55" r="3.8" fill="#ffb50c" stroke="#111827" stroke-width="1"/>
<circle cx="482.87" cy="339.14" r="3.8" fill="#ffb50c" stroke="#111827" stroke-width="1"/>
<circle cx="505.87" cy="326.86" r="3.8" fill="#ffb50c" stroke="#111827" stroke-width="1"/>
<circle cx="534.39" cy="314.59" r="3.8" fill="#ffb50c" stroke="#111827" stroke-width="1"/>
<circle cx="561.28" cy="306.41" r="3.8" fill="#ffb50c" stroke="#111827" stroke-width="1"/>
<circle cx="588.49" cy="296.18" r="3.8" fill="#ffb50c" stroke="#111827" stroke-width="1"/>
<circle cx="618.95" cy="285.95" r="3.8" fill="#ffb50c" stroke="#111827" stroke-width="1"/>
<circle cx="652.97" cy="265.50" r="3.8" fill="#ffb50c" stroke="#111827" stroke-width="1"/>
<circle cx="684.39" cy="240.95" r="3.8" fill="#ffb50c" stroke="#111827" stroke-width="1"/>
<circle cx="708.37" cy="226.64" r="3.8" fill="#ffb50c" stroke="#111827" stroke-width="1"/>
<circle cx="743.36" cy="208.23" r="3.8" fill="#ffb50c" stroke="#111827" stroke-width="1"/>
<circle cx="791.96" cy="195.95" r="3.8" fill="#ffb50c" stroke="#111827" stroke-width="1"/>
<circle cx="826.63" cy="177.55" r="3.8" fill="#ffb50c" stroke="#111827" stroke-width="1"/>
<circle cx="879.76" cy="167.32" r="3.8" fill="#ffb50c" stroke="#111827" stroke-width="1"/>
<circle cx="920.26" cy="157.09" r="3.8" fill="#ffb50c" stroke="#111827" stroke-width="1"/>
<circle cx="960.43" cy="142.77" r="3.8" fill="#ffb50c" stroke="#111827" stroke-width="1"/>
<circle cx="1036.00" cy="124.36" r="3.8" fill="#ffb50c" stroke="#111827" stroke-width="1"/>
<text x="1028.00" y="114.36" text-anchor="end" fill="#ffb50c" font-size="12" font-family="-apple-system,BlinkMacSystemFont,Segoe UI,Helvetica,Arial,sans-serif">168</text>
<rect x="90.00" y="514.00" width="14" height="14" fill="url(#repo-0)" rx="3"/>
<text x="112.00" y="526.00" fill="#3bf2af" font-size="13" font-family="-apple-system,BlinkMacSystemFont,Segoe UI,Helvetica,Arial,sans-serif">bavix/gripmock</text>
<rect x="280.00" y="514.00" width="14" height="14" fill="url(#repo-1)" rx="3"/>
<text x="302.00" y="526.00" fill="#ffb50c" font-size="13" font-family="-apple-system,BlinkMacSystemFont,Segoe UI,Helvetica,Arial,sans-serif">tokopedia/gripmock</text>
<text x="1036.00" y="526.00" text-anchor="end" fill="#9ca3af" font-size="12" font-family="-apple-system,BlinkMacSystemFont,Segoe UI,Helvetica,Arial,sans-serif">Source: https://github.com/bavix/artifact-stats/blob/master/stats/github.csv</text>
</svg>