<svg xmlns="http://www.w3.org/2000/svg" width="1100" height="560" viewBox="0 0 1100 560">
<defs>
<linearGradient id="bg" x1="0" y1="0" x2="1" y2="1"><stop offset="0%" stop-color="#0b1220"/><stop offset="100%" stop-color="#111827"/></linearGradient>
<linearGradient id="repo-0" x1="0" y1="0" x2="0" y2="1"><stop offset="0%" stop-color="#34d399"/><stop offset="100%" stop-color="#059669"/></linearGradient>
<linearGradient id="repo-1" x1="0" y1="0" x2="0" y2="1"><stop offset="0%" stop-color="#f59e0b"/><stop offset="100%" stop-color="#d97706"/></linearGradient>
</defs>
<rect x="0" y="0" width="1100" height="560" fill="url(#bg)" rx="16"/>
<text x="90" y="44" fill="#f9fafb" font-size="28" font-family="-apple-system,BlinkMacSystemFont,Segoe UI,Helvetica,Arial,sans-serif" font-weight="700">GripMock GitHub Metrics - Forks</text>
<text x="90" y="70" fill="#9ca3af" font-size="16" font-family="-apple-system,BlinkMacSystemFont,Segoe UI,Helvetica,Arial,sans-serif">GitHub forks by snapshot date</text>
<line x1="90" y1="90.00" x2="1036" y2="90.00" stroke="#1f2937" stroke-width="1"/>
<text x="80" y="95.00" text-anchor="end" fill="#9ca3af" font-size="12" font-family="-apple-system,BlinkMacSystemFont,Segoe UI,Helvetica,Arial,sans-serif">185</text>
<line x1="90" y1="153.00" x2="1036" y2="153.00" stroke="#1f2937" stroke-width="1"/>
<text x="80" y="158.00" text-anchor="end" fill="#9ca3af" font-size="12" font-family="-apple-system,BlinkMacSystemFont,Segoe UI,Helvetica,Arial,sans-serif">154</text>
<line x1="90" y1="216.00" x2="1036" y2="216.00" stroke="#1f2937" stroke-width="1"/>
<text x="80" y="221.00" text-anchor="end" fill="#9ca3af" font-size="12" font-family="-apple-system,BlinkMacSystemFont,Segoe UI,Helvetica,Arial,sans-serif">123</text>
<line x1="90" y1="279.00" x2="1036" y2="279.00" stroke="#1f2937" stroke-width="1"/>
<text x="80" y="284.00" text-anchor="end" fill="#9ca3af" font-size="12" font-family="-apple-system,BlinkMacSystemFont,Segoe UI,Helvetica,Arial,sans-serif">92</text>
<line x1="90" y1="342.00" x2="1036" y2="342.00" stroke="#1f2937" stroke-width="1"/>
<text x="80" y="347.00" text-anchor="end" fill="#9ca3af" font-size="12" font-family="-apple-system,BlinkMacSystemFont,Segoe UI,Helvetica,Arial,sans-serif">62</text>
<line x1="90" y1="405.00" x2="1036" y2="405.00" stroke="#1f2937" stroke-width="1"/>
<text x="80" y="410.00" text-anchor="end" fill="#9ca3af" font-size="12" font-family="-apple-system,BlinkMacSystemFont,Segoe UI,Helvetica,Arial,sans-serif">31</text>
<line x1="90" y1="468.00" x2="1036" y2="468.00" stroke="#1f2937" stroke-width="1"/>
<text x="80" y="473.00" text-anchor="end" fill="#9ca3af" font-size="12" font-family="-apple-system,BlinkMacSystemFont,Segoe UI,Helvetica,Arial,sans-serif">0</text>
<line x1="90" y1="468" x2="1036" y2="468" stroke="#4b5563" stroke-width="1.4"/>
<line x1="90" y1="90" x2="90" y2="468" stroke="#4b5563" stroke-width="1.4"/>
<line x1="90.00" y1="468" x2="90.00" y2="474" stroke="#6b7280" stroke-width="1"/>
<text x="90.00" y="494" text-anchor="start" fill="#9ca3af" font-size="12" font-family="-apple-system,BlinkMacSystemFont,Segoe UI,Helvetica,Arial,sans-serif">2018-04-24</text>
<line x1="279.20" y1="468" x2="279.20" y2="474" stroke="#6b7280" stroke-width="1"/>
<text x="279.20" y="494" text-anchor="middle" fill="#9ca3af" font-size="12" font-family="-apple-system,BlinkMacSystemFont,Segoe UI,Helvetica,Arial,sans-serif">2019-11-28</text>
<line x1="468.40" y1="468" x2="468.40" y2="474" stroke="#6b7280" stroke-width="1"/>
<text x="468.40" y="494" text-anchor="middle" fill="#9ca3af" font-size="12" font-family="-apple-system,BlinkMacSystemFont,Segoe UI,Helvetica,Arial,sans-serif">2021-07-03</text>
<line x1="657.60" y1="468" x2="657.60" y2="474" stroke="#6b7280" stroke-width="1"/>
<text x="657.60" y="494" text-anchor="middle" fill="#9ca3af" font-size="12" font-family="-apple-system,BlinkMacSystemFont,Segoe UI,Helvetica,Arial,sans-serif">2023-02-06</text>
<line x1="846.80" y1="468" x2="846.80" y2="474" stroke="#6b7280" stroke-width="1"/>
<text x="846.80" y="494" text-anchor="middle" fill="#9ca3af" font-size="12" font-family="-apple-system,BlinkMacSystemFont,Segoe UI,Helvetica,Arial,sans-serif">2024-09-11</text>
<line x1="1036.00" y1="468" x2="1036.00" y2="474" stroke="#6b7280" stroke-width="1"/>
<text x="1036.00" y="494" text-anchor="end" fill="#9ca3af" font-size="12" font-family="-apple-system,BlinkMacSystemFont,Segoe UI,Helvetica,Arial,sans-serif">2026-04-17</text>
<polyline fill="none" stroke="url(#repo-0)" stroke-width="4" stroke-linecap="round" stroke-linejoin="round" points="719.62,468.00 726.31,468.00 739.29,468.00 752.92,468.00 754.87,468.00 758.11,468.00 769.80,468.00 772.07,468.00 777.58,468.00 777.91,468.00 782.78,468.00 790.57,468.00 802.90,468.00 806.14,468.00 810.36,468.00 813.93,468.00 828.86,468.00 833.41,468.00 834.06,468.00 835.35,468.00 841.52,468.00 855.15,468.00 858.07,468.00 864.89,468.00 870.40,468.00 871.05,468.00 871.70,468.00 891.82,468.00 894.42,468.00 895.07,468.00 901.24,468.00 901.89,468.00 905.78,465.95 907.08,465.95 907.40,465.95 907.73,465.95 910.65,463.91 912.27,463.91 913.89,463.91 919.09,461.86 923.63,459.82 925.25,459.82 925.90,457.77 932.72,457.77 936.61,457.77 948.30,457.77 950.57,457.77 951.22,455.73 953.16,455.73 955.11,455.73 958.03,453.68 963.23,453.68 970.04,453.68 974.26,453.68 985.62,453.68 987.89,453.68 992.76,453.68 993.08,453.68 994.06,453.68 996.65,453.68 996.98,451.64 1005.74,451.64 1012.56,451.64 1013.21,451.64 1015.48,451.64 1021.97,451.64 1024.24,451.64 1025.86,451.64 1027.49,451.64 1030.81,451.64 1031.77,451.64 1032.10,451.64 1032.75,451.64 1033.08,451.64 1033.40,451.64 1036.00,451.64"/>
<circle cx="719.62" cy="468.00" r="3.8" fill="#3bf2af" stroke="#111827" stroke-width="1"/>
<circle cx="752.92" cy="468.00" r="3.8" fill="#3bf2af" stroke="#111827" stroke-width="1"/>
<circle cx="769.80" cy="468.00" r="3.8" fill="#3bf2af" stroke="#111827" stroke-width="1"/>
<circle cx="777.91" cy="468.00" r="3.8" fill="#3bf2af" stroke="#111827" stroke-width="1"/>
<circle cx="802.90" cy="468.00" r="3.8" fill="#3bf2af" stroke="#111827" stroke-width="1"/>
<circle cx="813.93" cy="468.00" r="3.8" fill="#3bf2af" stroke="#111827" stroke-width="1"/>
<circle cx="834.06" cy="468.00" r="3.8" fill="#3bf2af" stroke="#111827" stroke-width="1"/>
<circle cx="855.15" cy="468.00" r="3.8" fill="#3bf2af" stroke="#111827" stroke-width="1"/>
<circle cx="870.40" cy="468.00" r="3.8" fill="#3bf2af" stroke="#111827" stroke-width="1"/>
<circle cx="891.82" cy="468.00" r="3.8" fill="#3bf2af" stroke="#111827" stroke-width="1"/>
<circle cx="901.24" cy="468.00" r="3.8" fill="#3bf2af" stroke="#111827" stroke-width="1"/>
<circle cx="907.08" cy="465.95" r="3.8" fill="#3bf2af" stroke="#111827" stroke-width="1"/>
<circle cx="910.65" cy="463.91" r="3.8" fill="#3bf2af" stroke="#111827" stroke-width="1"/>
<circle cx="919.09" cy="461.86" r="3.8" fill="#3bf2af" stroke="#111827" stroke-width="1"/>
<circle cx="925.90" cy="457.77" r="3.8" fill="#3bf2af" stroke="#111827" stroke-width="1"/>
<circle cx="948.30" cy="457.77" r="3.8" fill="#3bf2af" stroke="#111827" stroke-width="1"/>
<circle cx="953.16" cy="455.73" r="3.8" fill="#3bf2af" stroke="#111827" stroke-width="1"/>
<circle cx="963.23" cy="453.68" r="3.8" fill="#3bf2af" stroke="#111827" stroke-width="1"/>
<circle cx="985.62" cy="453.68" r="3.8" fill="#3bf2af" stroke="#111827" stroke-width="1"/>
<circle cx="993.08" cy="453.68" r="3.8" fill="#3bf2af" stroke="#111827" stroke-width="1"/>
<circle cx="996.98" cy="451.64" r="3.8" fill="#3bf2af" stroke="#111827" stroke-width="1"/>
<circle cx="1013.21" cy="451.64" r="3.8" fill="#3bf2af" stroke="#111827" stroke-width="1"/>
<circle cx="1024.24" cy="451.64" r="3.8" fill="#3bf2af" stroke="#111827" stroke-width="1"/>
<circle cx="1030.81" cy="451.64" r="3.8" fill="#3bf2af" stroke="#111827" stroke-width="1"/>
<circle cx="1032.75" cy="451.64" r="3.8" fill="#3bf2af" stroke="#111827" stroke-width="1"/>
<circle cx="1036.00" cy="451.64" r="3.8" fill="#3bf2af" stroke="#111827" stroke-width="1"/>
<text x="1028.00" y="441.64" text-anchor="end" fill="#3bf2af" font-size="12" font-family="-apple-system,BlinkMacSystemFont,Segoe UI,Helvetica,Arial,sans-serif">8</text>
<polyline fill="none" stroke="url(#repo-1)" stroke-width="4" stroke-linecap="round" stroke-linejoin="round" points="90.00,468.00 91.82,468.00 92.47,468.00 96.04,468.00 99.61,468.00 136.60,468.00 137.58,465.95 143.42,463.91 149.26,463.91 153.80,461.86 157.37,461.86 158.02,461.86 158.35,461.86 158.67,461.86 160.30,461.86 160.94,461.86 165.16,459.82 165.49,459.82 169.38,459.82 170.36,459.82 170.68,459.82 172.30,459.82 173.93,459.82 175.87,459.82 176.85,459.82 182.04,459.82 184.64,459.82 186.26,459.82 186.58,459.82 191.78,459.82 192.10,459.82 192.75,457.77 196.00,457.77 196.64,457.77 196.97,455.73 197.29,453.68 203.14,453.68 204.76,451.64 210.92,451.64 212.22,451.64 212.87,449.59 215.47,447.55 218.39,447.55 222.28,445.50 222.61,445.50 224.88,445.50 227.15,445.50 230.40,445.50 231.37,445.50 233.64,445.50 235.92,445.50 237.86,445.50 238.19,445.50 238.51,445.50 241.11,445.50 241.76,445.50 242.41,445.50 242.73,443.45 243.06,441.41 243.38,441.41 245.98,441.41 246.63,441.41 249.22,439.36 254.74,439.36 255.39,437.32 255.71,437.32 256.04,437.32 256.69,433.23 257.98,433.23 258.31,433.23 260.26,433.23 260.58,433.23 262.85,433.23 263.83,433.23 264.48,433.23 265.45,431.18 267.07,431.18 267.40,429.14 268.37,429.14 271.29,429.14 274.86,429.14 275.83,429.14 276.81,429.14 277.13,429.14 278.43,429.14 278.76,429.14 279.40,429.14 280.38,429.14 282.00,429.14 282.65,429.14 282.97,429.14 283.30,429.14 284.92,429.14 285.90,429.14 286.54,429.14 287.84,427.09 288.17,425.05 289.79,425.05 293.36,425.05 295.31,425.05 296.93,423.00 297.25,423.00 299.53,423.00 301.15,423.00 301.47,420.95 303.42,420.95 303.75,420.95 304.39,418.91 305.37,416.86 305.69,416.86 306.02,416.86 306.34,416.86 310.89,414.82 314.78,414.82 315.10,414.82 315.75,414.82 317.05,414.82 317.38,414.82 319.00,412.77 319.65,410.73 319.97,410.73 320.30,410.73 320.62,410.73 322.24,410.73 325.49,408.68 326.79,408.68 327.11,406.64 327.76,406.64 328.09,404.59 328.74,402.55 329.38,402.55 330.03,400.50 331.33,398.45 331.98,398.45 333.93,398.45 334.25,398.45 335.55,398.45 337.50,398.45 338.80,398.45 340.09,396.41 340.42,396.41 341.07,396.41 342.04,396.41 343.02,396.41 344.64,396.41 346.26,396.41 347.88,396.41 350.80,394.36 353.40,394.36 353.73,394.36 354.05,394.36 358.92,394.36 359.89,394.36 360.87,394.36 361.19,394.36 362.16,394.36 364.44,394.36 364.76,394.36 366.38,394.36 368.33,392.32 371.58,392.32 372.55,392.32 373.52,392.32 374.82,392.32 375.47,392.32 375.79,392.32 376.44,390.27 378.07,390.27 379.36,390.27 383.58,388.23 385.21,388.23 386.18,388.23 389.10,386.18 389.75,384.14 390.07,384.14 390.40,384.14 392.02,384.14 393.00,384.14 394.29,384.14 394.62,384.14 395.27,384.14 397.54,384.14 397.86,384.14 398.51,384.14 400.78,384.14 401.43,384.14 402.73,384.14 403.71,382.09 404.03,382.09 404.36,382.09 408.25,382.09 408.90,382.09 410.20,382.09 410.52,382.09 411.82,382.09 413.12,382.09 413.44,382.09 413.77,382.09 415.39,382.09 416.04,382.09 417.66,380.05 418.96,378.00 419.93,378.00 421.88,378.00 423.18,378.00 424.80,378.00 425.13,378.00 425.78,378.00 426.42,378.00 427.07,378.00 427.40,375.95 428.37,373.91 428.70,373.91 429.02,373.91 429.35,371.86 430.97,371.86 431.62,369.82 432.92,369.82 433.56,369.82 434.54,369.82 435.19,369.82 436.16,369.82 437.46,369.82 438.76,367.77 440.06,365.73 440.38,365.73 442.00,365.73 442.33,365.73 442.98,365.73 443.30,365.73 443.95,365.73 444.27,365.73 445.90,365.73 447.20,365.73 448.82,363.68 453.36,363.68 453.69,363.68 454.01,361.64 454.34,361.64 455.31,357.55 455.63,357.55 455.96,357.55 456.28,357.55 457.58,355.50 458.23,355.50 458.55,355.50 459.53,353.45 459.85,351.41 460.50,351.41 462.45,351.41 462.77,351.41 463.10,351.41 464.40,351.41 466.67,351.41 466.99,351.41 467.64,351.41 469.91,351.41 471.54,351.41 473.16,349.36 476.08,347.32 477.38,347.32 477.70,347.32 478.03,345.27 478.68,345.27 479.00,343.23 479.33,343.23 480.30,343.23 480.62,343.23 481.60,343.23 483.22,343.23 483.54,339.14 483.87,339.14 484.19,339.14 484.52,339.14 484.84,339.14 485.17,339.14 485.82,339.14 486.14,339.14 486.47,335.05 487.44,335.05 488.09,335.05 488.74,335.05 490.04,335.05 491.33,335.05 491.66,335.05 491.98,333.00 492.31,330.95 493.93,330.95 495.23,330.95 495.55,330.95 496.85,330.95 497.18,330.95 497.50,328.91 500.75,328.91 501.07,328.91 501.72,328.91 503.34,328.91 503.99,328.91 504.64,328.91 505.94,326.86 506.59,326.86 506.91,324.82 507.24,324.82 507.56,322.77 508.86,322.77 509.18,322.77 509.83,322.77 510.16,322.77 511.13,322.77 511.46,322.77 512.75,322.77 515.67,322.77 516.65,322.77 517.62,322.77 517.95,320.73 518.27,320.73 518.60,318.68 518.92,318.68 519.57,318.68 521.84,316.64 523.14,316.64 523.46,316.64 523.79,316.64 524.76,316.64 526.06,314.59 527.36,314.59 528.98,314.59 529.31,314.59 532.88,314.59 534.50,314.59 535.15,314.59 535.80,314.59 538.39,314.59 539.04,314.59 539.37,314.59 540.34,314.59 540.99,314.59 541.64,312.55 542.29,312.55 542.94,312.55 544.23,312.55 544.56,312.55 544.88,312.55 546.51,310.50 547.16,310.50 547.48,310.50 548.45,310.50 549.10,310.50 549.75,310.50 551.37,310.50 551.70,308.45 552.02,308.45 553.00,308.45 553.65,306.41 554.30,306.41 555.92,306.41 558.84,306.41 559.16,306.41 560.46,306.41 560.79,306.41 562.08,306.41 562.41,306.41 562.73,304.36 563.38,304.36 564.36,304.36 564.68,304.36 565.01,304.36 565.65,304.36 566.95,304.36 567.93,302.32 568.25,302.32 572.47,302.32 572.79,302.32 573.77,302.32 574.42,302.32 576.69,302.32 577.66,300.27 577.99,300.27 578.31,300.27 580.91,300.27 581.23,300.27 581.56,300.27 582.53,300.27 582.86,300.27 583.51,300.27 585.78,300.27 586.43,300.27 587.08,296.18 588.05,296.18 588.37,296.18 589.35,296.18 594.86,296.18 596.16,296.18 596.49,296.18 598.11,296.18 598.76,294.14 599.08,294.14 599.41,292.09 599.73,292.09 600.71,290.05 601.68,290.05 602.00,290.05 603.95,290.05 604.28,290.05 604.93,290.05 605.90,290.05 606.55,290.05 606.87,290.05 608.17,290.05 608.82,288.00 609.47,288.00 610.44,288.00 610.77,288.00 614.99,288.00 615.96,285.95 616.93,285.95 617.26,285.95 618.88,285.95 619.21,285.95 619.53,285.95 619.85,285.95 621.15,285.95 622.13,285.95 624.40,285.95 625.37,285.95 625.70,285.95 626.35,283.91 626.99,283.91 628.94,283.91 629.27,283.91 632.51,283.91 632.84,283.91 633.81,283.91 634.13,283.91 635.11,283.91 635.43,279.82 635.76,279.82 637.38,279.82 637.70,279.82 638.68,279.82 640.30,279.82 641.60,279.82 642.57,277.77 646.14,275.73 646.47,273.68 648.41,271.64 649.06,271.64 649.71,269.59 651.01,267.55 651.34,265.50 653.93,265.50 656.85,265.50 657.50,265.50 657.83,263.45 658.15,263.45 661.07,261.41 662.37,259.36 662.69,259.36 663.02,259.36 663.67,257.32 664.97,257.32 665.29,257.32 665.94,257.32 667.24,257.32 668.86,257.32 669.19,255.27 669.83,255.27 670.16,255.27 670.48,253.23 670.81,253.23 671.13,253.23 671.78,253.23 675.68,253.23 677.95,251.18 680.22,249.14 681.19,247.09 681.52,245.05 681.84,245.05 682.82,243.00 683.14,243.00 685.41,240.95 685.74,240.95 687.04,238.91 687.36,238.91 687.68,238.91 688.98,238.91 689.96,236.86 691.25,236.86 692.23,234.82 692.55,232.77 694.50,232.77 695.15,232.77 696.12,232.77 696.45,232.77 697.10,232.77 699.04,230.73 699.69,228.68 700.34,228.68 700.67,228.68 701.32,228.68 701.64,228.68 702.61,228.68 702.94,228.68 703.59,228.68 704.89,228.68 705.21,228.68 705.86,228.68 706.51,228.68 707.81,228.68 708.13,226.64 709.43,226.64 710.73,226.64 712.35,224.59 713.32,224.59 713.65,224.59 715.27,222.55 715.60,222.55 716.89,222.55 717.87,222.55 718.52,220.50 719.49,220.50 720.79,220.50 721.11,220.50 721.76,220.50 724.36,220.50 726.31,218.45 728.58,218.45 732.15,218.45 732.47,216.41 732.80,216.41 734.74,216.41 735.39,216.41 735.72,216.41 736.04,214.36 737.02,214.36 737.34,212.32 737.99,212.32 740.59,212.32 742.21,212.32 742.86,210.27 744.48,208.23 745.78,208.23 748.70,206.18 750.00,204.14 751.94,204.14 757.79,202.09 760.06,200.05 760.71,200.05 763.63,200.05 764.28,200.05 764.93,200.05 766.87,200.05 767.52,200.05 768.17,200.05 768.50,198.00 768.82,198.00 771.42,198.00 774.34,198.00 775.96,198.00 777.91,198.00 780.83,195.95 783.43,195.95 784.72,195.95 785.37,195.95 786.67,195.95 788.29,195.95 788.94,195.95 789.59,195.95 791.54,195.95 792.84,195.95 793.16,195.95 796.08,193.91 796.41,193.91 796.73,191.86 797.38,191.86 798.36,189.82 799.65,189.82 801.60,189.82 801.93,189.82 802.90,187.77 805.17,185.73 807.44,185.73 809.39,185.73 811.99,185.73 812.64,185.73 812.96,185.73 813.93,183.68 814.26,183.68 814.58,183.68 815.23,183.68 816.53,181.64 818.80,181.64 819.13,179.59 820.10,179.59 822.05,179.59 823.67,179.59 823.99,179.59 825.29,179.59 826.27,179.59 826.59,177.55 827.89,177.55 828.54,175.50 830.16,175.50 830.49,173.45 830.81,173.45 832.76,173.45 833.73,173.45 834.06,173.45 836.00,171.41 837.30,171.41 837.63,171.41 837.95,169.36 840.22,169.36 841.84,169.36 845.74,169.36 846.06,169.36 848.01,169.36 850.93,169.36 854.18,169.36 856.12,169.36 856.45,169.36 856.77,169.36 857.42,169.36 860.02,169.36 862.29,169.36 865.54,169.36 865.86,167.32 868.78,167.32 869.76,167.32 871.05,167.32 881.11,167.32 882.41,167.32 882.74,167.32 885.98,167.32 887.61,167.32 889.88,167.32 890.53,165.27 890.85,165.27 892.80,165.27 894.10,165.27 894.75,165.27 895.07,165.27 895.39,165.27 896.37,165.27 897.99,165.27 898.32,163.23 899.94,163.23 902.21,163.23 904.48,163.23 905.13,163.23 908.70,163.23 909.03,163.23 910.65,163.23 912.27,163.23 915.19,163.23 916.49,163.23 918.76,159.14 919.09,159.14 919.74,157.09 921.36,157.09 921.68,157.09 922.33,157.09 923.31,157.09 923.63,157.09 923.95,157.09 924.28,157.09 925.58,157.09 925.90,155.05 927.85,155.05 928.17,155.05 929.80,155.05 930.12,155.05 930.77,155.05 931.42,153.00 932.39,153.00 935.64,153.00 941.48,153.00 942.78,153.00 944.40,150.95 945.70,150.95 947.00,150.95 947.97,150.95 948.95,150.95 951.22,148.91 952.84,148.91 953.49,146.86 955.76,144.82 956.09,142.77 956.41,142.77 959.98,142.77 961.93,142.77 962.25,140.73 965.17,140.73 970.04,140.73 971.34,138.68 971.66,138.68 972.64,138.68 976.53,138.68 981.08,138.68 981.40,136.64 985.62,136.64 988.22,136.64 1000.87,136.64 1003.79,136.64 1004.77,136.64 1006.39,136.64 1006.71,136.64 1012.56,136.64 1015.15,136.64 1020.35,136.64 1021.97,136.64 1024.24,136.64 1030.81,124.36 1033.73,124.36 1034.05,124.36 1034.71,124.36 1035.03,124.36 1036.00,124.36"/>
<circle cx="90.00" cy="468.00" r="3.8" fill="#ffb50c" stroke="#111827" stroke-width="1"/>
<circle cx="191.78" cy="459.82" r="3.8" fill="#ffb50c" stroke="#111827" stroke-width="1"/>
<circle cx="243.06" cy="441.41" r="3.8" fill="#ffb50c" stroke="#111827" stroke-width="1"/>
<circle cx="280.38" cy="429.14" r="3.8" fill="#ffb50c" stroke="#111827" stroke-width="1"/>
<circle cx="317.05" cy="414.82" r="3.8" fill="#ffb50c" stroke="#111827" stroke-width="1"/>
<circle cx="346.26" cy="396.41" r="3.8" fill="#ffb50c" stroke="#111827" stroke-width="1"/>
<circle cx="390.07" cy="384.14" r="3.8" fill="#ffb50c" stroke="#111827" stroke-width="1"/>
<circle cx="421.88" cy="378.00" r="3.8" fill="#ffb50c" stroke="#111827" stroke-width="1"/>
<circle cx="445.90" cy="365.73" r="3.8" fill="#ffb50c" stroke="#111827" stroke-width="1"/>
<circle cx="477.70" cy="347.32" r="3.8" fill="#ffb50c" stroke="#111827" stroke-width="1"/>
<circle cx="496.85" cy="330.95" r="3.8" fill="#ffb50c" stroke="#111827" stroke-width="1"/>
<circle cx="521.84" cy="316.64" r="3.8" fill="#ffb50c" stroke="#111827" stroke-width="1"/>
<circle cx="549.75" cy="310.50" r="3.8" fill="#ffb50c" stroke="#111827" stroke-width="1"/>
<circle cx="577.99" cy="300.27" r="3.8" fill="#ffb50c" stroke="#111827" stroke-width="1"/>
<circle cx="606.55" cy="290.05" r="3.8" fill="#ffb50c" stroke="#111827" stroke-width="1"/>
<circle cx="635.43" cy="279.82" r="3.8" fill="#ffb50c" stroke="#111827" stroke-width="1"/>
<circle cx="668.86" cy="257.32" r="3.8" fill="#ffb50c" stroke="#111827" stroke-width="1"/>
<circle cx="696.45" cy="232.77" r="3.8" fill="#ffb50c" stroke="#111827" stroke-width="1"/>
<circle cx="721.11" cy="220.50" r="3.8" fill="#ffb50c" stroke="#111827" stroke-width="1"/>
<circle cx="766.87" cy="200.05" r="3.8" fill="#ffb50c" stroke="#111827" stroke-width="1"/>
<circle cx="805.17" cy="185.73" r="3.8" fill="#ffb50c" stroke="#111827" stroke-width="1"/>
<circle cx="837.30" cy="171.41" r="3.8" fill="#ffb50c" stroke="#111827" stroke-width="1"/>
<circle cx="892.80" cy="165.27" r="3.8" fill="#ffb50c" stroke="#111827" stroke-width="1"/>
<circle cx="925.90" cy="155.05" r="3.8" fill="#ffb50c" stroke="#111827" stroke-width="1"/>
<circle cx="972.64" cy="138.68" r="3.8" fill="#ffb50c" stroke="#111827" stroke-width="1"/>
<circle cx="1036.00" cy="124.36" r="3.8" fill="#ffb50c" stroke="#111827" stroke-width="1"/>
<text x="1028.00" y="114.36" text-anchor="end" fill="#ffb50c" font-size="12" font-family="-apple-system,BlinkMacSystemFont,Segoe UI,Helvetica,Arial,sans-serif">168</text>
<rect x="90.00" y="514.00" width="14" height="14" fill="url(#repo-0)" rx="3"/>
<text x="112.00" y="526.00" fill="#3bf2af" font-size="13" font-family="-apple-system,BlinkMacSystemFont,Segoe UI,Helvetica,Arial,sans-serif">bavix/gripmock</text>
<rect x="280.00" y="514.00" width="14" height="14" fill="url(#repo-1)" rx="3"/>
<text x="302.00" y="526.00" fill="#ffb50c" font-size="13" font-family="-apple-system,BlinkMacSystemFont,Segoe UI,Helvetica,Arial,sans-serif">tokopedia/gripmock</text>
<text x="1036.00" y="526.00" text-anchor="end" fill="#9ca3af" font-size="12" font-family="-apple-system,BlinkMacSystemFont,Segoe UI,Helvetica,Arial,sans-serif">Source: https://github.com/bavix/artifact-stats/blob/master/stats/github.csv</text>
</svg>