<svg xmlns="http://www.w3.org/2000/svg" width="1100" height="560" viewBox="0 0 1100 560">
<defs>
<linearGradient id="bg" x1="0" y1="0" x2="1" y2="1"><stop offset="0%" stop-color="#0b1220"/><stop offset="100%" stop-color="#111827"/></linearGradient>
<linearGradient id="repo-0" x1="0" y1="0" x2="0" y2="1"><stop offset="0%" stop-color="#34d399"/><stop offset="100%" stop-color="#059669"/></linearGradient>
<linearGradient id="repo-1" x1="0" y1="0" x2="0" y2="1"><stop offset="0%" stop-color="#f59e0b"/><stop offset="100%" stop-color="#d97706"/></linearGradient>
</defs>
<rect x="0" y="0" width="1100" height="560" fill="url(#bg)" rx="16"/>
<text x="90" y="44" fill="#f9fafb" font-size="28" font-family="-apple-system,BlinkMacSystemFont,Segoe UI,Helvetica,Arial,sans-serif" font-weight="700">GripMock GitHub Metrics - Forks</text>
<text x="90" y="70" fill="#9ca3af" font-size="16" font-family="-apple-system,BlinkMacSystemFont,Segoe UI,Helvetica,Arial,sans-serif">GitHub forks by snapshot date</text>
<line x1="90" y1="90.00" x2="1036" y2="90.00" stroke="#1f2937" stroke-width="1"/>
<text x="80" y="95.00" text-anchor="end" fill="#9ca3af" font-size="12" font-family="-apple-system,BlinkMacSystemFont,Segoe UI,Helvetica,Arial,sans-serif">185</text>
<line x1="90" y1="153.00" x2="1036" y2="153.00" stroke="#1f2937" stroke-width="1"/>
<text x="80" y="158.00" text-anchor="end" fill="#9ca3af" font-size="12" font-family="-apple-system,BlinkMacSystemFont,Segoe UI,Helvetica,Arial,sans-serif">154</text>
<line x1="90" y1="216.00" x2="1036" y2="216.00" stroke="#1f2937" stroke-width="1"/>
<text x="80" y="221.00" text-anchor="end" fill="#9ca3af" font-size="12" font-family="-apple-system,BlinkMacSystemFont,Segoe UI,Helvetica,Arial,sans-serif">123</text>
<line x1="90" y1="279.00" x2="1036" y2="279.00" stroke="#1f2937" stroke-width="1"/>
<text x="80" y="284.00" text-anchor="end" fill="#9ca3af" font-size="12" font-family="-apple-system,BlinkMacSystemFont,Segoe UI,Helvetica,Arial,sans-serif">92</text>
<line x1="90" y1="342.00" x2="1036" y2="342.00" stroke="#1f2937" stroke-width="1"/>
<text x="80" y="347.00" text-anchor="end" fill="#9ca3af" font-size="12" font-family="-apple-system,BlinkMacSystemFont,Segoe UI,Helvetica,Arial,sans-serif">62</text>
<line x1="90" y1="405.00" x2="1036" y2="405.00" stroke="#1f2937" stroke-width="1"/>
<text x="80" y="410.00" text-anchor="end" fill="#9ca3af" font-size="12" font-family="-apple-system,BlinkMacSystemFont,Segoe UI,Helvetica,Arial,sans-serif">31</text>
<line x1="90" y1="468.00" x2="1036" y2="468.00" stroke="#1f2937" stroke-width="1"/>
<text x="80" y="473.00" text-anchor="end" fill="#9ca3af" font-size="12" font-family="-apple-system,BlinkMacSystemFont,Segoe UI,Helvetica,Arial,sans-serif">0</text>
<line x1="90" y1="468" x2="1036" y2="468" stroke="#4b5563" stroke-width="1.4"/>
<line x1="90" y1="90" x2="90" y2="468" stroke="#4b5563" stroke-width="1.4"/>
<line x1="90.00" y1="468" x2="90.00" y2="474" stroke="#6b7280" stroke-width="1"/>
<text x="90.00" y="494" text-anchor="start" fill="#9ca3af" font-size="12" font-family="-apple-system,BlinkMacSystemFont,Segoe UI,Helvetica,Arial,sans-serif">2018-04-24</text>
<line x1="279.20" y1="468" x2="279.20" y2="474" stroke="#6b7280" stroke-width="1"/>
<text x="279.20" y="494" text-anchor="middle" fill="#9ca3af" font-size="12" font-family="-apple-system,BlinkMacSystemFont,Segoe UI,Helvetica,Arial,sans-serif">2019-11-29</text>
<line x1="468.40" y1="468" x2="468.40" y2="474" stroke="#6b7280" stroke-width="1"/>
<text x="468.40" y="494" text-anchor="middle" fill="#9ca3af" font-size="12" font-family="-apple-system,BlinkMacSystemFont,Segoe UI,Helvetica,Arial,sans-serif">2021-07-04</text>
<line x1="657.60" y1="468" x2="657.60" y2="474" stroke="#6b7280" stroke-width="1"/>
<text x="657.60" y="494" text-anchor="middle" fill="#9ca3af" font-size="12" font-family="-apple-system,BlinkMacSystemFont,Segoe UI,Helvetica,Arial,sans-serif">2023-02-08</text>
<line x1="846.80" y1="468" x2="846.80" y2="474" stroke="#6b7280" stroke-width="1"/>
<text x="846.80" y="494" text-anchor="middle" fill="#9ca3af" font-size="12" font-family="-apple-system,BlinkMacSystemFont,Segoe UI,Helvetica,Arial,sans-serif">2024-09-14</text>
<line x1="1036.00" y1="468" x2="1036.00" y2="474" stroke="#6b7280" stroke-width="1"/>
<text x="1036.00" y="494" text-anchor="end" fill="#9ca3af" font-size="12" font-family="-apple-system,BlinkMacSystemFont,Segoe UI,Helvetica,Arial,sans-serif">2026-04-21</text>
<polyline fill="none" stroke="url(#repo-0)" stroke-width="4" stroke-linecap="round" stroke-linejoin="round" points="718.76,468.00 725.43,468.00 738.40,468.00 752.01,468.00 753.95,468.00 757.20,468.00 768.86,468.00 771.13,468.00 776.64,468.00 776.97,468.00 781.83,468.00 789.61,468.00 801.92,468.00 805.16,468.00 809.38,468.00 812.94,468.00 827.85,468.00 832.39,468.00 833.04,468.00 834.33,468.00 840.49,468.00 854.10,468.00 857.02,468.00 863.83,468.00 869.34,468.00 869.98,468.00 870.63,468.00 890.73,468.00 893.32,468.00 893.97,468.00 900.12,468.00 900.77,468.00 904.66,465.95 905.96,465.95 906.28,465.95 906.61,465.95 909.52,463.91 911.14,463.91 912.76,463.91 917.95,461.86 922.49,459.82 924.11,459.82 924.76,457.77 931.56,457.77 935.45,457.77 947.12,457.77 949.39,457.77 950.04,455.73 951.98,455.73 953.93,455.73 956.84,453.68 962.03,453.68 968.83,453.68 973.05,453.68 984.39,453.68 986.66,453.68 991.52,453.68 991.85,453.68 992.82,453.68 995.41,453.68 995.74,451.64 1004.49,451.64 1011.29,451.64 1011.94,451.64 1014.21,451.64 1020.69,451.64 1022.96,451.64 1024.58,451.64 1026.20,451.64 1029.52,451.64 1030.48,451.64 1030.81,451.64 1031.46,451.64 1031.78,451.64 1032.11,451.64 1036.00,451.64"/>
<circle cx="718.76" cy="468.00" r="3.8" fill="#3bf2af" stroke="#111827" stroke-width="1"/>
<circle cx="752.01" cy="468.00" r="3.8" fill="#3bf2af" stroke="#111827" stroke-width="1"/>
<circle cx="768.86" cy="468.00" r="3.8" fill="#3bf2af" stroke="#111827" stroke-width="1"/>
<circle cx="776.97" cy="468.00" r="3.8" fill="#3bf2af" stroke="#111827" stroke-width="1"/>
<circle cx="801.92" cy="468.00" r="3.8" fill="#3bf2af" stroke="#111827" stroke-width="1"/>
<circle cx="812.94" cy="468.00" r="3.8" fill="#3bf2af" stroke="#111827" stroke-width="1"/>
<circle cx="833.04" cy="468.00" r="3.8" fill="#3bf2af" stroke="#111827" stroke-width="1"/>
<circle cx="854.10" cy="468.00" r="3.8" fill="#3bf2af" stroke="#111827" stroke-width="1"/>
<circle cx="869.34" cy="468.00" r="3.8" fill="#3bf2af" stroke="#111827" stroke-width="1"/>
<circle cx="890.73" cy="468.00" r="3.8" fill="#3bf2af" stroke="#111827" stroke-width="1"/>
<circle cx="900.12" cy="468.00" r="3.8" fill="#3bf2af" stroke="#111827" stroke-width="1"/>
<circle cx="905.96" cy="465.95" r="3.8" fill="#3bf2af" stroke="#111827" stroke-width="1"/>
<circle cx="909.52" cy="463.91" r="3.8" fill="#3bf2af" stroke="#111827" stroke-width="1"/>
<circle cx="917.95" cy="461.86" r="3.8" fill="#3bf2af" stroke="#111827" stroke-width="1"/>
<circle cx="924.76" cy="457.77" r="3.8" fill="#3bf2af" stroke="#111827" stroke-width="1"/>
<circle cx="947.12" cy="457.77" r="3.8" fill="#3bf2af" stroke="#111827" stroke-width="1"/>
<circle cx="951.98" cy="455.73" r="3.8" fill="#3bf2af" stroke="#111827" stroke-width="1"/>
<circle cx="962.03" cy="453.68" r="3.8" fill="#3bf2af" stroke="#111827" stroke-width="1"/>
<circle cx="984.39" cy="453.68" r="3.8" fill="#3bf2af" stroke="#111827" stroke-width="1"/>
<circle cx="991.85" cy="453.68" r="3.8" fill="#3bf2af" stroke="#111827" stroke-width="1"/>
<circle cx="995.74" cy="451.64" r="3.8" fill="#3bf2af" stroke="#111827" stroke-width="1"/>
<circle cx="1011.94" cy="451.64" r="3.8" fill="#3bf2af" stroke="#111827" stroke-width="1"/>
<circle cx="1022.96" cy="451.64" r="3.8" fill="#3bf2af" stroke="#111827" stroke-width="1"/>
<circle cx="1029.52" cy="451.64" r="3.8" fill="#3bf2af" stroke="#111827" stroke-width="1"/>
<circle cx="1031.46" cy="451.64" r="3.8" fill="#3bf2af" stroke="#111827" stroke-width="1"/>
<circle cx="1036.00" cy="451.64" r="3.8" fill="#3bf2af" stroke="#111827" stroke-width="1"/>
<text x="1028.00" y="441.64" text-anchor="end" fill="#3bf2af" font-size="12" font-family="-apple-system,BlinkMacSystemFont,Segoe UI,Helvetica,Arial,sans-serif">8</text>
<polyline fill="none" stroke="url(#repo-1)" stroke-width="4" stroke-linecap="round" stroke-linejoin="round" points="90.00,468.00 91.81,468.00 92.46,468.00 96.03,468.00 99.59,468.00 136.54,468.00 137.51,465.95 143.35,463.91 149.18,463.91 153.72,461.86 157.28,461.86 157.93,461.86 158.25,461.86 158.58,461.86 160.20,461.86 160.85,461.86 165.06,459.82 165.38,459.82 169.27,459.82 170.25,459.82 170.57,459.82 172.19,459.82 173.81,459.82 175.76,459.82 176.73,459.82 181.91,459.82 184.51,459.82 186.13,459.82 186.45,459.82 191.64,459.82 191.96,459.82 192.61,457.77 195.85,457.77 196.50,457.77 196.82,455.73 197.15,453.68 202.98,453.68 204.60,451.64 210.76,451.64 212.06,451.64 212.70,449.59 215.30,447.55 218.21,447.55 222.10,445.50 222.43,445.50 224.70,445.50 226.96,445.50 230.21,445.50 231.18,445.50 233.45,445.50 235.72,445.50 237.66,445.50 237.98,445.50 238.31,445.50 240.90,445.50 241.55,445.50 242.20,445.50 242.52,443.45 242.85,441.41 243.17,441.41 245.76,441.41 246.41,441.41 249.00,439.36 254.51,439.36 255.16,437.32 255.49,437.32 255.81,437.32 256.46,433.23 257.75,433.23 258.08,433.23 260.02,433.23 260.35,433.23 262.62,433.23 263.59,433.23 264.24,433.23 265.21,431.18 266.83,431.18 267.15,429.14 268.13,429.14 271.04,429.14 274.61,429.14 275.58,429.14 276.55,429.14 276.88,429.14 278.17,429.14 278.50,429.14 279.14,429.14 280.12,429.14 281.74,429.14 282.39,429.14 282.71,429.14 283.03,429.14 284.65,429.14 285.63,429.14 286.28,429.14 287.57,427.09 287.90,425.05 289.52,425.05 293.08,425.05 295.03,425.05 296.65,423.00 296.97,423.00 299.24,423.00 300.86,423.00 301.18,420.95 303.13,420.95 303.45,420.95 304.10,418.91 305.07,416.86 305.40,416.86 305.72,416.86 306.05,416.86 310.58,414.82 314.47,414.82 314.80,414.82 315.44,414.82 316.74,414.82 317.06,414.82 318.69,412.77 319.33,410.73 319.66,410.73 319.98,410.73 320.31,410.73 321.93,410.73 325.17,408.68 326.46,408.68 326.79,406.64 327.44,406.64 327.76,404.59 328.41,402.55 329.06,402.55 329.70,400.50 331.00,398.45 331.65,398.45 333.59,398.45 333.92,398.45 335.21,398.45 337.16,398.45 338.46,398.45 339.75,396.41 340.08,396.41 340.72,396.41 341.70,396.41 342.67,396.41 344.29,396.41 345.91,396.41 347.53,396.41 350.45,394.36 353.04,394.36 353.36,394.36 353.69,394.36 358.55,394.36 359.52,394.36 360.49,394.36 360.82,394.36 361.79,394.36 364.06,394.36 364.38,394.36 366.00,394.36 367.95,392.32 371.19,392.32 372.16,392.32 373.13,392.32 374.43,392.32 375.08,392.32 375.40,392.32 376.05,390.27 377.67,390.27 378.97,390.27 383.18,388.23 384.80,388.23 385.77,388.23 388.69,386.18 389.34,384.14 389.66,384.14 389.99,384.14 391.61,384.14 392.58,384.14 393.88,384.14 394.20,384.14 394.85,384.14 397.12,384.14 397.44,384.14 398.09,384.14 400.36,384.14 401.01,384.14 402.30,384.14 403.28,382.09 403.60,382.09 403.92,382.09 407.81,382.09 408.46,382.09 409.76,382.09 410.08,382.09 411.38,382.09 412.68,382.09 413.00,382.09 413.32,382.09 414.94,382.09 415.59,382.09 417.21,380.05 418.51,378.00 419.48,378.00 421.43,378.00 422.72,378.00 424.34,378.00 424.67,378.00 425.32,378.00 425.96,378.00 426.61,378.00 426.94,375.95 427.91,373.91 428.23,373.91 428.56,373.91 428.88,371.86 430.50,371.86 431.15,369.82 432.45,369.82 433.09,369.82 434.07,369.82 434.71,369.82 435.69,369.82 436.98,369.82 438.28,367.77 439.58,365.73 439.90,365.73 441.52,365.73 441.84,365.73 442.49,365.73 442.82,365.73 443.46,365.73 443.79,365.73 445.41,365.73 446.71,365.73 448.33,363.68 452.86,363.68 453.19,363.68 453.51,361.64 453.84,361.64 454.81,357.55 455.13,357.55 455.46,357.55 455.78,357.55 457.08,355.50 457.73,355.50 458.05,355.50 459.02,353.45 459.35,351.41 459.99,351.41 461.94,351.41 462.26,351.41 462.59,351.41 463.88,351.41 466.15,351.41 466.48,351.41 467.12,351.41 469.39,351.41 471.01,351.41 472.63,349.36 475.55,347.32 476.85,347.32 477.17,347.32 477.50,345.27 478.14,345.27 478.47,343.23 478.79,343.23 479.76,343.23 480.09,343.23 481.06,343.23 482.68,343.23 483.01,339.14 483.33,339.14 483.65,339.14 483.98,339.14 484.30,339.14 484.63,339.14 485.27,339.14 485.60,339.14 485.92,335.05 486.89,335.05 487.54,335.05 488.19,335.05 489.49,335.05 490.78,335.05 491.11,335.05 491.43,333.00 491.76,330.95 493.38,330.95 494.67,330.95 495.00,330.95 496.29,330.95 496.62,330.95 496.94,328.91 500.18,328.91 500.51,328.91 501.15,328.91 502.78,328.91 503.42,328.91 504.07,328.91 505.37,326.86 506.02,326.86 506.34,324.82 506.66,324.82 506.99,322.77 508.29,322.77 508.61,322.77 509.26,322.77 509.58,322.77 510.55,322.77 510.88,322.77 512.17,322.77 515.09,322.77 516.06,322.77 517.04,322.77 517.36,320.73 517.68,320.73 518.01,318.68 518.33,318.68 518.98,318.68 521.25,316.64 522.55,316.64 522.87,316.64 523.19,316.64 524.17,316.64 525.46,314.59 526.76,314.59 528.38,314.59 528.70,314.59 532.27,314.59 533.89,314.59 534.54,314.59 535.19,314.59 537.78,314.59 538.43,314.59 538.75,314.59 539.72,314.59 540.37,314.59 541.02,312.55 541.67,312.55 542.32,312.55 543.61,312.55 543.94,312.55 544.26,312.55 545.88,310.50 546.53,310.50 546.85,310.50 547.83,310.50 548.47,310.50 549.12,310.50 550.74,310.50 551.07,308.45 551.39,308.45 552.36,308.45 553.01,306.41 553.66,306.41 555.28,306.41 558.20,306.41 558.52,306.41 559.82,306.41 560.14,306.41 561.44,306.41 561.76,306.41 562.09,304.36 562.73,304.36 563.71,304.36 564.03,304.36 564.35,304.36 565.00,304.36 566.30,304.36 567.27,302.32 567.60,302.32 571.81,302.32 572.13,302.32 573.11,302.32 573.75,302.32 576.02,302.32 576.99,300.27 577.32,300.27 577.64,300.27 580.24,300.27 580.56,300.27 580.88,300.27 581.86,300.27 582.18,300.27 582.83,300.27 585.10,300.27 585.75,300.27 586.39,296.18 587.37,296.18 587.69,296.18 588.66,296.18 594.17,296.18 595.47,296.18 595.79,296.18 597.41,296.18 598.06,294.14 598.39,294.14 598.71,292.09 599.03,292.09 600.01,290.05 600.98,290.05 601.30,290.05 603.25,290.05 603.57,290.05 604.22,290.05 605.19,290.05 605.84,290.05 606.16,290.05 607.46,290.05 608.11,288.00 608.76,288.00 609.73,288.00 610.05,288.00 614.27,288.00 615.24,285.95 616.21,285.95 616.54,285.95 618.16,285.95 618.48,285.95 618.80,285.95 619.13,285.95 620.42,285.95 621.40,285.95 623.67,285.95 624.64,285.95 624.96,285.95 625.61,283.91 626.26,283.91 628.20,283.91 628.53,283.91 631.77,283.91 632.09,283.91 633.06,283.91 633.39,283.91 634.36,283.91 634.69,279.82 635.01,279.82 636.63,279.82 636.95,279.82 637.93,279.82 639.55,279.82 640.84,279.82 641.82,277.77 645.38,275.73 645.70,273.68 647.65,271.64 648.30,271.64 648.95,269.59 650.24,267.55 650.57,265.50 653.16,265.50 656.08,265.50 656.72,265.50 657.05,263.45 657.37,263.45 660.29,261.41 661.59,259.36 661.91,259.36 662.23,259.36 662.88,257.32 664.18,257.32 664.50,257.32 665.15,257.32 666.45,257.32 668.07,257.32 668.39,255.27 669.04,255.27 669.36,255.27 669.69,253.23 670.01,253.23 670.34,253.23 670.98,253.23 674.87,253.23 677.14,251.18 679.41,249.14 680.38,247.09 680.71,245.05 681.03,245.05 682.00,243.00 682.33,243.00 684.60,240.95 684.92,240.95 686.22,238.91 686.54,238.91 686.87,238.91 688.16,238.91 689.13,236.86 690.43,236.86 691.40,234.82 691.73,232.77 693.67,232.77 694.32,232.77 695.29,232.77 695.62,232.77 696.26,232.77 698.21,230.73 698.86,228.68 699.51,228.68 699.83,228.68 700.48,228.68 700.80,228.68 701.77,228.68 702.10,228.68 702.75,228.68 704.04,228.68 704.37,228.68 705.02,228.68 705.66,228.68 706.96,228.68 707.28,226.64 708.58,226.64 709.88,226.64 711.50,224.59 712.47,224.59 712.79,224.59 714.41,222.55 714.74,222.55 716.03,222.55 717.01,222.55 717.66,220.50 718.63,220.50 719.92,220.50 720.25,220.50 720.90,220.50 723.49,220.50 725.43,218.45 727.70,218.45 731.27,218.45 731.59,216.41 731.92,216.41 733.86,216.41 734.51,216.41 734.83,216.41 735.16,214.36 736.13,214.36 736.45,212.32 737.10,212.32 739.69,212.32 741.31,212.32 741.96,210.27 743.58,208.23 744.88,208.23 747.80,206.18 749.09,204.14 751.04,204.14 756.87,202.09 759.14,200.05 759.79,200.05 762.71,200.05 763.35,200.05 764.00,200.05 765.95,200.05 766.59,200.05 767.24,200.05 767.57,198.00 767.89,198.00 770.48,198.00 773.40,198.00 775.02,198.00 776.97,198.00 779.88,195.95 782.48,195.95 783.77,195.95 784.42,195.95 785.72,195.95 787.34,195.95 787.99,195.95 788.63,195.95 790.58,195.95 791.87,195.95 792.20,195.95 795.12,193.91 795.44,193.91 795.76,191.86 796.41,191.86 797.38,189.82 798.68,189.82 800.63,189.82 800.95,189.82 801.92,187.77 804.19,185.73 806.46,185.73 808.40,185.73 811.00,185.73 811.65,185.73 811.97,185.73 812.94,183.68 813.27,183.68 813.59,183.68 814.24,183.68 815.53,181.64 817.80,181.64 818.13,179.59 819.10,179.59 821.04,179.59 822.66,179.59 822.99,179.59 824.29,179.59 825.26,179.59 825.58,177.55 826.88,177.55 827.53,175.50 829.15,175.50 829.47,173.45 829.79,173.45 831.74,173.45 832.71,173.45 833.04,173.45 834.98,171.41 836.28,171.41 836.60,171.41 836.93,169.36 839.19,169.36 840.81,169.36 844.70,169.36 845.03,169.36 846.97,169.36 849.89,169.36 853.13,169.36 855.07,169.36 855.40,169.36 855.72,169.36 856.37,169.36 858.96,169.36 861.23,169.36 864.47,169.36 864.80,167.32 867.71,167.32 868.69,167.32 869.98,167.32 880.03,167.32 881.33,167.32 881.65,167.32 884.89,167.32 886.51,167.32 888.78,167.32 889.43,165.27 889.75,165.27 891.70,165.27 892.99,165.27 893.64,165.27 893.97,165.27 894.29,165.27 895.26,165.27 896.88,165.27 897.21,163.23 898.83,163.23 901.10,163.23 903.37,163.23 904.01,163.23 907.58,163.23 907.90,163.23 909.52,163.23 911.14,163.23 914.06,163.23 915.36,163.23 917.63,159.14 917.95,159.14 918.60,157.09 920.22,157.09 920.54,157.09 921.19,157.09 922.16,157.09 922.49,157.09 922.81,157.09 923.14,157.09 924.43,157.09 924.76,155.05 926.70,155.05 927.03,155.05 928.65,155.05 928.97,155.05 929.62,155.05 930.27,153.00 931.24,153.00 934.48,153.00 940.31,153.00 941.61,153.00 943.23,150.95 944.53,150.95 945.82,150.95 946.80,150.95 947.77,150.95 950.04,148.91 951.66,148.91 952.31,146.86 954.57,144.82 954.90,142.77 955.22,142.77 958.79,142.77 960.73,142.77 961.06,140.73 963.97,140.73 968.83,140.73 970.13,138.68 970.46,138.68 971.43,138.68 975.32,138.68 979.85,138.68 980.18,136.64 984.39,136.64 986.98,136.64 999.62,136.64 1002.54,136.64 1003.51,136.64 1005.13,136.64 1005.46,136.64 1011.29,136.64 1013.88,136.64 1019.07,136.64 1020.69,136.64 1022.96,136.64 1029.52,124.36 1032.43,124.36 1032.75,124.36 1033.41,124.36 1033.73,124.36 1034.70,124.36 1035.02,124.36 1036.00,124.36"/>
<circle cx="90.00" cy="468.00" r="3.8" fill="#ffb50c" stroke="#111827" stroke-width="1"/>
<circle cx="191.96" cy="459.82" r="3.8" fill="#ffb50c" stroke="#111827" stroke-width="1"/>
<circle cx="245.76" cy="441.41" r="3.8" fill="#ffb50c" stroke="#111827" stroke-width="1"/>
<circle cx="282.71" cy="429.14" r="3.8" fill="#ffb50c" stroke="#111827" stroke-width="1"/>
<circle cx="319.66" cy="410.73" r="3.8" fill="#ffb50c" stroke="#111827" stroke-width="1"/>
<circle cx="353.69" cy="394.36" r="3.8" fill="#ffb50c" stroke="#111827" stroke-width="1"/>
<circle cx="394.85" cy="384.14" r="3.8" fill="#ffb50c" stroke="#111827" stroke-width="1"/>
<circle cx="426.94" cy="375.95" r="3.8" fill="#ffb50c" stroke="#111827" stroke-width="1"/>
<circle cx="455.13" cy="357.55" r="3.8" fill="#ffb50c" stroke="#111827" stroke-width="1"/>
<circle cx="483.01" cy="339.14" r="3.8" fill="#ffb50c" stroke="#111827" stroke-width="1"/>
<circle cx="506.02" cy="326.86" r="3.8" fill="#ffb50c" stroke="#111827" stroke-width="1"/>
<circle cx="534.54" cy="314.59" r="3.8" fill="#ffb50c" stroke="#111827" stroke-width="1"/>
<circle cx="561.44" cy="306.41" r="3.8" fill="#ffb50c" stroke="#111827" stroke-width="1"/>
<circle cx="588.66" cy="296.18" r="3.8" fill="#ffb50c" stroke="#111827" stroke-width="1"/>
<circle cx="619.13" cy="285.95" r="3.8" fill="#ffb50c" stroke="#111827" stroke-width="1"/>
<circle cx="653.16" cy="265.50" r="3.8" fill="#ffb50c" stroke="#111827" stroke-width="1"/>
<circle cx="684.60" cy="240.95" r="3.8" fill="#ffb50c" stroke="#111827" stroke-width="1"/>
<circle cx="708.58" cy="226.64" r="3.8" fill="#ffb50c" stroke="#111827" stroke-width="1"/>
<circle cx="743.58" cy="208.23" r="3.8" fill="#ffb50c" stroke="#111827" stroke-width="1"/>
<circle cx="792.20" cy="195.95" r="3.8" fill="#ffb50c" stroke="#111827" stroke-width="1"/>
<circle cx="826.88" cy="177.55" r="3.8" fill="#ffb50c" stroke="#111827" stroke-width="1"/>
<circle cx="880.03" cy="167.32" r="3.8" fill="#ffb50c" stroke="#111827" stroke-width="1"/>
<circle cx="920.54" cy="157.09" r="3.8" fill="#ffb50c" stroke="#111827" stroke-width="1"/>
<circle cx="960.73" cy="142.77" r="3.8" fill="#ffb50c" stroke="#111827" stroke-width="1"/>
<circle cx="1036.00" cy="124.36" r="3.8" fill="#ffb50c" stroke="#111827" stroke-width="1"/>
<text x="1028.00" y="114.36" text-anchor="end" fill="#ffb50c" font-size="12" font-family="-apple-system,BlinkMacSystemFont,Segoe UI,Helvetica,Arial,sans-serif">168</text>
<rect x="90.00" y="514.00" width="14" height="14" fill="url(#repo-0)" rx="3"/>
<text x="112.00" y="526.00" fill="#3bf2af" font-size="13" font-family="-apple-system,BlinkMacSystemFont,Segoe UI,Helvetica,Arial,sans-serif">bavix/gripmock</text>
<rect x="280.00" y="514.00" width="14" height="14" fill="url(#repo-1)" rx="3"/>
<text x="302.00" y="526.00" fill="#ffb50c" font-size="13" font-family="-apple-system,BlinkMacSystemFont,Segoe UI,Helvetica,Arial,sans-serif">tokopedia/gripmock</text>
<text x="1036.00" y="526.00" text-anchor="end" fill="#9ca3af" font-size="12" font-family="-apple-system,BlinkMacSystemFont,Segoe UI,Helvetica,Arial,sans-serif">Source: https://github.com/bavix/artifact-stats/blob/master/stats/github.csv</text>
</svg>