<svg xmlns="http://www.w3.org/2000/svg" width="1100" height="560" viewBox="0 0 1100 560">
<defs>
<linearGradient id="bg" x1="0" y1="0" x2="1" y2="1"><stop offset="0%" stop-color="#0b1220"/><stop offset="100%" stop-color="#111827"/></linearGradient>
<linearGradient id="repo-0" x1="0" y1="0" x2="0" y2="1"><stop offset="0%" stop-color="#34d399"/><stop offset="100%" stop-color="#059669"/></linearGradient>
<linearGradient id="repo-1" x1="0" y1="0" x2="0" y2="1"><stop offset="0%" stop-color="#f59e0b"/><stop offset="100%" stop-color="#d97706"/></linearGradient>
</defs>
<rect x="0" y="0" width="1100" height="560" fill="url(#bg)" rx="16"/>
<text x="90" y="44" fill="#f9fafb" font-size="28" font-family="-apple-system,BlinkMacSystemFont,Segoe UI,Helvetica,Arial,sans-serif" font-weight="700">GripMock GitHub Metrics - Stars</text>
<text x="90" y="70" fill="#9ca3af" font-size="16" font-family="-apple-system,BlinkMacSystemFont,Segoe UI,Helvetica,Arial,sans-serif">GitHub stars by snapshot date</text>
<line x1="90" y1="90.00" x2="1036" y2="90.00" stroke="#1f2937" stroke-width="1"/>
<text x="80" y="95.00" text-anchor="end" fill="#9ca3af" font-size="12" font-family="-apple-system,BlinkMacSystemFont,Segoe UI,Helvetica,Arial,sans-serif">811</text>
<line x1="90" y1="153.00" x2="1036" y2="153.00" stroke="#1f2937" stroke-width="1"/>
<text x="80" y="158.00" text-anchor="end" fill="#9ca3af" font-size="12" font-family="-apple-system,BlinkMacSystemFont,Segoe UI,Helvetica,Arial,sans-serif">676</text>
<line x1="90" y1="216.00" x2="1036" y2="216.00" stroke="#1f2937" stroke-width="1"/>
<text x="80" y="221.00" text-anchor="end" fill="#9ca3af" font-size="12" font-family="-apple-system,BlinkMacSystemFont,Segoe UI,Helvetica,Arial,sans-serif">540</text>
<line x1="90" y1="279.00" x2="1036" y2="279.00" stroke="#1f2937" stroke-width="1"/>
<text x="80" y="284.00" text-anchor="end" fill="#9ca3af" font-size="12" font-family="-apple-system,BlinkMacSystemFont,Segoe UI,Helvetica,Arial,sans-serif">405</text>
<line x1="90" y1="342.00" x2="1036" y2="342.00" stroke="#1f2937" stroke-width="1"/>
<text x="80" y="347.00" text-anchor="end" fill="#9ca3af" font-size="12" font-family="-apple-system,BlinkMacSystemFont,Segoe UI,Helvetica,Arial,sans-serif">270</text>
<line x1="90" y1="405.00" x2="1036" y2="405.00" stroke="#1f2937" stroke-width="1"/>
<text x="80" y="410.00" text-anchor="end" fill="#9ca3af" font-size="12" font-family="-apple-system,BlinkMacSystemFont,Segoe UI,Helvetica,Arial,sans-serif">135</text>
<line x1="90" y1="468.00" x2="1036" y2="468.00" stroke="#1f2937" stroke-width="1"/>
<text x="80" y="473.00" text-anchor="end" fill="#9ca3af" font-size="12" font-family="-apple-system,BlinkMacSystemFont,Segoe UI,Helvetica,Arial,sans-serif">0</text>
<line x1="90" y1="468" x2="1036" y2="468" stroke="#4b5563" stroke-width="1.4"/>
<line x1="90" y1="90" x2="90" y2="468" stroke="#4b5563" stroke-width="1.4"/>
<line x1="90.00" y1="468" x2="90.00" y2="474" stroke="#6b7280" stroke-width="1"/>
<text x="90.00" y="494" text-anchor="start" fill="#9ca3af" font-size="12" font-family="-apple-system,BlinkMacSystemFont,Segoe UI,Helvetica,Arial,sans-serif">2018-04-24</text>
<line x1="279.20" y1="468" x2="279.20" y2="474" stroke="#6b7280" stroke-width="1"/>
<text x="279.20" y="494" text-anchor="middle" fill="#9ca3af" font-size="12" font-family="-apple-system,BlinkMacSystemFont,Segoe UI,Helvetica,Arial,sans-serif">2019-11-27</text>
<line x1="468.40" y1="468" x2="468.40" y2="474" stroke="#6b7280" stroke-width="1"/>
<text x="468.40" y="494" text-anchor="middle" fill="#9ca3af" font-size="12" font-family="-apple-system,BlinkMacSystemFont,Segoe UI,Helvetica,Arial,sans-serif">2021-07-02</text>
<line x1="657.60" y1="468" x2="657.60" y2="474" stroke="#6b7280" stroke-width="1"/>
<text x="657.60" y="494" text-anchor="middle" fill="#9ca3af" font-size="12" font-family="-apple-system,BlinkMacSystemFont,Segoe UI,Helvetica,Arial,sans-serif">2023-02-04</text>
<line x1="846.80" y1="468" x2="846.80" y2="474" stroke="#6b7280" stroke-width="1"/>
<text x="846.80" y="494" text-anchor="middle" fill="#9ca3af" font-size="12" font-family="-apple-system,BlinkMacSystemFont,Segoe UI,Helvetica,Arial,sans-serif">2024-09-08</text>
<line x1="1036.00" y1="468" x2="1036.00" y2="474" stroke="#6b7280" stroke-width="1"/>
<text x="1036.00" y="494" text-anchor="end" fill="#9ca3af" font-size="12" font-family="-apple-system,BlinkMacSystemFont,Segoe UI,Helvetica,Arial,sans-serif">2026-04-14</text>
<polyline fill="none" stroke="url(#repo-0)" stroke-width="4" stroke-linecap="round" stroke-linejoin="round" points="720.27,468.00 726.96,467.53 739.96,467.07 753.60,466.60 755.55,466.13 758.80,465.67 770.50,465.20 772.77,464.74 778.29,464.27 778.62,463.80 783.49,463.34 791.29,462.87 803.63,462.40 806.88,461.94 811.11,461.47 814.68,461.01 829.62,460.54 834.17,460.07 834.82,459.61 836.12,459.14 842.29,458.67 855.94,458.21 858.86,457.74 865.69,457.28 871.21,456.81 871.86,456.34 872.51,455.88 892.65,455.41 895.25,454.94 895.90,454.48 902.07,454.01 902.72,453.55 906.62,453.55 907.92,453.08 908.25,452.61 908.57,452.15 911.49,451.68 913.12,451.21 914.74,450.75 919.94,450.75 924.49,450.75 926.11,450.28 926.76,450.28 933.59,449.82 937.49,449.35 949.18,448.88 951.46,448.42 952.10,448.42 954.05,447.95 956.00,447.48 958.93,447.48 964.13,447.02 970.95,446.55 975.17,446.09 986.54,445.62 988.82,445.15 993.69,444.69 994.01,444.22 994.99,443.75 997.59,443.29 997.91,443.29 1006.68,442.82 1013.51,442.36 1014.16,441.89 1016.43,441.42 1022.93,440.96 1025.20,440.49 1026.83,440.02 1028.45,439.56 1031.78,439.56 1032.74,439.56 1033.07,439.09 1033.72,439.09 1034.05,438.63 1034.37,439.09 1036.00,439.09"/>
<circle cx="720.27" cy="468.00" r="3.8" fill="#3bf2af" stroke="#111827" stroke-width="1"/>
<circle cx="753.60" cy="466.60" r="3.8" fill="#3bf2af" stroke="#111827" stroke-width="1"/>
<circle cx="770.50" cy="465.20" r="3.8" fill="#3bf2af" stroke="#111827" stroke-width="1"/>
<circle cx="778.62" cy="463.80" r="3.8" fill="#3bf2af" stroke="#111827" stroke-width="1"/>
<circle cx="803.63" cy="462.40" r="3.8" fill="#3bf2af" stroke="#111827" stroke-width="1"/>
<circle cx="814.68" cy="461.01" r="3.8" fill="#3bf2af" stroke="#111827" stroke-width="1"/>
<circle cx="834.82" cy="459.61" r="3.8" fill="#3bf2af" stroke="#111827" stroke-width="1"/>
<circle cx="855.94" cy="458.21" r="3.8" fill="#3bf2af" stroke="#111827" stroke-width="1"/>
<circle cx="871.21" cy="456.81" r="3.8" fill="#3bf2af" stroke="#111827" stroke-width="1"/>
<circle cx="892.65" cy="455.41" r="3.8" fill="#3bf2af" stroke="#111827" stroke-width="1"/>
<circle cx="902.07" cy="454.01" r="3.8" fill="#3bf2af" stroke="#111827" stroke-width="1"/>
<circle cx="907.92" cy="453.08" r="3.8" fill="#3bf2af" stroke="#111827" stroke-width="1"/>
<circle cx="911.49" cy="451.68" r="3.8" fill="#3bf2af" stroke="#111827" stroke-width="1"/>
<circle cx="919.94" cy="450.75" r="3.8" fill="#3bf2af" stroke="#111827" stroke-width="1"/>
<circle cx="926.76" cy="450.28" r="3.8" fill="#3bf2af" stroke="#111827" stroke-width="1"/>
<circle cx="949.18" cy="448.88" r="3.8" fill="#3bf2af" stroke="#111827" stroke-width="1"/>
<circle cx="954.05" cy="447.95" r="3.8" fill="#3bf2af" stroke="#111827" stroke-width="1"/>
<circle cx="964.13" cy="447.02" r="3.8" fill="#3bf2af" stroke="#111827" stroke-width="1"/>
<circle cx="986.54" cy="445.62" r="3.8" fill="#3bf2af" stroke="#111827" stroke-width="1"/>
<circle cx="994.01" cy="444.22" r="3.8" fill="#3bf2af" stroke="#111827" stroke-width="1"/>
<circle cx="997.91" cy="443.29" r="3.8" fill="#3bf2af" stroke="#111827" stroke-width="1"/>
<circle cx="1014.16" cy="441.89" r="3.8" fill="#3bf2af" stroke="#111827" stroke-width="1"/>
<circle cx="1025.20" cy="440.49" r="3.8" fill="#3bf2af" stroke="#111827" stroke-width="1"/>
<circle cx="1031.78" cy="439.56" r="3.8" fill="#3bf2af" stroke="#111827" stroke-width="1"/>
<circle cx="1033.72" cy="439.09" r="3.8" fill="#3bf2af" stroke="#111827" stroke-width="1"/>
<circle cx="1036.00" cy="439.09" r="3.8" fill="#3bf2af" stroke="#111827" stroke-width="1"/>
<text x="1028.00" y="429.09" text-anchor="end" fill="#3bf2af" font-size="12" font-family="-apple-system,BlinkMacSystemFont,Segoe UI,Helvetica,Arial,sans-serif">62</text>
<polyline fill="none" stroke="url(#repo-1)" stroke-width="4" stroke-linecap="round" stroke-linejoin="round" points="90.00,468.00 91.82,466.60 92.47,466.13 96.04,465.67 99.62,465.20 136.65,464.74 137.63,464.27 143.47,464.27 149.32,463.80 153.87,463.80 157.44,463.34 158.09,462.87 158.42,462.40 158.74,461.94 160.37,461.47 161.02,461.01 165.24,460.54 165.57,460.07 169.46,459.61 170.44,459.14 170.76,458.67 172.39,458.21 174.01,457.28 175.96,456.81 176.94,456.34 182.14,455.88 184.73,455.41 186.36,454.94 186.68,454.48 191.88,454.01 192.21,453.55 192.86,453.08 196.11,452.61 196.75,451.68 197.08,451.68 197.40,451.68 203.25,451.21 204.88,451.21 211.05,450.75 212.35,450.28 213.00,450.28 215.60,449.82 218.52,449.35 222.42,449.35 222.75,448.88 225.02,448.42 227.29,447.95 230.54,447.48 231.52,447.02 233.79,446.55 236.07,446.09 238.01,445.62 238.34,445.15 238.66,444.69 241.26,444.22 241.91,443.75 242.56,442.82 242.89,442.36 243.21,441.42 243.54,440.96 246.14,440.49 246.79,439.56 249.39,439.56 254.91,439.09 255.56,439.09 255.88,438.63 256.21,438.16 256.86,438.16 258.16,437.69 258.48,437.23 260.43,436.76 260.76,436.29 263.03,435.83 264.01,434.90 264.66,433.96 265.63,433.96 267.25,433.50 267.58,433.03 268.55,432.56 271.48,432.10 275.05,431.63 276.03,431.17 277.00,430.70 277.33,430.23 278.63,429.77 278.95,429.30 279.60,428.83 280.57,427.44 282.20,426.97 282.85,426.50 283.17,426.04 283.50,424.64 285.12,424.17 286.10,423.70 286.75,423.24 288.05,423.24 288.37,422.77 290.00,422.31 293.57,421.84 295.52,421.37 297.14,421.37 297.47,420.44 299.74,419.97 301.37,419.51 301.69,419.51 303.64,419.04 303.97,418.58 304.62,418.58 305.59,418.58 305.92,418.11 306.24,417.64 306.56,417.18 311.11,415.78 315.01,415.31 315.34,414.85 315.99,414.38 317.29,413.91 317.61,413.45 319.24,413.45 319.88,412.98 320.21,412.51 320.53,412.05 320.86,411.58 322.48,411.12 325.73,410.65 327.03,410.18 327.36,410.18 328.01,409.72 328.33,409.72 328.98,408.32 329.63,407.85 330.28,407.85 331.58,407.39 332.23,406.92 334.18,406.45 334.50,405.99 335.80,405.52 337.75,405.05 339.05,404.59 340.35,404.59 340.68,404.12 341.33,403.66 342.30,403.19 343.28,402.72 344.90,402.26 346.53,401.79 348.15,401.32 351.07,400.86 353.67,400.39 354.00,399.93 354.32,399.46 359.20,398.99 360.17,398.53 361.14,398.06 361.47,397.13 362.44,396.66 364.72,395.73 365.04,394.80 366.67,394.33 368.62,394.33 371.87,393.86 372.84,393.40 373.82,392.93 375.11,392.00 375.76,391.53 376.09,391.07 376.74,390.60 378.36,389.67 379.66,389.20 383.89,388.27 385.51,386.87 386.49,385.94 389.41,385.94 390.06,385.94 390.38,385.47 390.71,384.54 392.33,383.61 393.31,383.14 394.61,382.67 394.93,382.21 395.58,381.74 397.86,381.27 398.18,380.81 398.83,380.34 401.11,379.88 401.76,379.41 403.05,378.94 404.03,378.48 404.35,378.01 404.68,377.54 408.58,377.08 409.23,376.61 410.53,375.68 410.85,375.21 412.15,374.75 413.45,371.48 413.78,370.55 414.10,370.08 415.73,369.62 416.37,369.15 418.00,369.15 419.30,368.69 420.27,368.22 422.22,367.29 423.52,366.82 425.15,366.35 425.47,365.89 426.12,365.42 426.77,364.49 427.42,364.02 427.75,364.02 428.72,364.02 429.05,363.56 429.37,363.09 429.70,362.62 431.32,362.16 431.97,361.23 433.27,360.76 433.92,359.83 434.89,359.36 435.54,358.89 436.52,358.43 437.82,357.96 439.12,357.96 440.42,357.50 440.74,357.03 442.37,356.56 442.69,356.10 443.34,355.63 443.66,355.16 444.31,354.70 444.64,353.30 446.26,352.83 447.56,352.37 449.19,351.90 453.74,350.97 454.06,350.50 454.39,350.50 454.71,350.04 455.69,349.57 456.01,349.10 456.34,348.64 456.66,347.70 457.96,347.24 458.61,346.31 458.93,344.91 459.91,344.91 460.23,344.91 460.88,343.97 462.83,343.51 463.16,342.58 463.48,342.11 464.78,341.64 467.06,341.18 467.38,340.71 468.03,340.24 470.31,339.78 471.93,339.31 473.55,339.31 476.48,339.31 477.78,338.84 478.10,338.38 478.43,338.38 479.08,337.91 479.40,336.98 479.73,336.51 480.70,336.05 481.03,335.58 482.00,335.11 483.63,334.18 483.95,334.18 484.28,333.25 484.60,332.78 484.92,331.38 485.25,330.45 485.57,329.99 486.22,329.52 486.55,327.65 486.87,327.19 487.85,326.72 488.50,325.79 489.15,325.32 490.45,324.86 491.75,324.39 492.07,323.92 492.40,323.46 492.72,322.99 494.35,322.53 495.65,322.06 495.97,321.59 497.27,320.66 497.60,319.73 497.92,319.73 501.17,319.26 501.49,318.80 502.14,318.33 503.77,317.40 504.42,316.93 505.07,316.46 506.37,316.46 507.02,315.53 507.34,315.53 507.67,313.67 507.99,311.34 509.29,310.87 509.62,310.40 510.27,309.94 510.59,309.47 511.57,309.00 511.89,308.54 513.19,308.07 516.11,307.61 517.09,307.14 518.06,306.67 518.39,305.27 518.71,304.81 519.04,304.34 519.36,303.88 520.01,303.41 522.29,303.41 523.59,302.94 523.91,302.48 524.24,302.01 525.21,301.54 526.51,301.54 527.81,301.08 529.43,300.61 529.76,300.15 533.33,299.68 534.96,299.21 535.61,298.28 536.26,297.81 538.86,297.35 539.51,296.88 539.83,296.41 540.80,295.95 541.45,295.48 542.10,295.48 542.75,295.02 543.40,294.55 544.70,294.08 545.03,293.62 545.35,293.15 546.98,293.15 547.63,292.68 547.95,292.22 548.93,291.29 549.58,290.35 550.23,289.89 551.85,288.95 552.18,288.95 552.50,288.49 553.47,288.02 554.12,287.56 554.77,287.09 556.40,286.62 559.32,286.16 559.65,285.69 560.95,285.22 561.27,284.76 562.57,284.29 562.90,283.83 563.22,281.96 563.87,281.49 564.85,281.03 565.17,280.56 565.50,280.10 566.15,279.63 567.44,279.16 568.42,279.16 568.74,278.70 572.97,278.23 573.29,277.76 574.27,276.83 574.92,276.37 577.19,275.90 578.17,275.43 578.49,274.97 578.82,274.50 581.41,273.57 581.74,273.10 582.06,271.24 583.04,270.77 583.36,270.30 584.01,269.84 586.29,269.37 586.94,268.91 587.59,268.91 588.56,268.44 588.89,267.97 589.86,267.51 595.38,267.04 596.68,266.11 597.01,265.64 598.63,265.18 599.28,265.18 599.61,264.24 599.93,264.24 600.26,263.78 601.23,263.31 602.21,262.84 602.53,262.38 604.48,261.91 604.81,261.45 605.46,260.51 606.43,260.05 607.08,259.58 607.41,259.11 608.70,258.65 609.35,258.65 610.00,258.18 610.98,257.72 611.30,257.25 615.53,256.78 616.50,256.78 617.48,256.32 617.80,255.85 619.43,255.38 619.75,254.45 620.08,253.98 620.40,253.05 621.70,252.59 622.67,252.12 624.95,251.19 625.92,250.72 626.25,250.25 626.90,250.25 627.55,248.86 629.50,248.39 629.82,247.92 633.07,247.46 633.40,246.99 634.37,245.59 634.70,245.13 635.67,244.66 635.99,244.66 636.32,244.19 637.94,243.73 638.27,242.79 639.24,241.86 640.87,241.40 642.17,240.93 643.14,240.93 646.72,240.93 647.04,240.93 648.99,240.93 649.64,240.00 650.29,240.00 651.59,240.00 651.91,240.00 654.51,239.53 657.44,239.06 658.09,238.60 658.41,237.67 658.74,237.20 661.66,236.73 662.96,236.73 663.28,236.27 663.61,235.80 664.26,235.80 665.56,235.33 665.88,234.87 666.53,234.40 667.83,233.94 669.46,233.47 669.78,233.47 670.43,233.00 670.76,232.54 671.08,232.54 671.41,232.07 671.73,231.60 672.38,231.14 676.28,230.67 678.55,230.67 680.83,230.67 681.80,230.67 682.13,230.21 682.45,229.74 683.43,229.74 683.75,229.27 686.03,228.81 686.35,228.34 687.65,228.34 687.98,227.87 688.30,227.41 689.60,226.94 690.58,226.94 691.87,226.01 692.85,226.01 693.17,226.01 695.12,225.54 695.77,224.61 696.75,224.14 697.07,223.68 697.72,223.21 699.67,222.28 700.32,222.28 700.97,221.81 701.30,221.35 701.95,220.88 702.27,220.41 703.25,219.95 703.57,219.02 704.22,218.55 705.52,218.08 705.84,217.62 706.49,216.68 707.14,216.22 708.44,215.75 708.77,215.29 710.07,214.82 711.37,214.35 712.99,214.35 713.97,213.89 714.29,213.42 715.92,213.42 716.24,212.95 717.54,212.49 718.51,211.09 719.16,211.09 720.14,210.62 721.44,210.16 721.76,209.69 722.41,209.22 725.01,208.76 726.96,208.29 729.24,207.82 732.81,207.36 733.13,207.36 733.46,206.89 735.41,205.49 736.06,205.03 736.38,204.56 736.71,204.09 737.68,203.63 738.01,203.16 738.66,202.70 741.26,201.76 742.88,201.30 743.53,201.30 745.16,201.30 746.45,200.83 749.38,200.36 750.68,200.36 752.63,199.90 758.48,199.90 760.75,199.90 761.40,199.43 764.32,198.97 764.97,198.50 765.62,198.03 767.57,197.57 768.22,197.10 768.87,196.17 769.20,196.17 769.52,195.70 772.12,195.24 775.04,194.77 776.67,194.30 778.62,193.84 781.54,193.84 784.14,192.44 785.44,191.97 786.09,191.51 787.39,191.04 789.01,190.57 789.66,190.11 790.31,189.64 792.26,189.17 793.56,188.71 793.89,187.78 796.81,187.78 797.14,187.31 797.46,187.31 798.11,186.84 799.09,186.84 800.39,186.38 802.33,185.91 802.66,185.44 803.63,185.44 805.91,185.44 808.18,184.98 810.13,184.51 812.73,184.05 813.38,183.58 813.71,183.11 814.68,183.11 815.00,182.65 815.33,182.18 815.98,181.25 817.28,180.78 819.55,180.32 819.88,179.85 820.85,178.92 822.80,178.45 824.43,177.98 824.75,177.52 826.05,177.05 827.03,176.59 827.35,176.59 828.65,176.12 829.30,176.12 830.92,175.65 831.25,175.19 831.57,173.79 833.52,173.32 834.50,172.86 834.82,172.39 836.77,172.39 838.07,171.92 838.40,170.52 838.72,170.52 841.00,169.12 842.62,168.66 846.52,168.19 846.84,167.73 848.79,167.26 851.72,166.79 854.97,166.33 856.91,165.39 857.24,164.93 857.56,164.46 858.21,164.00 860.81,163.53 863.09,163.06 866.34,162.60 866.66,162.60 869.58,162.13 870.56,161.66 871.86,161.20 881.93,160.73 883.23,159.80 883.55,159.33 886.80,158.87 888.43,157.93 890.70,157.47 891.35,157.47 891.68,157.00 893.63,156.54 894.93,156.07 895.58,155.60 895.90,155.14 896.23,154.67 897.20,154.20 898.82,153.74 899.15,153.74 900.77,153.27 903.05,152.81 905.32,152.34 905.97,151.87 909.55,151.41 909.87,150.94 911.49,150.47 913.12,150.01 916.04,149.54 917.34,149.08 919.62,149.08 919.94,148.61 920.59,148.61 922.22,148.14 922.54,147.68 923.19,147.21 924.16,146.28 924.49,144.88 924.81,143.95 925.14,143.48 926.44,143.01 926.76,143.01 928.71,142.55 929.04,142.08 930.66,141.62 930.99,141.15 931.64,140.68 932.29,140.68 933.26,140.22 936.51,139.75 942.36,139.28 943.66,138.82 945.28,138.35 946.58,137.89 947.88,137.42 948.86,136.95 949.83,136.02 952.10,136.02 953.73,135.55 954.38,135.55 956.65,135.55 956.98,135.55 957.30,135.09 960.88,134.62 962.83,134.16 963.15,134.16 966.07,133.69 970.95,133.22 972.25,133.22 972.57,132.76 973.55,132.29 977.45,131.82 981.99,131.36 982.32,131.36 986.54,130.89 989.14,130.43 1001.81,129.96 1004.74,129.03 1005.71,128.56 1007.33,128.09 1007.66,127.16 1013.51,126.69 1016.11,126.23 1021.30,125.76 1022.93,125.30 1025.20,124.83 1031.78,124.83 1034.70,124.83 1035.02,124.36 1035.68,124.36 1036.00,124.83"/>
<circle cx="90.00" cy="468.00" r="3.8" fill="#ffb50c" stroke="#111827" stroke-width="1"/>
<circle cx="191.88" cy="454.01" r="3.8" fill="#ffb50c" stroke="#111827" stroke-width="1"/>
<circle cx="243.21" cy="441.42" r="3.8" fill="#ffb50c" stroke="#111827" stroke-width="1"/>
<circle cx="280.57" cy="427.44" r="3.8" fill="#ffb50c" stroke="#111827" stroke-width="1"/>
<circle cx="317.29" cy="413.91" r="3.8" fill="#ffb50c" stroke="#111827" stroke-width="1"/>
<circle cx="346.53" cy="401.79" r="3.8" fill="#ffb50c" stroke="#111827" stroke-width="1"/>
<circle cx="390.38" cy="385.47" r="3.8" fill="#ffb50c" stroke="#111827" stroke-width="1"/>
<circle cx="422.22" cy="367.29" r="3.8" fill="#ffb50c" stroke="#111827" stroke-width="1"/>
<circle cx="446.26" cy="352.83" r="3.8" fill="#ffb50c" stroke="#111827" stroke-width="1"/>
<circle cx="478.10" cy="338.38" r="3.8" fill="#ffb50c" stroke="#111827" stroke-width="1"/>
<circle cx="497.27" cy="320.66" r="3.8" fill="#ffb50c" stroke="#111827" stroke-width="1"/>
<circle cx="522.29" cy="303.41" r="3.8" fill="#ffb50c" stroke="#111827" stroke-width="1"/>
<circle cx="550.23" cy="289.89" r="3.8" fill="#ffb50c" stroke="#111827" stroke-width="1"/>
<circle cx="578.49" cy="274.97" r="3.8" fill="#ffb50c" stroke="#111827" stroke-width="1"/>
<circle cx="607.08" cy="259.58" r="3.8" fill="#ffb50c" stroke="#111827" stroke-width="1"/>
<circle cx="635.99" cy="244.66" r="3.8" fill="#ffb50c" stroke="#111827" stroke-width="1"/>
<circle cx="669.46" cy="233.47" r="3.8" fill="#ffb50c" stroke="#111827" stroke-width="1"/>
<circle cx="697.07" cy="223.68" r="3.8" fill="#ffb50c" stroke="#111827" stroke-width="1"/>
<circle cx="721.76" cy="209.69" r="3.8" fill="#ffb50c" stroke="#111827" stroke-width="1"/>
<circle cx="767.57" cy="197.57" r="3.8" fill="#ffb50c" stroke="#111827" stroke-width="1"/>
<circle cx="805.91" cy="185.44" r="3.8" fill="#ffb50c" stroke="#111827" stroke-width="1"/>
<circle cx="838.07" cy="171.92" r="3.8" fill="#ffb50c" stroke="#111827" stroke-width="1"/>
<circle cx="893.63" cy="156.54" r="3.8" fill="#ffb50c" stroke="#111827" stroke-width="1"/>
<circle cx="926.76" cy="143.01" r="3.8" fill="#ffb50c" stroke="#111827" stroke-width="1"/>
<circle cx="973.55" cy="132.29" r="3.8" fill="#ffb50c" stroke="#111827" stroke-width="1"/>
<circle cx="1036.00" cy="124.83" r="3.8" fill="#ffb50c" stroke="#111827" stroke-width="1"/>
<text x="1028.00" y="114.83" text-anchor="end" fill="#ffb50c" font-size="12" font-family="-apple-system,BlinkMacSystemFont,Segoe UI,Helvetica,Arial,sans-serif">736</text>
<rect x="90.00" y="514.00" width="14" height="14" fill="url(#repo-0)" rx="3"/>
<text x="112.00" y="526.00" fill="#3bf2af" font-size="13" font-family="-apple-system,BlinkMacSystemFont,Segoe UI,Helvetica,Arial,sans-serif">bavix/gripmock</text>
<rect x="280.00" y="514.00" width="14" height="14" fill="url(#repo-1)" rx="3"/>
<text x="302.00" y="526.00" fill="#ffb50c" font-size="13" font-family="-apple-system,BlinkMacSystemFont,Segoe UI,Helvetica,Arial,sans-serif">tokopedia/gripmock</text>
<text x="1036.00" y="526.00" text-anchor="end" fill="#9ca3af" font-size="12" font-family="-apple-system,BlinkMacSystemFont,Segoe UI,Helvetica,Arial,sans-serif">Source: https://github.com/bavix/artifact-stats/blob/master/stats/github.csv</text>
</svg>