<svg xmlns="http://www.w3.org/2000/svg" width="1100" height="560" viewBox="0 0 1100 560">
<defs>
<linearGradient id="bg" x1="0" y1="0" x2="1" y2="1"><stop offset="0%" stop-color="#0b1220"/><stop offset="100%" stop-color="#111827"/></linearGradient>
<linearGradient id="repo-0" x1="0" y1="0" x2="0" y2="1"><stop offset="0%" stop-color="#34d399"/><stop offset="100%" stop-color="#059669"/></linearGradient>
<linearGradient id="repo-1" x1="0" y1="0" x2="0" y2="1"><stop offset="0%" stop-color="#f59e0b"/><stop offset="100%" stop-color="#d97706"/></linearGradient>
</defs>
<rect x="0" y="0" width="1100" height="560" fill="url(#bg)" rx="16"/>
<text x="90" y="44" fill="#f9fafb" font-size="28" font-family="-apple-system,BlinkMacSystemFont,Segoe UI,Helvetica,Arial,sans-serif" font-weight="700">GripMock GitHub Metrics - Forks</text>
<text x="90" y="70" fill="#9ca3af" font-size="16" font-family="-apple-system,BlinkMacSystemFont,Segoe UI,Helvetica,Arial,sans-serif">GitHub forks by snapshot date</text>
<line x1="90" y1="90.0" x2="1036" y2="90.0" stroke="#1f2937" stroke-width="1"/>
<text x="80" y="95.0" text-anchor="end" fill="#9ca3af" font-size="12" font-family="-apple-system,BlinkMacSystemFont,Segoe UI,Helvetica,Arial,sans-serif">185</text>
<line x1="90" y1="153.0" x2="1036" y2="153.0" stroke="#1f2937" stroke-width="1"/>
<text x="80" y="158.0" text-anchor="end" fill="#9ca3af" font-size="12" font-family="-apple-system,BlinkMacSystemFont,Segoe UI,Helvetica,Arial,sans-serif">154</text>
<line x1="90" y1="216.0" x2="1036" y2="216.0" stroke="#1f2937" stroke-width="1"/>
<text x="80" y="221.0" text-anchor="end" fill="#9ca3af" font-size="12" font-family="-apple-system,BlinkMacSystemFont,Segoe UI,Helvetica,Arial,sans-serif">123</text>
<line x1="90" y1="279.0" x2="1036" y2="279.0" stroke="#1f2937" stroke-width="1"/>
<text x="80" y="284.0" text-anchor="end" fill="#9ca3af" font-size="12" font-family="-apple-system,BlinkMacSystemFont,Segoe UI,Helvetica,Arial,sans-serif">92</text>
<line x1="90" y1="342.0" x2="1036" y2="342.0" stroke="#1f2937" stroke-width="1"/>
<text x="80" y="347.0" text-anchor="end" fill="#9ca3af" font-size="12" font-family="-apple-system,BlinkMacSystemFont,Segoe UI,Helvetica,Arial,sans-serif">62</text>
<line x1="90" y1="405.0" x2="1036" y2="405.0" stroke="#1f2937" stroke-width="1"/>
<text x="80" y="410.0" text-anchor="end" fill="#9ca3af" font-size="12" font-family="-apple-system,BlinkMacSystemFont,Segoe UI,Helvetica,Arial,sans-serif">31</text>
<line x1="90" y1="468.0" x2="1036" y2="468.0" stroke="#1f2937" stroke-width="1"/>
<text x="80" y="473.0" text-anchor="end" fill="#9ca3af" font-size="12" font-family="-apple-system,BlinkMacSystemFont,Segoe UI,Helvetica,Arial,sans-serif">0</text>
<line x1="90" y1="468" x2="1036" y2="468" stroke="#4b5563" stroke-width="1.4"/>
<line x1="90" y1="90" x2="90" y2="468" stroke="#4b5563" stroke-width="1.4"/>
<line x1="90.0" y1="468" x2="90.0" y2="474" stroke="#6b7280" stroke-width="1"/>
<text x="90.0" y="494" text-anchor="start" fill="#9ca3af" font-size="12" font-family="-apple-system,BlinkMacSystemFont,Segoe UI,Helvetica,Arial,sans-serif">2018-04-24</text>
<line x1="279.2" y1="468" x2="279.2" y2="474" stroke="#6b7280" stroke-width="1"/>
<text x="279.2" y="494" text-anchor="middle" fill="#9ca3af" font-size="12" font-family="-apple-system,BlinkMacSystemFont,Segoe UI,Helvetica,Arial,sans-serif">2019-11-26</text>
<line x1="468.4" y1="468" x2="468.4" y2="474" stroke="#6b7280" stroke-width="1"/>
<text x="468.4" y="494" text-anchor="middle" fill="#9ca3af" font-size="12" font-family="-apple-system,BlinkMacSystemFont,Segoe UI,Helvetica,Arial,sans-serif">2021-06-28</text>
<line x1="657.6" y1="468" x2="657.6" y2="474" stroke="#6b7280" stroke-width="1"/>
<text x="657.6" y="494" text-anchor="middle" fill="#9ca3af" font-size="12" font-family="-apple-system,BlinkMacSystemFont,Segoe UI,Helvetica,Arial,sans-serif">2023-01-30</text>
<line x1="846.8" y1="468" x2="846.8" y2="474" stroke="#6b7280" stroke-width="1"/>
<text x="846.8" y="494" text-anchor="middle" fill="#9ca3af" font-size="12" font-family="-apple-system,BlinkMacSystemFont,Segoe UI,Helvetica,Arial,sans-serif">2024-09-02</text>
<line x1="1036.0" y1="468" x2="1036.0" y2="474" stroke="#6b7280" stroke-width="1"/>
<text x="1036.0" y="494" text-anchor="end" fill="#9ca3af" font-size="12" font-family="-apple-system,BlinkMacSystemFont,Segoe UI,Helvetica,Arial,sans-serif">2026-04-06</text>
<polyline fill="none" stroke="url(#repo-0)" stroke-width="4" stroke-linecap="round" stroke-linejoin="round" points="722.01,468.00 728.72,468.00 741.75,468.00 755.43,468.00 757.38,468.00 760.64,468.00 772.37,468.00 774.65,468.00 780.19,468.00 780.51,468.00 785.40,468.00 793.22,468.00 805.60,468.00 808.86,468.00 813.09,468.00 816.68,468.00 831.66,468.00 836.22,468.00 836.87,468.00 838.18,468.00 844.37,468.00 858.05,468.00 860.98,468.00 867.82,468.00 873.36,468.00 874.01,468.00 874.66,468.00 894.86,468.00 897.47,468.00 898.12,468.00 904.31,468.00 904.96,468.00 908.87,465.95 910.17,465.95 910.50,465.95 910.83,465.95 913.76,463.91 915.39,463.91 917.02,463.91 922.23,461.86 926.79,459.82 928.42,459.82 929.07,457.77 935.91,457.77 939.82,457.77 951.55,457.77 953.83,457.77 954.48,455.73 956.43,455.73 958.39,455.73 961.32,453.68 966.53,453.68 973.37,453.68 977.61,453.68 989.01,453.68 991.29,453.68 996.18,453.68 996.50,453.68 997.48,453.68 1000.09,453.68 1000.41,451.64 1009.21,451.64 1016.05,451.64 1016.70,451.64 1018.98,451.64 1025.50,451.64 1027.78,451.64 1029.41,451.64 1031.04,451.64 1034.37,451.64 1035.34,451.64 1035.67,451.64 1036.00,451.64"/>
<circle cx="722.01" cy="468.00" r="3.8" fill="#3bf2af" stroke="#111827" stroke-width="1"/>
<circle cx="755.43" cy="468.00" r="3.8" fill="#3bf2af" stroke="#111827" stroke-width="1"/>
<circle cx="772.37" cy="468.00" r="3.8" fill="#3bf2af" stroke="#111827" stroke-width="1"/>
<circle cx="780.51" cy="468.00" r="3.8" fill="#3bf2af" stroke="#111827" stroke-width="1"/>
<circle cx="805.60" cy="468.00" r="3.8" fill="#3bf2af" stroke="#111827" stroke-width="1"/>
<circle cx="816.68" cy="468.00" r="3.8" fill="#3bf2af" stroke="#111827" stroke-width="1"/>
<circle cx="836.87" cy="468.00" r="3.8" fill="#3bf2af" stroke="#111827" stroke-width="1"/>
<circle cx="858.05" cy="468.00" r="3.8" fill="#3bf2af" stroke="#111827" stroke-width="1"/>
<circle cx="873.36" cy="468.00" r="3.8" fill="#3bf2af" stroke="#111827" stroke-width="1"/>
<circle cx="894.86" cy="468.00" r="3.8" fill="#3bf2af" stroke="#111827" stroke-width="1"/>
<circle cx="904.31" cy="468.00" r="3.8" fill="#3bf2af" stroke="#111827" stroke-width="1"/>
<circle cx="910.17" cy="465.95" r="3.8" fill="#3bf2af" stroke="#111827" stroke-width="1"/>
<circle cx="913.76" cy="463.91" r="3.8" fill="#3bf2af" stroke="#111827" stroke-width="1"/>
<circle cx="922.23" cy="461.86" r="3.8" fill="#3bf2af" stroke="#111827" stroke-width="1"/>
<circle cx="929.07" cy="457.77" r="3.8" fill="#3bf2af" stroke="#111827" stroke-width="1"/>
<circle cx="951.55" cy="457.77" r="3.8" fill="#3bf2af" stroke="#111827" stroke-width="1"/>
<circle cx="956.43" cy="455.73" r="3.8" fill="#3bf2af" stroke="#111827" stroke-width="1"/>
<circle cx="966.53" cy="453.68" r="3.8" fill="#3bf2af" stroke="#111827" stroke-width="1"/>
<circle cx="989.01" cy="453.68" r="3.8" fill="#3bf2af" stroke="#111827" stroke-width="1"/>
<circle cx="996.50" cy="453.68" r="3.8" fill="#3bf2af" stroke="#111827" stroke-width="1"/>
<circle cx="1000.41" cy="451.64" r="3.8" fill="#3bf2af" stroke="#111827" stroke-width="1"/>
<circle cx="1016.70" cy="451.64" r="3.8" fill="#3bf2af" stroke="#111827" stroke-width="1"/>
<circle cx="1027.78" cy="451.64" r="3.8" fill="#3bf2af" stroke="#111827" stroke-width="1"/>
<circle cx="1034.37" cy="451.64" r="3.8" fill="#3bf2af" stroke="#111827" stroke-width="1"/>
<circle cx="1036.00" cy="451.64" r="3.8" fill="#3bf2af" stroke="#111827" stroke-width="1"/>
<text x="1028.0" y="441.6" text-anchor="end" fill="#3bf2af" font-size="12" font-family="-apple-system,BlinkMacSystemFont,Segoe UI,Helvetica,Arial,sans-serif">8</text>
<polyline fill="none" stroke="url(#repo-1)" stroke-width="4" stroke-linecap="round" stroke-linejoin="round" points="90.00,468.00 91.82,468.00 92.47,468.00 96.06,468.00 99.64,468.00 136.78,468.00 137.76,465.95 143.62,463.91 149.49,463.91 154.05,461.86 157.63,461.86 158.28,461.86 158.61,461.86 158.93,461.86 160.56,461.86 161.21,461.86 165.45,459.82 165.77,459.82 169.68,459.82 170.66,459.82 170.99,459.82 172.62,459.82 174.24,459.82 176.20,459.82 177.18,459.82 182.39,459.82 185.00,459.82 186.62,459.82 186.95,459.82 192.16,459.82 192.49,459.82 193.14,457.77 196.40,457.77 197.05,457.77 197.37,455.73 197.70,453.68 203.56,453.68 205.19,451.64 211.38,451.64 212.69,451.64 213.34,449.59 215.94,447.55 218.88,447.55 222.79,445.50 223.11,445.50 225.39,445.50 227.67,445.50 230.93,445.50 231.91,445.50 234.19,445.50 236.47,445.50 238.42,445.50 238.75,445.50 239.07,445.50 241.68,445.50 242.33,445.50 242.98,445.50 243.31,443.45 243.63,441.41 243.96,441.41 246.57,441.41 247.22,441.41 249.82,439.36 255.36,439.36 256.01,437.32 256.34,437.32 256.67,437.32 257.32,433.23 258.62,433.23 258.95,433.23 260.90,433.23 261.23,433.23 263.51,433.23 264.48,433.23 265.14,433.23 266.11,431.18 267.74,431.18 268.07,429.14 269.05,429.14 271.98,429.14 275.56,429.14 276.54,429.14 277.52,429.14 277.84,429.14 279.14,429.14 279.47,429.14 280.12,429.14 281.10,429.14 282.73,429.14 283.38,429.14 283.71,429.14 284.03,429.14 285.66,429.14 286.64,429.14 287.29,429.14 288.59,427.09 288.92,425.05 290.55,425.05 294.13,425.05 296.08,425.05 297.71,423.00 298.04,423.00 300.32,423.00 301.95,423.00 302.27,420.95 304.23,420.95 304.56,420.95 305.21,418.91 306.18,416.86 306.51,416.86 306.84,416.86 307.16,416.86 311.72,414.82 315.63,414.82 315.96,414.82 316.61,414.82 317.91,414.82 318.24,414.82 319.87,412.77 320.52,410.73 320.84,410.73 321.17,410.73 321.50,410.73 323.12,410.73 326.38,408.68 327.69,408.68 328.01,406.64 328.66,406.64 328.99,404.59 329.64,402.55 330.29,402.55 330.94,400.50 332.25,398.45 332.90,398.45 334.85,398.45 335.18,398.45 336.48,398.45 338.44,398.45 339.74,398.45 341.04,396.41 341.37,396.41 342.02,396.41 343.00,396.41 343.97,396.41 345.60,396.41 347.23,396.41 348.86,396.41 351.79,394.36 354.40,394.36 354.72,394.36 355.05,394.36 359.94,394.36 360.91,394.36 361.89,394.36 362.22,394.36 363.19,394.36 365.48,394.36 365.80,394.36 367.43,394.36 369.38,392.32 372.64,392.32 373.62,392.32 374.60,392.32 375.90,392.32 376.55,392.32 376.88,392.32 377.53,390.27 379.16,390.27 380.46,390.27 384.70,388.23 386.33,388.23 387.30,388.23 390.23,386.18 390.89,384.14 391.21,384.14 391.54,384.14 393.17,384.14 394.14,384.14 395.45,384.14 395.77,384.14 396.42,384.14 398.70,384.14 399.03,384.14 399.68,384.14 401.96,384.14 402.61,384.14 403.92,384.14 404.89,382.09 405.22,382.09 405.55,382.09 409.46,382.09 410.11,382.09 411.41,382.09 411.74,382.09 413.04,382.09 414.34,382.09 414.67,382.09 414.99,382.09 416.62,382.09 417.27,382.09 418.90,380.05 420.21,378.00 421.18,378.00 423.14,378.00 424.44,378.00 426.07,378.00 426.40,378.00 427.05,378.00 427.70,378.00 428.35,378.00 428.68,375.95 429.65,373.91 429.98,373.91 430.30,373.91 430.63,371.86 432.26,371.86 432.91,369.82 434.21,369.82 434.87,369.82 435.84,369.82 436.49,369.82 437.47,369.82 438.78,369.82 440.08,367.77 441.38,365.73 441.71,365.73 443.34,365.73 443.66,365.73 444.31,365.73 444.64,365.73 445.29,365.73 445.62,365.73 447.25,365.73 448.55,365.73 450.18,363.68 454.74,363.68 455.06,363.68 455.39,361.64 455.72,361.64 456.69,357.55 457.02,357.55 457.34,357.55 457.67,357.55 458.97,355.50 459.62,355.50 459.95,355.50 460.93,353.45 461.25,351.41 461.91,351.41 463.86,351.41 464.19,351.41 464.51,351.41 465.81,351.41 468.10,351.41 468.42,351.41 469.07,351.41 471.35,351.41 472.98,351.41 474.61,349.36 477.54,347.32 478.85,347.32 479.17,347.32 479.50,345.27 480.15,345.27 480.47,343.23 480.80,343.23 481.78,343.23 482.10,343.23 483.08,343.23 484.71,343.23 485.04,339.14 485.36,339.14 485.69,339.14 486.01,339.14 486.34,339.14 486.66,339.14 487.32,339.14 487.64,339.14 487.97,335.05 488.94,335.05 489.60,335.05 490.25,335.05 491.55,335.05 492.85,335.05 493.18,335.05 493.51,333.00 493.83,330.95 495.46,330.95 496.76,330.95 497.09,330.95 498.39,330.95 498.72,330.95 499.04,328.91 502.30,328.91 502.63,328.91 503.28,328.91 504.91,328.91 505.56,328.91 506.21,328.91 507.51,326.86 508.17,326.86 508.49,324.82 508.82,324.82 509.14,322.77 510.45,322.77 510.77,322.77 511.42,322.77 511.75,322.77 512.73,322.77 513.05,322.77 514.36,322.77 517.29,322.77 518.26,322.77 519.24,322.77 519.57,320.73 519.89,320.73 520.22,318.68 520.55,318.68 521.20,318.68 523.48,316.64 524.78,316.64 525.11,316.64 525.43,316.64 526.41,316.64 527.71,314.59 529.02,314.59 530.64,314.59 530.97,314.59 534.55,314.59 536.18,314.59 536.83,314.59 537.49,314.59 540.09,314.59 540.74,314.59 541.07,314.59 542.05,314.59 542.70,314.59 543.35,312.55 544.00,312.55 544.65,312.55 545.96,312.55 546.28,312.55 546.61,312.55 548.24,310.50 548.89,310.50 549.21,310.50 550.19,310.50 550.84,310.50 551.49,310.50 553.12,310.50 553.45,308.45 553.77,308.45 554.75,308.45 555.40,306.41 556.05,306.41 557.68,306.41 560.62,306.41 560.94,306.41 562.24,306.41 562.57,306.41 563.87,306.41 564.20,306.41 564.52,304.36 565.18,304.36 566.15,304.36 566.48,304.36 566.81,304.36 567.46,304.36 568.76,304.36 569.74,302.32 570.06,302.32 574.30,302.32 574.62,302.32 575.60,302.32 576.25,302.32 578.53,302.32 579.51,300.27 579.84,300.27 580.16,300.27 582.77,300.27 583.09,300.27 583.42,300.27 584.40,300.27 584.72,300.27 585.37,300.27 587.66,300.27 588.31,300.27 588.96,296.18 589.94,296.18 590.26,296.18 591.24,296.18 596.78,296.18 598.08,296.18 598.41,296.18 600.03,296.18 600.69,294.14 601.01,294.14 601.34,292.09 601.66,292.09 602.64,290.05 603.62,290.05 603.94,290.05 605.90,290.05 606.22,290.05 606.88,290.05 607.85,290.05 608.50,290.05 608.83,290.05 610.13,290.05 610.79,288.00 611.44,288.00 612.41,288.00 612.74,288.00 616.97,288.00 617.95,285.95 618.93,285.95 619.26,285.95 620.88,285.95 621.21,285.95 621.54,285.95 621.86,285.95 623.16,285.95 624.14,285.95 626.42,285.95 627.40,285.95 627.73,285.95 628.38,283.91 629.03,283.91 630.98,283.91 631.31,283.91 634.57,283.91 634.89,283.91 635.87,283.91 636.20,283.91 637.17,283.91 637.50,279.82 637.82,279.82 639.45,279.82 639.78,279.82 640.76,279.82 642.39,279.82 643.69,279.82 644.67,277.77 648.25,275.73 648.58,273.68 650.53,271.64 651.18,271.64 651.83,269.59 653.14,267.55 653.46,265.50 656.07,265.50 659.00,265.50 659.65,265.50 659.98,263.45 660.30,263.45 663.24,261.41 664.54,259.36 664.86,259.36 665.19,259.36 665.84,257.32 667.14,257.32 667.47,257.32 668.12,257.32 669.43,257.32 671.05,257.32 671.38,255.27 672.03,255.27 672.36,255.27 672.68,253.23 673.01,253.23 673.33,253.23 673.99,253.23 677.90,253.23 680.18,251.18 682.46,249.14 683.43,247.09 683.76,245.05 684.08,245.05 685.06,243.00 685.39,243.00 687.67,240.95 687.99,240.95 689.30,238.91 689.62,238.91 689.95,238.91 691.25,238.91 692.23,236.86 693.53,236.86 694.51,234.82 694.84,232.77 696.79,232.77 697.44,232.77 698.42,232.77 698.74,232.77 699.40,232.77 701.35,230.73 702.00,228.68 702.65,228.68 702.98,228.68 703.63,228.68 703.96,228.68 704.93,228.68 705.26,228.68 705.91,228.68 707.22,228.68 707.54,228.68 708.19,228.68 708.84,228.68 710.15,228.68 710.47,226.64 711.78,226.64 713.08,226.64 714.71,224.59 715.69,224.59 716.01,224.59 717.64,222.55 717.97,222.55 719.27,222.55 720.25,222.55 720.90,220.50 721.88,220.50 723.18,220.50 723.50,220.50 724.16,220.50 726.76,220.50 728.72,218.45 731.00,218.45 734.58,218.45 734.91,216.41 735.23,216.41 737.19,216.41 737.84,216.41 738.16,216.41 738.49,214.36 739.47,214.36 739.79,212.32 740.44,212.32 743.05,212.32 744.68,212.32 745.33,210.27 746.96,208.23 748.26,208.23 751.19,206.18 752.50,204.14 754.45,204.14 760.32,202.09 762.60,200.05 763.25,200.05 766.18,200.05 766.83,200.05 767.48,200.05 769.44,200.05 770.09,200.05 770.74,200.05 771.07,198.00 771.39,198.00 774.00,198.00 776.93,198.00 778.56,198.00 780.51,198.00 783.45,195.95 786.05,195.95 787.36,195.95 788.01,195.95 789.31,195.95 790.94,195.95 791.59,195.95 792.24,195.95 794.20,195.95 795.50,195.95 795.83,195.95 798.76,193.91 799.08,193.91 799.41,191.86 800.06,191.86 801.04,189.82 802.34,189.82 804.30,189.82 804.62,189.82 805.60,187.77 807.88,185.73 810.16,185.73 812.12,185.73 814.72,185.73 815.37,185.73 815.70,185.73 816.68,183.68 817.00,183.68 817.33,183.68 817.98,183.68 819.28,181.64 821.56,181.64 821.89,179.59 822.87,179.59 824.82,179.59 826.45,179.59 826.78,179.59 828.08,179.59 829.06,179.59 829.38,177.55 830.68,177.55 831.34,175.50 832.96,175.50 833.29,173.45 833.62,173.45 835.57,173.45 836.55,173.45 836.87,173.45 838.83,171.41 840.13,171.41 840.46,171.41 840.78,169.36 843.06,169.36 844.69,169.36 848.60,169.36 848.93,169.36 850.88,169.36 853.81,169.36 857.07,169.36 859.03,169.36 859.35,169.36 859.68,169.36 860.33,169.36 862.94,169.36 865.22,169.36 868.47,169.36 868.80,167.32 871.73,167.32 872.71,167.32 874.01,167.32 884.11,167.32 885.41,167.32 885.74,167.32 889.00,167.32 890.63,167.32 892.91,167.32 893.56,165.27 893.89,165.27 895.84,165.27 897.14,165.27 897.79,165.27 898.12,165.27 898.45,165.27 899.42,165.27 901.05,165.27 901.38,163.23 903.01,163.23 905.29,163.23 907.57,163.23 908.22,163.23 911.80,163.23 912.13,163.23 913.76,163.23 915.39,163.23 918.32,163.23 919.62,163.23 921.90,159.14 922.23,159.14 922.88,157.09 924.51,157.09 924.83,157.09 925.49,157.09 926.46,157.09 926.79,157.09 927.11,157.09 927.44,157.09 928.74,157.09 929.07,155.05 931.02,155.05 931.35,155.05 932.98,155.05 933.30,155.05 933.96,155.05 934.61,153.00 935.58,153.00 938.84,153.00 944.71,153.00 946.01,153.00 947.64,150.95 948.94,150.95 950.24,150.95 951.22,150.95 952.20,150.95 954.48,148.91 956.11,148.91 956.76,146.86 959.04,144.82 959.37,142.77 959.69,142.77 963.28,142.77 965.23,142.77 965.56,140.73 968.49,140.73 973.37,140.73 974.68,138.68 975.00,138.68 975.98,138.68 979.89,138.68 984.45,138.68 984.78,136.64 989.01,136.64 991.62,136.64 1004.32,136.64 1007.26,136.64 1008.23,136.64 1009.86,136.64 1010.19,136.64 1016.05,136.64 1018.66,136.64 1023.87,136.64 1025.50,136.64 1027.78,136.64 1034.37,124.36 1036.00,124.36"/>
<circle cx="90.00" cy="468.00" r="3.8" fill="#ffb50c" stroke="#111827" stroke-width="1"/>
<circle cx="192.16" cy="459.82" r="3.8" fill="#ffb50c" stroke="#111827" stroke-width="1"/>
<circle cx="243.63" cy="441.41" r="3.8" fill="#ffb50c" stroke="#111827" stroke-width="1"/>
<circle cx="281.10" cy="429.14" r="3.8" fill="#ffb50c" stroke="#111827" stroke-width="1"/>
<circle cx="317.91" cy="414.82" r="3.8" fill="#ffb50c" stroke="#111827" stroke-width="1"/>
<circle cx="347.23" cy="396.41" r="3.8" fill="#ffb50c" stroke="#111827" stroke-width="1"/>
<circle cx="391.21" cy="384.14" r="3.8" fill="#ffb50c" stroke="#111827" stroke-width="1"/>
<circle cx="423.14" cy="378.00" r="3.8" fill="#ffb50c" stroke="#111827" stroke-width="1"/>
<circle cx="447.25" cy="365.73" r="3.8" fill="#ffb50c" stroke="#111827" stroke-width="1"/>
<circle cx="479.17" cy="347.32" r="3.8" fill="#ffb50c" stroke="#111827" stroke-width="1"/>
<circle cx="498.39" cy="330.95" r="3.8" fill="#ffb50c" stroke="#111827" stroke-width="1"/>
<circle cx="523.48" cy="316.64" r="3.8" fill="#ffb50c" stroke="#111827" stroke-width="1"/>
<circle cx="551.49" cy="310.50" r="3.8" fill="#ffb50c" stroke="#111827" stroke-width="1"/>
<circle cx="579.84" cy="300.27" r="3.8" fill="#ffb50c" stroke="#111827" stroke-width="1"/>
<circle cx="608.50" cy="290.05" r="3.8" fill="#ffb50c" stroke="#111827" stroke-width="1"/>
<circle cx="637.50" cy="279.82" r="3.8" fill="#ffb50c" stroke="#111827" stroke-width="1"/>
<circle cx="671.05" cy="257.32" r="3.8" fill="#ffb50c" stroke="#111827" stroke-width="1"/>
<circle cx="698.74" cy="232.77" r="3.8" fill="#ffb50c" stroke="#111827" stroke-width="1"/>
<circle cx="723.50" cy="220.50" r="3.8" fill="#ffb50c" stroke="#111827" stroke-width="1"/>
<circle cx="769.44" cy="200.05" r="3.8" fill="#ffb50c" stroke="#111827" stroke-width="1"/>
<circle cx="807.88" cy="185.73" r="3.8" fill="#ffb50c" stroke="#111827" stroke-width="1"/>
<circle cx="840.13" cy="171.41" r="3.8" fill="#ffb50c" stroke="#111827" stroke-width="1"/>
<circle cx="895.84" cy="165.27" r="3.8" fill="#ffb50c" stroke="#111827" stroke-width="1"/>
<circle cx="929.07" cy="155.05" r="3.8" fill="#ffb50c" stroke="#111827" stroke-width="1"/>
<circle cx="975.98" cy="138.68" r="3.8" fill="#ffb50c" stroke="#111827" stroke-width="1"/>
<circle cx="1036.00" cy="124.36" r="3.8" fill="#ffb50c" stroke="#111827" stroke-width="1"/>
<text x="1028.0" y="114.4" text-anchor="end" fill="#ffb50c" font-size="12" font-family="-apple-system,BlinkMacSystemFont,Segoe UI,Helvetica,Arial,sans-serif">168</text>
<rect x="90" y="514" width="14" height="14" fill="url(#repo-0)" rx="3"/>
<text x="112" y="526" fill="#3bf2af" font-size="13" font-family="-apple-system,BlinkMacSystemFont,Segoe UI,Helvetica,Arial,sans-serif">bavix/gripmock</text>
<rect x="280" y="514" width="14" height="14" fill="url(#repo-1)" rx="3"/>
<text x="302" y="526" fill="#ffb50c" font-size="13" font-family="-apple-system,BlinkMacSystemFont,Segoe UI,Helvetica,Arial,sans-serif">tokopedia/gripmock</text>
<text x="1036" y="526" text-anchor="end" fill="#9ca3af" font-size="12" font-family="-apple-system,BlinkMacSystemFont,Segoe UI,Helvetica,Arial,sans-serif">Source: https://github.com/bavix/artifact-stats/blob/master/stats/github.csv</text>
</svg>