<svg xmlns="http://www.w3.org/2000/svg" width="1100" height="560" viewBox="0 0 1100 560">
<defs>
<linearGradient id="bg" x1="0" y1="0" x2="1" y2="1"><stop offset="0%" stop-color="#0b1220"/><stop offset="100%" stop-color="#111827"/></linearGradient>
<linearGradient id="repo-0" x1="0" y1="0" x2="0" y2="1"><stop offset="0%" stop-color="#34d399"/><stop offset="100%" stop-color="#059669"/></linearGradient>
<linearGradient id="repo-1" x1="0" y1="0" x2="0" y2="1"><stop offset="0%" stop-color="#f59e0b"/><stop offset="100%" stop-color="#d97706"/></linearGradient>
</defs>
<rect x="0" y="0" width="1100" height="560" fill="url(#bg)" rx="16"/>
<text x="90" y="44" fill="#f9fafb" font-size="28" font-family="-apple-system,BlinkMacSystemFont,Segoe UI,Helvetica,Arial,sans-serif" font-weight="700">GripMock GitHub Metrics - Forks</text>
<text x="90" y="70" fill="#9ca3af" font-size="16" font-family="-apple-system,BlinkMacSystemFont,Segoe UI,Helvetica,Arial,sans-serif">GitHub forks by snapshot date</text>
<line x1="90" y1="90.0" x2="1036" y2="90.0" stroke="#1f2937" stroke-width="1"/>
<text x="80" y="95.0" text-anchor="end" fill="#9ca3af" font-size="12" font-family="-apple-system,BlinkMacSystemFont,Segoe UI,Helvetica,Arial,sans-serif">185</text>
<line x1="90" y1="153.0" x2="1036" y2="153.0" stroke="#1f2937" stroke-width="1"/>
<text x="80" y="158.0" text-anchor="end" fill="#9ca3af" font-size="12" font-family="-apple-system,BlinkMacSystemFont,Segoe UI,Helvetica,Arial,sans-serif">154</text>
<line x1="90" y1="216.0" x2="1036" y2="216.0" stroke="#1f2937" stroke-width="1"/>
<text x="80" y="221.0" text-anchor="end" fill="#9ca3af" font-size="12" font-family="-apple-system,BlinkMacSystemFont,Segoe UI,Helvetica,Arial,sans-serif">123</text>
<line x1="90" y1="279.0" x2="1036" y2="279.0" stroke="#1f2937" stroke-width="1"/>
<text x="80" y="284.0" text-anchor="end" fill="#9ca3af" font-size="12" font-family="-apple-system,BlinkMacSystemFont,Segoe UI,Helvetica,Arial,sans-serif">92</text>
<line x1="90" y1="342.0" x2="1036" y2="342.0" stroke="#1f2937" stroke-width="1"/>
<text x="80" y="347.0" text-anchor="end" fill="#9ca3af" font-size="12" font-family="-apple-system,BlinkMacSystemFont,Segoe UI,Helvetica,Arial,sans-serif">62</text>
<line x1="90" y1="405.0" x2="1036" y2="405.0" stroke="#1f2937" stroke-width="1"/>
<text x="80" y="410.0" text-anchor="end" fill="#9ca3af" font-size="12" font-family="-apple-system,BlinkMacSystemFont,Segoe UI,Helvetica,Arial,sans-serif">31</text>
<line x1="90" y1="468.0" x2="1036" y2="468.0" stroke="#1f2937" stroke-width="1"/>
<text x="80" y="473.0" text-anchor="end" fill="#9ca3af" font-size="12" font-family="-apple-system,BlinkMacSystemFont,Segoe UI,Helvetica,Arial,sans-serif">0</text>
<line x1="90" y1="468" x2="1036" y2="468" stroke="#4b5563" stroke-width="1.4"/>
<line x1="90" y1="90" x2="90" y2="468" stroke="#4b5563" stroke-width="1.4"/>
<line x1="90.0" y1="468" x2="90.0" y2="474" stroke="#6b7280" stroke-width="1"/>
<text x="90.0" y="494" text-anchor="start" fill="#9ca3af" font-size="12" font-family="-apple-system,BlinkMacSystemFont,Segoe UI,Helvetica,Arial,sans-serif">2018-04-24</text>
<line x1="279.2" y1="468" x2="279.2" y2="474" stroke="#6b7280" stroke-width="1"/>
<text x="279.2" y="494" text-anchor="middle" fill="#9ca3af" font-size="12" font-family="-apple-system,BlinkMacSystemFont,Segoe UI,Helvetica,Arial,sans-serif">2019-11-25</text>
<line x1="468.4" y1="468" x2="468.4" y2="474" stroke="#6b7280" stroke-width="1"/>
<text x="468.4" y="494" text-anchor="middle" fill="#9ca3af" font-size="12" font-family="-apple-system,BlinkMacSystemFont,Segoe UI,Helvetica,Arial,sans-serif">2021-06-27</text>
<line x1="657.6" y1="468" x2="657.6" y2="474" stroke="#6b7280" stroke-width="1"/>
<text x="657.6" y="494" text-anchor="middle" fill="#9ca3af" font-size="12" font-family="-apple-system,BlinkMacSystemFont,Segoe UI,Helvetica,Arial,sans-serif">2023-01-28</text>
<line x1="846.8" y1="468" x2="846.8" y2="474" stroke="#6b7280" stroke-width="1"/>
<text x="846.8" y="494" text-anchor="middle" fill="#9ca3af" font-size="12" font-family="-apple-system,BlinkMacSystemFont,Segoe UI,Helvetica,Arial,sans-serif">2024-08-30</text>
<line x1="1036.0" y1="468" x2="1036.0" y2="474" stroke="#6b7280" stroke-width="1"/>
<text x="1036.0" y="494" text-anchor="end" fill="#9ca3af" font-size="12" font-family="-apple-system,BlinkMacSystemFont,Segoe UI,Helvetica,Arial,sans-serif">2026-04-02</text>
<polyline fill="none" stroke="url(#repo-0)" stroke-width="4" stroke-linecap="round" stroke-linejoin="round" points="722.88,468.00 729.60,468.00 742.65,468.00 756.35,468.00 758.31,468.00 761.57,468.00 773.31,468.00 775.60,468.00 781.14,468.00 781.47,468.00 786.36,468.00 794.19,468.00 806.59,468.00 809.85,468.00 814.09,468.00 817.68,468.00 832.69,468.00 837.26,468.00 837.91,468.00 839.21,468.00 845.41,468.00 859.11,468.00 862.05,468.00 868.90,468.00 874.45,468.00 875.10,468.00 875.75,468.00 895.98,468.00 898.59,468.00 899.24,468.00 905.44,468.00 906.09,468.00 910.00,465.95 911.31,465.95 911.64,465.95 911.96,465.95 914.90,463.91 916.53,463.91 918.16,463.91 923.38,461.86 927.95,459.82 929.58,459.82 930.23,457.77 937.08,457.77 941.00,457.77 952.74,457.77 955.02,457.77 955.68,455.73 957.63,455.73 959.59,455.73 962.53,453.68 967.75,453.68 974.60,453.68 978.84,453.68 990.26,453.68 992.54,453.68 997.43,453.68 997.76,453.68 998.74,453.68 1001.35,453.68 1001.67,451.64 1010.48,451.64 1017.33,451.64 1017.99,451.64 1020.27,451.64 1026.79,451.64 1029.08,451.64 1030.71,451.64 1032.34,451.64 1035.68,451.64 1036.00,451.64"/>
<circle cx="722.88" cy="468.00" r="3.8" fill="#3bf2af" stroke="#111827" stroke-width="1"/>
<circle cx="742.65" cy="468.00" r="3.8" fill="#3bf2af" stroke="#111827" stroke-width="1"/>
<circle cx="758.31" cy="468.00" r="3.8" fill="#3bf2af" stroke="#111827" stroke-width="1"/>
<circle cx="773.31" cy="468.00" r="3.8" fill="#3bf2af" stroke="#111827" stroke-width="1"/>
<circle cx="781.14" cy="468.00" r="3.8" fill="#3bf2af" stroke="#111827" stroke-width="1"/>
<circle cx="786.36" cy="468.00" r="3.8" fill="#3bf2af" stroke="#111827" stroke-width="1"/>
<circle cx="806.59" cy="468.00" r="3.8" fill="#3bf2af" stroke="#111827" stroke-width="1"/>
<circle cx="814.09" cy="468.00" r="3.8" fill="#3bf2af" stroke="#111827" stroke-width="1"/>
<circle cx="832.69" cy="468.00" r="3.8" fill="#3bf2af" stroke="#111827" stroke-width="1"/>
<circle cx="837.91" cy="468.00" r="3.8" fill="#3bf2af" stroke="#111827" stroke-width="1"/>
<circle cx="845.41" cy="468.00" r="3.8" fill="#3bf2af" stroke="#111827" stroke-width="1"/>
<circle cx="862.05" cy="468.00" r="3.8" fill="#3bf2af" stroke="#111827" stroke-width="1"/>
<circle cx="874.45" cy="468.00" r="3.8" fill="#3bf2af" stroke="#111827" stroke-width="1"/>
<circle cx="875.75" cy="468.00" r="3.8" fill="#3bf2af" stroke="#111827" stroke-width="1"/>
<circle cx="898.59" cy="468.00" r="3.8" fill="#3bf2af" stroke="#111827" stroke-width="1"/>
<circle cx="905.44" cy="468.00" r="3.8" fill="#3bf2af" stroke="#111827" stroke-width="1"/>
<circle cx="910.00" cy="465.95" r="3.8" fill="#3bf2af" stroke="#111827" stroke-width="1"/>
<circle cx="911.64" cy="465.95" r="3.8" fill="#3bf2af" stroke="#111827" stroke-width="1"/>
<circle cx="914.90" cy="463.91" r="3.8" fill="#3bf2af" stroke="#111827" stroke-width="1"/>
<circle cx="918.16" cy="463.91" r="3.8" fill="#3bf2af" stroke="#111827" stroke-width="1"/>
<circle cx="927.95" cy="459.82" r="3.8" fill="#3bf2af" stroke="#111827" stroke-width="1"/>
<circle cx="930.23" cy="457.77" r="3.8" fill="#3bf2af" stroke="#111827" stroke-width="1"/>
<circle cx="941.00" cy="457.77" r="3.8" fill="#3bf2af" stroke="#111827" stroke-width="1"/>
<circle cx="955.02" cy="457.77" r="3.8" fill="#3bf2af" stroke="#111827" stroke-width="1"/>
<circle cx="957.63" cy="455.73" r="3.8" fill="#3bf2af" stroke="#111827" stroke-width="1"/>
<circle cx="962.53" cy="453.68" r="3.8" fill="#3bf2af" stroke="#111827" stroke-width="1"/>
<circle cx="974.60" cy="453.68" r="3.8" fill="#3bf2af" stroke="#111827" stroke-width="1"/>
<circle cx="990.26" cy="453.68" r="3.8" fill="#3bf2af" stroke="#111827" stroke-width="1"/>
<circle cx="997.43" cy="453.68" r="3.8" fill="#3bf2af" stroke="#111827" stroke-width="1"/>
<circle cx="998.74" cy="453.68" r="3.8" fill="#3bf2af" stroke="#111827" stroke-width="1"/>
<circle cx="1001.67" cy="451.64" r="3.8" fill="#3bf2af" stroke="#111827" stroke-width="1"/>
<circle cx="1017.33" cy="451.64" r="3.8" fill="#3bf2af" stroke="#111827" stroke-width="1"/>
<circle cx="1020.27" cy="451.64" r="3.8" fill="#3bf2af" stroke="#111827" stroke-width="1"/>
<circle cx="1029.08" cy="451.64" r="3.8" fill="#3bf2af" stroke="#111827" stroke-width="1"/>
<circle cx="1032.34" cy="451.64" r="3.8" fill="#3bf2af" stroke="#111827" stroke-width="1"/>
<circle cx="1036.00" cy="451.64" r="3.8" fill="#3bf2af" stroke="#111827" stroke-width="1"/>
<text x="1028.0" y="441.6" text-anchor="end" fill="#3bf2af" font-size="12" font-family="-apple-system,BlinkMacSystemFont,Segoe UI,Helvetica,Arial,sans-serif">8</text>
<polyline fill="none" stroke="url(#repo-1)" stroke-width="4" stroke-linecap="round" stroke-linejoin="round" points="90.00,468.00 91.83,468.00 92.48,468.00 96.07,468.00 99.66,468.00 136.84,468.00 137.82,465.95 143.70,463.91 149.57,463.91 154.14,461.86 157.72,461.86 158.38,461.86 158.70,461.86 159.03,461.86 160.66,461.86 161.31,461.86 165.55,459.82 165.88,459.82 169.79,459.82 170.77,459.82 171.10,459.82 172.73,459.82 174.36,459.82 176.32,459.82 177.30,459.82 182.52,459.82 185.13,459.82 186.76,459.82 187.08,459.82 192.30,459.82 192.63,459.82 193.28,457.77 196.54,457.77 197.20,457.77 197.52,455.73 197.85,453.68 203.72,453.68 205.35,451.64 211.55,451.64 212.86,451.64 213.51,449.59 216.12,447.55 219.05,447.55 222.97,445.50 223.30,445.50 225.58,445.50 227.86,445.50 231.12,445.50 232.10,445.50 234.39,445.50 236.67,445.50 238.63,445.50 238.95,445.50 239.28,445.50 241.89,445.50 242.54,445.50 243.20,445.50 243.52,443.45 243.85,441.41 244.17,441.41 246.78,441.41 247.44,441.41 250.05,439.36 255.59,439.36 256.24,437.32 256.57,437.32 256.90,437.32 257.55,433.23 258.85,433.23 259.18,433.23 261.14,433.23 261.46,433.23 263.75,433.23 264.73,433.23 265.38,433.23 266.36,431.18 267.99,431.18 268.31,429.14 269.29,429.14 272.23,429.14 275.82,429.14 276.80,429.14 277.78,429.14 278.10,429.14 279.41,429.14 279.73,429.14 280.39,429.14 281.36,429.14 282.99,429.14 283.65,429.14 283.97,429.14 284.30,429.14 285.93,429.14 286.91,429.14 287.56,429.14 288.87,427.09 289.19,425.05 290.82,425.05 294.41,425.05 296.37,425.05 298.00,423.00 298.33,423.00 300.61,423.00 302.24,423.00 302.57,420.95 304.53,420.95 304.85,420.95 305.50,418.91 306.48,416.86 306.81,416.86 307.14,416.86 307.46,416.86 312.03,414.82 315.94,414.82 316.27,414.82 316.92,414.82 318.23,414.82 318.55,414.82 320.18,412.77 320.84,410.73 321.16,410.73 321.49,410.73 321.82,410.73 323.45,410.73 326.71,408.68 328.01,408.68 328.34,406.64 328.99,406.64 329.32,404.59 329.97,402.55 330.62,402.55 331.28,400.50 332.58,398.45 333.23,398.45 335.19,398.45 335.52,398.45 336.82,398.45 338.78,398.45 340.08,398.45 341.39,396.41 341.72,396.41 342.37,396.41 343.35,396.41 344.33,396.41 345.96,396.41 347.59,396.41 349.22,396.41 352.16,394.36 354.76,394.36 355.09,394.36 355.42,394.36 360.31,394.36 361.29,394.36 362.27,394.36 362.59,394.36 363.57,394.36 365.86,394.36 366.18,394.36 367.81,394.36 369.77,392.32 373.03,392.32 374.01,392.32 374.99,392.32 376.30,392.32 376.95,392.32 377.27,392.32 377.93,390.27 379.56,390.27 380.86,390.27 385.10,388.23 386.74,388.23 387.71,388.23 390.65,386.18 391.30,384.14 391.63,384.14 391.95,384.14 393.59,384.14 394.56,384.14 395.87,384.14 396.20,384.14 396.85,384.14 399.13,384.14 399.46,384.14 400.11,384.14 402.39,384.14 403.05,384.14 404.35,384.14 405.33,382.09 405.66,382.09 405.98,382.09 409.90,382.09 410.55,382.09 411.85,382.09 412.18,382.09 413.49,382.09 414.79,382.09 415.12,382.09 415.44,382.09 417.07,382.09 417.73,382.09 419.36,380.05 420.66,378.00 421.64,378.00 423.60,378.00 424.90,378.00 426.53,378.00 426.86,378.00 427.51,378.00 428.17,378.00 428.82,378.00 429.14,375.95 430.12,373.91 430.45,373.91 430.78,373.91 431.10,371.86 432.73,371.86 433.39,369.82 434.69,369.82 435.34,369.82 436.32,369.82 436.97,369.82 437.95,369.82 439.26,369.82 440.56,367.77 441.87,365.73 442.19,365.73 443.83,365.73 444.15,365.73 444.80,365.73 445.13,365.73 445.78,365.73 446.11,365.73 447.74,365.73 449.04,365.73 450.68,363.68 455.24,363.68 455.57,363.68 455.90,361.64 456.22,361.64 457.20,357.55 457.53,357.55 457.85,357.55 458.18,357.55 459.48,355.50 460.14,355.50 460.46,355.50 461.44,353.45 461.77,351.41 462.42,351.41 464.38,351.41 464.70,351.41 465.03,351.41 466.33,351.41 468.62,351.41 468.94,351.41 469.60,351.41 471.88,351.41 473.51,351.41 475.14,349.36 478.08,347.32 479.38,347.32 479.71,347.32 480.04,345.27 480.69,345.27 481.01,343.23 481.34,343.23 482.32,343.23 482.65,343.23 483.62,343.23 485.26,343.23 485.58,339.14 485.91,339.14 486.23,339.14 486.56,339.14 486.89,339.14 487.21,339.14 487.87,339.14 488.19,339.14 488.52,335.05 489.50,335.05 490.15,335.05 490.80,335.05 492.11,335.05 493.41,335.05 493.74,335.05 494.06,333.00 494.39,330.95 496.02,330.95 497.33,330.95 497.65,330.95 498.96,330.95 499.28,330.95 499.61,328.91 502.87,328.91 503.20,328.91 503.85,328.91 505.48,328.91 506.13,328.91 506.79,328.91 508.09,326.86 508.74,326.86 509.07,324.82 509.40,324.82 509.72,322.77 511.03,322.77 511.35,322.77 512.01,322.77 512.33,322.77 513.31,322.77 513.64,322.77 514.94,322.77 517.88,322.77 518.86,322.77 519.84,322.77 520.16,320.73 520.49,320.73 520.81,318.68 521.14,318.68 521.79,318.68 524.08,316.64 525.38,316.64 525.71,316.64 526.03,316.64 527.01,316.64 528.32,314.59 529.62,314.59 531.25,314.59 531.58,314.59 535.17,314.59 536.80,314.59 537.45,314.59 538.10,314.59 540.71,314.59 541.37,314.59 541.69,314.59 542.67,314.59 543.32,314.59 543.98,312.55 544.63,312.55 545.28,312.55 546.59,312.55 546.91,312.55 547.24,312.55 548.87,310.50 549.52,310.50 549.85,310.50 550.83,310.50 551.48,310.50 552.13,310.50 553.76,310.50 554.09,308.45 554.42,308.45 555.39,308.45 556.05,306.41 556.70,306.41 558.33,306.41 561.27,306.41 561.59,306.41 562.90,306.41 563.22,306.41 564.53,306.41 564.86,306.41 565.18,304.36 565.83,304.36 566.81,304.36 567.14,304.36 567.47,304.36 568.12,304.36 569.42,304.36 570.40,302.32 570.73,302.32 574.97,302.32 575.29,302.32 576.27,302.32 576.93,302.32 579.21,302.32 580.19,300.27 580.51,300.27 580.84,300.27 583.45,300.27 583.78,300.27 584.10,300.27 585.08,300.27 585.41,300.27 586.06,300.27 588.34,300.27 589.00,300.27 589.65,296.18 590.63,296.18 590.95,296.18 591.93,296.18 597.48,296.18 598.78,296.18 599.11,296.18 600.74,296.18 601.39,294.14 601.72,294.14 602.05,292.09 602.37,292.09 603.35,290.05 604.33,290.05 604.66,290.05 606.61,290.05 606.94,290.05 607.59,290.05 608.57,290.05 609.22,290.05 609.55,290.05 610.85,290.05 611.51,288.00 612.16,288.00 613.14,288.00 613.46,288.00 617.70,288.00 618.68,285.95 619.66,285.95 619.99,285.95 621.62,285.95 621.95,285.95 622.27,285.95 622.60,285.95 623.90,285.95 624.88,285.95 627.16,285.95 628.14,285.95 628.47,285.95 629.12,283.91 629.77,283.91 631.73,283.91 632.06,283.91 635.32,283.91 635.65,283.91 636.63,283.91 636.95,283.91 637.93,283.91 638.26,279.82 638.58,279.82 640.21,279.82 640.54,279.82 641.52,279.82 643.15,279.82 644.45,279.82 645.43,277.77 649.02,275.73 649.35,273.68 651.31,271.64 651.96,271.64 652.61,269.59 653.92,267.55 654.24,265.50 656.85,265.50 659.79,265.50 660.44,265.50 660.77,263.45 661.09,263.45 664.03,261.41 665.33,259.36 665.66,259.36 665.99,259.36 666.64,257.32 667.94,257.32 668.27,257.32 668.92,257.32 670.23,257.32 671.86,257.32 672.18,255.27 672.84,255.27 673.16,255.27 673.49,253.23 673.82,253.23 674.14,253.23 674.79,253.23 678.71,253.23 680.99,251.18 683.28,249.14 684.25,247.09 684.58,245.05 684.91,245.05 685.89,243.00 686.21,243.00 688.50,240.95 688.82,240.95 690.13,238.91 690.45,238.91 690.78,238.91 692.08,238.91 693.06,236.86 694.37,236.86 695.35,234.82 695.67,232.77 697.63,232.77 698.28,232.77 699.26,232.77 699.59,232.77 700.24,232.77 702.20,230.73 702.85,228.68 703.50,228.68 703.83,228.68 704.48,228.68 704.81,228.68 705.79,228.68 706.11,228.68 706.76,228.68 708.07,228.68 708.40,228.68 709.05,228.68 709.70,228.68 711.01,228.68 711.33,226.64 712.64,226.64 713.94,226.64 715.57,224.59 716.55,224.59 716.88,224.59 718.51,222.55 718.83,222.55 720.14,222.55 721.12,222.55 721.77,220.50 722.75,220.50 724.05,220.50 724.38,220.50 725.03,220.50 727.64,220.50 729.60,218.45 731.88,218.45 735.47,218.45 735.80,216.41 736.12,216.41 738.08,216.41 738.73,216.41 739.06,216.41 739.39,214.36 740.37,214.36 740.69,212.32 741.34,212.32 743.95,212.32 745.59,212.32 746.24,210.27 747.87,208.23 749.17,208.23 752.11,206.18 753.41,204.14 755.37,204.14 761.24,202.09 763.53,200.05 764.18,200.05 767.12,200.05 767.77,200.05 768.42,200.05 770.38,200.05 771.03,200.05 771.68,200.05 772.01,198.00 772.34,198.00 774.95,198.00 777.88,198.00 779.51,198.00 781.47,198.00 784.41,195.95 787.02,195.95 788.32,195.95 788.97,195.95 790.28,195.95 791.91,195.95 792.56,195.95 793.21,195.95 795.17,195.95 796.48,195.95 796.80,195.95 799.74,193.91 800.07,193.91 800.39,191.86 801.04,191.86 802.02,189.82 803.33,189.82 805.29,189.82 805.61,189.82 806.59,187.77 808.87,185.73 811.16,185.73 813.11,185.73 815.72,185.73 816.38,185.73 816.70,185.73 817.68,183.68 818.01,183.68 818.33,183.68 818.99,183.68 820.29,181.64 822.58,181.64 822.90,179.59 823.88,179.59 825.84,179.59 827.47,179.59 827.79,179.59 829.10,179.59 830.08,179.59 830.40,177.55 831.71,177.55 832.36,175.50 833.99,175.50 834.32,173.45 834.65,173.45 836.60,173.45 837.58,173.45 837.91,173.45 839.87,171.41 841.17,171.41 841.50,171.41 841.82,169.36 844.11,169.36 845.74,169.36 849.65,169.36 849.98,169.36 851.94,169.36 854.87,169.36 858.13,169.36 860.09,169.36 860.42,169.36 860.74,169.36 861.40,169.36 864.01,169.36 866.29,169.36 869.55,169.36 869.88,167.32 872.81,167.32 873.79,167.32 875.10,167.32 885.21,167.32 886.52,167.32 886.84,167.32 890.10,167.32 891.74,167.32 894.02,167.32 894.67,165.27 895.00,165.27 896.96,165.27 898.26,165.27 898.91,165.27 899.24,165.27 899.56,165.27 900.54,165.27 902.17,165.27 902.50,163.23 904.13,163.23 906.42,163.23 908.70,163.23 909.35,163.23 912.94,163.23 913.27,163.23 914.90,163.23 916.53,163.23 919.46,163.23 920.77,163.23 923.05,159.14 923.38,159.14 924.03,157.09 925.66,157.09 925.99,157.09 926.64,157.09 927.62,157.09 927.95,157.09 928.27,157.09 928.60,157.09 929.90,157.09 930.23,155.05 932.19,155.05 932.51,155.05 934.14,155.05 934.47,155.05 935.12,155.05 935.78,153.00 936.75,153.00 940.02,153.00 945.89,153.00 947.19,153.00 948.83,150.95 950.13,150.95 951.44,150.95 952.41,150.95 953.39,150.95 955.68,148.91 957.31,148.91 957.96,146.86 960.24,144.82 960.57,142.77 960.90,142.77 964.48,142.77 966.44,142.77 966.77,140.73 969.70,140.73 974.60,140.73 975.90,138.68 976.23,138.68 977.21,138.68 981.12,138.68 985.69,138.68 986.02,136.64 990.26,136.64 992.87,136.64 1005.59,136.64 1008.52,136.64 1009.50,136.64 1011.13,136.64 1011.46,136.64 1017.33,136.64 1019.94,136.64 1025.16,136.64 1026.79,136.64 1029.08,136.64 1035.68,124.36 1036.00,124.36"/>
<circle cx="90.00" cy="468.00" r="3.8" fill="#ffb50c" stroke="#111827" stroke-width="1"/>
<circle cx="192.30" cy="459.82" r="3.8" fill="#ffb50c" stroke="#111827" stroke-width="1"/>
<circle cx="243.85" cy="441.41" r="3.8" fill="#ffb50c" stroke="#111827" stroke-width="1"/>
<circle cx="281.36" cy="429.14" r="3.8" fill="#ffb50c" stroke="#111827" stroke-width="1"/>
<circle cx="318.23" cy="414.82" r="3.8" fill="#ffb50c" stroke="#111827" stroke-width="1"/>
<circle cx="347.59" cy="396.41" r="3.8" fill="#ffb50c" stroke="#111827" stroke-width="1"/>
<circle cx="391.63" cy="384.14" r="3.8" fill="#ffb50c" stroke="#111827" stroke-width="1"/>
<circle cx="423.60" cy="378.00" r="3.8" fill="#ffb50c" stroke="#111827" stroke-width="1"/>
<circle cx="447.74" cy="365.73" r="3.8" fill="#ffb50c" stroke="#111827" stroke-width="1"/>
<circle cx="479.71" cy="347.32" r="3.8" fill="#ffb50c" stroke="#111827" stroke-width="1"/>
<circle cx="498.96" cy="330.95" r="3.8" fill="#ffb50c" stroke="#111827" stroke-width="1"/>
<circle cx="524.08" cy="316.64" r="3.8" fill="#ffb50c" stroke="#111827" stroke-width="1"/>
<circle cx="552.13" cy="310.50" r="3.8" fill="#ffb50c" stroke="#111827" stroke-width="1"/>
<circle cx="580.51" cy="300.27" r="3.8" fill="#ffb50c" stroke="#111827" stroke-width="1"/>
<circle cx="609.22" cy="290.05" r="3.8" fill="#ffb50c" stroke="#111827" stroke-width="1"/>
<circle cx="638.26" cy="279.82" r="3.8" fill="#ffb50c" stroke="#111827" stroke-width="1"/>
<circle cx="671.86" cy="257.32" r="3.8" fill="#ffb50c" stroke="#111827" stroke-width="1"/>
<circle cx="699.59" cy="232.77" r="3.8" fill="#ffb50c" stroke="#111827" stroke-width="1"/>
<circle cx="724.38" cy="220.50" r="3.8" fill="#ffb50c" stroke="#111827" stroke-width="1"/>
<circle cx="770.38" cy="200.05" r="3.8" fill="#ffb50c" stroke="#111827" stroke-width="1"/>
<circle cx="808.87" cy="185.73" r="3.8" fill="#ffb50c" stroke="#111827" stroke-width="1"/>
<circle cx="841.17" cy="171.41" r="3.8" fill="#ffb50c" stroke="#111827" stroke-width="1"/>
<circle cx="896.96" cy="165.27" r="3.8" fill="#ffb50c" stroke="#111827" stroke-width="1"/>
<circle cx="930.23" cy="155.05" r="3.8" fill="#ffb50c" stroke="#111827" stroke-width="1"/>
<circle cx="977.21" cy="138.68" r="3.8" fill="#ffb50c" stroke="#111827" stroke-width="1"/>
<circle cx="1036.00" cy="124.36" r="3.8" fill="#ffb50c" stroke="#111827" stroke-width="1"/>
<text x="1028.0" y="114.4" text-anchor="end" fill="#ffb50c" font-size="12" font-family="-apple-system,BlinkMacSystemFont,Segoe UI,Helvetica,Arial,sans-serif">168</text>
<rect x="90" y="514" width="14" height="14" fill="url(#repo-0)" rx="3"/>
<text x="112" y="526" fill="#3bf2af" font-size="13" font-family="-apple-system,BlinkMacSystemFont,Segoe UI,Helvetica,Arial,sans-serif">bavix/gripmock</text>
<rect x="280" y="514" width="14" height="14" fill="url(#repo-1)" rx="3"/>
<text x="302" y="526" fill="#ffb50c" font-size="13" font-family="-apple-system,BlinkMacSystemFont,Segoe UI,Helvetica,Arial,sans-serif">tokopedia/gripmock</text>
<text x="1036" y="526" text-anchor="end" fill="#9ca3af" font-size="12" font-family="-apple-system,BlinkMacSystemFont,Segoe UI,Helvetica,Arial,sans-serif">Source: https://github.com/bavix/artifact-stats/blob/master/stats/github.csv</text>
</svg>