<svg xmlns="http://www.w3.org/2000/svg" width="1100" height="560" viewBox="0 0 1100 560">
<defs>
<linearGradient id="bg" x1="0" y1="0" x2="1" y2="1"><stop offset="0%" stop-color="#0b1220"/><stop offset="100%" stop-color="#111827"/></linearGradient>
<linearGradient id="repo-0" x1="0" y1="0" x2="0" y2="1"><stop offset="0%" stop-color="#34d399"/><stop offset="100%" stop-color="#059669"/></linearGradient>
<linearGradient id="repo-1" x1="0" y1="0" x2="0" y2="1"><stop offset="0%" stop-color="#f59e0b"/><stop offset="100%" stop-color="#d97706"/></linearGradient>
</defs>
<rect x="0" y="0" width="1100" height="560" fill="url(#bg)" rx="16"/>
<text x="90" y="44" fill="#f9fafb" font-size="28" font-family="-apple-system,BlinkMacSystemFont,Segoe UI,Helvetica,Arial,sans-serif" font-weight="700">GripMock GitHub Metrics - Stars</text>
<text x="90" y="70" fill="#9ca3af" font-size="16" font-family="-apple-system,BlinkMacSystemFont,Segoe UI,Helvetica,Arial,sans-serif">GitHub stars by snapshot date</text>
<line x1="90" y1="90.00" x2="1036" y2="90.00" stroke="#1f2937" stroke-width="1"/>
<text x="80" y="95.00" text-anchor="end" fill="#9ca3af" font-size="12" font-family="-apple-system,BlinkMacSystemFont,Segoe UI,Helvetica,Arial,sans-serif">811</text>
<line x1="90" y1="153.00" x2="1036" y2="153.00" stroke="#1f2937" stroke-width="1"/>
<text x="80" y="158.00" text-anchor="end" fill="#9ca3af" font-size="12" font-family="-apple-system,BlinkMacSystemFont,Segoe UI,Helvetica,Arial,sans-serif">676</text>
<line x1="90" y1="216.00" x2="1036" y2="216.00" stroke="#1f2937" stroke-width="1"/>
<text x="80" y="221.00" text-anchor="end" fill="#9ca3af" font-size="12" font-family="-apple-system,BlinkMacSystemFont,Segoe UI,Helvetica,Arial,sans-serif">540</text>
<line x1="90" y1="279.00" x2="1036" y2="279.00" stroke="#1f2937" stroke-width="1"/>
<text x="80" y="284.00" text-anchor="end" fill="#9ca3af" font-size="12" font-family="-apple-system,BlinkMacSystemFont,Segoe UI,Helvetica,Arial,sans-serif">405</text>
<line x1="90" y1="342.00" x2="1036" y2="342.00" stroke="#1f2937" stroke-width="1"/>
<text x="80" y="347.00" text-anchor="end" fill="#9ca3af" font-size="12" font-family="-apple-system,BlinkMacSystemFont,Segoe UI,Helvetica,Arial,sans-serif">270</text>
<line x1="90" y1="405.00" x2="1036" y2="405.00" stroke="#1f2937" stroke-width="1"/>
<text x="80" y="410.00" text-anchor="end" fill="#9ca3af" font-size="12" font-family="-apple-system,BlinkMacSystemFont,Segoe UI,Helvetica,Arial,sans-serif">135</text>
<line x1="90" y1="468.00" x2="1036" y2="468.00" stroke="#1f2937" stroke-width="1"/>
<text x="80" y="473.00" text-anchor="end" fill="#9ca3af" font-size="12" font-family="-apple-system,BlinkMacSystemFont,Segoe UI,Helvetica,Arial,sans-serif">0</text>
<line x1="90" y1="468" x2="1036" y2="468" stroke="#4b5563" stroke-width="1.4"/>
<line x1="90" y1="90" x2="90" y2="468" stroke="#4b5563" stroke-width="1.4"/>
<line x1="90.00" y1="468" x2="90.00" y2="474" stroke="#6b7280" stroke-width="1"/>
<text x="90.00" y="494" text-anchor="start" fill="#9ca3af" font-size="12" font-family="-apple-system,BlinkMacSystemFont,Segoe UI,Helvetica,Arial,sans-serif">2018-04-24</text>
<line x1="279.20" y1="468" x2="279.20" y2="474" stroke="#6b7280" stroke-width="1"/>
<text x="279.20" y="494" text-anchor="middle" fill="#9ca3af" font-size="12" font-family="-apple-system,BlinkMacSystemFont,Segoe UI,Helvetica,Arial,sans-serif">2019-11-28</text>
<line x1="468.40" y1="468" x2="468.40" y2="474" stroke="#6b7280" stroke-width="1"/>
<text x="468.40" y="494" text-anchor="middle" fill="#9ca3af" font-size="12" font-family="-apple-system,BlinkMacSystemFont,Segoe UI,Helvetica,Arial,sans-serif">2021-07-04</text>
<line x1="657.60" y1="468" x2="657.60" y2="474" stroke="#6b7280" stroke-width="1"/>
<text x="657.60" y="494" text-anchor="middle" fill="#9ca3af" font-size="12" font-family="-apple-system,BlinkMacSystemFont,Segoe UI,Helvetica,Arial,sans-serif">2023-02-08</text>
<line x1="846.80" y1="468" x2="846.80" y2="474" stroke="#6b7280" stroke-width="1"/>
<text x="846.80" y="494" text-anchor="middle" fill="#9ca3af" font-size="12" font-family="-apple-system,BlinkMacSystemFont,Segoe UI,Helvetica,Arial,sans-serif">2024-09-13</text>
<line x1="1036.00" y1="468" x2="1036.00" y2="474" stroke="#6b7280" stroke-width="1"/>
<text x="1036.00" y="494" text-anchor="end" fill="#9ca3af" font-size="12" font-family="-apple-system,BlinkMacSystemFont,Segoe UI,Helvetica,Arial,sans-serif">2026-04-20</text>
<polyline fill="none" stroke="url(#repo-0)" stroke-width="4" stroke-linecap="round" stroke-linejoin="round" points="718.97,468.00 725.65,467.53 738.62,467.07 752.23,466.60 754.18,466.13 757.42,465.67 769.09,465.20 771.36,464.74 776.87,464.27 777.20,463.80 782.06,463.34 789.84,462.87 802.16,462.40 805.40,461.94 809.62,461.47 813.19,461.01 828.10,460.54 832.64,460.07 833.29,459.61 834.58,459.14 840.74,458.67 854.36,458.21 857.28,457.74 864.09,457.28 869.60,456.81 870.25,456.34 870.90,455.88 891.00,455.41 893.59,454.94 894.24,454.48 900.40,454.01 901.05,453.55 904.94,453.55 906.23,453.08 906.56,452.61 906.88,452.15 909.80,451.68 911.42,451.21 913.04,450.75 918.23,450.75 922.77,450.75 924.39,450.28 925.04,450.28 931.85,449.82 935.74,449.35 947.41,448.88 949.68,448.42 950.33,448.42 952.27,447.95 954.22,447.48 957.14,447.48 962.32,447.02 969.13,446.55 973.35,446.09 984.69,445.62 986.96,445.15 991.83,444.69 992.15,444.22 993.12,443.75 995.72,443.29 996.04,443.29 1004.79,442.82 1011.60,442.36 1012.25,441.89 1014.52,441.42 1021.01,440.96 1023.27,440.49 1024.90,440.02 1026.52,439.56 1029.84,439.56 1030.80,439.56 1031.13,439.09 1031.78,439.09 1032.10,438.63 1032.43,439.09 1036.00,439.09"/>
<circle cx="718.97" cy="468.00" r="3.8" fill="#3bf2af" stroke="#111827" stroke-width="1"/>
<circle cx="752.23" cy="466.60" r="3.8" fill="#3bf2af" stroke="#111827" stroke-width="1"/>
<circle cx="769.09" cy="465.20" r="3.8" fill="#3bf2af" stroke="#111827" stroke-width="1"/>
<circle cx="777.20" cy="463.80" r="3.8" fill="#3bf2af" stroke="#111827" stroke-width="1"/>
<circle cx="802.16" cy="462.40" r="3.8" fill="#3bf2af" stroke="#111827" stroke-width="1"/>
<circle cx="813.19" cy="461.01" r="3.8" fill="#3bf2af" stroke="#111827" stroke-width="1"/>
<circle cx="833.29" cy="459.61" r="3.8" fill="#3bf2af" stroke="#111827" stroke-width="1"/>
<circle cx="854.36" cy="458.21" r="3.8" fill="#3bf2af" stroke="#111827" stroke-width="1"/>
<circle cx="869.60" cy="456.81" r="3.8" fill="#3bf2af" stroke="#111827" stroke-width="1"/>
<circle cx="891.00" cy="455.41" r="3.8" fill="#3bf2af" stroke="#111827" stroke-width="1"/>
<circle cx="900.40" cy="454.01" r="3.8" fill="#3bf2af" stroke="#111827" stroke-width="1"/>
<circle cx="906.23" cy="453.08" r="3.8" fill="#3bf2af" stroke="#111827" stroke-width="1"/>
<circle cx="909.80" cy="451.68" r="3.8" fill="#3bf2af" stroke="#111827" stroke-width="1"/>
<circle cx="918.23" cy="450.75" r="3.8" fill="#3bf2af" stroke="#111827" stroke-width="1"/>
<circle cx="925.04" cy="450.28" r="3.8" fill="#3bf2af" stroke="#111827" stroke-width="1"/>
<circle cx="947.41" cy="448.88" r="3.8" fill="#3bf2af" stroke="#111827" stroke-width="1"/>
<circle cx="952.27" cy="447.95" r="3.8" fill="#3bf2af" stroke="#111827" stroke-width="1"/>
<circle cx="962.32" cy="447.02" r="3.8" fill="#3bf2af" stroke="#111827" stroke-width="1"/>
<circle cx="984.69" cy="445.62" r="3.8" fill="#3bf2af" stroke="#111827" stroke-width="1"/>
<circle cx="992.15" cy="444.22" r="3.8" fill="#3bf2af" stroke="#111827" stroke-width="1"/>
<circle cx="996.04" cy="443.29" r="3.8" fill="#3bf2af" stroke="#111827" stroke-width="1"/>
<circle cx="1012.25" cy="441.89" r="3.8" fill="#3bf2af" stroke="#111827" stroke-width="1"/>
<circle cx="1023.27" cy="440.49" r="3.8" fill="#3bf2af" stroke="#111827" stroke-width="1"/>
<circle cx="1029.84" cy="439.56" r="3.8" fill="#3bf2af" stroke="#111827" stroke-width="1"/>
<circle cx="1031.78" cy="439.09" r="3.8" fill="#3bf2af" stroke="#111827" stroke-width="1"/>
<circle cx="1036.00" cy="439.09" r="3.8" fill="#3bf2af" stroke="#111827" stroke-width="1"/>
<text x="1028.00" y="429.09" text-anchor="end" fill="#3bf2af" font-size="12" font-family="-apple-system,BlinkMacSystemFont,Segoe UI,Helvetica,Arial,sans-serif">62</text>
<polyline fill="none" stroke="url(#repo-1)" stroke-width="4" stroke-linecap="round" stroke-linejoin="round" points="90.00,468.00 91.81,466.60 92.46,466.13 96.03,465.67 99.60,465.20 136.56,464.74 137.53,464.27 143.36,464.27 149.20,463.80 153.74,463.80 157.31,463.34 157.95,462.87 158.28,462.40 158.60,461.94 160.22,461.47 160.87,461.01 165.09,460.54 165.41,460.07 169.30,459.61 170.27,459.14 170.60,458.67 172.22,458.21 173.84,457.28 175.79,456.81 176.76,456.34 181.95,455.88 184.54,455.41 186.16,454.94 186.48,454.48 191.67,454.01 192.00,453.55 192.64,453.08 195.89,452.61 196.53,451.68 196.86,451.68 197.18,451.68 203.02,451.21 204.64,451.21 210.80,450.75 212.10,450.28 212.75,450.28 215.34,449.82 218.26,449.35 222.15,449.35 222.47,448.88 224.74,448.42 227.01,447.95 230.25,447.48 231.23,447.02 233.49,446.55 235.76,446.09 237.71,445.62 238.03,445.15 238.36,444.69 240.95,444.22 241.60,443.75 242.25,442.82 242.57,442.36 242.90,441.42 243.22,440.96 245.81,440.49 246.46,439.56 249.06,439.56 254.57,439.09 255.22,439.09 255.54,438.63 255.87,438.16 256.51,438.16 257.81,437.69 258.13,437.23 260.08,436.76 260.40,436.29 262.67,435.83 263.65,434.90 264.29,433.96 265.27,433.96 266.89,433.50 267.21,433.03 268.19,432.56 271.10,432.10 274.67,431.63 275.64,431.17 276.61,430.70 276.94,430.23 278.24,429.77 278.56,429.30 279.21,428.83 280.18,427.44 281.80,426.97 282.45,426.50 282.78,426.04 283.10,424.64 284.72,424.17 285.69,423.70 286.34,423.24 287.64,423.24 287.96,422.77 289.58,422.31 293.15,421.84 295.10,421.37 296.72,421.37 297.04,420.44 299.31,419.97 300.93,419.51 301.26,419.51 303.20,419.04 303.52,418.58 304.17,418.58 305.15,418.58 305.47,418.11 305.79,417.64 306.12,417.18 310.66,415.78 314.55,415.31 314.87,414.85 315.52,414.38 316.82,413.91 317.14,413.45 318.76,413.45 319.41,412.98 319.74,412.51 320.06,412.05 320.38,411.58 322.00,411.12 325.25,410.65 326.54,410.18 326.87,410.18 327.52,409.72 327.84,409.72 328.49,408.32 329.14,407.85 329.79,407.85 331.08,407.39 331.73,406.92 333.68,406.45 334.00,405.99 335.30,405.52 337.24,405.05 338.54,404.59 339.84,404.59 340.16,404.12 340.81,403.66 341.78,403.19 342.75,402.72 344.38,402.26 346.00,401.79 347.62,401.32 350.54,400.86 353.13,400.39 353.45,399.93 353.78,399.46 358.64,398.99 359.61,398.53 360.59,398.06 360.91,397.13 361.88,396.66 364.15,395.73 364.48,394.80 366.10,394.33 368.04,394.33 371.28,393.86 372.26,393.40 373.23,392.93 374.53,392.00 375.18,391.53 375.50,391.07 376.15,390.60 377.77,389.67 379.07,389.20 383.28,388.27 384.90,386.87 385.87,385.94 388.79,385.94 389.44,385.94 389.76,385.47 390.09,384.54 391.71,383.61 392.68,383.14 393.98,382.67 394.30,382.21 394.95,381.74 397.22,381.27 397.55,380.81 398.19,380.34 400.46,379.88 401.11,379.41 402.41,378.94 403.38,378.48 403.71,378.01 404.03,377.54 407.92,377.08 408.57,376.61 409.87,375.68 410.19,375.21 411.49,374.75 412.78,371.48 413.11,370.55 413.43,370.08 415.05,369.62 415.70,369.15 417.32,369.15 418.62,368.69 419.59,368.22 421.54,367.29 422.83,366.82 424.46,366.35 424.78,365.89 425.43,365.42 426.08,364.49 426.73,364.02 427.05,364.02 428.02,364.02 428.35,363.56 428.67,363.09 428.99,362.62 430.62,362.16 431.26,361.23 432.56,360.76 433.21,359.83 434.18,359.36 434.83,358.89 435.80,358.43 437.10,357.96 438.40,357.96 439.69,357.50 440.02,357.03 441.64,356.56 441.96,356.10 442.61,355.63 442.94,355.16 443.58,354.70 443.91,353.30 445.53,352.83 446.83,352.37 448.45,351.90 452.99,350.97 453.31,350.50 453.63,350.50 453.96,350.04 454.93,349.57 455.26,349.10 455.58,348.64 455.90,347.70 457.20,347.24 457.85,346.31 458.17,344.91 459.15,344.91 459.47,344.91 460.12,343.97 462.06,343.51 462.39,342.58 462.71,342.11 464.01,341.64 466.28,341.18 466.60,340.71 467.25,340.24 469.52,339.78 471.14,339.31 472.76,339.31 475.68,339.31 476.98,338.84 477.30,338.38 477.63,338.38 478.27,337.91 478.60,336.98 478.92,336.51 479.90,336.05 480.22,335.58 481.19,335.11 482.81,334.18 483.14,334.18 483.46,333.25 483.79,332.78 484.11,331.38 484.43,330.45 484.76,329.99 485.41,329.52 485.73,327.65 486.06,327.19 487.03,326.72 487.68,325.79 488.33,325.32 489.62,324.86 490.92,324.39 491.24,323.92 491.57,323.46 491.89,322.99 493.51,322.53 494.81,322.06 495.13,321.59 496.43,320.66 496.75,319.73 497.08,319.73 500.32,319.26 500.65,318.80 501.29,318.33 502.91,317.40 503.56,316.93 504.21,316.46 505.51,316.46 506.16,315.53 506.48,315.53 506.81,313.67 507.13,311.34 508.43,310.87 508.75,310.40 509.40,309.94 509.72,309.47 510.70,309.00 511.02,308.54 512.32,308.07 515.23,307.61 516.21,307.14 517.18,306.67 517.50,305.27 517.83,304.81 518.15,304.34 518.48,303.88 519.13,303.41 521.39,303.41 522.69,302.94 523.02,302.48 523.34,302.01 524.31,301.54 525.61,301.54 526.91,301.08 528.53,300.61 528.85,300.15 532.42,299.68 534.04,299.21 534.69,298.28 535.34,297.81 537.93,297.35 538.58,296.88 538.90,296.41 539.87,295.95 540.52,295.48 541.17,295.48 541.82,295.02 542.47,294.55 543.77,294.08 544.09,293.62 544.41,293.15 546.03,293.15 546.68,292.68 547.01,292.22 547.98,291.29 548.63,290.35 549.28,289.89 550.90,288.95 551.22,288.95 551.55,288.49 552.52,288.02 553.17,287.56 553.82,287.09 555.44,286.62 558.36,286.16 558.68,285.69 559.98,285.22 560.30,284.76 561.60,284.29 561.92,283.83 562.25,281.96 562.89,281.49 563.87,281.03 564.19,280.56 564.52,280.10 565.16,279.63 566.46,279.16 567.43,279.16 567.76,278.70 571.97,278.23 572.30,277.76 573.27,276.83 573.92,276.37 576.19,275.90 577.16,275.43 577.48,274.97 577.81,274.50 580.40,273.57 580.73,273.10 581.05,271.24 582.02,270.77 582.35,270.30 583.00,269.84 585.26,269.37 585.91,268.91 586.56,268.91 587.53,268.44 587.86,267.97 588.83,267.51 594.34,267.04 595.64,266.11 595.96,265.64 597.58,265.18 598.23,265.18 598.56,264.24 598.88,264.24 599.21,263.78 600.18,263.31 601.15,262.84 601.48,262.38 603.42,261.91 603.74,261.45 604.39,260.51 605.37,260.05 606.01,259.58 606.34,259.11 607.64,258.65 608.28,258.65 608.93,258.18 609.90,257.72 610.23,257.25 614.44,256.78 615.42,256.78 616.39,256.32 616.71,255.85 618.33,255.38 618.66,254.45 618.98,253.98 619.31,253.05 620.60,252.59 621.58,252.12 623.85,251.19 624.82,250.72 625.14,250.25 625.79,250.25 626.44,248.86 628.38,248.39 628.71,247.92 631.95,247.46 632.28,246.99 633.25,245.59 633.57,245.13 634.54,244.66 634.87,244.66 635.19,244.19 636.81,243.73 637.14,242.79 638.11,241.86 639.73,241.40 641.03,240.93 642.00,240.93 645.57,240.93 645.89,240.93 647.84,240.93 648.49,240.00 649.13,240.00 650.43,240.00 650.76,240.00 653.35,239.53 656.27,239.06 656.92,238.60 657.24,237.67 657.56,237.20 660.48,236.73 661.78,236.73 662.10,236.27 662.43,235.80 663.08,235.80 664.37,235.33 664.70,234.87 665.34,234.40 666.64,233.94 668.26,233.47 668.59,233.47 669.24,233.00 669.56,232.54 669.88,232.54 670.21,232.07 670.53,231.60 671.18,231.14 675.07,230.67 677.34,230.67 679.61,230.67 680.58,230.67 680.91,230.21 681.23,229.74 682.20,229.74 682.53,229.27 684.80,228.81 685.12,228.34 686.42,228.34 686.74,227.87 687.07,227.41 688.36,226.94 689.34,226.94 690.63,226.01 691.61,226.01 691.93,226.01 693.88,225.54 694.52,224.61 695.50,224.14 695.82,223.68 696.47,223.21 698.41,222.28 699.06,222.28 699.71,221.81 700.04,221.35 700.68,220.88 701.01,220.41 701.98,219.95 702.31,219.02 702.95,218.55 704.25,218.08 704.57,217.62 705.22,216.68 705.87,216.22 707.17,215.75 707.49,215.29 708.79,214.82 710.09,214.35 711.71,214.35 712.68,213.89 713.00,213.42 714.63,213.42 714.95,212.95 716.25,212.49 717.22,211.09 717.87,211.09 718.84,210.62 720.14,210.16 720.46,209.69 721.11,209.22 723.70,208.76 725.65,208.29 727.92,207.82 731.48,207.36 731.81,207.36 732.13,206.89 734.08,205.49 734.73,205.03 735.05,204.56 735.37,204.09 736.35,203.63 736.67,203.16 737.32,202.70 739.91,201.76 741.53,201.30 742.18,201.30 743.80,201.30 745.10,200.83 748.02,200.36 749.32,200.36 751.26,199.90 757.10,199.90 759.37,199.90 760.01,199.43 762.93,198.97 763.58,198.50 764.23,198.03 766.17,197.57 766.82,197.10 767.47,196.17 767.80,196.17 768.12,195.70 770.71,195.24 773.63,194.77 775.25,194.30 777.20,193.84 780.12,193.84 782.71,192.44 784.01,191.97 784.65,191.51 785.95,191.04 787.57,190.57 788.22,190.11 788.87,189.64 790.81,189.17 792.11,188.71 792.44,187.78 795.35,187.78 795.68,187.31 796.00,187.31 796.65,186.84 797.62,186.84 798.92,186.38 800.87,185.91 801.19,185.44 802.16,185.44 804.43,185.44 806.70,184.98 808.65,184.51 811.24,184.05 811.89,183.58 812.21,183.11 813.19,183.11 813.51,182.65 813.83,182.18 814.48,181.25 815.78,180.78 818.05,180.32 818.37,179.85 819.35,178.92 821.29,178.45 822.91,177.98 823.24,177.52 824.53,177.05 825.51,176.59 825.83,176.59 827.13,176.12 827.77,176.12 829.40,175.65 829.72,175.19 830.04,173.79 831.99,173.32 832.96,172.86 833.29,172.39 835.23,172.39 836.53,171.92 836.85,170.52 837.18,170.52 839.45,169.12 841.07,168.66 844.96,168.19 845.28,167.73 847.23,167.26 850.15,166.79 853.39,166.33 855.33,165.39 855.66,164.93 855.98,164.46 856.63,164.00 859.22,163.53 861.49,163.06 864.74,162.60 865.06,162.60 867.98,162.13 868.95,161.66 870.25,161.20 880.30,160.73 881.59,159.80 881.92,159.33 885.16,158.87 886.78,157.93 889.05,157.47 889.70,157.47 890.02,157.00 891.97,156.54 893.27,156.07 893.91,155.60 894.24,155.14 894.56,154.67 895.54,154.20 897.16,153.74 897.48,153.74 899.10,153.27 901.37,152.81 903.64,152.34 904.29,151.87 907.86,151.41 908.18,150.94 909.80,150.47 911.42,150.01 914.34,149.54 915.64,149.08 917.91,149.08 918.23,148.61 918.88,148.61 920.50,148.14 920.82,147.68 921.47,147.21 922.44,146.28 922.77,144.88 923.09,143.95 923.42,143.48 924.71,143.01 925.04,143.01 926.98,142.55 927.31,142.08 928.93,141.62 929.25,141.15 929.90,140.68 930.55,140.68 931.52,140.22 934.76,139.75 940.60,139.28 941.90,138.82 943.52,138.35 944.82,137.89 946.11,137.42 947.08,136.95 948.06,136.02 950.33,136.02 951.95,135.55 952.60,135.55 954.87,135.55 955.19,135.55 955.51,135.09 959.08,134.62 961.03,134.16 961.35,134.16 964.27,133.69 969.13,133.22 970.43,133.22 970.75,132.76 971.73,132.29 975.62,131.82 980.15,131.36 980.48,131.36 984.69,130.89 987.29,130.43 999.93,129.96 1002.85,129.03 1003.82,128.56 1005.44,128.09 1005.77,127.16 1011.60,126.69 1014.20,126.23 1019.38,125.76 1021.01,125.30 1023.27,124.83 1029.84,124.83 1032.75,124.83 1033.07,124.36 1033.73,124.36 1034.05,124.83 1035.02,124.83 1035.34,125.30 1036.00,125.30"/>
<circle cx="90.00" cy="468.00" r="3.8" fill="#ffb50c" stroke="#111827" stroke-width="1"/>
<circle cx="192.00" cy="453.55" r="3.8" fill="#ffb50c" stroke="#111827" stroke-width="1"/>
<circle cx="245.81" cy="440.49" r="3.8" fill="#ffb50c" stroke="#111827" stroke-width="1"/>
<circle cx="282.78" cy="426.04" r="3.8" fill="#ffb50c" stroke="#111827" stroke-width="1"/>
<circle cx="319.74" cy="412.51" r="3.8" fill="#ffb50c" stroke="#111827" stroke-width="1"/>
<circle cx="353.78" cy="399.46" r="3.8" fill="#ffb50c" stroke="#111827" stroke-width="1"/>
<circle cx="394.95" cy="381.74" r="3.8" fill="#ffb50c" stroke="#111827" stroke-width="1"/>
<circle cx="427.05" cy="364.02" r="3.8" fill="#ffb50c" stroke="#111827" stroke-width="1"/>
<circle cx="455.26" cy="349.10" r="3.8" fill="#ffb50c" stroke="#111827" stroke-width="1"/>
<circle cx="483.14" cy="334.18" r="3.8" fill="#ffb50c" stroke="#111827" stroke-width="1"/>
<circle cx="506.16" cy="315.53" r="3.8" fill="#ffb50c" stroke="#111827" stroke-width="1"/>
<circle cx="534.69" cy="298.28" r="3.8" fill="#ffb50c" stroke="#111827" stroke-width="1"/>
<circle cx="561.60" cy="284.29" r="3.8" fill="#ffb50c" stroke="#111827" stroke-width="1"/>
<circle cx="588.83" cy="267.51" r="3.8" fill="#ffb50c" stroke="#111827" stroke-width="1"/>
<circle cx="619.31" cy="253.05" r="3.8" fill="#ffb50c" stroke="#111827" stroke-width="1"/>
<circle cx="653.35" cy="239.53" r="3.8" fill="#ffb50c" stroke="#111827" stroke-width="1"/>
<circle cx="684.80" cy="228.81" r="3.8" fill="#ffb50c" stroke="#111827" stroke-width="1"/>
<circle cx="708.79" cy="214.82" r="3.8" fill="#ffb50c" stroke="#111827" stroke-width="1"/>
<circle cx="743.80" cy="201.30" r="3.8" fill="#ffb50c" stroke="#111827" stroke-width="1"/>
<circle cx="792.44" cy="187.78" r="3.8" fill="#ffb50c" stroke="#111827" stroke-width="1"/>
<circle cx="827.13" cy="176.12" r="3.8" fill="#ffb50c" stroke="#111827" stroke-width="1"/>
<circle cx="880.30" cy="160.73" r="3.8" fill="#ffb50c" stroke="#111827" stroke-width="1"/>
<circle cx="920.82" cy="147.68" r="3.8" fill="#ffb50c" stroke="#111827" stroke-width="1"/>
<circle cx="961.03" cy="134.16" r="3.8" fill="#ffb50c" stroke="#111827" stroke-width="1"/>
<circle cx="1036.00" cy="125.30" r="3.8" fill="#ffb50c" stroke="#111827" stroke-width="1"/>
<text x="1028.00" y="115.30" text-anchor="end" fill="#ffb50c" font-size="12" font-family="-apple-system,BlinkMacSystemFont,Segoe UI,Helvetica,Arial,sans-serif">735</text>
<rect x="90.00" y="514.00" width="14" height="14" fill="url(#repo-0)" rx="3"/>
<text x="112.00" y="526.00" fill="#3bf2af" font-size="13" font-family="-apple-system,BlinkMacSystemFont,Segoe UI,Helvetica,Arial,sans-serif">bavix/gripmock</text>
<rect x="280.00" y="514.00" width="14" height="14" fill="url(#repo-1)" rx="3"/>
<text x="302.00" y="526.00" fill="#ffb50c" font-size="13" font-family="-apple-system,BlinkMacSystemFont,Segoe UI,Helvetica,Arial,sans-serif">tokopedia/gripmock</text>
<text x="1036.00" y="526.00" text-anchor="end" fill="#9ca3af" font-size="12" font-family="-apple-system,BlinkMacSystemFont,Segoe UI,Helvetica,Arial,sans-serif">Source: https://github.com/bavix/artifact-stats/blob/master/stats/github.csv</text>
</svg>