<svg xmlns="http://www.w3.org/2000/svg" width="1100" height="560" viewBox="0 0 1100 560">
<defs>
<linearGradient id="bg" x1="0" y1="0" x2="1" y2="1"><stop offset="0%" stop-color="#0b1220"/><stop offset="100%" stop-color="#111827"/></linearGradient>
<linearGradient id="repo-0" x1="0" y1="0" x2="0" y2="1"><stop offset="0%" stop-color="#34d399"/><stop offset="100%" stop-color="#059669"/></linearGradient>
<linearGradient id="repo-1" x1="0" y1="0" x2="0" y2="1"><stop offset="0%" stop-color="#f59e0b"/><stop offset="100%" stop-color="#d97706"/></linearGradient>
</defs>
<rect x="0" y="0" width="1100" height="560" fill="url(#bg)" rx="16"/>
<text x="90" y="44" fill="#f9fafb" font-size="28" font-family="-apple-system,BlinkMacSystemFont,Segoe UI,Helvetica,Arial,sans-serif" font-weight="700">GripMock GitHub Metrics - Stars</text>
<text x="90" y="70" fill="#9ca3af" font-size="16" font-family="-apple-system,BlinkMacSystemFont,Segoe UI,Helvetica,Arial,sans-serif">GitHub stars by snapshot date</text>
<line x1="90" y1="90.00" x2="1036" y2="90.00" stroke="#1f2937" stroke-width="1"/>
<text x="80" y="95.00" text-anchor="end" fill="#9ca3af" font-size="12" font-family="-apple-system,BlinkMacSystemFont,Segoe UI,Helvetica,Arial,sans-serif">811</text>
<line x1="90" y1="153.00" x2="1036" y2="153.00" stroke="#1f2937" stroke-width="1"/>
<text x="80" y="158.00" text-anchor="end" fill="#9ca3af" font-size="12" font-family="-apple-system,BlinkMacSystemFont,Segoe UI,Helvetica,Arial,sans-serif">676</text>
<line x1="90" y1="216.00" x2="1036" y2="216.00" stroke="#1f2937" stroke-width="1"/>
<text x="80" y="221.00" text-anchor="end" fill="#9ca3af" font-size="12" font-family="-apple-system,BlinkMacSystemFont,Segoe UI,Helvetica,Arial,sans-serif">540</text>
<line x1="90" y1="279.00" x2="1036" y2="279.00" stroke="#1f2937" stroke-width="1"/>
<text x="80" y="284.00" text-anchor="end" fill="#9ca3af" font-size="12" font-family="-apple-system,BlinkMacSystemFont,Segoe UI,Helvetica,Arial,sans-serif">405</text>
<line x1="90" y1="342.00" x2="1036" y2="342.00" stroke="#1f2937" stroke-width="1"/>
<text x="80" y="347.00" text-anchor="end" fill="#9ca3af" font-size="12" font-family="-apple-system,BlinkMacSystemFont,Segoe UI,Helvetica,Arial,sans-serif">270</text>
<line x1="90" y1="405.00" x2="1036" y2="405.00" stroke="#1f2937" stroke-width="1"/>
<text x="80" y="410.00" text-anchor="end" fill="#9ca3af" font-size="12" font-family="-apple-system,BlinkMacSystemFont,Segoe UI,Helvetica,Arial,sans-serif">135</text>
<line x1="90" y1="468.00" x2="1036" y2="468.00" stroke="#1f2937" stroke-width="1"/>
<text x="80" y="473.00" text-anchor="end" fill="#9ca3af" font-size="12" font-family="-apple-system,BlinkMacSystemFont,Segoe UI,Helvetica,Arial,sans-serif">0</text>
<line x1="90" y1="468" x2="1036" y2="468" stroke="#4b5563" stroke-width="1.4"/>
<line x1="90" y1="90" x2="90" y2="468" stroke="#4b5563" stroke-width="1.4"/>
<line x1="90.00" y1="468" x2="90.00" y2="474" stroke="#6b7280" stroke-width="1"/>
<text x="90.00" y="494" text-anchor="start" fill="#9ca3af" font-size="12" font-family="-apple-system,BlinkMacSystemFont,Segoe UI,Helvetica,Arial,sans-serif">2018-04-24</text>
<line x1="279.20" y1="468" x2="279.20" y2="474" stroke="#6b7280" stroke-width="1"/>
<text x="279.20" y="494" text-anchor="middle" fill="#9ca3af" font-size="12" font-family="-apple-system,BlinkMacSystemFont,Segoe UI,Helvetica,Arial,sans-serif">2019-11-29</text>
<line x1="468.40" y1="468" x2="468.40" y2="474" stroke="#6b7280" stroke-width="1"/>
<text x="468.40" y="494" text-anchor="middle" fill="#9ca3af" font-size="12" font-family="-apple-system,BlinkMacSystemFont,Segoe UI,Helvetica,Arial,sans-serif">2021-07-05</text>
<line x1="657.60" y1="468" x2="657.60" y2="474" stroke="#6b7280" stroke-width="1"/>
<text x="657.60" y="494" text-anchor="middle" fill="#9ca3af" font-size="12" font-family="-apple-system,BlinkMacSystemFont,Segoe UI,Helvetica,Arial,sans-serif">2023-02-09</text>
<line x1="846.80" y1="468" x2="846.80" y2="474" stroke="#6b7280" stroke-width="1"/>
<text x="846.80" y="494" text-anchor="middle" fill="#9ca3af" font-size="12" font-family="-apple-system,BlinkMacSystemFont,Segoe UI,Helvetica,Arial,sans-serif">2024-09-15</text>
<line x1="1036.00" y1="468" x2="1036.00" y2="474" stroke="#6b7280" stroke-width="1"/>
<text x="1036.00" y="494" text-anchor="end" fill="#9ca3af" font-size="12" font-family="-apple-system,BlinkMacSystemFont,Segoe UI,Helvetica,Arial,sans-serif">2026-04-22</text>
<polyline fill="none" stroke="url(#repo-0)" stroke-width="4" stroke-linecap="round" stroke-linejoin="round" points="718.54,468.00 725.22,467.53 738.18,467.07 751.78,466.60 753.73,466.13 756.97,465.67 768.63,465.20 770.90,464.74 776.41,464.27 776.73,463.80 781.59,463.34 789.37,462.87 801.68,462.40 804.92,461.94 809.13,461.47 812.69,461.01 827.60,460.54 832.13,460.07 832.78,459.61 834.08,459.14 840.23,458.67 853.84,458.21 856.76,457.74 863.56,457.28 869.07,456.81 869.72,456.34 870.36,455.88 890.45,455.41 893.04,454.94 893.69,454.48 899.85,454.01 900.50,453.55 904.38,453.55 905.68,453.08 906.00,452.61 906.33,452.15 909.24,451.68 910.86,451.21 912.48,450.75 917.67,450.75 922.20,450.75 923.82,450.28 924.47,450.28 931.27,449.82 935.16,449.35 946.83,448.88 949.09,448.42 949.74,448.42 951.69,447.95 953.63,447.48 956.55,447.48 961.73,447.02 968.53,446.55 972.75,446.09 984.09,445.62 986.35,445.15 991.21,444.69 991.54,444.22 992.51,443.75 995.10,443.29 995.43,443.29 1004.17,442.82 1010.98,442.36 1011.62,441.89 1013.89,441.42 1020.37,440.96 1022.64,440.49 1024.26,440.02 1025.88,439.56 1029.20,439.56 1030.16,439.56 1030.49,439.09 1031.14,439.09 1031.46,438.63 1031.79,439.09 1036.00,439.09"/>
<circle cx="718.54" cy="468.00" r="3.8" fill="#3bf2af" stroke="#111827" stroke-width="1"/>
<circle cx="751.78" cy="466.60" r="3.8" fill="#3bf2af" stroke="#111827" stroke-width="1"/>
<circle cx="768.63" cy="465.20" r="3.8" fill="#3bf2af" stroke="#111827" stroke-width="1"/>
<circle cx="776.73" cy="463.80" r="3.8" fill="#3bf2af" stroke="#111827" stroke-width="1"/>
<circle cx="801.68" cy="462.40" r="3.8" fill="#3bf2af" stroke="#111827" stroke-width="1"/>
<circle cx="812.69" cy="461.01" r="3.8" fill="#3bf2af" stroke="#111827" stroke-width="1"/>
<circle cx="832.78" cy="459.61" r="3.8" fill="#3bf2af" stroke="#111827" stroke-width="1"/>
<circle cx="853.84" cy="458.21" r="3.8" fill="#3bf2af" stroke="#111827" stroke-width="1"/>
<circle cx="869.07" cy="456.81" r="3.8" fill="#3bf2af" stroke="#111827" stroke-width="1"/>
<circle cx="890.45" cy="455.41" r="3.8" fill="#3bf2af" stroke="#111827" stroke-width="1"/>
<circle cx="899.85" cy="454.01" r="3.8" fill="#3bf2af" stroke="#111827" stroke-width="1"/>
<circle cx="905.68" cy="453.08" r="3.8" fill="#3bf2af" stroke="#111827" stroke-width="1"/>
<circle cx="909.24" cy="451.68" r="3.8" fill="#3bf2af" stroke="#111827" stroke-width="1"/>
<circle cx="917.67" cy="450.75" r="3.8" fill="#3bf2af" stroke="#111827" stroke-width="1"/>
<circle cx="924.47" cy="450.28" r="3.8" fill="#3bf2af" stroke="#111827" stroke-width="1"/>
<circle cx="946.83" cy="448.88" r="3.8" fill="#3bf2af" stroke="#111827" stroke-width="1"/>
<circle cx="951.69" cy="447.95" r="3.8" fill="#3bf2af" stroke="#111827" stroke-width="1"/>
<circle cx="961.73" cy="447.02" r="3.8" fill="#3bf2af" stroke="#111827" stroke-width="1"/>
<circle cx="984.09" cy="445.62" r="3.8" fill="#3bf2af" stroke="#111827" stroke-width="1"/>
<circle cx="991.54" cy="444.22" r="3.8" fill="#3bf2af" stroke="#111827" stroke-width="1"/>
<circle cx="995.43" cy="443.29" r="3.8" fill="#3bf2af" stroke="#111827" stroke-width="1"/>
<circle cx="1011.62" cy="441.89" r="3.8" fill="#3bf2af" stroke="#111827" stroke-width="1"/>
<circle cx="1022.64" cy="440.49" r="3.8" fill="#3bf2af" stroke="#111827" stroke-width="1"/>
<circle cx="1029.20" cy="439.56" r="3.8" fill="#3bf2af" stroke="#111827" stroke-width="1"/>
<circle cx="1031.14" cy="439.09" r="3.8" fill="#3bf2af" stroke="#111827" stroke-width="1"/>
<circle cx="1036.00" cy="439.09" r="3.8" fill="#3bf2af" stroke="#111827" stroke-width="1"/>
<text x="1028.00" y="429.09" text-anchor="end" fill="#3bf2af" font-size="12" font-family="-apple-system,BlinkMacSystemFont,Segoe UI,Helvetica,Arial,sans-serif">62</text>
<polyline fill="none" stroke="url(#repo-1)" stroke-width="4" stroke-linecap="round" stroke-linejoin="round" points="90.00,468.00 91.81,466.60 92.46,466.13 96.02,465.67 99.59,465.20 136.52,464.74 137.50,464.27 143.33,464.27 149.16,463.80 153.70,463.80 157.26,463.34 157.91,462.87 158.23,462.40 158.56,461.94 160.18,461.47 160.82,461.01 165.04,460.54 165.36,460.07 169.25,459.61 170.22,459.14 170.54,458.67 172.16,458.21 173.78,457.28 175.73,456.81 176.70,456.34 181.88,455.88 184.47,455.41 186.09,454.94 186.42,454.48 191.60,454.01 191.93,453.55 192.57,453.08 195.81,452.61 196.46,451.68 196.79,451.68 197.11,451.68 202.94,451.21 204.56,451.21 210.72,450.75 212.01,450.28 212.66,450.28 215.25,449.82 218.17,449.35 222.06,449.35 222.38,448.88 224.65,448.42 226.92,447.95 230.16,447.48 231.13,447.02 233.40,446.55 235.67,446.09 237.61,445.62 237.93,445.15 238.26,444.69 240.85,444.22 241.50,443.75 242.15,442.82 242.47,442.36 242.79,441.42 243.12,440.96 245.71,440.49 246.36,439.56 248.95,439.56 254.46,439.09 255.10,439.09 255.43,438.63 255.75,438.16 256.40,438.16 257.70,437.69 258.02,437.23 259.96,436.76 260.29,436.29 262.56,435.83 263.53,434.90 264.18,433.96 265.15,433.96 266.77,433.50 267.09,433.03 268.06,432.56 270.98,432.10 274.54,431.63 275.52,431.17 276.49,430.70 276.81,430.23 278.11,429.77 278.43,429.30 279.08,428.83 280.05,427.44 281.67,426.97 282.32,426.50 282.64,426.04 282.97,424.64 284.59,424.17 285.56,423.70 286.21,423.24 287.50,423.24 287.83,422.77 289.45,422.31 293.01,421.84 294.96,421.37 296.58,421.37 296.90,420.44 299.17,419.97 300.79,419.51 301.11,419.51 303.06,419.04 303.38,418.58 304.03,418.58 305.00,418.58 305.32,418.11 305.65,417.64 305.97,417.18 310.51,415.78 314.40,415.31 314.72,414.85 315.37,414.38 316.66,413.91 316.99,413.45 318.61,413.45 319.26,412.98 319.58,412.51 319.90,412.05 320.23,411.58 321.85,411.12 325.09,410.65 326.38,410.18 326.71,410.18 327.35,409.72 327.68,409.72 328.33,408.32 328.97,407.85 329.62,407.85 330.92,407.39 331.57,406.92 333.51,406.45 333.83,405.99 335.13,405.52 337.07,405.05 338.37,404.59 339.67,404.59 339.99,404.12 340.64,403.66 341.61,403.19 342.58,402.72 344.20,402.26 345.82,401.79 347.44,401.32 350.36,400.86 352.95,400.39 353.27,399.93 353.60,399.46 358.46,398.99 359.43,398.53 360.40,398.06 360.73,397.13 361.70,396.66 363.97,395.73 364.29,394.80 365.91,394.33 367.85,394.33 371.09,393.86 372.07,393.40 373.04,392.93 374.33,392.00 374.98,391.53 375.31,391.07 375.95,390.60 377.57,389.67 378.87,389.20 383.08,388.27 384.70,386.87 385.67,385.94 388.59,385.94 389.24,385.94 389.56,385.47 389.89,384.54 391.51,383.61 392.48,383.14 393.77,382.67 394.10,382.21 394.75,381.74 397.01,381.27 397.34,380.81 397.98,380.34 400.25,379.88 400.90,379.41 402.20,378.94 403.17,378.48 403.49,378.01 403.82,377.54 407.70,377.08 408.35,376.61 409.65,375.68 409.97,375.21 411.27,374.75 412.56,371.48 412.89,370.55 413.21,370.08 414.83,369.62 415.48,369.15 417.10,369.15 418.40,368.69 419.37,368.22 421.31,367.29 422.61,366.82 424.23,366.35 424.55,365.89 425.20,365.42 425.85,364.49 426.50,364.02 426.82,364.02 427.79,364.02 428.12,363.56 428.44,363.09 428.76,362.62 430.38,362.16 431.03,361.23 432.33,360.76 432.98,359.83 433.95,359.36 434.60,358.89 435.57,358.43 436.86,357.96 438.16,357.96 439.46,357.50 439.78,357.03 441.40,356.56 441.72,356.10 442.37,355.63 442.70,355.16 443.34,354.70 443.67,353.30 445.29,352.83 446.58,352.37 448.20,351.90 452.74,350.97 453.06,350.50 453.39,350.50 453.71,350.04 454.68,349.57 455.01,349.10 455.33,348.64 455.66,347.70 456.95,347.24 457.60,346.31 457.92,344.91 458.90,344.91 459.22,344.91 459.87,343.97 461.81,343.51 462.14,342.58 462.46,342.11 463.76,341.64 466.02,341.18 466.35,340.71 467.00,340.24 469.26,339.78 470.88,339.31 472.50,339.31 475.42,339.31 476.71,338.84 477.04,338.38 477.36,338.38 478.01,337.91 478.33,336.98 478.66,336.51 479.63,336.05 479.95,335.58 480.93,335.11 482.55,334.18 482.87,334.18 483.19,333.25 483.52,332.78 483.84,331.38 484.17,330.45 484.49,329.99 485.14,329.52 485.46,327.65 485.79,327.19 486.76,326.72 487.41,325.79 488.05,325.32 489.35,324.86 490.65,324.39 490.97,323.92 491.29,323.46 491.62,322.99 493.24,322.53 494.53,322.06 494.86,321.59 496.15,320.66 496.48,319.73 496.80,319.73 500.04,319.26 500.37,318.80 501.01,318.33 502.63,317.40 503.28,316.93 503.93,316.46 505.23,316.46 505.87,315.53 506.20,315.53 506.52,313.67 506.85,311.34 508.14,310.87 508.47,310.40 509.11,309.94 509.44,309.47 510.41,309.00 510.73,308.54 512.03,308.07 514.95,307.61 515.92,307.14 516.89,306.67 517.21,305.27 517.54,304.81 517.86,304.34 518.19,303.88 518.83,303.41 521.10,303.41 522.40,302.94 522.72,302.48 523.05,302.01 524.02,301.54 525.31,301.54 526.61,301.08 528.23,300.61 528.55,300.15 532.12,299.68 533.74,299.21 534.39,298.28 535.03,297.81 537.63,297.35 538.27,296.88 538.60,296.41 539.57,295.95 540.22,295.48 540.87,295.48 541.51,295.02 542.16,294.55 543.46,294.08 543.78,293.62 544.11,293.15 545.73,293.15 546.37,292.68 546.70,292.22 547.67,291.29 548.32,290.35 548.96,289.89 550.58,288.95 550.91,288.95 551.23,288.49 552.20,288.02 552.85,287.56 553.50,287.09 555.12,286.62 558.04,286.16 558.36,285.69 559.66,285.22 559.98,284.76 561.28,284.29 561.60,283.83 561.92,281.96 562.57,281.49 563.54,281.03 563.87,280.56 564.19,280.10 564.84,279.63 566.14,279.16 567.11,279.16 567.43,278.70 571.64,278.23 571.97,277.76 572.94,276.83 573.59,276.37 575.86,275.90 576.83,275.43 577.15,274.97 577.48,274.50 580.07,273.57 580.39,273.10 580.72,271.24 581.69,270.77 582.01,270.30 582.66,269.84 584.93,269.37 585.58,268.91 586.22,268.91 587.20,268.44 587.52,267.97 588.49,267.51 594.00,267.04 595.30,266.11 595.62,265.64 597.24,265.18 597.89,265.18 598.21,264.24 598.54,264.24 598.86,263.78 599.83,263.31 600.80,262.84 601.13,262.38 603.07,261.91 603.40,261.45 604.04,260.51 605.02,260.05 605.66,259.58 605.99,259.11 607.28,258.65 607.93,258.65 608.58,258.18 609.55,257.72 609.88,257.25 614.09,256.78 615.06,256.78 616.03,256.32 616.36,255.85 617.98,255.38 618.30,254.45 618.62,253.98 618.95,253.05 620.24,252.59 621.22,252.12 623.48,251.19 624.45,250.72 624.78,250.25 625.43,250.25 626.07,248.86 628.02,248.39 628.34,247.92 631.58,247.46 631.91,246.99 632.88,245.59 633.20,245.13 634.17,244.66 634.50,244.66 634.82,244.19 636.44,243.73 636.77,242.79 637.74,241.86 639.36,241.40 640.65,240.93 641.63,240.93 645.19,240.93 645.51,240.93 647.46,240.93 648.11,240.00 648.75,240.00 650.05,240.00 650.37,240.00 652.97,239.53 655.88,239.06 656.53,238.60 656.85,237.67 657.18,237.20 660.09,236.73 661.39,236.73 661.71,236.27 662.04,235.80 662.69,235.80 663.98,235.33 664.31,234.87 664.95,234.40 666.25,233.94 667.87,233.47 668.19,233.47 668.84,233.00 669.17,232.54 669.49,232.54 669.81,232.07 670.14,231.60 670.79,231.14 674.67,230.67 676.94,230.67 679.21,230.67 680.18,230.67 680.51,230.21 680.83,229.74 681.80,229.74 682.13,229.27 684.39,228.81 684.72,228.34 686.01,228.34 686.34,227.87 686.66,227.41 687.96,226.94 688.93,226.94 690.23,226.01 691.20,226.01 691.52,226.01 693.47,225.54 694.11,224.61 695.09,224.14 695.41,223.68 696.06,223.21 698.00,222.28 698.65,222.28 699.30,221.81 699.62,221.35 700.27,220.88 700.59,220.41 701.56,219.95 701.89,219.02 702.54,218.55 703.83,218.08 704.16,217.62 704.80,216.68 705.45,216.22 706.75,215.75 707.07,215.29 708.37,214.82 709.66,214.35 711.28,214.35 712.26,213.89 712.58,213.42 714.20,213.42 714.52,212.95 715.82,212.49 716.79,211.09 717.44,211.09 718.41,210.62 719.71,210.16 720.03,209.69 720.68,209.22 723.27,208.76 725.22,208.29 727.48,207.82 731.05,207.36 731.37,207.36 731.70,206.89 733.64,205.49 734.29,205.03 734.61,204.56 734.94,204.09 735.91,203.63 736.23,203.16 736.88,202.70 739.47,201.76 741.09,201.30 741.74,201.30 743.36,201.30 744.66,200.83 747.57,200.36 748.87,200.36 750.81,199.90 756.64,199.90 758.91,199.90 759.56,199.43 762.48,198.97 763.12,198.50 763.77,198.03 765.72,197.57 766.36,197.10 767.01,196.17 767.34,196.17 767.66,195.70 770.25,195.24 773.17,194.77 774.79,194.30 776.73,193.84 779.65,193.84 782.24,192.44 783.53,191.97 784.18,191.51 785.48,191.04 787.10,190.57 787.75,190.11 788.39,189.64 790.34,189.17 791.63,188.71 791.96,187.78 794.87,187.78 795.20,187.31 795.52,187.31 796.17,186.84 797.14,186.84 798.44,186.38 800.38,185.91 800.71,185.44 801.68,185.44 803.95,185.44 806.21,184.98 808.16,184.51 810.75,184.05 811.40,183.58 811.72,183.11 812.69,183.11 813.02,182.65 813.34,182.18 813.99,181.25 815.29,180.78 817.55,180.32 817.88,179.85 818.85,178.92 820.79,178.45 822.41,177.98 822.74,177.52 824.03,177.05 825.01,176.59 825.33,176.59 826.63,176.12 827.27,176.12 828.89,175.65 829.22,175.19 829.54,173.79 831.49,173.32 832.46,172.86 832.78,172.39 834.73,172.39 836.02,171.92 836.35,170.52 836.67,170.52 838.94,169.12 840.56,168.66 844.45,168.19 844.77,167.73 846.71,167.26 849.63,166.79 852.87,166.33 854.81,165.39 855.14,164.93 855.46,164.46 856.11,164.00 858.70,163.53 860.97,163.06 864.21,162.60 864.53,162.60 867.45,162.13 868.42,161.66 869.72,161.20 879.76,160.73 881.06,159.80 881.38,159.33 884.62,158.87 886.24,157.93 888.51,157.47 889.16,157.47 889.48,157.00 891.42,156.54 892.72,156.07 893.37,155.60 893.69,155.14 894.02,154.67 894.99,154.20 896.61,153.74 896.93,153.74 898.55,153.27 900.82,152.81 903.09,152.34 903.74,151.87 907.30,151.41 907.62,150.94 909.24,150.47 910.86,150.01 913.78,149.54 915.08,149.08 917.34,149.08 917.67,148.61 918.32,148.61 919.94,148.14 920.26,147.68 920.91,147.21 921.88,146.28 922.20,144.88 922.53,143.95 922.85,143.48 924.15,143.01 924.47,143.01 926.42,142.55 926.74,142.08 928.36,141.62 928.68,141.15 929.33,140.68 929.98,140.68 930.95,140.22 934.19,139.75 940.02,139.28 941.32,138.82 942.94,138.35 944.23,137.89 945.53,137.42 946.50,136.95 947.47,136.02 949.74,136.02 951.36,135.55 952.01,135.55 954.28,135.55 954.60,135.55 954.93,135.09 958.49,134.62 960.43,134.16 960.76,134.16 963.67,133.69 968.53,133.22 969.83,133.22 970.15,132.76 971.13,132.29 975.01,131.82 979.55,131.36 979.87,131.36 984.09,130.89 986.68,130.43 999.31,129.96 1002.23,129.03 1003.20,128.56 1004.82,128.09 1005.14,127.16 1010.98,126.69 1013.57,126.23 1018.75,125.76 1020.37,125.30 1022.64,124.83 1029.20,124.83 1032.11,124.83 1032.43,124.36 1033.09,124.36 1033.41,124.83 1034.38,124.83 1034.70,125.30 1036.00,125.30"/>
<circle cx="90.00" cy="468.00" r="3.8" fill="#ffb50c" stroke="#111827" stroke-width="1"/>
<circle cx="191.93" cy="453.55" r="3.8" fill="#ffb50c" stroke="#111827" stroke-width="1"/>
<circle cx="245.71" cy="440.49" r="3.8" fill="#ffb50c" stroke="#111827" stroke-width="1"/>
<circle cx="282.64" cy="426.04" r="3.8" fill="#ffb50c" stroke="#111827" stroke-width="1"/>
<circle cx="319.58" cy="412.51" r="3.8" fill="#ffb50c" stroke="#111827" stroke-width="1"/>
<circle cx="353.60" cy="399.46" r="3.8" fill="#ffb50c" stroke="#111827" stroke-width="1"/>
<circle cx="394.75" cy="381.74" r="3.8" fill="#ffb50c" stroke="#111827" stroke-width="1"/>
<circle cx="426.82" cy="364.02" r="3.8" fill="#ffb50c" stroke="#111827" stroke-width="1"/>
<circle cx="455.01" cy="349.10" r="3.8" fill="#ffb50c" stroke="#111827" stroke-width="1"/>
<circle cx="482.87" cy="334.18" r="3.8" fill="#ffb50c" stroke="#111827" stroke-width="1"/>
<circle cx="505.87" cy="315.53" r="3.8" fill="#ffb50c" stroke="#111827" stroke-width="1"/>
<circle cx="534.39" cy="298.28" r="3.8" fill="#ffb50c" stroke="#111827" stroke-width="1"/>
<circle cx="561.28" cy="284.29" r="3.8" fill="#ffb50c" stroke="#111827" stroke-width="1"/>
<circle cx="588.49" cy="267.51" r="3.8" fill="#ffb50c" stroke="#111827" stroke-width="1"/>
<circle cx="618.95" cy="253.05" r="3.8" fill="#ffb50c" stroke="#111827" stroke-width="1"/>
<circle cx="652.97" cy="239.53" r="3.8" fill="#ffb50c" stroke="#111827" stroke-width="1"/>
<circle cx="684.39" cy="228.81" r="3.8" fill="#ffb50c" stroke="#111827" stroke-width="1"/>
<circle cx="708.37" cy="214.82" r="3.8" fill="#ffb50c" stroke="#111827" stroke-width="1"/>
<circle cx="743.36" cy="201.30" r="3.8" fill="#ffb50c" stroke="#111827" stroke-width="1"/>
<circle cx="791.96" cy="187.78" r="3.8" fill="#ffb50c" stroke="#111827" stroke-width="1"/>
<circle cx="826.63" cy="176.12" r="3.8" fill="#ffb50c" stroke="#111827" stroke-width="1"/>
<circle cx="879.76" cy="160.73" r="3.8" fill="#ffb50c" stroke="#111827" stroke-width="1"/>
<circle cx="920.26" cy="147.68" r="3.8" fill="#ffb50c" stroke="#111827" stroke-width="1"/>
<circle cx="960.43" cy="134.16" r="3.8" fill="#ffb50c" stroke="#111827" stroke-width="1"/>
<circle cx="1036.00" cy="125.30" r="3.8" fill="#ffb50c" stroke="#111827" stroke-width="1"/>
<text x="1028.00" y="115.30" text-anchor="end" fill="#ffb50c" font-size="12" font-family="-apple-system,BlinkMacSystemFont,Segoe UI,Helvetica,Arial,sans-serif">735</text>
<rect x="90.00" y="514.00" width="14" height="14" fill="url(#repo-0)" rx="3"/>
<text x="112.00" y="526.00" fill="#3bf2af" font-size="13" font-family="-apple-system,BlinkMacSystemFont,Segoe UI,Helvetica,Arial,sans-serif">bavix/gripmock</text>
<rect x="280.00" y="514.00" width="14" height="14" fill="url(#repo-1)" rx="3"/>
<text x="302.00" y="526.00" fill="#ffb50c" font-size="13" font-family="-apple-system,BlinkMacSystemFont,Segoe UI,Helvetica,Arial,sans-serif">tokopedia/gripmock</text>
<text x="1036.00" y="526.00" text-anchor="end" fill="#9ca3af" font-size="12" font-family="-apple-system,BlinkMacSystemFont,Segoe UI,Helvetica,Arial,sans-serif">Source: https://github.com/bavix/artifact-stats/blob/master/stats/github.csv</text>
</svg>