<svg xmlns="http://www.w3.org/2000/svg" width="1100" height="560" viewBox="0 0 1100 560">
<defs>
<linearGradient id="bg" x1="0" y1="0" x2="1" y2="1"><stop offset="0%" stop-color="#0b1220"/><stop offset="100%" stop-color="#111827"/></linearGradient>
<linearGradient id="repo-0" x1="0" y1="0" x2="0" y2="1"><stop offset="0%" stop-color="#34d399"/><stop offset="100%" stop-color="#059669"/></linearGradient>
<linearGradient id="repo-1" x1="0" y1="0" x2="0" y2="1"><stop offset="0%" stop-color="#f59e0b"/><stop offset="100%" stop-color="#d97706"/></linearGradient>
</defs>
<rect x="0" y="0" width="1100" height="560" fill="url(#bg)" rx="16"/>
<text x="90" y="44" fill="#f9fafb" font-size="28" font-family="-apple-system,BlinkMacSystemFont,Segoe UI,Helvetica,Arial,sans-serif" font-weight="700">GripMock GitHub Metrics - Stars</text>
<text x="90" y="70" fill="#9ca3af" font-size="16" font-family="-apple-system,BlinkMacSystemFont,Segoe UI,Helvetica,Arial,sans-serif">GitHub stars by snapshot date</text>
<line x1="90" y1="90.0" x2="1036" y2="90.0" stroke="#1f2937" stroke-width="1"/>
<text x="80" y="95.0" text-anchor="end" fill="#9ca3af" font-size="12" font-family="-apple-system,BlinkMacSystemFont,Segoe UI,Helvetica,Arial,sans-serif">810</text>
<line x1="90" y1="153.0" x2="1036" y2="153.0" stroke="#1f2937" stroke-width="1"/>
<text x="80" y="158.0" text-anchor="end" fill="#9ca3af" font-size="12" font-family="-apple-system,BlinkMacSystemFont,Segoe UI,Helvetica,Arial,sans-serif">675</text>
<line x1="90" y1="216.0" x2="1036" y2="216.0" stroke="#1f2937" stroke-width="1"/>
<text x="80" y="221.0" text-anchor="end" fill="#9ca3af" font-size="12" font-family="-apple-system,BlinkMacSystemFont,Segoe UI,Helvetica,Arial,sans-serif">540</text>
<line x1="90" y1="279.0" x2="1036" y2="279.0" stroke="#1f2937" stroke-width="1"/>
<text x="80" y="284.0" text-anchor="end" fill="#9ca3af" font-size="12" font-family="-apple-system,BlinkMacSystemFont,Segoe UI,Helvetica,Arial,sans-serif">405</text>
<line x1="90" y1="342.0" x2="1036" y2="342.0" stroke="#1f2937" stroke-width="1"/>
<text x="80" y="347.0" text-anchor="end" fill="#9ca3af" font-size="12" font-family="-apple-system,BlinkMacSystemFont,Segoe UI,Helvetica,Arial,sans-serif">270</text>
<line x1="90" y1="405.0" x2="1036" y2="405.0" stroke="#1f2937" stroke-width="1"/>
<text x="80" y="410.0" text-anchor="end" fill="#9ca3af" font-size="12" font-family="-apple-system,BlinkMacSystemFont,Segoe UI,Helvetica,Arial,sans-serif">135</text>
<line x1="90" y1="468.0" x2="1036" y2="468.0" stroke="#1f2937" stroke-width="1"/>
<text x="80" y="473.0" text-anchor="end" fill="#9ca3af" font-size="12" font-family="-apple-system,BlinkMacSystemFont,Segoe UI,Helvetica,Arial,sans-serif">0</text>
<line x1="90" y1="468" x2="1036" y2="468" stroke="#4b5563" stroke-width="1.4"/>
<line x1="90" y1="90" x2="90" y2="468" stroke="#4b5563" stroke-width="1.4"/>
<line x1="90.0" y1="468" x2="90.0" y2="474" stroke="#6b7280" stroke-width="1"/>
<text x="90.0" y="494" text-anchor="start" fill="#9ca3af" font-size="12" font-family="-apple-system,BlinkMacSystemFont,Segoe UI,Helvetica,Arial,sans-serif">2018-04-24</text>
<line x1="279.2" y1="468" x2="279.2" y2="474" stroke="#6b7280" stroke-width="1"/>
<text x="279.2" y="494" text-anchor="middle" fill="#9ca3af" font-size="12" font-family="-apple-system,BlinkMacSystemFont,Segoe UI,Helvetica,Arial,sans-serif">2019-11-25</text>
<line x1="468.4" y1="468" x2="468.4" y2="474" stroke="#6b7280" stroke-width="1"/>
<text x="468.4" y="494" text-anchor="middle" fill="#9ca3af" font-size="12" font-family="-apple-system,BlinkMacSystemFont,Segoe UI,Helvetica,Arial,sans-serif">2021-06-27</text>
<line x1="657.6" y1="468" x2="657.6" y2="474" stroke="#6b7280" stroke-width="1"/>
<text x="657.6" y="494" text-anchor="middle" fill="#9ca3af" font-size="12" font-family="-apple-system,BlinkMacSystemFont,Segoe UI,Helvetica,Arial,sans-serif">2023-01-29</text>
<line x1="846.8" y1="468" x2="846.8" y2="474" stroke="#6b7280" stroke-width="1"/>
<text x="846.8" y="494" text-anchor="middle" fill="#9ca3af" font-size="12" font-family="-apple-system,BlinkMacSystemFont,Segoe UI,Helvetica,Arial,sans-serif">2024-08-31</text>
<line x1="1036.0" y1="468" x2="1036.0" y2="474" stroke="#6b7280" stroke-width="1"/>
<text x="1036.0" y="494" text-anchor="end" fill="#9ca3af" font-size="12" font-family="-apple-system,BlinkMacSystemFont,Segoe UI,Helvetica,Arial,sans-serif">2026-04-03</text>
<polyline fill="none" stroke="url(#repo-0)" stroke-width="4" stroke-linecap="round" stroke-linejoin="round" points="722.56,468.00 729.28,467.53 742.32,467.07 756.02,466.60 757.97,466.13 761.23,465.67 772.97,465.20 775.25,464.73 780.80,464.26 781.12,463.80 786.01,463.33 793.84,462.86 806.23,462.40 809.49,461.93 813.73,461.46 817.32,461.00 832.31,460.53 836.88,460.06 837.53,459.60 838.84,459.13 845.03,458.66 858.73,458.20 861.66,457.73 868.51,457.26 874.05,456.79 874.70,456.33 875.36,455.86 895.57,455.39 898.18,454.93 898.83,454.46 905.03,453.99 905.68,453.53 909.59,453.53 910.90,453.06 911.22,452.59 911.55,452.13 914.48,451.66 916.11,451.19 917.74,450.72 922.96,450.72 927.53,450.72 929.16,450.26 929.81,450.26 936.66,449.79 940.57,449.32 952.31,448.86 954.59,448.39 955.24,448.39 957.20,447.92 959.15,447.46 962.09,447.46 967.31,446.99 974.15,446.52 978.39,446.06 989.80,445.59 992.09,445.12 996.98,444.66 997.30,444.19 998.28,443.72 1000.89,443.25 1001.22,443.25 1010.02,442.79 1016.87,442.32 1017.52,441.85 1019.80,441.39 1026.32,440.92 1028.61,440.45 1030.24,439.99 1031.87,439.52 1035.21,439.52 1036.00,439.52"/>
<circle cx="722.56" cy="468.00" r="3.8" fill="#3bf2af" stroke="#111827" stroke-width="1"/>
<circle cx="742.32" cy="467.07" r="3.8" fill="#3bf2af" stroke="#111827" stroke-width="1"/>
<circle cx="757.97" cy="466.13" r="3.8" fill="#3bf2af" stroke="#111827" stroke-width="1"/>
<circle cx="772.97" cy="465.20" r="3.8" fill="#3bf2af" stroke="#111827" stroke-width="1"/>
<circle cx="780.80" cy="464.26" r="3.8" fill="#3bf2af" stroke="#111827" stroke-width="1"/>
<circle cx="786.01" cy="463.33" r="3.8" fill="#3bf2af" stroke="#111827" stroke-width="1"/>
<circle cx="806.23" cy="462.40" r="3.8" fill="#3bf2af" stroke="#111827" stroke-width="1"/>
<circle cx="813.73" cy="461.46" r="3.8" fill="#3bf2af" stroke="#111827" stroke-width="1"/>
<circle cx="832.31" cy="460.53" r="3.8" fill="#3bf2af" stroke="#111827" stroke-width="1"/>
<circle cx="837.53" cy="459.60" r="3.8" fill="#3bf2af" stroke="#111827" stroke-width="1"/>
<circle cx="845.03" cy="458.66" r="3.8" fill="#3bf2af" stroke="#111827" stroke-width="1"/>
<circle cx="861.66" cy="457.73" r="3.8" fill="#3bf2af" stroke="#111827" stroke-width="1"/>
<circle cx="874.05" cy="456.79" r="3.8" fill="#3bf2af" stroke="#111827" stroke-width="1"/>
<circle cx="875.36" cy="455.86" r="3.8" fill="#3bf2af" stroke="#111827" stroke-width="1"/>
<circle cx="898.18" cy="454.93" r="3.8" fill="#3bf2af" stroke="#111827" stroke-width="1"/>
<circle cx="905.03" cy="453.99" r="3.8" fill="#3bf2af" stroke="#111827" stroke-width="1"/>
<circle cx="909.59" cy="453.53" r="3.8" fill="#3bf2af" stroke="#111827" stroke-width="1"/>
<circle cx="911.22" cy="452.59" r="3.8" fill="#3bf2af" stroke="#111827" stroke-width="1"/>
<circle cx="914.48" cy="451.66" r="3.8" fill="#3bf2af" stroke="#111827" stroke-width="1"/>
<circle cx="917.74" cy="450.72" r="3.8" fill="#3bf2af" stroke="#111827" stroke-width="1"/>
<circle cx="927.53" cy="450.72" r="3.8" fill="#3bf2af" stroke="#111827" stroke-width="1"/>
<circle cx="929.81" cy="450.26" r="3.8" fill="#3bf2af" stroke="#111827" stroke-width="1"/>
<circle cx="940.57" cy="449.32" r="3.8" fill="#3bf2af" stroke="#111827" stroke-width="1"/>
<circle cx="954.59" cy="448.39" r="3.8" fill="#3bf2af" stroke="#111827" stroke-width="1"/>
<circle cx="957.20" cy="447.92" r="3.8" fill="#3bf2af" stroke="#111827" stroke-width="1"/>
<circle cx="962.09" cy="447.46" r="3.8" fill="#3bf2af" stroke="#111827" stroke-width="1"/>
<circle cx="974.15" cy="446.52" r="3.8" fill="#3bf2af" stroke="#111827" stroke-width="1"/>
<circle cx="989.80" cy="445.59" r="3.8" fill="#3bf2af" stroke="#111827" stroke-width="1"/>
<circle cx="996.98" cy="444.66" r="3.8" fill="#3bf2af" stroke="#111827" stroke-width="1"/>
<circle cx="998.28" cy="443.72" r="3.8" fill="#3bf2af" stroke="#111827" stroke-width="1"/>
<circle cx="1001.22" cy="443.25" r="3.8" fill="#3bf2af" stroke="#111827" stroke-width="1"/>
<circle cx="1016.87" cy="442.32" r="3.8" fill="#3bf2af" stroke="#111827" stroke-width="1"/>
<circle cx="1019.80" cy="441.39" r="3.8" fill="#3bf2af" stroke="#111827" stroke-width="1"/>
<circle cx="1028.61" cy="440.45" r="3.8" fill="#3bf2af" stroke="#111827" stroke-width="1"/>
<circle cx="1031.87" cy="439.52" r="3.8" fill="#3bf2af" stroke="#111827" stroke-width="1"/>
<circle cx="1036.00" cy="439.52" r="3.8" fill="#3bf2af" stroke="#111827" stroke-width="1"/>
<text x="1028.0" y="429.5" text-anchor="end" fill="#3bf2af" font-size="12" font-family="-apple-system,BlinkMacSystemFont,Segoe UI,Helvetica,Arial,sans-serif">61</text>
<polyline fill="none" stroke="url(#repo-1)" stroke-width="4" stroke-linecap="round" stroke-linejoin="round" points="90.00,468.00 91.82,466.60 92.48,466.13 96.06,465.67 99.65,465.20 136.82,464.73 137.80,464.26 143.67,464.26 149.54,463.80 154.10,463.80 157.69,463.33 158.34,462.86 158.67,462.40 158.99,461.93 160.62,461.46 161.28,461.00 165.52,460.53 165.84,460.06 169.75,459.60 170.73,459.13 171.06,458.66 172.69,458.20 174.32,457.26 176.28,456.79 177.25,456.33 182.47,455.86 185.08,455.39 186.71,454.93 187.04,454.46 192.25,453.99 192.58,453.53 193.23,453.06 196.49,452.59 197.14,451.66 197.47,451.66 197.80,451.66 203.66,451.19 205.29,451.19 211.49,450.72 212.79,450.26 213.45,450.26 216.05,449.79 218.99,449.32 222.90,449.32 223.23,448.86 225.51,448.39 227.79,447.92 231.05,447.46 232.03,446.99 234.31,446.52 236.60,446.06 238.55,445.59 238.88,445.12 239.21,444.66 241.81,444.19 242.47,443.72 243.12,442.79 243.44,442.32 243.77,441.39 244.10,440.92 246.70,440.45 247.36,439.52 249.97,439.52 255.51,439.05 256.16,439.05 256.49,438.59 256.81,438.12 257.46,438.12 258.77,437.65 259.10,437.18 261.05,436.72 261.38,436.25 263.66,435.78 264.64,434.85 265.29,433.92 266.27,433.92 267.90,433.45 268.23,432.98 269.20,432.52 272.14,432.05 275.72,431.58 276.70,431.12 277.68,430.65 278.01,430.18 279.31,429.71 279.64,429.25 280.29,428.78 281.27,427.38 282.90,426.91 283.55,426.45 283.88,425.98 284.20,424.58 285.83,424.11 286.81,423.64 287.46,423.18 288.77,423.18 289.09,422.71 290.72,422.24 294.31,421.78 296.27,421.31 297.90,421.31 298.22,420.38 300.51,419.91 302.14,419.44 302.46,419.44 304.42,418.98 304.74,418.51 305.40,418.51 306.37,418.51 306.70,418.04 307.03,417.58 307.35,417.11 311.92,415.71 315.83,415.24 316.16,414.77 316.81,414.31 318.11,413.84 318.44,413.37 320.07,413.37 320.72,412.91 321.05,412.44 321.37,411.97 321.70,411.51 323.33,411.04 326.59,410.57 327.89,410.10 328.22,410.10 328.87,409.64 329.20,409.64 329.85,408.24 330.50,407.77 331.16,407.77 332.46,407.30 333.11,406.84 335.07,406.37 335.39,405.90 336.70,405.44 338.65,404.97 339.96,404.50 341.26,404.50 341.59,404.04 342.24,403.57 343.22,403.10 344.20,402.63 345.83,402.17 347.46,401.70 349.09,401.23 352.02,400.77 354.63,400.30 354.96,399.83 355.28,399.37 360.17,398.90 361.15,398.43 362.13,397.97 362.46,397.03 363.44,396.56 365.72,395.63 366.04,394.70 367.67,394.23 369.63,394.23 372.89,393.76 373.87,393.30 374.85,392.83 376.15,391.90 376.80,391.43 377.13,390.96 377.78,390.50 379.41,389.56 380.72,389.09 384.96,388.16 386.59,386.76 387.56,385.83 390.50,385.83 391.15,385.83 391.48,385.36 391.80,384.43 393.43,383.49 394.41,383.02 395.72,382.56 396.04,382.09 396.69,381.62 398.98,381.16 399.30,380.69 399.95,380.22 402.24,379.76 402.89,379.29 404.19,378.82 405.17,378.36 405.50,377.89 405.82,377.42 409.74,376.96 410.39,376.49 411.69,375.55 412.02,375.09 413.32,374.62 414.63,371.35 414.95,370.42 415.28,369.95 416.91,369.48 417.56,369.02 419.19,369.02 420.50,368.55 421.47,368.08 423.43,367.15 424.74,366.68 426.37,366.22 426.69,365.75 427.34,365.28 428.00,364.35 428.65,363.88 428.97,363.88 429.95,363.88 430.28,363.42 430.60,362.95 430.93,362.48 432.56,362.01 433.21,361.08 434.52,360.61 435.17,359.68 436.15,359.21 436.80,358.75 437.78,358.28 439.08,357.81 440.39,357.81 441.69,357.35 442.02,356.88 443.65,356.41 443.97,355.94 444.63,355.48 444.95,355.01 445.60,354.54 445.93,353.14 447.56,352.68 448.86,352.21 450.49,351.74 455.06,350.81 455.39,350.34 455.71,350.34 456.04,349.88 457.02,349.41 457.34,348.94 457.67,348.47 457.99,347.54 459.30,347.07 459.95,346.14 460.28,344.74 461.25,344.74 461.58,344.74 462.23,343.81 464.19,343.34 464.52,342.40 464.84,341.94 466.15,341.47 468.43,341.00 468.75,340.54 469.41,340.07 471.69,339.60 473.32,339.14 474.95,339.14 477.88,339.14 479.19,338.67 479.51,338.20 479.84,338.20 480.49,337.74 480.82,336.80 481.14,336.33 482.12,335.87 482.45,335.40 483.43,334.93 485.06,334.00 485.38,334.00 485.71,333.07 486.04,332.60 486.36,331.20 486.69,330.27 487.01,329.80 487.67,329.33 487.99,327.46 488.32,327.00 489.30,326.53 489.95,325.60 490.60,325.13 491.90,324.66 493.21,324.20 493.53,323.73 493.86,323.26 494.19,322.79 495.82,322.33 497.12,321.86 497.45,321.39 498.75,320.46 499.08,319.53 499.40,319.53 502.66,319.06 502.99,318.59 503.64,318.13 505.27,317.19 505.93,316.73 506.58,316.26 507.88,316.26 508.53,315.32 508.86,315.32 509.19,313.46 509.51,311.12 510.82,310.66 511.14,310.19 511.79,309.72 512.12,309.25 513.10,308.79 513.42,308.32 514.73,307.85 517.66,307.39 518.64,306.92 519.62,306.45 519.95,305.05 520.27,304.59 520.60,304.12 520.92,303.65 521.58,303.19 523.86,303.19 525.16,302.72 525.49,302.25 525.82,301.78 526.79,301.32 528.10,301.32 529.40,300.85 531.03,300.38 531.36,299.92 534.95,299.45 536.58,298.98 537.23,298.05 537.88,297.58 540.49,297.12 541.14,296.65 541.47,296.18 542.44,295.71 543.10,295.25 543.75,295.25 544.40,294.78 545.05,294.31 546.36,293.85 546.68,293.38 547.01,292.91 548.64,292.91 549.29,292.45 549.62,291.98 550.60,291.05 551.25,290.11 551.90,289.65 553.53,288.71 553.86,288.71 554.18,288.24 555.16,287.78 555.81,287.31 556.47,286.84 558.10,286.38 561.03,285.91 561.36,285.44 562.66,284.98 562.99,284.51 564.29,284.04 564.62,283.58 564.94,281.71 565.59,281.24 566.57,280.77 566.90,280.31 567.23,279.84 567.88,279.37 569.18,278.91 570.16,278.91 570.49,278.44 574.72,277.97 575.05,277.51 576.03,276.57 576.68,276.11 578.96,275.64 579.94,275.17 580.27,274.70 580.59,274.24 583.20,273.30 583.53,272.84 583.85,270.97 584.83,270.50 585.16,270.04 585.81,269.57 588.09,269.10 588.75,268.63 589.40,268.63 590.38,268.17 590.70,267.70 591.68,267.23 597.22,266.77 598.53,265.83 598.85,265.37 600.48,264.90 601.14,264.90 601.46,263.97 601.79,263.97 602.11,263.50 603.09,263.03 604.07,262.57 604.40,262.10 606.35,261.63 606.68,261.16 607.33,260.23 608.31,259.76 608.96,259.30 609.29,258.83 610.59,258.36 611.24,258.36 611.90,257.90 612.87,257.43 613.20,256.96 617.44,256.50 618.42,256.50 619.40,256.03 619.72,255.56 621.35,255.09 621.68,254.16 622.00,253.69 622.33,252.76 623.63,252.29 624.61,251.83 626.89,250.89 627.87,250.43 628.20,249.96 628.85,249.96 629.50,248.56 631.46,248.09 631.79,247.62 635.05,247.16 635.37,246.69 636.35,245.29 636.68,244.82 637.66,244.36 637.98,244.36 638.31,243.89 639.94,243.42 640.26,242.49 641.24,241.55 642.87,241.09 644.18,240.62 645.15,240.62 648.74,240.62 649.07,240.62 651.02,240.62 651.68,239.69 652.33,239.69 653.63,239.69 653.96,239.69 656.57,239.22 659.50,238.75 660.15,238.29 660.48,237.35 660.81,236.89 663.74,236.42 665.04,236.42 665.37,235.95 665.70,235.49 666.35,235.49 667.65,235.02 667.98,234.55 668.63,234.08 669.94,233.62 671.57,233.15 671.89,233.15 672.54,232.68 672.87,232.22 673.20,232.22 673.52,231.75 673.85,231.28 674.50,230.82 678.41,230.35 680.70,230.35 682.98,230.35 683.96,230.35 684.28,229.88 684.61,229.42 685.59,229.42 685.91,228.95 688.19,228.48 688.52,228.01 689.83,228.01 690.15,227.55 690.48,227.08 691.78,226.61 692.76,226.61 694.06,225.68 695.04,225.68 695.37,225.68 697.32,225.21 697.98,224.28 698.95,223.81 699.28,223.35 699.93,222.88 701.89,221.95 702.54,221.95 703.19,221.48 703.52,221.01 704.17,220.54 704.50,220.08 705.48,219.61 705.80,218.68 706.45,218.21 707.76,217.74 708.08,217.28 708.74,216.34 709.39,215.88 710.69,215.41 711.02,214.94 712.32,214.47 713.63,214.01 715.26,214.01 716.24,213.54 716.56,213.07 718.19,213.07 718.52,212.61 719.82,212.14 720.80,210.74 721.45,210.74 722.43,210.27 723.74,209.81 724.06,209.34 724.71,208.87 727.32,208.41 729.28,207.94 731.56,207.47 735.15,207.00 735.47,207.00 735.80,206.54 737.76,205.14 738.41,204.67 738.73,204.20 739.06,203.74 740.04,203.27 740.37,202.80 741.02,202.34 743.63,201.40 745.26,200.93 745.91,200.93 747.54,200.93 748.84,200.47 751.78,200.00 753.08,200.00 755.04,199.53 760.91,199.53 763.19,199.53 763.84,199.07 766.78,198.60 767.43,198.13 768.08,197.67 770.04,197.20 770.69,196.73 771.34,195.80 771.67,195.80 771.99,195.33 774.60,194.87 777.54,194.40 779.17,193.93 781.12,193.46 784.06,193.46 786.67,192.06 787.97,191.60 788.62,191.13 789.93,190.66 791.56,190.20 792.21,189.73 792.86,189.26 794.82,188.80 796.12,188.33 796.45,187.39 799.38,187.39 799.71,186.93 800.03,186.93 800.69,186.46 801.67,186.46 802.97,185.99 804.93,185.53 805.25,185.06 806.23,185.06 808.51,185.06 810.79,184.59 812.75,184.13 815.36,183.66 816.01,183.19 816.34,182.73 817.32,182.73 817.64,182.26 817.97,181.79 818.62,180.86 819.92,180.39 822.21,179.92 822.53,179.46 823.51,178.52 825.47,178.06 827.10,177.59 827.42,177.12 828.73,176.66 829.71,176.19 830.03,176.19 831.34,175.72 831.99,175.72 833.62,175.26 833.95,174.79 834.27,173.39 836.23,172.92 837.21,172.45 837.53,171.99 839.49,171.99 840.79,171.52 841.12,170.12 841.44,170.12 843.73,168.72 845.36,168.25 849.27,167.79 849.60,167.32 851.55,166.85 854.49,166.38 857.75,165.92 859.70,164.98 860.03,164.52 860.36,164.05 861.01,163.58 863.62,163.12 865.90,162.65 869.16,162.18 869.49,162.18 872.42,161.72 873.40,161.25 874.70,160.78 884.81,160.31 886.12,159.38 886.44,158.91 889.70,158.45 891.33,157.51 893.61,157.05 894.27,157.05 894.59,156.58 896.55,156.11 897.85,155.65 898.51,155.18 898.83,154.71 899.16,154.25 900.14,153.78 901.77,153.31 902.09,153.31 903.72,152.84 906.01,152.38 908.29,151.91 908.94,151.44 912.53,150.98 912.85,150.51 914.48,150.04 916.11,149.58 919.05,149.11 920.35,148.64 922.63,148.64 922.96,148.18 923.61,148.18 925.24,147.71 925.57,147.24 926.22,146.77 927.20,145.84 927.53,144.44 927.85,143.51 928.18,143.04 929.48,142.57 929.81,142.57 931.76,142.11 932.09,141.64 933.72,141.17 934.05,140.71 934.70,140.24 935.35,140.24 936.33,139.77 939.59,139.30 945.46,138.84 946.76,138.37 948.39,137.90 949.70,137.44 951.00,136.97 951.98,136.50 952.96,135.57 955.24,135.57 956.87,135.10 957.52,135.10 959.81,135.10 960.13,135.10 960.46,134.64 964.04,134.17 966.00,133.70 966.33,133.70 969.26,133.23 974.15,132.77 975.46,132.77 975.78,132.30 976.76,131.83 980.67,131.37 985.24,130.90 985.56,130.90 989.80,130.43 992.41,129.97 1005.13,129.50 1008.06,128.57 1009.04,128.10 1010.67,127.63 1011.00,126.70 1016.87,126.23 1019.48,125.76 1024.69,125.30 1026.32,124.83 1028.61,124.36 1035.21,124.36 1036.00,124.36"/>
<circle cx="90.00" cy="468.00" r="3.8" fill="#ffb50c" stroke="#111827" stroke-width="1"/>
<circle cx="192.25" cy="453.99" r="3.8" fill="#ffb50c" stroke="#111827" stroke-width="1"/>
<circle cx="243.77" cy="441.39" r="3.8" fill="#ffb50c" stroke="#111827" stroke-width="1"/>
<circle cx="281.27" cy="427.38" r="3.8" fill="#ffb50c" stroke="#111827" stroke-width="1"/>
<circle cx="318.11" cy="413.84" r="3.8" fill="#ffb50c" stroke="#111827" stroke-width="1"/>
<circle cx="347.46" cy="401.70" r="3.8" fill="#ffb50c" stroke="#111827" stroke-width="1"/>
<circle cx="391.48" cy="385.36" r="3.8" fill="#ffb50c" stroke="#111827" stroke-width="1"/>
<circle cx="423.43" cy="367.15" r="3.8" fill="#ffb50c" stroke="#111827" stroke-width="1"/>
<circle cx="447.56" cy="352.68" r="3.8" fill="#ffb50c" stroke="#111827" stroke-width="1"/>
<circle cx="479.51" cy="338.20" r="3.8" fill="#ffb50c" stroke="#111827" stroke-width="1"/>
<circle cx="498.75" cy="320.46" r="3.8" fill="#ffb50c" stroke="#111827" stroke-width="1"/>
<circle cx="523.86" cy="303.19" r="3.8" fill="#ffb50c" stroke="#111827" stroke-width="1"/>
<circle cx="551.90" cy="289.65" r="3.8" fill="#ffb50c" stroke="#111827" stroke-width="1"/>
<circle cx="580.27" cy="274.70" r="3.8" fill="#ffb50c" stroke="#111827" stroke-width="1"/>
<circle cx="608.96" cy="259.30" r="3.8" fill="#ffb50c" stroke="#111827" stroke-width="1"/>
<circle cx="637.98" cy="244.36" r="3.8" fill="#ffb50c" stroke="#111827" stroke-width="1"/>
<circle cx="671.57" cy="233.15" r="3.8" fill="#ffb50c" stroke="#111827" stroke-width="1"/>
<circle cx="699.28" cy="223.35" r="3.8" fill="#ffb50c" stroke="#111827" stroke-width="1"/>
<circle cx="724.06" cy="209.34" r="3.8" fill="#ffb50c" stroke="#111827" stroke-width="1"/>
<circle cx="770.04" cy="197.20" r="3.8" fill="#ffb50c" stroke="#111827" stroke-width="1"/>
<circle cx="808.51" cy="185.06" r="3.8" fill="#ffb50c" stroke="#111827" stroke-width="1"/>
<circle cx="840.79" cy="171.52" r="3.8" fill="#ffb50c" stroke="#111827" stroke-width="1"/>
<circle cx="896.55" cy="156.11" r="3.8" fill="#ffb50c" stroke="#111827" stroke-width="1"/>
<circle cx="929.81" cy="142.57" r="3.8" fill="#ffb50c" stroke="#111827" stroke-width="1"/>
<circle cx="976.76" cy="131.83" r="3.8" fill="#ffb50c" stroke="#111827" stroke-width="1"/>
<circle cx="1036.00" cy="124.36" r="3.8" fill="#ffb50c" stroke="#111827" stroke-width="1"/>
<text x="1028.0" y="114.4" text-anchor="end" fill="#ffb50c" font-size="12" font-family="-apple-system,BlinkMacSystemFont,Segoe UI,Helvetica,Arial,sans-serif">736</text>
<rect x="90" y="514" width="14" height="14" fill="url(#repo-0)" rx="3"/>
<text x="112" y="526" fill="#3bf2af" font-size="13" font-family="-apple-system,BlinkMacSystemFont,Segoe UI,Helvetica,Arial,sans-serif">bavix/gripmock</text>
<rect x="280" y="514" width="14" height="14" fill="url(#repo-1)" rx="3"/>
<text x="302" y="526" fill="#ffb50c" font-size="13" font-family="-apple-system,BlinkMacSystemFont,Segoe UI,Helvetica,Arial,sans-serif">tokopedia/gripmock</text>
<text x="1036" y="526" text-anchor="end" fill="#9ca3af" font-size="12" font-family="-apple-system,BlinkMacSystemFont,Segoe UI,Helvetica,Arial,sans-serif">Source: https://github.com/bavix/artifact-stats/blob/master/stats/github.csv</text>
</svg>