<svg xmlns="http://www.w3.org/2000/svg" width="1100" height="560" viewBox="0 0 1100 560">
<defs>
<linearGradient id="bg" x1="0" y1="0" x2="1" y2="1"><stop offset="0%" stop-color="#0b1220"/><stop offset="100%" stop-color="#111827"/></linearGradient>
<linearGradient id="repo-0" x1="0" y1="0" x2="0" y2="1"><stop offset="0%" stop-color="#34d399"/><stop offset="100%" stop-color="#059669"/></linearGradient>
<linearGradient id="repo-1" x1="0" y1="0" x2="0" y2="1"><stop offset="0%" stop-color="#f59e0b"/><stop offset="100%" stop-color="#d97706"/></linearGradient>
</defs>
<rect x="0" y="0" width="1100" height="560" fill="url(#bg)" rx="16"/>
<text x="90" y="44" fill="#f9fafb" font-size="28" font-family="-apple-system,BlinkMacSystemFont,Segoe UI,Helvetica,Arial,sans-serif" font-weight="700">GripMock GitHub Metrics - Stars</text>
<text x="90" y="70" fill="#9ca3af" font-size="16" font-family="-apple-system,BlinkMacSystemFont,Segoe UI,Helvetica,Arial,sans-serif">GitHub stars by snapshot date</text>
<line x1="90" y1="90.00" x2="1036" y2="90.00" stroke="#1f2937" stroke-width="1"/>
<text x="80" y="95.00" text-anchor="end" fill="#9ca3af" font-size="12" font-family="-apple-system,BlinkMacSystemFont,Segoe UI,Helvetica,Arial,sans-serif">811</text>
<line x1="90" y1="153.00" x2="1036" y2="153.00" stroke="#1f2937" stroke-width="1"/>
<text x="80" y="158.00" text-anchor="end" fill="#9ca3af" font-size="12" font-family="-apple-system,BlinkMacSystemFont,Segoe UI,Helvetica,Arial,sans-serif">676</text>
<line x1="90" y1="216.00" x2="1036" y2="216.00" stroke="#1f2937" stroke-width="1"/>
<text x="80" y="221.00" text-anchor="end" fill="#9ca3af" font-size="12" font-family="-apple-system,BlinkMacSystemFont,Segoe UI,Helvetica,Arial,sans-serif">540</text>
<line x1="90" y1="279.00" x2="1036" y2="279.00" stroke="#1f2937" stroke-width="1"/>
<text x="80" y="284.00" text-anchor="end" fill="#9ca3af" font-size="12" font-family="-apple-system,BlinkMacSystemFont,Segoe UI,Helvetica,Arial,sans-serif">405</text>
<line x1="90" y1="342.00" x2="1036" y2="342.00" stroke="#1f2937" stroke-width="1"/>
<text x="80" y="347.00" text-anchor="end" fill="#9ca3af" font-size="12" font-family="-apple-system,BlinkMacSystemFont,Segoe UI,Helvetica,Arial,sans-serif">270</text>
<line x1="90" y1="405.00" x2="1036" y2="405.00" stroke="#1f2937" stroke-width="1"/>
<text x="80" y="410.00" text-anchor="end" fill="#9ca3af" font-size="12" font-family="-apple-system,BlinkMacSystemFont,Segoe UI,Helvetica,Arial,sans-serif">135</text>
<line x1="90" y1="468.00" x2="1036" y2="468.00" stroke="#1f2937" stroke-width="1"/>
<text x="80" y="473.00" text-anchor="end" fill="#9ca3af" font-size="12" font-family="-apple-system,BlinkMacSystemFont,Segoe UI,Helvetica,Arial,sans-serif">0</text>
<line x1="90" y1="468" x2="1036" y2="468" stroke="#4b5563" stroke-width="1.4"/>
<line x1="90" y1="90" x2="90" y2="468" stroke="#4b5563" stroke-width="1.4"/>
<line x1="90.00" y1="468" x2="90.00" y2="474" stroke="#6b7280" stroke-width="1"/>
<text x="90.00" y="494" text-anchor="start" fill="#9ca3af" font-size="12" font-family="-apple-system,BlinkMacSystemFont,Segoe UI,Helvetica,Arial,sans-serif">2018-04-24</text>
<line x1="279.20" y1="468" x2="279.20" y2="474" stroke="#6b7280" stroke-width="1"/>
<text x="279.20" y="494" text-anchor="middle" fill="#9ca3af" font-size="12" font-family="-apple-system,BlinkMacSystemFont,Segoe UI,Helvetica,Arial,sans-serif">2019-11-29</text>
<line x1="468.40" y1="468" x2="468.40" y2="474" stroke="#6b7280" stroke-width="1"/>
<text x="468.40" y="494" text-anchor="middle" fill="#9ca3af" font-size="12" font-family="-apple-system,BlinkMacSystemFont,Segoe UI,Helvetica,Arial,sans-serif">2021-07-05</text>
<line x1="657.60" y1="468" x2="657.60" y2="474" stroke="#6b7280" stroke-width="1"/>
<text x="657.60" y="494" text-anchor="middle" fill="#9ca3af" font-size="12" font-family="-apple-system,BlinkMacSystemFont,Segoe UI,Helvetica,Arial,sans-serif">2023-02-09</text>
<line x1="846.80" y1="468" x2="846.80" y2="474" stroke="#6b7280" stroke-width="1"/>
<text x="846.80" y="494" text-anchor="middle" fill="#9ca3af" font-size="12" font-family="-apple-system,BlinkMacSystemFont,Segoe UI,Helvetica,Arial,sans-serif">2024-09-16</text>
<line x1="1036.00" y1="468" x2="1036.00" y2="474" stroke="#6b7280" stroke-width="1"/>
<text x="1036.00" y="494" text-anchor="end" fill="#9ca3af" font-size="12" font-family="-apple-system,BlinkMacSystemFont,Segoe UI,Helvetica,Arial,sans-serif">2026-04-23</text>
<polyline fill="none" stroke="url(#repo-0)" stroke-width="4" stroke-linecap="round" stroke-linejoin="round" points="718.33,468.00 725.00,467.53 737.95,467.07 751.56,466.60 753.50,466.13 756.74,465.67 768.40,465.20 770.67,464.74 776.17,464.27 776.50,463.80 781.35,463.34 789.13,462.87 801.43,462.40 804.67,461.94 808.88,461.47 812.45,461.01 827.34,460.54 831.88,460.07 832.53,459.61 833.82,459.14 839.98,458.67 853.58,458.21 856.49,457.74 863.30,457.28 868.80,456.81 869.45,456.34 870.10,455.88 890.18,455.41 892.77,454.94 893.42,454.48 899.57,454.01 900.22,453.55 904.10,453.55 905.40,453.08 905.72,452.61 906.05,452.15 908.96,451.68 910.58,451.21 912.20,450.75 917.38,450.75 921.92,450.75 923.54,450.28 924.18,450.28 930.99,449.82 934.87,449.35 946.53,448.88 948.80,448.42 949.45,448.42 951.39,447.95 953.33,447.48 956.25,447.48 961.43,447.02 968.23,446.55 972.44,446.09 983.78,445.62 986.05,445.15 990.90,444.69 991.23,444.22 992.20,443.75 994.79,443.29 995.11,443.29 1003.86,442.82 1010.66,442.36 1011.31,441.89 1013.58,441.42 1020.05,440.96 1022.32,440.49 1023.94,440.02 1025.56,439.56 1028.88,439.56 1029.84,439.56 1030.17,439.09 1030.81,439.09 1031.14,438.63 1031.46,439.09 1036.00,439.09"/>
<circle cx="718.33" cy="468.00" r="3.8" fill="#3bf2af" stroke="#111827" stroke-width="1"/>
<circle cx="751.56" cy="466.60" r="3.8" fill="#3bf2af" stroke="#111827" stroke-width="1"/>
<circle cx="768.40" cy="465.20" r="3.8" fill="#3bf2af" stroke="#111827" stroke-width="1"/>
<circle cx="776.50" cy="463.80" r="3.8" fill="#3bf2af" stroke="#111827" stroke-width="1"/>
<circle cx="801.43" cy="462.40" r="3.8" fill="#3bf2af" stroke="#111827" stroke-width="1"/>
<circle cx="812.45" cy="461.01" r="3.8" fill="#3bf2af" stroke="#111827" stroke-width="1"/>
<circle cx="832.53" cy="459.61" r="3.8" fill="#3bf2af" stroke="#111827" stroke-width="1"/>
<circle cx="853.58" cy="458.21" r="3.8" fill="#3bf2af" stroke="#111827" stroke-width="1"/>
<circle cx="868.80" cy="456.81" r="3.8" fill="#3bf2af" stroke="#111827" stroke-width="1"/>
<circle cx="890.18" cy="455.41" r="3.8" fill="#3bf2af" stroke="#111827" stroke-width="1"/>
<circle cx="899.57" cy="454.01" r="3.8" fill="#3bf2af" stroke="#111827" stroke-width="1"/>
<circle cx="905.40" cy="453.08" r="3.8" fill="#3bf2af" stroke="#111827" stroke-width="1"/>
<circle cx="908.96" cy="451.68" r="3.8" fill="#3bf2af" stroke="#111827" stroke-width="1"/>
<circle cx="917.38" cy="450.75" r="3.8" fill="#3bf2af" stroke="#111827" stroke-width="1"/>
<circle cx="924.18" cy="450.28" r="3.8" fill="#3bf2af" stroke="#111827" stroke-width="1"/>
<circle cx="946.53" cy="448.88" r="3.8" fill="#3bf2af" stroke="#111827" stroke-width="1"/>
<circle cx="951.39" cy="447.95" r="3.8" fill="#3bf2af" stroke="#111827" stroke-width="1"/>
<circle cx="961.43" cy="447.02" r="3.8" fill="#3bf2af" stroke="#111827" stroke-width="1"/>
<circle cx="983.78" cy="445.62" r="3.8" fill="#3bf2af" stroke="#111827" stroke-width="1"/>
<circle cx="991.23" cy="444.22" r="3.8" fill="#3bf2af" stroke="#111827" stroke-width="1"/>
<circle cx="995.11" cy="443.29" r="3.8" fill="#3bf2af" stroke="#111827" stroke-width="1"/>
<circle cx="1011.31" cy="441.89" r="3.8" fill="#3bf2af" stroke="#111827" stroke-width="1"/>
<circle cx="1022.32" cy="440.49" r="3.8" fill="#3bf2af" stroke="#111827" stroke-width="1"/>
<circle cx="1028.88" cy="439.56" r="3.8" fill="#3bf2af" stroke="#111827" stroke-width="1"/>
<circle cx="1030.81" cy="439.09" r="3.8" fill="#3bf2af" stroke="#111827" stroke-width="1"/>
<circle cx="1036.00" cy="439.09" r="3.8" fill="#3bf2af" stroke="#111827" stroke-width="1"/>
<text x="1028.00" y="429.09" text-anchor="end" fill="#3bf2af" font-size="12" font-family="-apple-system,BlinkMacSystemFont,Segoe UI,Helvetica,Arial,sans-serif">62</text>
<polyline fill="none" stroke="url(#repo-1)" stroke-width="4" stroke-linecap="round" stroke-linejoin="round" points="90.00,468.00 91.81,466.60 92.46,466.13 96.02,465.67 99.59,465.20 136.51,464.74 137.48,464.27 143.31,464.27 149.14,463.80 153.67,463.80 157.24,463.34 157.88,462.87 158.21,462.40 158.53,461.94 160.15,461.47 160.80,461.01 165.01,460.54 165.33,460.07 169.22,459.61 170.19,459.14 170.52,458.67 172.13,458.21 173.75,457.28 175.70,456.81 176.67,456.34 181.85,455.88 184.44,455.41 186.06,454.94 186.39,454.48 191.57,454.01 191.89,453.55 192.54,453.08 195.78,452.61 196.43,451.68 196.75,451.68 197.07,451.68 202.90,451.21 204.52,451.21 210.68,450.75 211.97,450.28 212.62,450.28 215.21,449.82 218.13,449.35 222.01,449.35 222.34,448.88 224.60,448.42 226.87,447.95 230.11,447.48 231.08,447.02 233.35,446.55 235.62,446.09 237.56,445.62 237.88,445.15 238.21,444.69 240.80,444.22 241.45,443.75 242.09,442.82 242.42,442.36 242.74,441.42 243.06,440.96 245.66,440.49 246.30,439.56 248.89,439.56 254.40,439.09 255.05,439.09 255.37,438.63 255.70,438.16 256.34,438.16 257.64,437.69 257.96,437.23 259.91,436.76 260.23,436.29 262.50,435.83 263.47,434.90 264.12,433.96 265.09,433.96 266.71,433.50 267.03,433.03 268.00,432.56 270.92,432.10 274.48,431.63 275.45,431.17 276.42,430.70 276.75,430.23 278.04,429.77 278.37,429.30 279.02,428.83 279.99,427.44 281.61,426.97 282.25,426.50 282.58,426.04 282.90,424.64 284.52,424.17 285.49,423.70 286.14,423.24 287.44,423.24 287.76,422.77 289.38,422.31 292.94,421.84 294.89,421.37 296.50,421.37 296.83,420.44 299.10,419.97 300.72,419.51 301.04,419.51 302.98,419.04 303.31,418.58 303.95,418.58 304.93,418.58 305.25,418.11 305.57,417.64 305.90,417.18 310.43,415.78 314.32,415.31 314.64,414.85 315.29,414.38 316.59,413.91 316.91,413.45 318.53,413.45 319.18,412.98 319.50,412.51 319.82,412.05 320.15,411.58 321.77,411.12 325.01,410.65 326.30,410.18 326.63,410.18 327.27,409.72 327.60,409.72 328.24,408.32 328.89,407.85 329.54,407.85 330.84,407.39 331.48,406.92 333.43,406.45 333.75,405.99 335.05,405.52 336.99,405.05 338.29,404.59 339.58,404.59 339.90,404.12 340.55,403.66 341.52,403.19 342.50,402.72 344.12,402.26 345.73,401.79 347.35,401.32 350.27,400.86 352.86,400.39 353.18,399.93 353.51,399.46 358.37,398.99 359.34,398.53 360.31,398.06 360.63,397.13 361.60,396.66 363.87,395.73 364.20,394.80 365.82,394.33 367.76,394.33 371.00,393.86 371.97,393.40 372.94,392.93 374.24,392.00 374.88,391.53 375.21,391.07 375.86,390.60 377.47,389.67 378.77,389.20 382.98,388.27 384.60,386.87 385.57,385.94 388.49,385.94 389.13,385.94 389.46,385.47 389.78,384.54 391.40,383.61 392.37,383.14 393.67,382.67 393.99,382.21 394.64,381.74 396.91,381.27 397.23,380.81 397.88,380.34 400.15,379.88 400.79,379.41 402.09,378.94 403.06,378.48 403.39,378.01 403.71,377.54 407.60,377.08 408.24,376.61 409.54,375.68 409.86,375.21 411.16,374.75 412.45,371.48 412.78,370.55 413.10,370.08 414.72,369.62 415.37,369.15 416.99,369.15 418.28,368.69 419.26,368.22 421.20,367.29 422.49,366.82 424.11,366.35 424.44,365.89 425.09,365.42 425.73,364.49 426.38,364.02 426.70,364.02 427.68,364.02 428.00,363.56 428.32,363.09 428.65,362.62 430.27,362.16 430.91,361.23 432.21,360.76 432.86,359.83 433.83,359.36 434.48,358.89 435.45,358.43 436.74,357.96 438.04,357.96 439.34,357.50 439.66,357.03 441.28,356.56 441.60,356.10 442.25,355.63 442.57,355.16 443.22,354.70 443.55,353.30 445.17,352.83 446.46,352.37 448.08,351.90 452.61,350.97 452.94,350.50 453.26,350.50 453.59,350.04 454.56,349.57 454.88,349.10 455.21,348.64 455.53,347.70 456.83,347.24 457.47,346.31 457.80,344.91 458.77,344.91 459.09,344.91 459.74,343.97 461.68,343.51 462.01,342.58 462.33,342.11 463.63,341.64 465.89,341.18 466.22,340.71 466.87,340.24 469.13,339.78 470.75,339.31 472.37,339.31 475.29,339.31 476.58,338.84 476.91,338.38 477.23,338.38 477.88,337.91 478.20,336.98 478.53,336.51 479.50,336.05 479.82,335.58 480.79,335.11 482.41,334.18 482.74,334.18 483.06,333.25 483.38,332.78 483.71,331.38 484.03,330.45 484.36,329.99 485.00,329.52 485.33,327.65 485.65,327.19 486.62,326.72 487.27,325.79 487.92,325.32 489.21,324.86 490.51,324.39 490.83,323.92 491.16,323.46 491.48,322.99 493.10,322.53 494.40,322.06 494.72,321.59 496.01,320.66 496.34,319.73 496.66,319.73 499.90,319.26 500.23,318.80 500.87,318.33 502.49,317.40 503.14,316.93 503.79,316.46 505.08,316.46 505.73,315.53 506.06,315.53 506.38,313.67 506.70,311.34 508.00,310.87 508.32,310.40 508.97,309.94 509.29,309.47 510.27,309.00 510.59,308.54 511.89,308.07 514.80,307.61 515.77,307.14 516.74,306.67 517.07,305.27 517.39,304.81 517.71,304.34 518.04,303.88 518.69,303.41 520.95,303.41 522.25,302.94 522.57,302.48 522.90,302.01 523.87,301.54 525.16,301.54 526.46,301.08 528.08,300.61 528.40,300.15 531.97,299.68 533.59,299.21 534.23,298.28 534.88,297.81 537.47,297.35 538.12,296.88 538.44,296.41 539.41,295.95 540.06,295.48 540.71,295.48 541.36,295.02 542.01,294.55 543.30,294.08 543.63,293.62 543.95,293.15 545.57,293.15 546.22,292.68 546.54,292.22 547.51,291.29 548.16,290.35 548.81,289.89 550.43,288.95 550.75,288.95 551.07,288.49 552.05,288.02 552.69,287.56 553.34,287.09 554.96,286.62 557.88,286.16 558.20,285.69 559.50,285.22 559.82,284.76 561.11,284.29 561.44,283.83 561.76,281.96 562.41,281.49 563.38,281.03 563.71,280.56 564.03,280.10 564.68,279.63 565.97,279.16 566.94,279.16 567.27,278.70 571.48,278.23 571.80,277.76 572.77,276.83 573.42,276.37 575.69,275.90 576.66,275.43 576.98,274.97 577.31,274.50 579.90,273.57 580.22,273.10 580.55,271.24 581.52,270.77 581.84,270.30 582.49,269.84 584.76,269.37 585.41,268.91 586.05,268.91 587.03,268.44 587.35,267.97 588.32,267.51 593.83,267.04 595.12,266.11 595.45,265.64 597.07,265.18 597.71,265.18 598.04,264.24 598.36,264.24 598.68,263.78 599.66,263.31 600.63,262.84 600.95,262.38 602.90,261.91 603.22,261.45 603.87,260.51 604.84,260.05 605.49,259.58 605.81,259.11 607.11,258.65 607.75,258.65 608.40,258.18 609.37,257.72 609.70,257.25 613.91,256.78 614.88,256.78 615.85,256.32 616.17,255.85 617.79,255.38 618.12,254.45 618.44,253.98 618.77,253.05 620.06,252.59 621.03,252.12 623.30,251.19 624.27,250.72 624.60,250.25 625.24,250.25 625.89,248.86 627.83,248.39 628.16,247.92 631.40,247.46 631.72,246.99 632.69,245.59 633.02,245.13 633.99,244.66 634.31,244.66 634.64,244.19 636.26,243.73 636.58,242.79 637.55,241.86 639.17,241.40 640.47,240.93 641.44,240.93 645.00,240.93 645.32,240.93 647.27,240.93 647.91,240.00 648.56,240.00 649.86,240.00 650.18,240.00 652.77,239.53 655.69,239.06 656.34,238.60 656.66,237.67 656.98,237.20 659.90,236.73 661.19,236.73 661.52,236.27 661.84,235.80 662.49,235.80 663.78,235.33 664.11,234.87 664.76,234.40 666.05,233.94 667.67,233.47 668.00,233.47 668.64,233.00 668.97,232.54 669.29,232.54 669.61,232.07 669.94,231.60 670.59,231.14 674.47,230.67 676.74,230.67 679.01,230.67 679.98,230.67 680.30,230.21 680.63,229.74 681.60,229.74 681.92,229.27 684.19,228.81 684.51,228.34 685.81,228.34 686.13,227.87 686.46,227.41 687.75,226.94 688.72,226.94 690.02,226.01 690.99,226.01 691.31,226.01 693.26,225.54 693.91,224.61 694.88,224.14 695.20,223.68 695.85,223.21 697.79,222.28 698.44,222.28 699.09,221.81 699.41,221.35 700.06,220.88 700.38,220.41 701.35,219.95 701.68,219.02 702.33,218.55 703.62,218.08 703.95,217.62 704.59,216.68 705.24,216.22 706.54,215.75 706.86,215.29 708.16,214.82 709.45,214.35 711.07,214.35 712.04,213.89 712.37,213.42 713.99,213.42 714.31,212.95 715.61,212.49 716.58,211.09 717.23,211.09 718.20,210.62 719.49,210.16 719.82,209.69 720.46,209.22 723.05,208.76 725.00,208.29 727.27,207.82 730.83,207.36 731.15,207.36 731.48,206.89 733.42,205.49 734.07,205.03 734.39,204.56 734.71,204.09 735.69,203.63 736.01,203.16 736.66,202.70 739.25,201.76 740.87,201.30 741.52,201.30 743.14,201.30 744.43,200.83 747.35,200.36 748.64,200.36 750.58,199.90 756.41,199.90 758.68,199.90 759.33,199.43 762.24,198.97 762.89,198.50 763.54,198.03 765.48,197.57 766.13,197.10 766.78,196.17 767.10,196.17 767.43,195.70 770.02,195.24 772.93,194.77 774.55,194.30 776.50,193.84 779.41,193.84 782.00,192.44 783.30,191.97 783.94,191.51 785.24,191.04 786.86,190.57 787.51,190.11 788.15,189.64 790.10,189.17 791.39,188.71 791.72,187.78 794.63,187.78 794.96,187.31 795.28,187.31 795.93,186.84 796.90,186.84 798.20,186.38 800.14,185.91 800.46,185.44 801.43,185.44 803.70,185.44 805.97,184.98 807.91,184.51 810.50,184.05 811.15,183.58 811.47,183.11 812.45,183.11 812.77,182.65 813.09,182.18 813.74,181.25 815.04,180.78 817.30,180.32 817.63,179.85 818.60,178.92 820.54,178.45 822.16,177.98 822.49,177.52 823.78,177.05 824.75,176.59 825.08,176.59 826.37,176.12 827.02,176.12 828.64,175.65 828.96,175.19 829.29,173.79 831.23,173.32 832.20,172.86 832.53,172.39 834.47,172.39 835.77,171.92 836.09,170.52 836.41,170.52 838.68,169.12 840.30,168.66 844.19,168.19 844.51,167.73 846.45,167.26 849.37,166.79 852.61,166.33 854.55,165.39 854.87,164.93 855.20,164.46 855.85,164.00 858.44,163.53 860.70,163.06 863.94,162.60 864.27,162.60 867.18,162.13 868.15,161.66 869.45,161.20 879.49,160.73 880.78,159.80 881.11,159.33 884.35,158.87 885.97,157.93 888.23,157.47 888.88,157.47 889.21,157.00 891.15,156.54 892.44,156.07 893.09,155.60 893.42,155.14 893.74,154.67 894.71,154.20 896.33,153.74 896.65,153.74 898.27,153.27 900.54,152.81 902.81,152.34 903.46,151.87 907.02,151.41 907.34,150.94 908.96,150.47 910.58,150.01 913.50,149.54 914.79,149.08 917.06,149.08 917.38,148.61 918.03,148.61 919.65,148.14 919.97,147.68 920.62,147.21 921.59,146.28 921.92,144.88 922.24,143.95 922.57,143.48 923.86,143.01 924.18,143.01 926.13,142.55 926.45,142.08 928.07,141.62 928.39,141.15 929.04,140.68 929.69,140.68 930.66,140.22 933.90,139.75 939.73,139.28 941.03,138.82 942.65,138.35 943.94,137.89 945.24,137.42 946.21,136.95 947.18,136.02 949.45,136.02 951.07,135.55 951.71,135.55 953.98,135.55 954.31,135.55 954.63,135.09 958.19,134.62 960.14,134.16 960.46,134.16 963.37,133.69 968.23,133.22 969.53,133.22 969.85,132.76 970.82,132.29 974.71,131.82 979.24,131.36 979.57,131.36 983.78,130.89 986.37,130.43 999.00,129.96 1001.92,129.03 1002.89,128.56 1004.51,128.09 1004.83,127.16 1010.66,126.69 1013.25,126.23 1018.43,125.76 1020.05,125.30 1022.32,124.83 1028.88,124.83 1031.79,124.83 1032.11,124.36 1032.77,124.36 1033.08,124.83 1034.06,124.83 1034.38,125.30 1035.68,125.30 1036.00,124.83"/>
<circle cx="90.00" cy="468.00" r="3.8" fill="#ffb50c" stroke="#111827" stroke-width="1"/>
<circle cx="191.89" cy="453.55" r="3.8" fill="#ffb50c" stroke="#111827" stroke-width="1"/>
<circle cx="245.66" cy="440.49" r="3.8" fill="#ffb50c" stroke="#111827" stroke-width="1"/>
<circle cx="282.58" cy="426.04" r="3.8" fill="#ffb50c" stroke="#111827" stroke-width="1"/>
<circle cx="319.50" cy="412.51" r="3.8" fill="#ffb50c" stroke="#111827" stroke-width="1"/>
<circle cx="353.51" cy="399.46" r="3.8" fill="#ffb50c" stroke="#111827" stroke-width="1"/>
<circle cx="394.64" cy="381.74" r="3.8" fill="#ffb50c" stroke="#111827" stroke-width="1"/>
<circle cx="426.70" cy="364.02" r="3.8" fill="#ffb50c" stroke="#111827" stroke-width="1"/>
<circle cx="454.88" cy="349.10" r="3.8" fill="#ffb50c" stroke="#111827" stroke-width="1"/>
<circle cx="482.74" cy="334.18" r="3.8" fill="#ffb50c" stroke="#111827" stroke-width="1"/>
<circle cx="505.73" cy="315.53" r="3.8" fill="#ffb50c" stroke="#111827" stroke-width="1"/>
<circle cx="534.23" cy="298.28" r="3.8" fill="#ffb50c" stroke="#111827" stroke-width="1"/>
<circle cx="561.11" cy="284.29" r="3.8" fill="#ffb50c" stroke="#111827" stroke-width="1"/>
<circle cx="588.32" cy="267.51" r="3.8" fill="#ffb50c" stroke="#111827" stroke-width="1"/>
<circle cx="618.77" cy="253.05" r="3.8" fill="#ffb50c" stroke="#111827" stroke-width="1"/>
<circle cx="652.77" cy="239.53" r="3.8" fill="#ffb50c" stroke="#111827" stroke-width="1"/>
<circle cx="684.19" cy="228.81" r="3.8" fill="#ffb50c" stroke="#111827" stroke-width="1"/>
<circle cx="708.16" cy="214.82" r="3.8" fill="#ffb50c" stroke="#111827" stroke-width="1"/>
<circle cx="743.14" cy="201.30" r="3.8" fill="#ffb50c" stroke="#111827" stroke-width="1"/>
<circle cx="791.72" cy="187.78" r="3.8" fill="#ffb50c" stroke="#111827" stroke-width="1"/>
<circle cx="826.37" cy="176.12" r="3.8" fill="#ffb50c" stroke="#111827" stroke-width="1"/>
<circle cx="879.49" cy="160.73" r="3.8" fill="#ffb50c" stroke="#111827" stroke-width="1"/>
<circle cx="919.97" cy="147.68" r="3.8" fill="#ffb50c" stroke="#111827" stroke-width="1"/>
<circle cx="960.14" cy="134.16" r="3.8" fill="#ffb50c" stroke="#111827" stroke-width="1"/>
<circle cx="1036.00" cy="124.83" r="3.8" fill="#ffb50c" stroke="#111827" stroke-width="1"/>
<text x="1028.00" y="114.83" text-anchor="end" fill="#ffb50c" font-size="12" font-family="-apple-system,BlinkMacSystemFont,Segoe UI,Helvetica,Arial,sans-serif">736</text>
<rect x="90.00" y="514.00" width="14" height="14" fill="url(#repo-0)" rx="3"/>
<text x="112.00" y="526.00" fill="#3bf2af" font-size="13" font-family="-apple-system,BlinkMacSystemFont,Segoe UI,Helvetica,Arial,sans-serif">bavix/gripmock</text>
<rect x="280.00" y="514.00" width="14" height="14" fill="url(#repo-1)" rx="3"/>
<text x="302.00" y="526.00" fill="#ffb50c" font-size="13" font-family="-apple-system,BlinkMacSystemFont,Segoe UI,Helvetica,Arial,sans-serif">tokopedia/gripmock</text>
<text x="1036.00" y="526.00" text-anchor="end" fill="#9ca3af" font-size="12" font-family="-apple-system,BlinkMacSystemFont,Segoe UI,Helvetica,Arial,sans-serif">Source: https://github.com/bavix/artifact-stats/blob/master/stats/github.csv</text>
</svg>