<svg xmlns="http://www.w3.org/2000/svg" width="1100" height="560" viewBox="0 0 1100 560">
<defs>
<linearGradient id="bg" x1="0" y1="0" x2="1" y2="1"><stop offset="0%" stop-color="#0b1220"/><stop offset="100%" stop-color="#111827"/></linearGradient>
<linearGradient id="repo-0" x1="0" y1="0" x2="0" y2="1"><stop offset="0%" stop-color="#34d399"/><stop offset="100%" stop-color="#059669"/></linearGradient>
<linearGradient id="repo-1" x1="0" y1="0" x2="0" y2="1"><stop offset="0%" stop-color="#f59e0b"/><stop offset="100%" stop-color="#d97706"/></linearGradient>
</defs>
<rect x="0" y="0" width="1100" height="560" fill="url(#bg)" rx="16"/>
<text x="90" y="44" fill="#f9fafb" font-size="28" font-family="-apple-system,BlinkMacSystemFont,Segoe UI,Helvetica,Arial,sans-serif" font-weight="700">GripMock GitHub Metrics - Forks</text>
<text x="90" y="70" fill="#9ca3af" font-size="16" font-family="-apple-system,BlinkMacSystemFont,Segoe UI,Helvetica,Arial,sans-serif">GitHub forks by snapshot date</text>
<line x1="90" y1="90.0" x2="1036" y2="90.0" stroke="#1f2937" stroke-width="1"/>
<text x="80" y="95.0" text-anchor="end" fill="#9ca3af" font-size="12" font-family="-apple-system,BlinkMacSystemFont,Segoe UI,Helvetica,Arial,sans-serif">185</text>
<line x1="90" y1="153.0" x2="1036" y2="153.0" stroke="#1f2937" stroke-width="1"/>
<text x="80" y="158.0" text-anchor="end" fill="#9ca3af" font-size="12" font-family="-apple-system,BlinkMacSystemFont,Segoe UI,Helvetica,Arial,sans-serif">154</text>
<line x1="90" y1="216.0" x2="1036" y2="216.0" stroke="#1f2937" stroke-width="1"/>
<text x="80" y="221.0" text-anchor="end" fill="#9ca3af" font-size="12" font-family="-apple-system,BlinkMacSystemFont,Segoe UI,Helvetica,Arial,sans-serif">123</text>
<line x1="90" y1="279.0" x2="1036" y2="279.0" stroke="#1f2937" stroke-width="1"/>
<text x="80" y="284.0" text-anchor="end" fill="#9ca3af" font-size="12" font-family="-apple-system,BlinkMacSystemFont,Segoe UI,Helvetica,Arial,sans-serif">92</text>
<line x1="90" y1="342.0" x2="1036" y2="342.0" stroke="#1f2937" stroke-width="1"/>
<text x="80" y="347.0" text-anchor="end" fill="#9ca3af" font-size="12" font-family="-apple-system,BlinkMacSystemFont,Segoe UI,Helvetica,Arial,sans-serif">62</text>
<line x1="90" y1="405.0" x2="1036" y2="405.0" stroke="#1f2937" stroke-width="1"/>
<text x="80" y="410.0" text-anchor="end" fill="#9ca3af" font-size="12" font-family="-apple-system,BlinkMacSystemFont,Segoe UI,Helvetica,Arial,sans-serif">31</text>
<line x1="90" y1="468.0" x2="1036" y2="468.0" stroke="#1f2937" stroke-width="1"/>
<text x="80" y="473.0" text-anchor="end" fill="#9ca3af" font-size="12" font-family="-apple-system,BlinkMacSystemFont,Segoe UI,Helvetica,Arial,sans-serif">0</text>
<line x1="90" y1="468" x2="1036" y2="468" stroke="#4b5563" stroke-width="1.4"/>
<line x1="90" y1="90" x2="90" y2="468" stroke="#4b5563" stroke-width="1.4"/>
<line x1="90.0" y1="468" x2="90.0" y2="474" stroke="#6b7280" stroke-width="1"/>
<text x="90.0" y="494" text-anchor="start" fill="#9ca3af" font-size="12" font-family="-apple-system,BlinkMacSystemFont,Segoe UI,Helvetica,Arial,sans-serif">2018-04-24</text>
<line x1="279.2" y1="468" x2="279.2" y2="474" stroke="#6b7280" stroke-width="1"/>
<text x="279.2" y="494" text-anchor="middle" fill="#9ca3af" font-size="12" font-family="-apple-system,BlinkMacSystemFont,Segoe UI,Helvetica,Arial,sans-serif">2019-11-27</text>
<line x1="468.4" y1="468" x2="468.4" y2="474" stroke="#6b7280" stroke-width="1"/>
<text x="468.4" y="494" text-anchor="middle" fill="#9ca3af" font-size="12" font-family="-apple-system,BlinkMacSystemFont,Segoe UI,Helvetica,Arial,sans-serif">2021-06-30</text>
<line x1="657.6" y1="468" x2="657.6" y2="474" stroke="#6b7280" stroke-width="1"/>
<text x="657.6" y="494" text-anchor="middle" fill="#9ca3af" font-size="12" font-family="-apple-system,BlinkMacSystemFont,Segoe UI,Helvetica,Arial,sans-serif">2023-02-02</text>
<line x1="846.8" y1="468" x2="846.8" y2="474" stroke="#6b7280" stroke-width="1"/>
<text x="846.8" y="494" text-anchor="middle" fill="#9ca3af" font-size="12" font-family="-apple-system,BlinkMacSystemFont,Segoe UI,Helvetica,Arial,sans-serif">2024-09-06</text>
<line x1="1036.0" y1="468" x2="1036.0" y2="474" stroke="#6b7280" stroke-width="1"/>
<text x="1036.0" y="494" text-anchor="end" fill="#9ca3af" font-size="12" font-family="-apple-system,BlinkMacSystemFont,Segoe UI,Helvetica,Arial,sans-serif">2026-04-11</text>
<polyline fill="none" stroke="url(#repo-0)" stroke-width="4" stroke-linecap="round" stroke-linejoin="round" points="720.92,468.00 727.62,468.00 740.63,468.00 754.29,468.00 756.24,468.00 759.49,468.00 771.20,468.00 773.48,468.00 779.01,468.00 779.33,468.00 784.21,468.00 792.02,468.00 804.37,468.00 807.63,468.00 811.85,468.00 815.43,468.00 830.39,468.00 834.94,468.00 835.60,468.00 836.90,468.00 843.08,468.00 856.73,468.00 859.66,468.00 866.49,468.00 872.02,468.00 872.67,468.00 873.32,468.00 893.48,468.00 896.09,468.00 896.74,468.00 902.92,468.00 903.57,468.00 907.47,465.95 908.77,465.95 909.09,465.95 909.42,465.95 912.35,463.91 913.97,463.91 915.60,463.91 920.80,461.86 925.36,459.82 926.98,459.82 927.63,457.77 934.46,457.77 938.36,457.77 950.07,457.77 952.35,457.77 953.00,455.73 954.95,455.73 956.90,455.73 959.83,453.68 965.03,453.68 971.86,453.68 976.09,453.68 987.47,453.68 989.75,453.68 994.63,453.68 994.95,453.68 995.93,453.68 998.53,453.68 998.85,451.64 1007.64,451.64 1014.47,451.64 1015.12,451.64 1017.39,451.64 1023.90,451.64 1026.17,451.64 1027.80,451.64 1029.43,451.64 1032.76,451.64 1033.72,451.64 1034.05,451.64 1034.70,451.64 1035.03,451.64 1035.35,451.64 1036.00,451.64"/>
<circle cx="720.92" cy="468.00" r="3.8" fill="#3bf2af" stroke="#111827" stroke-width="1"/>
<circle cx="754.29" cy="468.00" r="3.8" fill="#3bf2af" stroke="#111827" stroke-width="1"/>
<circle cx="771.20" cy="468.00" r="3.8" fill="#3bf2af" stroke="#111827" stroke-width="1"/>
<circle cx="779.33" cy="468.00" r="3.8" fill="#3bf2af" stroke="#111827" stroke-width="1"/>
<circle cx="804.37" cy="468.00" r="3.8" fill="#3bf2af" stroke="#111827" stroke-width="1"/>
<circle cx="815.43" cy="468.00" r="3.8" fill="#3bf2af" stroke="#111827" stroke-width="1"/>
<circle cx="835.60" cy="468.00" r="3.8" fill="#3bf2af" stroke="#111827" stroke-width="1"/>
<circle cx="856.73" cy="468.00" r="3.8" fill="#3bf2af" stroke="#111827" stroke-width="1"/>
<circle cx="872.02" cy="468.00" r="3.8" fill="#3bf2af" stroke="#111827" stroke-width="1"/>
<circle cx="893.48" cy="468.00" r="3.8" fill="#3bf2af" stroke="#111827" stroke-width="1"/>
<circle cx="902.92" cy="468.00" r="3.8" fill="#3bf2af" stroke="#111827" stroke-width="1"/>
<circle cx="908.77" cy="465.95" r="3.8" fill="#3bf2af" stroke="#111827" stroke-width="1"/>
<circle cx="912.35" cy="463.91" r="3.8" fill="#3bf2af" stroke="#111827" stroke-width="1"/>
<circle cx="920.80" cy="461.86" r="3.8" fill="#3bf2af" stroke="#111827" stroke-width="1"/>
<circle cx="927.63" cy="457.77" r="3.8" fill="#3bf2af" stroke="#111827" stroke-width="1"/>
<circle cx="950.07" cy="457.77" r="3.8" fill="#3bf2af" stroke="#111827" stroke-width="1"/>
<circle cx="954.95" cy="455.73" r="3.8" fill="#3bf2af" stroke="#111827" stroke-width="1"/>
<circle cx="965.03" cy="453.68" r="3.8" fill="#3bf2af" stroke="#111827" stroke-width="1"/>
<circle cx="987.47" cy="453.68" r="3.8" fill="#3bf2af" stroke="#111827" stroke-width="1"/>
<circle cx="994.95" cy="453.68" r="3.8" fill="#3bf2af" stroke="#111827" stroke-width="1"/>
<circle cx="998.85" cy="451.64" r="3.8" fill="#3bf2af" stroke="#111827" stroke-width="1"/>
<circle cx="1015.12" cy="451.64" r="3.8" fill="#3bf2af" stroke="#111827" stroke-width="1"/>
<circle cx="1026.17" cy="451.64" r="3.8" fill="#3bf2af" stroke="#111827" stroke-width="1"/>
<circle cx="1032.76" cy="451.64" r="3.8" fill="#3bf2af" stroke="#111827" stroke-width="1"/>
<circle cx="1034.70" cy="451.64" r="3.8" fill="#3bf2af" stroke="#111827" stroke-width="1"/>
<circle cx="1036.00" cy="451.64" r="3.8" fill="#3bf2af" stroke="#111827" stroke-width="1"/>
<text x="1028.0" y="441.6" text-anchor="end" fill="#3bf2af" font-size="12" font-family="-apple-system,BlinkMacSystemFont,Segoe UI,Helvetica,Arial,sans-serif">8</text>
<polyline fill="none" stroke="url(#repo-1)" stroke-width="4" stroke-linecap="round" stroke-linejoin="round" points="90.00,468.00 91.82,468.00 92.47,468.00 96.05,468.00 99.63,468.00 136.70,468.00 137.68,465.95 143.53,463.91 149.38,463.91 153.94,461.86 157.51,461.86 158.16,461.86 158.49,461.86 158.81,461.86 160.44,461.86 161.09,461.86 165.32,459.82 165.64,459.82 169.55,459.82 170.52,459.82 170.85,459.82 172.47,459.82 174.10,459.82 176.05,459.82 177.03,459.82 182.23,459.82 184.83,459.82 186.46,459.82 186.78,459.82 191.99,459.82 192.31,459.82 192.96,457.77 196.22,457.77 196.87,457.77 197.19,455.73 197.52,453.68 203.37,453.68 205.00,451.64 211.18,451.64 212.48,451.64 213.13,449.59 215.73,447.55 218.66,447.55 222.56,445.50 222.88,445.50 225.16,445.50 227.44,445.50 230.69,445.50 231.66,445.50 233.94,445.50 236.22,445.50 238.17,445.50 238.49,445.50 238.82,445.50 241.42,445.50 242.07,445.50 242.72,445.50 243.05,443.45 243.37,441.41 243.70,441.41 246.30,441.41 246.95,441.41 249.55,439.36 255.08,439.36 255.73,437.32 256.06,437.32 256.38,437.32 257.03,433.23 258.33,433.23 258.66,433.23 260.61,433.23 260.93,433.23 263.21,433.23 264.19,433.23 264.84,433.23 265.81,431.18 267.44,431.18 267.76,429.14 268.74,429.14 271.67,429.14 275.24,429.14 276.22,429.14 277.19,429.14 277.52,429.14 278.82,429.14 279.15,429.14 279.80,429.14 280.77,429.14 282.40,429.14 283.05,429.14 283.37,429.14 283.70,429.14 285.33,429.14 286.30,429.14 286.95,429.14 288.25,427.09 288.58,425.05 290.20,425.05 293.78,425.05 295.73,425.05 297.36,423.00 297.68,423.00 299.96,423.00 301.59,423.00 301.91,420.95 303.86,420.95 304.19,420.95 304.84,418.91 305.81,416.86 306.14,416.86 306.46,416.86 306.79,416.86 311.34,414.82 315.25,414.82 315.57,414.82 316.22,414.82 317.52,414.82 317.85,414.82 319.47,412.77 320.12,410.73 320.45,410.73 320.77,410.73 321.10,410.73 322.73,410.73 325.98,408.68 327.28,408.68 327.60,406.64 328.25,406.64 328.58,404.59 329.23,402.55 329.88,402.55 330.53,400.50 331.83,398.45 332.48,398.45 334.43,398.45 334.76,398.45 336.06,398.45 338.01,398.45 339.31,398.45 340.61,396.41 340.94,396.41 341.59,396.41 342.56,396.41 343.54,396.41 345.17,396.41 346.79,396.41 348.42,396.41 351.34,394.36 353.95,394.36 354.27,394.36 354.60,394.36 359.47,394.36 360.45,394.36 361.43,394.36 361.75,394.36 362.73,394.36 365.00,394.36 365.33,394.36 366.95,394.36 368.91,392.32 372.16,392.32 373.13,392.32 374.11,392.32 375.41,392.32 376.06,392.32 376.39,392.32 377.04,390.27 378.66,390.27 379.96,390.27 384.19,388.23 385.82,388.23 386.79,388.23 389.72,386.18 390.37,384.14 390.70,384.14 391.02,384.14 392.65,384.14 393.62,384.14 394.92,384.14 395.25,384.14 395.90,384.14 398.18,384.14 398.50,384.14 399.15,384.14 401.43,384.14 402.08,384.14 403.38,384.14 404.36,382.09 404.68,382.09 405.01,382.09 408.91,382.09 409.56,382.09 410.86,382.09 411.18,382.09 412.49,382.09 413.79,382.09 414.11,382.09 414.44,382.09 416.06,382.09 416.71,382.09 418.34,380.05 419.64,378.00 420.62,378.00 422.57,378.00 423.87,378.00 425.49,378.00 425.82,378.00 426.47,378.00 427.12,378.00 427.77,378.00 428.10,375.95 429.07,373.91 429.40,373.91 429.72,373.91 430.05,371.86 431.67,371.86 432.32,369.82 433.62,369.82 434.28,369.82 435.25,369.82 435.90,369.82 436.88,369.82 438.18,369.82 439.48,367.77 440.78,365.73 441.10,365.73 442.73,365.73 443.06,365.73 443.71,365.73 444.03,365.73 444.68,365.73 445.01,365.73 446.63,365.73 447.93,365.73 449.56,363.68 454.11,363.68 454.44,363.68 454.76,361.64 455.09,361.64 456.06,357.55 456.39,357.55 456.72,357.55 457.04,357.55 458.34,355.50 458.99,355.50 459.32,355.50 460.29,353.45 460.62,351.41 461.27,351.41 463.22,351.41 463.54,351.41 463.87,351.41 465.17,351.41 467.45,351.41 467.77,351.41 468.42,351.41 470.70,351.41 472.33,351.41 473.95,349.36 476.88,347.32 478.18,347.32 478.50,347.32 478.83,345.27 479.48,345.27 479.81,343.23 480.13,343.23 481.11,343.23 481.43,343.23 482.41,343.23 484.03,343.23 484.36,339.14 484.68,339.14 485.01,339.14 485.33,339.14 485.66,339.14 485.98,339.14 486.64,339.14 486.96,339.14 487.29,335.05 488.26,335.05 488.91,335.05 489.56,335.05 490.86,335.05 492.16,335.05 492.49,335.05 492.81,333.00 493.14,330.95 494.77,330.95 496.07,330.95 496.39,330.95 497.69,330.95 498.02,330.95 498.34,328.91 501.60,328.91 501.92,328.91 502.57,328.91 504.20,328.91 504.85,328.91 505.50,328.91 506.80,326.86 507.45,326.86 507.77,324.82 508.10,324.82 508.43,322.77 509.73,322.77 510.05,322.77 510.70,322.77 511.03,322.77 512.00,322.77 512.33,322.77 513.63,322.77 516.56,322.77 517.53,322.77 518.51,322.77 518.83,320.73 519.16,320.73 519.48,318.68 519.81,318.68 520.46,318.68 522.73,316.64 524.04,316.64 524.36,316.64 524.69,316.64 525.66,316.64 526.96,314.59 528.26,314.59 529.89,314.59 530.21,314.59 533.79,314.59 535.42,314.59 536.07,314.59 536.72,314.59 539.32,314.59 539.97,314.59 540.30,314.59 541.27,314.59 541.92,314.59 542.57,312.55 543.22,312.55 543.87,312.55 545.17,312.55 545.50,312.55 545.83,312.55 547.45,310.50 548.10,310.50 548.43,310.50 549.40,310.50 550.05,310.50 550.70,310.50 552.33,310.50 552.65,308.45 552.98,308.45 553.96,308.45 554.61,306.41 555.26,306.41 556.88,306.41 559.81,306.41 560.13,306.41 561.44,306.41 561.76,306.41 563.06,306.41 563.39,306.41 563.71,304.36 564.36,304.36 565.34,304.36 565.66,304.36 565.99,304.36 566.64,304.36 567.94,304.36 568.92,302.32 569.24,302.32 573.47,302.32 573.79,302.32 574.77,302.32 575.42,302.32 577.70,302.32 578.67,300.27 579.00,300.27 579.32,300.27 581.92,300.27 582.25,300.27 582.57,300.27 583.55,300.27 583.88,300.27 584.53,300.27 586.80,300.27 587.45,300.27 588.10,296.18 589.08,296.18 589.40,296.18 590.38,296.18 595.91,296.18 597.21,296.18 597.53,296.18 599.16,296.18 599.81,294.14 600.14,294.14 600.46,292.09 600.79,292.09 601.76,290.05 602.74,290.05 603.06,290.05 605.02,290.05 605.34,290.05 605.99,290.05 606.97,290.05 607.62,290.05 607.94,290.05 609.24,290.05 609.89,288.00 610.54,288.00 611.52,288.00 611.84,288.00 616.07,288.00 617.05,285.95 618.02,285.95 618.35,285.95 619.98,285.95 620.30,285.95 620.63,285.95 620.95,285.95 622.25,285.95 623.23,285.95 625.50,285.95 626.48,285.95 626.80,285.95 627.46,283.91 628.11,283.91 630.06,283.91 630.38,283.91 633.63,283.91 633.96,283.91 634.94,283.91 635.26,283.91 636.24,283.91 636.56,279.82 636.89,279.82 638.51,279.82 638.84,279.82 639.81,279.82 641.44,279.82 642.74,279.82 643.72,277.77 647.29,275.73 647.62,273.68 649.57,271.64 650.22,271.64 650.87,269.59 652.17,267.55 652.50,265.50 655.10,265.50 658.03,265.50 658.68,265.50 659.00,263.45 659.33,263.45 662.25,261.41 663.55,259.36 663.88,259.36 664.20,259.36 664.86,257.32 666.16,257.32 666.48,257.32 667.13,257.32 668.43,257.32 670.06,257.32 670.38,255.27 671.03,255.27 671.36,255.27 671.68,253.23 672.01,253.23 672.34,253.23 672.99,253.23 676.89,253.23 679.16,251.18 681.44,249.14 682.42,247.09 682.74,245.05 683.07,245.05 684.04,243.00 684.37,243.00 686.64,240.95 686.97,240.95 688.27,238.91 688.60,238.91 688.92,238.91 690.22,238.91 691.20,236.86 692.50,236.86 693.47,234.82 693.80,232.77 695.75,232.77 696.40,232.77 697.38,232.77 697.70,232.77 698.35,232.77 700.30,230.73 700.95,228.68 701.60,228.68 701.93,228.68 702.58,228.68 702.91,228.68 703.88,228.68 704.21,228.68 704.86,228.68 706.16,228.68 706.48,228.68 707.13,228.68 707.78,228.68 709.08,228.68 709.41,226.64 710.71,226.64 712.01,226.64 713.64,224.59 714.61,224.59 714.94,224.59 716.57,222.55 716.89,222.55 718.19,222.55 719.17,222.55 719.82,220.50 720.79,220.50 722.09,220.50 722.42,220.50 723.07,220.50 725.67,220.50 727.62,218.45 729.90,218.45 733.48,218.45 733.80,216.41 734.13,216.41 736.08,216.41 736.73,216.41 737.05,216.41 737.38,214.36 738.35,214.36 738.68,212.32 739.33,212.32 741.93,212.32 743.56,212.32 744.21,210.27 745.83,208.23 747.14,208.23 750.06,206.18 751.36,204.14 753.31,204.14 759.17,202.09 761.45,200.05 762.10,200.05 765.02,200.05 765.67,200.05 766.32,200.05 768.27,200.05 768.93,200.05 769.58,200.05 769.90,198.00 770.23,198.00 772.83,198.00 775.75,198.00 777.38,198.00 779.33,198.00 782.26,195.95 784.86,195.95 786.16,195.95 786.81,195.95 788.11,195.95 789.74,195.95 790.39,195.95 791.04,195.95 792.99,195.95 794.29,195.95 794.62,195.95 797.54,193.91 797.87,193.91 798.19,191.86 798.85,191.86 799.82,189.82 801.12,189.82 803.07,189.82 803.40,189.82 804.37,187.77 806.65,185.73 808.93,185.73 810.88,185.73 813.48,185.73 814.13,185.73 814.46,185.73 815.43,183.68 815.76,183.68 816.08,183.68 816.73,183.68 818.03,181.64 820.31,181.64 820.64,179.59 821.61,179.59 823.56,179.59 825.19,179.59 825.51,179.59 826.81,179.59 827.79,179.59 828.12,177.55 829.42,177.55 830.07,175.50 831.69,175.50 832.02,173.45 832.34,173.45 834.29,173.45 835.27,173.45 835.60,173.45 837.55,171.41 838.85,171.41 839.17,171.41 839.50,169.36 841.77,169.36 843.40,169.36 847.30,169.36 847.63,169.36 849.58,169.36 852.51,169.36 855.76,169.36 857.71,169.36 858.04,169.36 858.36,169.36 859.01,169.36 861.61,169.36 863.89,169.36 867.14,169.36 867.47,167.32 870.39,167.32 871.37,167.32 872.67,167.32 882.75,167.32 884.05,167.32 884.38,167.32 887.63,167.32 889.26,167.32 891.53,167.32 892.18,165.27 892.51,165.27 894.46,165.27 895.76,165.27 896.41,165.27 896.74,165.27 897.06,165.27 898.04,165.27 899.66,165.27 899.99,163.23 901.61,163.23 903.89,163.23 906.17,163.23 906.82,163.23 910.40,163.23 910.72,163.23 912.35,163.23 913.97,163.23 916.90,163.23 918.20,163.23 920.48,159.14 920.80,159.14 921.45,157.09 923.08,157.09 923.40,157.09 924.05,157.09 925.03,157.09 925.36,157.09 925.68,157.09 926.01,157.09 927.31,157.09 927.63,155.05 929.58,155.05 929.91,155.05 931.53,155.05 931.86,155.05 932.51,155.05 933.16,153.00 934.14,153.00 937.39,153.00 943.24,153.00 944.54,153.00 946.17,150.95 947.47,150.95 948.77,150.95 949.75,150.95 950.72,150.95 953.00,148.91 954.63,148.91 955.28,146.86 957.55,144.82 957.88,142.77 958.20,142.77 961.78,142.77 963.73,142.77 964.06,140.73 966.98,140.73 971.86,140.73 973.16,138.68 973.49,138.68 974.46,138.68 978.37,138.68 982.92,138.68 983.24,136.64 987.47,136.64 990.07,136.64 1002.76,136.64 1005.68,136.64 1006.66,136.64 1008.29,136.64 1008.61,136.64 1014.47,136.64 1017.07,136.64 1022.27,136.64 1023.90,136.64 1026.17,136.64 1032.76,124.36 1035.68,124.36 1036.00,124.36"/>
<circle cx="90.00" cy="468.00" r="3.8" fill="#ffb50c" stroke="#111827" stroke-width="1"/>
<circle cx="191.99" cy="459.82" r="3.8" fill="#ffb50c" stroke="#111827" stroke-width="1"/>
<circle cx="243.37" cy="441.41" r="3.8" fill="#ffb50c" stroke="#111827" stroke-width="1"/>
<circle cx="280.77" cy="429.14" r="3.8" fill="#ffb50c" stroke="#111827" stroke-width="1"/>
<circle cx="317.52" cy="414.82" r="3.8" fill="#ffb50c" stroke="#111827" stroke-width="1"/>
<circle cx="346.79" cy="396.41" r="3.8" fill="#ffb50c" stroke="#111827" stroke-width="1"/>
<circle cx="390.70" cy="384.14" r="3.8" fill="#ffb50c" stroke="#111827" stroke-width="1"/>
<circle cx="422.57" cy="378.00" r="3.8" fill="#ffb50c" stroke="#111827" stroke-width="1"/>
<circle cx="446.63" cy="365.73" r="3.8" fill="#ffb50c" stroke="#111827" stroke-width="1"/>
<circle cx="478.50" cy="347.32" r="3.8" fill="#ffb50c" stroke="#111827" stroke-width="1"/>
<circle cx="497.69" cy="330.95" r="3.8" fill="#ffb50c" stroke="#111827" stroke-width="1"/>
<circle cx="522.73" cy="316.64" r="3.8" fill="#ffb50c" stroke="#111827" stroke-width="1"/>
<circle cx="550.70" cy="310.50" r="3.8" fill="#ffb50c" stroke="#111827" stroke-width="1"/>
<circle cx="579.00" cy="300.27" r="3.8" fill="#ffb50c" stroke="#111827" stroke-width="1"/>
<circle cx="607.62" cy="290.05" r="3.8" fill="#ffb50c" stroke="#111827" stroke-width="1"/>
<circle cx="636.56" cy="279.82" r="3.8" fill="#ffb50c" stroke="#111827" stroke-width="1"/>
<circle cx="670.06" cy="257.32" r="3.8" fill="#ffb50c" stroke="#111827" stroke-width="1"/>
<circle cx="697.70" cy="232.77" r="3.8" fill="#ffb50c" stroke="#111827" stroke-width="1"/>
<circle cx="722.42" cy="220.50" r="3.8" fill="#ffb50c" stroke="#111827" stroke-width="1"/>
<circle cx="768.27" cy="200.05" r="3.8" fill="#ffb50c" stroke="#111827" stroke-width="1"/>
<circle cx="806.65" cy="185.73" r="3.8" fill="#ffb50c" stroke="#111827" stroke-width="1"/>
<circle cx="838.85" cy="171.41" r="3.8" fill="#ffb50c" stroke="#111827" stroke-width="1"/>
<circle cx="894.46" cy="165.27" r="3.8" fill="#ffb50c" stroke="#111827" stroke-width="1"/>
<circle cx="927.63" cy="155.05" r="3.8" fill="#ffb50c" stroke="#111827" stroke-width="1"/>
<circle cx="974.46" cy="138.68" r="3.8" fill="#ffb50c" stroke="#111827" stroke-width="1"/>
<circle cx="1036.00" cy="124.36" r="3.8" fill="#ffb50c" stroke="#111827" stroke-width="1"/>
<text x="1028.0" y="114.4" text-anchor="end" fill="#ffb50c" font-size="12" font-family="-apple-system,BlinkMacSystemFont,Segoe UI,Helvetica,Arial,sans-serif">168</text>
<rect x="90" y="514" width="14" height="14" fill="url(#repo-0)" rx="3"/>
<text x="112" y="526" fill="#3bf2af" font-size="13" font-family="-apple-system,BlinkMacSystemFont,Segoe UI,Helvetica,Arial,sans-serif">bavix/gripmock</text>
<rect x="280" y="514" width="14" height="14" fill="url(#repo-1)" rx="3"/>
<text x="302" y="526" fill="#ffb50c" font-size="13" font-family="-apple-system,BlinkMacSystemFont,Segoe UI,Helvetica,Arial,sans-serif">tokopedia/gripmock</text>
<text x="1036" y="526" text-anchor="end" fill="#9ca3af" font-size="12" font-family="-apple-system,BlinkMacSystemFont,Segoe UI,Helvetica,Arial,sans-serif">Source: https://github.com/bavix/artifact-stats/blob/master/stats/github.csv</text>
</svg>