<svg xmlns="http://www.w3.org/2000/svg" width="1100" height="560" viewBox="0 0 1100 560">
<defs>
<linearGradient id="bg" x1="0" y1="0" x2="1" y2="1"><stop offset="0%" stop-color="#0b1220"/><stop offset="100%" stop-color="#111827"/></linearGradient>
<linearGradient id="repo-0" x1="0" y1="0" x2="0" y2="1"><stop offset="0%" stop-color="#34d399"/><stop offset="100%" stop-color="#059669"/></linearGradient>
<linearGradient id="repo-1" x1="0" y1="0" x2="0" y2="1"><stop offset="0%" stop-color="#f59e0b"/><stop offset="100%" stop-color="#d97706"/></linearGradient>
</defs>
<rect x="0" y="0" width="1100" height="560" fill="url(#bg)" rx="16"/>
<text x="90" y="44" fill="#f9fafb" font-size="28" font-family="-apple-system,BlinkMacSystemFont,Segoe UI,Helvetica,Arial,sans-serif" font-weight="700">GripMock GitHub Metrics - Stars</text>
<text x="90" y="70" fill="#9ca3af" font-size="16" font-family="-apple-system,BlinkMacSystemFont,Segoe UI,Helvetica,Arial,sans-serif">GitHub stars by snapshot date</text>
<line x1="90" y1="90.0" x2="1036" y2="90.0" stroke="#1f2937" stroke-width="1"/>
<text x="80" y="95.0" text-anchor="end" fill="#9ca3af" font-size="12" font-family="-apple-system,BlinkMacSystemFont,Segoe UI,Helvetica,Arial,sans-serif">810</text>
<line x1="90" y1="153.0" x2="1036" y2="153.0" stroke="#1f2937" stroke-width="1"/>
<text x="80" y="158.0" text-anchor="end" fill="#9ca3af" font-size="12" font-family="-apple-system,BlinkMacSystemFont,Segoe UI,Helvetica,Arial,sans-serif">675</text>
<line x1="90" y1="216.0" x2="1036" y2="216.0" stroke="#1f2937" stroke-width="1"/>
<text x="80" y="221.0" text-anchor="end" fill="#9ca3af" font-size="12" font-family="-apple-system,BlinkMacSystemFont,Segoe UI,Helvetica,Arial,sans-serif">540</text>
<line x1="90" y1="279.0" x2="1036" y2="279.0" stroke="#1f2937" stroke-width="1"/>
<text x="80" y="284.0" text-anchor="end" fill="#9ca3af" font-size="12" font-family="-apple-system,BlinkMacSystemFont,Segoe UI,Helvetica,Arial,sans-serif">405</text>
<line x1="90" y1="342.0" x2="1036" y2="342.0" stroke="#1f2937" stroke-width="1"/>
<text x="80" y="347.0" text-anchor="end" fill="#9ca3af" font-size="12" font-family="-apple-system,BlinkMacSystemFont,Segoe UI,Helvetica,Arial,sans-serif">270</text>
<line x1="90" y1="405.0" x2="1036" y2="405.0" stroke="#1f2937" stroke-width="1"/>
<text x="80" y="410.0" text-anchor="end" fill="#9ca3af" font-size="12" font-family="-apple-system,BlinkMacSystemFont,Segoe UI,Helvetica,Arial,sans-serif">135</text>
<line x1="90" y1="468.0" x2="1036" y2="468.0" stroke="#1f2937" stroke-width="1"/>
<text x="80" y="473.0" text-anchor="end" fill="#9ca3af" font-size="12" font-family="-apple-system,BlinkMacSystemFont,Segoe UI,Helvetica,Arial,sans-serif">0</text>
<line x1="90" y1="468" x2="1036" y2="468" stroke="#4b5563" stroke-width="1.4"/>
<line x1="90" y1="90" x2="90" y2="468" stroke="#4b5563" stroke-width="1.4"/>
<line x1="90.0" y1="468" x2="90.0" y2="474" stroke="#6b7280" stroke-width="1"/>
<text x="90.0" y="494" text-anchor="start" fill="#9ca3af" font-size="12" font-family="-apple-system,BlinkMacSystemFont,Segoe UI,Helvetica,Arial,sans-serif">2018-04-24</text>
<line x1="279.2" y1="468" x2="279.2" y2="474" stroke="#6b7280" stroke-width="1"/>
<text x="279.2" y="494" text-anchor="middle" fill="#9ca3af" font-size="12" font-family="-apple-system,BlinkMacSystemFont,Segoe UI,Helvetica,Arial,sans-serif">2019-11-26</text>
<line x1="468.4" y1="468" x2="468.4" y2="474" stroke="#6b7280" stroke-width="1"/>
<text x="468.4" y="494" text-anchor="middle" fill="#9ca3af" font-size="12" font-family="-apple-system,BlinkMacSystemFont,Segoe UI,Helvetica,Arial,sans-serif">2021-06-28</text>
<line x1="657.6" y1="468" x2="657.6" y2="474" stroke="#6b7280" stroke-width="1"/>
<text x="657.6" y="494" text-anchor="middle" fill="#9ca3af" font-size="12" font-family="-apple-system,BlinkMacSystemFont,Segoe UI,Helvetica,Arial,sans-serif">2023-01-30</text>
<line x1="846.8" y1="468" x2="846.8" y2="474" stroke="#6b7280" stroke-width="1"/>
<text x="846.8" y="494" text-anchor="middle" fill="#9ca3af" font-size="12" font-family="-apple-system,BlinkMacSystemFont,Segoe UI,Helvetica,Arial,sans-serif">2024-09-02</text>
<line x1="1036.0" y1="468" x2="1036.0" y2="474" stroke="#6b7280" stroke-width="1"/>
<text x="1036.0" y="494" text-anchor="end" fill="#9ca3af" font-size="12" font-family="-apple-system,BlinkMacSystemFont,Segoe UI,Helvetica,Arial,sans-serif">2026-04-06</text>
<polyline fill="none" stroke="url(#repo-0)" stroke-width="4" stroke-linecap="round" stroke-linejoin="round" points="722.01,468.00 728.72,467.53 741.75,467.07 755.43,466.60 757.38,466.13 760.64,465.67 772.37,465.20 774.65,464.73 780.19,464.26 780.51,463.80 785.40,463.33 793.22,462.86 805.60,462.40 808.86,461.93 813.09,461.46 816.68,461.00 831.66,460.53 836.22,460.06 836.87,459.60 838.18,459.13 844.37,458.66 858.05,458.20 860.98,457.73 867.82,457.26 873.36,456.79 874.01,456.33 874.66,455.86 894.86,455.39 897.47,454.93 898.12,454.46 904.31,453.99 904.96,453.53 908.87,453.53 910.17,453.06 910.50,452.59 910.83,452.13 913.76,451.66 915.39,451.19 917.02,450.72 922.23,450.72 926.79,450.72 928.42,450.26 929.07,450.26 935.91,449.79 939.82,449.32 951.55,448.86 953.83,448.39 954.48,448.39 956.43,447.92 958.39,447.46 961.32,447.46 966.53,446.99 973.37,446.52 977.61,446.06 989.01,445.59 991.29,445.12 996.18,444.66 996.50,444.19 997.48,443.72 1000.09,443.25 1000.41,443.25 1009.21,442.79 1016.05,442.32 1016.70,441.85 1018.98,441.39 1025.50,440.92 1027.78,440.45 1029.41,439.99 1031.04,439.52 1034.37,439.52 1035.34,439.52 1035.67,439.05 1036.00,439.05"/>
<circle cx="722.01" cy="468.00" r="3.8" fill="#3bf2af" stroke="#111827" stroke-width="1"/>
<circle cx="755.43" cy="466.60" r="3.8" fill="#3bf2af" stroke="#111827" stroke-width="1"/>
<circle cx="772.37" cy="465.20" r="3.8" fill="#3bf2af" stroke="#111827" stroke-width="1"/>
<circle cx="780.51" cy="463.80" r="3.8" fill="#3bf2af" stroke="#111827" stroke-width="1"/>
<circle cx="805.60" cy="462.40" r="3.8" fill="#3bf2af" stroke="#111827" stroke-width="1"/>
<circle cx="816.68" cy="461.00" r="3.8" fill="#3bf2af" stroke="#111827" stroke-width="1"/>
<circle cx="836.87" cy="459.60" r="3.8" fill="#3bf2af" stroke="#111827" stroke-width="1"/>
<circle cx="858.05" cy="458.20" r="3.8" fill="#3bf2af" stroke="#111827" stroke-width="1"/>
<circle cx="873.36" cy="456.79" r="3.8" fill="#3bf2af" stroke="#111827" stroke-width="1"/>
<circle cx="894.86" cy="455.39" r="3.8" fill="#3bf2af" stroke="#111827" stroke-width="1"/>
<circle cx="904.31" cy="453.99" r="3.8" fill="#3bf2af" stroke="#111827" stroke-width="1"/>
<circle cx="910.17" cy="453.06" r="3.8" fill="#3bf2af" stroke="#111827" stroke-width="1"/>
<circle cx="913.76" cy="451.66" r="3.8" fill="#3bf2af" stroke="#111827" stroke-width="1"/>
<circle cx="922.23" cy="450.72" r="3.8" fill="#3bf2af" stroke="#111827" stroke-width="1"/>
<circle cx="929.07" cy="450.26" r="3.8" fill="#3bf2af" stroke="#111827" stroke-width="1"/>
<circle cx="951.55" cy="448.86" r="3.8" fill="#3bf2af" stroke="#111827" stroke-width="1"/>
<circle cx="956.43" cy="447.92" r="3.8" fill="#3bf2af" stroke="#111827" stroke-width="1"/>
<circle cx="966.53" cy="446.99" r="3.8" fill="#3bf2af" stroke="#111827" stroke-width="1"/>
<circle cx="989.01" cy="445.59" r="3.8" fill="#3bf2af" stroke="#111827" stroke-width="1"/>
<circle cx="996.50" cy="444.19" r="3.8" fill="#3bf2af" stroke="#111827" stroke-width="1"/>
<circle cx="1000.41" cy="443.25" r="3.8" fill="#3bf2af" stroke="#111827" stroke-width="1"/>
<circle cx="1016.70" cy="441.85" r="3.8" fill="#3bf2af" stroke="#111827" stroke-width="1"/>
<circle cx="1027.78" cy="440.45" r="3.8" fill="#3bf2af" stroke="#111827" stroke-width="1"/>
<circle cx="1034.37" cy="439.52" r="3.8" fill="#3bf2af" stroke="#111827" stroke-width="1"/>
<circle cx="1036.00" cy="439.05" r="3.8" fill="#3bf2af" stroke="#111827" stroke-width="1"/>
<text x="1028.0" y="429.1" text-anchor="end" fill="#3bf2af" font-size="12" font-family="-apple-system,BlinkMacSystemFont,Segoe UI,Helvetica,Arial,sans-serif">62</text>
<polyline fill="none" stroke="url(#repo-1)" stroke-width="4" stroke-linecap="round" stroke-linejoin="round" points="90.00,468.00 91.82,466.60 92.47,466.13 96.06,465.67 99.64,465.20 136.78,464.73 137.76,464.26 143.62,464.26 149.49,463.80 154.05,463.80 157.63,463.33 158.28,462.86 158.61,462.40 158.93,461.93 160.56,461.46 161.21,461.00 165.45,460.53 165.77,460.06 169.68,459.60 170.66,459.13 170.99,458.66 172.62,458.20 174.24,457.26 176.20,456.79 177.18,456.33 182.39,455.86 185.00,455.39 186.62,454.93 186.95,454.46 192.16,453.99 192.49,453.53 193.14,453.06 196.40,452.59 197.05,451.66 197.37,451.66 197.70,451.66 203.56,451.19 205.19,451.19 211.38,450.72 212.69,450.26 213.34,450.26 215.94,449.79 218.88,449.32 222.79,449.32 223.11,448.86 225.39,448.39 227.67,447.92 230.93,447.46 231.91,446.99 234.19,446.52 236.47,446.06 238.42,445.59 238.75,445.12 239.07,444.66 241.68,444.19 242.33,443.72 242.98,442.79 243.31,442.32 243.63,441.39 243.96,440.92 246.57,440.45 247.22,439.52 249.82,439.52 255.36,439.05 256.01,439.05 256.34,438.59 256.67,438.12 257.32,438.12 258.62,437.65 258.95,437.18 260.90,436.72 261.23,436.25 263.51,435.78 264.48,434.85 265.14,433.92 266.11,433.92 267.74,433.45 268.07,432.98 269.05,432.52 271.98,432.05 275.56,431.58 276.54,431.12 277.52,430.65 277.84,430.18 279.14,429.71 279.47,429.25 280.12,428.78 281.10,427.38 282.73,426.91 283.38,426.45 283.71,425.98 284.03,424.58 285.66,424.11 286.64,423.64 287.29,423.18 288.59,423.18 288.92,422.71 290.55,422.24 294.13,421.78 296.08,421.31 297.71,421.31 298.04,420.38 300.32,419.91 301.95,419.44 302.27,419.44 304.23,418.98 304.56,418.51 305.21,418.51 306.18,418.51 306.51,418.04 306.84,417.58 307.16,417.11 311.72,415.71 315.63,415.24 315.96,414.77 316.61,414.31 317.91,413.84 318.24,413.37 319.87,413.37 320.52,412.91 320.84,412.44 321.17,411.97 321.50,411.51 323.12,411.04 326.38,410.57 327.69,410.10 328.01,410.10 328.66,409.64 328.99,409.64 329.64,408.24 330.29,407.77 330.94,407.77 332.25,407.30 332.90,406.84 334.85,406.37 335.18,405.90 336.48,405.44 338.44,404.97 339.74,404.50 341.04,404.50 341.37,404.04 342.02,403.57 343.00,403.10 343.97,402.63 345.60,402.17 347.23,401.70 348.86,401.23 351.79,400.77 354.40,400.30 354.72,399.83 355.05,399.37 359.94,398.90 360.91,398.43 361.89,397.97 362.22,397.03 363.19,396.56 365.48,395.63 365.80,394.70 367.43,394.23 369.38,394.23 372.64,393.76 373.62,393.30 374.60,392.83 375.90,391.90 376.55,391.43 376.88,390.96 377.53,390.50 379.16,389.56 380.46,389.09 384.70,388.16 386.33,386.76 387.30,385.83 390.23,385.83 390.89,385.83 391.21,385.36 391.54,384.43 393.17,383.49 394.14,383.02 395.45,382.56 395.77,382.09 396.42,381.62 398.70,381.16 399.03,380.69 399.68,380.22 401.96,379.76 402.61,379.29 403.92,378.82 404.89,378.36 405.22,377.89 405.55,377.42 409.46,376.96 410.11,376.49 411.41,375.55 411.74,375.09 413.04,374.62 414.34,371.35 414.67,370.42 414.99,369.95 416.62,369.48 417.27,369.02 418.90,369.02 420.21,368.55 421.18,368.08 423.14,367.15 424.44,366.68 426.07,366.22 426.40,365.75 427.05,365.28 427.70,364.35 428.35,363.88 428.68,363.88 429.65,363.88 429.98,363.42 430.30,362.95 430.63,362.48 432.26,362.01 432.91,361.08 434.21,360.61 434.87,359.68 435.84,359.21 436.49,358.75 437.47,358.28 438.78,357.81 440.08,357.81 441.38,357.35 441.71,356.88 443.34,356.41 443.66,355.94 444.31,355.48 444.64,355.01 445.29,354.54 445.62,353.14 447.25,352.68 448.55,352.21 450.18,351.74 454.74,350.81 455.06,350.34 455.39,350.34 455.72,349.88 456.69,349.41 457.02,348.94 457.34,348.47 457.67,347.54 458.97,347.07 459.62,346.14 459.95,344.74 460.93,344.74 461.25,344.74 461.91,343.81 463.86,343.34 464.19,342.40 464.51,341.94 465.81,341.47 468.10,341.00 468.42,340.54 469.07,340.07 471.35,339.60 472.98,339.14 474.61,339.14 477.54,339.14 478.85,338.67 479.17,338.20 479.50,338.20 480.15,337.74 480.47,336.80 480.80,336.33 481.78,335.87 482.10,335.40 483.08,334.93 484.71,334.00 485.04,334.00 485.36,333.07 485.69,332.60 486.01,331.20 486.34,330.27 486.66,329.80 487.32,329.33 487.64,327.46 487.97,327.00 488.94,326.53 489.60,325.60 490.25,325.13 491.55,324.66 492.85,324.20 493.18,323.73 493.51,323.26 493.83,322.79 495.46,322.33 496.76,321.86 497.09,321.39 498.39,320.46 498.72,319.53 499.04,319.53 502.30,319.06 502.63,318.59 503.28,318.13 504.91,317.19 505.56,316.73 506.21,316.26 507.51,316.26 508.17,315.32 508.49,315.32 508.82,313.46 509.14,311.12 510.45,310.66 510.77,310.19 511.42,309.72 511.75,309.25 512.73,308.79 513.05,308.32 514.36,307.85 517.29,307.39 518.26,306.92 519.24,306.45 519.57,305.05 519.89,304.59 520.22,304.12 520.55,303.65 521.20,303.19 523.48,303.19 524.78,302.72 525.11,302.25 525.43,301.78 526.41,301.32 527.71,301.32 529.02,300.85 530.64,300.38 530.97,299.92 534.55,299.45 536.18,298.98 536.83,298.05 537.49,297.58 540.09,297.12 540.74,296.65 541.07,296.18 542.05,295.71 542.70,295.25 543.35,295.25 544.00,294.78 544.65,294.31 545.96,293.85 546.28,293.38 546.61,292.91 548.24,292.91 548.89,292.45 549.21,291.98 550.19,291.05 550.84,290.11 551.49,289.65 553.12,288.71 553.45,288.71 553.77,288.24 554.75,287.78 555.40,287.31 556.05,286.84 557.68,286.38 560.62,285.91 560.94,285.44 562.24,284.98 562.57,284.51 563.87,284.04 564.20,283.58 564.52,281.71 565.18,281.24 566.15,280.77 566.48,280.31 566.81,279.84 567.46,279.37 568.76,278.91 569.74,278.91 570.06,278.44 574.30,277.97 574.62,277.51 575.60,276.57 576.25,276.11 578.53,275.64 579.51,275.17 579.84,274.70 580.16,274.24 582.77,273.30 583.09,272.84 583.42,270.97 584.40,270.50 584.72,270.04 585.37,269.57 587.66,269.10 588.31,268.63 588.96,268.63 589.94,268.17 590.26,267.70 591.24,267.23 596.78,266.77 598.08,265.83 598.41,265.37 600.03,264.90 600.69,264.90 601.01,263.97 601.34,263.97 601.66,263.50 602.64,263.03 603.62,262.57 603.94,262.10 605.90,261.63 606.22,261.16 606.88,260.23 607.85,259.76 608.50,259.30 608.83,258.83 610.13,258.36 610.79,258.36 611.44,257.90 612.41,257.43 612.74,256.96 616.97,256.50 617.95,256.50 618.93,256.03 619.26,255.56 620.88,255.09 621.21,254.16 621.54,253.69 621.86,252.76 623.16,252.29 624.14,251.83 626.42,250.89 627.40,250.43 627.73,249.96 628.38,249.96 629.03,248.56 630.98,248.09 631.31,247.62 634.57,247.16 634.89,246.69 635.87,245.29 636.20,244.82 637.17,244.36 637.50,244.36 637.82,243.89 639.45,243.42 639.78,242.49 640.76,241.55 642.39,241.09 643.69,240.62 644.67,240.62 648.25,240.62 648.58,240.62 650.53,240.62 651.18,239.69 651.83,239.69 653.14,239.69 653.46,239.69 656.07,239.22 659.00,238.75 659.65,238.29 659.98,237.35 660.30,236.89 663.24,236.42 664.54,236.42 664.86,235.95 665.19,235.49 665.84,235.49 667.14,235.02 667.47,234.55 668.12,234.08 669.43,233.62 671.05,233.15 671.38,233.15 672.03,232.68 672.36,232.22 672.68,232.22 673.01,231.75 673.33,231.28 673.99,230.82 677.90,230.35 680.18,230.35 682.46,230.35 683.43,230.35 683.76,229.88 684.08,229.42 685.06,229.42 685.39,228.95 687.67,228.48 687.99,228.01 689.30,228.01 689.62,227.55 689.95,227.08 691.25,226.61 692.23,226.61 693.53,225.68 694.51,225.68 694.84,225.68 696.79,225.21 697.44,224.28 698.42,223.81 698.74,223.35 699.40,222.88 701.35,221.95 702.00,221.95 702.65,221.48 702.98,221.01 703.63,220.54 703.96,220.08 704.93,219.61 705.26,218.68 705.91,218.21 707.22,217.74 707.54,217.28 708.19,216.34 708.84,215.88 710.15,215.41 710.47,214.94 711.78,214.47 713.08,214.01 714.71,214.01 715.69,213.54 716.01,213.07 717.64,213.07 717.97,212.61 719.27,212.14 720.25,210.74 720.90,210.74 721.88,210.27 723.18,209.81 723.50,209.34 724.16,208.87 726.76,208.41 728.72,207.94 731.00,207.47 734.58,207.00 734.91,207.00 735.23,206.54 737.19,205.14 737.84,204.67 738.16,204.20 738.49,203.74 739.47,203.27 739.79,202.80 740.44,202.34 743.05,201.40 744.68,200.93 745.33,200.93 746.96,200.93 748.26,200.47 751.19,200.00 752.50,200.00 754.45,199.53 760.32,199.53 762.60,199.53 763.25,199.07 766.18,198.60 766.83,198.13 767.48,197.67 769.44,197.20 770.09,196.73 770.74,195.80 771.07,195.80 771.39,195.33 774.00,194.87 776.93,194.40 778.56,193.93 780.51,193.46 783.45,193.46 786.05,192.06 787.36,191.60 788.01,191.13 789.31,190.66 790.94,190.20 791.59,189.73 792.24,189.26 794.20,188.80 795.50,188.33 795.83,187.39 798.76,187.39 799.08,186.93 799.41,186.93 800.06,186.46 801.04,186.46 802.34,185.99 804.30,185.53 804.62,185.06 805.60,185.06 807.88,185.06 810.16,184.59 812.12,184.13 814.72,183.66 815.37,183.19 815.70,182.73 816.68,182.73 817.00,182.26 817.33,181.79 817.98,180.86 819.28,180.39 821.56,179.92 821.89,179.46 822.87,178.52 824.82,178.06 826.45,177.59 826.78,177.12 828.08,176.66 829.06,176.19 829.38,176.19 830.68,175.72 831.34,175.72 832.96,175.26 833.29,174.79 833.62,173.39 835.57,172.92 836.55,172.45 836.87,171.99 838.83,171.99 840.13,171.52 840.46,170.12 840.78,170.12 843.06,168.72 844.69,168.25 848.60,167.79 848.93,167.32 850.88,166.85 853.81,166.38 857.07,165.92 859.03,164.98 859.35,164.52 859.68,164.05 860.33,163.58 862.94,163.12 865.22,162.65 868.47,162.18 868.80,162.18 871.73,161.72 872.71,161.25 874.01,160.78 884.11,160.31 885.41,159.38 885.74,158.91 889.00,158.45 890.63,157.51 892.91,157.05 893.56,157.05 893.89,156.58 895.84,156.11 897.14,155.65 897.79,155.18 898.12,154.71 898.45,154.25 899.42,153.78 901.05,153.31 901.38,153.31 903.01,152.84 905.29,152.38 907.57,151.91 908.22,151.44 911.80,150.98 912.13,150.51 913.76,150.04 915.39,149.58 918.32,149.11 919.62,148.64 921.90,148.64 922.23,148.18 922.88,148.18 924.51,147.71 924.83,147.24 925.49,146.77 926.46,145.84 926.79,144.44 927.11,143.51 927.44,143.04 928.74,142.57 929.07,142.57 931.02,142.11 931.35,141.64 932.98,141.17 933.30,140.71 933.96,140.24 934.61,140.24 935.58,139.77 938.84,139.30 944.71,138.84 946.01,138.37 947.64,137.90 948.94,137.44 950.24,136.97 951.22,136.50 952.20,135.57 954.48,135.57 956.11,135.10 956.76,135.10 959.04,135.10 959.37,135.10 959.69,134.64 963.28,134.17 965.23,133.70 965.56,133.70 968.49,133.23 973.37,132.77 974.68,132.77 975.00,132.30 975.98,131.83 979.89,131.37 984.45,130.90 984.78,130.90 989.01,130.43 991.62,129.97 1004.32,129.50 1007.26,128.57 1008.23,128.10 1009.86,127.63 1010.19,126.70 1016.05,126.23 1018.66,125.76 1023.87,125.30 1025.50,124.83 1027.78,124.36 1034.37,124.36 1036.00,124.36"/>
<circle cx="90.00" cy="468.00" r="3.8" fill="#ffb50c" stroke="#111827" stroke-width="1"/>
<circle cx="192.16" cy="453.99" r="3.8" fill="#ffb50c" stroke="#111827" stroke-width="1"/>
<circle cx="243.63" cy="441.39" r="3.8" fill="#ffb50c" stroke="#111827" stroke-width="1"/>
<circle cx="281.10" cy="427.38" r="3.8" fill="#ffb50c" stroke="#111827" stroke-width="1"/>
<circle cx="317.91" cy="413.84" r="3.8" fill="#ffb50c" stroke="#111827" stroke-width="1"/>
<circle cx="347.23" cy="401.70" r="3.8" fill="#ffb50c" stroke="#111827" stroke-width="1"/>
<circle cx="391.21" cy="385.36" r="3.8" fill="#ffb50c" stroke="#111827" stroke-width="1"/>
<circle cx="423.14" cy="367.15" r="3.8" fill="#ffb50c" stroke="#111827" stroke-width="1"/>
<circle cx="447.25" cy="352.68" r="3.8" fill="#ffb50c" stroke="#111827" stroke-width="1"/>
<circle cx="479.17" cy="338.20" r="3.8" fill="#ffb50c" stroke="#111827" stroke-width="1"/>
<circle cx="498.39" cy="320.46" r="3.8" fill="#ffb50c" stroke="#111827" stroke-width="1"/>
<circle cx="523.48" cy="303.19" r="3.8" fill="#ffb50c" stroke="#111827" stroke-width="1"/>
<circle cx="551.49" cy="289.65" r="3.8" fill="#ffb50c" stroke="#111827" stroke-width="1"/>
<circle cx="579.84" cy="274.70" r="3.8" fill="#ffb50c" stroke="#111827" stroke-width="1"/>
<circle cx="608.50" cy="259.30" r="3.8" fill="#ffb50c" stroke="#111827" stroke-width="1"/>
<circle cx="637.50" cy="244.36" r="3.8" fill="#ffb50c" stroke="#111827" stroke-width="1"/>
<circle cx="671.05" cy="233.15" r="3.8" fill="#ffb50c" stroke="#111827" stroke-width="1"/>
<circle cx="698.74" cy="223.35" r="3.8" fill="#ffb50c" stroke="#111827" stroke-width="1"/>
<circle cx="723.50" cy="209.34" r="3.8" fill="#ffb50c" stroke="#111827" stroke-width="1"/>
<circle cx="769.44" cy="197.20" r="3.8" fill="#ffb50c" stroke="#111827" stroke-width="1"/>
<circle cx="807.88" cy="185.06" r="3.8" fill="#ffb50c" stroke="#111827" stroke-width="1"/>
<circle cx="840.13" cy="171.52" r="3.8" fill="#ffb50c" stroke="#111827" stroke-width="1"/>
<circle cx="895.84" cy="156.11" r="3.8" fill="#ffb50c" stroke="#111827" stroke-width="1"/>
<circle cx="929.07" cy="142.57" r="3.8" fill="#ffb50c" stroke="#111827" stroke-width="1"/>
<circle cx="975.98" cy="131.83" r="3.8" fill="#ffb50c" stroke="#111827" stroke-width="1"/>
<circle cx="1036.00" cy="124.36" r="3.8" fill="#ffb50c" stroke="#111827" stroke-width="1"/>
<text x="1028.0" y="114.4" text-anchor="end" fill="#ffb50c" font-size="12" font-family="-apple-system,BlinkMacSystemFont,Segoe UI,Helvetica,Arial,sans-serif">736</text>
<rect x="90" y="514" width="14" height="14" fill="url(#repo-0)" rx="3"/>
<text x="112" y="526" fill="#3bf2af" font-size="13" font-family="-apple-system,BlinkMacSystemFont,Segoe UI,Helvetica,Arial,sans-serif">bavix/gripmock</text>
<rect x="280" y="514" width="14" height="14" fill="url(#repo-1)" rx="3"/>
<text x="302" y="526" fill="#ffb50c" font-size="13" font-family="-apple-system,BlinkMacSystemFont,Segoe UI,Helvetica,Arial,sans-serif">tokopedia/gripmock</text>
<text x="1036" y="526" text-anchor="end" fill="#9ca3af" font-size="12" font-family="-apple-system,BlinkMacSystemFont,Segoe UI,Helvetica,Arial,sans-serif">Source: https://github.com/bavix/artifact-stats/blob/master/stats/github.csv</text>
</svg>