<svg xmlns="http://www.w3.org/2000/svg" width="1100" height="560" viewBox="0 0 1100 560">
<defs>
<linearGradient id="bg" x1="0" y1="0" x2="1" y2="1"><stop offset="0%" stop-color="#0b1220"/><stop offset="100%" stop-color="#111827"/></linearGradient>
<linearGradient id="repo-0" x1="0" y1="0" x2="0" y2="1"><stop offset="0%" stop-color="#34d399"/><stop offset="100%" stop-color="#059669"/></linearGradient>
<linearGradient id="repo-1" x1="0" y1="0" x2="0" y2="1"><stop offset="0%" stop-color="#f59e0b"/><stop offset="100%" stop-color="#d97706"/></linearGradient>
</defs>
<rect x="0" y="0" width="1100" height="560" fill="url(#bg)" rx="16"/>
<text x="90" y="44" fill="#f9fafb" font-size="28" font-family="-apple-system,BlinkMacSystemFont,Segoe UI,Helvetica,Arial,sans-serif" font-weight="700">GripMock GitHub Metrics - Stars</text>
<text x="90" y="70" fill="#9ca3af" font-size="16" font-family="-apple-system,BlinkMacSystemFont,Segoe UI,Helvetica,Arial,sans-serif">GitHub stars by snapshot date</text>
<line x1="90" y1="90.0" x2="1036" y2="90.0" stroke="#1f2937" stroke-width="1"/>
<text x="80" y="95.0" text-anchor="end" fill="#9ca3af" font-size="12" font-family="-apple-system,BlinkMacSystemFont,Segoe UI,Helvetica,Arial,sans-serif">810</text>
<line x1="90" y1="153.0" x2="1036" y2="153.0" stroke="#1f2937" stroke-width="1"/>
<text x="80" y="158.0" text-anchor="end" fill="#9ca3af" font-size="12" font-family="-apple-system,BlinkMacSystemFont,Segoe UI,Helvetica,Arial,sans-serif">675</text>
<line x1="90" y1="216.0" x2="1036" y2="216.0" stroke="#1f2937" stroke-width="1"/>
<text x="80" y="221.0" text-anchor="end" fill="#9ca3af" font-size="12" font-family="-apple-system,BlinkMacSystemFont,Segoe UI,Helvetica,Arial,sans-serif">540</text>
<line x1="90" y1="279.0" x2="1036" y2="279.0" stroke="#1f2937" stroke-width="1"/>
<text x="80" y="284.0" text-anchor="end" fill="#9ca3af" font-size="12" font-family="-apple-system,BlinkMacSystemFont,Segoe UI,Helvetica,Arial,sans-serif">405</text>
<line x1="90" y1="342.0" x2="1036" y2="342.0" stroke="#1f2937" stroke-width="1"/>
<text x="80" y="347.0" text-anchor="end" fill="#9ca3af" font-size="12" font-family="-apple-system,BlinkMacSystemFont,Segoe UI,Helvetica,Arial,sans-serif">270</text>
<line x1="90" y1="405.0" x2="1036" y2="405.0" stroke="#1f2937" stroke-width="1"/>
<text x="80" y="410.0" text-anchor="end" fill="#9ca3af" font-size="12" font-family="-apple-system,BlinkMacSystemFont,Segoe UI,Helvetica,Arial,sans-serif">135</text>
<line x1="90" y1="468.0" x2="1036" y2="468.0" stroke="#1f2937" stroke-width="1"/>
<text x="80" y="473.0" text-anchor="end" fill="#9ca3af" font-size="12" font-family="-apple-system,BlinkMacSystemFont,Segoe UI,Helvetica,Arial,sans-serif">0</text>
<line x1="90" y1="468" x2="1036" y2="468" stroke="#4b5563" stroke-width="1.4"/>
<line x1="90" y1="90" x2="90" y2="468" stroke="#4b5563" stroke-width="1.4"/>
<line x1="90.0" y1="468" x2="90.0" y2="474" stroke="#6b7280" stroke-width="1"/>
<text x="90.0" y="494" text-anchor="start" fill="#9ca3af" font-size="12" font-family="-apple-system,BlinkMacSystemFont,Segoe UI,Helvetica,Arial,sans-serif">2018-04-24</text>
<line x1="279.2" y1="468" x2="279.2" y2="474" stroke="#6b7280" stroke-width="1"/>
<text x="279.2" y="494" text-anchor="middle" fill="#9ca3af" font-size="12" font-family="-apple-system,BlinkMacSystemFont,Segoe UI,Helvetica,Arial,sans-serif">2019-11-26</text>
<line x1="468.4" y1="468" x2="468.4" y2="474" stroke="#6b7280" stroke-width="1"/>
<text x="468.4" y="494" text-anchor="middle" fill="#9ca3af" font-size="12" font-family="-apple-system,BlinkMacSystemFont,Segoe UI,Helvetica,Arial,sans-serif">2021-06-30</text>
<line x1="657.6" y1="468" x2="657.6" y2="474" stroke="#6b7280" stroke-width="1"/>
<text x="657.6" y="494" text-anchor="middle" fill="#9ca3af" font-size="12" font-family="-apple-system,BlinkMacSystemFont,Segoe UI,Helvetica,Arial,sans-serif">2023-02-02</text>
<line x1="846.8" y1="468" x2="846.8" y2="474" stroke="#6b7280" stroke-width="1"/>
<text x="846.8" y="494" text-anchor="middle" fill="#9ca3af" font-size="12" font-family="-apple-system,BlinkMacSystemFont,Segoe UI,Helvetica,Arial,sans-serif">2024-09-05</text>
<line x1="1036.0" y1="468" x2="1036.0" y2="474" stroke="#6b7280" stroke-width="1"/>
<text x="1036.0" y="494" text-anchor="end" fill="#9ca3af" font-size="12" font-family="-apple-system,BlinkMacSystemFont,Segoe UI,Helvetica,Arial,sans-serif">2026-04-10</text>
<polyline fill="none" stroke="url(#repo-0)" stroke-width="4" stroke-linecap="round" stroke-linejoin="round" points="721.14,468.00 727.84,467.53 740.85,467.07 754.51,466.60 756.47,466.13 759.72,465.67 771.43,465.20 773.71,464.73 779.24,464.26 779.57,463.80 784.44,463.33 792.25,462.86 804.62,462.40 807.87,461.93 812.10,461.46 815.68,461.00 830.64,460.53 835.20,460.06 835.85,459.60 837.15,459.13 843.33,458.66 856.99,458.20 859.92,457.73 866.75,457.26 872.28,456.79 872.93,456.33 873.59,455.86 893.76,455.39 896.36,454.93 897.01,454.46 903.19,453.99 903.84,453.53 907.74,453.53 909.05,453.06 909.37,452.59 909.70,452.13 912.62,451.66 914.25,451.19 915.88,450.72 921.08,450.72 925.64,450.72 927.26,450.26 927.91,450.26 934.75,449.79 938.65,449.32 950.36,448.86 952.64,448.39 953.29,448.39 955.24,447.92 957.19,447.46 960.12,447.46 965.33,446.99 972.16,446.52 976.39,446.06 987.78,445.59 990.05,445.12 994.93,444.66 995.26,444.19 996.23,443.72 998.84,443.25 999.16,443.25 1007.95,442.79 1014.78,442.32 1015.43,441.85 1017.71,441.39 1024.21,440.92 1026.49,440.45 1028.12,439.99 1029.74,439.52 1033.08,439.52 1034.04,439.52 1034.37,439.05 1035.02,439.05 1035.35,438.59 1035.67,439.05 1036.00,439.05"/>
<circle cx="721.14" cy="468.00" r="3.8" fill="#3bf2af" stroke="#111827" stroke-width="1"/>
<circle cx="754.51" cy="466.60" r="3.8" fill="#3bf2af" stroke="#111827" stroke-width="1"/>
<circle cx="771.43" cy="465.20" r="3.8" fill="#3bf2af" stroke="#111827" stroke-width="1"/>
<circle cx="779.57" cy="463.80" r="3.8" fill="#3bf2af" stroke="#111827" stroke-width="1"/>
<circle cx="804.62" cy="462.40" r="3.8" fill="#3bf2af" stroke="#111827" stroke-width="1"/>
<circle cx="815.68" cy="461.00" r="3.8" fill="#3bf2af" stroke="#111827" stroke-width="1"/>
<circle cx="835.85" cy="459.60" r="3.8" fill="#3bf2af" stroke="#111827" stroke-width="1"/>
<circle cx="856.99" cy="458.20" r="3.8" fill="#3bf2af" stroke="#111827" stroke-width="1"/>
<circle cx="872.28" cy="456.79" r="3.8" fill="#3bf2af" stroke="#111827" stroke-width="1"/>
<circle cx="893.76" cy="455.39" r="3.8" fill="#3bf2af" stroke="#111827" stroke-width="1"/>
<circle cx="903.19" cy="453.99" r="3.8" fill="#3bf2af" stroke="#111827" stroke-width="1"/>
<circle cx="909.05" cy="453.06" r="3.8" fill="#3bf2af" stroke="#111827" stroke-width="1"/>
<circle cx="912.62" cy="451.66" r="3.8" fill="#3bf2af" stroke="#111827" stroke-width="1"/>
<circle cx="921.08" cy="450.72" r="3.8" fill="#3bf2af" stroke="#111827" stroke-width="1"/>
<circle cx="927.91" cy="450.26" r="3.8" fill="#3bf2af" stroke="#111827" stroke-width="1"/>
<circle cx="950.36" cy="448.86" r="3.8" fill="#3bf2af" stroke="#111827" stroke-width="1"/>
<circle cx="955.24" cy="447.92" r="3.8" fill="#3bf2af" stroke="#111827" stroke-width="1"/>
<circle cx="965.33" cy="446.99" r="3.8" fill="#3bf2af" stroke="#111827" stroke-width="1"/>
<circle cx="987.78" cy="445.59" r="3.8" fill="#3bf2af" stroke="#111827" stroke-width="1"/>
<circle cx="995.26" cy="444.19" r="3.8" fill="#3bf2af" stroke="#111827" stroke-width="1"/>
<circle cx="999.16" cy="443.25" r="3.8" fill="#3bf2af" stroke="#111827" stroke-width="1"/>
<circle cx="1015.43" cy="441.85" r="3.8" fill="#3bf2af" stroke="#111827" stroke-width="1"/>
<circle cx="1026.49" cy="440.45" r="3.8" fill="#3bf2af" stroke="#111827" stroke-width="1"/>
<circle cx="1033.08" cy="439.52" r="3.8" fill="#3bf2af" stroke="#111827" stroke-width="1"/>
<circle cx="1035.02" cy="439.05" r="3.8" fill="#3bf2af" stroke="#111827" stroke-width="1"/>
<circle cx="1036.00" cy="439.05" r="3.8" fill="#3bf2af" stroke="#111827" stroke-width="1"/>
<text x="1028.0" y="429.1" text-anchor="end" fill="#3bf2af" font-size="12" font-family="-apple-system,BlinkMacSystemFont,Segoe UI,Helvetica,Arial,sans-serif">62</text>
<polyline fill="none" stroke="url(#repo-1)" stroke-width="4" stroke-linecap="round" stroke-linejoin="round" points="90.00,468.00 91.82,466.60 92.47,466.13 96.05,465.67 99.63,465.20 136.72,464.73 137.69,464.26 143.55,464.26 149.40,463.80 153.96,463.80 157.54,463.33 158.19,462.86 158.51,462.40 158.84,461.93 160.46,461.46 161.12,461.00 165.34,460.53 165.67,460.06 169.57,459.60 170.55,459.13 170.88,458.66 172.50,458.20 174.13,457.26 176.08,456.79 177.06,456.33 182.26,455.86 184.86,455.39 186.49,454.93 186.82,454.46 192.02,453.99 192.35,453.53 193.00,453.06 196.25,452.59 196.90,451.66 197.23,451.66 197.55,451.66 203.41,451.19 205.03,451.19 211.22,450.72 212.52,450.26 213.17,450.26 215.77,449.79 218.70,449.32 222.60,449.32 222.93,448.86 225.21,448.39 227.48,447.92 230.74,447.46 231.71,446.99 233.99,446.52 236.27,446.06 238.22,445.59 238.54,445.12 238.87,444.66 241.47,444.19 242.12,443.72 242.77,442.79 243.10,442.32 243.42,441.39 243.75,440.92 246.35,440.45 247.00,439.52 249.60,439.52 255.14,439.05 255.79,439.05 256.11,438.59 256.44,438.12 257.09,438.12 258.39,437.65 258.71,437.18 260.67,436.72 260.99,436.25 263.27,435.78 264.24,434.85 264.90,433.92 265.87,433.92 267.50,433.45 267.82,432.98 268.80,432.52 271.73,432.05 275.31,431.58 276.28,431.12 277.26,430.65 277.58,430.18 278.88,429.71 279.21,429.25 279.86,428.78 280.84,427.38 282.46,426.91 283.11,426.45 283.44,425.98 283.76,424.58 285.39,424.11 286.37,423.64 287.02,423.18 288.32,423.18 288.64,422.71 290.27,422.24 293.85,421.78 295.80,421.31 297.43,421.31 297.75,420.38 300.03,419.91 301.66,419.44 301.98,419.44 303.93,418.98 304.26,418.51 304.91,418.51 305.89,418.51 306.21,418.04 306.54,417.58 306.86,417.11 311.42,415.71 315.32,415.24 315.65,414.77 316.30,414.31 317.60,413.84 317.92,413.37 319.55,413.37 320.20,412.91 320.53,412.44 320.85,411.97 321.18,411.51 322.80,411.04 326.06,410.57 327.36,410.10 327.68,410.10 328.33,409.64 328.66,409.64 329.31,408.24 329.96,407.77 330.61,407.77 331.91,407.30 332.56,406.84 334.52,406.37 334.84,405.90 336.14,405.44 338.09,404.97 339.40,404.50 340.70,404.50 341.02,404.04 341.67,403.57 342.65,403.10 343.62,402.63 345.25,402.17 346.88,401.70 348.50,401.23 351.43,400.77 354.04,400.30 354.36,399.83 354.69,399.37 359.57,398.90 360.54,398.43 361.52,397.97 361.84,397.03 362.82,396.56 365.10,395.63 365.42,394.70 367.05,394.23 369.00,394.23 372.25,393.76 373.23,393.30 374.21,392.83 375.51,391.90 376.16,391.43 376.48,390.96 377.13,390.50 378.76,389.56 380.06,389.09 384.29,388.16 385.92,386.76 386.89,385.83 389.82,385.83 390.47,385.83 390.80,385.36 391.12,384.43 392.75,383.49 393.73,383.02 395.03,382.56 395.35,382.09 396.00,381.62 398.28,381.16 398.61,380.69 399.26,380.22 401.53,379.76 402.18,379.29 403.49,378.82 404.46,378.36 404.79,377.89 405.11,377.42 409.02,376.96 409.67,376.49 410.97,375.55 411.29,375.09 412.59,374.62 413.90,371.35 414.22,370.42 414.55,369.95 416.17,369.48 416.82,369.02 418.45,369.02 419.75,368.55 420.73,368.08 422.68,367.15 423.98,366.68 425.61,366.22 425.93,365.75 426.58,365.28 427.23,364.35 427.88,363.88 428.21,363.88 429.19,363.88 429.51,363.42 429.84,362.95 430.16,362.48 431.79,362.01 432.44,361.08 433.74,360.61 434.39,359.68 435.37,359.21 436.02,358.75 436.99,358.28 438.30,357.81 439.60,357.81 440.90,357.35 441.22,356.88 442.85,356.41 443.18,355.94 443.83,355.48 444.15,355.01 444.80,354.54 445.13,353.14 446.75,352.68 448.06,352.21 449.68,351.74 454.24,350.81 454.56,350.34 454.89,350.34 455.21,349.88 456.19,349.41 456.51,348.94 456.84,348.47 457.16,347.54 458.47,347.07 459.12,346.14 459.44,344.74 460.42,344.74 460.74,344.74 461.39,343.81 463.35,343.34 463.67,342.40 464.00,341.94 465.30,341.47 467.57,341.00 467.90,340.54 468.55,340.07 470.83,339.60 472.45,339.14 474.08,339.14 477.01,339.14 478.31,338.67 478.64,338.20 478.96,338.20 479.61,337.74 479.94,336.80 480.26,336.33 481.24,335.87 481.56,335.40 482.54,334.93 484.17,334.00 484.49,334.00 484.82,333.07 485.14,332.60 485.47,331.20 485.79,330.27 486.12,329.80 486.77,329.33 487.09,327.46 487.42,327.00 488.40,326.53 489.05,325.60 489.70,325.13 491.00,324.66 492.30,324.20 492.63,323.73 492.95,323.26 493.28,322.79 494.90,322.33 496.20,321.86 496.53,321.39 497.83,320.46 498.16,319.53 498.48,319.53 501.73,319.06 502.06,318.59 502.71,318.13 504.34,317.19 504.99,316.73 505.64,316.26 506.94,316.26 507.59,315.32 507.92,315.32 508.24,313.46 508.57,311.12 509.87,310.66 510.19,310.19 510.84,309.72 511.17,309.25 512.14,308.79 512.47,308.32 513.77,307.85 516.70,307.39 517.68,306.92 518.65,306.45 518.98,305.05 519.30,304.59 519.63,304.12 519.95,303.65 520.60,303.19 522.88,303.19 524.18,302.72 524.51,302.25 524.83,301.78 525.81,301.32 527.11,301.32 528.41,300.85 530.04,300.38 530.36,299.92 533.94,299.45 535.57,298.98 536.22,298.05 536.87,297.58 539.47,297.12 540.12,296.65 540.45,296.18 541.42,295.71 542.08,295.25 542.73,295.25 543.38,294.78 544.03,294.31 545.33,293.85 545.65,293.38 545.98,292.91 547.61,292.91 548.26,292.45 548.58,291.98 549.56,291.05 550.21,290.11 550.86,289.65 552.49,288.71 552.81,288.71 553.14,288.24 554.11,287.78 554.76,287.31 555.41,286.84 557.04,286.38 559.97,285.91 560.29,285.44 561.59,284.98 561.92,284.51 563.22,284.04 563.55,283.58 563.87,281.71 564.52,281.24 565.50,280.77 565.82,280.31 566.15,279.84 566.80,279.37 568.10,278.91 569.08,278.91 569.40,278.44 573.63,277.97 573.96,277.51 574.93,276.57 575.58,276.11 577.86,275.64 578.84,275.17 579.16,274.70 579.49,274.24 582.09,273.30 582.42,272.84 582.74,270.97 583.72,270.50 584.04,270.04 584.69,269.57 586.97,269.10 587.62,268.63 588.27,268.63 589.25,268.17 589.57,267.70 590.55,267.23 596.08,266.77 597.38,265.83 597.71,265.37 599.33,264.90 599.98,264.90 600.31,263.97 600.63,263.97 600.96,263.50 601.94,263.03 602.91,262.57 603.24,262.10 605.19,261.63 605.51,261.16 606.16,260.23 607.14,259.76 607.79,259.30 608.12,258.83 609.42,258.36 610.07,258.36 610.72,257.90 611.70,257.43 612.02,256.96 616.25,256.50 617.23,256.50 618.20,256.03 618.53,255.56 620.15,255.09 620.48,254.16 620.80,253.69 621.13,252.76 622.43,252.29 623.41,251.83 625.68,250.89 626.66,250.43 626.99,249.96 627.64,249.96 628.29,248.56 630.24,248.09 630.56,247.62 633.82,247.16 634.14,246.69 635.12,245.29 635.44,244.82 636.42,244.36 636.75,244.36 637.07,243.89 638.70,243.42 639.02,242.49 640.00,241.55 641.63,241.09 642.93,240.62 643.90,240.62 647.48,240.62 647.81,240.62 649.76,240.62 650.41,239.69 651.06,239.69 652.36,239.69 652.69,239.69 655.29,239.22 658.22,238.75 658.87,238.29 659.19,237.35 659.52,236.89 662.45,236.42 663.75,236.42 664.07,235.95 664.40,235.49 665.05,235.49 666.35,235.02 666.68,234.55 667.33,234.08 668.63,233.62 670.25,233.15 670.58,233.15 671.23,232.68 671.56,232.22 671.88,232.22 672.21,231.75 672.53,231.28 673.18,230.82 677.09,230.35 679.36,230.35 681.64,230.35 682.62,230.35 682.94,229.88 683.27,229.42 684.24,229.42 684.57,228.95 686.85,228.48 687.17,228.01 688.47,228.01 688.80,227.55 689.12,227.08 690.43,226.61 691.40,226.61 692.70,225.68 693.68,225.68 694.00,225.68 695.96,225.21 696.61,224.28 697.58,223.81 697.91,223.35 698.56,222.88 700.51,221.95 701.16,221.95 701.81,221.48 702.14,221.01 702.79,220.54 703.11,220.08 704.09,219.61 704.41,218.68 705.06,218.21 706.37,217.74 706.69,217.28 707.34,216.34 707.99,215.88 709.29,215.41 709.62,214.94 710.92,214.47 712.22,214.01 713.85,214.01 714.82,213.54 715.15,213.07 716.78,213.07 717.10,212.61 718.40,212.14 719.38,210.74 720.03,210.74 721.01,210.27 722.31,209.81 722.63,209.34 723.28,208.87 725.89,208.41 727.84,207.94 730.12,207.47 733.69,207.00 734.02,207.00 734.34,206.54 736.30,205.14 736.95,204.67 737.27,204.20 737.60,203.74 738.57,203.27 738.90,202.80 739.55,202.34 742.15,201.40 743.78,200.93 744.43,200.93 746.06,200.93 747.36,200.47 750.29,200.00 751.59,200.00 753.54,199.53 759.39,199.53 761.67,199.53 762.32,199.07 765.25,198.60 765.90,198.13 766.55,197.67 768.50,197.20 769.15,196.73 769.81,195.80 770.13,195.80 770.46,195.33 773.06,194.87 775.99,194.40 777.61,193.93 779.57,193.46 782.49,193.46 785.10,192.06 786.40,191.60 787.05,191.13 788.35,190.66 789.98,190.20 790.63,189.73 791.28,189.26 793.23,188.80 794.53,188.33 794.86,187.39 797.78,187.39 798.11,186.93 798.43,186.93 799.08,186.46 800.06,186.46 801.36,185.99 803.31,185.53 803.64,185.06 804.62,185.06 806.89,185.06 809.17,184.59 811.12,184.13 813.72,183.66 814.38,183.19 814.70,182.73 815.68,182.73 816.00,182.26 816.33,181.79 816.98,180.86 818.28,180.39 820.56,179.92 820.88,179.46 821.86,178.52 823.81,178.06 825.44,177.59 825.76,177.12 827.06,176.66 828.04,176.19 828.36,176.19 829.67,175.72 830.32,175.72 831.94,175.26 832.27,174.79 832.59,173.39 834.55,172.92 835.52,172.45 835.85,171.99 837.80,171.99 839.10,171.52 839.43,170.12 839.75,170.12 842.03,168.72 843.65,168.25 847.56,167.79 847.88,167.32 849.84,166.85 852.76,166.38 856.02,165.92 857.97,164.98 858.29,164.52 858.62,164.05 859.27,163.58 861.87,163.12 864.15,162.65 867.40,162.18 867.73,162.18 870.66,161.72 871.63,161.25 872.93,160.78 883.02,160.31 884.32,159.38 884.65,158.91 887.90,158.45 889.53,157.51 891.80,157.05 892.45,157.05 892.78,156.58 894.73,156.11 896.03,155.65 896.68,155.18 897.01,154.71 897.33,154.25 898.31,153.78 899.94,153.31 900.26,153.31 901.89,152.84 904.17,152.38 906.44,151.91 907.09,151.44 910.67,150.98 911.00,150.51 912.62,150.04 914.25,149.58 917.18,149.11 918.48,148.64 920.76,148.64 921.08,148.18 921.73,148.18 923.36,147.71 923.69,147.24 924.34,146.77 925.31,145.84 925.64,144.44 925.96,143.51 926.29,143.04 927.59,142.57 927.91,142.57 929.87,142.11 930.19,141.64 931.82,141.17 932.14,140.71 932.79,140.24 933.45,140.24 934.42,139.77 937.67,139.30 943.53,138.84 944.83,138.37 946.46,137.90 947.76,137.44 949.06,136.97 950.04,136.50 951.01,135.57 953.29,135.57 954.92,135.10 955.57,135.10 957.85,135.10 958.17,135.10 958.50,134.64 962.07,134.17 964.03,133.70 964.35,133.70 967.28,133.23 972.16,132.77 973.46,132.77 973.79,132.30 974.76,131.83 978.67,131.37 983.22,130.90 983.55,130.90 987.78,130.43 990.38,129.97 1003.07,129.50 1005.99,128.57 1006.97,128.10 1008.60,127.63 1008.92,126.70 1014.78,126.23 1017.38,125.76 1022.59,125.30 1024.21,124.83 1026.49,124.36 1033.08,124.36 1036.00,124.36"/>
<circle cx="90.00" cy="468.00" r="3.8" fill="#ffb50c" stroke="#111827" stroke-width="1"/>
<circle cx="192.02" cy="453.99" r="3.8" fill="#ffb50c" stroke="#111827" stroke-width="1"/>
<circle cx="243.42" cy="441.39" r="3.8" fill="#ffb50c" stroke="#111827" stroke-width="1"/>
<circle cx="280.84" cy="427.38" r="3.8" fill="#ffb50c" stroke="#111827" stroke-width="1"/>
<circle cx="317.60" cy="413.84" r="3.8" fill="#ffb50c" stroke="#111827" stroke-width="1"/>
<circle cx="346.88" cy="401.70" r="3.8" fill="#ffb50c" stroke="#111827" stroke-width="1"/>
<circle cx="390.80" cy="385.36" r="3.8" fill="#ffb50c" stroke="#111827" stroke-width="1"/>
<circle cx="422.68" cy="367.15" r="3.8" fill="#ffb50c" stroke="#111827" stroke-width="1"/>
<circle cx="446.75" cy="352.68" r="3.8" fill="#ffb50c" stroke="#111827" stroke-width="1"/>
<circle cx="478.64" cy="338.20" r="3.8" fill="#ffb50c" stroke="#111827" stroke-width="1"/>
<circle cx="497.83" cy="320.46" r="3.8" fill="#ffb50c" stroke="#111827" stroke-width="1"/>
<circle cx="522.88" cy="303.19" r="3.8" fill="#ffb50c" stroke="#111827" stroke-width="1"/>
<circle cx="550.86" cy="289.65" r="3.8" fill="#ffb50c" stroke="#111827" stroke-width="1"/>
<circle cx="579.16" cy="274.70" r="3.8" fill="#ffb50c" stroke="#111827" stroke-width="1"/>
<circle cx="607.79" cy="259.30" r="3.8" fill="#ffb50c" stroke="#111827" stroke-width="1"/>
<circle cx="636.75" cy="244.36" r="3.8" fill="#ffb50c" stroke="#111827" stroke-width="1"/>
<circle cx="670.25" cy="233.15" r="3.8" fill="#ffb50c" stroke="#111827" stroke-width="1"/>
<circle cx="697.91" cy="223.35" r="3.8" fill="#ffb50c" stroke="#111827" stroke-width="1"/>
<circle cx="722.63" cy="209.34" r="3.8" fill="#ffb50c" stroke="#111827" stroke-width="1"/>
<circle cx="768.50" cy="197.20" r="3.8" fill="#ffb50c" stroke="#111827" stroke-width="1"/>
<circle cx="806.89" cy="185.06" r="3.8" fill="#ffb50c" stroke="#111827" stroke-width="1"/>
<circle cx="839.10" cy="171.52" r="3.8" fill="#ffb50c" stroke="#111827" stroke-width="1"/>
<circle cx="894.73" cy="156.11" r="3.8" fill="#ffb50c" stroke="#111827" stroke-width="1"/>
<circle cx="927.91" cy="142.57" r="3.8" fill="#ffb50c" stroke="#111827" stroke-width="1"/>
<circle cx="974.76" cy="131.83" r="3.8" fill="#ffb50c" stroke="#111827" stroke-width="1"/>
<circle cx="1036.00" cy="124.36" r="3.8" fill="#ffb50c" stroke="#111827" stroke-width="1"/>
<text x="1028.0" y="114.4" text-anchor="end" fill="#ffb50c" font-size="12" font-family="-apple-system,BlinkMacSystemFont,Segoe UI,Helvetica,Arial,sans-serif">736</text>
<rect x="90" y="514" width="14" height="14" fill="url(#repo-0)" rx="3"/>
<text x="112" y="526" fill="#3bf2af" font-size="13" font-family="-apple-system,BlinkMacSystemFont,Segoe UI,Helvetica,Arial,sans-serif">bavix/gripmock</text>
<rect x="280" y="514" width="14" height="14" fill="url(#repo-1)" rx="3"/>
<text x="302" y="526" fill="#ffb50c" font-size="13" font-family="-apple-system,BlinkMacSystemFont,Segoe UI,Helvetica,Arial,sans-serif">tokopedia/gripmock</text>
<text x="1036" y="526" text-anchor="end" fill="#9ca3af" font-size="12" font-family="-apple-system,BlinkMacSystemFont,Segoe UI,Helvetica,Arial,sans-serif">Source: https://github.com/bavix/artifact-stats/blob/master/stats/github.csv</text>
</svg>