<svg xmlns="http://www.w3.org/2000/svg" width="1100" height="560" viewBox="0 0 1100 560">
<defs>
<linearGradient id="bg" x1="0" y1="0" x2="1" y2="1"><stop offset="0%" stop-color="#0b1220"/><stop offset="100%" stop-color="#111827"/></linearGradient>
<linearGradient id="repo-0" x1="0" y1="0" x2="0" y2="1"><stop offset="0%" stop-color="#34d399"/><stop offset="100%" stop-color="#059669"/></linearGradient>
<linearGradient id="repo-1" x1="0" y1="0" x2="0" y2="1"><stop offset="0%" stop-color="#f59e0b"/><stop offset="100%" stop-color="#d97706"/></linearGradient>
</defs>
<rect x="0" y="0" width="1100" height="560" fill="url(#bg)" rx="16"/>
<text x="90" y="44" fill="#f9fafb" font-size="28" font-family="-apple-system,BlinkMacSystemFont,Segoe UI,Helvetica,Arial,sans-serif" font-weight="700">GripMock GitHub Metrics - Stars</text>
<text x="90" y="70" fill="#9ca3af" font-size="16" font-family="-apple-system,BlinkMacSystemFont,Segoe UI,Helvetica,Arial,sans-serif">GitHub stars by snapshot date</text>
<line x1="90" y1="90.00" x2="1036" y2="90.00" stroke="#1f2937" stroke-width="1"/>
<text x="80" y="95.00" text-anchor="end" fill="#9ca3af" font-size="12" font-family="-apple-system,BlinkMacSystemFont,Segoe UI,Helvetica,Arial,sans-serif">811</text>
<line x1="90" y1="153.00" x2="1036" y2="153.00" stroke="#1f2937" stroke-width="1"/>
<text x="80" y="158.00" text-anchor="end" fill="#9ca3af" font-size="12" font-family="-apple-system,BlinkMacSystemFont,Segoe UI,Helvetica,Arial,sans-serif">676</text>
<line x1="90" y1="216.00" x2="1036" y2="216.00" stroke="#1f2937" stroke-width="1"/>
<text x="80" y="221.00" text-anchor="end" fill="#9ca3af" font-size="12" font-family="-apple-system,BlinkMacSystemFont,Segoe UI,Helvetica,Arial,sans-serif">540</text>
<line x1="90" y1="279.00" x2="1036" y2="279.00" stroke="#1f2937" stroke-width="1"/>
<text x="80" y="284.00" text-anchor="end" fill="#9ca3af" font-size="12" font-family="-apple-system,BlinkMacSystemFont,Segoe UI,Helvetica,Arial,sans-serif">405</text>
<line x1="90" y1="342.00" x2="1036" y2="342.00" stroke="#1f2937" stroke-width="1"/>
<text x="80" y="347.00" text-anchor="end" fill="#9ca3af" font-size="12" font-family="-apple-system,BlinkMacSystemFont,Segoe UI,Helvetica,Arial,sans-serif">270</text>
<line x1="90" y1="405.00" x2="1036" y2="405.00" stroke="#1f2937" stroke-width="1"/>
<text x="80" y="410.00" text-anchor="end" fill="#9ca3af" font-size="12" font-family="-apple-system,BlinkMacSystemFont,Segoe UI,Helvetica,Arial,sans-serif">135</text>
<line x1="90" y1="468.00" x2="1036" y2="468.00" stroke="#1f2937" stroke-width="1"/>
<text x="80" y="473.00" text-anchor="end" fill="#9ca3af" font-size="12" font-family="-apple-system,BlinkMacSystemFont,Segoe UI,Helvetica,Arial,sans-serif">0</text>
<line x1="90" y1="468" x2="1036" y2="468" stroke="#4b5563" stroke-width="1.4"/>
<line x1="90" y1="90" x2="90" y2="468" stroke="#4b5563" stroke-width="1.4"/>
<line x1="90.00" y1="468" x2="90.00" y2="474" stroke="#6b7280" stroke-width="1"/>
<text x="90.00" y="494" text-anchor="start" fill="#9ca3af" font-size="12" font-family="-apple-system,BlinkMacSystemFont,Segoe UI,Helvetica,Arial,sans-serif">2018-04-24</text>
<line x1="279.20" y1="468" x2="279.20" y2="474" stroke="#6b7280" stroke-width="1"/>
<text x="279.20" y="494" text-anchor="middle" fill="#9ca3af" font-size="12" font-family="-apple-system,BlinkMacSystemFont,Segoe UI,Helvetica,Arial,sans-serif">2019-11-28</text>
<line x1="468.40" y1="468" x2="468.40" y2="474" stroke="#6b7280" stroke-width="1"/>
<text x="468.40" y="494" text-anchor="middle" fill="#9ca3af" font-size="12" font-family="-apple-system,BlinkMacSystemFont,Segoe UI,Helvetica,Arial,sans-serif">2021-07-04</text>
<line x1="657.60" y1="468" x2="657.60" y2="474" stroke="#6b7280" stroke-width="1"/>
<text x="657.60" y="494" text-anchor="middle" fill="#9ca3af" font-size="12" font-family="-apple-system,BlinkMacSystemFont,Segoe UI,Helvetica,Arial,sans-serif">2023-02-07</text>
<line x1="846.80" y1="468" x2="846.80" y2="474" stroke="#6b7280" stroke-width="1"/>
<text x="846.80" y="494" text-anchor="middle" fill="#9ca3af" font-size="12" font-family="-apple-system,BlinkMacSystemFont,Segoe UI,Helvetica,Arial,sans-serif">2024-09-12</text>
<line x1="1036.00" y1="468" x2="1036.00" y2="474" stroke="#6b7280" stroke-width="1"/>
<text x="1036.00" y="494" text-anchor="end" fill="#9ca3af" font-size="12" font-family="-apple-system,BlinkMacSystemFont,Segoe UI,Helvetica,Arial,sans-serif">2026-04-19</text>
<polyline fill="none" stroke="url(#repo-0)" stroke-width="4" stroke-linecap="round" stroke-linejoin="round" points="719.19,468.00 725.87,467.53 738.84,467.07 752.46,466.60 754.41,466.13 757.65,465.67 769.33,465.20 771.60,464.74 777.11,464.27 777.44,463.80 782.30,463.34 790.09,462.87 802.41,462.40 805.65,461.94 809.87,461.47 813.44,461.01 828.36,460.54 832.90,460.07 833.55,459.61 834.84,459.14 841.00,458.67 854.63,458.21 857.55,457.74 864.36,457.28 869.87,456.81 870.52,456.34 871.17,455.88 891.27,455.41 893.87,454.94 894.52,454.48 900.68,454.01 901.33,453.55 905.22,453.55 906.52,453.08 906.84,452.61 907.17,452.15 910.09,451.68 911.71,451.21 913.33,450.75 918.52,450.75 923.06,450.75 924.68,450.28 925.33,450.28 932.14,449.82 936.03,449.35 947.71,448.88 949.98,448.42 950.63,448.42 952.57,447.95 954.52,447.48 957.44,447.48 962.63,447.02 969.44,446.55 973.65,446.09 985.00,445.62 987.27,445.15 992.14,444.69 992.46,444.22 993.44,443.75 996.03,443.29 996.36,443.29 1005.11,442.82 1011.92,442.36 1012.57,441.89 1014.84,441.42 1021.33,440.96 1023.60,440.49 1025.22,440.02 1026.84,439.56 1030.16,439.56 1031.13,439.56 1031.46,439.09 1032.10,439.09 1032.43,438.63 1032.75,439.09 1036.00,439.09"/>
<circle cx="719.19" cy="468.00" r="3.8" fill="#3bf2af" stroke="#111827" stroke-width="1"/>
<circle cx="752.46" cy="466.60" r="3.8" fill="#3bf2af" stroke="#111827" stroke-width="1"/>
<circle cx="769.33" cy="465.20" r="3.8" fill="#3bf2af" stroke="#111827" stroke-width="1"/>
<circle cx="777.44" cy="463.80" r="3.8" fill="#3bf2af" stroke="#111827" stroke-width="1"/>
<circle cx="802.41" cy="462.40" r="3.8" fill="#3bf2af" stroke="#111827" stroke-width="1"/>
<circle cx="813.44" cy="461.01" r="3.8" fill="#3bf2af" stroke="#111827" stroke-width="1"/>
<circle cx="833.55" cy="459.61" r="3.8" fill="#3bf2af" stroke="#111827" stroke-width="1"/>
<circle cx="854.63" cy="458.21" r="3.8" fill="#3bf2af" stroke="#111827" stroke-width="1"/>
<circle cx="869.87" cy="456.81" r="3.8" fill="#3bf2af" stroke="#111827" stroke-width="1"/>
<circle cx="891.27" cy="455.41" r="3.8" fill="#3bf2af" stroke="#111827" stroke-width="1"/>
<circle cx="900.68" cy="454.01" r="3.8" fill="#3bf2af" stroke="#111827" stroke-width="1"/>
<circle cx="906.52" cy="453.08" r="3.8" fill="#3bf2af" stroke="#111827" stroke-width="1"/>
<circle cx="910.09" cy="451.68" r="3.8" fill="#3bf2af" stroke="#111827" stroke-width="1"/>
<circle cx="918.52" cy="450.75" r="3.8" fill="#3bf2af" stroke="#111827" stroke-width="1"/>
<circle cx="925.33" cy="450.28" r="3.8" fill="#3bf2af" stroke="#111827" stroke-width="1"/>
<circle cx="947.71" cy="448.88" r="3.8" fill="#3bf2af" stroke="#111827" stroke-width="1"/>
<circle cx="952.57" cy="447.95" r="3.8" fill="#3bf2af" stroke="#111827" stroke-width="1"/>
<circle cx="962.63" cy="447.02" r="3.8" fill="#3bf2af" stroke="#111827" stroke-width="1"/>
<circle cx="985.00" cy="445.62" r="3.8" fill="#3bf2af" stroke="#111827" stroke-width="1"/>
<circle cx="992.46" cy="444.22" r="3.8" fill="#3bf2af" stroke="#111827" stroke-width="1"/>
<circle cx="996.36" cy="443.29" r="3.8" fill="#3bf2af" stroke="#111827" stroke-width="1"/>
<circle cx="1012.57" cy="441.89" r="3.8" fill="#3bf2af" stroke="#111827" stroke-width="1"/>
<circle cx="1023.60" cy="440.49" r="3.8" fill="#3bf2af" stroke="#111827" stroke-width="1"/>
<circle cx="1030.16" cy="439.56" r="3.8" fill="#3bf2af" stroke="#111827" stroke-width="1"/>
<circle cx="1032.10" cy="439.09" r="3.8" fill="#3bf2af" stroke="#111827" stroke-width="1"/>
<circle cx="1036.00" cy="439.09" r="3.8" fill="#3bf2af" stroke="#111827" stroke-width="1"/>
<text x="1028.00" y="429.09" text-anchor="end" fill="#3bf2af" font-size="12" font-family="-apple-system,BlinkMacSystemFont,Segoe UI,Helvetica,Arial,sans-serif">62</text>
<polyline fill="none" stroke="url(#repo-1)" stroke-width="4" stroke-linecap="round" stroke-linejoin="round" points="90.00,468.00 91.81,466.60 92.46,466.13 96.03,465.67 99.60,465.20 136.57,464.74 137.54,464.27 143.38,464.27 149.22,463.80 153.76,463.80 157.33,463.34 157.98,462.87 158.30,462.40 158.63,461.94 160.25,461.47 160.90,461.01 165.11,460.54 165.44,460.07 169.33,459.61 170.30,459.14 170.63,458.67 172.25,458.21 173.87,457.28 175.81,456.81 176.79,456.34 181.98,455.88 184.57,455.41 186.19,454.94 186.52,454.48 191.71,454.01 192.03,453.55 192.68,453.08 195.92,452.61 196.57,451.68 196.90,451.68 197.22,451.68 203.06,451.21 204.68,451.21 210.84,450.75 212.14,450.28 212.79,450.28 215.38,449.82 218.30,449.35 222.19,449.35 222.52,448.88 224.79,448.42 227.06,447.95 230.30,447.48 231.27,447.02 233.54,446.55 235.81,446.09 237.76,445.62 238.09,445.15 238.41,444.69 241.00,444.22 241.65,443.75 242.30,442.82 242.63,442.36 242.95,441.42 243.27,440.96 245.87,440.49 246.52,439.56 249.11,439.56 254.63,439.09 255.27,439.09 255.60,438.63 255.92,438.16 256.57,438.16 257.87,437.69 258.19,437.23 260.14,436.76 260.46,436.29 262.73,435.83 263.71,434.90 264.36,433.96 265.33,433.96 266.95,433.50 267.27,433.03 268.25,432.56 271.17,432.10 274.73,431.63 275.71,431.17 276.68,430.70 277.00,430.23 278.30,429.77 278.63,429.30 279.27,428.83 280.25,427.44 281.87,426.97 282.52,426.50 282.84,426.04 283.17,424.64 284.79,424.17 285.76,423.70 286.41,423.24 287.71,423.24 288.03,422.77 289.65,422.31 293.22,421.84 295.17,421.37 296.79,421.37 297.11,420.44 299.38,419.97 301.00,419.51 301.33,419.51 303.27,419.04 303.60,418.58 304.25,418.58 305.22,418.58 305.54,418.11 305.87,417.64 306.19,417.18 310.73,415.78 314.63,415.31 314.95,414.85 315.60,414.38 316.90,413.91 317.22,413.45 318.84,413.45 319.49,412.98 319.82,412.51 320.14,412.05 320.46,411.58 322.09,411.12 325.33,410.65 326.63,410.18 326.95,410.18 327.60,409.72 327.92,409.72 328.57,408.32 329.22,407.85 329.87,407.85 331.17,407.39 331.82,406.92 333.76,406.45 334.09,405.99 335.38,405.52 337.33,405.05 338.63,404.59 339.92,404.59 340.25,404.12 340.90,403.66 341.87,403.19 342.84,402.72 344.46,402.26 346.09,401.79 347.71,401.32 350.63,400.86 353.22,400.39 353.54,399.93 353.87,399.46 358.73,398.99 359.71,398.53 360.68,398.06 361.00,397.13 361.98,396.66 364.25,395.73 364.57,394.80 366.19,394.33 368.14,394.33 371.38,393.86 372.36,393.40 373.33,392.93 374.63,392.00 375.27,391.53 375.60,391.07 376.25,390.60 377.87,389.67 379.17,389.20 383.38,388.27 385.00,386.87 385.98,385.94 388.90,385.94 389.54,385.94 389.87,385.47 390.19,384.54 391.82,383.61 392.79,383.14 394.09,382.67 394.41,382.21 395.06,381.74 397.33,381.27 397.65,380.81 398.30,380.34 400.57,379.88 401.22,379.41 402.52,378.94 403.49,378.48 403.82,378.01 404.14,377.54 408.03,377.08 408.68,376.61 409.98,375.68 410.30,375.21 411.60,374.75 412.90,371.48 413.22,370.55 413.54,370.08 415.17,369.62 415.82,369.15 417.44,369.15 418.73,368.69 419.71,368.22 421.65,367.29 422.95,366.82 424.57,366.35 424.90,365.89 425.54,365.42 426.19,364.49 426.84,364.02 427.17,364.02 428.14,364.02 428.46,363.56 428.79,363.09 429.11,362.62 430.73,362.16 431.38,361.23 432.68,360.76 433.33,359.83 434.30,359.36 434.95,358.89 435.92,358.43 437.22,357.96 438.52,357.96 439.82,357.50 440.14,357.03 441.76,356.56 442.09,356.10 442.73,355.63 443.06,355.16 443.71,354.70 444.03,353.30 445.65,352.83 446.95,352.37 448.57,351.90 453.11,350.97 453.44,350.50 453.76,350.50 454.09,350.04 455.06,349.57 455.38,349.10 455.71,348.64 456.03,347.70 457.33,347.24 457.98,346.31 458.30,344.91 459.27,344.91 459.60,344.91 460.25,343.97 462.19,343.51 462.52,342.58 462.84,342.11 464.14,341.64 466.41,341.18 466.73,340.71 467.38,340.24 469.65,339.78 471.27,339.31 472.90,339.31 475.82,339.31 477.11,338.84 477.44,338.38 477.76,338.38 478.41,337.91 478.73,336.98 479.06,336.51 480.03,336.05 480.36,335.58 481.33,335.11 482.95,334.18 483.27,334.18 483.60,333.25 483.92,332.78 484.25,331.38 484.57,330.45 484.90,329.99 485.54,329.52 485.87,327.65 486.19,327.19 487.17,326.72 487.82,325.79 488.46,325.32 489.76,324.86 491.06,324.39 491.38,323.92 491.71,323.46 492.03,322.99 493.65,322.53 494.95,322.06 495.27,321.59 496.57,320.66 496.90,319.73 497.22,319.73 500.46,319.26 500.79,318.80 501.44,318.33 503.06,317.40 503.71,316.93 504.36,316.46 505.65,316.46 506.30,315.53 506.63,315.53 506.95,313.67 507.27,311.34 508.57,310.87 508.90,310.40 509.54,309.94 509.87,309.47 510.84,309.00 511.17,308.54 512.46,308.07 515.38,307.61 516.36,307.14 517.33,306.67 517.65,305.27 517.98,304.81 518.30,304.34 518.63,303.88 519.27,303.41 521.54,303.41 522.84,302.94 523.17,302.48 523.49,302.01 524.46,301.54 525.76,301.54 527.06,301.08 528.68,300.61 529.00,300.15 532.57,299.68 534.19,299.21 534.84,298.28 535.49,297.81 538.09,297.35 538.73,296.88 539.06,296.41 540.03,295.95 540.68,295.48 541.33,295.48 541.98,295.02 542.63,294.55 543.92,294.08 544.25,293.62 544.57,293.15 546.19,293.15 546.84,292.68 547.17,292.22 548.14,291.29 548.79,290.35 549.44,289.89 551.06,288.95 551.38,288.95 551.71,288.49 552.68,288.02 553.33,287.56 553.98,287.09 555.60,286.62 558.52,286.16 558.84,285.69 560.14,285.22 560.46,284.76 561.76,284.29 562.09,283.83 562.41,281.96 563.06,281.49 564.03,281.03 564.36,280.56 564.68,280.10 565.33,279.63 566.63,279.16 567.60,279.16 567.92,278.70 572.14,278.23 572.46,277.76 573.44,276.83 574.09,276.37 576.36,275.90 577.33,275.43 577.65,274.97 577.98,274.50 580.57,273.57 580.90,273.10 581.22,271.24 582.19,270.77 582.52,270.30 583.17,269.84 585.44,269.37 586.09,268.91 586.73,268.91 587.71,268.44 588.03,267.97 589.00,267.51 594.52,267.04 595.82,266.11 596.14,265.64 597.76,265.18 598.41,265.18 598.73,264.24 599.06,264.24 599.38,263.78 600.36,263.31 601.33,262.84 601.65,262.38 603.60,261.91 603.92,261.45 604.57,260.51 605.54,260.05 606.19,259.58 606.52,259.11 607.82,258.65 608.46,258.65 609.11,258.18 610.09,257.72 610.41,257.25 614.63,256.78 615.60,256.78 616.57,256.32 616.90,255.85 618.52,255.38 618.84,254.45 619.17,253.98 619.49,253.05 620.79,252.59 621.76,252.12 624.03,251.19 625.00,250.72 625.33,250.25 625.98,250.25 626.63,248.86 628.57,248.39 628.90,247.92 632.14,247.46 632.46,246.99 633.44,245.59 633.76,245.13 634.73,244.66 635.06,244.66 635.38,244.19 637.00,243.73 637.33,242.79 638.30,241.86 639.92,241.40 641.22,240.93 642.19,240.93 645.76,240.93 646.09,240.93 648.03,240.93 648.68,240.00 649.33,240.00 650.63,240.00 650.95,240.00 653.54,239.53 656.46,239.06 657.11,238.60 657.44,237.67 657.76,237.20 660.68,236.73 661.98,236.73 662.30,236.27 662.63,235.80 663.27,235.80 664.57,235.33 664.90,234.87 665.54,234.40 666.84,233.94 668.46,233.47 668.79,233.47 669.44,233.00 669.76,232.54 670.09,232.54 670.41,232.07 670.73,231.60 671.38,231.14 675.27,230.67 677.54,230.67 679.82,230.67 680.79,230.67 681.11,230.21 681.44,229.74 682.41,229.74 682.73,229.27 685.00,228.81 685.33,228.34 686.63,228.34 686.95,227.87 687.27,227.41 688.57,226.94 689.55,226.94 690.84,226.01 691.82,226.01 692.14,226.01 694.09,225.54 694.73,224.61 695.71,224.14 696.03,223.68 696.68,223.21 698.63,222.28 699.27,222.28 699.92,221.81 700.25,221.35 700.90,220.88 701.22,220.41 702.19,219.95 702.52,219.02 703.17,218.55 704.46,218.08 704.79,217.62 705.44,216.68 706.09,216.22 707.38,215.75 707.71,215.29 709.00,214.82 710.30,214.35 711.92,214.35 712.90,213.89 713.22,213.42 714.84,213.42 715.17,212.95 716.46,212.49 717.44,211.09 718.09,211.09 719.06,210.62 720.36,210.16 720.68,209.69 721.33,209.22 723.92,208.76 725.87,208.29 728.14,207.82 731.71,207.36 732.03,207.36 732.36,206.89 734.30,205.49 734.95,205.03 735.27,204.56 735.60,204.09 736.57,203.63 736.90,203.16 737.55,202.70 740.14,201.76 741.76,201.30 742.41,201.30 744.03,201.30 745.33,200.83 748.25,200.36 749.55,200.36 751.49,199.90 757.33,199.90 759.60,199.90 760.25,199.43 763.17,198.97 763.82,198.50 764.46,198.03 766.41,197.57 767.06,197.10 767.71,196.17 768.03,196.17 768.36,195.70 770.95,195.24 773.87,194.77 775.49,194.30 777.44,193.84 780.36,193.84 782.95,192.44 784.25,191.97 784.90,191.51 786.19,191.04 787.82,190.57 788.46,190.11 789.11,189.64 791.06,189.17 792.36,188.71 792.68,187.78 795.60,187.78 795.92,187.31 796.25,187.31 796.90,186.84 797.87,186.84 799.17,186.38 801.11,185.91 801.44,185.44 802.41,185.44 804.68,185.44 806.95,184.98 808.90,184.51 811.49,184.05 812.14,183.58 812.46,183.11 813.44,183.11 813.76,182.65 814.09,182.18 814.73,181.25 816.03,180.78 818.30,180.32 818.63,179.85 819.60,178.92 821.55,178.45 823.17,177.98 823.49,177.52 824.79,177.05 825.76,176.59 826.09,176.59 827.38,176.12 828.03,176.12 829.65,175.65 829.98,175.19 830.30,173.79 832.25,173.32 833.22,172.86 833.55,172.39 835.49,172.39 836.79,171.92 837.11,170.52 837.44,170.52 839.71,169.12 841.33,168.66 845.22,168.19 845.55,167.73 847.49,167.26 850.41,166.79 853.65,166.33 855.60,165.39 855.92,164.93 856.25,164.46 856.90,164.00 859.49,163.53 861.76,163.06 865.00,162.60 865.33,162.60 868.25,162.13 869.22,161.66 870.52,161.20 880.57,160.73 881.87,159.80 882.19,159.33 885.44,158.87 887.06,157.93 889.33,157.47 889.98,157.47 890.30,157.00 892.25,156.54 893.55,156.07 894.19,155.60 894.52,155.14 894.84,154.67 895.82,154.20 897.44,153.74 897.76,153.74 899.38,153.27 901.65,152.81 903.92,152.34 904.57,151.87 908.14,151.41 908.46,150.94 910.09,150.47 911.71,150.01 914.63,149.54 915.92,149.08 918.19,149.08 918.52,148.61 919.17,148.61 920.79,148.14 921.11,147.68 921.76,147.21 922.73,146.28 923.06,144.88 923.38,143.95 923.71,143.48 925.00,143.01 925.33,143.01 927.27,142.55 927.60,142.08 929.22,141.62 929.55,141.15 930.19,140.68 930.84,140.68 931.82,140.22 935.06,139.75 940.90,139.28 942.19,138.82 943.82,138.35 945.11,137.89 946.41,137.42 947.38,136.95 948.36,136.02 950.63,136.02 952.25,135.55 952.90,135.55 955.17,135.55 955.49,135.55 955.82,135.09 959.38,134.62 961.33,134.16 961.65,134.16 964.57,133.69 969.44,133.22 970.73,133.22 971.06,132.76 972.03,132.29 975.92,131.82 980.46,131.36 980.79,131.36 985.00,130.89 987.60,130.43 1000.25,129.96 1003.17,129.03 1004.14,128.56 1005.76,128.09 1006.09,127.16 1011.92,126.69 1014.52,126.23 1019.71,125.76 1021.33,125.30 1023.60,124.83 1030.16,124.83 1033.08,124.83 1033.40,124.36 1034.06,124.36 1034.38,124.83 1035.35,124.83 1035.67,125.30 1036.00,125.30"/>
<circle cx="90.00" cy="468.00" r="3.8" fill="#ffb50c" stroke="#111827" stroke-width="1"/>
<circle cx="192.03" cy="453.55" r="3.8" fill="#ffb50c" stroke="#111827" stroke-width="1"/>
<circle cx="245.87" cy="440.49" r="3.8" fill="#ffb50c" stroke="#111827" stroke-width="1"/>
<circle cx="282.84" cy="426.04" r="3.8" fill="#ffb50c" stroke="#111827" stroke-width="1"/>
<circle cx="319.82" cy="412.51" r="3.8" fill="#ffb50c" stroke="#111827" stroke-width="1"/>
<circle cx="353.87" cy="399.46" r="3.8" fill="#ffb50c" stroke="#111827" stroke-width="1"/>
<circle cx="395.06" cy="381.74" r="3.8" fill="#ffb50c" stroke="#111827" stroke-width="1"/>
<circle cx="427.17" cy="364.02" r="3.8" fill="#ffb50c" stroke="#111827" stroke-width="1"/>
<circle cx="455.38" cy="349.10" r="3.8" fill="#ffb50c" stroke="#111827" stroke-width="1"/>
<circle cx="483.27" cy="334.18" r="3.8" fill="#ffb50c" stroke="#111827" stroke-width="1"/>
<circle cx="506.30" cy="315.53" r="3.8" fill="#ffb50c" stroke="#111827" stroke-width="1"/>
<circle cx="534.84" cy="298.28" r="3.8" fill="#ffb50c" stroke="#111827" stroke-width="1"/>
<circle cx="561.76" cy="284.29" r="3.8" fill="#ffb50c" stroke="#111827" stroke-width="1"/>
<circle cx="589.00" cy="267.51" r="3.8" fill="#ffb50c" stroke="#111827" stroke-width="1"/>
<circle cx="619.49" cy="253.05" r="3.8" fill="#ffb50c" stroke="#111827" stroke-width="1"/>
<circle cx="653.54" cy="239.53" r="3.8" fill="#ffb50c" stroke="#111827" stroke-width="1"/>
<circle cx="685.00" cy="228.81" r="3.8" fill="#ffb50c" stroke="#111827" stroke-width="1"/>
<circle cx="709.00" cy="214.82" r="3.8" fill="#ffb50c" stroke="#111827" stroke-width="1"/>
<circle cx="744.03" cy="201.30" r="3.8" fill="#ffb50c" stroke="#111827" stroke-width="1"/>
<circle cx="792.68" cy="187.78" r="3.8" fill="#ffb50c" stroke="#111827" stroke-width="1"/>
<circle cx="827.38" cy="176.12" r="3.8" fill="#ffb50c" stroke="#111827" stroke-width="1"/>
<circle cx="880.57" cy="160.73" r="3.8" fill="#ffb50c" stroke="#111827" stroke-width="1"/>
<circle cx="921.11" cy="147.68" r="3.8" fill="#ffb50c" stroke="#111827" stroke-width="1"/>
<circle cx="961.33" cy="134.16" r="3.8" fill="#ffb50c" stroke="#111827" stroke-width="1"/>
<circle cx="1036.00" cy="125.30" r="3.8" fill="#ffb50c" stroke="#111827" stroke-width="1"/>
<text x="1028.00" y="115.30" text-anchor="end" fill="#ffb50c" font-size="12" font-family="-apple-system,BlinkMacSystemFont,Segoe UI,Helvetica,Arial,sans-serif">735</text>
<rect x="90.00" y="514.00" width="14" height="14" fill="url(#repo-0)" rx="3"/>
<text x="112.00" y="526.00" fill="#3bf2af" font-size="13" font-family="-apple-system,BlinkMacSystemFont,Segoe UI,Helvetica,Arial,sans-serif">bavix/gripmock</text>
<rect x="280.00" y="514.00" width="14" height="14" fill="url(#repo-1)" rx="3"/>
<text x="302.00" y="526.00" fill="#ffb50c" font-size="13" font-family="-apple-system,BlinkMacSystemFont,Segoe UI,Helvetica,Arial,sans-serif">tokopedia/gripmock</text>
<text x="1036.00" y="526.00" text-anchor="end" fill="#9ca3af" font-size="12" font-family="-apple-system,BlinkMacSystemFont,Segoe UI,Helvetica,Arial,sans-serif">Source: https://github.com/bavix/artifact-stats/blob/master/stats/github.csv</text>
</svg>