<svg xmlns="http://www.w3.org/2000/svg" width="1100" height="560" viewBox="0 0 1100 560">
<defs>
<linearGradient id="bg" x1="0" y1="0" x2="1" y2="1"><stop offset="0%" stop-color="#0b1220"/><stop offset="100%" stop-color="#111827"/></linearGradient>
<linearGradient id="repo-0" x1="0" y1="0" x2="0" y2="1"><stop offset="0%" stop-color="#34d399"/><stop offset="100%" stop-color="#059669"/></linearGradient>
<linearGradient id="repo-1" x1="0" y1="0" x2="0" y2="1"><stop offset="0%" stop-color="#f59e0b"/><stop offset="100%" stop-color="#d97706"/></linearGradient>
</defs>
<rect x="0" y="0" width="1100" height="560" fill="url(#bg)" rx="16"/>
<text x="90" y="44" fill="#f9fafb" font-size="28" font-family="-apple-system,BlinkMacSystemFont,Segoe UI,Helvetica,Arial,sans-serif" font-weight="700">GripMock GitHub Metrics - Forks</text>
<text x="90" y="70" fill="#9ca3af" font-size="16" font-family="-apple-system,BlinkMacSystemFont,Segoe UI,Helvetica,Arial,sans-serif">GitHub forks by snapshot date</text>
<line x1="90" y1="90.0" x2="1036" y2="90.0" stroke="#1f2937" stroke-width="1"/>
<text x="80" y="95.0" text-anchor="end" fill="#9ca3af" font-size="12" font-family="-apple-system,BlinkMacSystemFont,Segoe UI,Helvetica,Arial,sans-serif">185</text>
<line x1="90" y1="153.0" x2="1036" y2="153.0" stroke="#1f2937" stroke-width="1"/>
<text x="80" y="158.0" text-anchor="end" fill="#9ca3af" font-size="12" font-family="-apple-system,BlinkMacSystemFont,Segoe UI,Helvetica,Arial,sans-serif">154</text>
<line x1="90" y1="216.0" x2="1036" y2="216.0" stroke="#1f2937" stroke-width="1"/>
<text x="80" y="221.0" text-anchor="end" fill="#9ca3af" font-size="12" font-family="-apple-system,BlinkMacSystemFont,Segoe UI,Helvetica,Arial,sans-serif">123</text>
<line x1="90" y1="279.0" x2="1036" y2="279.0" stroke="#1f2937" stroke-width="1"/>
<text x="80" y="284.0" text-anchor="end" fill="#9ca3af" font-size="12" font-family="-apple-system,BlinkMacSystemFont,Segoe UI,Helvetica,Arial,sans-serif">92</text>
<line x1="90" y1="342.0" x2="1036" y2="342.0" stroke="#1f2937" stroke-width="1"/>
<text x="80" y="347.0" text-anchor="end" fill="#9ca3af" font-size="12" font-family="-apple-system,BlinkMacSystemFont,Segoe UI,Helvetica,Arial,sans-serif">62</text>
<line x1="90" y1="405.0" x2="1036" y2="405.0" stroke="#1f2937" stroke-width="1"/>
<text x="80" y="410.0" text-anchor="end" fill="#9ca3af" font-size="12" font-family="-apple-system,BlinkMacSystemFont,Segoe UI,Helvetica,Arial,sans-serif">31</text>
<line x1="90" y1="468.0" x2="1036" y2="468.0" stroke="#1f2937" stroke-width="1"/>
<text x="80" y="473.0" text-anchor="end" fill="#9ca3af" font-size="12" font-family="-apple-system,BlinkMacSystemFont,Segoe UI,Helvetica,Arial,sans-serif">0</text>
<line x1="90" y1="468" x2="1036" y2="468" stroke="#4b5563" stroke-width="1.4"/>
<line x1="90" y1="90" x2="90" y2="468" stroke="#4b5563" stroke-width="1.4"/>
<line x1="90.0" y1="468" x2="90.0" y2="474" stroke="#6b7280" stroke-width="1"/>
<text x="90.0" y="494" text-anchor="start" fill="#9ca3af" font-size="12" font-family="-apple-system,BlinkMacSystemFont,Segoe UI,Helvetica,Arial,sans-serif">2018-04-24</text>
<line x1="279.2" y1="468" x2="279.2" y2="474" stroke="#6b7280" stroke-width="1"/>
<text x="279.2" y="494" text-anchor="middle" fill="#9ca3af" font-size="12" font-family="-apple-system,BlinkMacSystemFont,Segoe UI,Helvetica,Arial,sans-serif">2019-11-25</text>
<line x1="468.4" y1="468" x2="468.4" y2="474" stroke="#6b7280" stroke-width="1"/>
<text x="468.4" y="494" text-anchor="middle" fill="#9ca3af" font-size="12" font-family="-apple-system,BlinkMacSystemFont,Segoe UI,Helvetica,Arial,sans-serif">2021-06-28</text>
<line x1="657.6" y1="468" x2="657.6" y2="474" stroke="#6b7280" stroke-width="1"/>
<text x="657.6" y="494" text-anchor="middle" fill="#9ca3af" font-size="12" font-family="-apple-system,BlinkMacSystemFont,Segoe UI,Helvetica,Arial,sans-serif">2023-01-30</text>
<line x1="846.8" y1="468" x2="846.8" y2="474" stroke="#6b7280" stroke-width="1"/>
<text x="846.8" y="494" text-anchor="middle" fill="#9ca3af" font-size="12" font-family="-apple-system,BlinkMacSystemFont,Segoe UI,Helvetica,Arial,sans-serif">2024-09-01</text>
<line x1="1036.0" y1="468" x2="1036.0" y2="474" stroke="#6b7280" stroke-width="1"/>
<text x="1036.0" y="494" text-anchor="end" fill="#9ca3af" font-size="12" font-family="-apple-system,BlinkMacSystemFont,Segoe UI,Helvetica,Arial,sans-serif">2026-04-05</text>
<polyline fill="none" stroke="url(#repo-0)" stroke-width="4" stroke-linecap="round" stroke-linejoin="round" points="722.23,468.00 728.94,468.00 741.97,468.00 755.66,468.00 757.62,468.00 760.88,468.00 772.61,468.00 774.89,468.00 780.43,468.00 780.75,468.00 785.64,468.00 793.46,468.00 805.85,468.00 809.11,468.00 813.34,468.00 816.93,468.00 831.92,468.00 836.48,468.00 837.13,468.00 838.44,468.00 844.63,468.00 858.32,468.00 861.25,468.00 868.09,468.00 873.63,468.00 874.29,468.00 874.94,468.00 895.14,468.00 897.75,468.00 898.40,468.00 904.59,468.00 905.24,468.00 909.16,465.95 910.46,465.95 910.78,465.95 911.11,465.95 914.04,463.91 915.67,463.91 917.30,463.91 922.52,461.86 927.08,459.82 928.71,459.82 929.36,457.77 936.20,457.77 940.11,457.77 951.85,457.77 954.13,457.77 954.78,455.73 956.74,455.73 958.69,455.73 961.62,453.68 966.84,453.68 973.68,453.68 977.92,453.68 989.32,453.68 991.61,453.68 996.49,453.68 996.82,453.68 997.80,453.68 1000.40,453.68 1000.73,451.64 1009.53,451.64 1016.37,451.64 1017.02,451.64 1019.31,451.64 1025.82,451.64 1028.11,451.64 1029.73,451.64 1031.36,451.64 1034.70,451.64 1035.67,451.64 1036.00,451.64"/>
<circle cx="722.23" cy="468.00" r="3.8" fill="#3bf2af" stroke="#111827" stroke-width="1"/>
<circle cx="755.66" cy="468.00" r="3.8" fill="#3bf2af" stroke="#111827" stroke-width="1"/>
<circle cx="772.61" cy="468.00" r="3.8" fill="#3bf2af" stroke="#111827" stroke-width="1"/>
<circle cx="780.75" cy="468.00" r="3.8" fill="#3bf2af" stroke="#111827" stroke-width="1"/>
<circle cx="805.85" cy="468.00" r="3.8" fill="#3bf2af" stroke="#111827" stroke-width="1"/>
<circle cx="816.93" cy="468.00" r="3.8" fill="#3bf2af" stroke="#111827" stroke-width="1"/>
<circle cx="837.13" cy="468.00" r="3.8" fill="#3bf2af" stroke="#111827" stroke-width="1"/>
<circle cx="858.32" cy="468.00" r="3.8" fill="#3bf2af" stroke="#111827" stroke-width="1"/>
<circle cx="873.63" cy="468.00" r="3.8" fill="#3bf2af" stroke="#111827" stroke-width="1"/>
<circle cx="895.14" cy="468.00" r="3.8" fill="#3bf2af" stroke="#111827" stroke-width="1"/>
<circle cx="904.59" cy="468.00" r="3.8" fill="#3bf2af" stroke="#111827" stroke-width="1"/>
<circle cx="910.46" cy="465.95" r="3.8" fill="#3bf2af" stroke="#111827" stroke-width="1"/>
<circle cx="914.04" cy="463.91" r="3.8" fill="#3bf2af" stroke="#111827" stroke-width="1"/>
<circle cx="922.52" cy="461.86" r="3.8" fill="#3bf2af" stroke="#111827" stroke-width="1"/>
<circle cx="929.36" cy="457.77" r="3.8" fill="#3bf2af" stroke="#111827" stroke-width="1"/>
<circle cx="951.85" cy="457.77" r="3.8" fill="#3bf2af" stroke="#111827" stroke-width="1"/>
<circle cx="956.74" cy="455.73" r="3.8" fill="#3bf2af" stroke="#111827" stroke-width="1"/>
<circle cx="966.84" cy="453.68" r="3.8" fill="#3bf2af" stroke="#111827" stroke-width="1"/>
<circle cx="989.32" cy="453.68" r="3.8" fill="#3bf2af" stroke="#111827" stroke-width="1"/>
<circle cx="996.82" cy="453.68" r="3.8" fill="#3bf2af" stroke="#111827" stroke-width="1"/>
<circle cx="1000.73" cy="451.64" r="3.8" fill="#3bf2af" stroke="#111827" stroke-width="1"/>
<circle cx="1017.02" cy="451.64" r="3.8" fill="#3bf2af" stroke="#111827" stroke-width="1"/>
<circle cx="1028.11" cy="451.64" r="3.8" fill="#3bf2af" stroke="#111827" stroke-width="1"/>
<circle cx="1034.70" cy="451.64" r="3.8" fill="#3bf2af" stroke="#111827" stroke-width="1"/>
<circle cx="1036.00" cy="451.64" r="3.8" fill="#3bf2af" stroke="#111827" stroke-width="1"/>
<text x="1028.0" y="441.6" text-anchor="end" fill="#3bf2af" font-size="12" font-family="-apple-system,BlinkMacSystemFont,Segoe UI,Helvetica,Arial,sans-serif">8</text>
<polyline fill="none" stroke="url(#repo-1)" stroke-width="4" stroke-linecap="round" stroke-linejoin="round" points="90.00,468.00 91.82,468.00 92.48,468.00 96.06,468.00 99.65,468.00 136.80,468.00 137.77,465.95 143.64,463.91 149.51,463.91 154.07,461.86 157.65,461.86 158.31,461.86 158.63,461.86 158.96,461.86 160.59,461.86 161.24,461.86 165.47,459.82 165.80,459.82 169.71,459.82 170.69,459.82 171.01,459.82 172.64,459.82 174.27,459.82 176.23,459.82 177.21,459.82 182.42,459.82 185.03,459.82 186.66,459.82 186.98,459.82 192.20,459.82 192.52,459.82 193.18,457.77 196.43,457.77 197.09,457.77 197.41,455.73 197.74,453.68 203.60,453.68 205.23,451.64 211.43,451.64 212.73,451.64 213.38,449.59 215.99,447.55 218.92,447.55 222.83,445.50 223.16,445.50 225.44,445.50 227.72,445.50 230.98,445.50 231.96,445.50 234.24,445.50 236.52,445.50 238.47,445.50 238.80,445.50 239.13,445.50 241.73,445.50 242.38,445.50 243.04,445.50 243.36,443.45 243.69,441.41 244.01,441.41 246.62,441.41 247.27,441.41 249.88,439.36 255.42,439.36 256.07,437.32 256.40,437.32 256.72,437.32 257.38,433.23 258.68,433.23 259.01,433.23 260.96,433.23 261.29,433.23 263.57,433.23 264.55,433.23 265.20,433.23 266.17,431.18 267.80,431.18 268.13,429.14 269.11,429.14 272.04,429.14 275.63,429.14 276.60,429.14 277.58,429.14 277.91,429.14 279.21,429.14 279.54,429.14 280.19,429.14 281.17,429.14 282.80,429.14 283.45,429.14 283.77,429.14 284.10,429.14 285.73,429.14 286.71,429.14 287.36,429.14 288.66,427.09 288.99,425.05 290.62,425.05 294.20,425.05 296.16,425.05 297.79,423.00 298.11,423.00 300.39,423.00 302.02,423.00 302.35,420.95 304.30,420.95 304.63,420.95 305.28,418.91 306.26,416.86 306.59,416.86 306.91,416.86 307.24,416.86 311.80,414.82 315.71,414.82 316.04,414.82 316.69,414.82 317.99,414.82 318.32,414.82 319.95,412.77 320.60,410.73 320.92,410.73 321.25,410.73 321.58,410.73 323.21,410.73 326.46,408.68 327.77,408.68 328.09,406.64 328.75,406.64 329.07,404.59 329.72,402.55 330.38,402.55 331.03,400.50 332.33,398.45 332.98,398.45 334.94,398.45 335.26,398.45 336.57,398.45 338.52,398.45 339.83,398.45 341.13,396.41 341.46,396.41 342.11,396.41 343.08,396.41 344.06,396.41 345.69,396.41 347.32,396.41 348.95,396.41 351.88,394.36 354.49,394.36 354.82,394.36 355.14,394.36 360.03,394.36 361.01,394.36 361.99,394.36 362.31,394.36 363.29,394.36 365.57,394.36 365.90,394.36 367.53,394.36 369.48,392.32 372.74,392.32 373.72,392.32 374.70,392.32 376.00,392.32 376.65,392.32 376.98,392.32 377.63,390.27 379.26,390.27 380.56,390.27 384.80,388.23 386.43,388.23 387.41,388.23 390.34,386.18 390.99,384.14 391.32,384.14 391.64,384.14 393.27,384.14 394.25,384.14 395.55,384.14 395.88,384.14 396.53,384.14 398.81,384.14 399.14,384.14 399.79,384.14 402.07,384.14 402.72,384.14 404.03,384.14 405.00,382.09 405.33,382.09 405.66,382.09 409.57,382.09 410.22,382.09 411.52,382.09 411.85,382.09 413.15,382.09 414.45,382.09 414.78,382.09 415.11,382.09 416.74,382.09 417.39,382.09 419.02,380.05 420.32,378.00 421.30,378.00 423.25,378.00 424.56,378.00 426.19,378.00 426.51,378.00 427.16,378.00 427.82,378.00 428.47,378.00 428.79,375.95 429.77,373.91 430.10,373.91 430.42,373.91 430.75,371.86 432.38,371.86 433.03,369.82 434.33,369.82 434.99,369.82 435.96,369.82 436.62,369.82 437.59,369.82 438.90,369.82 440.20,367.77 441.50,365.73 441.83,365.73 443.46,365.73 443.78,365.73 444.44,365.73 444.76,365.73 445.41,365.73 445.74,365.73 447.37,365.73 448.67,365.73 450.30,363.68 454.86,363.68 455.19,363.68 455.52,361.64 455.84,361.64 456.82,357.55 457.15,357.55 457.47,357.55 457.80,357.55 459.10,355.50 459.75,355.50 460.08,355.50 461.06,353.45 461.38,351.41 462.03,351.41 463.99,351.41 464.32,351.41 464.64,351.41 465.95,351.41 468.23,351.41 468.55,351.41 469.20,351.41 471.49,351.41 473.11,351.41 474.74,349.36 477.68,347.32 478.98,347.32 479.31,347.32 479.63,345.27 480.28,345.27 480.61,343.23 480.94,343.23 481.91,343.23 482.24,343.23 483.22,343.23 484.85,343.23 485.17,339.14 485.50,339.14 485.82,339.14 486.15,339.14 486.48,339.14 486.80,339.14 487.45,339.14 487.78,339.14 488.11,335.05 489.08,335.05 489.74,335.05 490.39,335.05 491.69,335.05 492.99,335.05 493.32,335.05 493.65,333.00 493.97,330.95 495.60,330.95 496.90,330.95 497.23,330.95 498.53,330.95 498.86,330.95 499.19,328.91 502.44,328.91 502.77,328.91 503.42,328.91 505.05,328.91 505.70,328.91 506.36,328.91 507.66,326.86 508.31,326.86 508.64,324.82 508.96,324.82 509.29,322.77 510.59,322.77 510.92,322.77 511.57,322.77 511.90,322.77 512.87,322.77 513.20,322.77 514.50,322.77 517.44,322.77 518.41,322.77 519.39,322.77 519.72,320.73 520.04,320.73 520.37,318.68 520.69,318.68 521.35,318.68 523.63,316.64 524.93,316.64 525.26,316.64 525.58,316.64 526.56,316.64 527.86,314.59 529.17,314.59 530.80,314.59 531.12,314.59 534.71,314.59 536.34,314.59 536.99,314.59 537.64,314.59 540.25,314.59 540.90,314.59 541.23,314.59 542.20,314.59 542.86,314.59 543.51,312.55 544.16,312.55 544.81,312.55 546.11,312.55 546.44,312.55 546.77,312.55 548.40,310.50 549.05,310.50 549.37,310.50 550.35,310.50 551.00,310.50 551.65,310.50 553.28,310.50 553.61,308.45 553.94,308.45 554.91,308.45 555.56,306.41 556.22,306.41 557.85,306.41 560.78,306.41 561.11,306.41 562.41,306.41 562.73,306.41 564.04,306.41 564.36,306.41 564.69,304.36 565.34,304.36 566.32,304.36 566.65,304.36 566.97,304.36 567.62,304.36 568.93,304.36 569.90,302.32 570.23,302.32 574.47,302.32 574.79,302.32 575.77,302.32 576.42,302.32 578.70,302.32 579.68,300.27 580.01,300.27 580.33,300.27 582.94,300.27 583.27,300.27 583.59,300.27 584.57,300.27 584.90,300.27 585.55,300.27 587.83,300.27 588.48,300.27 589.13,296.18 590.11,296.18 590.44,296.18 591.41,296.18 596.95,296.18 598.26,296.18 598.58,296.18 600.21,296.18 600.86,294.14 601.19,294.14 601.52,292.09 601.84,292.09 602.82,290.05 603.80,290.05 604.12,290.05 606.08,290.05 606.40,290.05 607.06,290.05 608.03,290.05 608.68,290.05 609.01,290.05 610.31,290.05 610.97,288.00 611.62,288.00 612.60,288.00 612.92,288.00 617.16,288.00 618.14,285.95 619.11,285.95 619.44,285.95 621.07,285.95 621.39,285.95 621.72,285.95 622.05,285.95 623.35,285.95 624.33,285.95 626.61,285.95 627.59,285.95 627.91,285.95 628.56,283.91 629.22,283.91 631.17,283.91 631.50,283.91 634.76,283.91 635.08,283.91 636.06,283.91 636.39,283.91 637.36,283.91 637.69,279.82 638.02,279.82 639.64,279.82 639.97,279.82 640.95,279.82 642.58,279.82 643.88,279.82 644.86,277.77 648.44,275.73 648.77,273.68 650.72,271.64 651.38,271.64 652.03,269.59 653.33,267.55 653.66,265.50 656.26,265.50 659.20,265.50 659.85,265.50 660.18,263.45 660.50,263.45 663.43,261.41 664.74,259.36 665.06,259.36 665.39,259.36 666.04,257.32 667.35,257.32 667.67,257.32 668.32,257.32 669.63,257.32 671.26,257.32 671.58,255.27 672.23,255.27 672.56,255.27 672.89,253.23 673.21,253.23 673.54,253.23 674.19,253.23 678.10,253.23 680.38,251.18 682.66,249.14 683.64,247.09 683.97,245.05 684.29,245.05 685.27,243.00 685.59,243.00 687.88,240.95 688.20,240.95 689.51,238.91 689.83,238.91 690.16,238.91 691.46,238.91 692.44,236.86 693.74,236.86 694.72,234.82 695.05,232.77 697.00,232.77 697.65,232.77 698.63,232.77 698.96,232.77 699.61,232.77 701.56,230.73 702.22,228.68 702.87,228.68 703.19,228.68 703.84,228.68 704.17,228.68 705.15,228.68 705.47,228.68 706.13,228.68 707.43,228.68 707.76,228.68 708.41,228.68 709.06,228.68 710.36,228.68 710.69,226.64 711.99,226.64 713.30,226.64 714.93,224.59 715.90,224.59 716.23,224.59 717.86,222.55 718.18,222.55 719.49,222.55 720.47,222.55 721.12,220.50 722.09,220.50 723.40,220.50 723.72,220.50 724.38,220.50 726.98,220.50 728.94,218.45 731.22,218.45 734.80,218.45 735.13,216.41 735.46,216.41 737.41,216.41 738.06,216.41 738.39,216.41 738.72,214.36 739.69,214.36 740.02,212.32 740.67,212.32 743.28,212.32 744.91,212.32 745.56,210.27 747.19,208.23 748.49,208.23 751.42,206.18 752.73,204.14 754.68,204.14 760.55,202.09 762.83,200.05 763.48,200.05 766.42,200.05 767.07,200.05 767.72,200.05 769.67,200.05 770.33,200.05 770.98,200.05 771.30,198.00 771.63,198.00 774.24,198.00 777.17,198.00 778.80,198.00 780.75,198.00 783.69,195.95 786.29,195.95 787.60,195.95 788.25,195.95 789.55,195.95 791.18,195.95 791.84,195.95 792.49,195.95 794.44,195.95 795.75,195.95 796.07,195.95 799.00,193.91 799.33,193.91 799.66,191.86 800.31,191.86 801.29,189.82 802.59,189.82 804.54,189.82 804.87,189.82 805.85,187.77 808.13,185.73 810.41,185.73 812.37,185.73 814.97,185.73 815.63,185.73 815.95,185.73 816.93,183.68 817.25,183.68 817.58,183.68 818.23,183.68 819.54,181.64 821.82,181.64 822.14,179.59 823.12,179.59 825.08,179.59 826.71,179.59 827.03,179.59 828.33,179.59 829.31,179.59 829.64,177.55 830.94,177.55 831.59,175.50 833.22,175.50 833.55,173.45 833.87,173.45 835.83,173.45 836.81,173.45 837.13,173.45 839.09,171.41 840.39,171.41 840.72,171.41 841.04,169.36 843.33,169.36 844.96,169.36 848.87,169.36 849.19,169.36 851.15,169.36 854.08,169.36 857.34,169.36 859.29,169.36 859.62,169.36 859.95,169.36 860.60,169.36 863.20,169.36 865.49,169.36 868.75,169.36 869.07,167.32 872.00,167.32 872.98,167.32 874.29,167.32 884.39,167.32 885.69,167.32 886.02,167.32 889.28,167.32 890.91,167.32 893.19,167.32 893.84,165.27 894.16,165.27 896.12,165.27 897.42,165.27 898.08,165.27 898.40,165.27 898.73,165.27 899.70,165.27 901.33,165.27 901.66,163.23 903.29,163.23 905.57,163.23 907.85,163.23 908.50,163.23 912.09,163.23 912.41,163.23 914.04,163.23 915.67,163.23 918.61,163.23 919.91,163.23 922.19,159.14 922.52,159.14 923.17,157.09 924.80,157.09 925.12,157.09 925.78,157.09 926.75,157.09 927.08,157.09 927.41,157.09 927.73,157.09 929.03,157.09 929.36,155.05 931.32,155.05 931.64,155.05 933.27,155.05 933.60,155.05 934.25,155.05 934.90,153.00 935.88,153.00 939.14,153.00 945.00,153.00 946.31,153.00 947.94,150.95 949.24,150.95 950.54,150.95 951.52,150.95 952.50,150.95 954.78,148.91 956.41,148.91 957.06,146.86 959.34,144.82 959.67,142.77 959.99,142.77 963.58,142.77 965.53,142.77 965.86,140.73 968.79,140.73 973.68,140.73 974.99,138.68 975.31,138.68 976.29,138.68 980.20,138.68 984.76,138.68 985.09,136.64 989.32,136.64 991.93,136.64 1004.64,136.64 1007.57,136.64 1008.55,136.64 1010.18,136.64 1010.51,136.64 1016.37,136.64 1018.98,136.64 1024.19,136.64 1025.82,136.64 1028.11,136.64 1034.70,124.36 1036.00,124.36"/>
<circle cx="90.00" cy="468.00" r="3.8" fill="#ffb50c" stroke="#111827" stroke-width="1"/>
<circle cx="192.20" cy="459.82" r="3.8" fill="#ffb50c" stroke="#111827" stroke-width="1"/>
<circle cx="243.69" cy="441.41" r="3.8" fill="#ffb50c" stroke="#111827" stroke-width="1"/>
<circle cx="281.17" cy="429.14" r="3.8" fill="#ffb50c" stroke="#111827" stroke-width="1"/>
<circle cx="317.99" cy="414.82" r="3.8" fill="#ffb50c" stroke="#111827" stroke-width="1"/>
<circle cx="347.32" cy="396.41" r="3.8" fill="#ffb50c" stroke="#111827" stroke-width="1"/>
<circle cx="391.32" cy="384.14" r="3.8" fill="#ffb50c" stroke="#111827" stroke-width="1"/>
<circle cx="423.25" cy="378.00" r="3.8" fill="#ffb50c" stroke="#111827" stroke-width="1"/>
<circle cx="447.37" cy="365.73" r="3.8" fill="#ffb50c" stroke="#111827" stroke-width="1"/>
<circle cx="479.31" cy="347.32" r="3.8" fill="#ffb50c" stroke="#111827" stroke-width="1"/>
<circle cx="498.53" cy="330.95" r="3.8" fill="#ffb50c" stroke="#111827" stroke-width="1"/>
<circle cx="523.63" cy="316.64" r="3.8" fill="#ffb50c" stroke="#111827" stroke-width="1"/>
<circle cx="551.65" cy="310.50" r="3.8" fill="#ffb50c" stroke="#111827" stroke-width="1"/>
<circle cx="580.01" cy="300.27" r="3.8" fill="#ffb50c" stroke="#111827" stroke-width="1"/>
<circle cx="608.68" cy="290.05" r="3.8" fill="#ffb50c" stroke="#111827" stroke-width="1"/>
<circle cx="637.69" cy="279.82" r="3.8" fill="#ffb50c" stroke="#111827" stroke-width="1"/>
<circle cx="671.26" cy="257.32" r="3.8" fill="#ffb50c" stroke="#111827" stroke-width="1"/>
<circle cx="698.96" cy="232.77" r="3.8" fill="#ffb50c" stroke="#111827" stroke-width="1"/>
<circle cx="723.72" cy="220.50" r="3.8" fill="#ffb50c" stroke="#111827" stroke-width="1"/>
<circle cx="769.67" cy="200.05" r="3.8" fill="#ffb50c" stroke="#111827" stroke-width="1"/>
<circle cx="808.13" cy="185.73" r="3.8" fill="#ffb50c" stroke="#111827" stroke-width="1"/>
<circle cx="840.39" cy="171.41" r="3.8" fill="#ffb50c" stroke="#111827" stroke-width="1"/>
<circle cx="896.12" cy="165.27" r="3.8" fill="#ffb50c" stroke="#111827" stroke-width="1"/>
<circle cx="929.36" cy="155.05" r="3.8" fill="#ffb50c" stroke="#111827" stroke-width="1"/>
<circle cx="976.29" cy="138.68" r="3.8" fill="#ffb50c" stroke="#111827" stroke-width="1"/>
<circle cx="1036.00" cy="124.36" r="3.8" fill="#ffb50c" stroke="#111827" stroke-width="1"/>
<text x="1028.0" y="114.4" text-anchor="end" fill="#ffb50c" font-size="12" font-family="-apple-system,BlinkMacSystemFont,Segoe UI,Helvetica,Arial,sans-serif">168</text>
<rect x="90" y="514" width="14" height="14" fill="url(#repo-0)" rx="3"/>
<text x="112" y="526" fill="#3bf2af" font-size="13" font-family="-apple-system,BlinkMacSystemFont,Segoe UI,Helvetica,Arial,sans-serif">bavix/gripmock</text>
<rect x="280" y="514" width="14" height="14" fill="url(#repo-1)" rx="3"/>
<text x="302" y="526" fill="#ffb50c" font-size="13" font-family="-apple-system,BlinkMacSystemFont,Segoe UI,Helvetica,Arial,sans-serif">tokopedia/gripmock</text>
<text x="1036" y="526" text-anchor="end" fill="#9ca3af" font-size="12" font-family="-apple-system,BlinkMacSystemFont,Segoe UI,Helvetica,Arial,sans-serif">Source: https://github.com/bavix/artifact-stats/blob/master/stats/github.csv</text>
</svg>