<svg xmlns="http://www.w3.org/2000/svg" width="1100" height="560" viewBox="0 0 1100 560">
<defs>
<linearGradient id="bg" x1="0" y1="0" x2="1" y2="1"><stop offset="0%" stop-color="#0b1220"/><stop offset="100%" stop-color="#111827"/></linearGradient>
<linearGradient id="repo-0" x1="0" y1="0" x2="0" y2="1"><stop offset="0%" stop-color="#34d399"/><stop offset="100%" stop-color="#059669"/></linearGradient>
<linearGradient id="repo-1" x1="0" y1="0" x2="0" y2="1"><stop offset="0%" stop-color="#f59e0b"/><stop offset="100%" stop-color="#d97706"/></linearGradient>
</defs>
<rect x="0" y="0" width="1100" height="560" fill="url(#bg)" rx="16"/>
<text x="90" y="44" fill="#f9fafb" font-size="28" font-family="-apple-system,BlinkMacSystemFont,Segoe UI,Helvetica,Arial,sans-serif" font-weight="700">GripMock GitHub Metrics - Forks</text>
<text x="90" y="70" fill="#9ca3af" font-size="16" font-family="-apple-system,BlinkMacSystemFont,Segoe UI,Helvetica,Arial,sans-serif">GitHub forks by snapshot date</text>
<line x1="90" y1="90.0" x2="1036" y2="90.0" stroke="#1f2937" stroke-width="1"/>
<text x="80" y="95.0" text-anchor="end" fill="#9ca3af" font-size="12" font-family="-apple-system,BlinkMacSystemFont,Segoe UI,Helvetica,Arial,sans-serif">185</text>
<line x1="90" y1="153.0" x2="1036" y2="153.0" stroke="#1f2937" stroke-width="1"/>
<text x="80" y="158.0" text-anchor="end" fill="#9ca3af" font-size="12" font-family="-apple-system,BlinkMacSystemFont,Segoe UI,Helvetica,Arial,sans-serif">154</text>
<line x1="90" y1="216.0" x2="1036" y2="216.0" stroke="#1f2937" stroke-width="1"/>
<text x="80" y="221.0" text-anchor="end" fill="#9ca3af" font-size="12" font-family="-apple-system,BlinkMacSystemFont,Segoe UI,Helvetica,Arial,sans-serif">123</text>
<line x1="90" y1="279.0" x2="1036" y2="279.0" stroke="#1f2937" stroke-width="1"/>
<text x="80" y="284.0" text-anchor="end" fill="#9ca3af" font-size="12" font-family="-apple-system,BlinkMacSystemFont,Segoe UI,Helvetica,Arial,sans-serif">92</text>
<line x1="90" y1="342.0" x2="1036" y2="342.0" stroke="#1f2937" stroke-width="1"/>
<text x="80" y="347.0" text-anchor="end" fill="#9ca3af" font-size="12" font-family="-apple-system,BlinkMacSystemFont,Segoe UI,Helvetica,Arial,sans-serif">62</text>
<line x1="90" y1="405.0" x2="1036" y2="405.0" stroke="#1f2937" stroke-width="1"/>
<text x="80" y="410.0" text-anchor="end" fill="#9ca3af" font-size="12" font-family="-apple-system,BlinkMacSystemFont,Segoe UI,Helvetica,Arial,sans-serif">31</text>
<line x1="90" y1="468.0" x2="1036" y2="468.0" stroke="#1f2937" stroke-width="1"/>
<text x="80" y="473.0" text-anchor="end" fill="#9ca3af" font-size="12" font-family="-apple-system,BlinkMacSystemFont,Segoe UI,Helvetica,Arial,sans-serif">0</text>
<line x1="90" y1="468" x2="1036" y2="468" stroke="#4b5563" stroke-width="1.4"/>
<line x1="90" y1="90" x2="90" y2="468" stroke="#4b5563" stroke-width="1.4"/>
<line x1="90.0" y1="468" x2="90.0" y2="474" stroke="#6b7280" stroke-width="1"/>
<text x="90.0" y="494" text-anchor="start" fill="#9ca3af" font-size="12" font-family="-apple-system,BlinkMacSystemFont,Segoe UI,Helvetica,Arial,sans-serif">2018-04-24</text>
<line x1="279.2" y1="468" x2="279.2" y2="474" stroke="#6b7280" stroke-width="1"/>
<text x="279.2" y="494" text-anchor="middle" fill="#9ca3af" font-size="12" font-family="-apple-system,BlinkMacSystemFont,Segoe UI,Helvetica,Arial,sans-serif">2019-11-26</text>
<line x1="468.4" y1="468" x2="468.4" y2="474" stroke="#6b7280" stroke-width="1"/>
<text x="468.4" y="494" text-anchor="middle" fill="#9ca3af" font-size="12" font-family="-apple-system,BlinkMacSystemFont,Segoe UI,Helvetica,Arial,sans-serif">2021-06-29</text>
<line x1="657.6" y1="468" x2="657.6" y2="474" stroke="#6b7280" stroke-width="1"/>
<text x="657.6" y="494" text-anchor="middle" fill="#9ca3af" font-size="12" font-family="-apple-system,BlinkMacSystemFont,Segoe UI,Helvetica,Arial,sans-serif">2023-01-31</text>
<line x1="846.8" y1="468" x2="846.8" y2="474" stroke="#6b7280" stroke-width="1"/>
<text x="846.8" y="494" text-anchor="middle" fill="#9ca3af" font-size="12" font-family="-apple-system,BlinkMacSystemFont,Segoe UI,Helvetica,Arial,sans-serif">2024-09-04</text>
<line x1="1036.0" y1="468" x2="1036.0" y2="474" stroke="#6b7280" stroke-width="1"/>
<text x="1036.0" y="494" text-anchor="end" fill="#9ca3af" font-size="12" font-family="-apple-system,BlinkMacSystemFont,Segoe UI,Helvetica,Arial,sans-serif">2026-04-08</text>
<polyline fill="none" stroke="url(#repo-0)" stroke-width="4" stroke-linecap="round" stroke-linejoin="round" points="721.57,468.00 728.28,468.00 741.30,468.00 754.97,468.00 756.93,468.00 760.18,468.00 771.90,468.00 774.18,468.00 779.72,468.00 780.04,468.00 784.92,468.00 792.74,468.00 805.11,468.00 808.36,468.00 812.60,468.00 816.18,468.00 831.15,468.00 835.71,468.00 836.36,468.00 837.66,468.00 843.85,468.00 857.52,468.00 860.45,468.00 867.29,468.00 872.82,468.00 873.48,468.00 874.13,468.00 894.31,468.00 896.92,468.00 897.57,468.00 903.75,468.00 904.40,468.00 908.31,465.95 909.61,465.95 909.94,465.95 910.26,465.95 913.19,463.91 914.82,463.91 916.45,463.91 921.66,461.86 926.22,459.82 927.84,459.82 928.49,457.77 935.33,457.77 939.24,457.77 950.96,457.77 953.24,457.77 953.89,455.73 955.84,455.73 957.79,455.73 960.72,453.68 965.93,453.68 972.77,453.68 977.00,453.68 988.40,453.68 990.67,453.68 995.56,453.68 995.88,453.68 996.86,453.68 999.46,453.68 999.79,451.64 1008.58,451.64 1015.42,451.64 1016.07,451.64 1018.35,451.64 1024.86,451.64 1027.14,451.64 1028.76,451.64 1030.39,451.64 1033.73,451.64 1034.69,451.64 1035.02,451.64 1035.67,451.64 1036.00,451.64"/>
<circle cx="721.57" cy="468.00" r="3.8" fill="#3bf2af" stroke="#111827" stroke-width="1"/>
<circle cx="754.97" cy="468.00" r="3.8" fill="#3bf2af" stroke="#111827" stroke-width="1"/>
<circle cx="771.90" cy="468.00" r="3.8" fill="#3bf2af" stroke="#111827" stroke-width="1"/>
<circle cx="780.04" cy="468.00" r="3.8" fill="#3bf2af" stroke="#111827" stroke-width="1"/>
<circle cx="805.11" cy="468.00" r="3.8" fill="#3bf2af" stroke="#111827" stroke-width="1"/>
<circle cx="816.18" cy="468.00" r="3.8" fill="#3bf2af" stroke="#111827" stroke-width="1"/>
<circle cx="836.36" cy="468.00" r="3.8" fill="#3bf2af" stroke="#111827" stroke-width="1"/>
<circle cx="857.52" cy="468.00" r="3.8" fill="#3bf2af" stroke="#111827" stroke-width="1"/>
<circle cx="872.82" cy="468.00" r="3.8" fill="#3bf2af" stroke="#111827" stroke-width="1"/>
<circle cx="894.31" cy="468.00" r="3.8" fill="#3bf2af" stroke="#111827" stroke-width="1"/>
<circle cx="903.75" cy="468.00" r="3.8" fill="#3bf2af" stroke="#111827" stroke-width="1"/>
<circle cx="909.61" cy="465.95" r="3.8" fill="#3bf2af" stroke="#111827" stroke-width="1"/>
<circle cx="913.19" cy="463.91" r="3.8" fill="#3bf2af" stroke="#111827" stroke-width="1"/>
<circle cx="921.66" cy="461.86" r="3.8" fill="#3bf2af" stroke="#111827" stroke-width="1"/>
<circle cx="928.49" cy="457.77" r="3.8" fill="#3bf2af" stroke="#111827" stroke-width="1"/>
<circle cx="950.96" cy="457.77" r="3.8" fill="#3bf2af" stroke="#111827" stroke-width="1"/>
<circle cx="955.84" cy="455.73" r="3.8" fill="#3bf2af" stroke="#111827" stroke-width="1"/>
<circle cx="965.93" cy="453.68" r="3.8" fill="#3bf2af" stroke="#111827" stroke-width="1"/>
<circle cx="988.40" cy="453.68" r="3.8" fill="#3bf2af" stroke="#111827" stroke-width="1"/>
<circle cx="995.88" cy="453.68" r="3.8" fill="#3bf2af" stroke="#111827" stroke-width="1"/>
<circle cx="999.79" cy="451.64" r="3.8" fill="#3bf2af" stroke="#111827" stroke-width="1"/>
<circle cx="1016.07" cy="451.64" r="3.8" fill="#3bf2af" stroke="#111827" stroke-width="1"/>
<circle cx="1027.14" cy="451.64" r="3.8" fill="#3bf2af" stroke="#111827" stroke-width="1"/>
<circle cx="1033.73" cy="451.64" r="3.8" fill="#3bf2af" stroke="#111827" stroke-width="1"/>
<circle cx="1035.67" cy="451.64" r="3.8" fill="#3bf2af" stroke="#111827" stroke-width="1"/>
<circle cx="1036.00" cy="451.64" r="3.8" fill="#3bf2af" stroke="#111827" stroke-width="1"/>
<text x="1028.0" y="441.6" text-anchor="end" fill="#3bf2af" font-size="12" font-family="-apple-system,BlinkMacSystemFont,Segoe UI,Helvetica,Arial,sans-serif">8</text>
<polyline fill="none" stroke="url(#repo-1)" stroke-width="4" stroke-linecap="round" stroke-linejoin="round" points="90.00,468.00 91.82,468.00 92.47,468.00 96.05,468.00 99.64,468.00 136.75,468.00 137.72,465.95 143.58,463.91 149.44,463.91 154.00,461.86 157.58,461.86 158.23,461.86 158.56,461.86 158.89,461.86 160.51,461.86 161.16,461.86 165.40,459.82 165.72,459.82 169.63,459.82 170.61,459.82 170.93,459.82 172.56,459.82 174.19,459.82 176.14,459.82 177.12,459.82 182.33,459.82 184.93,459.82 186.56,459.82 186.88,459.82 192.09,459.82 192.42,459.82 193.07,457.77 196.32,457.77 196.98,457.77 197.30,455.73 197.63,453.68 203.49,453.68 205.11,451.64 211.30,451.64 212.60,451.64 213.25,449.59 215.86,447.55 218.79,447.55 222.69,445.50 223.02,445.50 225.30,445.50 227.58,445.50 230.83,445.50 231.81,445.50 234.09,445.50 236.37,445.50 238.32,445.50 238.65,445.50 238.97,445.50 241.58,445.50 242.23,445.50 242.88,445.50 243.20,443.45 243.53,441.41 243.86,441.41 246.46,441.41 247.11,441.41 249.72,439.36 255.25,439.36 255.90,437.32 256.23,437.32 256.55,437.32 257.20,433.23 258.51,433.23 258.83,433.23 260.78,433.23 261.11,433.23 263.39,433.23 264.37,433.23 265.02,433.23 265.99,431.18 267.62,431.18 267.95,429.14 268.92,429.14 271.85,429.14 275.43,429.14 276.41,429.14 277.39,429.14 277.71,429.14 279.01,429.14 279.34,429.14 279.99,429.14 280.97,429.14 282.60,429.14 283.25,429.14 283.57,429.14 283.90,429.14 285.53,429.14 286.50,429.14 287.15,429.14 288.46,427.09 288.78,425.05 290.41,425.05 293.99,425.05 295.94,425.05 297.57,423.00 297.90,423.00 300.18,423.00 301.80,423.00 302.13,420.95 304.08,420.95 304.41,420.95 305.06,418.91 306.04,416.86 306.36,416.86 306.69,416.86 307.01,416.86 311.57,414.82 315.48,414.82 315.80,414.82 316.45,414.82 317.76,414.82 318.08,414.82 319.71,412.77 320.36,410.73 320.69,410.73 321.01,410.73 321.34,410.73 322.96,410.73 326.22,408.68 327.52,408.68 327.85,406.64 328.50,406.64 328.82,404.59 329.48,402.55 330.13,402.55 330.78,400.50 332.08,398.45 332.73,398.45 334.68,398.45 335.01,398.45 336.31,398.45 338.27,398.45 339.57,398.45 340.87,396.41 341.20,396.41 341.85,396.41 342.82,396.41 343.80,396.41 345.43,396.41 347.06,396.41 348.68,396.41 351.61,394.36 354.22,394.36 354.54,394.36 354.87,394.36 359.75,394.36 360.73,394.36 361.71,394.36 362.03,394.36 363.01,394.36 365.29,394.36 365.61,394.36 367.24,394.36 369.19,392.32 372.45,392.32 373.43,392.32 374.40,392.32 375.70,392.32 376.36,392.32 376.68,392.32 377.33,390.27 378.96,390.27 380.26,390.27 384.49,388.23 386.12,388.23 387.10,388.23 390.03,386.18 390.68,384.14 391.01,384.14 391.33,384.14 392.96,384.14 393.94,384.14 395.24,384.14 395.56,384.14 396.21,384.14 398.49,384.14 398.82,384.14 399.47,384.14 401.75,384.14 402.40,384.14 403.70,384.14 404.68,382.09 405.00,382.09 405.33,382.09 409.24,382.09 409.89,382.09 411.19,382.09 411.52,382.09 412.82,382.09 414.12,382.09 414.45,382.09 414.77,382.09 416.40,382.09 417.05,382.09 418.68,380.05 419.98,378.00 420.96,378.00 422.91,378.00 424.21,378.00 425.84,378.00 426.17,378.00 426.82,378.00 427.47,378.00 428.12,378.00 428.44,375.95 429.42,373.91 429.75,373.91 430.07,373.91 430.40,371.86 432.03,371.86 432.68,369.82 433.98,369.82 434.63,369.82 435.61,369.82 436.26,369.82 437.23,369.82 438.54,369.82 439.84,367.77 441.14,365.73 441.47,365.73 443.09,365.73 443.42,365.73 444.07,365.73 444.40,365.73 445.05,365.73 445.37,365.73 447.00,365.73 448.30,365.73 449.93,363.68 454.49,363.68 454.81,363.68 455.14,361.64 455.46,361.64 456.44,357.55 456.77,357.55 457.09,357.55 457.42,357.55 458.72,355.50 459.37,355.50 459.70,355.50 460.67,353.45 461.00,351.41 461.65,351.41 463.60,351.41 463.93,351.41 464.25,351.41 465.56,351.41 467.84,351.41 468.16,351.41 468.81,351.41 471.09,351.41 472.72,351.41 474.35,349.36 477.28,347.32 478.58,347.32 478.90,347.32 479.23,345.27 479.88,345.27 480.21,343.23 480.53,343.23 481.51,343.23 481.83,343.23 482.81,343.23 484.44,343.23 484.76,339.14 485.09,339.14 485.42,339.14 485.74,339.14 486.07,339.14 486.39,339.14 487.04,339.14 487.37,339.14 487.69,335.05 488.67,335.05 489.32,335.05 489.97,335.05 491.28,335.05 492.58,335.05 492.90,335.05 493.23,333.00 493.55,330.95 495.18,330.95 496.48,330.95 496.81,330.95 498.11,330.95 498.44,330.95 498.76,328.91 502.02,328.91 502.34,328.91 503.00,328.91 504.62,328.91 505.27,328.91 505.93,328.91 507.23,326.86 507.88,326.86 508.20,324.82 508.53,324.82 508.86,322.77 510.16,322.77 510.48,322.77 511.13,322.77 511.46,322.77 512.44,322.77 512.76,322.77 514.06,322.77 516.99,322.77 517.97,322.77 518.95,322.77 519.27,320.73 519.60,320.73 519.92,318.68 520.25,318.68 520.90,318.68 523.18,316.64 524.48,316.64 524.81,316.64 525.13,316.64 526.11,316.64 527.41,314.59 528.71,314.59 530.34,314.59 530.67,314.59 534.25,314.59 535.88,314.59 536.53,314.59 537.18,314.59 539.78,314.59 540.43,314.59 540.76,314.59 541.74,314.59 542.39,314.59 543.04,312.55 543.69,312.55 544.34,312.55 545.64,312.55 545.97,312.55 546.29,312.55 547.92,310.50 548.57,310.50 548.90,310.50 549.88,310.50 550.53,310.50 551.18,310.50 552.81,310.50 553.13,308.45 553.46,308.45 554.43,308.45 555.08,306.41 555.74,306.41 557.36,306.41 560.29,306.41 560.62,306.41 561.92,306.41 562.25,306.41 563.55,306.41 563.87,306.41 564.20,304.36 564.85,304.36 565.83,304.36 566.15,304.36 566.48,304.36 567.13,304.36 568.43,304.36 569.41,302.32 569.73,302.32 573.97,302.32 574.29,302.32 575.27,302.32 575.92,302.32 578.20,302.32 579.18,300.27 579.50,300.27 579.83,300.27 582.43,300.27 582.76,300.27 583.08,300.27 584.06,300.27 584.38,300.27 585.04,300.27 587.31,300.27 587.97,300.27 588.62,296.18 589.59,296.18 589.92,296.18 590.90,296.18 596.43,296.18 597.73,296.18 598.06,296.18 599.69,296.18 600.34,294.14 600.66,294.14 600.99,292.09 601.31,292.09 602.29,290.05 603.27,290.05 603.59,290.05 605.55,290.05 605.87,290.05 606.52,290.05 607.50,290.05 608.15,290.05 608.48,290.05 609.78,290.05 610.43,288.00 611.08,288.00 612.06,288.00 612.38,288.00 616.61,288.00 617.59,285.95 618.57,285.95 618.89,285.95 620.52,285.95 620.85,285.95 621.17,285.95 621.50,285.95 622.80,285.95 623.78,285.95 626.05,285.95 627.03,285.95 627.36,285.95 628.01,283.91 628.66,283.91 630.61,283.91 630.94,283.91 634.19,283.91 634.52,283.91 635.50,283.91 635.82,283.91 636.80,283.91 637.12,279.82 637.45,279.82 639.08,279.82 639.40,279.82 640.38,279.82 642.01,279.82 643.31,279.82 644.29,277.77 647.87,275.73 648.19,273.68 650.15,271.64 650.80,271.64 651.45,269.59 652.75,267.55 653.08,265.50 655.68,265.50 658.61,265.50 659.26,265.50 659.59,263.45 659.91,263.45 662.84,261.41 664.14,259.36 664.47,259.36 664.80,259.36 665.45,257.32 666.75,257.32 667.07,257.32 667.73,257.32 669.03,257.32 670.66,257.32 670.98,255.27 671.63,255.27 671.96,255.27 672.28,253.23 672.61,253.23 672.93,253.23 673.59,253.23 677.49,253.23 679.77,251.18 682.05,249.14 683.03,247.09 683.35,245.05 683.68,245.05 684.65,243.00 684.98,243.00 687.26,240.95 687.58,240.95 688.89,238.91 689.21,238.91 689.54,238.91 690.84,238.91 691.82,236.86 693.12,236.86 694.10,234.82 694.42,232.77 696.37,232.77 697.03,232.77 698.00,232.77 698.33,232.77 698.98,232.77 700.93,230.73 701.58,228.68 702.23,228.68 702.56,228.68 703.21,228.68 703.54,228.68 704.51,228.68 704.84,228.68 705.49,228.68 706.79,228.68 707.12,228.68 707.77,228.68 708.42,228.68 709.72,228.68 710.05,226.64 711.35,226.64 712.65,226.64 714.28,224.59 715.26,224.59 715.58,224.59 717.21,222.55 717.54,222.55 718.84,222.55 719.81,222.55 720.47,220.50 721.44,220.50 722.74,220.50 723.07,220.50 723.72,220.50 726.33,220.50 728.28,218.45 730.56,218.45 734.14,218.45 734.46,216.41 734.79,216.41 736.74,216.41 737.39,216.41 737.72,216.41 738.05,214.36 739.02,214.36 739.35,212.32 740.00,212.32 742.60,212.32 744.23,212.32 744.88,210.27 746.51,208.23 747.81,208.23 750.74,206.18 752.04,204.14 754.00,204.14 759.86,202.09 762.14,200.05 762.79,200.05 765.72,200.05 766.37,200.05 767.02,200.05 768.97,200.05 769.62,200.05 770.28,200.05 770.60,198.00 770.93,198.00 773.53,198.00 776.46,198.00 778.09,198.00 780.04,198.00 782.97,195.95 785.58,195.95 786.88,195.95 787.53,195.95 788.83,195.95 790.46,195.95 791.11,195.95 791.76,195.95 793.71,195.95 795.02,195.95 795.34,195.95 798.27,193.91 798.60,193.91 798.92,191.86 799.57,191.86 800.55,189.82 801.85,189.82 803.81,189.82 804.13,189.82 805.11,187.77 807.39,185.73 809.67,185.73 811.62,185.73 814.22,185.73 814.88,185.73 815.20,185.73 816.18,183.68 816.50,183.68 816.83,183.68 817.48,183.68 818.78,181.64 821.06,181.64 821.39,179.59 822.36,179.59 824.32,179.59 825.94,179.59 826.27,179.59 827.57,179.59 828.55,179.59 828.87,177.55 830.18,177.55 830.83,175.50 832.46,175.50 832.78,173.45 833.11,173.45 835.06,173.45 836.04,173.45 836.36,173.45 838.32,171.41 839.62,171.41 839.94,171.41 840.27,169.36 842.55,169.36 844.18,169.36 848.08,169.36 848.41,169.36 850.36,169.36 853.29,169.36 856.55,169.36 858.50,169.36 858.83,169.36 859.15,169.36 859.80,169.36 862.41,169.36 864.69,169.36 867.94,169.36 868.27,167.32 871.20,167.32 872.17,167.32 873.48,167.32 883.57,167.32 884.87,167.32 885.20,167.32 888.45,167.32 890.08,167.32 892.36,167.32 893.01,165.27 893.33,165.27 895.29,165.27 896.59,165.27 897.24,165.27 897.57,165.27 897.89,165.27 898.87,165.27 900.50,165.27 900.82,163.23 902.45,163.23 904.73,163.23 907.01,163.23 907.66,163.23 911.24,163.23 911.57,163.23 913.19,163.23 914.82,163.23 917.75,163.23 919.05,163.23 921.33,159.14 921.66,159.14 922.31,157.09 923.94,157.09 924.26,157.09 924.91,157.09 925.89,157.09 926.22,157.09 926.54,157.09 926.87,157.09 928.17,157.09 928.49,155.05 930.45,155.05 930.77,155.05 932.40,155.05 932.73,155.05 933.38,155.05 934.03,153.00 935.01,153.00 938.26,153.00 944.12,153.00 945.42,153.00 947.05,150.95 948.35,150.95 949.65,150.95 950.63,150.95 951.61,150.95 953.89,148.91 955.51,148.91 956.17,146.86 958.44,144.82 958.77,142.77 959.10,142.77 962.68,142.77 964.63,142.77 964.96,140.73 967.89,140.73 972.77,140.73 974.07,138.68 974.40,138.68 975.37,138.68 979.28,138.68 983.84,138.68 984.16,136.64 988.40,136.64 991.00,136.64 1003.70,136.64 1006.63,136.64 1007.60,136.64 1009.23,136.64 1009.56,136.64 1015.42,136.64 1018.02,136.64 1023.23,136.64 1024.86,136.64 1027.14,136.64 1033.73,124.36 1036.00,124.36"/>
<circle cx="90.00" cy="468.00" r="3.8" fill="#ffb50c" stroke="#111827" stroke-width="1"/>
<circle cx="192.09" cy="459.82" r="3.8" fill="#ffb50c" stroke="#111827" stroke-width="1"/>
<circle cx="243.53" cy="441.41" r="3.8" fill="#ffb50c" stroke="#111827" stroke-width="1"/>
<circle cx="280.97" cy="429.14" r="3.8" fill="#ffb50c" stroke="#111827" stroke-width="1"/>
<circle cx="317.76" cy="414.82" r="3.8" fill="#ffb50c" stroke="#111827" stroke-width="1"/>
<circle cx="347.06" cy="396.41" r="3.8" fill="#ffb50c" stroke="#111827" stroke-width="1"/>
<circle cx="391.01" cy="384.14" r="3.8" fill="#ffb50c" stroke="#111827" stroke-width="1"/>
<circle cx="422.91" cy="378.00" r="3.8" fill="#ffb50c" stroke="#111827" stroke-width="1"/>
<circle cx="447.00" cy="365.73" r="3.8" fill="#ffb50c" stroke="#111827" stroke-width="1"/>
<circle cx="478.90" cy="347.32" r="3.8" fill="#ffb50c" stroke="#111827" stroke-width="1"/>
<circle cx="498.11" cy="330.95" r="3.8" fill="#ffb50c" stroke="#111827" stroke-width="1"/>
<circle cx="523.18" cy="316.64" r="3.8" fill="#ffb50c" stroke="#111827" stroke-width="1"/>
<circle cx="551.18" cy="310.50" r="3.8" fill="#ffb50c" stroke="#111827" stroke-width="1"/>
<circle cx="579.50" cy="300.27" r="3.8" fill="#ffb50c" stroke="#111827" stroke-width="1"/>
<circle cx="608.15" cy="290.05" r="3.8" fill="#ffb50c" stroke="#111827" stroke-width="1"/>
<circle cx="637.12" cy="279.82" r="3.8" fill="#ffb50c" stroke="#111827" stroke-width="1"/>
<circle cx="670.66" cy="257.32" r="3.8" fill="#ffb50c" stroke="#111827" stroke-width="1"/>
<circle cx="698.33" cy="232.77" r="3.8" fill="#ffb50c" stroke="#111827" stroke-width="1"/>
<circle cx="723.07" cy="220.50" r="3.8" fill="#ffb50c" stroke="#111827" stroke-width="1"/>
<circle cx="768.97" cy="200.05" r="3.8" fill="#ffb50c" stroke="#111827" stroke-width="1"/>
<circle cx="807.39" cy="185.73" r="3.8" fill="#ffb50c" stroke="#111827" stroke-width="1"/>
<circle cx="839.62" cy="171.41" r="3.8" fill="#ffb50c" stroke="#111827" stroke-width="1"/>
<circle cx="895.29" cy="165.27" r="3.8" fill="#ffb50c" stroke="#111827" stroke-width="1"/>
<circle cx="928.49" cy="155.05" r="3.8" fill="#ffb50c" stroke="#111827" stroke-width="1"/>
<circle cx="975.37" cy="138.68" r="3.8" fill="#ffb50c" stroke="#111827" stroke-width="1"/>
<circle cx="1036.00" cy="124.36" r="3.8" fill="#ffb50c" stroke="#111827" stroke-width="1"/>
<text x="1028.0" y="114.4" text-anchor="end" fill="#ffb50c" font-size="12" font-family="-apple-system,BlinkMacSystemFont,Segoe UI,Helvetica,Arial,sans-serif">168</text>
<rect x="90" y="514" width="14" height="14" fill="url(#repo-0)" rx="3"/>
<text x="112" y="526" fill="#3bf2af" font-size="13" font-family="-apple-system,BlinkMacSystemFont,Segoe UI,Helvetica,Arial,sans-serif">bavix/gripmock</text>
<rect x="280" y="514" width="14" height="14" fill="url(#repo-1)" rx="3"/>
<text x="302" y="526" fill="#ffb50c" font-size="13" font-family="-apple-system,BlinkMacSystemFont,Segoe UI,Helvetica,Arial,sans-serif">tokopedia/gripmock</text>
<text x="1036" y="526" text-anchor="end" fill="#9ca3af" font-size="12" font-family="-apple-system,BlinkMacSystemFont,Segoe UI,Helvetica,Arial,sans-serif">Source: https://github.com/bavix/artifact-stats/blob/master/stats/github.csv</text>
</svg>