<svg xmlns="http://www.w3.org/2000/svg" width="1100" height="560" viewBox="0 0 1100 560">
<defs>
<linearGradient id="bg" x1="0" y1="0" x2="1" y2="1"><stop offset="0%" stop-color="#0b1220"/><stop offset="100%" stop-color="#111827"/></linearGradient>
<linearGradient id="repo-0" x1="0" y1="0" x2="0" y2="1"><stop offset="0%" stop-color="#34d399"/><stop offset="100%" stop-color="#059669"/></linearGradient>
<linearGradient id="repo-1" x1="0" y1="0" x2="0" y2="1"><stop offset="0%" stop-color="#f59e0b"/><stop offset="100%" stop-color="#d97706"/></linearGradient>
</defs>
<rect x="0" y="0" width="1100" height="560" fill="url(#bg)" rx="16"/>
<text x="90" y="44" fill="#f9fafb" font-size="28" font-family="-apple-system,BlinkMacSystemFont,Segoe UI,Helvetica,Arial,sans-serif" font-weight="700">GripMock GitHub Metrics - Forks</text>
<text x="90" y="70" fill="#9ca3af" font-size="16" font-family="-apple-system,BlinkMacSystemFont,Segoe UI,Helvetica,Arial,sans-serif">GitHub forks by snapshot date</text>
<line x1="90" y1="90.00" x2="1036" y2="90.00" stroke="#1f2937" stroke-width="1"/>
<text x="80" y="95.00" text-anchor="end" fill="#9ca3af" font-size="12" font-family="-apple-system,BlinkMacSystemFont,Segoe UI,Helvetica,Arial,sans-serif">185</text>
<line x1="90" y1="153.00" x2="1036" y2="153.00" stroke="#1f2937" stroke-width="1"/>
<text x="80" y="158.00" text-anchor="end" fill="#9ca3af" font-size="12" font-family="-apple-system,BlinkMacSystemFont,Segoe UI,Helvetica,Arial,sans-serif">154</text>
<line x1="90" y1="216.00" x2="1036" y2="216.00" stroke="#1f2937" stroke-width="1"/>
<text x="80" y="221.00" text-anchor="end" fill="#9ca3af" font-size="12" font-family="-apple-system,BlinkMacSystemFont,Segoe UI,Helvetica,Arial,sans-serif">123</text>
<line x1="90" y1="279.00" x2="1036" y2="279.00" stroke="#1f2937" stroke-width="1"/>
<text x="80" y="284.00" text-anchor="end" fill="#9ca3af" font-size="12" font-family="-apple-system,BlinkMacSystemFont,Segoe UI,Helvetica,Arial,sans-serif">92</text>
<line x1="90" y1="342.00" x2="1036" y2="342.00" stroke="#1f2937" stroke-width="1"/>
<text x="80" y="347.00" text-anchor="end" fill="#9ca3af" font-size="12" font-family="-apple-system,BlinkMacSystemFont,Segoe UI,Helvetica,Arial,sans-serif">62</text>
<line x1="90" y1="405.00" x2="1036" y2="405.00" stroke="#1f2937" stroke-width="1"/>
<text x="80" y="410.00" text-anchor="end" fill="#9ca3af" font-size="12" font-family="-apple-system,BlinkMacSystemFont,Segoe UI,Helvetica,Arial,sans-serif">31</text>
<line x1="90" y1="468.00" x2="1036" y2="468.00" stroke="#1f2937" stroke-width="1"/>
<text x="80" y="473.00" text-anchor="end" fill="#9ca3af" font-size="12" font-family="-apple-system,BlinkMacSystemFont,Segoe UI,Helvetica,Arial,sans-serif">0</text>
<line x1="90" y1="468" x2="1036" y2="468" stroke="#4b5563" stroke-width="1.4"/>
<line x1="90" y1="90" x2="90" y2="468" stroke="#4b5563" stroke-width="1.4"/>
<line x1="90.00" y1="468" x2="90.00" y2="474" stroke="#6b7280" stroke-width="1"/>
<text x="90.00" y="494" text-anchor="start" fill="#9ca3af" font-size="12" font-family="-apple-system,BlinkMacSystemFont,Segoe UI,Helvetica,Arial,sans-serif">2018-04-24</text>
<line x1="279.20" y1="468" x2="279.20" y2="474" stroke="#6b7280" stroke-width="1"/>
<text x="279.20" y="494" text-anchor="middle" fill="#9ca3af" font-size="12" font-family="-apple-system,BlinkMacSystemFont,Segoe UI,Helvetica,Arial,sans-serif">2019-11-30</text>
<line x1="468.40" y1="468" x2="468.40" y2="474" stroke="#6b7280" stroke-width="1"/>
<text x="468.40" y="494" text-anchor="middle" fill="#9ca3af" font-size="12" font-family="-apple-system,BlinkMacSystemFont,Segoe UI,Helvetica,Arial,sans-serif">2021-07-06</text>
<line x1="657.60" y1="468" x2="657.60" y2="474" stroke="#6b7280" stroke-width="1"/>
<text x="657.60" y="494" text-anchor="middle" fill="#9ca3af" font-size="12" font-family="-apple-system,BlinkMacSystemFont,Segoe UI,Helvetica,Arial,sans-serif">2023-02-11</text>
<line x1="846.80" y1="468" x2="846.80" y2="474" stroke="#6b7280" stroke-width="1"/>
<text x="846.80" y="494" text-anchor="middle" fill="#9ca3af" font-size="12" font-family="-apple-system,BlinkMacSystemFont,Segoe UI,Helvetica,Arial,sans-serif">2024-09-18</text>
<line x1="1036.00" y1="468" x2="1036.00" y2="474" stroke="#6b7280" stroke-width="1"/>
<text x="1036.00" y="494" text-anchor="end" fill="#9ca3af" font-size="12" font-family="-apple-system,BlinkMacSystemFont,Segoe UI,Helvetica,Arial,sans-serif">2026-04-26</text>
<polyline fill="none" stroke="url(#repo-0)" stroke-width="4" stroke-linecap="round" stroke-linejoin="round" points="717.68,468.00 724.34,468.00 737.29,468.00 750.88,468.00 752.82,468.00 756.05,468.00 767.70,468.00 769.96,468.00 775.46,468.00 775.79,468.00 780.64,468.00 788.41,468.00 800.70,468.00 803.94,468.00 808.14,468.00 811.70,468.00 826.59,468.00 831.12,468.00 831.76,468.00 833.06,468.00 839.20,468.00 852.79,468.00 855.70,468.00 862.50,468.00 868.00,468.00 868.65,468.00 869.29,468.00 889.35,468.00 891.94,468.00 892.59,468.00 898.74,468.00 899.38,468.00 903.27,465.95 904.56,465.95 904.88,465.95 905.21,465.95 908.12,463.91 909.74,463.91 911.35,463.91 916.53,461.86 921.06,459.82 922.68,459.82 923.33,457.77 930.12,457.77 934.00,457.77 945.65,457.77 947.92,457.77 948.56,455.73 950.50,455.73 952.45,455.73 955.36,453.68 960.53,453.68 967.33,453.68 971.53,453.68 982.86,453.68 985.12,453.68 989.98,453.68 990.30,453.68 991.27,453.68 993.86,453.68 994.18,451.64 1002.92,451.64 1009.71,451.64 1010.36,451.64 1012.62,451.64 1019.10,451.64 1021.36,451.64 1022.98,451.64 1024.60,451.64 1027.91,451.64 1028.87,451.64 1029.20,451.64 1029.85,451.64 1030.17,451.64 1030.49,451.64 1035.03,451.64 1035.35,451.64 1035.67,451.64 1036.00,451.64"/>
<circle cx="717.68" cy="468.00" r="3.8" fill="#3bf2af" stroke="#111827" stroke-width="1"/>
<circle cx="750.88" cy="468.00" r="3.8" fill="#3bf2af" stroke="#111827" stroke-width="1"/>
<circle cx="767.70" cy="468.00" r="3.8" fill="#3bf2af" stroke="#111827" stroke-width="1"/>
<circle cx="775.79" cy="468.00" r="3.8" fill="#3bf2af" stroke="#111827" stroke-width="1"/>
<circle cx="800.70" cy="468.00" r="3.8" fill="#3bf2af" stroke="#111827" stroke-width="1"/>
<circle cx="811.70" cy="468.00" r="3.8" fill="#3bf2af" stroke="#111827" stroke-width="1"/>
<circle cx="831.76" cy="468.00" r="3.8" fill="#3bf2af" stroke="#111827" stroke-width="1"/>
<circle cx="852.79" cy="468.00" r="3.8" fill="#3bf2af" stroke="#111827" stroke-width="1"/>
<circle cx="868.00" cy="468.00" r="3.8" fill="#3bf2af" stroke="#111827" stroke-width="1"/>
<circle cx="889.35" cy="468.00" r="3.8" fill="#3bf2af" stroke="#111827" stroke-width="1"/>
<circle cx="898.74" cy="468.00" r="3.8" fill="#3bf2af" stroke="#111827" stroke-width="1"/>
<circle cx="904.56" cy="465.95" r="3.8" fill="#3bf2af" stroke="#111827" stroke-width="1"/>
<circle cx="908.12" cy="463.91" r="3.8" fill="#3bf2af" stroke="#111827" stroke-width="1"/>
<circle cx="916.53" cy="461.86" r="3.8" fill="#3bf2af" stroke="#111827" stroke-width="1"/>
<circle cx="923.33" cy="457.77" r="3.8" fill="#3bf2af" stroke="#111827" stroke-width="1"/>
<circle cx="945.65" cy="457.77" r="3.8" fill="#3bf2af" stroke="#111827" stroke-width="1"/>
<circle cx="950.50" cy="455.73" r="3.8" fill="#3bf2af" stroke="#111827" stroke-width="1"/>
<circle cx="960.53" cy="453.68" r="3.8" fill="#3bf2af" stroke="#111827" stroke-width="1"/>
<circle cx="982.86" cy="453.68" r="3.8" fill="#3bf2af" stroke="#111827" stroke-width="1"/>
<circle cx="990.30" cy="453.68" r="3.8" fill="#3bf2af" stroke="#111827" stroke-width="1"/>
<circle cx="994.18" cy="451.64" r="3.8" fill="#3bf2af" stroke="#111827" stroke-width="1"/>
<circle cx="1010.36" cy="451.64" r="3.8" fill="#3bf2af" stroke="#111827" stroke-width="1"/>
<circle cx="1021.36" cy="451.64" r="3.8" fill="#3bf2af" stroke="#111827" stroke-width="1"/>
<circle cx="1027.91" cy="451.64" r="3.8" fill="#3bf2af" stroke="#111827" stroke-width="1"/>
<circle cx="1029.85" cy="451.64" r="3.8" fill="#3bf2af" stroke="#111827" stroke-width="1"/>
<circle cx="1035.03" cy="451.64" r="3.8" fill="#3bf2af" stroke="#111827" stroke-width="1"/>
<circle cx="1036.00" cy="451.64" r="3.8" fill="#3bf2af" stroke="#111827" stroke-width="1"/>
<text x="1028.00" y="441.64" text-anchor="end" fill="#3bf2af" font-size="12" font-family="-apple-system,BlinkMacSystemFont,Segoe UI,Helvetica,Arial,sans-serif">8</text>
<polyline fill="none" stroke="url(#repo-1)" stroke-width="4" stroke-linecap="round" stroke-linejoin="round" points="90.00,468.00 91.81,468.00 92.46,468.00 96.02,468.00 99.58,468.00 136.46,468.00 137.43,465.95 143.25,463.91 149.08,463.91 153.61,461.86 157.17,461.86 157.81,461.86 158.14,461.86 158.46,461.86 160.08,461.86 160.73,461.86 164.93,459.82 165.26,459.82 169.14,459.82 170.11,459.82 170.43,459.82 172.05,459.82 173.67,459.82 175.61,459.82 176.58,459.82 181.76,459.82 184.34,459.82 185.96,459.82 186.29,459.82 191.46,459.82 191.79,459.82 192.43,457.77 195.67,457.77 196.32,457.77 196.64,455.73 196.96,453.68 202.79,453.68 204.40,451.64 210.55,451.64 211.85,451.64 212.49,449.59 215.08,447.55 217.99,447.55 221.88,445.50 222.20,445.50 224.46,445.50 226.73,445.50 229.97,445.50 230.94,445.50 233.20,445.50 235.47,445.50 237.41,445.50 237.73,445.50 238.05,445.50 240.64,445.50 241.29,445.50 241.94,445.50 242.26,443.45 242.58,441.41 242.91,441.41 245.50,441.41 246.14,441.41 248.73,439.36 254.23,439.36 254.88,437.32 255.20,437.32 255.53,437.32 256.17,433.23 257.47,433.23 257.79,433.23 259.73,433.23 260.05,433.23 262.32,433.23 263.29,433.23 263.94,433.23 264.91,431.18 266.53,431.18 266.85,429.14 267.82,429.14 270.73,429.14 274.29,429.14 275.26,429.14 276.23,429.14 276.56,429.14 277.85,429.14 278.17,429.14 278.82,429.14 279.79,429.14 281.41,429.14 282.06,429.14 282.38,429.14 282.70,429.14 284.32,429.14 285.29,429.14 285.94,429.14 287.23,427.09 287.56,425.05 289.17,425.05 292.73,425.05 294.67,425.05 296.29,423.00 296.62,423.00 298.88,423.00 300.50,423.00 300.82,420.95 302.76,420.95 303.09,420.95 303.73,418.91 304.70,416.86 305.03,416.86 305.35,416.86 305.67,416.86 310.20,414.82 314.09,414.82 314.41,414.82 315.06,414.82 316.35,414.82 316.68,414.82 318.29,412.77 318.94,410.73 319.26,410.73 319.59,410.73 319.91,410.73 321.53,410.73 324.76,408.68 326.06,408.68 326.38,406.64 327.03,406.64 327.35,404.59 328.00,402.55 328.65,402.55 329.29,400.50 330.59,398.45 331.24,398.45 333.18,398.45 333.50,398.45 334.79,398.45 336.74,398.45 338.03,398.45 339.32,396.41 339.65,396.41 340.29,396.41 341.27,396.41 342.24,396.41 343.85,396.41 345.47,396.41 347.09,396.41 350.00,394.36 352.59,394.36 352.91,394.36 353.24,394.36 358.09,394.36 359.06,394.36 360.03,394.36 360.35,394.36 361.33,394.36 363.59,394.36 363.91,394.36 365.53,394.36 367.47,392.32 370.71,392.32 371.68,392.32 372.65,392.32 373.94,392.32 374.59,392.32 374.91,392.32 375.56,390.27 377.18,390.27 378.47,390.27 382.68,388.23 384.30,388.23 385.27,388.23 388.18,386.18 388.83,384.14 389.15,384.14 389.47,384.14 391.09,384.14 392.06,384.14 393.36,384.14 393.68,384.14 394.33,384.14 396.59,384.14 396.92,384.14 397.56,384.14 399.83,384.14 400.47,384.14 401.77,384.14 402.74,382.09 403.06,382.09 403.39,382.09 407.27,382.09 407.92,382.09 409.21,382.09 409.53,382.09 410.83,382.09 412.12,382.09 412.45,382.09 412.77,382.09 414.39,382.09 415.03,382.09 416.65,380.05 417.95,378.00 418.92,378.00 420.86,378.00 422.15,378.00 423.77,378.00 424.09,378.00 424.74,378.00 425.39,378.00 426.03,378.00 426.36,375.95 427.33,373.91 427.65,373.91 427.98,373.91 428.30,371.86 429.92,371.86 430.56,369.82 431.86,369.82 432.51,369.82 433.48,369.82 434.12,369.82 435.09,369.82 436.39,369.82 437.68,367.77 438.98,365.73 439.30,365.73 440.92,365.73 441.24,365.73 441.89,365.73 442.21,365.73 442.86,365.73 443.18,365.73 444.80,365.73 446.09,365.73 447.71,363.68 452.24,363.68 452.57,363.68 452.89,361.64 453.21,361.64 454.18,357.55 454.51,357.55 454.83,357.55 455.15,357.55 456.45,355.50 457.09,355.50 457.42,355.50 458.39,353.45 458.71,351.41 459.36,351.41 461.30,351.41 461.62,351.41 461.95,351.41 463.24,351.41 465.51,351.41 465.83,351.41 466.48,351.41 468.74,351.41 470.36,351.41 471.98,349.36 474.89,347.32 476.18,347.32 476.51,347.32 476.83,345.27 477.48,345.27 477.80,343.23 478.13,343.23 479.10,343.23 479.42,343.23 480.39,343.23 482.01,343.23 482.33,339.14 482.66,339.14 482.98,339.14 483.30,339.14 483.63,339.14 483.95,339.14 484.60,339.14 484.92,339.14 485.24,335.05 486.21,335.05 486.86,335.05 487.51,335.05 488.80,335.05 490.10,335.05 490.42,335.05 490.74,333.00 491.07,330.95 492.69,330.95 493.98,330.95 494.30,330.95 495.60,330.95 495.92,330.95 496.24,328.91 499.48,328.91 499.80,328.91 500.45,328.91 502.07,328.91 502.72,328.91 503.36,328.91 504.66,326.86 505.30,326.86 505.63,324.82 505.95,324.82 506.27,322.77 507.57,322.77 507.89,322.77 508.54,322.77 508.86,322.77 509.83,322.77 510.16,322.77 511.45,322.77 514.36,322.77 515.33,322.77 516.30,322.77 516.63,320.73 516.95,320.73 517.27,318.68 517.60,318.68 518.25,318.68 520.51,316.64 521.80,316.64 522.13,316.64 522.45,316.64 523.42,316.64 524.72,314.59 526.01,314.59 527.63,314.59 527.95,314.59 531.51,314.59 533.13,314.59 533.78,314.59 534.42,314.59 537.01,314.59 537.66,314.59 537.98,314.59 538.95,314.59 539.60,314.59 540.25,312.55 540.89,312.55 541.54,312.55 542.83,312.55 543.16,312.55 543.48,312.55 545.10,310.50 545.75,310.50 546.07,310.50 547.04,310.50 547.69,310.50 548.34,310.50 549.95,310.50 550.28,308.45 550.60,308.45 551.57,308.45 552.22,306.41 552.86,306.41 554.48,306.41 557.39,306.41 557.72,306.41 559.01,306.41 559.34,306.41 560.63,306.41 560.95,306.41 561.28,304.36 561.92,304.36 562.89,304.36 563.22,304.36 563.54,304.36 564.19,304.36 565.48,304.36 566.45,302.32 566.78,302.32 570.98,302.32 571.31,302.32 572.28,302.32 572.92,302.32 575.19,302.32 576.16,300.27 576.48,300.27 576.81,300.27 579.40,300.27 579.72,300.27 580.04,300.27 581.01,300.27 581.34,300.27 581.98,300.27 584.25,300.27 584.90,300.27 585.54,296.18 586.51,296.18 586.84,296.18 587.81,296.18 593.31,296.18 594.60,296.18 594.93,296.18 596.54,296.18 597.19,294.14 597.51,294.14 597.84,292.09 598.16,292.09 599.13,290.05 600.10,290.05 600.43,290.05 602.37,290.05 602.69,290.05 603.34,290.05 604.31,290.05 604.96,290.05 605.28,290.05 606.57,290.05 607.22,288.00 607.87,288.00 608.84,288.00 609.16,288.00 613.37,288.00 614.34,285.95 615.31,285.95 615.63,285.95 617.25,285.95 617.57,285.95 617.90,285.95 618.22,285.95 619.52,285.95 620.49,285.95 622.75,285.95 623.72,285.95 624.05,285.95 624.69,283.91 625.34,283.91 627.28,283.91 627.60,283.91 630.84,283.91 631.16,283.91 632.13,283.91 632.46,283.91 633.43,283.91 633.75,279.82 634.08,279.82 635.69,279.82 636.02,279.82 636.99,279.82 638.60,279.82 639.90,279.82 640.87,277.77 644.43,275.73 644.75,273.68 646.69,271.64 647.34,271.64 647.99,269.59 649.28,267.55 649.61,265.50 652.19,265.50 655.11,265.50 655.75,265.50 656.08,263.45 656.40,263.45 659.31,261.41 660.61,259.36 660.93,259.36 661.25,259.36 661.90,257.32 663.19,257.32 663.52,257.32 664.16,257.32 665.46,257.32 667.08,257.32 667.40,255.27 668.05,255.27 668.37,255.27 668.69,253.23 669.02,253.23 669.34,253.23 669.99,253.23 673.87,253.23 676.14,251.18 678.40,249.14 679.37,247.09 679.70,245.05 680.02,245.05 680.99,243.00 681.31,243.00 683.58,240.95 683.90,240.95 685.20,238.91 685.52,238.91 685.84,238.91 687.14,238.91 688.11,236.86 689.40,236.86 690.37,234.82 690.70,232.77 692.64,232.77 693.28,232.77 694.25,232.77 694.58,232.77 695.23,232.77 697.17,230.73 697.81,228.68 698.46,228.68 698.78,228.68 699.43,228.68 699.76,228.68 700.73,228.68 701.05,228.68 701.70,228.68 702.99,228.68 703.31,228.68 703.96,228.68 704.61,228.68 705.90,228.68 706.23,226.64 707.52,226.64 708.81,226.64 710.43,224.59 711.40,224.59 711.73,224.59 713.34,222.55 713.67,222.55 714.96,222.55 715.93,222.55 716.58,220.50 717.55,220.50 718.84,220.50 719.17,220.50 719.81,220.50 722.40,220.50 724.34,218.45 726.61,218.45 730.17,218.45 730.49,216.41 730.82,216.41 732.76,216.41 733.40,216.41 733.73,216.41 734.05,214.36 735.02,214.36 735.35,212.32 735.99,212.32 738.58,212.32 740.20,212.32 740.85,210.27 742.46,208.23 743.76,208.23 746.67,206.18 747.96,204.14 749.90,204.14 755.73,202.09 757.99,200.05 758.64,200.05 761.55,200.05 762.20,200.05 762.85,200.05 764.79,200.05 765.44,200.05 766.08,200.05 766.41,198.00 766.73,198.00 769.32,198.00 772.23,198.00 773.85,198.00 775.79,198.00 778.70,195.95 781.29,195.95 782.58,195.95 783.23,195.95 784.52,195.95 786.14,195.95 786.79,195.95 787.44,195.95 789.38,195.95 790.67,195.95 791.00,195.95 793.91,193.91 794.23,193.91 794.55,191.86 795.20,191.86 796.17,189.82 797.47,189.82 799.41,189.82 799.73,189.82 800.70,187.77 802.97,185.73 805.23,185.73 807.17,185.73 809.76,185.73 810.41,185.73 810.73,185.73 811.70,183.68 812.03,183.68 812.35,183.68 813.00,183.68 814.29,181.64 816.56,181.64 816.88,179.59 817.85,179.59 819.79,179.59 821.41,179.59 821.73,179.59 823.03,179.59 824.00,179.59 824.32,177.55 825.61,177.55 826.26,175.50 827.88,175.50 828.20,173.45 828.53,173.45 830.47,173.45 831.44,173.45 831.76,173.45 833.70,171.41 835.00,171.41 835.32,171.41 835.64,169.36 837.91,169.36 839.53,169.36 843.41,169.36 843.73,169.36 845.67,169.36 848.59,169.36 851.82,169.36 853.76,169.36 854.09,169.36 854.41,169.36 855.06,169.36 857.65,169.36 859.91,169.36 863.15,169.36 863.47,167.32 866.38,167.32 867.35,167.32 868.65,167.32 878.68,167.32 879.97,167.32 880.29,167.32 883.53,167.32 885.15,167.32 887.41,167.32 888.06,165.27 888.38,165.27 890.32,165.27 891.62,165.27 892.27,165.27 892.59,165.27 892.91,165.27 893.88,165.27 895.50,165.27 895.82,163.23 897.44,163.23 899.71,163.23 901.97,163.23 902.62,163.23 906.18,163.23 906.50,163.23 908.12,163.23 909.74,163.23 912.65,163.23 913.94,163.23 916.21,159.14 916.53,159.14 917.18,157.09 918.80,157.09 919.12,157.09 919.77,157.09 920.74,157.09 921.06,157.09 921.38,157.09 921.71,157.09 923.00,157.09 923.33,155.05 925.27,155.05 925.59,155.05 927.21,155.05 927.53,155.05 928.18,155.05 928.83,153.00 929.80,153.00 933.03,153.00 938.86,153.00 940.15,153.00 941.77,150.95 943.06,150.95 944.36,150.95 945.33,150.95 946.30,150.95 948.56,148.91 950.18,148.91 950.83,146.86 953.09,144.82 953.42,142.77 953.74,142.77 957.30,142.77 959.24,142.77 959.56,140.73 962.48,140.73 967.33,140.73 968.62,138.68 968.95,138.68 969.92,138.68 973.80,138.68 978.33,138.68 978.65,136.64 982.86,136.64 985.45,136.64 998.07,136.64 1000.98,136.64 1001.95,136.64 1003.57,136.64 1003.89,136.64 1009.71,136.64 1012.30,136.64 1017.48,136.64 1019.10,136.64 1021.36,136.64 1027.91,124.36 1030.82,124.36 1031.14,124.36 1031.80,124.36 1032.11,124.36 1033.08,124.36 1033.40,124.36 1034.70,124.36 1035.03,124.36 1036.00,124.36"/>
<circle cx="90.00" cy="468.00" r="3.8" fill="#ffb50c" stroke="#111827" stroke-width="1"/>
<circle cx="191.79" cy="459.82" r="3.8" fill="#ffb50c" stroke="#111827" stroke-width="1"/>
<circle cx="245.50" cy="441.41" r="3.8" fill="#ffb50c" stroke="#111827" stroke-width="1"/>
<circle cx="282.38" cy="429.14" r="3.8" fill="#ffb50c" stroke="#111827" stroke-width="1"/>
<circle cx="319.26" cy="410.73" r="3.8" fill="#ffb50c" stroke="#111827" stroke-width="1"/>
<circle cx="353.24" cy="394.36" r="3.8" fill="#ffb50c" stroke="#111827" stroke-width="1"/>
<circle cx="394.33" cy="384.14" r="3.8" fill="#ffb50c" stroke="#111827" stroke-width="1"/>
<circle cx="426.36" cy="375.95" r="3.8" fill="#ffb50c" stroke="#111827" stroke-width="1"/>
<circle cx="454.51" cy="357.55" r="3.8" fill="#ffb50c" stroke="#111827" stroke-width="1"/>
<circle cx="482.33" cy="339.14" r="3.8" fill="#ffb50c" stroke="#111827" stroke-width="1"/>
<circle cx="505.30" cy="326.86" r="3.8" fill="#ffb50c" stroke="#111827" stroke-width="1"/>
<circle cx="533.78" cy="314.59" r="3.8" fill="#ffb50c" stroke="#111827" stroke-width="1"/>
<circle cx="560.63" cy="306.41" r="3.8" fill="#ffb50c" stroke="#111827" stroke-width="1"/>
<circle cx="587.81" cy="296.18" r="3.8" fill="#ffb50c" stroke="#111827" stroke-width="1"/>
<circle cx="618.22" cy="285.95" r="3.8" fill="#ffb50c" stroke="#111827" stroke-width="1"/>
<circle cx="652.19" cy="265.50" r="3.8" fill="#ffb50c" stroke="#111827" stroke-width="1"/>
<circle cx="683.58" cy="240.95" r="3.8" fill="#ffb50c" stroke="#111827" stroke-width="1"/>
<circle cx="707.52" cy="226.64" r="3.8" fill="#ffb50c" stroke="#111827" stroke-width="1"/>
<circle cx="742.46" cy="208.23" r="3.8" fill="#ffb50c" stroke="#111827" stroke-width="1"/>
<circle cx="791.00" cy="195.95" r="3.8" fill="#ffb50c" stroke="#111827" stroke-width="1"/>
<circle cx="825.61" cy="177.55" r="3.8" fill="#ffb50c" stroke="#111827" stroke-width="1"/>
<circle cx="878.68" cy="167.32" r="3.8" fill="#ffb50c" stroke="#111827" stroke-width="1"/>
<circle cx="919.12" cy="157.09" r="3.8" fill="#ffb50c" stroke="#111827" stroke-width="1"/>
<circle cx="959.24" cy="142.77" r="3.8" fill="#ffb50c" stroke="#111827" stroke-width="1"/>
<circle cx="1035.03" cy="124.36" r="3.8" fill="#ffb50c" stroke="#111827" stroke-width="1"/>
<circle cx="1036.00" cy="124.36" r="3.8" fill="#ffb50c" stroke="#111827" stroke-width="1"/>
<text x="1028.00" y="114.36" text-anchor="end" fill="#ffb50c" font-size="12" font-family="-apple-system,BlinkMacSystemFont,Segoe UI,Helvetica,Arial,sans-serif">168</text>
<rect x="90.00" y="514.00" width="14" height="14" fill="url(#repo-0)" rx="3"/>
<text x="112.00" y="526.00" fill="#3bf2af" font-size="13" font-family="-apple-system,BlinkMacSystemFont,Segoe UI,Helvetica,Arial,sans-serif">bavix/gripmock</text>
<rect x="280.00" y="514.00" width="14" height="14" fill="url(#repo-1)" rx="3"/>
<text x="302.00" y="526.00" fill="#ffb50c" font-size="13" font-family="-apple-system,BlinkMacSystemFont,Segoe UI,Helvetica,Arial,sans-serif">tokopedia/gripmock</text>
<text x="1036.00" y="526.00" text-anchor="end" fill="#9ca3af" font-size="12" font-family="-apple-system,BlinkMacSystemFont,Segoe UI,Helvetica,Arial,sans-serif">Source: https://github.com/bavix/artifact-stats/blob/master/stats/github.csv</text>
</svg>