<svg xmlns="http://www.w3.org/2000/svg" width="1100" height="560" viewBox="0 0 1100 560">
<defs>
<linearGradient id="bg" x1="0" y1="0" x2="1" y2="1"><stop offset="0%" stop-color="#0b1220"/><stop offset="100%" stop-color="#111827"/></linearGradient>
<linearGradient id="repo-0" x1="0" y1="0" x2="0" y2="1"><stop offset="0%" stop-color="#34d399"/><stop offset="100%" stop-color="#059669"/></linearGradient>
<linearGradient id="repo-1" x1="0" y1="0" x2="0" y2="1"><stop offset="0%" stop-color="#f59e0b"/><stop offset="100%" stop-color="#d97706"/></linearGradient>
</defs>
<rect x="0" y="0" width="1100" height="560" fill="url(#bg)" rx="16"/>
<text x="90" y="44" fill="#f9fafb" font-size="28" font-family="-apple-system,BlinkMacSystemFont,Segoe UI,Helvetica,Arial,sans-serif" font-weight="700">GripMock GitHub Metrics - Forks</text>
<text x="90" y="70" fill="#9ca3af" font-size="16" font-family="-apple-system,BlinkMacSystemFont,Segoe UI,Helvetica,Arial,sans-serif">GitHub forks by snapshot date</text>
<line x1="90" y1="90.00" x2="1036" y2="90.00" stroke="#1f2937" stroke-width="1"/>
<text x="80" y="95.00" text-anchor="end" fill="#9ca3af" font-size="12" font-family="-apple-system,BlinkMacSystemFont,Segoe UI,Helvetica,Arial,sans-serif">185</text>
<line x1="90" y1="153.00" x2="1036" y2="153.00" stroke="#1f2937" stroke-width="1"/>
<text x="80" y="158.00" text-anchor="end" fill="#9ca3af" font-size="12" font-family="-apple-system,BlinkMacSystemFont,Segoe UI,Helvetica,Arial,sans-serif">154</text>
<line x1="90" y1="216.00" x2="1036" y2="216.00" stroke="#1f2937" stroke-width="1"/>
<text x="80" y="221.00" text-anchor="end" fill="#9ca3af" font-size="12" font-family="-apple-system,BlinkMacSystemFont,Segoe UI,Helvetica,Arial,sans-serif">123</text>
<line x1="90" y1="279.00" x2="1036" y2="279.00" stroke="#1f2937" stroke-width="1"/>
<text x="80" y="284.00" text-anchor="end" fill="#9ca3af" font-size="12" font-family="-apple-system,BlinkMacSystemFont,Segoe UI,Helvetica,Arial,sans-serif">92</text>
<line x1="90" y1="342.00" x2="1036" y2="342.00" stroke="#1f2937" stroke-width="1"/>
<text x="80" y="347.00" text-anchor="end" fill="#9ca3af" font-size="12" font-family="-apple-system,BlinkMacSystemFont,Segoe UI,Helvetica,Arial,sans-serif">62</text>
<line x1="90" y1="405.00" x2="1036" y2="405.00" stroke="#1f2937" stroke-width="1"/>
<text x="80" y="410.00" text-anchor="end" fill="#9ca3af" font-size="12" font-family="-apple-system,BlinkMacSystemFont,Segoe UI,Helvetica,Arial,sans-serif">31</text>
<line x1="90" y1="468.00" x2="1036" y2="468.00" stroke="#1f2937" stroke-width="1"/>
<text x="80" y="473.00" text-anchor="end" fill="#9ca3af" font-size="12" font-family="-apple-system,BlinkMacSystemFont,Segoe UI,Helvetica,Arial,sans-serif">0</text>
<line x1="90" y1="468" x2="1036" y2="468" stroke="#4b5563" stroke-width="1.4"/>
<line x1="90" y1="90" x2="90" y2="468" stroke="#4b5563" stroke-width="1.4"/>
<line x1="90.00" y1="468" x2="90.00" y2="474" stroke="#6b7280" stroke-width="1"/>
<text x="90.00" y="494" text-anchor="start" fill="#9ca3af" font-size="12" font-family="-apple-system,BlinkMacSystemFont,Segoe UI,Helvetica,Arial,sans-serif">2018-04-24</text>
<line x1="279.20" y1="468" x2="279.20" y2="474" stroke="#6b7280" stroke-width="1"/>
<text x="279.20" y="494" text-anchor="middle" fill="#9ca3af" font-size="12" font-family="-apple-system,BlinkMacSystemFont,Segoe UI,Helvetica,Arial,sans-serif">2019-11-28</text>
<line x1="468.40" y1="468" x2="468.40" y2="474" stroke="#6b7280" stroke-width="1"/>
<text x="468.40" y="494" text-anchor="middle" fill="#9ca3af" font-size="12" font-family="-apple-system,BlinkMacSystemFont,Segoe UI,Helvetica,Arial,sans-serif">2021-07-04</text>
<line x1="657.60" y1="468" x2="657.60" y2="474" stroke="#6b7280" stroke-width="1"/>
<text x="657.60" y="494" text-anchor="middle" fill="#9ca3af" font-size="12" font-family="-apple-system,BlinkMacSystemFont,Segoe UI,Helvetica,Arial,sans-serif">2023-02-08</text>
<line x1="846.80" y1="468" x2="846.80" y2="474" stroke="#6b7280" stroke-width="1"/>
<text x="846.80" y="494" text-anchor="middle" fill="#9ca3af" font-size="12" font-family="-apple-system,BlinkMacSystemFont,Segoe UI,Helvetica,Arial,sans-serif">2024-09-13</text>
<line x1="1036.00" y1="468" x2="1036.00" y2="474" stroke="#6b7280" stroke-width="1"/>
<text x="1036.00" y="494" text-anchor="end" fill="#9ca3af" font-size="12" font-family="-apple-system,BlinkMacSystemFont,Segoe UI,Helvetica,Arial,sans-serif">2026-04-20</text>
<polyline fill="none" stroke="url(#repo-0)" stroke-width="4" stroke-linecap="round" stroke-linejoin="round" points="718.97,468.00 725.65,468.00 738.62,468.00 752.23,468.00 754.18,468.00 757.42,468.00 769.09,468.00 771.36,468.00 776.87,468.00 777.20,468.00 782.06,468.00 789.84,468.00 802.16,468.00 805.40,468.00 809.62,468.00 813.19,468.00 828.10,468.00 832.64,468.00 833.29,468.00 834.58,468.00 840.74,468.00 854.36,468.00 857.28,468.00 864.09,468.00 869.60,468.00 870.25,468.00 870.90,468.00 891.00,468.00 893.59,468.00 894.24,468.00 900.40,468.00 901.05,468.00 904.94,465.95 906.23,465.95 906.56,465.95 906.88,465.95 909.80,463.91 911.42,463.91 913.04,463.91 918.23,461.86 922.77,459.82 924.39,459.82 925.04,457.77 931.85,457.77 935.74,457.77 947.41,457.77 949.68,457.77 950.33,455.73 952.27,455.73 954.22,455.73 957.14,453.68 962.32,453.68 969.13,453.68 973.35,453.68 984.69,453.68 986.96,453.68 991.83,453.68 992.15,453.68 993.12,453.68 995.72,453.68 996.04,451.64 1004.79,451.64 1011.60,451.64 1012.25,451.64 1014.52,451.64 1021.01,451.64 1023.27,451.64 1024.90,451.64 1026.52,451.64 1029.84,451.64 1030.80,451.64 1031.13,451.64 1031.78,451.64 1032.10,451.64 1032.43,451.64 1036.00,451.64"/>
<circle cx="718.97" cy="468.00" r="3.8" fill="#3bf2af" stroke="#111827" stroke-width="1"/>
<circle cx="752.23" cy="468.00" r="3.8" fill="#3bf2af" stroke="#111827" stroke-width="1"/>
<circle cx="769.09" cy="468.00" r="3.8" fill="#3bf2af" stroke="#111827" stroke-width="1"/>
<circle cx="777.20" cy="468.00" r="3.8" fill="#3bf2af" stroke="#111827" stroke-width="1"/>
<circle cx="802.16" cy="468.00" r="3.8" fill="#3bf2af" stroke="#111827" stroke-width="1"/>
<circle cx="813.19" cy="468.00" r="3.8" fill="#3bf2af" stroke="#111827" stroke-width="1"/>
<circle cx="833.29" cy="468.00" r="3.8" fill="#3bf2af" stroke="#111827" stroke-width="1"/>
<circle cx="854.36" cy="468.00" r="3.8" fill="#3bf2af" stroke="#111827" stroke-width="1"/>
<circle cx="869.60" cy="468.00" r="3.8" fill="#3bf2af" stroke="#111827" stroke-width="1"/>
<circle cx="891.00" cy="468.00" r="3.8" fill="#3bf2af" stroke="#111827" stroke-width="1"/>
<circle cx="900.40" cy="468.00" r="3.8" fill="#3bf2af" stroke="#111827" stroke-width="1"/>
<circle cx="906.23" cy="465.95" r="3.8" fill="#3bf2af" stroke="#111827" stroke-width="1"/>
<circle cx="909.80" cy="463.91" r="3.8" fill="#3bf2af" stroke="#111827" stroke-width="1"/>
<circle cx="918.23" cy="461.86" r="3.8" fill="#3bf2af" stroke="#111827" stroke-width="1"/>
<circle cx="925.04" cy="457.77" r="3.8" fill="#3bf2af" stroke="#111827" stroke-width="1"/>
<circle cx="947.41" cy="457.77" r="3.8" fill="#3bf2af" stroke="#111827" stroke-width="1"/>
<circle cx="952.27" cy="455.73" r="3.8" fill="#3bf2af" stroke="#111827" stroke-width="1"/>
<circle cx="962.32" cy="453.68" r="3.8" fill="#3bf2af" stroke="#111827" stroke-width="1"/>
<circle cx="984.69" cy="453.68" r="3.8" fill="#3bf2af" stroke="#111827" stroke-width="1"/>
<circle cx="992.15" cy="453.68" r="3.8" fill="#3bf2af" stroke="#111827" stroke-width="1"/>
<circle cx="996.04" cy="451.64" r="3.8" fill="#3bf2af" stroke="#111827" stroke-width="1"/>
<circle cx="1012.25" cy="451.64" r="3.8" fill="#3bf2af" stroke="#111827" stroke-width="1"/>
<circle cx="1023.27" cy="451.64" r="3.8" fill="#3bf2af" stroke="#111827" stroke-width="1"/>
<circle cx="1029.84" cy="451.64" r="3.8" fill="#3bf2af" stroke="#111827" stroke-width="1"/>
<circle cx="1031.78" cy="451.64" r="3.8" fill="#3bf2af" stroke="#111827" stroke-width="1"/>
<circle cx="1036.00" cy="451.64" r="3.8" fill="#3bf2af" stroke="#111827" stroke-width="1"/>
<text x="1028.00" y="441.64" text-anchor="end" fill="#3bf2af" font-size="12" font-family="-apple-system,BlinkMacSystemFont,Segoe UI,Helvetica,Arial,sans-serif">8</text>
<polyline fill="none" stroke="url(#repo-1)" stroke-width="4" stroke-linecap="round" stroke-linejoin="round" points="90.00,468.00 91.81,468.00 92.46,468.00 96.03,468.00 99.60,468.00 136.56,468.00 137.53,465.95 143.36,463.91 149.20,463.91 153.74,461.86 157.31,461.86 157.95,461.86 158.28,461.86 158.60,461.86 160.22,461.86 160.87,461.86 165.09,459.82 165.41,459.82 169.30,459.82 170.27,459.82 170.60,459.82 172.22,459.82 173.84,459.82 175.79,459.82 176.76,459.82 181.95,459.82 184.54,459.82 186.16,459.82 186.48,459.82 191.67,459.82 192.00,459.82 192.64,457.77 195.89,457.77 196.53,457.77 196.86,455.73 197.18,453.68 203.02,453.68 204.64,451.64 210.80,451.64 212.10,451.64 212.75,449.59 215.34,447.55 218.26,447.55 222.15,445.50 222.47,445.50 224.74,445.50 227.01,445.50 230.25,445.50 231.23,445.50 233.49,445.50 235.76,445.50 237.71,445.50 238.03,445.50 238.36,445.50 240.95,445.50 241.60,445.50 242.25,445.50 242.57,443.45 242.90,441.41 243.22,441.41 245.81,441.41 246.46,441.41 249.06,439.36 254.57,439.36 255.22,437.32 255.54,437.32 255.87,437.32 256.51,433.23 257.81,433.23 258.13,433.23 260.08,433.23 260.40,433.23 262.67,433.23 263.65,433.23 264.29,433.23 265.27,431.18 266.89,431.18 267.21,429.14 268.19,429.14 271.10,429.14 274.67,429.14 275.64,429.14 276.61,429.14 276.94,429.14 278.24,429.14 278.56,429.14 279.21,429.14 280.18,429.14 281.80,429.14 282.45,429.14 282.78,429.14 283.10,429.14 284.72,429.14 285.69,429.14 286.34,429.14 287.64,427.09 287.96,425.05 289.58,425.05 293.15,425.05 295.10,425.05 296.72,423.00 297.04,423.00 299.31,423.00 300.93,423.00 301.26,420.95 303.20,420.95 303.52,420.95 304.17,418.91 305.15,416.86 305.47,416.86 305.79,416.86 306.12,416.86 310.66,414.82 314.55,414.82 314.87,414.82 315.52,414.82 316.82,414.82 317.14,414.82 318.76,412.77 319.41,410.73 319.74,410.73 320.06,410.73 320.38,410.73 322.00,410.73 325.25,408.68 326.54,408.68 326.87,406.64 327.52,406.64 327.84,404.59 328.49,402.55 329.14,402.55 329.79,400.50 331.08,398.45 331.73,398.45 333.68,398.45 334.00,398.45 335.30,398.45 337.24,398.45 338.54,398.45 339.84,396.41 340.16,396.41 340.81,396.41 341.78,396.41 342.75,396.41 344.38,396.41 346.00,396.41 347.62,396.41 350.54,394.36 353.13,394.36 353.45,394.36 353.78,394.36 358.64,394.36 359.61,394.36 360.59,394.36 360.91,394.36 361.88,394.36 364.15,394.36 364.48,394.36 366.10,394.36 368.04,392.32 371.28,392.32 372.26,392.32 373.23,392.32 374.53,392.32 375.18,392.32 375.50,392.32 376.15,390.27 377.77,390.27 379.07,390.27 383.28,388.23 384.90,388.23 385.87,388.23 388.79,386.18 389.44,384.14 389.76,384.14 390.09,384.14 391.71,384.14 392.68,384.14 393.98,384.14 394.30,384.14 394.95,384.14 397.22,384.14 397.55,384.14 398.19,384.14 400.46,384.14 401.11,384.14 402.41,384.14 403.38,382.09 403.71,382.09 404.03,382.09 407.92,382.09 408.57,382.09 409.87,382.09 410.19,382.09 411.49,382.09 412.78,382.09 413.11,382.09 413.43,382.09 415.05,382.09 415.70,382.09 417.32,380.05 418.62,378.00 419.59,378.00 421.54,378.00 422.83,378.00 424.46,378.00 424.78,378.00 425.43,378.00 426.08,378.00 426.73,378.00 427.05,375.95 428.02,373.91 428.35,373.91 428.67,373.91 428.99,371.86 430.62,371.86 431.26,369.82 432.56,369.82 433.21,369.82 434.18,369.82 434.83,369.82 435.80,369.82 437.10,369.82 438.40,367.77 439.69,365.73 440.02,365.73 441.64,365.73 441.96,365.73 442.61,365.73 442.94,365.73 443.58,365.73 443.91,365.73 445.53,365.73 446.83,365.73 448.45,363.68 452.99,363.68 453.31,363.68 453.63,361.64 453.96,361.64 454.93,357.55 455.26,357.55 455.58,357.55 455.90,357.55 457.20,355.50 457.85,355.50 458.17,355.50 459.15,353.45 459.47,351.41 460.12,351.41 462.06,351.41 462.39,351.41 462.71,351.41 464.01,351.41 466.28,351.41 466.60,351.41 467.25,351.41 469.52,351.41 471.14,351.41 472.76,349.36 475.68,347.32 476.98,347.32 477.30,347.32 477.63,345.27 478.27,345.27 478.60,343.23 478.92,343.23 479.90,343.23 480.22,343.23 481.19,343.23 482.81,343.23 483.14,339.14 483.46,339.14 483.79,339.14 484.11,339.14 484.43,339.14 484.76,339.14 485.41,339.14 485.73,339.14 486.06,335.05 487.03,335.05 487.68,335.05 488.33,335.05 489.62,335.05 490.92,335.05 491.24,335.05 491.57,333.00 491.89,330.95 493.51,330.95 494.81,330.95 495.13,330.95 496.43,330.95 496.75,330.95 497.08,328.91 500.32,328.91 500.65,328.91 501.29,328.91 502.91,328.91 503.56,328.91 504.21,328.91 505.51,326.86 506.16,326.86 506.48,324.82 506.81,324.82 507.13,322.77 508.43,322.77 508.75,322.77 509.40,322.77 509.72,322.77 510.70,322.77 511.02,322.77 512.32,322.77 515.23,322.77 516.21,322.77 517.18,322.77 517.50,320.73 517.83,320.73 518.15,318.68 518.48,318.68 519.13,318.68 521.39,316.64 522.69,316.64 523.02,316.64 523.34,316.64 524.31,316.64 525.61,314.59 526.91,314.59 528.53,314.59 528.85,314.59 532.42,314.59 534.04,314.59 534.69,314.59 535.34,314.59 537.93,314.59 538.58,314.59 538.90,314.59 539.87,314.59 540.52,314.59 541.17,312.55 541.82,312.55 542.47,312.55 543.77,312.55 544.09,312.55 544.41,312.55 546.03,310.50 546.68,310.50 547.01,310.50 547.98,310.50 548.63,310.50 549.28,310.50 550.90,310.50 551.22,308.45 551.55,308.45 552.52,308.45 553.17,306.41 553.82,306.41 555.44,306.41 558.36,306.41 558.68,306.41 559.98,306.41 560.30,306.41 561.60,306.41 561.92,306.41 562.25,304.36 562.89,304.36 563.87,304.36 564.19,304.36 564.52,304.36 565.16,304.36 566.46,304.36 567.43,302.32 567.76,302.32 571.97,302.32 572.30,302.32 573.27,302.32 573.92,302.32 576.19,302.32 577.16,300.27 577.48,300.27 577.81,300.27 580.40,300.27 580.73,300.27 581.05,300.27 582.02,300.27 582.35,300.27 583.00,300.27 585.26,300.27 585.91,300.27 586.56,296.18 587.53,296.18 587.86,296.18 588.83,296.18 594.34,296.18 595.64,296.18 595.96,296.18 597.58,296.18 598.23,294.14 598.56,294.14 598.88,292.09 599.21,292.09 600.18,290.05 601.15,290.05 601.48,290.05 603.42,290.05 603.74,290.05 604.39,290.05 605.37,290.05 606.01,290.05 606.34,290.05 607.64,290.05 608.28,288.00 608.93,288.00 609.90,288.00 610.23,288.00 614.44,288.00 615.42,285.95 616.39,285.95 616.71,285.95 618.33,285.95 618.66,285.95 618.98,285.95 619.31,285.95 620.60,285.95 621.58,285.95 623.85,285.95 624.82,285.95 625.14,285.95 625.79,283.91 626.44,283.91 628.38,283.91 628.71,283.91 631.95,283.91 632.28,283.91 633.25,283.91 633.57,283.91 634.54,283.91 634.87,279.82 635.19,279.82 636.81,279.82 637.14,279.82 638.11,279.82 639.73,279.82 641.03,279.82 642.00,277.77 645.57,275.73 645.89,273.68 647.84,271.64 648.49,271.64 649.13,269.59 650.43,267.55 650.76,265.50 653.35,265.50 656.27,265.50 656.92,265.50 657.24,263.45 657.56,263.45 660.48,261.41 661.78,259.36 662.10,259.36 662.43,259.36 663.08,257.32 664.37,257.32 664.70,257.32 665.34,257.32 666.64,257.32 668.26,257.32 668.59,255.27 669.24,255.27 669.56,255.27 669.88,253.23 670.21,253.23 670.53,253.23 671.18,253.23 675.07,253.23 677.34,251.18 679.61,249.14 680.58,247.09 680.91,245.05 681.23,245.05 682.20,243.00 682.53,243.00 684.80,240.95 685.12,240.95 686.42,238.91 686.74,238.91 687.07,238.91 688.36,238.91 689.34,236.86 690.63,236.86 691.61,234.82 691.93,232.77 693.88,232.77 694.52,232.77 695.50,232.77 695.82,232.77 696.47,232.77 698.41,230.73 699.06,228.68 699.71,228.68 700.04,228.68 700.68,228.68 701.01,228.68 701.98,228.68 702.31,228.68 702.95,228.68 704.25,228.68 704.57,228.68 705.22,228.68 705.87,228.68 707.17,228.68 707.49,226.64 708.79,226.64 710.09,226.64 711.71,224.59 712.68,224.59 713.00,224.59 714.63,222.55 714.95,222.55 716.25,222.55 717.22,222.55 717.87,220.50 718.84,220.50 720.14,220.50 720.46,220.50 721.11,220.50 723.70,220.50 725.65,218.45 727.92,218.45 731.48,218.45 731.81,216.41 732.13,216.41 734.08,216.41 734.73,216.41 735.05,216.41 735.37,214.36 736.35,214.36 736.67,212.32 737.32,212.32 739.91,212.32 741.53,212.32 742.18,210.27 743.80,208.23 745.10,208.23 748.02,206.18 749.32,204.14 751.26,204.14 757.10,202.09 759.37,200.05 760.01,200.05 762.93,200.05 763.58,200.05 764.23,200.05 766.17,200.05 766.82,200.05 767.47,200.05 767.80,198.00 768.12,198.00 770.71,198.00 773.63,198.00 775.25,198.00 777.20,198.00 780.12,195.95 782.71,195.95 784.01,195.95 784.65,195.95 785.95,195.95 787.57,195.95 788.22,195.95 788.87,195.95 790.81,195.95 792.11,195.95 792.44,195.95 795.35,193.91 795.68,193.91 796.00,191.86 796.65,191.86 797.62,189.82 798.92,189.82 800.87,189.82 801.19,189.82 802.16,187.77 804.43,185.73 806.70,185.73 808.65,185.73 811.24,185.73 811.89,185.73 812.21,185.73 813.19,183.68 813.51,183.68 813.83,183.68 814.48,183.68 815.78,181.64 818.05,181.64 818.37,179.59 819.35,179.59 821.29,179.59 822.91,179.59 823.24,179.59 824.53,179.59 825.51,179.59 825.83,177.55 827.13,177.55 827.77,175.50 829.40,175.50 829.72,173.45 830.04,173.45 831.99,173.45 832.96,173.45 833.29,173.45 835.23,171.41 836.53,171.41 836.85,171.41 837.18,169.36 839.45,169.36 841.07,169.36 844.96,169.36 845.28,169.36 847.23,169.36 850.15,169.36 853.39,169.36 855.33,169.36 855.66,169.36 855.98,169.36 856.63,169.36 859.22,169.36 861.49,169.36 864.74,169.36 865.06,167.32 867.98,167.32 868.95,167.32 870.25,167.32 880.30,167.32 881.59,167.32 881.92,167.32 885.16,167.32 886.78,167.32 889.05,167.32 889.70,165.27 890.02,165.27 891.97,165.27 893.27,165.27 893.91,165.27 894.24,165.27 894.56,165.27 895.54,165.27 897.16,165.27 897.48,163.23 899.10,163.23 901.37,163.23 903.64,163.23 904.29,163.23 907.86,163.23 908.18,163.23 909.80,163.23 911.42,163.23 914.34,163.23 915.64,163.23 917.91,159.14 918.23,159.14 918.88,157.09 920.50,157.09 920.82,157.09 921.47,157.09 922.44,157.09 922.77,157.09 923.09,157.09 923.42,157.09 924.71,157.09 925.04,155.05 926.98,155.05 927.31,155.05 928.93,155.05 929.25,155.05 929.90,155.05 930.55,153.00 931.52,153.00 934.76,153.00 940.60,153.00 941.90,153.00 943.52,150.95 944.82,150.95 946.11,150.95 947.08,150.95 948.06,150.95 950.33,148.91 951.95,148.91 952.60,146.86 954.87,144.82 955.19,142.77 955.51,142.77 959.08,142.77 961.03,142.77 961.35,140.73 964.27,140.73 969.13,140.73 970.43,138.68 970.75,138.68 971.73,138.68 975.62,138.68 980.15,138.68 980.48,136.64 984.69,136.64 987.29,136.64 999.93,136.64 1002.85,136.64 1003.82,136.64 1005.44,136.64 1005.77,136.64 1011.60,136.64 1014.20,136.64 1019.38,136.64 1021.01,136.64 1023.27,136.64 1029.84,124.36 1032.75,124.36 1033.07,124.36 1033.73,124.36 1034.05,124.36 1035.02,124.36 1035.34,124.36 1036.00,124.36"/>
<circle cx="90.00" cy="468.00" r="3.8" fill="#ffb50c" stroke="#111827" stroke-width="1"/>
<circle cx="192.00" cy="459.82" r="3.8" fill="#ffb50c" stroke="#111827" stroke-width="1"/>
<circle cx="245.81" cy="441.41" r="3.8" fill="#ffb50c" stroke="#111827" stroke-width="1"/>
<circle cx="282.78" cy="429.14" r="3.8" fill="#ffb50c" stroke="#111827" stroke-width="1"/>
<circle cx="319.74" cy="410.73" r="3.8" fill="#ffb50c" stroke="#111827" stroke-width="1"/>
<circle cx="353.78" cy="394.36" r="3.8" fill="#ffb50c" stroke="#111827" stroke-width="1"/>
<circle cx="394.95" cy="384.14" r="3.8" fill="#ffb50c" stroke="#111827" stroke-width="1"/>
<circle cx="427.05" cy="375.95" r="3.8" fill="#ffb50c" stroke="#111827" stroke-width="1"/>
<circle cx="455.26" cy="357.55" r="3.8" fill="#ffb50c" stroke="#111827" stroke-width="1"/>
<circle cx="483.14" cy="339.14" r="3.8" fill="#ffb50c" stroke="#111827" stroke-width="1"/>
<circle cx="506.16" cy="326.86" r="3.8" fill="#ffb50c" stroke="#111827" stroke-width="1"/>
<circle cx="534.69" cy="314.59" r="3.8" fill="#ffb50c" stroke="#111827" stroke-width="1"/>
<circle cx="561.60" cy="306.41" r="3.8" fill="#ffb50c" stroke="#111827" stroke-width="1"/>
<circle cx="588.83" cy="296.18" r="3.8" fill="#ffb50c" stroke="#111827" stroke-width="1"/>
<circle cx="619.31" cy="285.95" r="3.8" fill="#ffb50c" stroke="#111827" stroke-width="1"/>
<circle cx="653.35" cy="265.50" r="3.8" fill="#ffb50c" stroke="#111827" stroke-width="1"/>
<circle cx="684.80" cy="240.95" r="3.8" fill="#ffb50c" stroke="#111827" stroke-width="1"/>
<circle cx="708.79" cy="226.64" r="3.8" fill="#ffb50c" stroke="#111827" stroke-width="1"/>
<circle cx="743.80" cy="208.23" r="3.8" fill="#ffb50c" stroke="#111827" stroke-width="1"/>
<circle cx="792.44" cy="195.95" r="3.8" fill="#ffb50c" stroke="#111827" stroke-width="1"/>
<circle cx="827.13" cy="177.55" r="3.8" fill="#ffb50c" stroke="#111827" stroke-width="1"/>
<circle cx="880.30" cy="167.32" r="3.8" fill="#ffb50c" stroke="#111827" stroke-width="1"/>
<circle cx="920.82" cy="157.09" r="3.8" fill="#ffb50c" stroke="#111827" stroke-width="1"/>
<circle cx="961.03" cy="142.77" r="3.8" fill="#ffb50c" stroke="#111827" stroke-width="1"/>
<circle cx="1036.00" cy="124.36" r="3.8" fill="#ffb50c" stroke="#111827" stroke-width="1"/>
<text x="1028.00" y="114.36" text-anchor="end" fill="#ffb50c" font-size="12" font-family="-apple-system,BlinkMacSystemFont,Segoe UI,Helvetica,Arial,sans-serif">168</text>
<rect x="90.00" y="514.00" width="14" height="14" fill="url(#repo-0)" rx="3"/>
<text x="112.00" y="526.00" fill="#3bf2af" font-size="13" font-family="-apple-system,BlinkMacSystemFont,Segoe UI,Helvetica,Arial,sans-serif">bavix/gripmock</text>
<rect x="280.00" y="514.00" width="14" height="14" fill="url(#repo-1)" rx="3"/>
<text x="302.00" y="526.00" fill="#ffb50c" font-size="13" font-family="-apple-system,BlinkMacSystemFont,Segoe UI,Helvetica,Arial,sans-serif">tokopedia/gripmock</text>
<text x="1036.00" y="526.00" text-anchor="end" fill="#9ca3af" font-size="12" font-family="-apple-system,BlinkMacSystemFont,Segoe UI,Helvetica,Arial,sans-serif">Source: https://github.com/bavix/artifact-stats/blob/master/stats/github.csv</text>
</svg>