<svg xmlns="http://www.w3.org/2000/svg" width="1100" height="560" viewBox="0 0 1100 560">
<defs>
<linearGradient id="bg" x1="0" y1="0" x2="1" y2="1"><stop offset="0%" stop-color="#0b1220"/><stop offset="100%" stop-color="#111827"/></linearGradient>
<linearGradient id="repo-0" x1="0" y1="0" x2="0" y2="1"><stop offset="0%" stop-color="#34d399"/><stop offset="100%" stop-color="#059669"/></linearGradient>
<linearGradient id="repo-1" x1="0" y1="0" x2="0" y2="1"><stop offset="0%" stop-color="#f59e0b"/><stop offset="100%" stop-color="#d97706"/></linearGradient>
</defs>
<rect x="0" y="0" width="1100" height="560" fill="url(#bg)" rx="16"/>
<text x="90" y="44" fill="#f9fafb" font-size="28" font-family="-apple-system,BlinkMacSystemFont,Segoe UI,Helvetica,Arial,sans-serif" font-weight="700">GripMock GitHub Metrics - Stars</text>
<text x="90" y="70" fill="#9ca3af" font-size="16" font-family="-apple-system,BlinkMacSystemFont,Segoe UI,Helvetica,Arial,sans-serif">GitHub stars by snapshot date</text>
<line x1="90" y1="90.0" x2="1036" y2="90.0" stroke="#1f2937" stroke-width="1"/>
<text x="80" y="95.0" text-anchor="end" fill="#9ca3af" font-size="12" font-family="-apple-system,BlinkMacSystemFont,Segoe UI,Helvetica,Arial,sans-serif">810</text>
<line x1="90" y1="153.0" x2="1036" y2="153.0" stroke="#1f2937" stroke-width="1"/>
<text x="80" y="158.0" text-anchor="end" fill="#9ca3af" font-size="12" font-family="-apple-system,BlinkMacSystemFont,Segoe UI,Helvetica,Arial,sans-serif">675</text>
<line x1="90" y1="216.0" x2="1036" y2="216.0" stroke="#1f2937" stroke-width="1"/>
<text x="80" y="221.0" text-anchor="end" fill="#9ca3af" font-size="12" font-family="-apple-system,BlinkMacSystemFont,Segoe UI,Helvetica,Arial,sans-serif">540</text>
<line x1="90" y1="279.0" x2="1036" y2="279.0" stroke="#1f2937" stroke-width="1"/>
<text x="80" y="284.0" text-anchor="end" fill="#9ca3af" font-size="12" font-family="-apple-system,BlinkMacSystemFont,Segoe UI,Helvetica,Arial,sans-serif">405</text>
<line x1="90" y1="342.0" x2="1036" y2="342.0" stroke="#1f2937" stroke-width="1"/>
<text x="80" y="347.0" text-anchor="end" fill="#9ca3af" font-size="12" font-family="-apple-system,BlinkMacSystemFont,Segoe UI,Helvetica,Arial,sans-serif">270</text>
<line x1="90" y1="405.0" x2="1036" y2="405.0" stroke="#1f2937" stroke-width="1"/>
<text x="80" y="410.0" text-anchor="end" fill="#9ca3af" font-size="12" font-family="-apple-system,BlinkMacSystemFont,Segoe UI,Helvetica,Arial,sans-serif">135</text>
<line x1="90" y1="468.0" x2="1036" y2="468.0" stroke="#1f2937" stroke-width="1"/>
<text x="80" y="473.0" text-anchor="end" fill="#9ca3af" font-size="12" font-family="-apple-system,BlinkMacSystemFont,Segoe UI,Helvetica,Arial,sans-serif">0</text>
<line x1="90" y1="468" x2="1036" y2="468" stroke="#4b5563" stroke-width="1.4"/>
<line x1="90" y1="90" x2="90" y2="468" stroke="#4b5563" stroke-width="1.4"/>
<line x1="90.0" y1="468" x2="90.0" y2="474" stroke="#6b7280" stroke-width="1"/>
<text x="90.0" y="494" text-anchor="start" fill="#9ca3af" font-size="12" font-family="-apple-system,BlinkMacSystemFont,Segoe UI,Helvetica,Arial,sans-serif">2018-04-24</text>
<line x1="279.2" y1="468" x2="279.2" y2="474" stroke="#6b7280" stroke-width="1"/>
<text x="279.2" y="494" text-anchor="middle" fill="#9ca3af" font-size="12" font-family="-apple-system,BlinkMacSystemFont,Segoe UI,Helvetica,Arial,sans-serif">2019-11-26</text>
<line x1="468.4" y1="468" x2="468.4" y2="474" stroke="#6b7280" stroke-width="1"/>
<text x="468.4" y="494" text-anchor="middle" fill="#9ca3af" font-size="12" font-family="-apple-system,BlinkMacSystemFont,Segoe UI,Helvetica,Arial,sans-serif">2021-06-30</text>
<line x1="657.6" y1="468" x2="657.6" y2="474" stroke="#6b7280" stroke-width="1"/>
<text x="657.6" y="494" text-anchor="middle" fill="#9ca3af" font-size="12" font-family="-apple-system,BlinkMacSystemFont,Segoe UI,Helvetica,Arial,sans-serif">2023-02-01</text>
<line x1="846.8" y1="468" x2="846.8" y2="474" stroke="#6b7280" stroke-width="1"/>
<text x="846.8" y="494" text-anchor="middle" fill="#9ca3af" font-size="12" font-family="-apple-system,BlinkMacSystemFont,Segoe UI,Helvetica,Arial,sans-serif">2024-09-04</text>
<line x1="1036.0" y1="468" x2="1036.0" y2="474" stroke="#6b7280" stroke-width="1"/>
<text x="1036.0" y="494" text-anchor="end" fill="#9ca3af" font-size="12" font-family="-apple-system,BlinkMacSystemFont,Segoe UI,Helvetica,Arial,sans-serif">2026-04-09</text>
<polyline fill="none" stroke="url(#repo-0)" stroke-width="4" stroke-linecap="round" stroke-linejoin="round" points="721.36,468.00 728.06,467.53 741.08,467.07 754.75,466.60 756.70,466.13 759.95,465.67 771.67,465.20 773.95,464.73 779.48,464.26 779.80,463.80 784.69,463.33 792.50,462.86 804.86,462.40 808.12,461.93 812.35,461.46 815.93,461.00 830.90,460.53 835.45,460.06 836.11,459.60 837.41,459.13 843.59,458.66 857.26,458.20 860.19,457.73 867.02,457.26 872.55,456.79 873.21,456.33 873.86,455.86 894.03,455.39 896.64,454.93 897.29,454.46 903.47,453.99 904.12,453.53 908.03,453.53 909.33,453.06 909.66,452.59 909.98,452.13 912.91,451.66 914.54,451.19 916.16,450.72 921.37,450.72 925.93,450.72 927.55,450.26 928.21,450.26 935.04,449.79 938.94,449.32 950.66,448.86 952.94,448.39 953.59,448.39 955.54,447.92 957.49,447.46 960.42,447.46 965.63,446.99 972.47,446.52 976.70,446.06 988.09,445.59 990.36,445.12 995.25,444.66 995.57,444.19 996.55,443.72 999.15,443.25 999.48,443.25 1008.26,442.79 1015.10,442.32 1015.75,441.85 1018.03,441.39 1024.54,440.92 1026.81,440.45 1028.44,439.99 1030.07,439.52 1033.40,439.52 1034.37,439.52 1034.70,439.05 1035.35,439.05 1035.67,438.59 1036.00,439.05"/>
<circle cx="721.36" cy="468.00" r="3.8" fill="#3bf2af" stroke="#111827" stroke-width="1"/>
<circle cx="754.75" cy="466.60" r="3.8" fill="#3bf2af" stroke="#111827" stroke-width="1"/>
<circle cx="771.67" cy="465.20" r="3.8" fill="#3bf2af" stroke="#111827" stroke-width="1"/>
<circle cx="779.80" cy="463.80" r="3.8" fill="#3bf2af" stroke="#111827" stroke-width="1"/>
<circle cx="804.86" cy="462.40" r="3.8" fill="#3bf2af" stroke="#111827" stroke-width="1"/>
<circle cx="815.93" cy="461.00" r="3.8" fill="#3bf2af" stroke="#111827" stroke-width="1"/>
<circle cx="836.11" cy="459.60" r="3.8" fill="#3bf2af" stroke="#111827" stroke-width="1"/>
<circle cx="857.26" cy="458.20" r="3.8" fill="#3bf2af" stroke="#111827" stroke-width="1"/>
<circle cx="872.55" cy="456.79" r="3.8" fill="#3bf2af" stroke="#111827" stroke-width="1"/>
<circle cx="894.03" cy="455.39" r="3.8" fill="#3bf2af" stroke="#111827" stroke-width="1"/>
<circle cx="903.47" cy="453.99" r="3.8" fill="#3bf2af" stroke="#111827" stroke-width="1"/>
<circle cx="909.33" cy="453.06" r="3.8" fill="#3bf2af" stroke="#111827" stroke-width="1"/>
<circle cx="912.91" cy="451.66" r="3.8" fill="#3bf2af" stroke="#111827" stroke-width="1"/>
<circle cx="921.37" cy="450.72" r="3.8" fill="#3bf2af" stroke="#111827" stroke-width="1"/>
<circle cx="928.21" cy="450.26" r="3.8" fill="#3bf2af" stroke="#111827" stroke-width="1"/>
<circle cx="950.66" cy="448.86" r="3.8" fill="#3bf2af" stroke="#111827" stroke-width="1"/>
<circle cx="955.54" cy="447.92" r="3.8" fill="#3bf2af" stroke="#111827" stroke-width="1"/>
<circle cx="965.63" cy="446.99" r="3.8" fill="#3bf2af" stroke="#111827" stroke-width="1"/>
<circle cx="988.09" cy="445.59" r="3.8" fill="#3bf2af" stroke="#111827" stroke-width="1"/>
<circle cx="995.57" cy="444.19" r="3.8" fill="#3bf2af" stroke="#111827" stroke-width="1"/>
<circle cx="999.48" cy="443.25" r="3.8" fill="#3bf2af" stroke="#111827" stroke-width="1"/>
<circle cx="1015.75" cy="441.85" r="3.8" fill="#3bf2af" stroke="#111827" stroke-width="1"/>
<circle cx="1026.81" cy="440.45" r="3.8" fill="#3bf2af" stroke="#111827" stroke-width="1"/>
<circle cx="1033.40" cy="439.52" r="3.8" fill="#3bf2af" stroke="#111827" stroke-width="1"/>
<circle cx="1035.35" cy="439.05" r="3.8" fill="#3bf2af" stroke="#111827" stroke-width="1"/>
<circle cx="1036.00" cy="439.05" r="3.8" fill="#3bf2af" stroke="#111827" stroke-width="1"/>
<text x="1028.0" y="429.1" text-anchor="end" fill="#3bf2af" font-size="12" font-family="-apple-system,BlinkMacSystemFont,Segoe UI,Helvetica,Arial,sans-serif">62</text>
<polyline fill="none" stroke="url(#repo-1)" stroke-width="4" stroke-linecap="round" stroke-linejoin="round" points="90.00,468.00 91.82,466.60 92.47,466.13 96.05,465.67 99.63,465.20 136.73,464.73 137.71,464.26 143.57,464.26 149.42,463.80 153.98,463.80 157.56,463.33 158.21,462.86 158.54,462.40 158.86,461.93 160.49,461.46 161.14,461.00 165.37,460.53 165.70,460.06 169.60,459.60 170.58,459.13 170.90,458.66 172.53,458.20 174.16,457.26 176.11,456.79 177.09,456.33 182.29,455.86 184.90,455.39 186.52,454.93 186.85,454.46 192.06,453.99 192.38,453.53 193.03,453.06 196.29,452.59 196.94,451.66 197.26,451.66 197.59,451.66 203.45,451.19 205.07,451.19 211.26,450.72 212.56,450.26 213.21,450.26 215.81,449.79 218.74,449.32 222.65,449.32 222.97,448.86 225.25,448.39 227.53,447.92 230.78,447.46 231.76,446.99 234.04,446.52 236.32,446.06 238.27,445.59 238.60,445.12 238.92,444.66 241.52,444.19 242.18,443.72 242.83,442.79 243.15,442.32 243.48,441.39 243.80,440.92 246.41,440.45 247.06,439.52 249.66,439.52 255.19,439.05 255.84,439.05 256.17,438.59 256.49,438.12 257.15,438.12 258.45,437.65 258.77,437.18 260.73,436.72 261.05,436.25 263.33,435.78 264.31,434.85 264.96,433.92 265.93,433.92 267.56,433.45 267.88,432.98 268.86,432.52 271.79,432.05 275.37,431.58 276.35,431.12 277.32,430.65 277.65,430.18 278.95,429.71 279.28,429.25 279.93,428.78 280.90,427.38 282.53,426.91 283.18,426.45 283.51,425.98 283.83,424.58 285.46,424.11 286.44,423.64 287.09,423.18 288.39,423.18 288.71,422.71 290.34,422.24 293.92,421.78 295.87,421.31 297.50,421.31 297.83,420.38 300.10,419.91 301.73,419.44 302.06,419.44 304.01,418.98 304.33,418.51 304.99,418.51 305.96,418.51 306.29,418.04 306.61,417.58 306.94,417.11 311.49,415.71 315.40,415.24 315.72,414.77 316.38,414.31 317.68,413.84 318.00,413.37 319.63,413.37 320.28,412.91 320.61,412.44 320.93,411.97 321.26,411.51 322.88,411.04 326.14,410.57 327.44,410.10 327.77,410.10 328.42,409.64 328.74,409.64 329.39,408.24 330.04,407.77 330.70,407.77 332.00,407.30 332.65,406.84 334.60,406.37 334.93,405.90 336.23,405.44 338.18,404.97 339.48,404.50 340.78,404.50 341.11,404.04 341.76,403.57 342.74,403.10 343.71,402.63 345.34,402.17 346.97,401.70 348.59,401.23 351.52,400.77 354.13,400.30 354.45,399.83 354.78,399.37 359.66,398.90 360.64,398.43 361.61,397.97 361.94,397.03 362.91,396.56 365.19,395.63 365.52,394.70 367.14,394.23 369.10,394.23 372.35,393.76 373.33,393.30 374.30,392.83 375.61,391.90 376.26,391.43 376.58,390.96 377.23,390.50 378.86,389.56 380.16,389.09 384.39,388.16 386.02,386.76 387.00,385.83 389.93,385.83 390.58,385.83 390.90,385.36 391.23,384.43 392.85,383.49 393.83,383.02 395.13,382.56 395.46,382.09 396.11,381.62 398.39,381.16 398.71,380.69 399.36,380.22 401.64,379.76 402.29,379.29 403.59,378.82 404.57,378.36 404.90,377.89 405.22,377.42 409.13,376.96 409.78,376.49 411.08,375.55 411.40,375.09 412.71,374.62 414.01,371.35 414.33,370.42 414.66,369.95 416.29,369.48 416.94,369.02 418.56,369.02 419.87,368.55 420.84,368.08 422.79,367.15 424.10,366.68 425.72,366.22 426.05,365.75 426.70,365.28 427.35,364.35 428.00,363.88 428.33,363.88 429.30,363.88 429.63,363.42 429.95,362.95 430.28,362.48 431.91,362.01 432.56,361.08 433.86,360.61 434.51,359.68 435.49,359.21 436.14,358.75 437.11,358.28 438.42,357.81 439.72,357.81 441.02,357.35 441.35,356.88 442.97,356.41 443.30,355.94 443.95,355.48 444.27,355.01 444.92,354.54 445.25,353.14 446.88,352.68 448.18,352.21 449.81,351.74 454.36,350.81 454.69,350.34 455.01,350.34 455.34,349.88 456.32,349.41 456.64,348.94 456.97,348.47 457.29,347.54 458.59,347.07 459.24,346.14 459.57,344.74 460.55,344.74 460.87,344.74 461.52,343.81 463.48,343.34 463.80,342.40 464.13,341.94 465.43,341.47 467.71,341.00 468.03,340.54 468.68,340.07 470.96,339.60 472.59,339.14 474.21,339.14 477.14,339.14 478.45,338.67 478.77,338.20 479.10,338.20 479.75,337.74 480.07,336.80 480.40,336.33 481.37,335.87 481.70,335.40 482.68,334.93 484.30,334.00 484.63,334.00 484.95,333.07 485.28,332.60 485.61,331.20 485.93,330.27 486.26,329.80 486.91,329.33 487.23,327.46 487.56,327.00 488.53,326.53 489.18,325.60 489.84,325.13 491.14,324.66 492.44,324.20 492.76,323.73 493.09,323.26 493.42,322.79 495.04,322.33 496.34,321.86 496.67,321.39 497.97,320.46 498.30,319.53 498.62,319.53 501.88,319.06 502.20,318.59 502.85,318.13 504.48,317.19 505.13,316.73 505.78,316.26 507.08,316.26 507.74,315.32 508.06,315.32 508.39,313.46 508.71,311.12 510.01,310.66 510.34,310.19 510.99,309.72 511.31,309.25 512.29,308.79 512.62,308.32 513.92,307.85 516.85,307.39 517.82,306.92 518.80,306.45 519.13,305.05 519.45,304.59 519.78,304.12 520.10,303.65 520.75,303.19 523.03,303.19 524.33,302.72 524.66,302.25 524.98,301.78 525.96,301.32 527.26,301.32 528.56,300.85 530.19,300.38 530.52,299.92 534.10,299.45 535.72,298.98 536.37,298.05 537.02,297.58 539.63,297.12 540.28,296.65 540.60,296.18 541.58,295.71 542.23,295.25 542.88,295.25 543.53,294.78 544.18,294.31 545.49,293.85 545.81,293.38 546.14,292.91 547.76,292.91 548.42,292.45 548.74,291.98 549.72,291.05 550.37,290.11 551.02,289.65 552.65,288.71 552.97,288.71 553.30,288.24 554.27,287.78 554.92,287.31 555.57,286.84 557.20,286.38 560.13,285.91 560.46,285.44 561.76,284.98 562.08,284.51 563.39,284.04 563.71,283.58 564.04,281.71 564.69,281.24 565.66,280.77 565.99,280.31 566.31,279.84 566.97,279.37 568.27,278.91 569.24,278.91 569.57,278.44 573.80,277.97 574.13,277.51 575.10,276.57 575.75,276.11 578.03,275.64 579.01,275.17 579.33,274.70 579.66,274.24 582.26,273.30 582.59,272.84 582.91,270.97 583.89,270.50 584.21,270.04 584.86,269.57 587.14,269.10 587.79,268.63 588.44,268.63 589.42,268.17 589.75,267.70 590.72,267.23 596.26,266.77 597.56,265.83 597.88,265.37 599.51,264.90 600.16,264.90 600.49,263.97 600.81,263.97 601.14,263.50 602.11,263.03 603.09,262.57 603.41,262.10 605.37,261.63 605.69,261.16 606.34,260.23 607.32,259.76 607.97,259.30 608.30,258.83 609.60,258.36 610.25,258.36 610.90,257.90 611.88,257.43 612.20,256.96 616.43,256.50 617.41,256.50 618.39,256.03 618.71,255.56 620.34,255.09 620.66,254.16 620.99,253.69 621.31,252.76 622.62,252.29 623.59,251.83 625.87,250.89 626.85,250.43 627.17,249.96 627.82,249.96 628.47,248.56 630.43,248.09 630.75,247.62 634.01,247.16 634.33,246.69 635.31,245.29 635.63,244.82 636.61,244.36 636.94,244.36 637.26,243.89 638.89,243.42 639.21,242.49 640.19,241.55 641.82,241.09 643.12,240.62 644.09,240.62 647.67,240.62 648.00,240.62 649.95,240.62 650.60,239.69 651.25,239.69 652.56,239.69 652.88,239.69 655.49,239.22 658.41,238.75 659.07,238.29 659.39,237.35 659.72,236.89 662.65,236.42 663.95,236.42 664.27,235.95 664.60,235.49 665.25,235.49 666.55,235.02 666.88,234.55 667.53,234.08 668.83,233.62 670.46,233.15 670.78,233.15 671.43,232.68 671.76,232.22 672.08,232.22 672.41,231.75 672.73,231.28 673.38,230.82 677.29,230.35 679.57,230.35 681.85,230.35 682.82,230.35 683.15,229.88 683.47,229.42 684.45,229.42 684.78,228.95 687.05,228.48 687.38,228.01 688.68,228.01 689.01,227.55 689.33,227.08 690.63,226.61 691.61,226.61 692.91,225.68 693.89,225.68 694.21,225.68 696.17,225.21 696.82,224.28 697.79,223.81 698.12,223.35 698.77,222.88 700.72,221.95 701.37,221.95 702.02,221.48 702.35,221.01 703.00,220.54 703.33,220.08 704.30,219.61 704.63,218.68 705.28,218.21 706.58,217.74 706.91,217.28 707.56,216.34 708.21,215.88 709.51,215.41 709.83,214.94 711.14,214.47 712.44,214.01 714.06,214.01 715.04,213.54 715.37,213.07 716.99,213.07 717.32,212.61 718.62,212.14 719.60,210.74 720.25,210.74 721.22,210.27 722.53,209.81 722.85,209.34 723.50,208.87 726.11,208.41 728.06,207.94 730.34,207.47 733.92,207.00 734.24,207.00 734.57,206.54 736.52,205.14 737.17,204.67 737.50,204.20 737.82,203.74 738.80,203.27 739.12,202.80 739.77,202.34 742.38,201.40 744.01,200.93 744.66,200.93 746.28,200.93 747.59,200.47 750.51,200.00 751.82,200.00 753.77,199.53 759.63,199.53 761.90,199.53 762.56,199.07 765.48,198.60 766.14,198.13 766.79,197.67 768.74,197.20 769.39,196.73 770.04,195.80 770.37,195.80 770.69,195.33 773.30,194.87 776.22,194.40 777.85,193.93 779.80,193.46 782.73,193.46 785.34,192.06 786.64,191.60 787.29,191.13 788.59,190.66 790.22,190.20 790.87,189.73 791.52,189.26 793.47,188.80 794.77,188.33 795.10,187.39 798.03,187.39 798.35,186.93 798.68,186.93 799.33,186.46 800.31,186.46 801.61,185.99 803.56,185.53 803.89,185.06 804.86,185.06 807.14,185.06 809.42,184.59 811.37,184.13 813.98,183.66 814.63,183.19 814.95,182.73 815.93,182.73 816.25,182.26 816.58,181.79 817.23,180.86 818.53,180.39 820.81,179.92 821.14,179.46 822.11,178.52 824.06,178.06 825.69,177.59 826.02,177.12 827.32,176.66 828.29,176.19 828.62,176.19 829.92,175.72 830.57,175.72 832.20,175.26 832.53,174.79 832.85,173.39 834.80,172.92 835.78,172.45 836.11,171.99 838.06,171.99 839.36,171.52 839.69,170.12 840.01,170.12 842.29,168.72 843.92,168.25 847.82,167.79 848.15,167.32 850.10,166.85 853.03,166.38 856.28,165.92 858.24,164.98 858.56,164.52 858.89,164.05 859.54,163.58 862.14,163.12 864.42,162.65 867.67,162.18 868.00,162.18 870.93,161.72 871.90,161.25 873.21,160.78 883.29,160.31 884.60,159.38 884.92,158.91 888.18,158.45 889.80,157.51 892.08,157.05 892.73,157.05 893.06,156.58 895.01,156.11 896.31,155.65 896.96,155.18 897.29,154.71 897.61,154.25 898.59,153.78 900.22,153.31 900.54,153.31 902.17,152.84 904.45,152.38 906.73,151.91 907.38,151.44 910.96,150.98 911.28,150.51 912.91,150.04 914.54,149.58 917.47,149.11 918.77,148.64 921.05,148.64 921.37,148.18 922.02,148.18 923.65,147.71 923.97,147.24 924.63,146.77 925.60,145.84 925.93,144.44 926.25,143.51 926.58,143.04 927.88,142.57 928.21,142.57 930.16,142.11 930.48,141.64 932.11,141.17 932.44,140.71 933.09,140.24 933.74,140.24 934.71,139.77 937.97,139.30 943.83,138.84 945.13,138.37 946.76,137.90 948.06,137.44 949.36,136.97 950.34,136.50 951.31,135.57 953.59,135.57 955.22,135.10 955.87,135.10 958.15,135.10 958.47,135.10 958.80,134.64 962.38,134.17 964.33,133.70 964.65,133.70 967.58,133.23 972.47,132.77 973.77,132.77 974.09,132.30 975.07,131.83 978.97,131.37 983.53,130.90 983.86,130.90 988.09,130.43 990.69,129.97 1003.38,129.50 1006.31,128.57 1007.29,128.10 1008.91,127.63 1009.24,126.70 1015.10,126.23 1017.70,125.76 1022.91,125.30 1024.54,124.83 1026.81,124.36 1033.40,124.36 1036.00,124.36"/>
<circle cx="90.00" cy="468.00" r="3.8" fill="#ffb50c" stroke="#111827" stroke-width="1"/>
<circle cx="192.06" cy="453.99" r="3.8" fill="#ffb50c" stroke="#111827" stroke-width="1"/>
<circle cx="243.48" cy="441.39" r="3.8" fill="#ffb50c" stroke="#111827" stroke-width="1"/>
<circle cx="280.90" cy="427.38" r="3.8" fill="#ffb50c" stroke="#111827" stroke-width="1"/>
<circle cx="317.68" cy="413.84" r="3.8" fill="#ffb50c" stroke="#111827" stroke-width="1"/>
<circle cx="346.97" cy="401.70" r="3.8" fill="#ffb50c" stroke="#111827" stroke-width="1"/>
<circle cx="390.90" cy="385.36" r="3.8" fill="#ffb50c" stroke="#111827" stroke-width="1"/>
<circle cx="422.79" cy="367.15" r="3.8" fill="#ffb50c" stroke="#111827" stroke-width="1"/>
<circle cx="446.88" cy="352.68" r="3.8" fill="#ffb50c" stroke="#111827" stroke-width="1"/>
<circle cx="478.77" cy="338.20" r="3.8" fill="#ffb50c" stroke="#111827" stroke-width="1"/>
<circle cx="497.97" cy="320.46" r="3.8" fill="#ffb50c" stroke="#111827" stroke-width="1"/>
<circle cx="523.03" cy="303.19" r="3.8" fill="#ffb50c" stroke="#111827" stroke-width="1"/>
<circle cx="551.02" cy="289.65" r="3.8" fill="#ffb50c" stroke="#111827" stroke-width="1"/>
<circle cx="579.33" cy="274.70" r="3.8" fill="#ffb50c" stroke="#111827" stroke-width="1"/>
<circle cx="607.97" cy="259.30" r="3.8" fill="#ffb50c" stroke="#111827" stroke-width="1"/>
<circle cx="636.94" cy="244.36" r="3.8" fill="#ffb50c" stroke="#111827" stroke-width="1"/>
<circle cx="670.46" cy="233.15" r="3.8" fill="#ffb50c" stroke="#111827" stroke-width="1"/>
<circle cx="698.12" cy="223.35" r="3.8" fill="#ffb50c" stroke="#111827" stroke-width="1"/>
<circle cx="722.85" cy="209.34" r="3.8" fill="#ffb50c" stroke="#111827" stroke-width="1"/>
<circle cx="768.74" cy="197.20" r="3.8" fill="#ffb50c" stroke="#111827" stroke-width="1"/>
<circle cx="807.14" cy="185.06" r="3.8" fill="#ffb50c" stroke="#111827" stroke-width="1"/>
<circle cx="839.36" cy="171.52" r="3.8" fill="#ffb50c" stroke="#111827" stroke-width="1"/>
<circle cx="895.01" cy="156.11" r="3.8" fill="#ffb50c" stroke="#111827" stroke-width="1"/>
<circle cx="928.21" cy="142.57" r="3.8" fill="#ffb50c" stroke="#111827" stroke-width="1"/>
<circle cx="975.07" cy="131.83" r="3.8" fill="#ffb50c" stroke="#111827" stroke-width="1"/>
<circle cx="1036.00" cy="124.36" r="3.8" fill="#ffb50c" stroke="#111827" stroke-width="1"/>
<text x="1028.0" y="114.4" text-anchor="end" fill="#ffb50c" font-size="12" font-family="-apple-system,BlinkMacSystemFont,Segoe UI,Helvetica,Arial,sans-serif">736</text>
<rect x="90" y="514" width="14" height="14" fill="url(#repo-0)" rx="3"/>
<text x="112" y="526" fill="#3bf2af" font-size="13" font-family="-apple-system,BlinkMacSystemFont,Segoe UI,Helvetica,Arial,sans-serif">bavix/gripmock</text>
<rect x="280" y="514" width="14" height="14" fill="url(#repo-1)" rx="3"/>
<text x="302" y="526" fill="#ffb50c" font-size="13" font-family="-apple-system,BlinkMacSystemFont,Segoe UI,Helvetica,Arial,sans-serif">tokopedia/gripmock</text>
<text x="1036" y="526" text-anchor="end" fill="#9ca3af" font-size="12" font-family="-apple-system,BlinkMacSystemFont,Segoe UI,Helvetica,Arial,sans-serif">Source: https://github.com/bavix/artifact-stats/blob/master/stats/github.csv</text>
</svg>