<svg xmlns="http://www.w3.org/2000/svg" width="1100" height="560" viewBox="0 0 1100 560">
<defs>
<linearGradient id="bg" x1="0" y1="0" x2="1" y2="1"><stop offset="0%" stop-color="#0b1220"/><stop offset="100%" stop-color="#111827"/></linearGradient>
<linearGradient id="repo-0" x1="0" y1="0" x2="0" y2="1"><stop offset="0%" stop-color="#34d399"/><stop offset="100%" stop-color="#059669"/></linearGradient>
<linearGradient id="repo-1" x1="0" y1="0" x2="0" y2="1"><stop offset="0%" stop-color="#f59e0b"/><stop offset="100%" stop-color="#d97706"/></linearGradient>
</defs>
<rect x="0" y="0" width="1100" height="560" fill="url(#bg)" rx="16"/>
<text x="90" y="44" fill="#f9fafb" font-size="28" font-family="-apple-system,BlinkMacSystemFont,Segoe UI,Helvetica,Arial,sans-serif" font-weight="700">GripMock GitHub Metrics - Forks</text>
<text x="90" y="70" fill="#9ca3af" font-size="16" font-family="-apple-system,BlinkMacSystemFont,Segoe UI,Helvetica,Arial,sans-serif">GitHub forks by snapshot date</text>
<line x1="90" y1="90.0" x2="1036" y2="90.0" stroke="#1f2937" stroke-width="1"/>
<text x="80" y="95.0" text-anchor="end" fill="#9ca3af" font-size="12" font-family="-apple-system,BlinkMacSystemFont,Segoe UI,Helvetica,Arial,sans-serif">185</text>
<line x1="90" y1="153.0" x2="1036" y2="153.0" stroke="#1f2937" stroke-width="1"/>
<text x="80" y="158.0" text-anchor="end" fill="#9ca3af" font-size="12" font-family="-apple-system,BlinkMacSystemFont,Segoe UI,Helvetica,Arial,sans-serif">154</text>
<line x1="90" y1="216.0" x2="1036" y2="216.0" stroke="#1f2937" stroke-width="1"/>
<text x="80" y="221.0" text-anchor="end" fill="#9ca3af" font-size="12" font-family="-apple-system,BlinkMacSystemFont,Segoe UI,Helvetica,Arial,sans-serif">123</text>
<line x1="90" y1="279.0" x2="1036" y2="279.0" stroke="#1f2937" stroke-width="1"/>
<text x="80" y="284.0" text-anchor="end" fill="#9ca3af" font-size="12" font-family="-apple-system,BlinkMacSystemFont,Segoe UI,Helvetica,Arial,sans-serif">92</text>
<line x1="90" y1="342.0" x2="1036" y2="342.0" stroke="#1f2937" stroke-width="1"/>
<text x="80" y="347.0" text-anchor="end" fill="#9ca3af" font-size="12" font-family="-apple-system,BlinkMacSystemFont,Segoe UI,Helvetica,Arial,sans-serif">62</text>
<line x1="90" y1="405.0" x2="1036" y2="405.0" stroke="#1f2937" stroke-width="1"/>
<text x="80" y="410.0" text-anchor="end" fill="#9ca3af" font-size="12" font-family="-apple-system,BlinkMacSystemFont,Segoe UI,Helvetica,Arial,sans-serif">31</text>
<line x1="90" y1="468.0" x2="1036" y2="468.0" stroke="#1f2937" stroke-width="1"/>
<text x="80" y="473.0" text-anchor="end" fill="#9ca3af" font-size="12" font-family="-apple-system,BlinkMacSystemFont,Segoe UI,Helvetica,Arial,sans-serif">0</text>
<line x1="90" y1="468" x2="1036" y2="468" stroke="#4b5563" stroke-width="1.4"/>
<line x1="90" y1="90" x2="90" y2="468" stroke="#4b5563" stroke-width="1.4"/>
<line x1="90.0" y1="468" x2="90.0" y2="474" stroke="#6b7280" stroke-width="1"/>
<text x="90.0" y="494" text-anchor="start" fill="#9ca3af" font-size="12" font-family="-apple-system,BlinkMacSystemFont,Segoe UI,Helvetica,Arial,sans-serif">2018-04-24</text>
<line x1="279.2" y1="468" x2="279.2" y2="474" stroke="#6b7280" stroke-width="1"/>
<text x="279.2" y="494" text-anchor="middle" fill="#9ca3af" font-size="12" font-family="-apple-system,BlinkMacSystemFont,Segoe UI,Helvetica,Arial,sans-serif">2019-11-25</text>
<line x1="468.4" y1="468" x2="468.4" y2="474" stroke="#6b7280" stroke-width="1"/>
<text x="468.4" y="494" text-anchor="middle" fill="#9ca3af" font-size="12" font-family="-apple-system,BlinkMacSystemFont,Segoe UI,Helvetica,Arial,sans-serif">2021-06-26</text>
<line x1="657.6" y1="468" x2="657.6" y2="474" stroke="#6b7280" stroke-width="1"/>
<text x="657.6" y="494" text-anchor="middle" fill="#9ca3af" font-size="12" font-family="-apple-system,BlinkMacSystemFont,Segoe UI,Helvetica,Arial,sans-serif">2023-01-27</text>
<line x1="846.8" y1="468" x2="846.8" y2="474" stroke="#6b7280" stroke-width="1"/>
<text x="846.8" y="494" text-anchor="middle" fill="#9ca3af" font-size="12" font-family="-apple-system,BlinkMacSystemFont,Segoe UI,Helvetica,Arial,sans-serif">2024-08-29</text>
<line x1="1036.0" y1="468" x2="1036.0" y2="474" stroke="#6b7280" stroke-width="1"/>
<text x="1036.0" y="494" text-anchor="end" fill="#9ca3af" font-size="12" font-family="-apple-system,BlinkMacSystemFont,Segoe UI,Helvetica,Arial,sans-serif">2026-04-01</text>
<polyline fill="none" stroke="url(#repo-0)" stroke-width="4" stroke-linecap="round" stroke-linejoin="round" points="723.09,468.00 729.82,468.00 742.87,468.00 756.58,468.00 758.53,468.00 761.80,468.00 773.55,468.00 775.83,468.00 781.38,468.00 781.70,468.00 786.60,468.00 794.43,468.00 806.83,468.00 810.09,468.00 814.34,468.00 817.93,468.00 832.94,468.00 837.51,468.00 838.16,468.00 839.47,468.00 845.67,468.00 859.37,468.00 862.31,468.00 869.16,468.00 874.71,468.00 875.36,468.00 876.01,468.00 896.25,468.00 898.86,468.00 899.51,468.00 905.71,468.00 906.36,468.00 910.28,465.95 911.59,465.95 911.91,465.95 912.24,465.95 915.18,463.91 916.81,463.91 918.44,463.91 923.66,461.86 928.23,459.82 929.86,459.82 930.51,457.77 937.37,457.77 941.28,457.77 953.03,457.77 955.31,457.77 955.97,455.73 957.93,455.73 959.88,455.73 962.82,453.68 968.04,453.68 974.90,453.68 979.14,453.68 990.56,453.68 992.84,453.68 997.74,453.68 998.07,453.68 999.04,453.68 1001.65,453.68 1001.98,451.64 1010.79,451.64 1017.65,451.64 1018.30,451.64 1020.58,451.64 1027.11,451.64 1029.39,451.64 1031.03,451.64 1032.66,451.64 1036.00,451.64"/>
<circle cx="723.09" cy="468.00" r="3.8" fill="#3bf2af" stroke="#111827" stroke-width="1"/>
<circle cx="742.87" cy="468.00" r="3.8" fill="#3bf2af" stroke="#111827" stroke-width="1"/>
<circle cx="758.53" cy="468.00" r="3.8" fill="#3bf2af" stroke="#111827" stroke-width="1"/>
<circle cx="773.55" cy="468.00" r="3.8" fill="#3bf2af" stroke="#111827" stroke-width="1"/>
<circle cx="781.38" cy="468.00" r="3.8" fill="#3bf2af" stroke="#111827" stroke-width="1"/>
<circle cx="786.60" cy="468.00" r="3.8" fill="#3bf2af" stroke="#111827" stroke-width="1"/>
<circle cx="806.83" cy="468.00" r="3.8" fill="#3bf2af" stroke="#111827" stroke-width="1"/>
<circle cx="814.34" cy="468.00" r="3.8" fill="#3bf2af" stroke="#111827" stroke-width="1"/>
<circle cx="832.94" cy="468.00" r="3.8" fill="#3bf2af" stroke="#111827" stroke-width="1"/>
<circle cx="838.16" cy="468.00" r="3.8" fill="#3bf2af" stroke="#111827" stroke-width="1"/>
<circle cx="845.67" cy="468.00" r="3.8" fill="#3bf2af" stroke="#111827" stroke-width="1"/>
<circle cx="862.31" cy="468.00" r="3.8" fill="#3bf2af" stroke="#111827" stroke-width="1"/>
<circle cx="874.71" cy="468.00" r="3.8" fill="#3bf2af" stroke="#111827" stroke-width="1"/>
<circle cx="876.01" cy="468.00" r="3.8" fill="#3bf2af" stroke="#111827" stroke-width="1"/>
<circle cx="898.86" cy="468.00" r="3.8" fill="#3bf2af" stroke="#111827" stroke-width="1"/>
<circle cx="905.71" cy="468.00" r="3.8" fill="#3bf2af" stroke="#111827" stroke-width="1"/>
<circle cx="910.28" cy="465.95" r="3.8" fill="#3bf2af" stroke="#111827" stroke-width="1"/>
<circle cx="911.91" cy="465.95" r="3.8" fill="#3bf2af" stroke="#111827" stroke-width="1"/>
<circle cx="915.18" cy="463.91" r="3.8" fill="#3bf2af" stroke="#111827" stroke-width="1"/>
<circle cx="918.44" cy="463.91" r="3.8" fill="#3bf2af" stroke="#111827" stroke-width="1"/>
<circle cx="928.23" cy="459.82" r="3.8" fill="#3bf2af" stroke="#111827" stroke-width="1"/>
<circle cx="930.51" cy="457.77" r="3.8" fill="#3bf2af" stroke="#111827" stroke-width="1"/>
<circle cx="941.28" cy="457.77" r="3.8" fill="#3bf2af" stroke="#111827" stroke-width="1"/>
<circle cx="955.31" cy="457.77" r="3.8" fill="#3bf2af" stroke="#111827" stroke-width="1"/>
<circle cx="957.93" cy="455.73" r="3.8" fill="#3bf2af" stroke="#111827" stroke-width="1"/>
<circle cx="962.82" cy="453.68" r="3.8" fill="#3bf2af" stroke="#111827" stroke-width="1"/>
<circle cx="974.90" cy="453.68" r="3.8" fill="#3bf2af" stroke="#111827" stroke-width="1"/>
<circle cx="990.56" cy="453.68" r="3.8" fill="#3bf2af" stroke="#111827" stroke-width="1"/>
<circle cx="997.74" cy="453.68" r="3.8" fill="#3bf2af" stroke="#111827" stroke-width="1"/>
<circle cx="999.04" cy="453.68" r="3.8" fill="#3bf2af" stroke="#111827" stroke-width="1"/>
<circle cx="1001.98" cy="451.64" r="3.8" fill="#3bf2af" stroke="#111827" stroke-width="1"/>
<circle cx="1017.65" cy="451.64" r="3.8" fill="#3bf2af" stroke="#111827" stroke-width="1"/>
<circle cx="1020.58" cy="451.64" r="3.8" fill="#3bf2af" stroke="#111827" stroke-width="1"/>
<circle cx="1029.39" cy="451.64" r="3.8" fill="#3bf2af" stroke="#111827" stroke-width="1"/>
<circle cx="1032.66" cy="451.64" r="3.8" fill="#3bf2af" stroke="#111827" stroke-width="1"/>
<circle cx="1036.00" cy="451.64" r="3.8" fill="#3bf2af" stroke="#111827" stroke-width="1"/>
<text x="1028.0" y="441.6" text-anchor="end" fill="#3bf2af" font-size="12" font-family="-apple-system,BlinkMacSystemFont,Segoe UI,Helvetica,Arial,sans-serif">8</text>
<polyline fill="none" stroke="url(#repo-1)" stroke-width="4" stroke-linecap="round" stroke-linejoin="round" points="90.00,468.00 91.83,468.00 92.48,468.00 96.07,468.00 99.66,468.00 136.86,468.00 137.84,465.95 143.71,463.91 149.59,463.91 154.16,461.86 157.75,461.86 158.40,461.86 158.73,461.86 159.05,461.86 160.68,461.86 161.34,461.86 165.58,459.82 165.90,459.82 169.82,459.82 170.80,459.82 171.13,459.82 172.76,459.82 174.39,459.82 176.35,459.82 177.33,459.82 182.55,459.82 185.16,459.82 186.79,459.82 187.12,459.82 192.34,459.82 192.66,459.82 193.32,457.77 196.58,457.77 197.23,457.77 197.56,455.73 197.89,453.68 203.76,453.68 205.39,451.64 211.59,451.64 212.90,451.64 213.55,449.59 216.16,447.55 219.10,447.55 223.01,445.50 223.34,445.50 225.62,445.50 227.91,445.50 231.17,445.50 232.15,445.50 234.44,445.50 236.72,445.50 238.68,445.50 239.00,445.50 239.33,445.50 241.94,445.50 242.59,445.50 243.25,445.50 243.57,443.45 243.90,441.41 244.23,441.41 246.84,441.41 247.49,441.41 250.10,439.36 255.65,439.36 256.30,437.32 256.63,437.32 256.95,437.32 257.61,433.23 258.91,433.23 259.24,433.23 261.20,433.23 261.52,433.23 263.81,433.23 264.78,433.23 265.44,433.23 266.42,431.18 268.05,431.18 268.37,429.14 269.35,429.14 272.29,429.14 275.88,429.14 276.86,429.14 277.84,429.14 278.16,429.14 279.47,429.14 279.80,429.14 280.45,429.14 281.43,429.14 283.06,429.14 283.71,429.14 284.04,429.14 284.37,429.14 286.00,429.14 286.98,429.14 287.63,429.14 288.93,427.09 289.26,425.05 290.89,425.05 294.48,425.05 296.44,425.05 298.07,423.00 298.40,423.00 300.68,423.00 302.31,423.00 302.64,420.95 304.60,420.95 304.92,420.95 305.58,418.91 306.56,416.86 306.88,416.86 307.21,416.86 307.54,416.86 312.10,414.82 316.02,414.82 316.35,414.82 317.00,414.82 318.30,414.82 318.63,414.82 320.26,412.77 320.92,410.73 321.24,410.73 321.57,410.73 321.89,410.73 323.53,410.73 326.79,408.68 328.09,408.68 328.42,406.64 329.07,406.64 329.40,404.59 330.05,402.55 330.71,402.55 331.36,400.50 332.66,398.45 333.32,398.45 335.27,398.45 335.60,398.45 336.91,398.45 338.86,398.45 340.17,398.45 341.47,396.41 341.80,396.41 342.45,396.41 343.43,396.41 344.41,396.41 346.04,396.41 347.67,396.41 349.31,396.41 352.24,394.36 354.85,394.36 355.18,394.36 355.51,394.36 360.40,394.36 361.38,394.36 362.36,394.36 362.69,394.36 363.67,394.36 365.95,394.36 366.28,394.36 367.91,394.36 369.87,392.32 373.13,392.32 374.11,392.32 375.09,392.32 376.39,392.32 377.05,392.32 377.37,392.32 378.02,390.27 379.66,390.27 380.96,390.27 385.20,388.23 386.84,388.23 387.81,388.23 390.75,386.18 391.40,384.14 391.73,384.14 392.06,384.14 393.69,384.14 394.67,384.14 395.97,384.14 396.30,384.14 396.95,384.14 399.24,384.14 399.56,384.14 400.22,384.14 402.50,384.14 403.15,384.14 404.46,384.14 405.44,382.09 405.76,382.09 406.09,382.09 410.01,382.09 410.66,382.09 411.96,382.09 412.29,382.09 413.59,382.09 414.90,382.09 415.23,382.09 415.55,382.09 417.18,382.09 417.84,382.09 419.47,380.05 420.77,378.00 421.75,378.00 423.71,378.00 425.02,378.00 426.65,378.00 426.97,378.00 427.63,378.00 428.28,378.00 428.93,378.00 429.26,375.95 430.24,373.91 430.56,373.91 430.89,373.91 431.22,371.86 432.85,371.86 433.50,369.82 434.81,369.82 435.46,369.82 436.44,369.82 437.09,369.82 438.07,369.82 439.38,369.82 440.68,367.77 441.99,365.73 442.31,365.73 443.94,365.73 444.27,365.73 444.92,365.73 445.25,365.73 445.90,365.73 446.23,365.73 447.86,365.73 449.17,365.73 450.80,363.68 455.37,363.68 455.69,363.68 456.02,361.64 456.35,361.64 457.32,357.55 457.65,357.55 457.98,357.55 458.30,357.55 459.61,355.50 460.26,355.50 460.59,355.50 461.57,353.45 461.89,351.41 462.55,351.41 464.50,351.41 464.83,351.41 465.16,351.41 466.46,351.41 468.75,351.41 469.07,351.41 469.72,351.41 472.01,351.41 473.64,351.41 475.27,349.36 478.21,347.32 479.52,347.32 479.84,347.32 480.17,345.27 480.82,345.27 481.15,343.23 481.47,343.23 482.45,343.23 482.78,343.23 483.76,343.23 485.39,343.23 485.72,339.14 486.04,339.14 486.37,339.14 486.69,339.14 487.02,339.14 487.35,339.14 488.00,339.14 488.33,339.14 488.65,335.05 489.63,335.05 490.28,335.05 490.94,335.05 492.24,335.05 493.55,335.05 493.87,335.05 494.20,333.00 494.53,330.95 496.16,330.95 497.46,330.95 497.79,330.95 499.10,330.95 499.42,330.95 499.75,328.91 503.01,328.91 503.34,328.91 503.99,328.91 505.62,328.91 506.27,328.91 506.93,328.91 508.23,326.86 508.89,326.86 509.21,324.82 509.54,324.82 509.86,322.77 511.17,322.77 511.50,322.77 512.15,322.77 512.48,322.77 513.45,322.77 513.78,322.77 515.09,322.77 518.02,322.77 519.00,322.77 519.98,322.77 520.31,320.73 520.63,320.73 520.96,318.68 521.29,318.68 521.94,318.68 524.22,316.64 525.53,316.64 525.85,316.64 526.18,316.64 527.16,316.64 528.47,314.59 529.77,314.59 531.40,314.59 531.73,314.59 535.32,314.59 536.95,314.59 537.60,314.59 538.26,314.59 540.87,314.59 541.52,314.59 541.85,314.59 542.82,314.59 543.48,314.59 544.13,312.55 544.78,312.55 545.44,312.55 546.74,312.55 547.07,312.55 547.39,312.55 549.02,310.50 549.68,310.50 550.00,310.50 550.98,310.50 551.64,310.50 552.29,310.50 553.92,310.50 554.25,308.45 554.57,308.45 555.55,308.45 556.20,306.41 556.86,306.41 558.49,306.41 561.43,306.41 561.75,306.41 563.06,306.41 563.38,306.41 564.69,306.41 565.02,306.41 565.34,304.36 565.99,304.36 566.97,304.36 567.30,304.36 567.63,304.36 568.28,304.36 569.58,304.36 570.56,302.32 570.89,302.32 575.13,302.32 575.46,302.32 576.44,302.32 577.09,302.32 579.37,302.32 580.35,300.27 580.68,300.27 581.01,300.27 583.62,300.27 583.94,300.27 584.27,300.27 585.25,300.27 585.57,300.27 586.23,300.27 588.51,300.27 589.16,300.27 589.82,296.18 590.80,296.18 591.12,296.18 592.10,296.18 597.65,296.18 598.95,296.18 599.28,296.18 600.91,296.18 601.57,294.14 601.89,294.14 602.22,292.09 602.54,292.09 603.52,290.05 604.50,290.05 604.83,290.05 606.79,290.05 607.11,290.05 607.77,290.05 608.74,290.05 609.40,290.05 609.72,290.05 611.03,290.05 611.68,288.00 612.33,288.00 613.31,288.00 613.64,288.00 617.88,288.00 618.86,285.95 619.84,285.95 620.17,285.95 621.80,285.95 622.12,285.95 622.45,285.95 622.78,285.95 624.08,285.95 625.06,285.95 627.35,285.95 628.32,285.95 628.65,285.95 629.30,283.91 629.96,283.91 631.91,283.91 632.24,283.91 635.50,283.91 635.83,283.91 636.81,283.91 637.14,283.91 638.11,283.91 638.44,279.82 638.77,279.82 640.40,279.82 640.73,279.82 641.70,279.82 643.34,279.82 644.64,279.82 645.62,277.77 649.21,275.73 649.54,273.68 651.49,271.64 652.15,271.64 652.80,269.59 654.11,267.55 654.43,265.50 657.04,265.50 659.98,265.50 660.63,265.50 660.96,263.45 661.28,263.45 664.22,261.41 665.53,259.36 665.85,259.36 666.18,259.36 666.83,257.32 668.14,257.32 668.46,257.32 669.12,257.32 670.42,257.32 672.05,257.32 672.38,255.27 673.03,255.27 673.36,255.27 673.69,253.23 674.01,253.23 674.34,253.23 674.99,253.23 678.91,253.23 681.19,251.18 683.48,249.14 684.45,247.09 684.78,245.05 685.11,245.05 686.09,243.00 686.41,243.00 688.70,240.95 689.02,240.95 690.33,238.91 690.66,238.91 690.98,238.91 692.29,238.91 693.27,236.86 694.57,236.86 695.55,234.82 695.88,232.77 697.83,232.77 698.49,232.77 699.47,232.77 699.79,232.77 700.45,232.77 702.40,230.73 703.06,228.68 703.71,228.68 704.04,228.68 704.69,228.68 705.01,228.68 705.99,228.68 706.32,228.68 706.97,228.68 708.28,228.68 708.60,228.68 709.26,228.68 709.91,228.68 711.21,228.68 711.54,226.64 712.85,226.64 714.15,226.64 715.78,224.59 716.76,224.59 717.09,224.59 718.72,222.55 719.05,222.55 720.35,222.55 721.33,222.55 721.98,220.50 722.96,220.50 724.27,220.50 724.59,220.50 725.25,220.50 727.86,220.50 729.82,218.45 732.10,218.45 735.69,218.45 736.02,216.41 736.34,216.41 738.30,216.41 738.95,216.41 739.28,216.41 739.61,214.36 740.58,214.36 740.91,212.32 741.56,212.32 744.17,212.32 745.81,212.32 746.46,210.27 748.09,208.23 749.40,208.23 752.33,206.18 753.64,204.14 755.60,204.14 761.47,202.09 763.75,200.05 764.41,200.05 767.34,200.05 768.00,200.05 768.65,200.05 770.61,200.05 771.26,200.05 771.91,200.05 772.24,198.00 772.57,198.00 775.18,198.00 778.11,198.00 779.75,198.00 781.70,198.00 784.64,195.95 787.25,195.95 788.56,195.95 789.21,195.95 790.51,195.95 792.15,195.95 792.80,195.95 793.45,195.95 795.41,195.95 796.71,195.95 797.04,195.95 799.98,193.91 800.30,193.91 800.63,191.86 801.28,191.86 802.26,189.82 803.57,189.82 805.53,189.82 805.85,189.82 806.83,187.77 809.12,185.73 811.40,185.73 813.36,185.73 815.97,185.73 816.62,185.73 816.95,185.73 817.93,183.68 818.25,183.68 818.58,183.68 819.23,183.68 820.54,181.64 822.82,181.64 823.15,179.59 824.13,179.59 826.09,179.59 827.72,179.59 828.04,179.59 829.35,179.59 830.33,179.59 830.65,177.55 831.96,177.55 832.61,175.50 834.24,175.50 834.57,173.45 834.90,173.45 836.85,173.45 837.83,173.45 838.16,173.45 840.12,171.41 841.42,171.41 841.75,171.41 842.08,169.36 844.36,169.36 845.99,169.36 849.91,169.36 850.23,169.36 852.19,169.36 855.13,169.36 858.39,169.36 860.35,169.36 860.68,169.36 861.00,169.36 861.66,169.36 864.27,169.36 866.55,169.36 869.81,169.36 870.14,167.32 873.08,167.32 874.06,167.32 875.36,167.32 885.48,167.32 886.78,167.32 887.11,167.32 890.37,167.32 892.01,167.32 894.29,167.32 894.94,165.27 895.27,165.27 897.23,165.27 898.53,165.27 899.18,165.27 899.51,165.27 899.84,165.27 900.82,165.27 902.45,165.27 902.77,163.23 904.41,163.23 906.69,163.23 908.98,163.23 909.63,163.23 913.22,163.23 913.54,163.23 915.18,163.23 916.81,163.23 919.74,163.23 921.05,163.23 923.33,159.14 923.66,159.14 924.31,157.09 925.94,157.09 926.27,157.09 926.92,157.09 927.90,157.09 928.23,157.09 928.56,157.09 928.88,157.09 930.19,157.09 930.51,155.05 932.47,155.05 932.80,155.05 934.43,155.05 934.76,155.05 935.41,155.05 936.06,153.00 937.04,153.00 940.30,153.00 946.18,153.00 947.48,153.00 949.11,150.95 950.42,150.95 951.73,150.95 952.70,150.95 953.68,150.95 955.97,148.91 957.60,148.91 958.25,146.86 960.54,144.82 960.86,142.77 961.19,142.77 964.78,142.77 966.74,142.77 967.06,140.73 970.00,140.73 974.90,140.73 976.20,138.68 976.53,138.68 977.51,138.68 981.42,138.68 985.99,138.68 986.32,136.64 990.56,136.64 993.17,136.64 1005.90,136.64 1008.83,136.64 1009.81,136.64 1011.44,136.64 1011.77,136.64 1017.65,136.64 1020.26,136.64 1025.48,136.64 1027.11,136.64 1029.39,136.64 1036.00,124.36"/>
<circle cx="90.00" cy="468.00" r="3.8" fill="#ffb50c" stroke="#111827" stroke-width="1"/>
<circle cx="192.34" cy="459.82" r="3.8" fill="#ffb50c" stroke="#111827" stroke-width="1"/>
<circle cx="243.90" cy="441.41" r="3.8" fill="#ffb50c" stroke="#111827" stroke-width="1"/>
<circle cx="281.43" cy="429.14" r="3.8" fill="#ffb50c" stroke="#111827" stroke-width="1"/>
<circle cx="318.30" cy="414.82" r="3.8" fill="#ffb50c" stroke="#111827" stroke-width="1"/>
<circle cx="347.67" cy="396.41" r="3.8" fill="#ffb50c" stroke="#111827" stroke-width="1"/>
<circle cx="391.73" cy="384.14" r="3.8" fill="#ffb50c" stroke="#111827" stroke-width="1"/>
<circle cx="423.71" cy="378.00" r="3.8" fill="#ffb50c" stroke="#111827" stroke-width="1"/>
<circle cx="447.86" cy="365.73" r="3.8" fill="#ffb50c" stroke="#111827" stroke-width="1"/>
<circle cx="479.84" cy="347.32" r="3.8" fill="#ffb50c" stroke="#111827" stroke-width="1"/>
<circle cx="499.10" cy="330.95" r="3.8" fill="#ffb50c" stroke="#111827" stroke-width="1"/>
<circle cx="524.22" cy="316.64" r="3.8" fill="#ffb50c" stroke="#111827" stroke-width="1"/>
<circle cx="552.29" cy="310.50" r="3.8" fill="#ffb50c" stroke="#111827" stroke-width="1"/>
<circle cx="580.68" cy="300.27" r="3.8" fill="#ffb50c" stroke="#111827" stroke-width="1"/>
<circle cx="609.40" cy="290.05" r="3.8" fill="#ffb50c" stroke="#111827" stroke-width="1"/>
<circle cx="638.44" cy="279.82" r="3.8" fill="#ffb50c" stroke="#111827" stroke-width="1"/>
<circle cx="672.05" cy="257.32" r="3.8" fill="#ffb50c" stroke="#111827" stroke-width="1"/>
<circle cx="699.79" cy="232.77" r="3.8" fill="#ffb50c" stroke="#111827" stroke-width="1"/>
<circle cx="724.59" cy="220.50" r="3.8" fill="#ffb50c" stroke="#111827" stroke-width="1"/>
<circle cx="770.61" cy="200.05" r="3.8" fill="#ffb50c" stroke="#111827" stroke-width="1"/>
<circle cx="809.12" cy="185.73" r="3.8" fill="#ffb50c" stroke="#111827" stroke-width="1"/>
<circle cx="841.42" cy="171.41" r="3.8" fill="#ffb50c" stroke="#111827" stroke-width="1"/>
<circle cx="897.23" cy="165.27" r="3.8" fill="#ffb50c" stroke="#111827" stroke-width="1"/>
<circle cx="930.51" cy="155.05" r="3.8" fill="#ffb50c" stroke="#111827" stroke-width="1"/>
<circle cx="977.51" cy="138.68" r="3.8" fill="#ffb50c" stroke="#111827" stroke-width="1"/>
<circle cx="1036.00" cy="124.36" r="3.8" fill="#ffb50c" stroke="#111827" stroke-width="1"/>
<text x="1028.0" y="114.4" text-anchor="end" fill="#ffb50c" font-size="12" font-family="-apple-system,BlinkMacSystemFont,Segoe UI,Helvetica,Arial,sans-serif">168</text>
<rect x="90" y="514" width="14" height="14" fill="url(#repo-0)" rx="3"/>
<text x="112" y="526" fill="#3bf2af" font-size="13" font-family="-apple-system,BlinkMacSystemFont,Segoe UI,Helvetica,Arial,sans-serif">bavix/gripmock</text>
<rect x="280" y="514" width="14" height="14" fill="url(#repo-1)" rx="3"/>
<text x="302" y="526" fill="#ffb50c" font-size="13" font-family="-apple-system,BlinkMacSystemFont,Segoe UI,Helvetica,Arial,sans-serif">tokopedia/gripmock</text>
<text x="1036" y="526" text-anchor="end" fill="#9ca3af" font-size="12" font-family="-apple-system,BlinkMacSystemFont,Segoe UI,Helvetica,Arial,sans-serif">Source: https://github.com/bavix/artifact-stats/blob/master/stats/github.csv</text>
</svg>