<svg xmlns="http://www.w3.org/2000/svg" width="1100" height="560" viewBox="0 0 1100 560">
<defs>
<linearGradient id="bg" x1="0" y1="0" x2="1" y2="1"><stop offset="0%" stop-color="#0b1220"/><stop offset="100%" stop-color="#111827"/></linearGradient>
<linearGradient id="repo-0" x1="0" y1="0" x2="0" y2="1"><stop offset="0%" stop-color="#34d399"/><stop offset="100%" stop-color="#059669"/></linearGradient>
<linearGradient id="repo-1" x1="0" y1="0" x2="0" y2="1"><stop offset="0%" stop-color="#f59e0b"/><stop offset="100%" stop-color="#d97706"/></linearGradient>
</defs>
<rect x="0" y="0" width="1100" height="560" fill="url(#bg)" rx="16"/>
<text x="90" y="44" fill="#f9fafb" font-size="28" font-family="-apple-system,BlinkMacSystemFont,Segoe UI,Helvetica,Arial,sans-serif" font-weight="700">GripMock GitHub Metrics - Forks</text>
<text x="90" y="70" fill="#9ca3af" font-size="16" font-family="-apple-system,BlinkMacSystemFont,Segoe UI,Helvetica,Arial,sans-serif">GitHub forks by snapshot date</text>
<line x1="90" y1="90.0" x2="1036" y2="90.0" stroke="#1f2937" stroke-width="1"/>
<text x="80" y="95.0" text-anchor="end" fill="#9ca3af" font-size="12" font-family="-apple-system,BlinkMacSystemFont,Segoe UI,Helvetica,Arial,sans-serif">185</text>
<line x1="90" y1="153.0" x2="1036" y2="153.0" stroke="#1f2937" stroke-width="1"/>
<text x="80" y="158.0" text-anchor="end" fill="#9ca3af" font-size="12" font-family="-apple-system,BlinkMacSystemFont,Segoe UI,Helvetica,Arial,sans-serif">154</text>
<line x1="90" y1="216.0" x2="1036" y2="216.0" stroke="#1f2937" stroke-width="1"/>
<text x="80" y="221.0" text-anchor="end" fill="#9ca3af" font-size="12" font-family="-apple-system,BlinkMacSystemFont,Segoe UI,Helvetica,Arial,sans-serif">123</text>
<line x1="90" y1="279.0" x2="1036" y2="279.0" stroke="#1f2937" stroke-width="1"/>
<text x="80" y="284.0" text-anchor="end" fill="#9ca3af" font-size="12" font-family="-apple-system,BlinkMacSystemFont,Segoe UI,Helvetica,Arial,sans-serif">92</text>
<line x1="90" y1="342.0" x2="1036" y2="342.0" stroke="#1f2937" stroke-width="1"/>
<text x="80" y="347.0" text-anchor="end" fill="#9ca3af" font-size="12" font-family="-apple-system,BlinkMacSystemFont,Segoe UI,Helvetica,Arial,sans-serif">62</text>
<line x1="90" y1="405.0" x2="1036" y2="405.0" stroke="#1f2937" stroke-width="1"/>
<text x="80" y="410.0" text-anchor="end" fill="#9ca3af" font-size="12" font-family="-apple-system,BlinkMacSystemFont,Segoe UI,Helvetica,Arial,sans-serif">31</text>
<line x1="90" y1="468.0" x2="1036" y2="468.0" stroke="#1f2937" stroke-width="1"/>
<text x="80" y="473.0" text-anchor="end" fill="#9ca3af" font-size="12" font-family="-apple-system,BlinkMacSystemFont,Segoe UI,Helvetica,Arial,sans-serif">0</text>
<line x1="90" y1="468" x2="1036" y2="468" stroke="#4b5563" stroke-width="1.4"/>
<line x1="90" y1="90" x2="90" y2="468" stroke="#4b5563" stroke-width="1.4"/>
<line x1="90.0" y1="468" x2="90.0" y2="474" stroke="#6b7280" stroke-width="1"/>
<text x="90.0" y="494" text-anchor="start" fill="#9ca3af" font-size="12" font-family="-apple-system,BlinkMacSystemFont,Segoe UI,Helvetica,Arial,sans-serif">2018-04-24</text>
<line x1="279.2" y1="468" x2="279.2" y2="474" stroke="#6b7280" stroke-width="1"/>
<text x="279.2" y="494" text-anchor="middle" fill="#9ca3af" font-size="12" font-family="-apple-system,BlinkMacSystemFont,Segoe UI,Helvetica,Arial,sans-serif">2019-11-26</text>
<line x1="468.4" y1="468" x2="468.4" y2="474" stroke="#6b7280" stroke-width="1"/>
<text x="468.4" y="494" text-anchor="middle" fill="#9ca3af" font-size="12" font-family="-apple-system,BlinkMacSystemFont,Segoe UI,Helvetica,Arial,sans-serif">2021-06-29</text>
<line x1="657.6" y1="468" x2="657.6" y2="474" stroke="#6b7280" stroke-width="1"/>
<text x="657.6" y="494" text-anchor="middle" fill="#9ca3af" font-size="12" font-family="-apple-system,BlinkMacSystemFont,Segoe UI,Helvetica,Arial,sans-serif">2023-01-31</text>
<line x1="846.8" y1="468" x2="846.8" y2="474" stroke="#6b7280" stroke-width="1"/>
<text x="846.8" y="494" text-anchor="middle" fill="#9ca3af" font-size="12" font-family="-apple-system,BlinkMacSystemFont,Segoe UI,Helvetica,Arial,sans-serif">2024-09-03</text>
<line x1="1036.0" y1="468" x2="1036.0" y2="474" stroke="#6b7280" stroke-width="1"/>
<text x="1036.0" y="494" text-anchor="end" fill="#9ca3af" font-size="12" font-family="-apple-system,BlinkMacSystemFont,Segoe UI,Helvetica,Arial,sans-serif">2026-04-07</text>
<polyline fill="none" stroke="url(#repo-0)" stroke-width="4" stroke-linecap="round" stroke-linejoin="round" points="721.79,468.00 728.50,468.00 741.53,468.00 755.20,468.00 757.16,468.00 760.41,468.00 772.14,468.00 774.42,468.00 779.95,468.00 780.28,468.00 785.16,468.00 792.98,468.00 805.36,468.00 808.61,468.00 812.85,468.00 816.43,468.00 831.41,468.00 835.97,468.00 836.62,468.00 837.92,468.00 844.11,468.00 857.79,468.00 860.72,468.00 867.56,468.00 873.09,468.00 873.75,468.00 874.40,468.00 894.59,468.00 897.19,468.00 897.84,468.00 904.03,468.00 904.68,468.00 908.59,465.95 909.89,465.95 910.22,465.95 910.55,465.95 913.48,463.91 915.10,463.91 916.73,463.91 921.94,461.86 926.50,459.82 928.13,459.82 928.78,457.77 935.62,457.77 939.53,457.77 951.25,457.77 953.53,457.77 954.18,455.73 956.14,455.73 958.09,455.73 961.02,453.68 966.23,453.68 973.07,453.68 977.31,453.68 988.71,453.68 990.98,453.68 995.87,453.68 996.20,453.68 997.17,453.68 999.78,453.68 1000.10,451.64 1008.90,451.64 1015.74,451.64 1016.39,451.64 1018.67,451.64 1025.18,451.64 1027.46,451.64 1029.09,451.64 1030.72,451.64 1034.05,451.64 1035.02,451.64 1035.35,451.64 1036.00,451.64"/>
<circle cx="721.79" cy="468.00" r="3.8" fill="#3bf2af" stroke="#111827" stroke-width="1"/>
<circle cx="755.20" cy="468.00" r="3.8" fill="#3bf2af" stroke="#111827" stroke-width="1"/>
<circle cx="772.14" cy="468.00" r="3.8" fill="#3bf2af" stroke="#111827" stroke-width="1"/>
<circle cx="780.28" cy="468.00" r="3.8" fill="#3bf2af" stroke="#111827" stroke-width="1"/>
<circle cx="805.36" cy="468.00" r="3.8" fill="#3bf2af" stroke="#111827" stroke-width="1"/>
<circle cx="816.43" cy="468.00" r="3.8" fill="#3bf2af" stroke="#111827" stroke-width="1"/>
<circle cx="836.62" cy="468.00" r="3.8" fill="#3bf2af" stroke="#111827" stroke-width="1"/>
<circle cx="857.79" cy="468.00" r="3.8" fill="#3bf2af" stroke="#111827" stroke-width="1"/>
<circle cx="873.09" cy="468.00" r="3.8" fill="#3bf2af" stroke="#111827" stroke-width="1"/>
<circle cx="894.59" cy="468.00" r="3.8" fill="#3bf2af" stroke="#111827" stroke-width="1"/>
<circle cx="904.03" cy="468.00" r="3.8" fill="#3bf2af" stroke="#111827" stroke-width="1"/>
<circle cx="909.89" cy="465.95" r="3.8" fill="#3bf2af" stroke="#111827" stroke-width="1"/>
<circle cx="913.48" cy="463.91" r="3.8" fill="#3bf2af" stroke="#111827" stroke-width="1"/>
<circle cx="921.94" cy="461.86" r="3.8" fill="#3bf2af" stroke="#111827" stroke-width="1"/>
<circle cx="928.78" cy="457.77" r="3.8" fill="#3bf2af" stroke="#111827" stroke-width="1"/>
<circle cx="951.25" cy="457.77" r="3.8" fill="#3bf2af" stroke="#111827" stroke-width="1"/>
<circle cx="956.14" cy="455.73" r="3.8" fill="#3bf2af" stroke="#111827" stroke-width="1"/>
<circle cx="966.23" cy="453.68" r="3.8" fill="#3bf2af" stroke="#111827" stroke-width="1"/>
<circle cx="988.71" cy="453.68" r="3.8" fill="#3bf2af" stroke="#111827" stroke-width="1"/>
<circle cx="996.20" cy="453.68" r="3.8" fill="#3bf2af" stroke="#111827" stroke-width="1"/>
<circle cx="1000.10" cy="451.64" r="3.8" fill="#3bf2af" stroke="#111827" stroke-width="1"/>
<circle cx="1016.39" cy="451.64" r="3.8" fill="#3bf2af" stroke="#111827" stroke-width="1"/>
<circle cx="1027.46" cy="451.64" r="3.8" fill="#3bf2af" stroke="#111827" stroke-width="1"/>
<circle cx="1034.05" cy="451.64" r="3.8" fill="#3bf2af" stroke="#111827" stroke-width="1"/>
<circle cx="1036.00" cy="451.64" r="3.8" fill="#3bf2af" stroke="#111827" stroke-width="1"/>
<text x="1028.0" y="441.6" text-anchor="end" fill="#3bf2af" font-size="12" font-family="-apple-system,BlinkMacSystemFont,Segoe UI,Helvetica,Arial,sans-serif">8</text>
<polyline fill="none" stroke="url(#repo-1)" stroke-width="4" stroke-linecap="round" stroke-linejoin="round" points="90.00,468.00 91.82,468.00 92.47,468.00 96.06,468.00 99.64,468.00 136.76,468.00 137.74,465.95 143.60,463.91 149.47,463.91 154.02,461.86 157.61,461.86 158.26,461.86 158.58,461.86 158.91,461.86 160.54,461.86 161.19,461.86 165.42,459.82 165.75,459.82 169.66,459.82 170.63,459.82 170.96,459.82 172.59,459.82 174.22,459.82 176.17,459.82 177.15,459.82 182.36,459.82 184.96,459.82 186.59,459.82 186.92,459.82 192.13,459.82 192.45,459.82 193.10,457.77 196.36,457.77 197.01,457.77 197.34,455.73 197.66,453.68 203.53,453.68 205.15,451.64 211.34,451.64 212.64,451.64 213.30,449.59 215.90,447.55 218.83,447.55 222.74,445.50 223.07,445.50 225.35,445.50 227.62,445.50 230.88,445.50 231.86,445.50 234.14,445.50 236.42,445.50 238.37,445.50 238.70,445.50 239.02,445.50 241.63,445.50 242.28,445.50 242.93,445.50 243.26,443.45 243.58,441.41 243.91,441.41 246.51,441.41 247.16,441.41 249.77,439.36 255.31,439.36 255.96,437.32 256.28,437.32 256.61,437.32 257.26,433.23 258.56,433.23 258.89,433.23 260.84,433.23 261.17,433.23 263.45,433.23 264.43,433.23 265.08,433.23 266.05,431.18 267.68,431.18 268.01,429.14 268.98,429.14 271.92,429.14 275.50,429.14 276.47,429.14 277.45,429.14 277.78,429.14 279.08,429.14 279.41,429.14 280.06,429.14 281.03,429.14 282.66,429.14 283.31,429.14 283.64,429.14 283.97,429.14 285.59,429.14 286.57,429.14 287.22,429.14 288.52,427.09 288.85,425.05 290.48,425.05 294.06,425.05 296.01,425.05 297.64,423.00 297.97,423.00 300.25,423.00 301.88,423.00 302.20,420.95 304.16,420.95 304.48,420.95 305.13,418.91 306.11,416.86 306.44,416.86 306.76,416.86 307.09,416.86 311.65,414.82 315.55,414.82 315.88,414.82 316.53,414.82 317.83,414.82 318.16,414.82 319.79,412.77 320.44,410.73 320.77,410.73 321.09,410.73 321.42,410.73 323.04,410.73 326.30,408.68 327.60,408.68 327.93,406.64 328.58,406.64 328.91,404.59 329.56,402.55 330.21,402.55 330.86,400.50 332.16,398.45 332.81,398.45 334.77,398.45 335.09,398.45 336.40,398.45 338.35,398.45 339.65,398.45 340.96,396.41 341.28,396.41 341.93,396.41 342.91,396.41 343.89,396.41 345.52,396.41 347.14,396.41 348.77,396.41 351.70,394.36 354.31,394.36 354.63,394.36 354.96,394.36 359.85,394.36 360.82,394.36 361.80,394.36 362.12,394.36 363.10,394.36 365.38,394.36 365.71,394.36 367.34,394.36 369.29,392.32 372.55,392.32 373.52,392.32 374.50,392.32 375.80,392.32 376.45,392.32 376.78,392.32 377.43,390.27 379.06,390.27 380.36,390.27 384.60,388.23 386.22,388.23 387.20,388.23 390.13,386.18 390.78,384.14 391.11,384.14 391.43,384.14 393.06,384.14 394.04,384.14 395.34,384.14 395.67,384.14 396.32,384.14 398.60,384.14 398.93,384.14 399.58,384.14 401.86,384.14 402.51,384.14 403.81,384.14 404.79,382.09 405.11,382.09 405.44,382.09 409.35,382.09 410.00,382.09 411.30,382.09 411.63,382.09 412.93,382.09 414.23,382.09 414.56,382.09 414.88,382.09 416.51,382.09 417.16,382.09 418.79,380.05 420.09,378.00 421.07,378.00 423.02,378.00 424.33,378.00 425.96,378.00 426.28,378.00 426.93,378.00 427.58,378.00 428.23,378.00 428.56,375.95 429.54,373.91 429.86,373.91 430.19,373.91 430.51,371.86 432.14,371.86 432.79,369.82 434.10,369.82 434.75,369.82 435.73,369.82 436.38,369.82 437.35,369.82 438.66,369.82 439.96,367.77 441.26,365.73 441.59,365.73 443.22,365.73 443.54,365.73 444.19,365.73 444.52,365.73 445.17,365.73 445.50,365.73 447.12,365.73 448.43,365.73 450.05,363.68 454.61,363.68 454.94,363.68 455.27,361.64 455.59,361.64 456.57,357.55 456.89,357.55 457.22,357.55 457.54,357.55 458.85,355.50 459.50,355.50 459.82,355.50 460.80,353.45 461.13,351.41 461.78,351.41 463.73,351.41 464.06,351.41 464.38,351.41 465.69,351.41 467.97,351.41 468.29,351.41 468.94,351.41 471.22,351.41 472.85,351.41 474.48,349.36 477.41,347.32 478.71,347.32 479.04,347.32 479.36,345.27 480.02,345.27 480.34,343.23 480.67,343.23 481.64,343.23 481.97,343.23 482.95,343.23 484.58,343.23 484.90,339.14 485.23,339.14 485.55,339.14 485.88,339.14 486.20,339.14 486.53,339.14 487.18,339.14 487.51,339.14 487.83,335.05 488.81,335.05 489.46,335.05 490.11,335.05 491.41,335.05 492.72,335.05 493.04,335.05 493.37,333.00 493.69,330.95 495.32,330.95 496.62,330.95 496.95,330.95 498.25,330.95 498.58,330.95 498.90,328.91 502.16,328.91 502.49,328.91 503.14,328.91 504.77,328.91 505.42,328.91 506.07,328.91 507.37,326.86 508.02,326.86 508.35,324.82 508.67,324.82 509.00,322.77 510.30,322.77 510.63,322.77 511.28,322.77 511.61,322.77 512.58,322.77 512.91,322.77 514.21,322.77 517.14,322.77 518.12,322.77 519.10,322.77 519.42,320.73 519.75,320.73 520.07,318.68 520.40,318.68 521.05,318.68 523.33,316.64 524.63,316.64 524.96,316.64 525.28,316.64 526.26,316.64 527.56,314.59 528.87,314.59 530.49,314.59 530.82,314.59 534.40,314.59 536.03,314.59 536.68,314.59 537.33,314.59 539.94,314.59 540.59,314.59 540.92,314.59 541.89,314.59 542.54,314.59 543.19,312.55 543.85,312.55 544.50,312.55 545.80,312.55 546.13,312.55 546.45,312.55 548.08,310.50 548.73,310.50 549.06,310.50 550.03,310.50 550.69,310.50 551.34,310.50 552.96,310.50 553.29,308.45 553.62,308.45 554.59,308.45 555.24,306.41 555.90,306.41 557.52,306.41 560.46,306.41 560.78,306.41 562.08,306.41 562.41,306.41 563.71,306.41 564.04,306.41 564.36,304.36 565.01,304.36 565.99,304.36 566.32,304.36 566.64,304.36 567.29,304.36 568.60,304.36 569.57,302.32 569.90,302.32 574.13,302.32 574.46,302.32 575.44,302.32 576.09,302.32 578.37,302.32 579.34,300.27 579.67,300.27 580.00,300.27 582.60,300.27 582.93,300.27 583.25,300.27 584.23,300.27 584.55,300.27 585.21,300.27 587.49,300.27 588.14,300.27 588.79,296.18 589.77,296.18 590.09,296.18 591.07,296.18 596.60,296.18 597.91,296.18 598.23,296.18 599.86,296.18 600.51,294.14 600.84,294.14 601.16,292.09 601.49,292.09 602.47,290.05 603.44,290.05 603.77,290.05 605.72,290.05 606.05,290.05 606.70,290.05 607.68,290.05 608.33,290.05 608.65,290.05 609.96,290.05 610.61,288.00 611.26,288.00 612.24,288.00 612.56,288.00 616.80,288.00 617.77,285.95 618.75,285.95 619.07,285.95 620.70,285.95 621.03,285.95 621.35,285.95 621.68,285.95 622.98,285.95 623.96,285.95 626.24,285.95 627.22,285.95 627.54,285.95 628.19,283.91 628.84,283.91 630.80,283.91 631.12,283.91 634.38,283.91 634.71,283.91 635.68,283.91 636.01,283.91 636.99,283.91 637.31,279.82 637.64,279.82 639.27,279.82 639.59,279.82 640.57,279.82 642.20,279.82 643.50,279.82 644.48,277.77 648.06,275.73 648.38,273.68 650.34,271.64 650.99,271.64 651.64,269.59 652.94,267.55 653.27,265.50 655.88,265.50 658.81,265.50 659.46,265.50 659.78,263.45 660.11,263.45 663.04,261.41 664.34,259.36 664.67,259.36 664.99,259.36 665.65,257.32 666.95,257.32 667.27,257.32 667.92,257.32 669.23,257.32 670.86,257.32 671.18,255.27 671.83,255.27 672.16,255.27 672.48,253.23 672.81,253.23 673.14,253.23 673.79,253.23 677.69,253.23 679.97,251.18 682.25,249.14 683.23,247.09 683.56,245.05 683.88,245.05 684.86,243.00 685.19,243.00 687.46,240.95 687.79,240.95 689.09,238.91 689.42,238.91 689.74,238.91 691.05,238.91 692.02,236.86 693.33,236.86 694.30,234.82 694.63,232.77 696.58,232.77 697.23,232.77 698.21,232.77 698.54,232.77 699.19,232.77 701.14,230.73 701.79,228.68 702.45,228.68 702.77,228.68 703.42,228.68 703.75,228.68 704.72,228.68 705.05,228.68 705.70,228.68 707.00,228.68 707.33,228.68 707.98,228.68 708.63,228.68 709.94,228.68 710.26,226.64 711.56,226.64 712.87,226.64 714.49,224.59 715.47,224.59 715.80,224.59 717.43,222.55 717.75,222.55 719.05,222.55 720.03,222.55 720.68,220.50 721.66,220.50 722.96,220.50 723.29,220.50 723.94,220.50 726.54,220.50 728.50,218.45 730.78,218.45 734.36,218.45 734.69,216.41 735.01,216.41 736.97,216.41 737.62,216.41 737.94,216.41 738.27,214.36 739.25,214.36 739.57,212.32 740.22,212.32 742.83,212.32 744.46,212.32 745.11,210.27 746.74,208.23 748.04,208.23 750.97,206.18 752.27,204.14 754.23,204.14 760.09,202.09 762.37,200.05 763.02,200.05 765.95,200.05 766.60,200.05 767.25,200.05 769.21,200.05 769.86,200.05 770.51,200.05 770.84,198.00 771.16,198.00 773.77,198.00 776.70,198.00 778.33,198.00 780.28,198.00 783.21,195.95 785.82,195.95 787.12,195.95 787.77,195.95 789.07,195.95 790.70,195.95 791.35,195.95 792.00,195.95 793.96,195.95 795.26,195.95 795.59,195.95 798.52,193.91 798.84,193.91 799.17,191.86 799.82,191.86 800.80,189.82 802.10,189.82 804.05,189.82 804.38,189.82 805.36,187.77 807.64,185.73 809.91,185.73 811.87,185.73 814.47,185.73 815.13,185.73 815.45,185.73 816.43,183.68 816.75,183.68 817.08,183.68 817.73,183.68 819.03,181.64 821.31,181.64 821.64,179.59 822.62,179.59 824.57,179.59 826.20,179.59 826.52,179.59 827.83,179.59 828.80,179.59 829.13,177.55 830.43,177.55 831.08,175.50 832.71,175.50 833.04,173.45 833.36,173.45 835.32,173.45 836.29,173.45 836.62,173.45 838.57,171.41 839.88,171.41 840.20,171.41 840.53,169.36 842.81,169.36 844.44,169.36 848.34,169.36 848.67,169.36 850.62,169.36 853.55,169.36 856.81,169.36 858.76,169.36 859.09,169.36 859.42,169.36 860.07,169.36 862.67,169.36 864.95,169.36 868.21,169.36 868.53,167.32 871.47,167.32 872.44,167.32 873.75,167.32 883.84,167.32 885.14,167.32 885.47,167.32 888.73,167.32 890.35,167.32 892.63,167.32 893.29,165.27 893.61,165.27 895.56,165.27 896.87,165.27 897.52,165.27 897.84,165.27 898.17,165.27 899.15,165.27 900.78,165.27 901.10,163.23 902.73,163.23 905.01,163.23 907.29,163.23 907.94,163.23 911.52,163.23 911.85,163.23 913.48,163.23 915.10,163.23 918.04,163.23 919.34,163.23 921.62,159.14 921.94,159.14 922.60,157.09 924.22,157.09 924.55,157.09 925.20,157.09 926.18,157.09 926.50,157.09 926.83,157.09 927.15,157.09 928.46,157.09 928.78,155.05 930.74,155.05 931.06,155.05 932.69,155.05 933.02,155.05 933.67,155.05 934.32,153.00 935.30,153.00 938.55,153.00 944.41,153.00 945.72,153.00 947.35,150.95 948.65,150.95 949.95,150.95 950.93,150.95 951.91,150.95 954.18,148.91 955.81,148.91 956.46,146.86 958.74,144.82 959.07,142.77 959.40,142.77 962.98,142.77 964.93,142.77 965.26,140.73 968.19,140.73 973.07,140.73 974.38,138.68 974.70,138.68 975.68,138.68 979.59,138.68 984.15,138.68 984.47,136.64 988.71,136.64 991.31,136.64 1004.01,136.64 1006.94,136.64 1007.92,136.64 1009.55,136.64 1009.87,136.64 1015.74,136.64 1018.34,136.64 1023.55,136.64 1025.18,136.64 1027.46,136.64 1034.05,124.36 1036.00,124.36"/>
<circle cx="90.00" cy="468.00" r="3.8" fill="#ffb50c" stroke="#111827" stroke-width="1"/>
<circle cx="192.13" cy="459.82" r="3.8" fill="#ffb50c" stroke="#111827" stroke-width="1"/>
<circle cx="243.58" cy="441.41" r="3.8" fill="#ffb50c" stroke="#111827" stroke-width="1"/>
<circle cx="281.03" cy="429.14" r="3.8" fill="#ffb50c" stroke="#111827" stroke-width="1"/>
<circle cx="317.83" cy="414.82" r="3.8" fill="#ffb50c" stroke="#111827" stroke-width="1"/>
<circle cx="347.14" cy="396.41" r="3.8" fill="#ffb50c" stroke="#111827" stroke-width="1"/>
<circle cx="391.11" cy="384.14" r="3.8" fill="#ffb50c" stroke="#111827" stroke-width="1"/>
<circle cx="423.02" cy="378.00" r="3.8" fill="#ffb50c" stroke="#111827" stroke-width="1"/>
<circle cx="447.12" cy="365.73" r="3.8" fill="#ffb50c" stroke="#111827" stroke-width="1"/>
<circle cx="479.04" cy="347.32" r="3.8" fill="#ffb50c" stroke="#111827" stroke-width="1"/>
<circle cx="498.25" cy="330.95" r="3.8" fill="#ffb50c" stroke="#111827" stroke-width="1"/>
<circle cx="523.33" cy="316.64" r="3.8" fill="#ffb50c" stroke="#111827" stroke-width="1"/>
<circle cx="551.34" cy="310.50" r="3.8" fill="#ffb50c" stroke="#111827" stroke-width="1"/>
<circle cx="579.67" cy="300.27" r="3.8" fill="#ffb50c" stroke="#111827" stroke-width="1"/>
<circle cx="608.33" cy="290.05" r="3.8" fill="#ffb50c" stroke="#111827" stroke-width="1"/>
<circle cx="637.31" cy="279.82" r="3.8" fill="#ffb50c" stroke="#111827" stroke-width="1"/>
<circle cx="670.86" cy="257.32" r="3.8" fill="#ffb50c" stroke="#111827" stroke-width="1"/>
<circle cx="698.54" cy="232.77" r="3.8" fill="#ffb50c" stroke="#111827" stroke-width="1"/>
<circle cx="723.29" cy="220.50" r="3.8" fill="#ffb50c" stroke="#111827" stroke-width="1"/>
<circle cx="769.21" cy="200.05" r="3.8" fill="#ffb50c" stroke="#111827" stroke-width="1"/>
<circle cx="807.64" cy="185.73" r="3.8" fill="#ffb50c" stroke="#111827" stroke-width="1"/>
<circle cx="839.88" cy="171.41" r="3.8" fill="#ffb50c" stroke="#111827" stroke-width="1"/>
<circle cx="895.56" cy="165.27" r="3.8" fill="#ffb50c" stroke="#111827" stroke-width="1"/>
<circle cx="928.78" cy="155.05" r="3.8" fill="#ffb50c" stroke="#111827" stroke-width="1"/>
<circle cx="975.68" cy="138.68" r="3.8" fill="#ffb50c" stroke="#111827" stroke-width="1"/>
<circle cx="1036.00" cy="124.36" r="3.8" fill="#ffb50c" stroke="#111827" stroke-width="1"/>
<text x="1028.0" y="114.4" text-anchor="end" fill="#ffb50c" font-size="12" font-family="-apple-system,BlinkMacSystemFont,Segoe UI,Helvetica,Arial,sans-serif">168</text>
<rect x="90" y="514" width="14" height="14" fill="url(#repo-0)" rx="3"/>
<text x="112" y="526" fill="#3bf2af" font-size="13" font-family="-apple-system,BlinkMacSystemFont,Segoe UI,Helvetica,Arial,sans-serif">bavix/gripmock</text>
<rect x="280" y="514" width="14" height="14" fill="url(#repo-1)" rx="3"/>
<text x="302" y="526" fill="#ffb50c" font-size="13" font-family="-apple-system,BlinkMacSystemFont,Segoe UI,Helvetica,Arial,sans-serif">tokopedia/gripmock</text>
<text x="1036" y="526" text-anchor="end" fill="#9ca3af" font-size="12" font-family="-apple-system,BlinkMacSystemFont,Segoe UI,Helvetica,Arial,sans-serif">Source: https://github.com/bavix/artifact-stats/blob/master/stats/github.csv</text>
</svg>