<svg xmlns="http://www.w3.org/2000/svg" width="1100" height="560" viewBox="0 0 1100 560">
<defs>
<linearGradient id="bg" x1="0" y1="0" x2="1" y2="1"><stop offset="0%" stop-color="#0b1220"/><stop offset="100%" stop-color="#111827"/></linearGradient>
<linearGradient id="repo-0" x1="0" y1="0" x2="0" y2="1"><stop offset="0%" stop-color="#34d399"/><stop offset="100%" stop-color="#059669"/></linearGradient>
<linearGradient id="repo-1" x1="0" y1="0" x2="0" y2="1"><stop offset="0%" stop-color="#f59e0b"/><stop offset="100%" stop-color="#d97706"/></linearGradient>
</defs>
<rect x="0" y="0" width="1100" height="560" fill="url(#bg)" rx="16"/>
<text x="90" y="44" fill="#f9fafb" font-size="28" font-family="-apple-system,BlinkMacSystemFont,Segoe UI,Helvetica,Arial,sans-serif" font-weight="700">GripMock GitHub Metrics - Stars</text>
<text x="90" y="70" fill="#9ca3af" font-size="16" font-family="-apple-system,BlinkMacSystemFont,Segoe UI,Helvetica,Arial,sans-serif">GitHub stars by snapshot date</text>
<line x1="90" y1="90.0" x2="1036" y2="90.0" stroke="#1f2937" stroke-width="1"/>
<text x="80" y="95.0" text-anchor="end" fill="#9ca3af" font-size="12" font-family="-apple-system,BlinkMacSystemFont,Segoe UI,Helvetica,Arial,sans-serif">810</text>
<line x1="90" y1="153.0" x2="1036" y2="153.0" stroke="#1f2937" stroke-width="1"/>
<text x="80" y="158.0" text-anchor="end" fill="#9ca3af" font-size="12" font-family="-apple-system,BlinkMacSystemFont,Segoe UI,Helvetica,Arial,sans-serif">675</text>
<line x1="90" y1="216.0" x2="1036" y2="216.0" stroke="#1f2937" stroke-width="1"/>
<text x="80" y="221.0" text-anchor="end" fill="#9ca3af" font-size="12" font-family="-apple-system,BlinkMacSystemFont,Segoe UI,Helvetica,Arial,sans-serif">540</text>
<line x1="90" y1="279.0" x2="1036" y2="279.0" stroke="#1f2937" stroke-width="1"/>
<text x="80" y="284.0" text-anchor="end" fill="#9ca3af" font-size="12" font-family="-apple-system,BlinkMacSystemFont,Segoe UI,Helvetica,Arial,sans-serif">405</text>
<line x1="90" y1="342.0" x2="1036" y2="342.0" stroke="#1f2937" stroke-width="1"/>
<text x="80" y="347.0" text-anchor="end" fill="#9ca3af" font-size="12" font-family="-apple-system,BlinkMacSystemFont,Segoe UI,Helvetica,Arial,sans-serif">270</text>
<line x1="90" y1="405.0" x2="1036" y2="405.0" stroke="#1f2937" stroke-width="1"/>
<text x="80" y="410.0" text-anchor="end" fill="#9ca3af" font-size="12" font-family="-apple-system,BlinkMacSystemFont,Segoe UI,Helvetica,Arial,sans-serif">135</text>
<line x1="90" y1="468.0" x2="1036" y2="468.0" stroke="#1f2937" stroke-width="1"/>
<text x="80" y="473.0" text-anchor="end" fill="#9ca3af" font-size="12" font-family="-apple-system,BlinkMacSystemFont,Segoe UI,Helvetica,Arial,sans-serif">0</text>
<line x1="90" y1="468" x2="1036" y2="468" stroke="#4b5563" stroke-width="1.4"/>
<line x1="90" y1="90" x2="90" y2="468" stroke="#4b5563" stroke-width="1.4"/>
<line x1="90.0" y1="468" x2="90.0" y2="474" stroke="#6b7280" stroke-width="1"/>
<text x="90.0" y="494" text-anchor="start" fill="#9ca3af" font-size="12" font-family="-apple-system,BlinkMacSystemFont,Segoe UI,Helvetica,Arial,sans-serif">2018-04-24</text>
<line x1="279.2" y1="468" x2="279.2" y2="474" stroke="#6b7280" stroke-width="1"/>
<text x="279.2" y="494" text-anchor="middle" fill="#9ca3af" font-size="12" font-family="-apple-system,BlinkMacSystemFont,Segoe UI,Helvetica,Arial,sans-serif">2019-11-25</text>
<line x1="468.4" y1="468" x2="468.4" y2="474" stroke="#6b7280" stroke-width="1"/>
<text x="468.4" y="494" text-anchor="middle" fill="#9ca3af" font-size="12" font-family="-apple-system,BlinkMacSystemFont,Segoe UI,Helvetica,Arial,sans-serif">2021-06-26</text>
<line x1="657.6" y1="468" x2="657.6" y2="474" stroke="#6b7280" stroke-width="1"/>
<text x="657.6" y="494" text-anchor="middle" fill="#9ca3af" font-size="12" font-family="-apple-system,BlinkMacSystemFont,Segoe UI,Helvetica,Arial,sans-serif">2023-01-27</text>
<line x1="846.8" y1="468" x2="846.8" y2="474" stroke="#6b7280" stroke-width="1"/>
<text x="846.8" y="494" text-anchor="middle" fill="#9ca3af" font-size="12" font-family="-apple-system,BlinkMacSystemFont,Segoe UI,Helvetica,Arial,sans-serif">2024-08-29</text>
<line x1="1036.0" y1="468" x2="1036.0" y2="474" stroke="#6b7280" stroke-width="1"/>
<text x="1036.0" y="494" text-anchor="end" fill="#9ca3af" font-size="12" font-family="-apple-system,BlinkMacSystemFont,Segoe UI,Helvetica,Arial,sans-serif">2026-04-01</text>
<polyline fill="none" stroke="url(#repo-0)" stroke-width="4" stroke-linecap="round" stroke-linejoin="round" points="723.09,468.00 729.82,467.53 742.87,467.07 756.58,466.60 758.53,466.13 761.80,465.67 773.55,465.20 775.83,464.73 781.38,464.26 781.70,463.80 786.60,463.33 794.43,462.86 806.83,462.40 810.09,461.93 814.34,461.46 817.93,461.00 832.94,460.53 837.51,460.06 838.16,459.60 839.47,459.13 845.67,458.66 859.37,458.20 862.31,457.73 869.16,457.26 874.71,456.79 875.36,456.33 876.01,455.86 896.25,455.39 898.86,454.93 899.51,454.46 905.71,453.99 906.36,453.53 910.28,453.53 911.59,453.06 911.91,452.59 912.24,452.13 915.18,451.66 916.81,451.19 918.44,450.72 923.66,450.72 928.23,450.72 929.86,450.26 930.51,450.26 937.37,449.79 941.28,449.32 953.03,448.86 955.31,448.39 955.97,448.39 957.93,447.92 959.88,447.46 962.82,447.46 968.04,446.99 974.90,446.52 979.14,446.06 990.56,445.59 992.84,445.12 997.74,444.66 998.07,444.19 999.04,443.72 1001.65,443.25 1001.98,443.25 1010.79,442.79 1017.65,442.32 1018.30,441.85 1020.58,441.39 1027.11,440.92 1029.39,440.45 1031.03,439.99 1032.66,439.52 1036.00,439.52"/>
<circle cx="723.09" cy="468.00" r="3.8" fill="#3bf2af" stroke="#111827" stroke-width="1"/>
<circle cx="742.87" cy="467.07" r="3.8" fill="#3bf2af" stroke="#111827" stroke-width="1"/>
<circle cx="758.53" cy="466.13" r="3.8" fill="#3bf2af" stroke="#111827" stroke-width="1"/>
<circle cx="773.55" cy="465.20" r="3.8" fill="#3bf2af" stroke="#111827" stroke-width="1"/>
<circle cx="781.38" cy="464.26" r="3.8" fill="#3bf2af" stroke="#111827" stroke-width="1"/>
<circle cx="786.60" cy="463.33" r="3.8" fill="#3bf2af" stroke="#111827" stroke-width="1"/>
<circle cx="806.83" cy="462.40" r="3.8" fill="#3bf2af" stroke="#111827" stroke-width="1"/>
<circle cx="814.34" cy="461.46" r="3.8" fill="#3bf2af" stroke="#111827" stroke-width="1"/>
<circle cx="832.94" cy="460.53" r="3.8" fill="#3bf2af" stroke="#111827" stroke-width="1"/>
<circle cx="838.16" cy="459.60" r="3.8" fill="#3bf2af" stroke="#111827" stroke-width="1"/>
<circle cx="845.67" cy="458.66" r="3.8" fill="#3bf2af" stroke="#111827" stroke-width="1"/>
<circle cx="862.31" cy="457.73" r="3.8" fill="#3bf2af" stroke="#111827" stroke-width="1"/>
<circle cx="874.71" cy="456.79" r="3.8" fill="#3bf2af" stroke="#111827" stroke-width="1"/>
<circle cx="876.01" cy="455.86" r="3.8" fill="#3bf2af" stroke="#111827" stroke-width="1"/>
<circle cx="898.86" cy="454.93" r="3.8" fill="#3bf2af" stroke="#111827" stroke-width="1"/>
<circle cx="905.71" cy="453.99" r="3.8" fill="#3bf2af" stroke="#111827" stroke-width="1"/>
<circle cx="910.28" cy="453.53" r="3.8" fill="#3bf2af" stroke="#111827" stroke-width="1"/>
<circle cx="911.91" cy="452.59" r="3.8" fill="#3bf2af" stroke="#111827" stroke-width="1"/>
<circle cx="915.18" cy="451.66" r="3.8" fill="#3bf2af" stroke="#111827" stroke-width="1"/>
<circle cx="918.44" cy="450.72" r="3.8" fill="#3bf2af" stroke="#111827" stroke-width="1"/>
<circle cx="928.23" cy="450.72" r="3.8" fill="#3bf2af" stroke="#111827" stroke-width="1"/>
<circle cx="930.51" cy="450.26" r="3.8" fill="#3bf2af" stroke="#111827" stroke-width="1"/>
<circle cx="941.28" cy="449.32" r="3.8" fill="#3bf2af" stroke="#111827" stroke-width="1"/>
<circle cx="955.31" cy="448.39" r="3.8" fill="#3bf2af" stroke="#111827" stroke-width="1"/>
<circle cx="957.93" cy="447.92" r="3.8" fill="#3bf2af" stroke="#111827" stroke-width="1"/>
<circle cx="962.82" cy="447.46" r="3.8" fill="#3bf2af" stroke="#111827" stroke-width="1"/>
<circle cx="974.90" cy="446.52" r="3.8" fill="#3bf2af" stroke="#111827" stroke-width="1"/>
<circle cx="990.56" cy="445.59" r="3.8" fill="#3bf2af" stroke="#111827" stroke-width="1"/>
<circle cx="997.74" cy="444.66" r="3.8" fill="#3bf2af" stroke="#111827" stroke-width="1"/>
<circle cx="999.04" cy="443.72" r="3.8" fill="#3bf2af" stroke="#111827" stroke-width="1"/>
<circle cx="1001.98" cy="443.25" r="3.8" fill="#3bf2af" stroke="#111827" stroke-width="1"/>
<circle cx="1017.65" cy="442.32" r="3.8" fill="#3bf2af" stroke="#111827" stroke-width="1"/>
<circle cx="1020.58" cy="441.39" r="3.8" fill="#3bf2af" stroke="#111827" stroke-width="1"/>
<circle cx="1029.39" cy="440.45" r="3.8" fill="#3bf2af" stroke="#111827" stroke-width="1"/>
<circle cx="1032.66" cy="439.52" r="3.8" fill="#3bf2af" stroke="#111827" stroke-width="1"/>
<circle cx="1036.00" cy="439.52" r="3.8" fill="#3bf2af" stroke="#111827" stroke-width="1"/>
<text x="1028.0" y="429.5" text-anchor="end" fill="#3bf2af" font-size="12" font-family="-apple-system,BlinkMacSystemFont,Segoe UI,Helvetica,Arial,sans-serif">61</text>
<polyline fill="none" stroke="url(#repo-1)" stroke-width="4" stroke-linecap="round" stroke-linejoin="round" points="90.00,468.00 91.83,466.60 92.48,466.13 96.07,465.67 99.66,465.20 136.86,464.73 137.84,464.26 143.71,464.26 149.59,463.80 154.16,463.80 157.75,463.33 158.40,462.86 158.73,462.40 159.05,461.93 160.68,461.46 161.34,461.00 165.58,460.53 165.90,460.06 169.82,459.60 170.80,459.13 171.13,458.66 172.76,458.20 174.39,457.26 176.35,456.79 177.33,456.33 182.55,455.86 185.16,455.39 186.79,454.93 187.12,454.46 192.34,453.99 192.66,453.53 193.32,453.06 196.58,452.59 197.23,451.66 197.56,451.66 197.89,451.66 203.76,451.19 205.39,451.19 211.59,450.72 212.90,450.26 213.55,450.26 216.16,449.79 219.10,449.32 223.01,449.32 223.34,448.86 225.62,448.39 227.91,447.92 231.17,447.46 232.15,446.99 234.44,446.52 236.72,446.06 238.68,445.59 239.00,445.12 239.33,444.66 241.94,444.19 242.59,443.72 243.25,442.79 243.57,442.32 243.90,441.39 244.23,440.92 246.84,440.45 247.49,439.52 250.10,439.52 255.65,439.05 256.30,439.05 256.63,438.59 256.95,438.12 257.61,438.12 258.91,437.65 259.24,437.18 261.20,436.72 261.52,436.25 263.81,435.78 264.78,434.85 265.44,433.92 266.42,433.92 268.05,433.45 268.37,432.98 269.35,432.52 272.29,432.05 275.88,431.58 276.86,431.12 277.84,430.65 278.16,430.18 279.47,429.71 279.80,429.25 280.45,428.78 281.43,427.38 283.06,426.91 283.71,426.45 284.04,425.98 284.37,424.58 286.00,424.11 286.98,423.64 287.63,423.18 288.93,423.18 289.26,422.71 290.89,422.24 294.48,421.78 296.44,421.31 298.07,421.31 298.40,420.38 300.68,419.91 302.31,419.44 302.64,419.44 304.60,418.98 304.92,418.51 305.58,418.51 306.56,418.51 306.88,418.04 307.21,417.58 307.54,417.11 312.10,415.71 316.02,415.24 316.35,414.77 317.00,414.31 318.30,413.84 318.63,413.37 320.26,413.37 320.92,412.91 321.24,412.44 321.57,411.97 321.89,411.51 323.53,411.04 326.79,410.57 328.09,410.10 328.42,410.10 329.07,409.64 329.40,409.64 330.05,408.24 330.71,407.77 331.36,407.77 332.66,407.30 333.32,406.84 335.27,406.37 335.60,405.90 336.91,405.44 338.86,404.97 340.17,404.50 341.47,404.50 341.80,404.04 342.45,403.57 343.43,403.10 344.41,402.63 346.04,402.17 347.67,401.70 349.31,401.23 352.24,400.77 354.85,400.30 355.18,399.83 355.51,399.37 360.40,398.90 361.38,398.43 362.36,397.97 362.69,397.03 363.67,396.56 365.95,395.63 366.28,394.70 367.91,394.23 369.87,394.23 373.13,393.76 374.11,393.30 375.09,392.83 376.39,391.90 377.05,391.43 377.37,390.96 378.02,390.50 379.66,389.56 380.96,389.09 385.20,388.16 386.84,386.76 387.81,385.83 390.75,385.83 391.40,385.83 391.73,385.36 392.06,384.43 393.69,383.49 394.67,383.02 395.97,382.56 396.30,382.09 396.95,381.62 399.24,381.16 399.56,380.69 400.22,380.22 402.50,379.76 403.15,379.29 404.46,378.82 405.44,378.36 405.76,377.89 406.09,377.42 410.01,376.96 410.66,376.49 411.96,375.55 412.29,375.09 413.59,374.62 414.90,371.35 415.23,370.42 415.55,369.95 417.18,369.48 417.84,369.02 419.47,369.02 420.77,368.55 421.75,368.08 423.71,367.15 425.02,366.68 426.65,366.22 426.97,365.75 427.63,365.28 428.28,364.35 428.93,363.88 429.26,363.88 430.24,363.88 430.56,363.42 430.89,362.95 431.22,362.48 432.85,362.01 433.50,361.08 434.81,360.61 435.46,359.68 436.44,359.21 437.09,358.75 438.07,358.28 439.38,357.81 440.68,357.81 441.99,357.35 442.31,356.88 443.94,356.41 444.27,355.94 444.92,355.48 445.25,355.01 445.90,354.54 446.23,353.14 447.86,352.68 449.17,352.21 450.80,351.74 455.37,350.81 455.69,350.34 456.02,350.34 456.35,349.88 457.32,349.41 457.65,348.94 457.98,348.47 458.30,347.54 459.61,347.07 460.26,346.14 460.59,344.74 461.57,344.74 461.89,344.74 462.55,343.81 464.50,343.34 464.83,342.40 465.16,341.94 466.46,341.47 468.75,341.00 469.07,340.54 469.72,340.07 472.01,339.60 473.64,339.14 475.27,339.14 478.21,339.14 479.52,338.67 479.84,338.20 480.17,338.20 480.82,337.74 481.15,336.80 481.47,336.33 482.45,335.87 482.78,335.40 483.76,334.93 485.39,334.00 485.72,334.00 486.04,333.07 486.37,332.60 486.69,331.20 487.02,330.27 487.35,329.80 488.00,329.33 488.33,327.46 488.65,327.00 489.63,326.53 490.28,325.60 490.94,325.13 492.24,324.66 493.55,324.20 493.87,323.73 494.20,323.26 494.53,322.79 496.16,322.33 497.46,321.86 497.79,321.39 499.10,320.46 499.42,319.53 499.75,319.53 503.01,319.06 503.34,318.59 503.99,318.13 505.62,317.19 506.27,316.73 506.93,316.26 508.23,316.26 508.89,315.32 509.21,315.32 509.54,313.46 509.86,311.12 511.17,310.66 511.50,310.19 512.15,309.72 512.48,309.25 513.45,308.79 513.78,308.32 515.09,307.85 518.02,307.39 519.00,306.92 519.98,306.45 520.31,305.05 520.63,304.59 520.96,304.12 521.29,303.65 521.94,303.19 524.22,303.19 525.53,302.72 525.85,302.25 526.18,301.78 527.16,301.32 528.47,301.32 529.77,300.85 531.40,300.38 531.73,299.92 535.32,299.45 536.95,298.98 537.60,298.05 538.26,297.58 540.87,297.12 541.52,296.65 541.85,296.18 542.82,295.71 543.48,295.25 544.13,295.25 544.78,294.78 545.44,294.31 546.74,293.85 547.07,293.38 547.39,292.91 549.02,292.91 549.68,292.45 550.00,291.98 550.98,291.05 551.64,290.11 552.29,289.65 553.92,288.71 554.25,288.71 554.57,288.24 555.55,287.78 556.20,287.31 556.86,286.84 558.49,286.38 561.43,285.91 561.75,285.44 563.06,284.98 563.38,284.51 564.69,284.04 565.02,283.58 565.34,281.71 565.99,281.24 566.97,280.77 567.30,280.31 567.63,279.84 568.28,279.37 569.58,278.91 570.56,278.91 570.89,278.44 575.13,277.97 575.46,277.51 576.44,276.57 577.09,276.11 579.37,275.64 580.35,275.17 580.68,274.70 581.01,274.24 583.62,273.30 583.94,272.84 584.27,270.97 585.25,270.50 585.57,270.04 586.23,269.57 588.51,269.10 589.16,268.63 589.82,268.63 590.80,268.17 591.12,267.70 592.10,267.23 597.65,266.77 598.95,265.83 599.28,265.37 600.91,264.90 601.57,264.90 601.89,263.97 602.22,263.97 602.54,263.50 603.52,263.03 604.50,262.57 604.83,262.10 606.79,261.63 607.11,261.16 607.77,260.23 608.74,259.76 609.40,259.30 609.72,258.83 611.03,258.36 611.68,258.36 612.33,257.90 613.31,257.43 613.64,256.96 617.88,256.50 618.86,256.50 619.84,256.03 620.17,255.56 621.80,255.09 622.12,254.16 622.45,253.69 622.78,252.76 624.08,252.29 625.06,251.83 627.35,250.89 628.32,250.43 628.65,249.96 629.30,249.96 629.96,248.56 631.91,248.09 632.24,247.62 635.50,247.16 635.83,246.69 636.81,245.29 637.14,244.82 638.11,244.36 638.44,244.36 638.77,243.89 640.40,243.42 640.73,242.49 641.70,241.55 643.34,241.09 644.64,240.62 645.62,240.62 649.21,240.62 649.54,240.62 651.49,240.62 652.15,239.69 652.80,239.69 654.11,239.69 654.43,239.69 657.04,239.22 659.98,238.75 660.63,238.29 660.96,237.35 661.28,236.89 664.22,236.42 665.53,236.42 665.85,235.95 666.18,235.49 666.83,235.49 668.14,235.02 668.46,234.55 669.12,234.08 670.42,233.62 672.05,233.15 672.38,233.15 673.03,232.68 673.36,232.22 673.69,232.22 674.01,231.75 674.34,231.28 674.99,230.82 678.91,230.35 681.19,230.35 683.48,230.35 684.45,230.35 684.78,229.88 685.11,229.42 686.09,229.42 686.41,228.95 688.70,228.48 689.02,228.01 690.33,228.01 690.66,227.55 690.98,227.08 692.29,226.61 693.27,226.61 694.57,225.68 695.55,225.68 695.88,225.68 697.83,225.21 698.49,224.28 699.47,223.81 699.79,223.35 700.45,222.88 702.40,221.95 703.06,221.95 703.71,221.48 704.04,221.01 704.69,220.54 705.01,220.08 705.99,219.61 706.32,218.68 706.97,218.21 708.28,217.74 708.60,217.28 709.26,216.34 709.91,215.88 711.21,215.41 711.54,214.94 712.85,214.47 714.15,214.01 715.78,214.01 716.76,213.54 717.09,213.07 718.72,213.07 719.05,212.61 720.35,212.14 721.33,210.74 721.98,210.74 722.96,210.27 724.27,209.81 724.59,209.34 725.25,208.87 727.86,208.41 729.82,207.94 732.10,207.47 735.69,207.00 736.02,207.00 736.34,206.54 738.30,205.14 738.95,204.67 739.28,204.20 739.61,203.74 740.58,203.27 740.91,202.80 741.56,202.34 744.17,201.40 745.81,200.93 746.46,200.93 748.09,200.93 749.40,200.47 752.33,200.00 753.64,200.00 755.60,199.53 761.47,199.53 763.75,199.53 764.41,199.07 767.34,198.60 768.00,198.13 768.65,197.67 770.61,197.20 771.26,196.73 771.91,195.80 772.24,195.80 772.57,195.33 775.18,194.87 778.11,194.40 779.75,193.93 781.70,193.46 784.64,193.46 787.25,192.06 788.56,191.60 789.21,191.13 790.51,190.66 792.15,190.20 792.80,189.73 793.45,189.26 795.41,188.80 796.71,188.33 797.04,187.39 799.98,187.39 800.30,186.93 800.63,186.93 801.28,186.46 802.26,186.46 803.57,185.99 805.53,185.53 805.85,185.06 806.83,185.06 809.12,185.06 811.40,184.59 813.36,184.13 815.97,183.66 816.62,183.19 816.95,182.73 817.93,182.73 818.25,182.26 818.58,181.79 819.23,180.86 820.54,180.39 822.82,179.92 823.15,179.46 824.13,178.52 826.09,178.06 827.72,177.59 828.04,177.12 829.35,176.66 830.33,176.19 830.65,176.19 831.96,175.72 832.61,175.72 834.24,175.26 834.57,174.79 834.90,173.39 836.85,172.92 837.83,172.45 838.16,171.99 840.12,171.99 841.42,171.52 841.75,170.12 842.08,170.12 844.36,168.72 845.99,168.25 849.91,167.79 850.23,167.32 852.19,166.85 855.13,166.38 858.39,165.92 860.35,164.98 860.68,164.52 861.00,164.05 861.66,163.58 864.27,163.12 866.55,162.65 869.81,162.18 870.14,162.18 873.08,161.72 874.06,161.25 875.36,160.78 885.48,160.31 886.78,159.38 887.11,158.91 890.37,158.45 892.01,157.51 894.29,157.05 894.94,157.05 895.27,156.58 897.23,156.11 898.53,155.65 899.18,155.18 899.51,154.71 899.84,154.25 900.82,153.78 902.45,153.31 902.77,153.31 904.41,152.84 906.69,152.38 908.98,151.91 909.63,151.44 913.22,150.98 913.54,150.51 915.18,150.04 916.81,149.58 919.74,149.11 921.05,148.64 923.33,148.64 923.66,148.18 924.31,148.18 925.94,147.71 926.27,147.24 926.92,146.77 927.90,145.84 928.23,144.44 928.56,143.51 928.88,143.04 930.19,142.57 930.51,142.57 932.47,142.11 932.80,141.64 934.43,141.17 934.76,140.71 935.41,140.24 936.06,140.24 937.04,139.77 940.30,139.30 946.18,138.84 947.48,138.37 949.11,137.90 950.42,137.44 951.73,136.97 952.70,136.50 953.68,135.57 955.97,135.57 957.60,135.10 958.25,135.10 960.54,135.10 960.86,135.10 961.19,134.64 964.78,134.17 966.74,133.70 967.06,133.70 970.00,133.23 974.90,132.77 976.20,132.77 976.53,132.30 977.51,131.83 981.42,131.37 985.99,130.90 986.32,130.90 990.56,130.43 993.17,129.97 1005.90,129.50 1008.83,128.57 1009.81,128.10 1011.44,127.63 1011.77,126.70 1017.65,126.23 1020.26,125.76 1025.48,125.30 1027.11,124.83 1029.39,124.36 1036.00,124.36"/>
<circle cx="90.00" cy="468.00" r="3.8" fill="#ffb50c" stroke="#111827" stroke-width="1"/>
<circle cx="192.34" cy="453.99" r="3.8" fill="#ffb50c" stroke="#111827" stroke-width="1"/>
<circle cx="243.90" cy="441.39" r="3.8" fill="#ffb50c" stroke="#111827" stroke-width="1"/>
<circle cx="281.43" cy="427.38" r="3.8" fill="#ffb50c" stroke="#111827" stroke-width="1"/>
<circle cx="318.30" cy="413.84" r="3.8" fill="#ffb50c" stroke="#111827" stroke-width="1"/>
<circle cx="347.67" cy="401.70" r="3.8" fill="#ffb50c" stroke="#111827" stroke-width="1"/>
<circle cx="391.73" cy="385.36" r="3.8" fill="#ffb50c" stroke="#111827" stroke-width="1"/>
<circle cx="423.71" cy="367.15" r="3.8" fill="#ffb50c" stroke="#111827" stroke-width="1"/>
<circle cx="447.86" cy="352.68" r="3.8" fill="#ffb50c" stroke="#111827" stroke-width="1"/>
<circle cx="479.84" cy="338.20" r="3.8" fill="#ffb50c" stroke="#111827" stroke-width="1"/>
<circle cx="499.10" cy="320.46" r="3.8" fill="#ffb50c" stroke="#111827" stroke-width="1"/>
<circle cx="524.22" cy="303.19" r="3.8" fill="#ffb50c" stroke="#111827" stroke-width="1"/>
<circle cx="552.29" cy="289.65" r="3.8" fill="#ffb50c" stroke="#111827" stroke-width="1"/>
<circle cx="580.68" cy="274.70" r="3.8" fill="#ffb50c" stroke="#111827" stroke-width="1"/>
<circle cx="609.40" cy="259.30" r="3.8" fill="#ffb50c" stroke="#111827" stroke-width="1"/>
<circle cx="638.44" cy="244.36" r="3.8" fill="#ffb50c" stroke="#111827" stroke-width="1"/>
<circle cx="672.05" cy="233.15" r="3.8" fill="#ffb50c" stroke="#111827" stroke-width="1"/>
<circle cx="699.79" cy="223.35" r="3.8" fill="#ffb50c" stroke="#111827" stroke-width="1"/>
<circle cx="724.59" cy="209.34" r="3.8" fill="#ffb50c" stroke="#111827" stroke-width="1"/>
<circle cx="770.61" cy="197.20" r="3.8" fill="#ffb50c" stroke="#111827" stroke-width="1"/>
<circle cx="809.12" cy="185.06" r="3.8" fill="#ffb50c" stroke="#111827" stroke-width="1"/>
<circle cx="841.42" cy="171.52" r="3.8" fill="#ffb50c" stroke="#111827" stroke-width="1"/>
<circle cx="897.23" cy="156.11" r="3.8" fill="#ffb50c" stroke="#111827" stroke-width="1"/>
<circle cx="930.51" cy="142.57" r="3.8" fill="#ffb50c" stroke="#111827" stroke-width="1"/>
<circle cx="977.51" cy="131.83" r="3.8" fill="#ffb50c" stroke="#111827" stroke-width="1"/>
<circle cx="1036.00" cy="124.36" r="3.8" fill="#ffb50c" stroke="#111827" stroke-width="1"/>
<text x="1028.0" y="114.4" text-anchor="end" fill="#ffb50c" font-size="12" font-family="-apple-system,BlinkMacSystemFont,Segoe UI,Helvetica,Arial,sans-serif">736</text>
<rect x="90" y="514" width="14" height="14" fill="url(#repo-0)" rx="3"/>
<text x="112" y="526" fill="#3bf2af" font-size="13" font-family="-apple-system,BlinkMacSystemFont,Segoe UI,Helvetica,Arial,sans-serif">bavix/gripmock</text>
<rect x="280" y="514" width="14" height="14" fill="url(#repo-1)" rx="3"/>
<text x="302" y="526" fill="#ffb50c" font-size="13" font-family="-apple-system,BlinkMacSystemFont,Segoe UI,Helvetica,Arial,sans-serif">tokopedia/gripmock</text>
<text x="1036" y="526" text-anchor="end" fill="#9ca3af" font-size="12" font-family="-apple-system,BlinkMacSystemFont,Segoe UI,Helvetica,Arial,sans-serif">Source: https://github.com/bavix/artifact-stats/blob/master/stats/github.csv</text>
</svg>