<svg xmlns="http://www.w3.org/2000/svg" width="1100" height="560" viewBox="0 0 1100 560">
<defs>
<linearGradient id="bg" x1="0" y1="0" x2="1" y2="1"><stop offset="0%" stop-color="#0b1220"/><stop offset="100%" stop-color="#111827"/></linearGradient>
<linearGradient id="repo-0" x1="0" y1="0" x2="0" y2="1"><stop offset="0%" stop-color="#34d399"/><stop offset="100%" stop-color="#059669"/></linearGradient>
<linearGradient id="repo-1" x1="0" y1="0" x2="0" y2="1"><stop offset="0%" stop-color="#f59e0b"/><stop offset="100%" stop-color="#d97706"/></linearGradient>
</defs>
<rect x="0" y="0" width="1100" height="560" fill="url(#bg)" rx="16"/>
<text x="90" y="44" fill="#f9fafb" font-size="28" font-family="-apple-system,BlinkMacSystemFont,Segoe UI,Helvetica,Arial,sans-serif" font-weight="700">GripMock GitHub Metrics - Forks</text>
<text x="90" y="70" fill="#9ca3af" font-size="16" font-family="-apple-system,BlinkMacSystemFont,Segoe UI,Helvetica,Arial,sans-serif">GitHub forks by snapshot date</text>
<line x1="90" y1="90.0" x2="1036" y2="90.0" stroke="#1f2937" stroke-width="1"/>
<text x="80" y="95.0" text-anchor="end" fill="#9ca3af" font-size="12" font-family="-apple-system,BlinkMacSystemFont,Segoe UI,Helvetica,Arial,sans-serif">185</text>
<line x1="90" y1="153.0" x2="1036" y2="153.0" stroke="#1f2937" stroke-width="1"/>
<text x="80" y="158.0" text-anchor="end" fill="#9ca3af" font-size="12" font-family="-apple-system,BlinkMacSystemFont,Segoe UI,Helvetica,Arial,sans-serif">154</text>
<line x1="90" y1="216.0" x2="1036" y2="216.0" stroke="#1f2937" stroke-width="1"/>
<text x="80" y="221.0" text-anchor="end" fill="#9ca3af" font-size="12" font-family="-apple-system,BlinkMacSystemFont,Segoe UI,Helvetica,Arial,sans-serif">123</text>
<line x1="90" y1="279.0" x2="1036" y2="279.0" stroke="#1f2937" stroke-width="1"/>
<text x="80" y="284.0" text-anchor="end" fill="#9ca3af" font-size="12" font-family="-apple-system,BlinkMacSystemFont,Segoe UI,Helvetica,Arial,sans-serif">92</text>
<line x1="90" y1="342.0" x2="1036" y2="342.0" stroke="#1f2937" stroke-width="1"/>
<text x="80" y="347.0" text-anchor="end" fill="#9ca3af" font-size="12" font-family="-apple-system,BlinkMacSystemFont,Segoe UI,Helvetica,Arial,sans-serif">62</text>
<line x1="90" y1="405.0" x2="1036" y2="405.0" stroke="#1f2937" stroke-width="1"/>
<text x="80" y="410.0" text-anchor="end" fill="#9ca3af" font-size="12" font-family="-apple-system,BlinkMacSystemFont,Segoe UI,Helvetica,Arial,sans-serif">31</text>
<line x1="90" y1="468.0" x2="1036" y2="468.0" stroke="#1f2937" stroke-width="1"/>
<text x="80" y="473.0" text-anchor="end" fill="#9ca3af" font-size="12" font-family="-apple-system,BlinkMacSystemFont,Segoe UI,Helvetica,Arial,sans-serif">0</text>
<line x1="90" y1="468" x2="1036" y2="468" stroke="#4b5563" stroke-width="1.4"/>
<line x1="90" y1="90" x2="90" y2="468" stroke="#4b5563" stroke-width="1.4"/>
<line x1="90.0" y1="468" x2="90.0" y2="474" stroke="#6b7280" stroke-width="1"/>
<text x="90.0" y="494" text-anchor="start" fill="#9ca3af" font-size="12" font-family="-apple-system,BlinkMacSystemFont,Segoe UI,Helvetica,Arial,sans-serif">2018-04-24</text>
<line x1="279.2" y1="468" x2="279.2" y2="474" stroke="#6b7280" stroke-width="1"/>
<text x="279.2" y="494" text-anchor="middle" fill="#9ca3af" font-size="12" font-family="-apple-system,BlinkMacSystemFont,Segoe UI,Helvetica,Arial,sans-serif">2019-11-25</text>
<line x1="468.4" y1="468" x2="468.4" y2="474" stroke="#6b7280" stroke-width="1"/>
<text x="468.4" y="494" text-anchor="middle" fill="#9ca3af" font-size="12" font-family="-apple-system,BlinkMacSystemFont,Segoe UI,Helvetica,Arial,sans-serif">2021-06-27</text>
<line x1="657.6" y1="468" x2="657.6" y2="474" stroke="#6b7280" stroke-width="1"/>
<text x="657.6" y="494" text-anchor="middle" fill="#9ca3af" font-size="12" font-family="-apple-system,BlinkMacSystemFont,Segoe UI,Helvetica,Arial,sans-serif">2023-01-29</text>
<line x1="846.8" y1="468" x2="846.8" y2="474" stroke="#6b7280" stroke-width="1"/>
<text x="846.8" y="494" text-anchor="middle" fill="#9ca3af" font-size="12" font-family="-apple-system,BlinkMacSystemFont,Segoe UI,Helvetica,Arial,sans-serif">2024-08-31</text>
<line x1="1036.0" y1="468" x2="1036.0" y2="474" stroke="#6b7280" stroke-width="1"/>
<text x="1036.0" y="494" text-anchor="end" fill="#9ca3af" font-size="12" font-family="-apple-system,BlinkMacSystemFont,Segoe UI,Helvetica,Arial,sans-serif">2026-04-03</text>
<polyline fill="none" stroke="url(#repo-0)" stroke-width="4" stroke-linecap="round" stroke-linejoin="round" points="722.56,468.00 729.28,468.00 742.32,468.00 756.02,468.00 757.97,468.00 761.23,468.00 772.97,468.00 775.25,468.00 780.80,468.00 781.12,468.00 786.01,468.00 793.84,468.00 806.23,468.00 809.49,468.00 813.73,468.00 817.32,468.00 832.31,468.00 836.88,468.00 837.53,468.00 838.84,468.00 845.03,468.00 858.73,468.00 861.66,468.00 868.51,468.00 874.05,468.00 874.70,468.00 875.36,468.00 895.57,468.00 898.18,468.00 898.83,468.00 905.03,468.00 905.68,468.00 909.59,465.95 910.90,465.95 911.22,465.95 911.55,465.95 914.48,463.91 916.11,463.91 917.74,463.91 922.96,461.86 927.53,459.82 929.16,459.82 929.81,457.77 936.66,457.77 940.57,457.77 952.31,457.77 954.59,457.77 955.24,455.73 957.20,455.73 959.15,455.73 962.09,453.68 967.31,453.68 974.15,453.68 978.39,453.68 989.80,453.68 992.09,453.68 996.98,453.68 997.30,453.68 998.28,453.68 1000.89,453.68 1001.22,451.64 1010.02,451.64 1016.87,451.64 1017.52,451.64 1019.80,451.64 1026.32,451.64 1028.61,451.64 1030.24,451.64 1031.87,451.64 1035.21,451.64 1036.00,451.64"/>
<circle cx="722.56" cy="468.00" r="3.8" fill="#3bf2af" stroke="#111827" stroke-width="1"/>
<circle cx="742.32" cy="468.00" r="3.8" fill="#3bf2af" stroke="#111827" stroke-width="1"/>
<circle cx="757.97" cy="468.00" r="3.8" fill="#3bf2af" stroke="#111827" stroke-width="1"/>
<circle cx="772.97" cy="468.00" r="3.8" fill="#3bf2af" stroke="#111827" stroke-width="1"/>
<circle cx="780.80" cy="468.00" r="3.8" fill="#3bf2af" stroke="#111827" stroke-width="1"/>
<circle cx="786.01" cy="468.00" r="3.8" fill="#3bf2af" stroke="#111827" stroke-width="1"/>
<circle cx="806.23" cy="468.00" r="3.8" fill="#3bf2af" stroke="#111827" stroke-width="1"/>
<circle cx="813.73" cy="468.00" r="3.8" fill="#3bf2af" stroke="#111827" stroke-width="1"/>
<circle cx="832.31" cy="468.00" r="3.8" fill="#3bf2af" stroke="#111827" stroke-width="1"/>
<circle cx="837.53" cy="468.00" r="3.8" fill="#3bf2af" stroke="#111827" stroke-width="1"/>
<circle cx="845.03" cy="468.00" r="3.8" fill="#3bf2af" stroke="#111827" stroke-width="1"/>
<circle cx="861.66" cy="468.00" r="3.8" fill="#3bf2af" stroke="#111827" stroke-width="1"/>
<circle cx="874.05" cy="468.00" r="3.8" fill="#3bf2af" stroke="#111827" stroke-width="1"/>
<circle cx="875.36" cy="468.00" r="3.8" fill="#3bf2af" stroke="#111827" stroke-width="1"/>
<circle cx="898.18" cy="468.00" r="3.8" fill="#3bf2af" stroke="#111827" stroke-width="1"/>
<circle cx="905.03" cy="468.00" r="3.8" fill="#3bf2af" stroke="#111827" stroke-width="1"/>
<circle cx="909.59" cy="465.95" r="3.8" fill="#3bf2af" stroke="#111827" stroke-width="1"/>
<circle cx="911.22" cy="465.95" r="3.8" fill="#3bf2af" stroke="#111827" stroke-width="1"/>
<circle cx="914.48" cy="463.91" r="3.8" fill="#3bf2af" stroke="#111827" stroke-width="1"/>
<circle cx="917.74" cy="463.91" r="3.8" fill="#3bf2af" stroke="#111827" stroke-width="1"/>
<circle cx="927.53" cy="459.82" r="3.8" fill="#3bf2af" stroke="#111827" stroke-width="1"/>
<circle cx="929.81" cy="457.77" r="3.8" fill="#3bf2af" stroke="#111827" stroke-width="1"/>
<circle cx="940.57" cy="457.77" r="3.8" fill="#3bf2af" stroke="#111827" stroke-width="1"/>
<circle cx="954.59" cy="457.77" r="3.8" fill="#3bf2af" stroke="#111827" stroke-width="1"/>
<circle cx="957.20" cy="455.73" r="3.8" fill="#3bf2af" stroke="#111827" stroke-width="1"/>
<circle cx="962.09" cy="453.68" r="3.8" fill="#3bf2af" stroke="#111827" stroke-width="1"/>
<circle cx="974.15" cy="453.68" r="3.8" fill="#3bf2af" stroke="#111827" stroke-width="1"/>
<circle cx="989.80" cy="453.68" r="3.8" fill="#3bf2af" stroke="#111827" stroke-width="1"/>
<circle cx="996.98" cy="453.68" r="3.8" fill="#3bf2af" stroke="#111827" stroke-width="1"/>
<circle cx="998.28" cy="453.68" r="3.8" fill="#3bf2af" stroke="#111827" stroke-width="1"/>
<circle cx="1001.22" cy="451.64" r="3.8" fill="#3bf2af" stroke="#111827" stroke-width="1"/>
<circle cx="1016.87" cy="451.64" r="3.8" fill="#3bf2af" stroke="#111827" stroke-width="1"/>
<circle cx="1019.80" cy="451.64" r="3.8" fill="#3bf2af" stroke="#111827" stroke-width="1"/>
<circle cx="1028.61" cy="451.64" r="3.8" fill="#3bf2af" stroke="#111827" stroke-width="1"/>
<circle cx="1031.87" cy="451.64" r="3.8" fill="#3bf2af" stroke="#111827" stroke-width="1"/>
<circle cx="1036.00" cy="451.64" r="3.8" fill="#3bf2af" stroke="#111827" stroke-width="1"/>
<text x="1028.0" y="441.6" text-anchor="end" fill="#3bf2af" font-size="12" font-family="-apple-system,BlinkMacSystemFont,Segoe UI,Helvetica,Arial,sans-serif">8</text>
<polyline fill="none" stroke="url(#repo-1)" stroke-width="4" stroke-linecap="round" stroke-linejoin="round" points="90.00,468.00 91.82,468.00 92.48,468.00 96.06,468.00 99.65,468.00 136.82,468.00 137.80,465.95 143.67,463.91 149.54,463.91 154.10,461.86 157.69,461.86 158.34,461.86 158.67,461.86 158.99,461.86 160.62,461.86 161.28,461.86 165.52,459.82 165.84,459.82 169.75,459.82 170.73,459.82 171.06,459.82 172.69,459.82 174.32,459.82 176.28,459.82 177.25,459.82 182.47,459.82 185.08,459.82 186.71,459.82 187.04,459.82 192.25,459.82 192.58,459.82 193.23,457.77 196.49,457.77 197.14,457.77 197.47,455.73 197.80,453.68 203.66,453.68 205.29,451.64 211.49,451.64 212.79,451.64 213.45,449.59 216.05,447.55 218.99,447.55 222.90,445.50 223.23,445.50 225.51,445.50 227.79,445.50 231.05,445.50 232.03,445.50 234.31,445.50 236.60,445.50 238.55,445.50 238.88,445.50 239.21,445.50 241.81,445.50 242.47,445.50 243.12,445.50 243.44,443.45 243.77,441.41 244.10,441.41 246.70,441.41 247.36,441.41 249.97,439.36 255.51,439.36 256.16,437.32 256.49,437.32 256.81,437.32 257.46,433.23 258.77,433.23 259.10,433.23 261.05,433.23 261.38,433.23 263.66,433.23 264.64,433.23 265.29,433.23 266.27,431.18 267.90,431.18 268.23,429.14 269.20,429.14 272.14,429.14 275.72,429.14 276.70,429.14 277.68,429.14 278.01,429.14 279.31,429.14 279.64,429.14 280.29,429.14 281.27,429.14 282.90,429.14 283.55,429.14 283.88,429.14 284.20,429.14 285.83,429.14 286.81,429.14 287.46,429.14 288.77,427.09 289.09,425.05 290.72,425.05 294.31,425.05 296.27,425.05 297.90,423.00 298.22,423.00 300.51,423.00 302.14,423.00 302.46,420.95 304.42,420.95 304.74,420.95 305.40,418.91 306.37,416.86 306.70,416.86 307.03,416.86 307.35,416.86 311.92,414.82 315.83,414.82 316.16,414.82 316.81,414.82 318.11,414.82 318.44,414.82 320.07,412.77 320.72,410.73 321.05,410.73 321.37,410.73 321.70,410.73 323.33,410.73 326.59,408.68 327.89,408.68 328.22,406.64 328.87,406.64 329.20,404.59 329.85,402.55 330.50,402.55 331.16,400.50 332.46,398.45 333.11,398.45 335.07,398.45 335.39,398.45 336.70,398.45 338.65,398.45 339.96,398.45 341.26,396.41 341.59,396.41 342.24,396.41 343.22,396.41 344.20,396.41 345.83,396.41 347.46,396.41 349.09,396.41 352.02,394.36 354.63,394.36 354.96,394.36 355.28,394.36 360.17,394.36 361.15,394.36 362.13,394.36 362.46,394.36 363.44,394.36 365.72,394.36 366.04,394.36 367.67,394.36 369.63,392.32 372.89,392.32 373.87,392.32 374.85,392.32 376.15,392.32 376.80,392.32 377.13,392.32 377.78,390.27 379.41,390.27 380.72,390.27 384.96,388.23 386.59,388.23 387.56,388.23 390.50,386.18 391.15,384.14 391.48,384.14 391.80,384.14 393.43,384.14 394.41,384.14 395.72,384.14 396.04,384.14 396.69,384.14 398.98,384.14 399.30,384.14 399.95,384.14 402.24,384.14 402.89,384.14 404.19,384.14 405.17,382.09 405.50,382.09 405.82,382.09 409.74,382.09 410.39,382.09 411.69,382.09 412.02,382.09 413.32,382.09 414.63,382.09 414.95,382.09 415.28,382.09 416.91,382.09 417.56,382.09 419.19,380.05 420.50,378.00 421.47,378.00 423.43,378.00 424.74,378.00 426.37,378.00 426.69,378.00 427.34,378.00 428.00,378.00 428.65,378.00 428.97,375.95 429.95,373.91 430.28,373.91 430.60,373.91 430.93,371.86 432.56,371.86 433.21,369.82 434.52,369.82 435.17,369.82 436.15,369.82 436.80,369.82 437.78,369.82 439.08,369.82 440.39,367.77 441.69,365.73 442.02,365.73 443.65,365.73 443.97,365.73 444.63,365.73 444.95,365.73 445.60,365.73 445.93,365.73 447.56,365.73 448.86,365.73 450.49,363.68 455.06,363.68 455.39,363.68 455.71,361.64 456.04,361.64 457.02,357.55 457.34,357.55 457.67,357.55 457.99,357.55 459.30,355.50 459.95,355.50 460.28,355.50 461.25,353.45 461.58,351.41 462.23,351.41 464.19,351.41 464.52,351.41 464.84,351.41 466.15,351.41 468.43,351.41 468.75,351.41 469.41,351.41 471.69,351.41 473.32,351.41 474.95,349.36 477.88,347.32 479.19,347.32 479.51,347.32 479.84,345.27 480.49,345.27 480.82,343.23 481.14,343.23 482.12,343.23 482.45,343.23 483.43,343.23 485.06,343.23 485.38,339.14 485.71,339.14 486.04,339.14 486.36,339.14 486.69,339.14 487.01,339.14 487.67,339.14 487.99,339.14 488.32,335.05 489.30,335.05 489.95,335.05 490.60,335.05 491.90,335.05 493.21,335.05 493.53,335.05 493.86,333.00 494.19,330.95 495.82,330.95 497.12,330.95 497.45,330.95 498.75,330.95 499.08,330.95 499.40,328.91 502.66,328.91 502.99,328.91 503.64,328.91 505.27,328.91 505.93,328.91 506.58,328.91 507.88,326.86 508.53,326.86 508.86,324.82 509.19,324.82 509.51,322.77 510.82,322.77 511.14,322.77 511.79,322.77 512.12,322.77 513.10,322.77 513.42,322.77 514.73,322.77 517.66,322.77 518.64,322.77 519.62,322.77 519.95,320.73 520.27,320.73 520.60,318.68 520.92,318.68 521.58,318.68 523.86,316.64 525.16,316.64 525.49,316.64 525.82,316.64 526.79,316.64 528.10,314.59 529.40,314.59 531.03,314.59 531.36,314.59 534.95,314.59 536.58,314.59 537.23,314.59 537.88,314.59 540.49,314.59 541.14,314.59 541.47,314.59 542.44,314.59 543.10,314.59 543.75,312.55 544.40,312.55 545.05,312.55 546.36,312.55 546.68,312.55 547.01,312.55 548.64,310.50 549.29,310.50 549.62,310.50 550.60,310.50 551.25,310.50 551.90,310.50 553.53,310.50 553.86,308.45 554.18,308.45 555.16,308.45 555.81,306.41 556.47,306.41 558.10,306.41 561.03,306.41 561.36,306.41 562.66,306.41 562.99,306.41 564.29,306.41 564.62,306.41 564.94,304.36 565.59,304.36 566.57,304.36 566.90,304.36 567.23,304.36 567.88,304.36 569.18,304.36 570.16,302.32 570.49,302.32 574.72,302.32 575.05,302.32 576.03,302.32 576.68,302.32 578.96,302.32 579.94,300.27 580.27,300.27 580.59,300.27 583.20,300.27 583.53,300.27 583.85,300.27 584.83,300.27 585.16,300.27 585.81,300.27 588.09,300.27 588.75,300.27 589.40,296.18 590.38,296.18 590.70,296.18 591.68,296.18 597.22,296.18 598.53,296.18 598.85,296.18 600.48,296.18 601.14,294.14 601.46,294.14 601.79,292.09 602.11,292.09 603.09,290.05 604.07,290.05 604.40,290.05 606.35,290.05 606.68,290.05 607.33,290.05 608.31,290.05 608.96,290.05 609.29,290.05 610.59,290.05 611.24,288.00 611.90,288.00 612.87,288.00 613.20,288.00 617.44,288.00 618.42,285.95 619.40,285.95 619.72,285.95 621.35,285.95 621.68,285.95 622.00,285.95 622.33,285.95 623.63,285.95 624.61,285.95 626.89,285.95 627.87,285.95 628.20,285.95 628.85,283.91 629.50,283.91 631.46,283.91 631.79,283.91 635.05,283.91 635.37,283.91 636.35,283.91 636.68,283.91 637.66,283.91 637.98,279.82 638.31,279.82 639.94,279.82 640.26,279.82 641.24,279.82 642.87,279.82 644.18,279.82 645.15,277.77 648.74,275.73 649.07,273.68 651.02,271.64 651.68,271.64 652.33,269.59 653.63,267.55 653.96,265.50 656.57,265.50 659.50,265.50 660.15,265.50 660.48,263.45 660.81,263.45 663.74,261.41 665.04,259.36 665.37,259.36 665.70,259.36 666.35,257.32 667.65,257.32 667.98,257.32 668.63,257.32 669.94,257.32 671.57,257.32 671.89,255.27 672.54,255.27 672.87,255.27 673.20,253.23 673.52,253.23 673.85,253.23 674.50,253.23 678.41,253.23 680.70,251.18 682.98,249.14 683.96,247.09 684.28,245.05 684.61,245.05 685.59,243.00 685.91,243.00 688.19,240.95 688.52,240.95 689.83,238.91 690.15,238.91 690.48,238.91 691.78,238.91 692.76,236.86 694.06,236.86 695.04,234.82 695.37,232.77 697.32,232.77 697.98,232.77 698.95,232.77 699.28,232.77 699.93,232.77 701.89,230.73 702.54,228.68 703.19,228.68 703.52,228.68 704.17,228.68 704.50,228.68 705.48,228.68 705.80,228.68 706.45,228.68 707.76,228.68 708.08,228.68 708.74,228.68 709.39,228.68 710.69,228.68 711.02,226.64 712.32,226.64 713.63,226.64 715.26,224.59 716.24,224.59 716.56,224.59 718.19,222.55 718.52,222.55 719.82,222.55 720.80,222.55 721.45,220.50 722.43,220.50 723.74,220.50 724.06,220.50 724.71,220.50 727.32,220.50 729.28,218.45 731.56,218.45 735.15,218.45 735.47,216.41 735.80,216.41 737.76,216.41 738.41,216.41 738.73,216.41 739.06,214.36 740.04,214.36 740.37,212.32 741.02,212.32 743.63,212.32 745.26,212.32 745.91,210.27 747.54,208.23 748.84,208.23 751.78,206.18 753.08,204.14 755.04,204.14 760.91,202.09 763.19,200.05 763.84,200.05 766.78,200.05 767.43,200.05 768.08,200.05 770.04,200.05 770.69,200.05 771.34,200.05 771.67,198.00 771.99,198.00 774.60,198.00 777.54,198.00 779.17,198.00 781.12,198.00 784.06,195.95 786.67,195.95 787.97,195.95 788.62,195.95 789.93,195.95 791.56,195.95 792.21,195.95 792.86,195.95 794.82,195.95 796.12,195.95 796.45,195.95 799.38,193.91 799.71,193.91 800.03,191.86 800.69,191.86 801.67,189.82 802.97,189.82 804.93,189.82 805.25,189.82 806.23,187.77 808.51,185.73 810.79,185.73 812.75,185.73 815.36,185.73 816.01,185.73 816.34,185.73 817.32,183.68 817.64,183.68 817.97,183.68 818.62,183.68 819.92,181.64 822.21,181.64 822.53,179.59 823.51,179.59 825.47,179.59 827.10,179.59 827.42,179.59 828.73,179.59 829.71,179.59 830.03,177.55 831.34,177.55 831.99,175.50 833.62,175.50 833.95,173.45 834.27,173.45 836.23,173.45 837.21,173.45 837.53,173.45 839.49,171.41 840.79,171.41 841.12,171.41 841.44,169.36 843.73,169.36 845.36,169.36 849.27,169.36 849.60,169.36 851.55,169.36 854.49,169.36 857.75,169.36 859.70,169.36 860.03,169.36 860.36,169.36 861.01,169.36 863.62,169.36 865.90,169.36 869.16,169.36 869.49,167.32 872.42,167.32 873.40,167.32 874.70,167.32 884.81,167.32 886.12,167.32 886.44,167.32 889.70,167.32 891.33,167.32 893.61,167.32 894.27,165.27 894.59,165.27 896.55,165.27 897.85,165.27 898.51,165.27 898.83,165.27 899.16,165.27 900.14,165.27 901.77,165.27 902.09,163.23 903.72,163.23 906.01,163.23 908.29,163.23 908.94,163.23 912.53,163.23 912.85,163.23 914.48,163.23 916.11,163.23 919.05,163.23 920.35,163.23 922.63,159.14 922.96,159.14 923.61,157.09 925.24,157.09 925.57,157.09 926.22,157.09 927.20,157.09 927.53,157.09 927.85,157.09 928.18,157.09 929.48,157.09 929.81,155.05 931.76,155.05 932.09,155.05 933.72,155.05 934.05,155.05 934.70,155.05 935.35,153.00 936.33,153.00 939.59,153.00 945.46,153.00 946.76,153.00 948.39,150.95 949.70,150.95 951.00,150.95 951.98,150.95 952.96,150.95 955.24,148.91 956.87,148.91 957.52,146.86 959.81,144.82 960.13,142.77 960.46,142.77 964.04,142.77 966.00,142.77 966.33,140.73 969.26,140.73 974.15,140.73 975.46,138.68 975.78,138.68 976.76,138.68 980.67,138.68 985.24,138.68 985.56,136.64 989.80,136.64 992.41,136.64 1005.13,136.64 1008.06,136.64 1009.04,136.64 1010.67,136.64 1011.00,136.64 1016.87,136.64 1019.48,136.64 1024.69,136.64 1026.32,136.64 1028.61,136.64 1035.21,124.36 1036.00,124.36"/>
<circle cx="90.00" cy="468.00" r="3.8" fill="#ffb50c" stroke="#111827" stroke-width="1"/>
<circle cx="192.25" cy="459.82" r="3.8" fill="#ffb50c" stroke="#111827" stroke-width="1"/>
<circle cx="243.77" cy="441.41" r="3.8" fill="#ffb50c" stroke="#111827" stroke-width="1"/>
<circle cx="281.27" cy="429.14" r="3.8" fill="#ffb50c" stroke="#111827" stroke-width="1"/>
<circle cx="318.11" cy="414.82" r="3.8" fill="#ffb50c" stroke="#111827" stroke-width="1"/>
<circle cx="347.46" cy="396.41" r="3.8" fill="#ffb50c" stroke="#111827" stroke-width="1"/>
<circle cx="391.48" cy="384.14" r="3.8" fill="#ffb50c" stroke="#111827" stroke-width="1"/>
<circle cx="423.43" cy="378.00" r="3.8" fill="#ffb50c" stroke="#111827" stroke-width="1"/>
<circle cx="447.56" cy="365.73" r="3.8" fill="#ffb50c" stroke="#111827" stroke-width="1"/>
<circle cx="479.51" cy="347.32" r="3.8" fill="#ffb50c" stroke="#111827" stroke-width="1"/>
<circle cx="498.75" cy="330.95" r="3.8" fill="#ffb50c" stroke="#111827" stroke-width="1"/>
<circle cx="523.86" cy="316.64" r="3.8" fill="#ffb50c" stroke="#111827" stroke-width="1"/>
<circle cx="551.90" cy="310.50" r="3.8" fill="#ffb50c" stroke="#111827" stroke-width="1"/>
<circle cx="580.27" cy="300.27" r="3.8" fill="#ffb50c" stroke="#111827" stroke-width="1"/>
<circle cx="608.96" cy="290.05" r="3.8" fill="#ffb50c" stroke="#111827" stroke-width="1"/>
<circle cx="637.98" cy="279.82" r="3.8" fill="#ffb50c" stroke="#111827" stroke-width="1"/>
<circle cx="671.57" cy="257.32" r="3.8" fill="#ffb50c" stroke="#111827" stroke-width="1"/>
<circle cx="699.28" cy="232.77" r="3.8" fill="#ffb50c" stroke="#111827" stroke-width="1"/>
<circle cx="724.06" cy="220.50" r="3.8" fill="#ffb50c" stroke="#111827" stroke-width="1"/>
<circle cx="770.04" cy="200.05" r="3.8" fill="#ffb50c" stroke="#111827" stroke-width="1"/>
<circle cx="808.51" cy="185.73" r="3.8" fill="#ffb50c" stroke="#111827" stroke-width="1"/>
<circle cx="840.79" cy="171.41" r="3.8" fill="#ffb50c" stroke="#111827" stroke-width="1"/>
<circle cx="896.55" cy="165.27" r="3.8" fill="#ffb50c" stroke="#111827" stroke-width="1"/>
<circle cx="929.81" cy="155.05" r="3.8" fill="#ffb50c" stroke="#111827" stroke-width="1"/>
<circle cx="976.76" cy="138.68" r="3.8" fill="#ffb50c" stroke="#111827" stroke-width="1"/>
<circle cx="1036.00" cy="124.36" r="3.8" fill="#ffb50c" stroke="#111827" stroke-width="1"/>
<text x="1028.0" y="114.4" text-anchor="end" fill="#ffb50c" font-size="12" font-family="-apple-system,BlinkMacSystemFont,Segoe UI,Helvetica,Arial,sans-serif">168</text>
<rect x="90" y="514" width="14" height="14" fill="url(#repo-0)" rx="3"/>
<text x="112" y="526" fill="#3bf2af" font-size="13" font-family="-apple-system,BlinkMacSystemFont,Segoe UI,Helvetica,Arial,sans-serif">bavix/gripmock</text>
<rect x="280" y="514" width="14" height="14" fill="url(#repo-1)" rx="3"/>
<text x="302" y="526" fill="#ffb50c" font-size="13" font-family="-apple-system,BlinkMacSystemFont,Segoe UI,Helvetica,Arial,sans-serif">tokopedia/gripmock</text>
<text x="1036" y="526" text-anchor="end" fill="#9ca3af" font-size="12" font-family="-apple-system,BlinkMacSystemFont,Segoe UI,Helvetica,Arial,sans-serif">Source: https://github.com/bavix/artifact-stats/blob/master/stats/github.csv</text>
</svg>