<svg xmlns="http://www.w3.org/2000/svg" width="1100" height="560" viewBox="0 0 1100 560">
<defs>
<linearGradient id="bg" x1="0" y1="0" x2="1" y2="1"><stop offset="0%" stop-color="#0b1220"/><stop offset="100%" stop-color="#111827"/></linearGradient>
<linearGradient id="repo-0" x1="0" y1="0" x2="0" y2="1"><stop offset="0%" stop-color="#34d399"/><stop offset="100%" stop-color="#059669"/></linearGradient>
<linearGradient id="repo-1" x1="0" y1="0" x2="0" y2="1"><stop offset="0%" stop-color="#f59e0b"/><stop offset="100%" stop-color="#d97706"/></linearGradient>
</defs>
<rect x="0" y="0" width="1100" height="560" fill="url(#bg)" rx="16"/>
<text x="90" y="44" fill="#f9fafb" font-size="28" font-family="-apple-system,BlinkMacSystemFont,Segoe UI,Helvetica,Arial,sans-serif" font-weight="700">GripMock GitHub Metrics - Stars</text>
<text x="90" y="70" fill="#9ca3af" font-size="16" font-family="-apple-system,BlinkMacSystemFont,Segoe UI,Helvetica,Arial,sans-serif">GitHub stars by snapshot date</text>
<line x1="90" y1="90.00" x2="1036" y2="90.00" stroke="#1f2937" stroke-width="1"/>
<text x="80" y="95.00" text-anchor="end" fill="#9ca3af" font-size="12" font-family="-apple-system,BlinkMacSystemFont,Segoe UI,Helvetica,Arial,sans-serif">811</text>
<line x1="90" y1="153.00" x2="1036" y2="153.00" stroke="#1f2937" stroke-width="1"/>
<text x="80" y="158.00" text-anchor="end" fill="#9ca3af" font-size="12" font-family="-apple-system,BlinkMacSystemFont,Segoe UI,Helvetica,Arial,sans-serif">676</text>
<line x1="90" y1="216.00" x2="1036" y2="216.00" stroke="#1f2937" stroke-width="1"/>
<text x="80" y="221.00" text-anchor="end" fill="#9ca3af" font-size="12" font-family="-apple-system,BlinkMacSystemFont,Segoe UI,Helvetica,Arial,sans-serif">540</text>
<line x1="90" y1="279.00" x2="1036" y2="279.00" stroke="#1f2937" stroke-width="1"/>
<text x="80" y="284.00" text-anchor="end" fill="#9ca3af" font-size="12" font-family="-apple-system,BlinkMacSystemFont,Segoe UI,Helvetica,Arial,sans-serif">405</text>
<line x1="90" y1="342.00" x2="1036" y2="342.00" stroke="#1f2937" stroke-width="1"/>
<text x="80" y="347.00" text-anchor="end" fill="#9ca3af" font-size="12" font-family="-apple-system,BlinkMacSystemFont,Segoe UI,Helvetica,Arial,sans-serif">270</text>
<line x1="90" y1="405.00" x2="1036" y2="405.00" stroke="#1f2937" stroke-width="1"/>
<text x="80" y="410.00" text-anchor="end" fill="#9ca3af" font-size="12" font-family="-apple-system,BlinkMacSystemFont,Segoe UI,Helvetica,Arial,sans-serif">135</text>
<line x1="90" y1="468.00" x2="1036" y2="468.00" stroke="#1f2937" stroke-width="1"/>
<text x="80" y="473.00" text-anchor="end" fill="#9ca3af" font-size="12" font-family="-apple-system,BlinkMacSystemFont,Segoe UI,Helvetica,Arial,sans-serif">0</text>
<line x1="90" y1="468" x2="1036" y2="468" stroke="#4b5563" stroke-width="1.4"/>
<line x1="90" y1="90" x2="90" y2="468" stroke="#4b5563" stroke-width="1.4"/>
<line x1="90.00" y1="468" x2="90.00" y2="474" stroke="#6b7280" stroke-width="1"/>
<text x="90.00" y="494" text-anchor="start" fill="#9ca3af" font-size="12" font-family="-apple-system,BlinkMacSystemFont,Segoe UI,Helvetica,Arial,sans-serif">2018-04-24</text>
<line x1="279.20" y1="468" x2="279.20" y2="474" stroke="#6b7280" stroke-width="1"/>
<text x="279.20" y="494" text-anchor="middle" fill="#9ca3af" font-size="12" font-family="-apple-system,BlinkMacSystemFont,Segoe UI,Helvetica,Arial,sans-serif">2019-11-30</text>
<line x1="468.40" y1="468" x2="468.40" y2="474" stroke="#6b7280" stroke-width="1"/>
<text x="468.40" y="494" text-anchor="middle" fill="#9ca3af" font-size="12" font-family="-apple-system,BlinkMacSystemFont,Segoe UI,Helvetica,Arial,sans-serif">2021-07-06</text>
<line x1="657.60" y1="468" x2="657.60" y2="474" stroke="#6b7280" stroke-width="1"/>
<text x="657.60" y="494" text-anchor="middle" fill="#9ca3af" font-size="12" font-family="-apple-system,BlinkMacSystemFont,Segoe UI,Helvetica,Arial,sans-serif">2023-02-11</text>
<line x1="846.80" y1="468" x2="846.80" y2="474" stroke="#6b7280" stroke-width="1"/>
<text x="846.80" y="494" text-anchor="middle" fill="#9ca3af" font-size="12" font-family="-apple-system,BlinkMacSystemFont,Segoe UI,Helvetica,Arial,sans-serif">2024-09-18</text>
<line x1="1036.00" y1="468" x2="1036.00" y2="474" stroke="#6b7280" stroke-width="1"/>
<text x="1036.00" y="494" text-anchor="end" fill="#9ca3af" font-size="12" font-family="-apple-system,BlinkMacSystemFont,Segoe UI,Helvetica,Arial,sans-serif">2026-04-26</text>
<polyline fill="none" stroke="url(#repo-0)" stroke-width="4" stroke-linecap="round" stroke-linejoin="round" points="717.68,468.00 724.34,467.53 737.29,467.07 750.88,466.60 752.82,466.13 756.05,465.67 767.70,465.20 769.96,464.74 775.46,464.27 775.79,463.80 780.64,463.34 788.41,462.87 800.70,462.40 803.94,461.94 808.14,461.47 811.70,461.01 826.59,460.54 831.12,460.07 831.76,459.61 833.06,459.14 839.20,458.67 852.79,458.21 855.70,457.74 862.50,457.28 868.00,456.81 868.65,456.34 869.29,455.88 889.35,455.41 891.94,454.94 892.59,454.48 898.74,454.01 899.38,453.55 903.27,453.55 904.56,453.08 904.88,452.61 905.21,452.15 908.12,451.68 909.74,451.21 911.35,450.75 916.53,450.75 921.06,450.75 922.68,450.28 923.33,450.28 930.12,449.82 934.00,449.35 945.65,448.88 947.92,448.42 948.56,448.42 950.50,447.95 952.45,447.48 955.36,447.48 960.53,447.02 967.33,446.55 971.53,446.09 982.86,445.62 985.12,445.15 989.98,444.69 990.30,444.22 991.27,443.75 993.86,443.29 994.18,443.29 1002.92,442.82 1009.71,442.36 1010.36,441.89 1012.62,441.42 1019.10,440.96 1021.36,440.49 1022.98,440.02 1024.60,439.56 1027.91,439.56 1028.87,439.56 1029.20,439.09 1029.85,439.09 1030.17,438.63 1030.49,439.09 1035.03,439.09 1035.35,438.63 1035.67,438.16 1036.00,438.16"/>
<circle cx="717.68" cy="468.00" r="3.8" fill="#3bf2af" stroke="#111827" stroke-width="1"/>
<circle cx="750.88" cy="466.60" r="3.8" fill="#3bf2af" stroke="#111827" stroke-width="1"/>
<circle cx="767.70" cy="465.20" r="3.8" fill="#3bf2af" stroke="#111827" stroke-width="1"/>
<circle cx="775.79" cy="463.80" r="3.8" fill="#3bf2af" stroke="#111827" stroke-width="1"/>
<circle cx="800.70" cy="462.40" r="3.8" fill="#3bf2af" stroke="#111827" stroke-width="1"/>
<circle cx="811.70" cy="461.01" r="3.8" fill="#3bf2af" stroke="#111827" stroke-width="1"/>
<circle cx="831.76" cy="459.61" r="3.8" fill="#3bf2af" stroke="#111827" stroke-width="1"/>
<circle cx="852.79" cy="458.21" r="3.8" fill="#3bf2af" stroke="#111827" stroke-width="1"/>
<circle cx="868.00" cy="456.81" r="3.8" fill="#3bf2af" stroke="#111827" stroke-width="1"/>
<circle cx="889.35" cy="455.41" r="3.8" fill="#3bf2af" stroke="#111827" stroke-width="1"/>
<circle cx="898.74" cy="454.01" r="3.8" fill="#3bf2af" stroke="#111827" stroke-width="1"/>
<circle cx="904.56" cy="453.08" r="3.8" fill="#3bf2af" stroke="#111827" stroke-width="1"/>
<circle cx="908.12" cy="451.68" r="3.8" fill="#3bf2af" stroke="#111827" stroke-width="1"/>
<circle cx="916.53" cy="450.75" r="3.8" fill="#3bf2af" stroke="#111827" stroke-width="1"/>
<circle cx="923.33" cy="450.28" r="3.8" fill="#3bf2af" stroke="#111827" stroke-width="1"/>
<circle cx="945.65" cy="448.88" r="3.8" fill="#3bf2af" stroke="#111827" stroke-width="1"/>
<circle cx="950.50" cy="447.95" r="3.8" fill="#3bf2af" stroke="#111827" stroke-width="1"/>
<circle cx="960.53" cy="447.02" r="3.8" fill="#3bf2af" stroke="#111827" stroke-width="1"/>
<circle cx="982.86" cy="445.62" r="3.8" fill="#3bf2af" stroke="#111827" stroke-width="1"/>
<circle cx="990.30" cy="444.22" r="3.8" fill="#3bf2af" stroke="#111827" stroke-width="1"/>
<circle cx="994.18" cy="443.29" r="3.8" fill="#3bf2af" stroke="#111827" stroke-width="1"/>
<circle cx="1010.36" cy="441.89" r="3.8" fill="#3bf2af" stroke="#111827" stroke-width="1"/>
<circle cx="1021.36" cy="440.49" r="3.8" fill="#3bf2af" stroke="#111827" stroke-width="1"/>
<circle cx="1027.91" cy="439.56" r="3.8" fill="#3bf2af" stroke="#111827" stroke-width="1"/>
<circle cx="1029.85" cy="439.09" r="3.8" fill="#3bf2af" stroke="#111827" stroke-width="1"/>
<circle cx="1035.03" cy="439.09" r="3.8" fill="#3bf2af" stroke="#111827" stroke-width="1"/>
<circle cx="1036.00" cy="438.16" r="3.8" fill="#3bf2af" stroke="#111827" stroke-width="1"/>
<text x="1028.00" y="428.16" text-anchor="end" fill="#3bf2af" font-size="12" font-family="-apple-system,BlinkMacSystemFont,Segoe UI,Helvetica,Arial,sans-serif">64</text>
<polyline fill="none" stroke="url(#repo-1)" stroke-width="4" stroke-linecap="round" stroke-linejoin="round" points="90.00,468.00 91.81,466.60 92.46,466.13 96.02,465.67 99.58,465.20 136.46,464.74 137.43,464.27 143.25,464.27 149.08,463.80 153.61,463.80 157.17,463.34 157.81,462.87 158.14,462.40 158.46,461.94 160.08,461.47 160.73,461.01 164.93,460.54 165.26,460.07 169.14,459.61 170.11,459.14 170.43,458.67 172.05,458.21 173.67,457.28 175.61,456.81 176.58,456.34 181.76,455.88 184.34,455.41 185.96,454.94 186.29,454.48 191.46,454.01 191.79,453.55 192.43,453.08 195.67,452.61 196.32,451.68 196.64,451.68 196.96,451.68 202.79,451.21 204.40,451.21 210.55,450.75 211.85,450.28 212.49,450.28 215.08,449.82 217.99,449.35 221.88,449.35 222.20,448.88 224.46,448.42 226.73,447.95 229.97,447.48 230.94,447.02 233.20,446.55 235.47,446.09 237.41,445.62 237.73,445.15 238.05,444.69 240.64,444.22 241.29,443.75 241.94,442.82 242.26,442.36 242.58,441.42 242.91,440.96 245.50,440.49 246.14,439.56 248.73,439.56 254.23,439.09 254.88,439.09 255.20,438.63 255.53,438.16 256.17,438.16 257.47,437.69 257.79,437.23 259.73,436.76 260.05,436.29 262.32,435.83 263.29,434.90 263.94,433.96 264.91,433.96 266.53,433.50 266.85,433.03 267.82,432.56 270.73,432.10 274.29,431.63 275.26,431.17 276.23,430.70 276.56,430.23 277.85,429.77 278.17,429.30 278.82,428.83 279.79,427.44 281.41,426.97 282.06,426.50 282.38,426.04 282.70,424.64 284.32,424.17 285.29,423.70 285.94,423.24 287.23,423.24 287.56,422.77 289.17,422.31 292.73,421.84 294.67,421.37 296.29,421.37 296.62,420.44 298.88,419.97 300.50,419.51 300.82,419.51 302.76,419.04 303.09,418.58 303.73,418.58 304.70,418.58 305.03,418.11 305.35,417.64 305.67,417.18 310.20,415.78 314.09,415.31 314.41,414.85 315.06,414.38 316.35,413.91 316.68,413.45 318.29,413.45 318.94,412.98 319.26,412.51 319.59,412.05 319.91,411.58 321.53,411.12 324.76,410.65 326.06,410.18 326.38,410.18 327.03,409.72 327.35,409.72 328.00,408.32 328.65,407.85 329.29,407.85 330.59,407.39 331.24,406.92 333.18,406.45 333.50,405.99 334.79,405.52 336.74,405.05 338.03,404.59 339.32,404.59 339.65,404.12 340.29,403.66 341.27,403.19 342.24,402.72 343.85,402.26 345.47,401.79 347.09,401.32 350.00,400.86 352.59,400.39 352.91,399.93 353.24,399.46 358.09,398.99 359.06,398.53 360.03,398.06 360.35,397.13 361.33,396.66 363.59,395.73 363.91,394.80 365.53,394.33 367.47,394.33 370.71,393.86 371.68,393.40 372.65,392.93 373.94,392.00 374.59,391.53 374.91,391.07 375.56,390.60 377.18,389.67 378.47,389.20 382.68,388.27 384.30,386.87 385.27,385.94 388.18,385.94 388.83,385.94 389.15,385.47 389.47,384.54 391.09,383.61 392.06,383.14 393.36,382.67 393.68,382.21 394.33,381.74 396.59,381.27 396.92,380.81 397.56,380.34 399.83,379.88 400.47,379.41 401.77,378.94 402.74,378.48 403.06,378.01 403.39,377.54 407.27,377.08 407.92,376.61 409.21,375.68 409.53,375.21 410.83,374.75 412.12,371.48 412.45,370.55 412.77,370.08 414.39,369.62 415.03,369.15 416.65,369.15 417.95,368.69 418.92,368.22 420.86,367.29 422.15,366.82 423.77,366.35 424.09,365.89 424.74,365.42 425.39,364.49 426.03,364.02 426.36,364.02 427.33,364.02 427.65,363.56 427.98,363.09 428.30,362.62 429.92,362.16 430.56,361.23 431.86,360.76 432.51,359.83 433.48,359.36 434.12,358.89 435.09,358.43 436.39,357.96 437.68,357.96 438.98,357.50 439.30,357.03 440.92,356.56 441.24,356.10 441.89,355.63 442.21,355.16 442.86,354.70 443.18,353.30 444.80,352.83 446.09,352.37 447.71,351.90 452.24,350.97 452.57,350.50 452.89,350.50 453.21,350.04 454.18,349.57 454.51,349.10 454.83,348.64 455.15,347.70 456.45,347.24 457.09,346.31 457.42,344.91 458.39,344.91 458.71,344.91 459.36,343.97 461.30,343.51 461.62,342.58 461.95,342.11 463.24,341.64 465.51,341.18 465.83,340.71 466.48,340.24 468.74,339.78 470.36,339.31 471.98,339.31 474.89,339.31 476.18,338.84 476.51,338.38 476.83,338.38 477.48,337.91 477.80,336.98 478.13,336.51 479.10,336.05 479.42,335.58 480.39,335.11 482.01,334.18 482.33,334.18 482.66,333.25 482.98,332.78 483.30,331.38 483.63,330.45 483.95,329.99 484.60,329.52 484.92,327.65 485.24,327.19 486.21,326.72 486.86,325.79 487.51,325.32 488.80,324.86 490.10,324.39 490.42,323.92 490.74,323.46 491.07,322.99 492.69,322.53 493.98,322.06 494.30,321.59 495.60,320.66 495.92,319.73 496.24,319.73 499.48,319.26 499.80,318.80 500.45,318.33 502.07,317.40 502.72,316.93 503.36,316.46 504.66,316.46 505.30,315.53 505.63,315.53 505.95,313.67 506.27,311.34 507.57,310.87 507.89,310.40 508.54,309.94 508.86,309.47 509.83,309.00 510.16,308.54 511.45,308.07 514.36,307.61 515.33,307.14 516.30,306.67 516.63,305.27 516.95,304.81 517.27,304.34 517.60,303.88 518.25,303.41 520.51,303.41 521.80,302.94 522.13,302.48 522.45,302.01 523.42,301.54 524.72,301.54 526.01,301.08 527.63,300.61 527.95,300.15 531.51,299.68 533.13,299.21 533.78,298.28 534.42,297.81 537.01,297.35 537.66,296.88 537.98,296.41 538.95,295.95 539.60,295.48 540.25,295.48 540.89,295.02 541.54,294.55 542.83,294.08 543.16,293.62 543.48,293.15 545.10,293.15 545.75,292.68 546.07,292.22 547.04,291.29 547.69,290.35 548.34,289.89 549.95,288.95 550.28,288.95 550.60,288.49 551.57,288.02 552.22,287.56 552.86,287.09 554.48,286.62 557.39,286.16 557.72,285.69 559.01,285.22 559.34,284.76 560.63,284.29 560.95,283.83 561.28,281.96 561.92,281.49 562.89,281.03 563.22,280.56 563.54,280.10 564.19,279.63 565.48,279.16 566.45,279.16 566.78,278.70 570.98,278.23 571.31,277.76 572.28,276.83 572.92,276.37 575.19,275.90 576.16,275.43 576.48,274.97 576.81,274.50 579.40,273.57 579.72,273.10 580.04,271.24 581.01,270.77 581.34,270.30 581.98,269.84 584.25,269.37 584.90,268.91 585.54,268.91 586.51,268.44 586.84,267.97 587.81,267.51 593.31,267.04 594.60,266.11 594.93,265.64 596.54,265.18 597.19,265.18 597.51,264.24 597.84,264.24 598.16,263.78 599.13,263.31 600.10,262.84 600.43,262.38 602.37,261.91 602.69,261.45 603.34,260.51 604.31,260.05 604.96,259.58 605.28,259.11 606.57,258.65 607.22,258.65 607.87,258.18 608.84,257.72 609.16,257.25 613.37,256.78 614.34,256.78 615.31,256.32 615.63,255.85 617.25,255.38 617.57,254.45 617.90,253.98 618.22,253.05 619.52,252.59 620.49,252.12 622.75,251.19 623.72,250.72 624.05,250.25 624.69,250.25 625.34,248.86 627.28,248.39 627.60,247.92 630.84,247.46 631.16,246.99 632.13,245.59 632.46,245.13 633.43,244.66 633.75,244.66 634.08,244.19 635.69,243.73 636.02,242.79 636.99,241.86 638.60,241.40 639.90,240.93 640.87,240.93 644.43,240.93 644.75,240.93 646.69,240.93 647.34,240.00 647.99,240.00 649.28,240.00 649.61,240.00 652.19,239.53 655.11,239.06 655.75,238.60 656.08,237.67 656.40,237.20 659.31,236.73 660.61,236.73 660.93,236.27 661.25,235.80 661.90,235.80 663.19,235.33 663.52,234.87 664.16,234.40 665.46,233.94 667.08,233.47 667.40,233.47 668.05,233.00 668.37,232.54 668.69,232.54 669.02,232.07 669.34,231.60 669.99,231.14 673.87,230.67 676.14,230.67 678.40,230.67 679.37,230.67 679.70,230.21 680.02,229.74 680.99,229.74 681.31,229.27 683.58,228.81 683.90,228.34 685.20,228.34 685.52,227.87 685.84,227.41 687.14,226.94 688.11,226.94 689.40,226.01 690.37,226.01 690.70,226.01 692.64,225.54 693.28,224.61 694.25,224.14 694.58,223.68 695.23,223.21 697.17,222.28 697.81,222.28 698.46,221.81 698.78,221.35 699.43,220.88 699.76,220.41 700.73,219.95 701.05,219.02 701.70,218.55 702.99,218.08 703.31,217.62 703.96,216.68 704.61,216.22 705.90,215.75 706.23,215.29 707.52,214.82 708.81,214.35 710.43,214.35 711.40,213.89 711.73,213.42 713.34,213.42 713.67,212.95 714.96,212.49 715.93,211.09 716.58,211.09 717.55,210.62 718.84,210.16 719.17,209.69 719.81,209.22 722.40,208.76 724.34,208.29 726.61,207.82 730.17,207.36 730.49,207.36 730.82,206.89 732.76,205.49 733.40,205.03 733.73,204.56 734.05,204.09 735.02,203.63 735.35,203.16 735.99,202.70 738.58,201.76 740.20,201.30 740.85,201.30 742.46,201.30 743.76,200.83 746.67,200.36 747.96,200.36 749.90,199.90 755.73,199.90 757.99,199.90 758.64,199.43 761.55,198.97 762.20,198.50 762.85,198.03 764.79,197.57 765.44,197.10 766.08,196.17 766.41,196.17 766.73,195.70 769.32,195.24 772.23,194.77 773.85,194.30 775.79,193.84 778.70,193.84 781.29,192.44 782.58,191.97 783.23,191.51 784.52,191.04 786.14,190.57 786.79,190.11 787.44,189.64 789.38,189.17 790.67,188.71 791.00,187.78 793.91,187.78 794.23,187.31 794.55,187.31 795.20,186.84 796.17,186.84 797.47,186.38 799.41,185.91 799.73,185.44 800.70,185.44 802.97,185.44 805.23,184.98 807.17,184.51 809.76,184.05 810.41,183.58 810.73,183.11 811.70,183.11 812.03,182.65 812.35,182.18 813.00,181.25 814.29,180.78 816.56,180.32 816.88,179.85 817.85,178.92 819.79,178.45 821.41,177.98 821.73,177.52 823.03,177.05 824.00,176.59 824.32,176.59 825.61,176.12 826.26,176.12 827.88,175.65 828.20,175.19 828.53,173.79 830.47,173.32 831.44,172.86 831.76,172.39 833.70,172.39 835.00,171.92 835.32,170.52 835.64,170.52 837.91,169.12 839.53,168.66 843.41,168.19 843.73,167.73 845.67,167.26 848.59,166.79 851.82,166.33 853.76,165.39 854.09,164.93 854.41,164.46 855.06,164.00 857.65,163.53 859.91,163.06 863.15,162.60 863.47,162.60 866.38,162.13 867.35,161.66 868.65,161.20 878.68,160.73 879.97,159.80 880.29,159.33 883.53,158.87 885.15,157.93 887.41,157.47 888.06,157.47 888.38,157.00 890.32,156.54 891.62,156.07 892.27,155.60 892.59,155.14 892.91,154.67 893.88,154.20 895.50,153.74 895.82,153.74 897.44,153.27 899.71,152.81 901.97,152.34 902.62,151.87 906.18,151.41 906.50,150.94 908.12,150.47 909.74,150.01 912.65,149.54 913.94,149.08 916.21,149.08 916.53,148.61 917.18,148.61 918.80,148.14 919.12,147.68 919.77,147.21 920.74,146.28 921.06,144.88 921.38,143.95 921.71,143.48 923.00,143.01 923.33,143.01 925.27,142.55 925.59,142.08 927.21,141.62 927.53,141.15 928.18,140.68 928.83,140.68 929.80,140.22 933.03,139.75 938.86,139.28 940.15,138.82 941.77,138.35 943.06,137.89 944.36,137.42 945.33,136.95 946.30,136.02 948.56,136.02 950.18,135.55 950.83,135.55 953.09,135.55 953.42,135.55 953.74,135.09 957.30,134.62 959.24,134.16 959.56,134.16 962.48,133.69 967.33,133.22 968.62,133.22 968.95,132.76 969.92,132.29 973.80,131.82 978.33,131.36 978.65,131.36 982.86,130.89 985.45,130.43 998.07,129.96 1000.98,129.03 1001.95,128.56 1003.57,128.09 1003.89,127.16 1009.71,126.69 1012.30,126.23 1017.48,125.76 1019.10,125.30 1021.36,124.83 1027.91,124.83 1030.82,124.83 1031.14,124.36 1031.80,124.36 1032.11,124.83 1033.08,124.83 1033.40,125.30 1034.70,125.30 1035.03,124.83 1036.00,124.83"/>
<circle cx="90.00" cy="468.00" r="3.8" fill="#ffb50c" stroke="#111827" stroke-width="1"/>
<circle cx="191.79" cy="453.55" r="3.8" fill="#ffb50c" stroke="#111827" stroke-width="1"/>
<circle cx="245.50" cy="440.49" r="3.8" fill="#ffb50c" stroke="#111827" stroke-width="1"/>
<circle cx="282.38" cy="426.04" r="3.8" fill="#ffb50c" stroke="#111827" stroke-width="1"/>
<circle cx="319.26" cy="412.51" r="3.8" fill="#ffb50c" stroke="#111827" stroke-width="1"/>
<circle cx="353.24" cy="399.46" r="3.8" fill="#ffb50c" stroke="#111827" stroke-width="1"/>
<circle cx="394.33" cy="381.74" r="3.8" fill="#ffb50c" stroke="#111827" stroke-width="1"/>
<circle cx="426.36" cy="364.02" r="3.8" fill="#ffb50c" stroke="#111827" stroke-width="1"/>
<circle cx="454.51" cy="349.10" r="3.8" fill="#ffb50c" stroke="#111827" stroke-width="1"/>
<circle cx="482.33" cy="334.18" r="3.8" fill="#ffb50c" stroke="#111827" stroke-width="1"/>
<circle cx="505.30" cy="315.53" r="3.8" fill="#ffb50c" stroke="#111827" stroke-width="1"/>
<circle cx="533.78" cy="298.28" r="3.8" fill="#ffb50c" stroke="#111827" stroke-width="1"/>
<circle cx="560.63" cy="284.29" r="3.8" fill="#ffb50c" stroke="#111827" stroke-width="1"/>
<circle cx="587.81" cy="267.51" r="3.8" fill="#ffb50c" stroke="#111827" stroke-width="1"/>
<circle cx="618.22" cy="253.05" r="3.8" fill="#ffb50c" stroke="#111827" stroke-width="1"/>
<circle cx="652.19" cy="239.53" r="3.8" fill="#ffb50c" stroke="#111827" stroke-width="1"/>
<circle cx="683.58" cy="228.81" r="3.8" fill="#ffb50c" stroke="#111827" stroke-width="1"/>
<circle cx="707.52" cy="214.82" r="3.8" fill="#ffb50c" stroke="#111827" stroke-width="1"/>
<circle cx="742.46" cy="201.30" r="3.8" fill="#ffb50c" stroke="#111827" stroke-width="1"/>
<circle cx="791.00" cy="187.78" r="3.8" fill="#ffb50c" stroke="#111827" stroke-width="1"/>
<circle cx="825.61" cy="176.12" r="3.8" fill="#ffb50c" stroke="#111827" stroke-width="1"/>
<circle cx="878.68" cy="160.73" r="3.8" fill="#ffb50c" stroke="#111827" stroke-width="1"/>
<circle cx="919.12" cy="147.68" r="3.8" fill="#ffb50c" stroke="#111827" stroke-width="1"/>
<circle cx="959.24" cy="134.16" r="3.8" fill="#ffb50c" stroke="#111827" stroke-width="1"/>
<circle cx="1035.03" cy="124.83" r="3.8" fill="#ffb50c" stroke="#111827" stroke-width="1"/>
<circle cx="1036.00" cy="124.83" r="3.8" fill="#ffb50c" stroke="#111827" stroke-width="1"/>
<text x="1028.00" y="114.83" text-anchor="end" fill="#ffb50c" font-size="12" font-family="-apple-system,BlinkMacSystemFont,Segoe UI,Helvetica,Arial,sans-serif">736</text>
<rect x="90.00" y="514.00" width="14" height="14" fill="url(#repo-0)" rx="3"/>
<text x="112.00" y="526.00" fill="#3bf2af" font-size="13" font-family="-apple-system,BlinkMacSystemFont,Segoe UI,Helvetica,Arial,sans-serif">bavix/gripmock</text>
<rect x="280.00" y="514.00" width="14" height="14" fill="url(#repo-1)" rx="3"/>
<text x="302.00" y="526.00" fill="#ffb50c" font-size="13" font-family="-apple-system,BlinkMacSystemFont,Segoe UI,Helvetica,Arial,sans-serif">tokopedia/gripmock</text>
<text x="1036.00" y="526.00" text-anchor="end" fill="#9ca3af" font-size="12" font-family="-apple-system,BlinkMacSystemFont,Segoe UI,Helvetica,Arial,sans-serif">Source: https://github.com/bavix/artifact-stats/blob/master/stats/github.csv</text>
</svg>