<svg xmlns="http://www.w3.org/2000/svg" width="1100" height="560" viewBox="0 0 1100 560">
<defs>
<linearGradient id="bg" x1="0" y1="0" x2="1" y2="1"><stop offset="0%" stop-color="#0b1220"/><stop offset="100%" stop-color="#111827"/></linearGradient>
<linearGradient id="repo-0" x1="0" y1="0" x2="0" y2="1"><stop offset="0%" stop-color="#34d399"/><stop offset="100%" stop-color="#059669"/></linearGradient>
<linearGradient id="repo-1" x1="0" y1="0" x2="0" y2="1"><stop offset="0%" stop-color="#f59e0b"/><stop offset="100%" stop-color="#d97706"/></linearGradient>
</defs>
<rect x="0" y="0" width="1100" height="560" fill="url(#bg)" rx="16"/>
<text x="90" y="44" fill="#f9fafb" font-size="28" font-family="-apple-system,BlinkMacSystemFont,Segoe UI,Helvetica,Arial,sans-serif" font-weight="700">GripMock GitHub Metrics - Forks</text>
<text x="90" y="70" fill="#9ca3af" font-size="16" font-family="-apple-system,BlinkMacSystemFont,Segoe UI,Helvetica,Arial,sans-serif">GitHub forks by snapshot date</text>
<line x1="90" y1="90.00" x2="1036" y2="90.00" stroke="#1f2937" stroke-width="1"/>
<text x="80" y="95.00" text-anchor="end" fill="#9ca3af" font-size="12" font-family="-apple-system,BlinkMacSystemFont,Segoe UI,Helvetica,Arial,sans-serif">185</text>
<line x1="90" y1="153.00" x2="1036" y2="153.00" stroke="#1f2937" stroke-width="1"/>
<text x="80" y="158.00" text-anchor="end" fill="#9ca3af" font-size="12" font-family="-apple-system,BlinkMacSystemFont,Segoe UI,Helvetica,Arial,sans-serif">154</text>
<line x1="90" y1="216.00" x2="1036" y2="216.00" stroke="#1f2937" stroke-width="1"/>
<text x="80" y="221.00" text-anchor="end" fill="#9ca3af" font-size="12" font-family="-apple-system,BlinkMacSystemFont,Segoe UI,Helvetica,Arial,sans-serif">123</text>
<line x1="90" y1="279.00" x2="1036" y2="279.00" stroke="#1f2937" stroke-width="1"/>
<text x="80" y="284.00" text-anchor="end" fill="#9ca3af" font-size="12" font-family="-apple-system,BlinkMacSystemFont,Segoe UI,Helvetica,Arial,sans-serif">92</text>
<line x1="90" y1="342.00" x2="1036" y2="342.00" stroke="#1f2937" stroke-width="1"/>
<text x="80" y="347.00" text-anchor="end" fill="#9ca3af" font-size="12" font-family="-apple-system,BlinkMacSystemFont,Segoe UI,Helvetica,Arial,sans-serif">62</text>
<line x1="90" y1="405.00" x2="1036" y2="405.00" stroke="#1f2937" stroke-width="1"/>
<text x="80" y="410.00" text-anchor="end" fill="#9ca3af" font-size="12" font-family="-apple-system,BlinkMacSystemFont,Segoe UI,Helvetica,Arial,sans-serif">31</text>
<line x1="90" y1="468.00" x2="1036" y2="468.00" stroke="#1f2937" stroke-width="1"/>
<text x="80" y="473.00" text-anchor="end" fill="#9ca3af" font-size="12" font-family="-apple-system,BlinkMacSystemFont,Segoe UI,Helvetica,Arial,sans-serif">0</text>
<line x1="90" y1="468" x2="1036" y2="468" stroke="#4b5563" stroke-width="1.4"/>
<line x1="90" y1="90" x2="90" y2="468" stroke="#4b5563" stroke-width="1.4"/>
<line x1="90.00" y1="468" x2="90.00" y2="474" stroke="#6b7280" stroke-width="1"/>
<text x="90.00" y="494" text-anchor="start" fill="#9ca3af" font-size="12" font-family="-apple-system,BlinkMacSystemFont,Segoe UI,Helvetica,Arial,sans-serif">2018-04-24</text>
<line x1="279.20" y1="468" x2="279.20" y2="474" stroke="#6b7280" stroke-width="1"/>
<text x="279.20" y="494" text-anchor="middle" fill="#9ca3af" font-size="12" font-family="-apple-system,BlinkMacSystemFont,Segoe UI,Helvetica,Arial,sans-serif">2019-11-27</text>
<line x1="468.40" y1="468" x2="468.40" y2="474" stroke="#6b7280" stroke-width="1"/>
<text x="468.40" y="494" text-anchor="middle" fill="#9ca3af" font-size="12" font-family="-apple-system,BlinkMacSystemFont,Segoe UI,Helvetica,Arial,sans-serif">2021-07-02</text>
<line x1="657.60" y1="468" x2="657.60" y2="474" stroke="#6b7280" stroke-width="1"/>
<text x="657.60" y="494" text-anchor="middle" fill="#9ca3af" font-size="12" font-family="-apple-system,BlinkMacSystemFont,Segoe UI,Helvetica,Arial,sans-serif">2023-02-04</text>
<line x1="846.80" y1="468" x2="846.80" y2="474" stroke="#6b7280" stroke-width="1"/>
<text x="846.80" y="494" text-anchor="middle" fill="#9ca3af" font-size="12" font-family="-apple-system,BlinkMacSystemFont,Segoe UI,Helvetica,Arial,sans-serif">2024-09-08</text>
<line x1="1036.00" y1="468" x2="1036.00" y2="474" stroke="#6b7280" stroke-width="1"/>
<text x="1036.00" y="494" text-anchor="end" fill="#9ca3af" font-size="12" font-family="-apple-system,BlinkMacSystemFont,Segoe UI,Helvetica,Arial,sans-serif">2026-04-14</text>
<polyline fill="none" stroke="url(#repo-0)" stroke-width="4" stroke-linecap="round" stroke-linejoin="round" points="720.27,468.00 726.96,468.00 739.96,468.00 753.60,468.00 755.55,468.00 758.80,468.00 770.50,468.00 772.77,468.00 778.29,468.00 778.62,468.00 783.49,468.00 791.29,468.00 803.63,468.00 806.88,468.00 811.11,468.00 814.68,468.00 829.62,468.00 834.17,468.00 834.82,468.00 836.12,468.00 842.29,468.00 855.94,468.00 858.86,468.00 865.69,468.00 871.21,468.00 871.86,468.00 872.51,468.00 892.65,468.00 895.25,468.00 895.90,468.00 902.07,468.00 902.72,468.00 906.62,465.95 907.92,465.95 908.25,465.95 908.57,465.95 911.49,463.91 913.12,463.91 914.74,463.91 919.94,461.86 924.49,459.82 926.11,459.82 926.76,457.77 933.59,457.77 937.49,457.77 949.18,457.77 951.46,457.77 952.10,455.73 954.05,455.73 956.00,455.73 958.93,453.68 964.13,453.68 970.95,453.68 975.17,453.68 986.54,453.68 988.82,453.68 993.69,453.68 994.01,453.68 994.99,453.68 997.59,453.68 997.91,451.64 1006.68,451.64 1013.51,451.64 1014.16,451.64 1016.43,451.64 1022.93,451.64 1025.20,451.64 1026.83,451.64 1028.45,451.64 1031.78,451.64 1032.74,451.64 1033.07,451.64 1033.72,451.64 1034.05,451.64 1034.37,451.64 1036.00,451.64"/>
<circle cx="720.27" cy="468.00" r="3.8" fill="#3bf2af" stroke="#111827" stroke-width="1"/>
<circle cx="753.60" cy="468.00" r="3.8" fill="#3bf2af" stroke="#111827" stroke-width="1"/>
<circle cx="770.50" cy="468.00" r="3.8" fill="#3bf2af" stroke="#111827" stroke-width="1"/>
<circle cx="778.62" cy="468.00" r="3.8" fill="#3bf2af" stroke="#111827" stroke-width="1"/>
<circle cx="803.63" cy="468.00" r="3.8" fill="#3bf2af" stroke="#111827" stroke-width="1"/>
<circle cx="814.68" cy="468.00" r="3.8" fill="#3bf2af" stroke="#111827" stroke-width="1"/>
<circle cx="834.82" cy="468.00" r="3.8" fill="#3bf2af" stroke="#111827" stroke-width="1"/>
<circle cx="855.94" cy="468.00" r="3.8" fill="#3bf2af" stroke="#111827" stroke-width="1"/>
<circle cx="871.21" cy="468.00" r="3.8" fill="#3bf2af" stroke="#111827" stroke-width="1"/>
<circle cx="892.65" cy="468.00" r="3.8" fill="#3bf2af" stroke="#111827" stroke-width="1"/>
<circle cx="902.07" cy="468.00" r="3.8" fill="#3bf2af" stroke="#111827" stroke-width="1"/>
<circle cx="907.92" cy="465.95" r="3.8" fill="#3bf2af" stroke="#111827" stroke-width="1"/>
<circle cx="911.49" cy="463.91" r="3.8" fill="#3bf2af" stroke="#111827" stroke-width="1"/>
<circle cx="919.94" cy="461.86" r="3.8" fill="#3bf2af" stroke="#111827" stroke-width="1"/>
<circle cx="926.76" cy="457.77" r="3.8" fill="#3bf2af" stroke="#111827" stroke-width="1"/>
<circle cx="949.18" cy="457.77" r="3.8" fill="#3bf2af" stroke="#111827" stroke-width="1"/>
<circle cx="954.05" cy="455.73" r="3.8" fill="#3bf2af" stroke="#111827" stroke-width="1"/>
<circle cx="964.13" cy="453.68" r="3.8" fill="#3bf2af" stroke="#111827" stroke-width="1"/>
<circle cx="986.54" cy="453.68" r="3.8" fill="#3bf2af" stroke="#111827" stroke-width="1"/>
<circle cx="994.01" cy="453.68" r="3.8" fill="#3bf2af" stroke="#111827" stroke-width="1"/>
<circle cx="997.91" cy="451.64" r="3.8" fill="#3bf2af" stroke="#111827" stroke-width="1"/>
<circle cx="1014.16" cy="451.64" r="3.8" fill="#3bf2af" stroke="#111827" stroke-width="1"/>
<circle cx="1025.20" cy="451.64" r="3.8" fill="#3bf2af" stroke="#111827" stroke-width="1"/>
<circle cx="1031.78" cy="451.64" r="3.8" fill="#3bf2af" stroke="#111827" stroke-width="1"/>
<circle cx="1033.72" cy="451.64" r="3.8" fill="#3bf2af" stroke="#111827" stroke-width="1"/>
<circle cx="1036.00" cy="451.64" r="3.8" fill="#3bf2af" stroke="#111827" stroke-width="1"/>
<text x="1028.00" y="441.64" text-anchor="end" fill="#3bf2af" font-size="12" font-family="-apple-system,BlinkMacSystemFont,Segoe UI,Helvetica,Arial,sans-serif">8</text>
<polyline fill="none" stroke="url(#repo-1)" stroke-width="4" stroke-linecap="round" stroke-linejoin="round" points="90.00,468.00 91.82,468.00 92.47,468.00 96.04,468.00 99.62,468.00 136.65,468.00 137.63,465.95 143.47,463.91 149.32,463.91 153.87,461.86 157.44,461.86 158.09,461.86 158.42,461.86 158.74,461.86 160.37,461.86 161.02,461.86 165.24,459.82 165.57,459.82 169.46,459.82 170.44,459.82 170.76,459.82 172.39,459.82 174.01,459.82 175.96,459.82 176.94,459.82 182.14,459.82 184.73,459.82 186.36,459.82 186.68,459.82 191.88,459.82 192.21,459.82 192.86,457.77 196.11,457.77 196.75,457.77 197.08,455.73 197.40,453.68 203.25,453.68 204.88,451.64 211.05,451.64 212.35,451.64 213.00,449.59 215.60,447.55 218.52,447.55 222.42,445.50 222.75,445.50 225.02,445.50 227.29,445.50 230.54,445.50 231.52,445.50 233.79,445.50 236.07,445.50 238.01,445.50 238.34,445.50 238.66,445.50 241.26,445.50 241.91,445.50 242.56,445.50 242.89,443.45 243.21,441.41 243.54,441.41 246.14,441.41 246.79,441.41 249.39,439.36 254.91,439.36 255.56,437.32 255.88,437.32 256.21,437.32 256.86,433.23 258.16,433.23 258.48,433.23 260.43,433.23 260.76,433.23 263.03,433.23 264.01,433.23 264.66,433.23 265.63,431.18 267.25,431.18 267.58,429.14 268.55,429.14 271.48,429.14 275.05,429.14 276.03,429.14 277.00,429.14 277.33,429.14 278.63,429.14 278.95,429.14 279.60,429.14 280.57,429.14 282.20,429.14 282.85,429.14 283.17,429.14 283.50,429.14 285.12,429.14 286.10,429.14 286.75,429.14 288.05,427.09 288.37,425.05 290.00,425.05 293.57,425.05 295.52,425.05 297.14,423.00 297.47,423.00 299.74,423.00 301.37,423.00 301.69,420.95 303.64,420.95 303.97,420.95 304.62,418.91 305.59,416.86 305.92,416.86 306.24,416.86 306.56,416.86 311.11,414.82 315.01,414.82 315.34,414.82 315.99,414.82 317.29,414.82 317.61,414.82 319.24,412.77 319.88,410.73 320.21,410.73 320.53,410.73 320.86,410.73 322.48,410.73 325.73,408.68 327.03,408.68 327.36,406.64 328.01,406.64 328.33,404.59 328.98,402.55 329.63,402.55 330.28,400.50 331.58,398.45 332.23,398.45 334.18,398.45 334.50,398.45 335.80,398.45 337.75,398.45 339.05,398.45 340.35,396.41 340.68,396.41 341.33,396.41 342.30,396.41 343.28,396.41 344.90,396.41 346.53,396.41 348.15,396.41 351.07,394.36 353.67,394.36 354.00,394.36 354.32,394.36 359.20,394.36 360.17,394.36 361.14,394.36 361.47,394.36 362.44,394.36 364.72,394.36 365.04,394.36 366.67,394.36 368.62,392.32 371.87,392.32 372.84,392.32 373.82,392.32 375.11,392.32 375.76,392.32 376.09,392.32 376.74,390.27 378.36,390.27 379.66,390.27 383.89,388.23 385.51,388.23 386.49,388.23 389.41,386.18 390.06,384.14 390.38,384.14 390.71,384.14 392.33,384.14 393.31,384.14 394.61,384.14 394.93,384.14 395.58,384.14 397.86,384.14 398.18,384.14 398.83,384.14 401.11,384.14 401.76,384.14 403.05,384.14 404.03,382.09 404.35,382.09 404.68,382.09 408.58,382.09 409.23,382.09 410.53,382.09 410.85,382.09 412.15,382.09 413.45,382.09 413.78,382.09 414.10,382.09 415.73,382.09 416.37,382.09 418.00,380.05 419.30,378.00 420.27,378.00 422.22,378.00 423.52,378.00 425.15,378.00 425.47,378.00 426.12,378.00 426.77,378.00 427.42,378.00 427.75,375.95 428.72,373.91 429.05,373.91 429.37,373.91 429.70,371.86 431.32,371.86 431.97,369.82 433.27,369.82 433.92,369.82 434.89,369.82 435.54,369.82 436.52,369.82 437.82,369.82 439.12,367.77 440.42,365.73 440.74,365.73 442.37,365.73 442.69,365.73 443.34,365.73 443.66,365.73 444.31,365.73 444.64,365.73 446.26,365.73 447.56,365.73 449.19,363.68 453.74,363.68 454.06,363.68 454.39,361.64 454.71,361.64 455.69,357.55 456.01,357.55 456.34,357.55 456.66,357.55 457.96,355.50 458.61,355.50 458.93,355.50 459.91,353.45 460.23,351.41 460.88,351.41 462.83,351.41 463.16,351.41 463.48,351.41 464.78,351.41 467.06,351.41 467.38,351.41 468.03,351.41 470.31,351.41 471.93,351.41 473.55,349.36 476.48,347.32 477.78,347.32 478.10,347.32 478.43,345.27 479.08,345.27 479.40,343.23 479.73,343.23 480.70,343.23 481.03,343.23 482.00,343.23 483.63,343.23 483.95,339.14 484.28,339.14 484.60,339.14 484.92,339.14 485.25,339.14 485.57,339.14 486.22,339.14 486.55,339.14 486.87,335.05 487.85,335.05 488.50,335.05 489.15,335.05 490.45,335.05 491.75,335.05 492.07,335.05 492.40,333.00 492.72,330.95 494.35,330.95 495.65,330.95 495.97,330.95 497.27,330.95 497.60,330.95 497.92,328.91 501.17,328.91 501.49,328.91 502.14,328.91 503.77,328.91 504.42,328.91 505.07,328.91 506.37,326.86 507.02,326.86 507.34,324.82 507.67,324.82 507.99,322.77 509.29,322.77 509.62,322.77 510.27,322.77 510.59,322.77 511.57,322.77 511.89,322.77 513.19,322.77 516.11,322.77 517.09,322.77 518.06,322.77 518.39,320.73 518.71,320.73 519.04,318.68 519.36,318.68 520.01,318.68 522.29,316.64 523.59,316.64 523.91,316.64 524.24,316.64 525.21,316.64 526.51,314.59 527.81,314.59 529.43,314.59 529.76,314.59 533.33,314.59 534.96,314.59 535.61,314.59 536.26,314.59 538.86,314.59 539.51,314.59 539.83,314.59 540.80,314.59 541.45,314.59 542.10,312.55 542.75,312.55 543.40,312.55 544.70,312.55 545.03,312.55 545.35,312.55 546.98,310.50 547.63,310.50 547.95,310.50 548.93,310.50 549.58,310.50 550.23,310.50 551.85,310.50 552.18,308.45 552.50,308.45 553.47,308.45 554.12,306.41 554.77,306.41 556.40,306.41 559.32,306.41 559.65,306.41 560.95,306.41 561.27,306.41 562.57,306.41 562.90,306.41 563.22,304.36 563.87,304.36 564.85,304.36 565.17,304.36 565.50,304.36 566.15,304.36 567.44,304.36 568.42,302.32 568.74,302.32 572.97,302.32 573.29,302.32 574.27,302.32 574.92,302.32 577.19,302.32 578.17,300.27 578.49,300.27 578.82,300.27 581.41,300.27 581.74,300.27 582.06,300.27 583.04,300.27 583.36,300.27 584.01,300.27 586.29,300.27 586.94,300.27 587.59,296.18 588.56,296.18 588.89,296.18 589.86,296.18 595.38,296.18 596.68,296.18 597.01,296.18 598.63,296.18 599.28,294.14 599.61,294.14 599.93,292.09 600.26,292.09 601.23,290.05 602.21,290.05 602.53,290.05 604.48,290.05 604.81,290.05 605.46,290.05 606.43,290.05 607.08,290.05 607.41,290.05 608.70,290.05 609.35,288.00 610.00,288.00 610.98,288.00 611.30,288.00 615.53,288.00 616.50,285.95 617.48,285.95 617.80,285.95 619.43,285.95 619.75,285.95 620.08,285.95 620.40,285.95 621.70,285.95 622.67,285.95 624.95,285.95 625.92,285.95 626.25,285.95 626.90,283.91 627.55,283.91 629.50,283.91 629.82,283.91 633.07,283.91 633.40,283.91 634.37,283.91 634.70,283.91 635.67,283.91 635.99,279.82 636.32,279.82 637.94,279.82 638.27,279.82 639.24,279.82 640.87,279.82 642.17,279.82 643.14,277.77 646.72,275.73 647.04,273.68 648.99,271.64 649.64,271.64 650.29,269.59 651.59,267.55 651.91,265.50 654.51,265.50 657.44,265.50 658.09,265.50 658.41,263.45 658.74,263.45 661.66,261.41 662.96,259.36 663.28,259.36 663.61,259.36 664.26,257.32 665.56,257.32 665.88,257.32 666.53,257.32 667.83,257.32 669.46,257.32 669.78,255.27 670.43,255.27 670.76,255.27 671.08,253.23 671.41,253.23 671.73,253.23 672.38,253.23 676.28,253.23 678.55,251.18 680.83,249.14 681.80,247.09 682.13,245.05 682.45,245.05 683.43,243.00 683.75,243.00 686.03,240.95 686.35,240.95 687.65,238.91 687.98,238.91 688.30,238.91 689.60,238.91 690.58,236.86 691.87,236.86 692.85,234.82 693.17,232.77 695.12,232.77 695.77,232.77 696.75,232.77 697.07,232.77 697.72,232.77 699.67,230.73 700.32,228.68 700.97,228.68 701.30,228.68 701.95,228.68 702.27,228.68 703.25,228.68 703.57,228.68 704.22,228.68 705.52,228.68 705.84,228.68 706.49,228.68 707.14,228.68 708.44,228.68 708.77,226.64 710.07,226.64 711.37,226.64 712.99,224.59 713.97,224.59 714.29,224.59 715.92,222.55 716.24,222.55 717.54,222.55 718.51,222.55 719.16,220.50 720.14,220.50 721.44,220.50 721.76,220.50 722.41,220.50 725.01,220.50 726.96,218.45 729.24,218.45 732.81,218.45 733.13,216.41 733.46,216.41 735.41,216.41 736.06,216.41 736.38,216.41 736.71,214.36 737.68,214.36 738.01,212.32 738.66,212.32 741.26,212.32 742.88,212.32 743.53,210.27 745.16,208.23 746.45,208.23 749.38,206.18 750.68,204.14 752.63,204.14 758.48,202.09 760.75,200.05 761.40,200.05 764.32,200.05 764.97,200.05 765.62,200.05 767.57,200.05 768.22,200.05 768.87,200.05 769.20,198.00 769.52,198.00 772.12,198.00 775.04,198.00 776.67,198.00 778.62,198.00 781.54,195.95 784.14,195.95 785.44,195.95 786.09,195.95 787.39,195.95 789.01,195.95 789.66,195.95 790.31,195.95 792.26,195.95 793.56,195.95 793.89,195.95 796.81,193.91 797.14,193.91 797.46,191.86 798.11,191.86 799.09,189.82 800.39,189.82 802.33,189.82 802.66,189.82 803.63,187.77 805.91,185.73 808.18,185.73 810.13,185.73 812.73,185.73 813.38,185.73 813.71,185.73 814.68,183.68 815.00,183.68 815.33,183.68 815.98,183.68 817.28,181.64 819.55,181.64 819.88,179.59 820.85,179.59 822.80,179.59 824.43,179.59 824.75,179.59 826.05,179.59 827.03,179.59 827.35,177.55 828.65,177.55 829.30,175.50 830.92,175.50 831.25,173.45 831.57,173.45 833.52,173.45 834.50,173.45 834.82,173.45 836.77,171.41 838.07,171.41 838.40,171.41 838.72,169.36 841.00,169.36 842.62,169.36 846.52,169.36 846.84,169.36 848.79,169.36 851.72,169.36 854.97,169.36 856.91,169.36 857.24,169.36 857.56,169.36 858.21,169.36 860.81,169.36 863.09,169.36 866.34,169.36 866.66,167.32 869.58,167.32 870.56,167.32 871.86,167.32 881.93,167.32 883.23,167.32 883.55,167.32 886.80,167.32 888.43,167.32 890.70,167.32 891.35,165.27 891.68,165.27 893.63,165.27 894.93,165.27 895.58,165.27 895.90,165.27 896.23,165.27 897.20,165.27 898.82,165.27 899.15,163.23 900.77,163.23 903.05,163.23 905.32,163.23 905.97,163.23 909.55,163.23 909.87,163.23 911.49,163.23 913.12,163.23 916.04,163.23 917.34,163.23 919.62,159.14 919.94,159.14 920.59,157.09 922.22,157.09 922.54,157.09 923.19,157.09 924.16,157.09 924.49,157.09 924.81,157.09 925.14,157.09 926.44,157.09 926.76,155.05 928.71,155.05 929.04,155.05 930.66,155.05 930.99,155.05 931.64,155.05 932.29,153.00 933.26,153.00 936.51,153.00 942.36,153.00 943.66,153.00 945.28,150.95 946.58,150.95 947.88,150.95 948.86,150.95 949.83,150.95 952.10,148.91 953.73,148.91 954.38,146.86 956.65,144.82 956.98,142.77 957.30,142.77 960.88,142.77 962.83,142.77 963.15,140.73 966.07,140.73 970.95,140.73 972.25,138.68 972.57,138.68 973.55,138.68 977.45,138.68 981.99,138.68 982.32,136.64 986.54,136.64 989.14,136.64 1001.81,136.64 1004.74,136.64 1005.71,136.64 1007.33,136.64 1007.66,136.64 1013.51,136.64 1016.11,136.64 1021.30,136.64 1022.93,136.64 1025.20,136.64 1031.78,124.36 1034.70,124.36 1035.02,124.36 1035.68,124.36 1036.00,124.36"/>
<circle cx="90.00" cy="468.00" r="3.8" fill="#ffb50c" stroke="#111827" stroke-width="1"/>
<circle cx="191.88" cy="459.82" r="3.8" fill="#ffb50c" stroke="#111827" stroke-width="1"/>
<circle cx="243.21" cy="441.41" r="3.8" fill="#ffb50c" stroke="#111827" stroke-width="1"/>
<circle cx="280.57" cy="429.14" r="3.8" fill="#ffb50c" stroke="#111827" stroke-width="1"/>
<circle cx="317.29" cy="414.82" r="3.8" fill="#ffb50c" stroke="#111827" stroke-width="1"/>
<circle cx="346.53" cy="396.41" r="3.8" fill="#ffb50c" stroke="#111827" stroke-width="1"/>
<circle cx="390.38" cy="384.14" r="3.8" fill="#ffb50c" stroke="#111827" stroke-width="1"/>
<circle cx="422.22" cy="378.00" r="3.8" fill="#ffb50c" stroke="#111827" stroke-width="1"/>
<circle cx="446.26" cy="365.73" r="3.8" fill="#ffb50c" stroke="#111827" stroke-width="1"/>
<circle cx="478.10" cy="347.32" r="3.8" fill="#ffb50c" stroke="#111827" stroke-width="1"/>
<circle cx="497.27" cy="330.95" r="3.8" fill="#ffb50c" stroke="#111827" stroke-width="1"/>
<circle cx="522.29" cy="316.64" r="3.8" fill="#ffb50c" stroke="#111827" stroke-width="1"/>
<circle cx="550.23" cy="310.50" r="3.8" fill="#ffb50c" stroke="#111827" stroke-width="1"/>
<circle cx="578.49" cy="300.27" r="3.8" fill="#ffb50c" stroke="#111827" stroke-width="1"/>
<circle cx="607.08" cy="290.05" r="3.8" fill="#ffb50c" stroke="#111827" stroke-width="1"/>
<circle cx="635.99" cy="279.82" r="3.8" fill="#ffb50c" stroke="#111827" stroke-width="1"/>
<circle cx="669.46" cy="257.32" r="3.8" fill="#ffb50c" stroke="#111827" stroke-width="1"/>
<circle cx="697.07" cy="232.77" r="3.8" fill="#ffb50c" stroke="#111827" stroke-width="1"/>
<circle cx="721.76" cy="220.50" r="3.8" fill="#ffb50c" stroke="#111827" stroke-width="1"/>
<circle cx="767.57" cy="200.05" r="3.8" fill="#ffb50c" stroke="#111827" stroke-width="1"/>
<circle cx="805.91" cy="185.73" r="3.8" fill="#ffb50c" stroke="#111827" stroke-width="1"/>
<circle cx="838.07" cy="171.41" r="3.8" fill="#ffb50c" stroke="#111827" stroke-width="1"/>
<circle cx="893.63" cy="165.27" r="3.8" fill="#ffb50c" stroke="#111827" stroke-width="1"/>
<circle cx="926.76" cy="155.05" r="3.8" fill="#ffb50c" stroke="#111827" stroke-width="1"/>
<circle cx="973.55" cy="138.68" r="3.8" fill="#ffb50c" stroke="#111827" stroke-width="1"/>
<circle cx="1036.00" cy="124.36" r="3.8" fill="#ffb50c" stroke="#111827" stroke-width="1"/>
<text x="1028.00" y="114.36" text-anchor="end" fill="#ffb50c" font-size="12" font-family="-apple-system,BlinkMacSystemFont,Segoe UI,Helvetica,Arial,sans-serif">168</text>
<rect x="90.00" y="514.00" width="14" height="14" fill="url(#repo-0)" rx="3"/>
<text x="112.00" y="526.00" fill="#3bf2af" font-size="13" font-family="-apple-system,BlinkMacSystemFont,Segoe UI,Helvetica,Arial,sans-serif">bavix/gripmock</text>
<rect x="280.00" y="514.00" width="14" height="14" fill="url(#repo-1)" rx="3"/>
<text x="302.00" y="526.00" fill="#ffb50c" font-size="13" font-family="-apple-system,BlinkMacSystemFont,Segoe UI,Helvetica,Arial,sans-serif">tokopedia/gripmock</text>
<text x="1036.00" y="526.00" text-anchor="end" fill="#9ca3af" font-size="12" font-family="-apple-system,BlinkMacSystemFont,Segoe UI,Helvetica,Arial,sans-serif">Source: https://github.com/bavix/artifact-stats/blob/master/stats/github.csv</text>
</svg>