<svg xmlns="http://www.w3.org/2000/svg" width="1100" height="560" viewBox="0 0 1100 560">
<defs>
<linearGradient id="bg" x1="0" y1="0" x2="1" y2="1"><stop offset="0%" stop-color="#0b1220"/><stop offset="100%" stop-color="#111827"/></linearGradient>
<linearGradient id="repo-0" x1="0" y1="0" x2="0" y2="1"><stop offset="0%" stop-color="#34d399"/><stop offset="100%" stop-color="#059669"/></linearGradient>
<linearGradient id="repo-1" x1="0" y1="0" x2="0" y2="1"><stop offset="0%" stop-color="#f59e0b"/><stop offset="100%" stop-color="#d97706"/></linearGradient>
</defs>
<rect x="0" y="0" width="1100" height="560" fill="url(#bg)" rx="16"/>
<text x="90" y="44" fill="#f9fafb" font-size="28" font-family="-apple-system,BlinkMacSystemFont,Segoe UI,Helvetica,Arial,sans-serif" font-weight="700">GripMock GitHub Metrics - Stars</text>
<text x="90" y="70" fill="#9ca3af" font-size="16" font-family="-apple-system,BlinkMacSystemFont,Segoe UI,Helvetica,Arial,sans-serif">GitHub stars by snapshot date</text>
<line x1="90" y1="90.0" x2="1036" y2="90.0" stroke="#1f2937" stroke-width="1"/>
<text x="80" y="95.0" text-anchor="end" fill="#9ca3af" font-size="12" font-family="-apple-system,BlinkMacSystemFont,Segoe UI,Helvetica,Arial,sans-serif">810</text>
<line x1="90" y1="153.0" x2="1036" y2="153.0" stroke="#1f2937" stroke-width="1"/>
<text x="80" y="158.0" text-anchor="end" fill="#9ca3af" font-size="12" font-family="-apple-system,BlinkMacSystemFont,Segoe UI,Helvetica,Arial,sans-serif">675</text>
<line x1="90" y1="216.0" x2="1036" y2="216.0" stroke="#1f2937" stroke-width="1"/>
<text x="80" y="221.0" text-anchor="end" fill="#9ca3af" font-size="12" font-family="-apple-system,BlinkMacSystemFont,Segoe UI,Helvetica,Arial,sans-serif">540</text>
<line x1="90" y1="279.0" x2="1036" y2="279.0" stroke="#1f2937" stroke-width="1"/>
<text x="80" y="284.0" text-anchor="end" fill="#9ca3af" font-size="12" font-family="-apple-system,BlinkMacSystemFont,Segoe UI,Helvetica,Arial,sans-serif">405</text>
<line x1="90" y1="342.0" x2="1036" y2="342.0" stroke="#1f2937" stroke-width="1"/>
<text x="80" y="347.0" text-anchor="end" fill="#9ca3af" font-size="12" font-family="-apple-system,BlinkMacSystemFont,Segoe UI,Helvetica,Arial,sans-serif">270</text>
<line x1="90" y1="405.0" x2="1036" y2="405.0" stroke="#1f2937" stroke-width="1"/>
<text x="80" y="410.0" text-anchor="end" fill="#9ca3af" font-size="12" font-family="-apple-system,BlinkMacSystemFont,Segoe UI,Helvetica,Arial,sans-serif">135</text>
<line x1="90" y1="468.0" x2="1036" y2="468.0" stroke="#1f2937" stroke-width="1"/>
<text x="80" y="473.0" text-anchor="end" fill="#9ca3af" font-size="12" font-family="-apple-system,BlinkMacSystemFont,Segoe UI,Helvetica,Arial,sans-serif">0</text>
<line x1="90" y1="468" x2="1036" y2="468" stroke="#4b5563" stroke-width="1.4"/>
<line x1="90" y1="90" x2="90" y2="468" stroke="#4b5563" stroke-width="1.4"/>
<line x1="90.0" y1="468" x2="90.0" y2="474" stroke="#6b7280" stroke-width="1"/>
<text x="90.0" y="494" text-anchor="start" fill="#9ca3af" font-size="12" font-family="-apple-system,BlinkMacSystemFont,Segoe UI,Helvetica,Arial,sans-serif">2018-04-24</text>
<line x1="279.2" y1="468" x2="279.2" y2="474" stroke="#6b7280" stroke-width="1"/>
<text x="279.2" y="494" text-anchor="middle" fill="#9ca3af" font-size="12" font-family="-apple-system,BlinkMacSystemFont,Segoe UI,Helvetica,Arial,sans-serif">2019-11-25</text>
<line x1="468.4" y1="468" x2="468.4" y2="474" stroke="#6b7280" stroke-width="1"/>
<text x="468.4" y="494" text-anchor="middle" fill="#9ca3af" font-size="12" font-family="-apple-system,BlinkMacSystemFont,Segoe UI,Helvetica,Arial,sans-serif">2021-06-28</text>
<line x1="657.6" y1="468" x2="657.6" y2="474" stroke="#6b7280" stroke-width="1"/>
<text x="657.6" y="494" text-anchor="middle" fill="#9ca3af" font-size="12" font-family="-apple-system,BlinkMacSystemFont,Segoe UI,Helvetica,Arial,sans-serif">2023-01-29</text>
<line x1="846.8" y1="468" x2="846.8" y2="474" stroke="#6b7280" stroke-width="1"/>
<text x="846.8" y="494" text-anchor="middle" fill="#9ca3af" font-size="12" font-family="-apple-system,BlinkMacSystemFont,Segoe UI,Helvetica,Arial,sans-serif">2024-08-31</text>
<line x1="1036.0" y1="468" x2="1036.0" y2="474" stroke="#6b7280" stroke-width="1"/>
<text x="1036.0" y="494" text-anchor="end" fill="#9ca3af" font-size="12" font-family="-apple-system,BlinkMacSystemFont,Segoe UI,Helvetica,Arial,sans-serif">2026-04-04</text>
<polyline fill="none" stroke="url(#repo-0)" stroke-width="4" stroke-linecap="round" stroke-linejoin="round" points="722.45,468.00 729.16,467.53 742.20,467.07 755.89,466.60 757.85,466.13 761.11,465.67 772.85,465.20 775.13,464.73 780.67,464.26 781.00,463.80 785.89,463.33 793.71,462.86 806.10,462.40 809.36,461.93 813.60,461.46 817.18,461.00 832.18,460.53 836.74,460.06 837.39,459.60 838.70,459.13 844.89,458.66 858.58,458.20 861.52,457.73 868.36,457.26 873.91,456.79 874.56,456.33 875.21,455.86 895.42,455.39 898.03,454.93 898.68,454.46 904.88,453.99 905.53,453.53 909.44,453.53 910.74,453.06 911.07,452.59 911.40,452.13 914.33,451.66 915.96,451.19 917.59,450.72 922.81,450.72 927.37,450.72 929.00,450.26 929.65,450.26 936.50,449.79 940.41,449.32 952.15,448.86 954.43,448.39 955.08,448.39 957.04,447.92 958.99,447.46 961.93,447.46 967.14,446.99 973.99,446.52 978.23,446.06 989.64,445.59 991.92,445.12 996.81,444.66 997.14,444.19 998.11,443.72 1000.72,443.25 1001.05,443.25 1009.85,442.79 1016.70,442.32 1017.35,441.85 1019.63,441.39 1026.15,440.92 1028.43,440.45 1030.06,439.99 1031.69,439.52 1035.03,439.52 1036.00,439.52"/>
<circle cx="722.45" cy="468.00" r="3.8" fill="#3bf2af" stroke="#111827" stroke-width="1"/>
<circle cx="742.20" cy="467.07" r="3.8" fill="#3bf2af" stroke="#111827" stroke-width="1"/>
<circle cx="757.85" cy="466.13" r="3.8" fill="#3bf2af" stroke="#111827" stroke-width="1"/>
<circle cx="772.85" cy="465.20" r="3.8" fill="#3bf2af" stroke="#111827" stroke-width="1"/>
<circle cx="780.67" cy="464.26" r="3.8" fill="#3bf2af" stroke="#111827" stroke-width="1"/>
<circle cx="785.89" cy="463.33" r="3.8" fill="#3bf2af" stroke="#111827" stroke-width="1"/>
<circle cx="806.10" cy="462.40" r="3.8" fill="#3bf2af" stroke="#111827" stroke-width="1"/>
<circle cx="813.60" cy="461.46" r="3.8" fill="#3bf2af" stroke="#111827" stroke-width="1"/>
<circle cx="832.18" cy="460.53" r="3.8" fill="#3bf2af" stroke="#111827" stroke-width="1"/>
<circle cx="837.39" cy="459.60" r="3.8" fill="#3bf2af" stroke="#111827" stroke-width="1"/>
<circle cx="844.89" cy="458.66" r="3.8" fill="#3bf2af" stroke="#111827" stroke-width="1"/>
<circle cx="861.52" cy="457.73" r="3.8" fill="#3bf2af" stroke="#111827" stroke-width="1"/>
<circle cx="873.91" cy="456.79" r="3.8" fill="#3bf2af" stroke="#111827" stroke-width="1"/>
<circle cx="875.21" cy="455.86" r="3.8" fill="#3bf2af" stroke="#111827" stroke-width="1"/>
<circle cx="898.03" cy="454.93" r="3.8" fill="#3bf2af" stroke="#111827" stroke-width="1"/>
<circle cx="904.88" cy="453.99" r="3.8" fill="#3bf2af" stroke="#111827" stroke-width="1"/>
<circle cx="909.44" cy="453.53" r="3.8" fill="#3bf2af" stroke="#111827" stroke-width="1"/>
<circle cx="911.07" cy="452.59" r="3.8" fill="#3bf2af" stroke="#111827" stroke-width="1"/>
<circle cx="914.33" cy="451.66" r="3.8" fill="#3bf2af" stroke="#111827" stroke-width="1"/>
<circle cx="917.59" cy="450.72" r="3.8" fill="#3bf2af" stroke="#111827" stroke-width="1"/>
<circle cx="927.37" cy="450.72" r="3.8" fill="#3bf2af" stroke="#111827" stroke-width="1"/>
<circle cx="929.65" cy="450.26" r="3.8" fill="#3bf2af" stroke="#111827" stroke-width="1"/>
<circle cx="940.41" cy="449.32" r="3.8" fill="#3bf2af" stroke="#111827" stroke-width="1"/>
<circle cx="954.43" cy="448.39" r="3.8" fill="#3bf2af" stroke="#111827" stroke-width="1"/>
<circle cx="957.04" cy="447.92" r="3.8" fill="#3bf2af" stroke="#111827" stroke-width="1"/>
<circle cx="961.93" cy="447.46" r="3.8" fill="#3bf2af" stroke="#111827" stroke-width="1"/>
<circle cx="973.99" cy="446.52" r="3.8" fill="#3bf2af" stroke="#111827" stroke-width="1"/>
<circle cx="989.64" cy="445.59" r="3.8" fill="#3bf2af" stroke="#111827" stroke-width="1"/>
<circle cx="996.81" cy="444.66" r="3.8" fill="#3bf2af" stroke="#111827" stroke-width="1"/>
<circle cx="998.11" cy="443.72" r="3.8" fill="#3bf2af" stroke="#111827" stroke-width="1"/>
<circle cx="1001.05" cy="443.25" r="3.8" fill="#3bf2af" stroke="#111827" stroke-width="1"/>
<circle cx="1016.70" cy="442.32" r="3.8" fill="#3bf2af" stroke="#111827" stroke-width="1"/>
<circle cx="1019.63" cy="441.39" r="3.8" fill="#3bf2af" stroke="#111827" stroke-width="1"/>
<circle cx="1028.43" cy="440.45" r="3.8" fill="#3bf2af" stroke="#111827" stroke-width="1"/>
<circle cx="1031.69" cy="439.52" r="3.8" fill="#3bf2af" stroke="#111827" stroke-width="1"/>
<circle cx="1036.00" cy="439.52" r="3.8" fill="#3bf2af" stroke="#111827" stroke-width="1"/>
<text x="1028.0" y="429.5" text-anchor="end" fill="#3bf2af" font-size="12" font-family="-apple-system,BlinkMacSystemFont,Segoe UI,Helvetica,Arial,sans-serif">61</text>
<polyline fill="none" stroke="url(#repo-1)" stroke-width="4" stroke-linecap="round" stroke-linejoin="round" points="90.00,468.00 91.82,466.60 92.48,466.13 96.06,465.67 99.65,465.20 136.81,464.73 137.79,464.26 143.66,464.26 149.53,463.80 154.09,463.80 157.68,463.33 158.33,462.86 158.66,462.40 158.98,461.93 160.61,461.46 161.26,461.00 165.50,460.53 165.83,460.06 169.74,459.60 170.72,459.13 171.04,458.66 172.67,458.20 174.30,457.26 176.26,456.79 177.24,456.33 182.45,455.86 185.06,455.39 186.69,454.93 187.02,454.46 192.23,453.99 192.56,453.53 193.21,453.06 196.47,452.59 197.12,451.66 197.45,451.66 197.78,451.66 203.64,451.19 205.27,451.19 211.47,450.72 212.77,450.26 213.42,450.26 216.03,449.79 218.97,449.32 222.88,449.32 223.20,448.86 225.49,448.39 227.77,447.92 231.03,447.46 232.01,446.99 234.29,446.52 236.57,446.06 238.53,445.59 238.85,445.12 239.18,444.66 241.79,444.19 242.44,443.72 243.09,442.79 243.42,442.32 243.74,441.39 244.07,440.92 246.68,440.45 247.33,439.52 249.94,439.52 255.48,439.05 256.13,439.05 256.46,438.59 256.78,438.12 257.43,438.12 258.74,437.65 259.06,437.18 261.02,436.72 261.35,436.25 263.63,435.78 264.61,434.85 265.26,433.92 266.24,433.92 267.87,433.45 268.19,432.98 269.17,432.52 272.10,432.05 275.69,431.58 276.67,431.12 277.65,430.65 277.97,430.18 279.28,429.71 279.60,429.25 280.25,428.78 281.23,427.38 282.86,426.91 283.51,426.45 283.84,425.98 284.17,424.58 285.80,424.11 286.77,423.64 287.43,423.18 288.73,423.18 289.06,422.71 290.69,422.24 294.27,421.78 296.23,421.31 297.86,421.31 298.18,420.38 300.47,419.91 302.10,419.44 302.42,419.44 304.38,418.98 304.70,418.51 305.36,418.51 306.33,418.51 306.66,418.04 306.99,417.58 307.31,417.11 311.88,415.71 315.79,415.24 316.11,414.77 316.77,414.31 318.07,413.84 318.40,413.37 320.03,413.37 320.68,412.91 321.00,412.44 321.33,411.97 321.66,411.51 323.29,411.04 326.55,410.57 327.85,410.10 328.18,410.10 328.83,409.64 329.15,409.64 329.81,408.24 330.46,407.77 331.11,407.77 332.41,407.30 333.07,406.84 335.02,406.37 335.35,405.90 336.65,405.44 338.61,404.97 339.91,404.50 341.22,404.50 341.54,404.04 342.19,403.57 343.17,403.10 344.15,402.63 345.78,402.17 347.41,401.70 349.04,401.23 351.98,400.77 354.58,400.30 354.91,399.83 355.24,399.37 360.13,398.90 361.10,398.43 362.08,397.97 362.41,397.03 363.39,396.56 365.67,395.63 365.99,394.70 367.62,394.23 369.58,394.23 372.84,393.76 373.82,393.30 374.80,392.83 376.10,391.90 376.75,391.43 377.08,390.96 377.73,390.50 379.36,389.56 380.66,389.09 384.90,388.16 386.53,386.76 387.51,385.83 390.44,385.83 391.10,385.83 391.42,385.36 391.75,384.43 393.38,383.49 394.36,383.02 395.66,382.56 395.99,382.09 396.64,381.62 398.92,381.16 399.25,380.69 399.90,380.22 402.18,379.76 402.83,379.29 404.14,378.82 405.11,378.36 405.44,377.89 405.77,377.42 409.68,376.96 410.33,376.49 411.63,375.55 411.96,375.09 413.26,374.62 414.57,371.35 414.89,370.42 415.22,369.95 416.85,369.48 417.50,369.02 419.13,369.02 420.44,368.55 421.41,368.08 423.37,367.15 424.67,366.68 426.30,366.22 426.63,365.75 427.28,365.28 427.93,364.35 428.59,363.88 428.91,363.88 429.89,363.88 430.22,363.42 430.54,362.95 430.87,362.48 432.50,362.01 433.15,361.08 434.45,360.61 435.11,359.68 436.08,359.21 436.74,358.75 437.71,358.28 439.02,357.81 440.32,357.81 441.63,357.35 441.95,356.88 443.58,356.41 443.91,355.94 444.56,355.48 444.89,355.01 445.54,354.54 445.86,353.14 447.49,352.68 448.80,352.21 450.43,351.74 454.99,350.81 455.32,350.34 455.64,350.34 455.97,349.88 456.95,349.41 457.27,348.94 457.60,348.47 457.93,347.54 459.23,347.07 459.88,346.14 460.21,344.74 461.19,344.74 461.51,344.74 462.16,343.81 464.12,343.34 464.45,342.40 464.77,341.94 466.08,341.47 468.36,341.00 468.68,340.54 469.34,340.07 471.62,339.60 473.25,339.14 474.88,339.14 477.81,339.14 479.12,338.67 479.44,338.20 479.77,338.20 480.42,337.74 480.75,336.80 481.07,336.33 482.05,335.87 482.38,335.40 483.35,334.93 484.98,334.00 485.31,334.00 485.64,333.07 485.96,332.60 486.29,331.20 486.61,330.27 486.94,329.80 487.59,329.33 487.92,327.46 488.24,327.00 489.22,326.53 489.87,325.60 490.53,325.13 491.83,324.66 493.13,324.20 493.46,323.73 493.79,323.26 494.11,322.79 495.74,322.33 497.05,321.86 497.37,321.39 498.68,320.46 499.00,319.53 499.33,319.53 502.59,319.06 502.91,318.59 503.57,318.13 505.20,317.19 505.85,316.73 506.50,316.26 507.80,316.26 508.46,315.32 508.78,315.32 509.11,313.46 509.43,311.12 510.74,310.66 511.06,310.19 511.72,309.72 512.04,309.25 513.02,308.79 513.35,308.32 514.65,307.85 517.58,307.39 518.56,306.92 519.54,306.45 519.87,305.05 520.19,304.59 520.52,304.12 520.84,303.65 521.50,303.19 523.78,303.19 525.08,302.72 525.41,302.25 525.73,301.78 526.71,301.32 528.02,301.32 529.32,300.85 530.95,300.38 531.28,299.92 534.86,299.45 536.49,298.98 537.15,298.05 537.80,297.58 540.41,297.12 541.06,296.65 541.38,296.18 542.36,295.71 543.01,295.25 543.67,295.25 544.32,294.78 544.97,294.31 546.27,293.85 546.60,293.38 546.93,292.91 548.56,292.91 549.21,292.45 549.53,291.98 550.51,291.05 551.16,290.11 551.82,289.65 553.45,288.71 553.77,288.71 554.10,288.24 555.08,287.78 555.73,287.31 556.38,286.84 558.01,286.38 560.94,285.91 561.27,285.44 562.57,284.98 562.90,284.51 564.20,284.04 564.53,283.58 564.86,281.71 565.51,281.24 566.49,280.77 566.81,280.31 567.14,279.84 567.79,279.37 569.09,278.91 570.07,278.91 570.40,278.44 574.64,277.97 574.96,277.51 575.94,276.57 576.59,276.11 578.87,275.64 579.85,275.17 580.18,274.70 580.50,274.24 583.11,273.30 583.44,272.84 583.76,270.97 584.74,270.50 585.07,270.04 585.72,269.57 588.00,269.10 588.65,268.63 589.31,268.63 590.28,268.17 590.61,267.70 591.59,267.23 597.13,266.77 598.43,265.83 598.76,265.37 600.39,264.90 601.04,264.90 601.37,263.97 601.69,263.97 602.02,263.50 603.00,263.03 603.98,262.57 604.30,262.10 606.26,261.63 606.58,261.16 607.24,260.23 608.21,259.76 608.87,259.30 609.19,258.83 610.50,258.36 611.15,258.36 611.80,257.90 612.78,257.43 613.10,256.96 617.34,256.50 618.32,256.50 619.30,256.03 619.62,255.56 621.25,255.09 621.58,254.16 621.91,253.69 622.23,252.76 623.54,252.29 624.51,251.83 626.80,250.89 627.77,250.43 628.10,249.96 628.75,249.96 629.40,248.56 631.36,248.09 631.69,247.62 634.95,247.16 635.27,246.69 636.25,245.29 636.58,244.82 637.55,244.36 637.88,244.36 638.21,243.89 639.84,243.42 640.16,242.49 641.14,241.55 642.77,241.09 644.07,240.62 645.05,240.62 648.64,240.62 648.96,240.62 650.92,240.62 651.57,239.69 652.22,239.69 653.53,239.69 653.85,239.69 656.46,239.22 659.40,238.75 660.05,238.29 660.37,237.35 660.70,236.89 663.63,236.42 664.94,236.42 665.26,235.95 665.59,235.49 666.24,235.49 667.55,235.02 667.87,234.55 668.52,234.08 669.83,233.62 671.46,233.15 671.78,233.15 672.44,232.68 672.76,232.22 673.09,232.22 673.41,231.75 673.74,231.28 674.39,230.82 678.30,230.35 680.59,230.35 682.87,230.35 683.85,230.35 684.17,229.88 684.50,229.42 685.48,229.42 685.80,228.95 688.08,228.48 688.41,228.01 689.71,228.01 690.04,227.55 690.37,227.08 691.67,226.61 692.65,226.61 693.95,225.68 694.93,225.68 695.26,225.68 697.21,225.21 697.86,224.28 698.84,223.81 699.17,223.35 699.82,222.88 701.78,221.95 702.43,221.95 703.08,221.48 703.41,221.01 704.06,220.54 704.38,220.08 705.36,219.61 705.69,218.68 706.34,218.21 707.64,217.74 707.97,217.28 708.62,216.34 709.27,215.88 710.58,215.41 710.90,214.94 712.21,214.47 713.51,214.01 715.14,214.01 716.12,213.54 716.45,213.07 718.08,213.07 718.40,212.61 719.71,212.14 720.68,210.74 721.34,210.74 722.31,210.27 723.62,209.81 723.95,209.34 724.60,208.87 727.21,208.41 729.16,207.94 731.44,207.47 735.03,207.00 735.36,207.00 735.68,206.54 737.64,205.14 738.29,204.67 738.62,204.20 738.94,203.74 739.92,203.27 740.25,202.80 740.90,202.34 743.51,201.40 745.14,200.93 745.79,200.93 747.42,200.93 748.72,200.47 751.66,200.00 752.96,200.00 754.92,199.53 760.78,199.53 763.07,199.53 763.72,199.07 766.65,198.60 767.30,198.13 767.96,197.67 769.91,197.20 770.56,196.73 771.22,195.80 771.54,195.80 771.87,195.33 774.48,194.87 777.41,194.40 779.04,193.93 781.00,193.46 783.93,193.46 786.54,192.06 787.84,191.60 788.49,191.13 789.80,190.66 791.43,190.20 792.08,189.73 792.73,189.26 794.69,188.80 795.99,188.33 796.32,187.39 799.25,187.39 799.58,186.93 799.90,186.93 800.56,186.46 801.53,186.46 802.84,185.99 804.79,185.53 805.12,185.06 806.10,185.06 808.38,185.06 810.66,184.59 812.62,184.13 815.23,183.66 815.88,183.19 816.20,182.73 817.18,182.73 817.51,182.26 817.83,181.79 818.49,180.86 819.79,180.39 822.07,179.92 822.40,179.46 823.38,178.52 825.33,178.06 826.96,177.59 827.29,177.12 828.59,176.66 829.57,176.19 829.90,176.19 831.20,175.72 831.85,175.72 833.48,175.26 833.81,174.79 834.13,173.39 836.09,172.92 837.07,172.45 837.39,171.99 839.35,171.99 840.65,171.52 840.98,170.12 841.31,170.12 843.59,168.72 845.22,168.25 849.13,167.79 849.46,167.32 851.41,166.85 854.35,166.38 857.61,165.92 859.56,164.98 859.89,164.52 860.21,164.05 860.87,163.58 863.47,163.12 865.76,162.65 869.02,162.18 869.34,162.18 872.28,161.72 873.25,161.25 874.56,160.78 884.66,160.31 885.97,159.38 886.29,158.91 889.55,158.45 891.18,157.51 893.47,157.05 894.12,157.05 894.44,156.58 896.40,156.11 897.70,155.65 898.36,155.18 898.68,154.71 899.01,154.25 899.99,153.78 901.62,153.31 901.94,153.31 903.57,152.84 905.85,152.38 908.14,151.91 908.79,151.44 912.38,150.98 912.70,150.51 914.33,150.04 915.96,149.58 918.90,149.11 920.20,148.64 922.48,148.64 922.81,148.18 923.46,148.18 925.09,147.71 925.42,147.24 926.07,146.77 927.05,145.84 927.37,144.44 927.70,143.51 928.02,143.04 929.33,142.57 929.65,142.57 931.61,142.11 931.94,141.64 933.57,141.17 933.89,140.71 934.54,140.24 935.20,140.24 936.17,139.77 939.43,139.30 945.30,138.84 946.61,138.37 948.24,137.90 949.54,137.44 950.84,136.97 951.82,136.50 952.80,135.57 955.08,135.57 956.71,135.10 957.36,135.10 959.65,135.10 959.97,135.10 960.30,134.64 963.88,134.17 965.84,133.70 966.17,133.70 969.10,133.23 973.99,132.77 975.29,132.77 975.62,132.30 976.60,131.83 980.51,131.37 985.07,130.90 985.40,130.90 989.64,130.43 992.25,129.97 1004.96,129.50 1007.89,128.57 1008.87,128.10 1010.50,127.63 1010.83,126.70 1016.70,126.23 1019.30,125.76 1024.52,125.30 1026.15,124.83 1028.43,124.36 1035.03,124.36 1036.00,124.36"/>
<circle cx="90.00" cy="468.00" r="3.8" fill="#ffb50c" stroke="#111827" stroke-width="1"/>
<circle cx="192.23" cy="453.99" r="3.8" fill="#ffb50c" stroke="#111827" stroke-width="1"/>
<circle cx="243.74" cy="441.39" r="3.8" fill="#ffb50c" stroke="#111827" stroke-width="1"/>
<circle cx="281.23" cy="427.38" r="3.8" fill="#ffb50c" stroke="#111827" stroke-width="1"/>
<circle cx="318.07" cy="413.84" r="3.8" fill="#ffb50c" stroke="#111827" stroke-width="1"/>
<circle cx="347.41" cy="401.70" r="3.8" fill="#ffb50c" stroke="#111827" stroke-width="1"/>
<circle cx="391.42" cy="385.36" r="3.8" fill="#ffb50c" stroke="#111827" stroke-width="1"/>
<circle cx="423.37" cy="367.15" r="3.8" fill="#ffb50c" stroke="#111827" stroke-width="1"/>
<circle cx="447.49" cy="352.68" r="3.8" fill="#ffb50c" stroke="#111827" stroke-width="1"/>
<circle cx="479.44" cy="338.20" r="3.8" fill="#ffb50c" stroke="#111827" stroke-width="1"/>
<circle cx="498.68" cy="320.46" r="3.8" fill="#ffb50c" stroke="#111827" stroke-width="1"/>
<circle cx="523.78" cy="303.19" r="3.8" fill="#ffb50c" stroke="#111827" stroke-width="1"/>
<circle cx="551.82" cy="289.65" r="3.8" fill="#ffb50c" stroke="#111827" stroke-width="1"/>
<circle cx="580.18" cy="274.70" r="3.8" fill="#ffb50c" stroke="#111827" stroke-width="1"/>
<circle cx="608.87" cy="259.30" r="3.8" fill="#ffb50c" stroke="#111827" stroke-width="1"/>
<circle cx="637.88" cy="244.36" r="3.8" fill="#ffb50c" stroke="#111827" stroke-width="1"/>
<circle cx="671.46" cy="233.15" r="3.8" fill="#ffb50c" stroke="#111827" stroke-width="1"/>
<circle cx="699.17" cy="223.35" r="3.8" fill="#ffb50c" stroke="#111827" stroke-width="1"/>
<circle cx="723.95" cy="209.34" r="3.8" fill="#ffb50c" stroke="#111827" stroke-width="1"/>
<circle cx="769.91" cy="197.20" r="3.8" fill="#ffb50c" stroke="#111827" stroke-width="1"/>
<circle cx="808.38" cy="185.06" r="3.8" fill="#ffb50c" stroke="#111827" stroke-width="1"/>
<circle cx="840.65" cy="171.52" r="3.8" fill="#ffb50c" stroke="#111827" stroke-width="1"/>
<circle cx="896.40" cy="156.11" r="3.8" fill="#ffb50c" stroke="#111827" stroke-width="1"/>
<circle cx="929.65" cy="142.57" r="3.8" fill="#ffb50c" stroke="#111827" stroke-width="1"/>
<circle cx="976.60" cy="131.83" r="3.8" fill="#ffb50c" stroke="#111827" stroke-width="1"/>
<circle cx="1036.00" cy="124.36" r="3.8" fill="#ffb50c" stroke="#111827" stroke-width="1"/>
<text x="1028.0" y="114.4" text-anchor="end" fill="#ffb50c" font-size="12" font-family="-apple-system,BlinkMacSystemFont,Segoe UI,Helvetica,Arial,sans-serif">736</text>
<rect x="90" y="514" width="14" height="14" fill="url(#repo-0)" rx="3"/>
<text x="112" y="526" fill="#3bf2af" font-size="13" font-family="-apple-system,BlinkMacSystemFont,Segoe UI,Helvetica,Arial,sans-serif">bavix/gripmock</text>
<rect x="280" y="514" width="14" height="14" fill="url(#repo-1)" rx="3"/>
<text x="302" y="526" fill="#ffb50c" font-size="13" font-family="-apple-system,BlinkMacSystemFont,Segoe UI,Helvetica,Arial,sans-serif">tokopedia/gripmock</text>
<text x="1036" y="526" text-anchor="end" fill="#9ca3af" font-size="12" font-family="-apple-system,BlinkMacSystemFont,Segoe UI,Helvetica,Arial,sans-serif">Source: https://github.com/bavix/artifact-stats/blob/master/stats/github.csv</text>
</svg>