<svg xmlns="http://www.w3.org/2000/svg" width="1100" height="560" viewBox="0 0 1100 560">
<defs>
<linearGradient id="bg" x1="0" y1="0" x2="1" y2="1"><stop offset="0%" stop-color="#0b1220"/><stop offset="100%" stop-color="#111827"/></linearGradient>
<linearGradient id="repo-0" x1="0" y1="0" x2="0" y2="1"><stop offset="0%" stop-color="#34d399"/><stop offset="100%" stop-color="#059669"/></linearGradient>
<linearGradient id="repo-1" x1="0" y1="0" x2="0" y2="1"><stop offset="0%" stop-color="#f59e0b"/><stop offset="100%" stop-color="#d97706"/></linearGradient>
</defs>
<rect x="0" y="0" width="1100" height="560" fill="url(#bg)" rx="16"/>
<text x="90" y="44" fill="#f9fafb" font-size="28" font-family="-apple-system,BlinkMacSystemFont,Segoe UI,Helvetica,Arial,sans-serif" font-weight="700">GripMock GitHub Metrics - Stars</text>
<text x="90" y="70" fill="#9ca3af" font-size="16" font-family="-apple-system,BlinkMacSystemFont,Segoe UI,Helvetica,Arial,sans-serif">GitHub stars by snapshot date</text>
<line x1="90" y1="90.0" x2="1036" y2="90.0" stroke="#1f2937" stroke-width="1"/>
<text x="80" y="95.0" text-anchor="end" fill="#9ca3af" font-size="12" font-family="-apple-system,BlinkMacSystemFont,Segoe UI,Helvetica,Arial,sans-serif">810</text>
<line x1="90" y1="153.0" x2="1036" y2="153.0" stroke="#1f2937" stroke-width="1"/>
<text x="80" y="158.0" text-anchor="end" fill="#9ca3af" font-size="12" font-family="-apple-system,BlinkMacSystemFont,Segoe UI,Helvetica,Arial,sans-serif">675</text>
<line x1="90" y1="216.0" x2="1036" y2="216.0" stroke="#1f2937" stroke-width="1"/>
<text x="80" y="221.0" text-anchor="end" fill="#9ca3af" font-size="12" font-family="-apple-system,BlinkMacSystemFont,Segoe UI,Helvetica,Arial,sans-serif">540</text>
<line x1="90" y1="279.0" x2="1036" y2="279.0" stroke="#1f2937" stroke-width="1"/>
<text x="80" y="284.0" text-anchor="end" fill="#9ca3af" font-size="12" font-family="-apple-system,BlinkMacSystemFont,Segoe UI,Helvetica,Arial,sans-serif">405</text>
<line x1="90" y1="342.0" x2="1036" y2="342.0" stroke="#1f2937" stroke-width="1"/>
<text x="80" y="347.0" text-anchor="end" fill="#9ca3af" font-size="12" font-family="-apple-system,BlinkMacSystemFont,Segoe UI,Helvetica,Arial,sans-serif">270</text>
<line x1="90" y1="405.0" x2="1036" y2="405.0" stroke="#1f2937" stroke-width="1"/>
<text x="80" y="410.0" text-anchor="end" fill="#9ca3af" font-size="12" font-family="-apple-system,BlinkMacSystemFont,Segoe UI,Helvetica,Arial,sans-serif">135</text>
<line x1="90" y1="468.0" x2="1036" y2="468.0" stroke="#1f2937" stroke-width="1"/>
<text x="80" y="473.0" text-anchor="end" fill="#9ca3af" font-size="12" font-family="-apple-system,BlinkMacSystemFont,Segoe UI,Helvetica,Arial,sans-serif">0</text>
<line x1="90" y1="468" x2="1036" y2="468" stroke="#4b5563" stroke-width="1.4"/>
<line x1="90" y1="90" x2="90" y2="468" stroke="#4b5563" stroke-width="1.4"/>
<line x1="90.0" y1="468" x2="90.0" y2="474" stroke="#6b7280" stroke-width="1"/>
<text x="90.0" y="494" text-anchor="start" fill="#9ca3af" font-size="12" font-family="-apple-system,BlinkMacSystemFont,Segoe UI,Helvetica,Arial,sans-serif">2018-04-24</text>
<line x1="279.2" y1="468" x2="279.2" y2="474" stroke="#6b7280" stroke-width="1"/>
<text x="279.2" y="494" text-anchor="middle" fill="#9ca3af" font-size="12" font-family="-apple-system,BlinkMacSystemFont,Segoe UI,Helvetica,Arial,sans-serif">2019-11-26</text>
<line x1="468.4" y1="468" x2="468.4" y2="474" stroke="#6b7280" stroke-width="1"/>
<text x="468.4" y="494" text-anchor="middle" fill="#9ca3af" font-size="12" font-family="-apple-system,BlinkMacSystemFont,Segoe UI,Helvetica,Arial,sans-serif">2021-06-29</text>
<line x1="657.6" y1="468" x2="657.6" y2="474" stroke="#6b7280" stroke-width="1"/>
<text x="657.6" y="494" text-anchor="middle" fill="#9ca3af" font-size="12" font-family="-apple-system,BlinkMacSystemFont,Segoe UI,Helvetica,Arial,sans-serif">2023-01-31</text>
<line x1="846.8" y1="468" x2="846.8" y2="474" stroke="#6b7280" stroke-width="1"/>
<text x="846.8" y="494" text-anchor="middle" fill="#9ca3af" font-size="12" font-family="-apple-system,BlinkMacSystemFont,Segoe UI,Helvetica,Arial,sans-serif">2024-09-04</text>
<line x1="1036.0" y1="468" x2="1036.0" y2="474" stroke="#6b7280" stroke-width="1"/>
<text x="1036.0" y="494" text-anchor="end" fill="#9ca3af" font-size="12" font-family="-apple-system,BlinkMacSystemFont,Segoe UI,Helvetica,Arial,sans-serif">2026-04-08</text>
<polyline fill="none" stroke="url(#repo-0)" stroke-width="4" stroke-linecap="round" stroke-linejoin="round" points="721.57,468.00 728.28,467.53 741.30,467.07 754.97,466.60 756.93,466.13 760.18,465.67 771.90,465.20 774.18,464.73 779.72,464.26 780.04,463.80 784.92,463.33 792.74,462.86 805.11,462.40 808.36,461.93 812.60,461.46 816.18,461.00 831.15,460.53 835.71,460.06 836.36,459.60 837.66,459.13 843.85,458.66 857.52,458.20 860.45,457.73 867.29,457.26 872.82,456.79 873.48,456.33 874.13,455.86 894.31,455.39 896.92,454.93 897.57,454.46 903.75,453.99 904.40,453.53 908.31,453.53 909.61,453.06 909.94,452.59 910.26,452.13 913.19,451.66 914.82,451.19 916.45,450.72 921.66,450.72 926.22,450.72 927.84,450.26 928.49,450.26 935.33,449.79 939.24,449.32 950.96,448.86 953.24,448.39 953.89,448.39 955.84,447.92 957.79,447.46 960.72,447.46 965.93,446.99 972.77,446.52 977.00,446.06 988.40,445.59 990.67,445.12 995.56,444.66 995.88,444.19 996.86,443.72 999.46,443.25 999.79,443.25 1008.58,442.79 1015.42,442.32 1016.07,441.85 1018.35,441.39 1024.86,440.92 1027.14,440.45 1028.76,439.99 1030.39,439.52 1033.73,439.52 1034.69,439.52 1035.02,439.05 1035.67,439.05 1036.00,438.59"/>
<circle cx="721.57" cy="468.00" r="3.8" fill="#3bf2af" stroke="#111827" stroke-width="1"/>
<circle cx="754.97" cy="466.60" r="3.8" fill="#3bf2af" stroke="#111827" stroke-width="1"/>
<circle cx="771.90" cy="465.20" r="3.8" fill="#3bf2af" stroke="#111827" stroke-width="1"/>
<circle cx="780.04" cy="463.80" r="3.8" fill="#3bf2af" stroke="#111827" stroke-width="1"/>
<circle cx="805.11" cy="462.40" r="3.8" fill="#3bf2af" stroke="#111827" stroke-width="1"/>
<circle cx="816.18" cy="461.00" r="3.8" fill="#3bf2af" stroke="#111827" stroke-width="1"/>
<circle cx="836.36" cy="459.60" r="3.8" fill="#3bf2af" stroke="#111827" stroke-width="1"/>
<circle cx="857.52" cy="458.20" r="3.8" fill="#3bf2af" stroke="#111827" stroke-width="1"/>
<circle cx="872.82" cy="456.79" r="3.8" fill="#3bf2af" stroke="#111827" stroke-width="1"/>
<circle cx="894.31" cy="455.39" r="3.8" fill="#3bf2af" stroke="#111827" stroke-width="1"/>
<circle cx="903.75" cy="453.99" r="3.8" fill="#3bf2af" stroke="#111827" stroke-width="1"/>
<circle cx="909.61" cy="453.06" r="3.8" fill="#3bf2af" stroke="#111827" stroke-width="1"/>
<circle cx="913.19" cy="451.66" r="3.8" fill="#3bf2af" stroke="#111827" stroke-width="1"/>
<circle cx="921.66" cy="450.72" r="3.8" fill="#3bf2af" stroke="#111827" stroke-width="1"/>
<circle cx="928.49" cy="450.26" r="3.8" fill="#3bf2af" stroke="#111827" stroke-width="1"/>
<circle cx="950.96" cy="448.86" r="3.8" fill="#3bf2af" stroke="#111827" stroke-width="1"/>
<circle cx="955.84" cy="447.92" r="3.8" fill="#3bf2af" stroke="#111827" stroke-width="1"/>
<circle cx="965.93" cy="446.99" r="3.8" fill="#3bf2af" stroke="#111827" stroke-width="1"/>
<circle cx="988.40" cy="445.59" r="3.8" fill="#3bf2af" stroke="#111827" stroke-width="1"/>
<circle cx="995.88" cy="444.19" r="3.8" fill="#3bf2af" stroke="#111827" stroke-width="1"/>
<circle cx="999.79" cy="443.25" r="3.8" fill="#3bf2af" stroke="#111827" stroke-width="1"/>
<circle cx="1016.07" cy="441.85" r="3.8" fill="#3bf2af" stroke="#111827" stroke-width="1"/>
<circle cx="1027.14" cy="440.45" r="3.8" fill="#3bf2af" stroke="#111827" stroke-width="1"/>
<circle cx="1033.73" cy="439.52" r="3.8" fill="#3bf2af" stroke="#111827" stroke-width="1"/>
<circle cx="1035.67" cy="439.05" r="3.8" fill="#3bf2af" stroke="#111827" stroke-width="1"/>
<circle cx="1036.00" cy="438.59" r="3.8" fill="#3bf2af" stroke="#111827" stroke-width="1"/>
<text x="1028.0" y="428.6" text-anchor="end" fill="#3bf2af" font-size="12" font-family="-apple-system,BlinkMacSystemFont,Segoe UI,Helvetica,Arial,sans-serif">63</text>
<polyline fill="none" stroke="url(#repo-1)" stroke-width="4" stroke-linecap="round" stroke-linejoin="round" points="90.00,468.00 91.82,466.60 92.47,466.13 96.05,465.67 99.64,465.20 136.75,464.73 137.72,464.26 143.58,464.26 149.44,463.80 154.00,463.80 157.58,463.33 158.23,462.86 158.56,462.40 158.89,461.93 160.51,461.46 161.16,461.00 165.40,460.53 165.72,460.06 169.63,459.60 170.61,459.13 170.93,458.66 172.56,458.20 174.19,457.26 176.14,456.79 177.12,456.33 182.33,455.86 184.93,455.39 186.56,454.93 186.88,454.46 192.09,453.99 192.42,453.53 193.07,453.06 196.32,452.59 196.98,451.66 197.30,451.66 197.63,451.66 203.49,451.19 205.11,451.19 211.30,450.72 212.60,450.26 213.25,450.26 215.86,449.79 218.79,449.32 222.69,449.32 223.02,448.86 225.30,448.39 227.58,447.92 230.83,447.46 231.81,446.99 234.09,446.52 236.37,446.06 238.32,445.59 238.65,445.12 238.97,444.66 241.58,444.19 242.23,443.72 242.88,442.79 243.20,442.32 243.53,441.39 243.86,440.92 246.46,440.45 247.11,439.52 249.72,439.52 255.25,439.05 255.90,439.05 256.23,438.59 256.55,438.12 257.20,438.12 258.51,437.65 258.83,437.18 260.78,436.72 261.11,436.25 263.39,435.78 264.37,434.85 265.02,433.92 265.99,433.92 267.62,433.45 267.95,432.98 268.92,432.52 271.85,432.05 275.43,431.58 276.41,431.12 277.39,430.65 277.71,430.18 279.01,429.71 279.34,429.25 279.99,428.78 280.97,427.38 282.60,426.91 283.25,426.45 283.57,425.98 283.90,424.58 285.53,424.11 286.50,423.64 287.15,423.18 288.46,423.18 288.78,422.71 290.41,422.24 293.99,421.78 295.94,421.31 297.57,421.31 297.90,420.38 300.18,419.91 301.80,419.44 302.13,419.44 304.08,418.98 304.41,418.51 305.06,418.51 306.04,418.51 306.36,418.04 306.69,417.58 307.01,417.11 311.57,415.71 315.48,415.24 315.80,414.77 316.45,414.31 317.76,413.84 318.08,413.37 319.71,413.37 320.36,412.91 320.69,412.44 321.01,411.97 321.34,411.51 322.96,411.04 326.22,410.57 327.52,410.10 327.85,410.10 328.50,409.64 328.82,409.64 329.48,408.24 330.13,407.77 330.78,407.77 332.08,407.30 332.73,406.84 334.68,406.37 335.01,405.90 336.31,405.44 338.27,404.97 339.57,404.50 340.87,404.50 341.20,404.04 341.85,403.57 342.82,403.10 343.80,402.63 345.43,402.17 347.06,401.70 348.68,401.23 351.61,400.77 354.22,400.30 354.54,399.83 354.87,399.37 359.75,398.90 360.73,398.43 361.71,397.97 362.03,397.03 363.01,396.56 365.29,395.63 365.61,394.70 367.24,394.23 369.19,394.23 372.45,393.76 373.43,393.30 374.40,392.83 375.70,391.90 376.36,391.43 376.68,390.96 377.33,390.50 378.96,389.56 380.26,389.09 384.49,388.16 386.12,386.76 387.10,385.83 390.03,385.83 390.68,385.83 391.01,385.36 391.33,384.43 392.96,383.49 393.94,383.02 395.24,382.56 395.56,382.09 396.21,381.62 398.49,381.16 398.82,380.69 399.47,380.22 401.75,379.76 402.40,379.29 403.70,378.82 404.68,378.36 405.00,377.89 405.33,377.42 409.24,376.96 409.89,376.49 411.19,375.55 411.52,375.09 412.82,374.62 414.12,371.35 414.45,370.42 414.77,369.95 416.40,369.48 417.05,369.02 418.68,369.02 419.98,368.55 420.96,368.08 422.91,367.15 424.21,366.68 425.84,366.22 426.17,365.75 426.82,365.28 427.47,364.35 428.12,363.88 428.44,363.88 429.42,363.88 429.75,363.42 430.07,362.95 430.40,362.48 432.03,362.01 432.68,361.08 433.98,360.61 434.63,359.68 435.61,359.21 436.26,358.75 437.23,358.28 438.54,357.81 439.84,357.81 441.14,357.35 441.47,356.88 443.09,356.41 443.42,355.94 444.07,355.48 444.40,355.01 445.05,354.54 445.37,353.14 447.00,352.68 448.30,352.21 449.93,351.74 454.49,350.81 454.81,350.34 455.14,350.34 455.46,349.88 456.44,349.41 456.77,348.94 457.09,348.47 457.42,347.54 458.72,347.07 459.37,346.14 459.70,344.74 460.67,344.74 461.00,344.74 461.65,343.81 463.60,343.34 463.93,342.40 464.25,341.94 465.56,341.47 467.84,341.00 468.16,340.54 468.81,340.07 471.09,339.60 472.72,339.14 474.35,339.14 477.28,339.14 478.58,338.67 478.90,338.20 479.23,338.20 479.88,337.74 480.21,336.80 480.53,336.33 481.51,335.87 481.83,335.40 482.81,334.93 484.44,334.00 484.76,334.00 485.09,333.07 485.42,332.60 485.74,331.20 486.07,330.27 486.39,329.80 487.04,329.33 487.37,327.46 487.69,327.00 488.67,326.53 489.32,325.60 489.97,325.13 491.28,324.66 492.58,324.20 492.90,323.73 493.23,323.26 493.55,322.79 495.18,322.33 496.48,321.86 496.81,321.39 498.11,320.46 498.44,319.53 498.76,319.53 502.02,319.06 502.34,318.59 503.00,318.13 504.62,317.19 505.27,316.73 505.93,316.26 507.23,316.26 507.88,315.32 508.20,315.32 508.53,313.46 508.86,311.12 510.16,310.66 510.48,310.19 511.13,309.72 511.46,309.25 512.44,308.79 512.76,308.32 514.06,307.85 516.99,307.39 517.97,306.92 518.95,306.45 519.27,305.05 519.60,304.59 519.92,304.12 520.25,303.65 520.90,303.19 523.18,303.19 524.48,302.72 524.81,302.25 525.13,301.78 526.11,301.32 527.41,301.32 528.71,300.85 530.34,300.38 530.67,299.92 534.25,299.45 535.88,298.98 536.53,298.05 537.18,297.58 539.78,297.12 540.43,296.65 540.76,296.18 541.74,295.71 542.39,295.25 543.04,295.25 543.69,294.78 544.34,294.31 545.64,293.85 545.97,293.38 546.29,292.91 547.92,292.91 548.57,292.45 548.90,291.98 549.88,291.05 550.53,290.11 551.18,289.65 552.81,288.71 553.13,288.71 553.46,288.24 554.43,287.78 555.08,287.31 555.74,286.84 557.36,286.38 560.29,285.91 560.62,285.44 561.92,284.98 562.25,284.51 563.55,284.04 563.87,283.58 564.20,281.71 564.85,281.24 565.83,280.77 566.15,280.31 566.48,279.84 567.13,279.37 568.43,278.91 569.41,278.91 569.73,278.44 573.97,277.97 574.29,277.51 575.27,276.57 575.92,276.11 578.20,275.64 579.18,275.17 579.50,274.70 579.83,274.24 582.43,273.30 582.76,272.84 583.08,270.97 584.06,270.50 584.38,270.04 585.04,269.57 587.31,269.10 587.97,268.63 588.62,268.63 589.59,268.17 589.92,267.70 590.90,267.23 596.43,266.77 597.73,265.83 598.06,265.37 599.69,264.90 600.34,264.90 600.66,263.97 600.99,263.97 601.31,263.50 602.29,263.03 603.27,262.57 603.59,262.10 605.55,261.63 605.87,261.16 606.52,260.23 607.50,259.76 608.15,259.30 608.48,258.83 609.78,258.36 610.43,258.36 611.08,257.90 612.06,257.43 612.38,256.96 616.61,256.50 617.59,256.50 618.57,256.03 618.89,255.56 620.52,255.09 620.85,254.16 621.17,253.69 621.50,252.76 622.80,252.29 623.78,251.83 626.05,250.89 627.03,250.43 627.36,249.96 628.01,249.96 628.66,248.56 630.61,248.09 630.94,247.62 634.19,247.16 634.52,246.69 635.50,245.29 635.82,244.82 636.80,244.36 637.12,244.36 637.45,243.89 639.08,243.42 639.40,242.49 640.38,241.55 642.01,241.09 643.31,240.62 644.29,240.62 647.87,240.62 648.19,240.62 650.15,240.62 650.80,239.69 651.45,239.69 652.75,239.69 653.08,239.69 655.68,239.22 658.61,238.75 659.26,238.29 659.59,237.35 659.91,236.89 662.84,236.42 664.14,236.42 664.47,235.95 664.80,235.49 665.45,235.49 666.75,235.02 667.07,234.55 667.73,234.08 669.03,233.62 670.66,233.15 670.98,233.15 671.63,232.68 671.96,232.22 672.28,232.22 672.61,231.75 672.93,231.28 673.59,230.82 677.49,230.35 679.77,230.35 682.05,230.35 683.03,230.35 683.35,229.88 683.68,229.42 684.65,229.42 684.98,228.95 687.26,228.48 687.58,228.01 688.89,228.01 689.21,227.55 689.54,227.08 690.84,226.61 691.82,226.61 693.12,225.68 694.10,225.68 694.42,225.68 696.37,225.21 697.03,224.28 698.00,223.81 698.33,223.35 698.98,222.88 700.93,221.95 701.58,221.95 702.23,221.48 702.56,221.01 703.21,220.54 703.54,220.08 704.51,219.61 704.84,218.68 705.49,218.21 706.79,217.74 707.12,217.28 707.77,216.34 708.42,215.88 709.72,215.41 710.05,214.94 711.35,214.47 712.65,214.01 714.28,214.01 715.26,213.54 715.58,213.07 717.21,213.07 717.54,212.61 718.84,212.14 719.81,210.74 720.47,210.74 721.44,210.27 722.74,209.81 723.07,209.34 723.72,208.87 726.33,208.41 728.28,207.94 730.56,207.47 734.14,207.00 734.46,207.00 734.79,206.54 736.74,205.14 737.39,204.67 737.72,204.20 738.05,203.74 739.02,203.27 739.35,202.80 740.00,202.34 742.60,201.40 744.23,200.93 744.88,200.93 746.51,200.93 747.81,200.47 750.74,200.00 752.04,200.00 754.00,199.53 759.86,199.53 762.14,199.53 762.79,199.07 765.72,198.60 766.37,198.13 767.02,197.67 768.97,197.20 769.62,196.73 770.28,195.80 770.60,195.80 770.93,195.33 773.53,194.87 776.46,194.40 778.09,193.93 780.04,193.46 782.97,193.46 785.58,192.06 786.88,191.60 787.53,191.13 788.83,190.66 790.46,190.20 791.11,189.73 791.76,189.26 793.71,188.80 795.02,188.33 795.34,187.39 798.27,187.39 798.60,186.93 798.92,186.93 799.57,186.46 800.55,186.46 801.85,185.99 803.81,185.53 804.13,185.06 805.11,185.06 807.39,185.06 809.67,184.59 811.62,184.13 814.22,183.66 814.88,183.19 815.20,182.73 816.18,182.73 816.50,182.26 816.83,181.79 817.48,180.86 818.78,180.39 821.06,179.92 821.39,179.46 822.36,178.52 824.32,178.06 825.94,177.59 826.27,177.12 827.57,176.66 828.55,176.19 828.87,176.19 830.18,175.72 830.83,175.72 832.46,175.26 832.78,174.79 833.11,173.39 835.06,172.92 836.04,172.45 836.36,171.99 838.32,171.99 839.62,171.52 839.94,170.12 840.27,170.12 842.55,168.72 844.18,168.25 848.08,167.79 848.41,167.32 850.36,166.85 853.29,166.38 856.55,165.92 858.50,164.98 858.83,164.52 859.15,164.05 859.80,163.58 862.41,163.12 864.69,162.65 867.94,162.18 868.27,162.18 871.20,161.72 872.17,161.25 873.48,160.78 883.57,160.31 884.87,159.38 885.20,158.91 888.45,158.45 890.08,157.51 892.36,157.05 893.01,157.05 893.33,156.58 895.29,156.11 896.59,155.65 897.24,155.18 897.57,154.71 897.89,154.25 898.87,153.78 900.50,153.31 900.82,153.31 902.45,152.84 904.73,152.38 907.01,151.91 907.66,151.44 911.24,150.98 911.57,150.51 913.19,150.04 914.82,149.58 917.75,149.11 919.05,148.64 921.33,148.64 921.66,148.18 922.31,148.18 923.94,147.71 924.26,147.24 924.91,146.77 925.89,145.84 926.22,144.44 926.54,143.51 926.87,143.04 928.17,142.57 928.49,142.57 930.45,142.11 930.77,141.64 932.40,141.17 932.73,140.71 933.38,140.24 934.03,140.24 935.01,139.77 938.26,139.30 944.12,138.84 945.42,138.37 947.05,137.90 948.35,137.44 949.65,136.97 950.63,136.50 951.61,135.57 953.89,135.57 955.51,135.10 956.17,135.10 958.44,135.10 958.77,135.10 959.10,134.64 962.68,134.17 964.63,133.70 964.96,133.70 967.89,133.23 972.77,132.77 974.07,132.77 974.40,132.30 975.37,131.83 979.28,131.37 983.84,130.90 984.16,130.90 988.40,130.43 991.00,129.97 1003.70,129.50 1006.63,128.57 1007.60,128.10 1009.23,127.63 1009.56,126.70 1015.42,126.23 1018.02,125.76 1023.23,125.30 1024.86,124.83 1027.14,124.36 1033.73,124.36 1036.00,124.36"/>
<circle cx="90.00" cy="468.00" r="3.8" fill="#ffb50c" stroke="#111827" stroke-width="1"/>
<circle cx="192.09" cy="453.99" r="3.8" fill="#ffb50c" stroke="#111827" stroke-width="1"/>
<circle cx="243.53" cy="441.39" r="3.8" fill="#ffb50c" stroke="#111827" stroke-width="1"/>
<circle cx="280.97" cy="427.38" r="3.8" fill="#ffb50c" stroke="#111827" stroke-width="1"/>
<circle cx="317.76" cy="413.84" r="3.8" fill="#ffb50c" stroke="#111827" stroke-width="1"/>
<circle cx="347.06" cy="401.70" r="3.8" fill="#ffb50c" stroke="#111827" stroke-width="1"/>
<circle cx="391.01" cy="385.36" r="3.8" fill="#ffb50c" stroke="#111827" stroke-width="1"/>
<circle cx="422.91" cy="367.15" r="3.8" fill="#ffb50c" stroke="#111827" stroke-width="1"/>
<circle cx="447.00" cy="352.68" r="3.8" fill="#ffb50c" stroke="#111827" stroke-width="1"/>
<circle cx="478.90" cy="338.20" r="3.8" fill="#ffb50c" stroke="#111827" stroke-width="1"/>
<circle cx="498.11" cy="320.46" r="3.8" fill="#ffb50c" stroke="#111827" stroke-width="1"/>
<circle cx="523.18" cy="303.19" r="3.8" fill="#ffb50c" stroke="#111827" stroke-width="1"/>
<circle cx="551.18" cy="289.65" r="3.8" fill="#ffb50c" stroke="#111827" stroke-width="1"/>
<circle cx="579.50" cy="274.70" r="3.8" fill="#ffb50c" stroke="#111827" stroke-width="1"/>
<circle cx="608.15" cy="259.30" r="3.8" fill="#ffb50c" stroke="#111827" stroke-width="1"/>
<circle cx="637.12" cy="244.36" r="3.8" fill="#ffb50c" stroke="#111827" stroke-width="1"/>
<circle cx="670.66" cy="233.15" r="3.8" fill="#ffb50c" stroke="#111827" stroke-width="1"/>
<circle cx="698.33" cy="223.35" r="3.8" fill="#ffb50c" stroke="#111827" stroke-width="1"/>
<circle cx="723.07" cy="209.34" r="3.8" fill="#ffb50c" stroke="#111827" stroke-width="1"/>
<circle cx="768.97" cy="197.20" r="3.8" fill="#ffb50c" stroke="#111827" stroke-width="1"/>
<circle cx="807.39" cy="185.06" r="3.8" fill="#ffb50c" stroke="#111827" stroke-width="1"/>
<circle cx="839.62" cy="171.52" r="3.8" fill="#ffb50c" stroke="#111827" stroke-width="1"/>
<circle cx="895.29" cy="156.11" r="3.8" fill="#ffb50c" stroke="#111827" stroke-width="1"/>
<circle cx="928.49" cy="142.57" r="3.8" fill="#ffb50c" stroke="#111827" stroke-width="1"/>
<circle cx="975.37" cy="131.83" r="3.8" fill="#ffb50c" stroke="#111827" stroke-width="1"/>
<circle cx="1036.00" cy="124.36" r="3.8" fill="#ffb50c" stroke="#111827" stroke-width="1"/>
<text x="1028.0" y="114.4" text-anchor="end" fill="#ffb50c" font-size="12" font-family="-apple-system,BlinkMacSystemFont,Segoe UI,Helvetica,Arial,sans-serif">736</text>
<rect x="90" y="514" width="14" height="14" fill="url(#repo-0)" rx="3"/>
<text x="112" y="526" fill="#3bf2af" font-size="13" font-family="-apple-system,BlinkMacSystemFont,Segoe UI,Helvetica,Arial,sans-serif">bavix/gripmock</text>
<rect x="280" y="514" width="14" height="14" fill="url(#repo-1)" rx="3"/>
<text x="302" y="526" fill="#ffb50c" font-size="13" font-family="-apple-system,BlinkMacSystemFont,Segoe UI,Helvetica,Arial,sans-serif">tokopedia/gripmock</text>
<text x="1036" y="526" text-anchor="end" fill="#9ca3af" font-size="12" font-family="-apple-system,BlinkMacSystemFont,Segoe UI,Helvetica,Arial,sans-serif">Source: https://github.com/bavix/artifact-stats/blob/master/stats/github.csv</text>
</svg>