<svg xmlns="http://www.w3.org/2000/svg" width="1100" height="560" viewBox="0 0 1100 560">
<defs>
<linearGradient id="bg" x1="0" y1="0" x2="1" y2="1"><stop offset="0%" stop-color="#0b1220"/><stop offset="100%" stop-color="#111827"/></linearGradient>
<linearGradient id="repo-0" x1="0" y1="0" x2="0" y2="1"><stop offset="0%" stop-color="#34d399"/><stop offset="100%" stop-color="#059669"/></linearGradient>
<linearGradient id="repo-1" x1="0" y1="0" x2="0" y2="1"><stop offset="0%" stop-color="#f59e0b"/><stop offset="100%" stop-color="#d97706"/></linearGradient>
</defs>
<rect x="0" y="0" width="1100" height="560" fill="url(#bg)" rx="16"/>
<text x="90" y="44" fill="#f9fafb" font-size="28" font-family="-apple-system,BlinkMacSystemFont,Segoe UI,Helvetica,Arial,sans-serif" font-weight="700">GripMock GitHub Metrics - Forks</text>
<text x="90" y="70" fill="#9ca3af" font-size="16" font-family="-apple-system,BlinkMacSystemFont,Segoe UI,Helvetica,Arial,sans-serif">GitHub forks by snapshot date</text>
<line x1="90" y1="90.00" x2="1036" y2="90.00" stroke="#1f2937" stroke-width="1"/>
<text x="80" y="95.00" text-anchor="end" fill="#9ca3af" font-size="12" font-family="-apple-system,BlinkMacSystemFont,Segoe UI,Helvetica,Arial,sans-serif">185</text>
<line x1="90" y1="153.00" x2="1036" y2="153.00" stroke="#1f2937" stroke-width="1"/>
<text x="80" y="158.00" text-anchor="end" fill="#9ca3af" font-size="12" font-family="-apple-system,BlinkMacSystemFont,Segoe UI,Helvetica,Arial,sans-serif">154</text>
<line x1="90" y1="216.00" x2="1036" y2="216.00" stroke="#1f2937" stroke-width="1"/>
<text x="80" y="221.00" text-anchor="end" fill="#9ca3af" font-size="12" font-family="-apple-system,BlinkMacSystemFont,Segoe UI,Helvetica,Arial,sans-serif">123</text>
<line x1="90" y1="279.00" x2="1036" y2="279.00" stroke="#1f2937" stroke-width="1"/>
<text x="80" y="284.00" text-anchor="end" fill="#9ca3af" font-size="12" font-family="-apple-system,BlinkMacSystemFont,Segoe UI,Helvetica,Arial,sans-serif">92</text>
<line x1="90" y1="342.00" x2="1036" y2="342.00" stroke="#1f2937" stroke-width="1"/>
<text x="80" y="347.00" text-anchor="end" fill="#9ca3af" font-size="12" font-family="-apple-system,BlinkMacSystemFont,Segoe UI,Helvetica,Arial,sans-serif">62</text>
<line x1="90" y1="405.00" x2="1036" y2="405.00" stroke="#1f2937" stroke-width="1"/>
<text x="80" y="410.00" text-anchor="end" fill="#9ca3af" font-size="12" font-family="-apple-system,BlinkMacSystemFont,Segoe UI,Helvetica,Arial,sans-serif">31</text>
<line x1="90" y1="468.00" x2="1036" y2="468.00" stroke="#1f2937" stroke-width="1"/>
<text x="80" y="473.00" text-anchor="end" fill="#9ca3af" font-size="12" font-family="-apple-system,BlinkMacSystemFont,Segoe UI,Helvetica,Arial,sans-serif">0</text>
<line x1="90" y1="468" x2="1036" y2="468" stroke="#4b5563" stroke-width="1.4"/>
<line x1="90" y1="90" x2="90" y2="468" stroke="#4b5563" stroke-width="1.4"/>
<line x1="90.00" y1="468" x2="90.00" y2="474" stroke="#6b7280" stroke-width="1"/>
<text x="90.00" y="494" text-anchor="start" fill="#9ca3af" font-size="12" font-family="-apple-system,BlinkMacSystemFont,Segoe UI,Helvetica,Arial,sans-serif">2018-04-24</text>
<line x1="279.20" y1="468" x2="279.20" y2="474" stroke="#6b7280" stroke-width="1"/>
<text x="279.20" y="494" text-anchor="middle" fill="#9ca3af" font-size="12" font-family="-apple-system,BlinkMacSystemFont,Segoe UI,Helvetica,Arial,sans-serif">2019-11-29</text>
<line x1="468.40" y1="468" x2="468.40" y2="474" stroke="#6b7280" stroke-width="1"/>
<text x="468.40" y="494" text-anchor="middle" fill="#9ca3af" font-size="12" font-family="-apple-system,BlinkMacSystemFont,Segoe UI,Helvetica,Arial,sans-serif">2021-07-05</text>
<line x1="657.60" y1="468" x2="657.60" y2="474" stroke="#6b7280" stroke-width="1"/>
<text x="657.60" y="494" text-anchor="middle" fill="#9ca3af" font-size="12" font-family="-apple-system,BlinkMacSystemFont,Segoe UI,Helvetica,Arial,sans-serif">2023-02-09</text>
<line x1="846.80" y1="468" x2="846.80" y2="474" stroke="#6b7280" stroke-width="1"/>
<text x="846.80" y="494" text-anchor="middle" fill="#9ca3af" font-size="12" font-family="-apple-system,BlinkMacSystemFont,Segoe UI,Helvetica,Arial,sans-serif">2024-09-16</text>
<line x1="1036.00" y1="468" x2="1036.00" y2="474" stroke="#6b7280" stroke-width="1"/>
<text x="1036.00" y="494" text-anchor="end" fill="#9ca3af" font-size="12" font-family="-apple-system,BlinkMacSystemFont,Segoe UI,Helvetica,Arial,sans-serif">2026-04-23</text>
<polyline fill="none" stroke="url(#repo-0)" stroke-width="4" stroke-linecap="round" stroke-linejoin="round" points="718.33,468.00 725.00,468.00 737.95,468.00 751.56,468.00 753.50,468.00 756.74,468.00 768.40,468.00 770.67,468.00 776.17,468.00 776.50,468.00 781.35,468.00 789.13,468.00 801.43,468.00 804.67,468.00 808.88,468.00 812.45,468.00 827.34,468.00 831.88,468.00 832.53,468.00 833.82,468.00 839.98,468.00 853.58,468.00 856.49,468.00 863.30,468.00 868.80,468.00 869.45,468.00 870.10,468.00 890.18,468.00 892.77,468.00 893.42,468.00 899.57,468.00 900.22,468.00 904.10,465.95 905.40,465.95 905.72,465.95 906.05,465.95 908.96,463.91 910.58,463.91 912.20,463.91 917.38,461.86 921.92,459.82 923.54,459.82 924.18,457.77 930.99,457.77 934.87,457.77 946.53,457.77 948.80,457.77 949.45,455.73 951.39,455.73 953.33,455.73 956.25,453.68 961.43,453.68 968.23,453.68 972.44,453.68 983.78,453.68 986.05,453.68 990.90,453.68 991.23,453.68 992.20,453.68 994.79,453.68 995.11,451.64 1003.86,451.64 1010.66,451.64 1011.31,451.64 1013.58,451.64 1020.05,451.64 1022.32,451.64 1023.94,451.64 1025.56,451.64 1028.88,451.64 1029.84,451.64 1030.17,451.64 1030.81,451.64 1031.14,451.64 1031.46,451.64 1036.00,451.64"/>
<circle cx="718.33" cy="468.00" r="3.8" fill="#3bf2af" stroke="#111827" stroke-width="1"/>
<circle cx="751.56" cy="468.00" r="3.8" fill="#3bf2af" stroke="#111827" stroke-width="1"/>
<circle cx="768.40" cy="468.00" r="3.8" fill="#3bf2af" stroke="#111827" stroke-width="1"/>
<circle cx="776.50" cy="468.00" r="3.8" fill="#3bf2af" stroke="#111827" stroke-width="1"/>
<circle cx="801.43" cy="468.00" r="3.8" fill="#3bf2af" stroke="#111827" stroke-width="1"/>
<circle cx="812.45" cy="468.00" r="3.8" fill="#3bf2af" stroke="#111827" stroke-width="1"/>
<circle cx="832.53" cy="468.00" r="3.8" fill="#3bf2af" stroke="#111827" stroke-width="1"/>
<circle cx="853.58" cy="468.00" r="3.8" fill="#3bf2af" stroke="#111827" stroke-width="1"/>
<circle cx="868.80" cy="468.00" r="3.8" fill="#3bf2af" stroke="#111827" stroke-width="1"/>
<circle cx="890.18" cy="468.00" r="3.8" fill="#3bf2af" stroke="#111827" stroke-width="1"/>
<circle cx="899.57" cy="468.00" r="3.8" fill="#3bf2af" stroke="#111827" stroke-width="1"/>
<circle cx="905.40" cy="465.95" r="3.8" fill="#3bf2af" stroke="#111827" stroke-width="1"/>
<circle cx="908.96" cy="463.91" r="3.8" fill="#3bf2af" stroke="#111827" stroke-width="1"/>
<circle cx="917.38" cy="461.86" r="3.8" fill="#3bf2af" stroke="#111827" stroke-width="1"/>
<circle cx="924.18" cy="457.77" r="3.8" fill="#3bf2af" stroke="#111827" stroke-width="1"/>
<circle cx="946.53" cy="457.77" r="3.8" fill="#3bf2af" stroke="#111827" stroke-width="1"/>
<circle cx="951.39" cy="455.73" r="3.8" fill="#3bf2af" stroke="#111827" stroke-width="1"/>
<circle cx="961.43" cy="453.68" r="3.8" fill="#3bf2af" stroke="#111827" stroke-width="1"/>
<circle cx="983.78" cy="453.68" r="3.8" fill="#3bf2af" stroke="#111827" stroke-width="1"/>
<circle cx="991.23" cy="453.68" r="3.8" fill="#3bf2af" stroke="#111827" stroke-width="1"/>
<circle cx="995.11" cy="451.64" r="3.8" fill="#3bf2af" stroke="#111827" stroke-width="1"/>
<circle cx="1011.31" cy="451.64" r="3.8" fill="#3bf2af" stroke="#111827" stroke-width="1"/>
<circle cx="1022.32" cy="451.64" r="3.8" fill="#3bf2af" stroke="#111827" stroke-width="1"/>
<circle cx="1028.88" cy="451.64" r="3.8" fill="#3bf2af" stroke="#111827" stroke-width="1"/>
<circle cx="1030.81" cy="451.64" r="3.8" fill="#3bf2af" stroke="#111827" stroke-width="1"/>
<circle cx="1036.00" cy="451.64" r="3.8" fill="#3bf2af" stroke="#111827" stroke-width="1"/>
<text x="1028.00" y="441.64" text-anchor="end" fill="#3bf2af" font-size="12" font-family="-apple-system,BlinkMacSystemFont,Segoe UI,Helvetica,Arial,sans-serif">8</text>
<polyline fill="none" stroke="url(#repo-1)" stroke-width="4" stroke-linecap="round" stroke-linejoin="round" points="90.00,468.00 91.81,468.00 92.46,468.00 96.02,468.00 99.59,468.00 136.51,468.00 137.48,465.95 143.31,463.91 149.14,463.91 153.67,461.86 157.24,461.86 157.88,461.86 158.21,461.86 158.53,461.86 160.15,461.86 160.80,461.86 165.01,459.82 165.33,459.82 169.22,459.82 170.19,459.82 170.52,459.82 172.13,459.82 173.75,459.82 175.70,459.82 176.67,459.82 181.85,459.82 184.44,459.82 186.06,459.82 186.39,459.82 191.57,459.82 191.89,459.82 192.54,457.77 195.78,457.77 196.43,457.77 196.75,455.73 197.07,453.68 202.90,453.68 204.52,451.64 210.68,451.64 211.97,451.64 212.62,449.59 215.21,447.55 218.13,447.55 222.01,445.50 222.34,445.50 224.60,445.50 226.87,445.50 230.11,445.50 231.08,445.50 233.35,445.50 235.62,445.50 237.56,445.50 237.88,445.50 238.21,445.50 240.80,445.50 241.45,445.50 242.09,445.50 242.42,443.45 242.74,441.41 243.06,441.41 245.66,441.41 246.30,441.41 248.89,439.36 254.40,439.36 255.05,437.32 255.37,437.32 255.70,437.32 256.34,433.23 257.64,433.23 257.96,433.23 259.91,433.23 260.23,433.23 262.50,433.23 263.47,433.23 264.12,433.23 265.09,431.18 266.71,431.18 267.03,429.14 268.00,429.14 270.92,429.14 274.48,429.14 275.45,429.14 276.42,429.14 276.75,429.14 278.04,429.14 278.37,429.14 279.02,429.14 279.99,429.14 281.61,429.14 282.25,429.14 282.58,429.14 282.90,429.14 284.52,429.14 285.49,429.14 286.14,429.14 287.44,427.09 287.76,425.05 289.38,425.05 292.94,425.05 294.89,425.05 296.50,423.00 296.83,423.00 299.10,423.00 300.72,423.00 301.04,420.95 302.98,420.95 303.31,420.95 303.95,418.91 304.93,416.86 305.25,416.86 305.57,416.86 305.90,416.86 310.43,414.82 314.32,414.82 314.64,414.82 315.29,414.82 316.59,414.82 316.91,414.82 318.53,412.77 319.18,410.73 319.50,410.73 319.82,410.73 320.15,410.73 321.77,410.73 325.01,408.68 326.30,408.68 326.63,406.64 327.27,406.64 327.60,404.59 328.24,402.55 328.89,402.55 329.54,400.50 330.84,398.45 331.48,398.45 333.43,398.45 333.75,398.45 335.05,398.45 336.99,398.45 338.29,398.45 339.58,396.41 339.90,396.41 340.55,396.41 341.52,396.41 342.50,396.41 344.12,396.41 345.73,396.41 347.35,396.41 350.27,394.36 352.86,394.36 353.18,394.36 353.51,394.36 358.37,394.36 359.34,394.36 360.31,394.36 360.63,394.36 361.60,394.36 363.87,394.36 364.20,394.36 365.82,394.36 367.76,392.32 371.00,392.32 371.97,392.32 372.94,392.32 374.24,392.32 374.88,392.32 375.21,392.32 375.86,390.27 377.47,390.27 378.77,390.27 382.98,388.23 384.60,388.23 385.57,388.23 388.49,386.18 389.13,384.14 389.46,384.14 389.78,384.14 391.40,384.14 392.37,384.14 393.67,384.14 393.99,384.14 394.64,384.14 396.91,384.14 397.23,384.14 397.88,384.14 400.15,384.14 400.79,384.14 402.09,384.14 403.06,382.09 403.39,382.09 403.71,382.09 407.60,382.09 408.24,382.09 409.54,382.09 409.86,382.09 411.16,382.09 412.45,382.09 412.78,382.09 413.10,382.09 414.72,382.09 415.37,382.09 416.99,380.05 418.28,378.00 419.26,378.00 421.20,378.00 422.49,378.00 424.11,378.00 424.44,378.00 425.09,378.00 425.73,378.00 426.38,378.00 426.70,375.95 427.68,373.91 428.00,373.91 428.32,373.91 428.65,371.86 430.27,371.86 430.91,369.82 432.21,369.82 432.86,369.82 433.83,369.82 434.48,369.82 435.45,369.82 436.74,369.82 438.04,367.77 439.34,365.73 439.66,365.73 441.28,365.73 441.60,365.73 442.25,365.73 442.57,365.73 443.22,365.73 443.55,365.73 445.17,365.73 446.46,365.73 448.08,363.68 452.61,363.68 452.94,363.68 453.26,361.64 453.59,361.64 454.56,357.55 454.88,357.55 455.21,357.55 455.53,357.55 456.83,355.50 457.47,355.50 457.80,355.50 458.77,353.45 459.09,351.41 459.74,351.41 461.68,351.41 462.01,351.41 462.33,351.41 463.63,351.41 465.89,351.41 466.22,351.41 466.87,351.41 469.13,351.41 470.75,351.41 472.37,349.36 475.29,347.32 476.58,347.32 476.91,347.32 477.23,345.27 477.88,345.27 478.20,343.23 478.53,343.23 479.50,343.23 479.82,343.23 480.79,343.23 482.41,343.23 482.74,339.14 483.06,339.14 483.38,339.14 483.71,339.14 484.03,339.14 484.36,339.14 485.00,339.14 485.33,339.14 485.65,335.05 486.62,335.05 487.27,335.05 487.92,335.05 489.21,335.05 490.51,335.05 490.83,335.05 491.16,333.00 491.48,330.95 493.10,330.95 494.40,330.95 494.72,330.95 496.01,330.95 496.34,330.95 496.66,328.91 499.90,328.91 500.23,328.91 500.87,328.91 502.49,328.91 503.14,328.91 503.79,328.91 505.08,326.86 505.73,326.86 506.06,324.82 506.38,324.82 506.70,322.77 508.00,322.77 508.32,322.77 508.97,322.77 509.29,322.77 510.27,322.77 510.59,322.77 511.89,322.77 514.80,322.77 515.77,322.77 516.74,322.77 517.07,320.73 517.39,320.73 517.71,318.68 518.04,318.68 518.69,318.68 520.95,316.64 522.25,316.64 522.57,316.64 522.90,316.64 523.87,316.64 525.16,314.59 526.46,314.59 528.08,314.59 528.40,314.59 531.97,314.59 533.59,314.59 534.23,314.59 534.88,314.59 537.47,314.59 538.12,314.59 538.44,314.59 539.41,314.59 540.06,314.59 540.71,312.55 541.36,312.55 542.01,312.55 543.30,312.55 543.63,312.55 543.95,312.55 545.57,310.50 546.22,310.50 546.54,310.50 547.51,310.50 548.16,310.50 548.81,310.50 550.43,310.50 550.75,308.45 551.07,308.45 552.05,308.45 552.69,306.41 553.34,306.41 554.96,306.41 557.88,306.41 558.20,306.41 559.50,306.41 559.82,306.41 561.11,306.41 561.44,306.41 561.76,304.36 562.41,304.36 563.38,304.36 563.71,304.36 564.03,304.36 564.68,304.36 565.97,304.36 566.94,302.32 567.27,302.32 571.48,302.32 571.80,302.32 572.77,302.32 573.42,302.32 575.69,302.32 576.66,300.27 576.98,300.27 577.31,300.27 579.90,300.27 580.22,300.27 580.55,300.27 581.52,300.27 581.84,300.27 582.49,300.27 584.76,300.27 585.41,300.27 586.05,296.18 587.03,296.18 587.35,296.18 588.32,296.18 593.83,296.18 595.12,296.18 595.45,296.18 597.07,296.18 597.71,294.14 598.04,294.14 598.36,292.09 598.68,292.09 599.66,290.05 600.63,290.05 600.95,290.05 602.90,290.05 603.22,290.05 603.87,290.05 604.84,290.05 605.49,290.05 605.81,290.05 607.11,290.05 607.75,288.00 608.40,288.00 609.37,288.00 609.70,288.00 613.91,288.00 614.88,285.95 615.85,285.95 616.17,285.95 617.79,285.95 618.12,285.95 618.44,285.95 618.77,285.95 620.06,285.95 621.03,285.95 623.30,285.95 624.27,285.95 624.60,285.95 625.24,283.91 625.89,283.91 627.83,283.91 628.16,283.91 631.40,283.91 631.72,283.91 632.69,283.91 633.02,283.91 633.99,283.91 634.31,279.82 634.64,279.82 636.26,279.82 636.58,279.82 637.55,279.82 639.17,279.82 640.47,279.82 641.44,277.77 645.00,275.73 645.32,273.68 647.27,271.64 647.91,271.64 648.56,269.59 649.86,267.55 650.18,265.50 652.77,265.50 655.69,265.50 656.34,265.50 656.66,263.45 656.98,263.45 659.90,261.41 661.19,259.36 661.52,259.36 661.84,259.36 662.49,257.32 663.78,257.32 664.11,257.32 664.76,257.32 666.05,257.32 667.67,257.32 668.00,255.27 668.64,255.27 668.97,255.27 669.29,253.23 669.61,253.23 669.94,253.23 670.59,253.23 674.47,253.23 676.74,251.18 679.01,249.14 679.98,247.09 680.30,245.05 680.63,245.05 681.60,243.00 681.92,243.00 684.19,240.95 684.51,240.95 685.81,238.91 686.13,238.91 686.46,238.91 687.75,238.91 688.72,236.86 690.02,236.86 690.99,234.82 691.31,232.77 693.26,232.77 693.91,232.77 694.88,232.77 695.20,232.77 695.85,232.77 697.79,230.73 698.44,228.68 699.09,228.68 699.41,228.68 700.06,228.68 700.38,228.68 701.35,228.68 701.68,228.68 702.33,228.68 703.62,228.68 703.95,228.68 704.59,228.68 705.24,228.68 706.54,228.68 706.86,226.64 708.16,226.64 709.45,226.64 711.07,224.59 712.04,224.59 712.37,224.59 713.99,222.55 714.31,222.55 715.61,222.55 716.58,222.55 717.23,220.50 718.20,220.50 719.49,220.50 719.82,220.50 720.46,220.50 723.05,220.50 725.00,218.45 727.27,218.45 730.83,218.45 731.15,216.41 731.48,216.41 733.42,216.41 734.07,216.41 734.39,216.41 734.71,214.36 735.69,214.36 736.01,212.32 736.66,212.32 739.25,212.32 740.87,212.32 741.52,210.27 743.14,208.23 744.43,208.23 747.35,206.18 748.64,204.14 750.58,204.14 756.41,202.09 758.68,200.05 759.33,200.05 762.24,200.05 762.89,200.05 763.54,200.05 765.48,200.05 766.13,200.05 766.78,200.05 767.10,198.00 767.43,198.00 770.02,198.00 772.93,198.00 774.55,198.00 776.50,198.00 779.41,195.95 782.00,195.95 783.30,195.95 783.94,195.95 785.24,195.95 786.86,195.95 787.51,195.95 788.15,195.95 790.10,195.95 791.39,195.95 791.72,195.95 794.63,193.91 794.96,193.91 795.28,191.86 795.93,191.86 796.90,189.82 798.20,189.82 800.14,189.82 800.46,189.82 801.43,187.77 803.70,185.73 805.97,185.73 807.91,185.73 810.50,185.73 811.15,185.73 811.47,185.73 812.45,183.68 812.77,183.68 813.09,183.68 813.74,183.68 815.04,181.64 817.30,181.64 817.63,179.59 818.60,179.59 820.54,179.59 822.16,179.59 822.49,179.59 823.78,179.59 824.75,179.59 825.08,177.55 826.37,177.55 827.02,175.50 828.64,175.50 828.96,173.45 829.29,173.45 831.23,173.45 832.20,173.45 832.53,173.45 834.47,171.41 835.77,171.41 836.09,171.41 836.41,169.36 838.68,169.36 840.30,169.36 844.19,169.36 844.51,169.36 846.45,169.36 849.37,169.36 852.61,169.36 854.55,169.36 854.87,169.36 855.20,169.36 855.85,169.36 858.44,169.36 860.70,169.36 863.94,169.36 864.27,167.32 867.18,167.32 868.15,167.32 869.45,167.32 879.49,167.32 880.78,167.32 881.11,167.32 884.35,167.32 885.97,167.32 888.23,167.32 888.88,165.27 889.21,165.27 891.15,165.27 892.44,165.27 893.09,165.27 893.42,165.27 893.74,165.27 894.71,165.27 896.33,165.27 896.65,163.23 898.27,163.23 900.54,163.23 902.81,163.23 903.46,163.23 907.02,163.23 907.34,163.23 908.96,163.23 910.58,163.23 913.50,163.23 914.79,163.23 917.06,159.14 917.38,159.14 918.03,157.09 919.65,157.09 919.97,157.09 920.62,157.09 921.59,157.09 921.92,157.09 922.24,157.09 922.57,157.09 923.86,157.09 924.18,155.05 926.13,155.05 926.45,155.05 928.07,155.05 928.39,155.05 929.04,155.05 929.69,153.00 930.66,153.00 933.90,153.00 939.73,153.00 941.03,153.00 942.65,150.95 943.94,150.95 945.24,150.95 946.21,150.95 947.18,150.95 949.45,148.91 951.07,148.91 951.71,146.86 953.98,144.82 954.31,142.77 954.63,142.77 958.19,142.77 960.14,142.77 960.46,140.73 963.37,140.73 968.23,140.73 969.53,138.68 969.85,138.68 970.82,138.68 974.71,138.68 979.24,138.68 979.57,136.64 983.78,136.64 986.37,136.64 999.00,136.64 1001.92,136.64 1002.89,136.64 1004.51,136.64 1004.83,136.64 1010.66,136.64 1013.25,136.64 1018.43,136.64 1020.05,136.64 1022.32,136.64 1028.88,124.36 1031.79,124.36 1032.11,124.36 1032.77,124.36 1033.08,124.36 1034.06,124.36 1034.38,124.36 1035.68,124.36 1036.00,124.36"/>
<circle cx="90.00" cy="468.00" r="3.8" fill="#ffb50c" stroke="#111827" stroke-width="1"/>
<circle cx="191.89" cy="459.82" r="3.8" fill="#ffb50c" stroke="#111827" stroke-width="1"/>
<circle cx="245.66" cy="441.41" r="3.8" fill="#ffb50c" stroke="#111827" stroke-width="1"/>
<circle cx="282.58" cy="429.14" r="3.8" fill="#ffb50c" stroke="#111827" stroke-width="1"/>
<circle cx="319.50" cy="410.73" r="3.8" fill="#ffb50c" stroke="#111827" stroke-width="1"/>
<circle cx="353.51" cy="394.36" r="3.8" fill="#ffb50c" stroke="#111827" stroke-width="1"/>
<circle cx="394.64" cy="384.14" r="3.8" fill="#ffb50c" stroke="#111827" stroke-width="1"/>
<circle cx="426.70" cy="375.95" r="3.8" fill="#ffb50c" stroke="#111827" stroke-width="1"/>
<circle cx="454.88" cy="357.55" r="3.8" fill="#ffb50c" stroke="#111827" stroke-width="1"/>
<circle cx="482.74" cy="339.14" r="3.8" fill="#ffb50c" stroke="#111827" stroke-width="1"/>
<circle cx="505.73" cy="326.86" r="3.8" fill="#ffb50c" stroke="#111827" stroke-width="1"/>
<circle cx="534.23" cy="314.59" r="3.8" fill="#ffb50c" stroke="#111827" stroke-width="1"/>
<circle cx="561.11" cy="306.41" r="3.8" fill="#ffb50c" stroke="#111827" stroke-width="1"/>
<circle cx="588.32" cy="296.18" r="3.8" fill="#ffb50c" stroke="#111827" stroke-width="1"/>
<circle cx="618.77" cy="285.95" r="3.8" fill="#ffb50c" stroke="#111827" stroke-width="1"/>
<circle cx="652.77" cy="265.50" r="3.8" fill="#ffb50c" stroke="#111827" stroke-width="1"/>
<circle cx="684.19" cy="240.95" r="3.8" fill="#ffb50c" stroke="#111827" stroke-width="1"/>
<circle cx="708.16" cy="226.64" r="3.8" fill="#ffb50c" stroke="#111827" stroke-width="1"/>
<circle cx="743.14" cy="208.23" r="3.8" fill="#ffb50c" stroke="#111827" stroke-width="1"/>
<circle cx="791.72" cy="195.95" r="3.8" fill="#ffb50c" stroke="#111827" stroke-width="1"/>
<circle cx="826.37" cy="177.55" r="3.8" fill="#ffb50c" stroke="#111827" stroke-width="1"/>
<circle cx="879.49" cy="167.32" r="3.8" fill="#ffb50c" stroke="#111827" stroke-width="1"/>
<circle cx="919.97" cy="157.09" r="3.8" fill="#ffb50c" stroke="#111827" stroke-width="1"/>
<circle cx="960.14" cy="142.77" r="3.8" fill="#ffb50c" stroke="#111827" stroke-width="1"/>
<circle cx="1036.00" cy="124.36" r="3.8" fill="#ffb50c" stroke="#111827" stroke-width="1"/>
<text x="1028.00" y="114.36" text-anchor="end" fill="#ffb50c" font-size="12" font-family="-apple-system,BlinkMacSystemFont,Segoe UI,Helvetica,Arial,sans-serif">168</text>
<rect x="90.00" y="514.00" width="14" height="14" fill="url(#repo-0)" rx="3"/>
<text x="112.00" y="526.00" fill="#3bf2af" font-size="13" font-family="-apple-system,BlinkMacSystemFont,Segoe UI,Helvetica,Arial,sans-serif">bavix/gripmock</text>
<rect x="280.00" y="514.00" width="14" height="14" fill="url(#repo-1)" rx="3"/>
<text x="302.00" y="526.00" fill="#ffb50c" font-size="13" font-family="-apple-system,BlinkMacSystemFont,Segoe UI,Helvetica,Arial,sans-serif">tokopedia/gripmock</text>
<text x="1036.00" y="526.00" text-anchor="end" fill="#9ca3af" font-size="12" font-family="-apple-system,BlinkMacSystemFont,Segoe UI,Helvetica,Arial,sans-serif">Source: https://github.com/bavix/artifact-stats/blob/master/stats/github.csv</text>
</svg>