<svg xmlns="http://www.w3.org/2000/svg" width="1100" height="560" viewBox="0 0 1100 560">
<defs>
<linearGradient id="bg" x1="0" y1="0" x2="1" y2="1"><stop offset="0%" stop-color="#0b1220"/><stop offset="100%" stop-color="#111827"/></linearGradient>
<linearGradient id="repo-0" x1="0" y1="0" x2="0" y2="1"><stop offset="0%" stop-color="#34d399"/><stop offset="100%" stop-color="#059669"/></linearGradient>
<linearGradient id="repo-1" x1="0" y1="0" x2="0" y2="1"><stop offset="0%" stop-color="#f59e0b"/><stop offset="100%" stop-color="#d97706"/></linearGradient>
</defs>
<rect x="0" y="0" width="1100" height="560" fill="url(#bg)" rx="16"/>
<text x="90" y="44" fill="#f9fafb" font-size="28" font-family="-apple-system,BlinkMacSystemFont,Segoe UI,Helvetica,Arial,sans-serif" font-weight="700">GripMock GitHub Metrics - Forks</text>
<text x="90" y="70" fill="#9ca3af" font-size="16" font-family="-apple-system,BlinkMacSystemFont,Segoe UI,Helvetica,Arial,sans-serif">GitHub forks by snapshot date</text>
<line x1="90" y1="90.00" x2="1036" y2="90.00" stroke="#1f2937" stroke-width="1"/>
<text x="80" y="95.00" text-anchor="end" fill="#9ca3af" font-size="12" font-family="-apple-system,BlinkMacSystemFont,Segoe UI,Helvetica,Arial,sans-serif">185</text>
<line x1="90" y1="153.00" x2="1036" y2="153.00" stroke="#1f2937" stroke-width="1"/>
<text x="80" y="158.00" text-anchor="end" fill="#9ca3af" font-size="12" font-family="-apple-system,BlinkMacSystemFont,Segoe UI,Helvetica,Arial,sans-serif">154</text>
<line x1="90" y1="216.00" x2="1036" y2="216.00" stroke="#1f2937" stroke-width="1"/>
<text x="80" y="221.00" text-anchor="end" fill="#9ca3af" font-size="12" font-family="-apple-system,BlinkMacSystemFont,Segoe UI,Helvetica,Arial,sans-serif">123</text>
<line x1="90" y1="279.00" x2="1036" y2="279.00" stroke="#1f2937" stroke-width="1"/>
<text x="80" y="284.00" text-anchor="end" fill="#9ca3af" font-size="12" font-family="-apple-system,BlinkMacSystemFont,Segoe UI,Helvetica,Arial,sans-serif">92</text>
<line x1="90" y1="342.00" x2="1036" y2="342.00" stroke="#1f2937" stroke-width="1"/>
<text x="80" y="347.00" text-anchor="end" fill="#9ca3af" font-size="12" font-family="-apple-system,BlinkMacSystemFont,Segoe UI,Helvetica,Arial,sans-serif">62</text>
<line x1="90" y1="405.00" x2="1036" y2="405.00" stroke="#1f2937" stroke-width="1"/>
<text x="80" y="410.00" text-anchor="end" fill="#9ca3af" font-size="12" font-family="-apple-system,BlinkMacSystemFont,Segoe UI,Helvetica,Arial,sans-serif">31</text>
<line x1="90" y1="468.00" x2="1036" y2="468.00" stroke="#1f2937" stroke-width="1"/>
<text x="80" y="473.00" text-anchor="end" fill="#9ca3af" font-size="12" font-family="-apple-system,BlinkMacSystemFont,Segoe UI,Helvetica,Arial,sans-serif">0</text>
<line x1="90" y1="468" x2="1036" y2="468" stroke="#4b5563" stroke-width="1.4"/>
<line x1="90" y1="90" x2="90" y2="468" stroke="#4b5563" stroke-width="1.4"/>
<line x1="90.00" y1="468" x2="90.00" y2="474" stroke="#6b7280" stroke-width="1"/>
<text x="90.00" y="494" text-anchor="start" fill="#9ca3af" font-size="12" font-family="-apple-system,BlinkMacSystemFont,Segoe UI,Helvetica,Arial,sans-serif">2018-04-24</text>
<line x1="279.20" y1="468" x2="279.20" y2="474" stroke="#6b7280" stroke-width="1"/>
<text x="279.20" y="494" text-anchor="middle" fill="#9ca3af" font-size="12" font-family="-apple-system,BlinkMacSystemFont,Segoe UI,Helvetica,Arial,sans-serif">2019-12-17</text>
<line x1="468.40" y1="468" x2="468.40" y2="474" stroke="#6b7280" stroke-width="1"/>
<text x="468.40" y="494" text-anchor="middle" fill="#9ca3af" font-size="12" font-family="-apple-system,BlinkMacSystemFont,Segoe UI,Helvetica,Arial,sans-serif">2021-08-11</text>
<line x1="657.60" y1="468" x2="657.60" y2="474" stroke="#6b7280" stroke-width="1"/>
<text x="657.60" y="494" text-anchor="middle" fill="#9ca3af" font-size="12" font-family="-apple-system,BlinkMacSystemFont,Segoe UI,Helvetica,Arial,sans-serif">2023-04-05</text>
<line x1="846.80" y1="468" x2="846.80" y2="474" stroke="#6b7280" stroke-width="1"/>
<text x="846.80" y="494" text-anchor="middle" fill="#9ca3af" font-size="12" font-family="-apple-system,BlinkMacSystemFont,Segoe UI,Helvetica,Arial,sans-serif">2024-11-27</text>
<line x1="1036.00" y1="468" x2="1036.00" y2="474" stroke="#6b7280" stroke-width="1"/>
<text x="1036.00" y="494" text-anchor="end" fill="#9ca3af" font-size="12" font-family="-apple-system,BlinkMacSystemFont,Segoe UI,Helvetica,Arial,sans-serif">2026-07-23</text>
<polyline fill="none" stroke="url(#repo-0)" stroke-width="4" stroke-linecap="round" stroke-linejoin="round" points="699.34,468.00 705.81,468.00 718.37,468.00 731.56,468.00 733.45,468.00 736.59,468.00 747.90,468.00 750.09,468.00 755.43,468.00 755.75,468.00 760.46,468.00 768.00,468.00 779.93,468.00 783.07,468.00 787.16,468.00 790.61,468.00 805.06,468.00 809.46,468.00 810.09,468.00 811.34,468.00 817.31,468.00 830.50,468.00 833.33,468.00 839.92,468.00 845.26,468.00 845.89,468.00 846.52,468.00 865.99,468.00 868.51,468.00 869.14,468.00 875.10,468.00 875.73,468.00 879.50,465.95 880.76,465.95 881.07,465.95 881.39,465.95 884.21,463.91 885.78,463.91 887.35,463.91 892.38,461.86 896.78,459.82 898.35,459.82 898.97,457.77 905.57,457.77 909.34,457.77 920.65,457.77 922.85,457.77 923.47,455.73 925.36,455.73 927.24,455.73 930.07,453.68 935.09,453.68 941.69,453.68 945.77,453.68 956.77,453.68 958.97,453.68 963.68,453.68 963.99,453.68 964.93,453.68 967.45,453.68 967.76,451.64 976.24,451.64 982.84,451.64 983.47,451.64 985.66,451.64 991.95,451.64 994.14,451.64 995.71,451.64 997.29,451.64 1000.50,451.64 1001.44,451.64 1001.75,451.64 1002.38,451.64 1002.70,451.64 1003.01,451.64 1007.41,451.64 1007.73,451.64 1008.04,451.64 1011.82,451.64 1012.12,449.59 1013.70,449.59 1014.02,449.59 1014.33,449.59 1015.28,449.59 1015.59,447.55 1019.70,447.55 1020.01,447.55 1020.33,447.55 1020.63,447.55 1021.89,447.55 1022.19,447.55 1023.45,447.55 1023.77,447.55 1029.41,447.55 1029.73,447.55 1030.04,447.55 1036.00,447.55"/>
<circle cx="699.34" cy="468.00" r="3.8" fill="#3bf2af" stroke="#111827" stroke-width="1"/>
<circle cx="733.45" cy="468.00" r="3.8" fill="#3bf2af" stroke="#111827" stroke-width="1"/>
<circle cx="755.43" cy="468.00" r="3.8" fill="#3bf2af" stroke="#111827" stroke-width="1"/>
<circle cx="779.93" cy="468.00" r="3.8" fill="#3bf2af" stroke="#111827" stroke-width="1"/>
<circle cx="805.06" cy="468.00" r="3.8" fill="#3bf2af" stroke="#111827" stroke-width="1"/>
<circle cx="817.31" cy="468.00" r="3.8" fill="#3bf2af" stroke="#111827" stroke-width="1"/>
<circle cx="845.26" cy="468.00" r="3.8" fill="#3bf2af" stroke="#111827" stroke-width="1"/>
<circle cx="868.51" cy="468.00" r="3.8" fill="#3bf2af" stroke="#111827" stroke-width="1"/>
<circle cx="879.50" cy="465.95" r="3.8" fill="#3bf2af" stroke="#111827" stroke-width="1"/>
<circle cx="884.21" cy="463.91" r="3.8" fill="#3bf2af" stroke="#111827" stroke-width="1"/>
<circle cx="896.78" cy="459.82" r="3.8" fill="#3bf2af" stroke="#111827" stroke-width="1"/>
<circle cx="909.34" cy="457.77" r="3.8" fill="#3bf2af" stroke="#111827" stroke-width="1"/>
<circle cx="925.36" cy="455.73" r="3.8" fill="#3bf2af" stroke="#111827" stroke-width="1"/>
<circle cx="941.69" cy="453.68" r="3.8" fill="#3bf2af" stroke="#111827" stroke-width="1"/>
<circle cx="963.68" cy="453.68" r="3.8" fill="#3bf2af" stroke="#111827" stroke-width="1"/>
<circle cx="967.76" cy="451.64" r="3.8" fill="#3bf2af" stroke="#111827" stroke-width="1"/>
<circle cx="985.66" cy="451.64" r="3.8" fill="#3bf2af" stroke="#111827" stroke-width="1"/>
<circle cx="997.29" cy="451.64" r="3.8" fill="#3bf2af" stroke="#111827" stroke-width="1"/>
<circle cx="1002.38" cy="451.64" r="3.8" fill="#3bf2af" stroke="#111827" stroke-width="1"/>
<circle cx="1007.73" cy="451.64" r="3.8" fill="#3bf2af" stroke="#111827" stroke-width="1"/>
<circle cx="1013.70" cy="449.59" r="3.8" fill="#3bf2af" stroke="#111827" stroke-width="1"/>
<circle cx="1015.59" cy="447.55" r="3.8" fill="#3bf2af" stroke="#111827" stroke-width="1"/>
<circle cx="1020.63" cy="447.55" r="3.8" fill="#3bf2af" stroke="#111827" stroke-width="1"/>
<circle cx="1023.77" cy="447.55" r="3.8" fill="#3bf2af" stroke="#111827" stroke-width="1"/>
<circle cx="1036.00" cy="447.55" r="3.8" fill="#3bf2af" stroke="#111827" stroke-width="1"/>
<text x="1028.00" y="437.55" text-anchor="end" fill="#3bf2af" font-size="12" font-family="-apple-system,BlinkMacSystemFont,Segoe UI,Helvetica,Arial,sans-serif">10</text>
<polyline fill="none" stroke="url(#repo-1)" stroke-width="4" stroke-linecap="round" stroke-linejoin="round" points="90.00,468.00 91.76,468.00 92.39,468.00 95.84,468.00 99.30,468.00 135.10,468.00 136.04,465.95 141.70,463.91 147.35,463.91 151.75,461.86 155.20,461.86 155.83,461.86 156.15,461.86 156.46,461.86 158.03,461.86 158.66,461.86 162.74,459.82 163.06,459.82 166.83,459.82 167.77,459.82 168.08,459.82 169.65,459.82 171.22,459.82 173.11,459.82 174.05,459.82 179.08,459.82 181.59,459.82 183.16,459.82 183.47,459.82 188.50,459.82 188.81,459.82 189.44,457.77 192.58,457.77 193.21,457.77 193.52,455.73 193.84,453.68 199.49,453.68 201.06,451.64 207.03,451.64 208.29,451.64 208.91,449.59 211.43,447.55 214.25,447.55 218.02,445.50 218.34,445.50 220.54,445.50 222.73,445.50 225.87,445.50 226.82,445.50 229.02,445.50 231.21,445.50 233.10,445.50 233.41,445.50 233.73,445.50 236.24,445.50 236.87,445.50 237.50,445.50 237.81,443.45 238.12,441.41 238.44,441.41 240.95,441.41 241.58,441.41 244.09,439.36 249.43,439.36 250.06,437.32 250.37,437.32 250.69,437.32 251.32,433.23 252.57,433.23 252.89,433.23 254.77,433.23 255.09,433.23 257.28,433.23 258.23,433.23 258.85,433.23 259.80,431.18 261.37,431.18 261.68,429.14 262.62,429.14 265.45,429.14 268.91,429.14 269.85,429.14 270.79,429.14 271.10,429.14 272.36,429.14 272.67,429.14 273.30,429.14 274.25,429.14 275.82,429.14 276.44,429.14 276.76,429.14 277.07,429.14 278.64,429.14 279.58,429.14 280.21,429.14 281.47,427.09 281.78,425.05 283.35,425.05 286.81,425.05 288.69,425.05 290.26,423.00 290.58,423.00 292.78,423.00 294.35,423.00 294.66,420.95 296.55,420.95 296.86,420.95 297.49,418.91 298.43,416.86 298.74,416.86 299.06,416.86 299.37,416.86 303.77,414.82 307.54,414.82 307.85,414.82 308.48,414.82 309.74,414.82 310.05,414.82 311.62,412.77 312.25,410.73 312.56,410.73 312.88,410.73 313.19,410.73 314.76,410.73 317.90,408.68 319.16,408.68 319.47,406.64 320.10,406.64 320.42,404.59 321.04,402.55 321.67,402.55 322.30,400.50 323.56,398.45 324.19,398.45 326.07,398.45 326.38,398.45 327.64,398.45 329.53,398.45 330.78,398.45 332.04,396.41 332.35,396.41 332.98,396.41 333.92,396.41 334.86,396.41 336.44,396.41 338.01,396.41 339.58,396.41 342.40,394.36 344.92,394.36 345.23,394.36 345.54,394.36 350.26,394.36 351.20,394.36 352.14,394.36 352.45,394.36 353.40,394.36 355.59,394.36 355.91,394.36 357.48,394.36 359.36,392.32 362.51,392.32 363.45,392.32 364.39,392.32 365.65,392.32 366.27,392.32 366.59,392.32 367.22,390.27 368.79,390.27 370.04,390.27 374.13,388.23 375.70,388.23 376.64,388.23 379.47,386.18 380.09,384.14 380.41,384.14 380.72,384.14 382.29,384.14 383.24,384.14 384.49,384.14 384.81,384.14 385.43,384.14 387.63,384.14 387.95,384.14 388.57,384.14 390.77,384.14 391.40,384.14 392.66,384.14 393.60,382.09 393.91,382.09 394.23,382.09 398.00,382.09 398.63,382.09 399.88,382.09 400.20,382.09 401.45,382.09 402.71,382.09 403.02,382.09 403.34,382.09 404.91,382.09 405.54,382.09 407.11,380.05 408.36,378.00 409.30,378.00 411.19,378.00 412.45,378.00 414.02,378.00 414.33,378.00 414.96,378.00 415.59,378.00 416.21,378.00 416.53,375.95 417.47,373.91 417.79,373.91 418.10,373.91 418.41,371.86 419.98,371.86 420.61,369.82 421.87,369.82 422.50,369.82 423.44,369.82 424.07,369.82 425.01,369.82 426.27,369.82 427.52,367.77 428.78,365.73 429.09,365.73 430.66,365.73 430.98,365.73 431.61,365.73 431.92,365.73 432.55,365.73 432.86,365.73 434.43,365.73 435.69,365.73 437.26,363.68 441.66,363.68 441.97,363.68 442.28,361.64 442.60,361.64 443.54,357.55 443.85,357.55 444.17,357.55 444.48,357.55 445.74,355.50 446.37,355.50 446.68,355.50 447.62,353.45 447.94,351.41 448.57,351.41 450.45,351.41 450.76,351.41 451.08,351.41 452.34,351.41 454.53,351.41 454.85,351.41 455.48,351.41 457.67,351.41 459.25,351.41 460.82,349.36 463.64,347.32 464.90,347.32 465.21,347.32 465.53,345.27 466.16,345.27 466.47,343.23 466.78,343.23 467.73,343.23 468.04,343.23 468.98,343.23 470.55,343.23 470.87,339.14 471.18,339.14 471.49,339.14 471.81,339.14 472.12,339.14 472.44,339.14 473.07,339.14 473.38,339.14 473.69,335.05 474.64,335.05 475.26,335.05 475.89,335.05 477.15,335.05 478.40,335.05 478.72,335.05 479.03,333.00 479.35,330.95 480.92,330.95 482.17,330.95 482.49,330.95 483.74,330.95 484.06,330.95 484.37,328.91 487.51,328.91 487.83,328.91 488.46,328.91 490.03,328.91 490.65,328.91 491.28,328.91 492.54,326.86 493.17,326.86 493.48,324.82 493.80,324.82 494.11,322.77 495.37,322.77 495.68,322.77 496.31,322.77 496.62,322.77 497.56,322.77 497.88,322.77 499.14,322.77 501.96,322.77 502.90,322.77 503.85,322.77 504.16,320.73 504.47,320.73 504.79,318.68 505.10,318.68 505.73,318.68 507.93,316.64 509.19,316.64 509.50,316.64 509.81,316.64 510.76,316.64 512.01,314.59 513.27,314.59 514.84,314.59 515.15,314.59 518.61,314.59 520.18,314.59 520.81,314.59 521.44,314.59 523.95,314.59 524.58,314.59 524.89,314.59 525.83,314.59 526.46,314.59 527.09,312.55 527.72,312.55 528.35,312.55 529.60,312.55 529.92,312.55 530.23,312.55 531.80,310.50 532.43,310.50 532.74,310.50 533.69,310.50 534.31,310.50 534.94,310.50 536.51,310.50 536.83,308.45 537.14,308.45 538.08,308.45 538.71,306.41 539.34,306.41 540.91,306.41 543.74,306.41 544.05,306.41 545.31,306.41 545.62,306.41 546.88,306.41 547.19,306.41 547.51,304.36 548.13,304.36 549.08,304.36 549.39,304.36 549.70,304.36 550.33,304.36 551.59,304.36 552.53,302.32 552.84,302.32 556.93,302.32 557.24,302.32 558.18,302.32 558.81,302.32 561.01,302.32 561.95,300.27 562.27,300.27 562.58,300.27 565.09,300.27 565.41,300.27 565.72,300.27 566.66,300.27 566.98,300.27 567.61,300.27 569.81,300.27 570.43,300.27 571.06,296.18 572.00,296.18 572.32,296.18 573.26,296.18 578.60,296.18 579.86,296.18 580.17,296.18 581.74,296.18 582.37,294.14 582.68,294.14 583.00,292.09 583.31,292.09 584.25,290.05 585.20,290.05 585.51,290.05 587.39,290.05 587.71,290.05 588.34,290.05 589.28,290.05 589.91,290.05 590.22,290.05 591.48,290.05 592.11,288.00 592.73,288.00 593.68,288.00 593.99,288.00 598.07,288.00 599.02,285.95 599.96,285.95 600.27,285.95 601.84,285.95 602.16,285.95 602.47,285.95 602.79,285.95 604.04,285.95 604.98,285.95 607.18,285.95 608.13,285.95 608.44,285.95 609.07,283.91 609.70,283.91 611.58,283.91 611.89,283.91 615.04,283.91 615.35,283.91 616.29,283.91 616.61,283.91 617.55,283.91 617.86,279.82 618.18,279.82 619.75,279.82 620.06,279.82 621.00,279.82 622.57,279.82 623.83,279.82 624.77,277.77 628.23,275.73 628.54,273.68 630.43,271.64 631.05,271.64 631.68,269.59 632.94,267.55 633.25,265.50 635.77,265.50 638.59,265.50 639.22,265.50 639.53,263.45 639.85,263.45 642.68,261.41 643.93,259.36 644.25,259.36 644.56,259.36 645.19,257.32 646.44,257.32 646.76,257.32 647.39,257.32 648.64,257.32 650.21,257.32 650.53,255.27 651.16,255.27 651.47,255.27 651.78,253.23 652.10,253.23 652.41,253.23 653.04,253.23 656.81,253.23 659.01,251.18 661.21,249.14 662.15,247.09 662.46,245.05 662.78,245.05 663.72,243.00 664.03,243.00 666.23,240.95 666.55,240.95 667.80,238.91 668.12,238.91 668.43,238.91 669.69,238.91 670.63,236.86 671.89,236.86 672.83,234.82 673.14,232.77 675.03,232.77 675.65,232.77 676.60,232.77 676.91,232.77 677.54,232.77 679.42,230.73 680.05,228.68 680.68,228.68 680.99,228.68 681.62,228.68 681.94,228.68 682.88,228.68 683.19,228.68 683.82,228.68 685.08,228.68 685.39,228.68 686.02,228.68 686.65,228.68 687.90,228.68 688.22,226.64 689.47,226.64 690.73,226.64 692.30,224.59 693.24,224.59 693.56,224.59 695.13,222.55 695.44,222.55 696.70,222.55 697.64,222.55 698.27,220.50 699.21,220.50 700.47,220.50 700.78,220.50 701.41,220.50 703.92,220.50 705.81,218.45 708.01,218.45 711.46,218.45 711.78,216.41 712.09,216.41 713.97,216.41 714.60,216.41 714.92,216.41 715.23,214.36 716.17,214.36 716.49,212.32 717.11,212.32 719.63,212.32 721.20,212.32 721.83,210.27 723.40,208.23 724.65,208.23 727.48,206.18 728.74,204.14 730.62,204.14 736.27,202.09 738.47,200.05 739.10,200.05 741.93,200.05 742.56,200.05 743.18,200.05 745.07,200.05 745.70,200.05 746.33,200.05 746.64,198.00 746.95,198.00 749.47,198.00 752.29,198.00 753.86,198.00 755.75,198.00 758.58,195.95 761.09,195.95 762.34,195.95 762.97,195.95 764.23,195.95 765.80,195.95 766.43,195.95 767.06,195.95 768.94,195.95 770.20,195.95 770.51,195.95 773.34,193.91 773.65,193.91 773.97,191.86 774.59,191.86 775.54,189.82 776.79,189.82 778.68,189.82 778.99,189.82 779.93,187.77 782.13,185.73 784.33,185.73 786.22,185.73 788.73,185.73 789.36,185.73 789.67,185.73 790.61,183.68 790.93,183.68 791.24,183.68 791.87,183.68 793.13,181.64 795.32,181.64 795.64,179.59 796.58,179.59 798.46,179.59 800.04,179.59 800.35,179.59 801.61,179.59 802.55,179.59 802.86,177.55 804.12,177.55 804.75,175.50 806.32,175.50 806.63,173.45 806.95,173.45 808.83,173.45 809.77,173.45 810.09,173.45 811.97,171.41 813.23,171.41 813.54,171.41 813.86,169.36 816.05,169.36 817.62,169.36 821.39,169.36 821.71,169.36 823.59,169.36 826.42,169.36 829.56,169.36 831.44,169.36 831.76,169.36 832.07,169.36 832.70,169.36 835.21,169.36 837.41,169.36 840.55,169.36 840.87,167.32 843.69,167.32 844.64,167.32 845.89,167.32 855.63,167.32 856.89,167.32 857.20,167.32 860.34,167.32 861.91,167.32 864.11,167.32 864.74,165.27 865.05,165.27 866.94,165.27 868.19,165.27 868.82,165.27 869.14,165.27 869.45,165.27 870.39,165.27 871.96,165.27 872.28,163.23 873.85,163.23 876.05,163.23 878.24,163.23 878.87,163.23 882.33,163.23 882.64,163.23 884.21,163.23 885.78,163.23 888.61,163.23 889.87,163.23 892.06,159.14 892.38,159.14 893.01,157.09 894.58,157.09 894.89,157.09 895.52,157.09 896.46,157.09 896.78,157.09 897.09,157.09 897.40,157.09 898.66,157.09 898.97,155.05 900.86,155.05 901.17,155.05 902.74,155.05 903.06,155.05 903.69,155.05 904.31,153.00 905.26,153.00 908.40,153.00 914.05,153.00 915.31,153.00 916.88,150.95 918.13,150.95 919.39,150.95 920.33,150.95 921.27,150.95 923.47,148.91 925.04,148.91 925.67,146.86 927.87,144.82 928.18,142.77 928.50,142.77 931.95,142.77 933.84,142.77 934.15,140.73 936.98,140.73 941.69,140.73 942.95,138.68 943.26,138.68 944.20,138.68 947.97,138.68 952.37,138.68 952.68,136.64 956.77,136.64 959.28,136.64 971.53,136.64 974.36,136.64 975.30,136.64 976.87,136.64 977.18,136.64 982.84,136.64 985.35,136.64 990.38,136.64 991.95,136.64 994.14,136.64 1000.50,124.36 1003.33,124.36 1003.63,124.36 1004.27,124.36 1004.58,124.36 1005.53,124.36 1005.84,124.36 1007.10,124.36 1007.41,124.36 1011.18,124.36 1011.50,124.36 1011.82,124.36 1012.12,124.36 1012.44,124.36 1013.08,124.36 1013.39,124.36 1013.70,124.36 1014.02,124.36 1017.79,124.36 1018.12,124.36 1020.33,124.36 1020.63,124.36 1028.49,124.36 1028.79,124.36 1030.04,124.36 1030.35,124.36 1033.17,124.36 1033.48,124.36 1033.80,124.36 1036.00,124.36"/>
<circle cx="90.00" cy="468.00" r="3.8" fill="#ffb50c" stroke="#111827" stroke-width="1"/>
<circle cx="188.81" cy="459.82" r="3.8" fill="#ffb50c" stroke="#111827" stroke-width="1"/>
<circle cx="240.95" cy="441.41" r="3.8" fill="#ffb50c" stroke="#111827" stroke-width="1"/>
<circle cx="276.76" cy="429.14" r="3.8" fill="#ffb50c" stroke="#111827" stroke-width="1"/>
<circle cx="312.56" cy="410.73" r="3.8" fill="#ffb50c" stroke="#111827" stroke-width="1"/>
<circle cx="345.54" cy="394.36" r="3.8" fill="#ffb50c" stroke="#111827" stroke-width="1"/>
<circle cx="385.43" cy="384.14" r="3.8" fill="#ffb50c" stroke="#111827" stroke-width="1"/>
<circle cx="416.53" cy="375.95" r="3.8" fill="#ffb50c" stroke="#111827" stroke-width="1"/>
<circle cx="443.85" cy="357.55" r="3.8" fill="#ffb50c" stroke="#111827" stroke-width="1"/>
<circle cx="470.87" cy="339.14" r="3.8" fill="#ffb50c" stroke="#111827" stroke-width="1"/>
<circle cx="493.17" cy="326.86" r="3.8" fill="#ffb50c" stroke="#111827" stroke-width="1"/>
<circle cx="520.81" cy="314.59" r="3.8" fill="#ffb50c" stroke="#111827" stroke-width="1"/>
<circle cx="546.88" cy="306.41" r="3.8" fill="#ffb50c" stroke="#111827" stroke-width="1"/>
<circle cx="573.26" cy="296.18" r="3.8" fill="#ffb50c" stroke="#111827" stroke-width="1"/>
<circle cx="602.79" cy="285.95" r="3.8" fill="#ffb50c" stroke="#111827" stroke-width="1"/>
<circle cx="635.77" cy="265.50" r="3.8" fill="#ffb50c" stroke="#111827" stroke-width="1"/>
<circle cx="666.23" cy="240.95" r="3.8" fill="#ffb50c" stroke="#111827" stroke-width="1"/>
<circle cx="689.47" cy="226.64" r="3.8" fill="#ffb50c" stroke="#111827" stroke-width="1"/>
<circle cx="723.40" cy="208.23" r="3.8" fill="#ffb50c" stroke="#111827" stroke-width="1"/>
<circle cx="770.51" cy="195.95" r="3.8" fill="#ffb50c" stroke="#111827" stroke-width="1"/>
<circle cx="804.12" cy="177.55" r="3.8" fill="#ffb50c" stroke="#111827" stroke-width="1"/>
<circle cx="855.63" cy="167.32" r="3.8" fill="#ffb50c" stroke="#111827" stroke-width="1"/>
<circle cx="894.89" cy="157.09" r="3.8" fill="#ffb50c" stroke="#111827" stroke-width="1"/>
<circle cx="933.84" cy="142.77" r="3.8" fill="#ffb50c" stroke="#111827" stroke-width="1"/>
<circle cx="1007.41" cy="124.36" r="3.8" fill="#ffb50c" stroke="#111827" stroke-width="1"/>
<circle cx="1036.00" cy="124.36" r="3.8" fill="#ffb50c" stroke="#111827" stroke-width="1"/>
<text x="1028.00" y="114.36" text-anchor="end" fill="#ffb50c" font-size="12" font-family="-apple-system,BlinkMacSystemFont,Segoe UI,Helvetica,Arial,sans-serif">168</text>
<rect x="90.00" y="514.00" width="14" height="14" fill="url(#repo-0)" rx="3"/>
<text x="112.00" y="526.00" fill="#3bf2af" font-size="13" font-family="-apple-system,BlinkMacSystemFont,Segoe UI,Helvetica,Arial,sans-serif">bavix/gripmock</text>
<rect x="280.00" y="514.00" width="14" height="14" fill="url(#repo-1)" rx="3"/>
<text x="302.00" y="526.00" fill="#ffb50c" font-size="13" font-family="-apple-system,BlinkMacSystemFont,Segoe UI,Helvetica,Arial,sans-serif">tokopedia/gripmock</text>
<text x="1036.00" y="526.00" text-anchor="end" fill="#9ca3af" font-size="12" font-family="-apple-system,BlinkMacSystemFont,Segoe UI,Helvetica,Arial,sans-serif">Source: https://github.com/bavix/artifact-stats/blob/master/stats/github.csv</text>
</svg>