<svg xmlns="http://www.w3.org/2000/svg" width="1100" height="560" viewBox="0 0 1100 560">
<defs>
<linearGradient id="bg" x1="0" y1="0" x2="1" y2="1"><stop offset="0%" stop-color="#0b1220"/><stop offset="100%" stop-color="#111827"/></linearGradient>
<linearGradient id="repo-0" x1="0" y1="0" x2="0" y2="1"><stop offset="0%" stop-color="#34d399"/><stop offset="100%" stop-color="#059669"/></linearGradient>
<linearGradient id="repo-1" x1="0" y1="0" x2="0" y2="1"><stop offset="0%" stop-color="#f59e0b"/><stop offset="100%" stop-color="#d97706"/></linearGradient>
</defs>
<rect x="0" y="0" width="1100" height="560" fill="url(#bg)" rx="16"/>
<text x="90" y="44" fill="#f9fafb" font-size="28" font-family="-apple-system,BlinkMacSystemFont,Segoe UI,Helvetica,Arial,sans-serif" font-weight="700">GripMock GitHub Metrics - Forks</text>
<text x="90" y="70" fill="#9ca3af" font-size="16" font-family="-apple-system,BlinkMacSystemFont,Segoe UI,Helvetica,Arial,sans-serif">GitHub forks by snapshot date</text>
<line x1="90" y1="90.00" x2="1036" y2="90.00" stroke="#1f2937" stroke-width="1"/>
<text x="80" y="95.00" text-anchor="end" fill="#9ca3af" font-size="12" font-family="-apple-system,BlinkMacSystemFont,Segoe UI,Helvetica,Arial,sans-serif">185</text>
<line x1="90" y1="153.00" x2="1036" y2="153.00" stroke="#1f2937" stroke-width="1"/>
<text x="80" y="158.00" text-anchor="end" fill="#9ca3af" font-size="12" font-family="-apple-system,BlinkMacSystemFont,Segoe UI,Helvetica,Arial,sans-serif">154</text>
<line x1="90" y1="216.00" x2="1036" y2="216.00" stroke="#1f2937" stroke-width="1"/>
<text x="80" y="221.00" text-anchor="end" fill="#9ca3af" font-size="12" font-family="-apple-system,BlinkMacSystemFont,Segoe UI,Helvetica,Arial,sans-serif">123</text>
<line x1="90" y1="279.00" x2="1036" y2="279.00" stroke="#1f2937" stroke-width="1"/>
<text x="80" y="284.00" text-anchor="end" fill="#9ca3af" font-size="12" font-family="-apple-system,BlinkMacSystemFont,Segoe UI,Helvetica,Arial,sans-serif">92</text>
<line x1="90" y1="342.00" x2="1036" y2="342.00" stroke="#1f2937" stroke-width="1"/>
<text x="80" y="347.00" text-anchor="end" fill="#9ca3af" font-size="12" font-family="-apple-system,BlinkMacSystemFont,Segoe UI,Helvetica,Arial,sans-serif">62</text>
<line x1="90" y1="405.00" x2="1036" y2="405.00" stroke="#1f2937" stroke-width="1"/>
<text x="80" y="410.00" text-anchor="end" fill="#9ca3af" font-size="12" font-family="-apple-system,BlinkMacSystemFont,Segoe UI,Helvetica,Arial,sans-serif">31</text>
<line x1="90" y1="468.00" x2="1036" y2="468.00" stroke="#1f2937" stroke-width="1"/>
<text x="80" y="473.00" text-anchor="end" fill="#9ca3af" font-size="12" font-family="-apple-system,BlinkMacSystemFont,Segoe UI,Helvetica,Arial,sans-serif">0</text>
<line x1="90" y1="468" x2="1036" y2="468" stroke="#4b5563" stroke-width="1.4"/>
<line x1="90" y1="90" x2="90" y2="468" stroke="#4b5563" stroke-width="1.4"/>
<line x1="90.00" y1="468" x2="90.00" y2="474" stroke="#6b7280" stroke-width="1"/>
<text x="90.00" y="494" text-anchor="start" fill="#9ca3af" font-size="12" font-family="-apple-system,BlinkMacSystemFont,Segoe UI,Helvetica,Arial,sans-serif">2018-04-24</text>
<line x1="279.20" y1="468" x2="279.20" y2="474" stroke="#6b7280" stroke-width="1"/>
<text x="279.20" y="494" text-anchor="middle" fill="#9ca3af" font-size="12" font-family="-apple-system,BlinkMacSystemFont,Segoe UI,Helvetica,Arial,sans-serif">2019-11-27</text>
<line x1="468.40" y1="468" x2="468.40" y2="474" stroke="#6b7280" stroke-width="1"/>
<text x="468.40" y="494" text-anchor="middle" fill="#9ca3af" font-size="12" font-family="-apple-system,BlinkMacSystemFont,Segoe UI,Helvetica,Arial,sans-serif">2021-07-01</text>
<line x1="657.60" y1="468" x2="657.60" y2="474" stroke="#6b7280" stroke-width="1"/>
<text x="657.60" y="494" text-anchor="middle" fill="#9ca3af" font-size="12" font-family="-apple-system,BlinkMacSystemFont,Segoe UI,Helvetica,Arial,sans-serif">2023-02-03</text>
<line x1="846.80" y1="468" x2="846.80" y2="474" stroke="#6b7280" stroke-width="1"/>
<text x="846.80" y="494" text-anchor="middle" fill="#9ca3af" font-size="12" font-family="-apple-system,BlinkMacSystemFont,Segoe UI,Helvetica,Arial,sans-serif">2024-09-08</text>
<line x1="1036.00" y1="468" x2="1036.00" y2="474" stroke="#6b7280" stroke-width="1"/>
<text x="1036.00" y="494" text-anchor="end" fill="#9ca3af" font-size="12" font-family="-apple-system,BlinkMacSystemFont,Segoe UI,Helvetica,Arial,sans-serif">2026-04-13</text>
<polyline fill="none" stroke="url(#repo-0)" stroke-width="4" stroke-linecap="round" stroke-linejoin="round" points="720.48,468.00 727.18,468.00 740.18,468.00 753.83,468.00 755.78,468.00 759.03,468.00 770.73,468.00 773.00,468.00 778.53,468.00 778.85,468.00 783.73,468.00 791.53,468.00 803.87,468.00 807.12,468.00 811.35,468.00 814.92,468.00 829.87,468.00 834.42,468.00 835.07,468.00 836.37,468.00 842.55,468.00 856.20,468.00 859.12,468.00 865.95,468.00 871.47,468.00 872.12,468.00 872.77,468.00 892.92,468.00 895.52,468.00 896.17,468.00 902.35,468.00 903.00,468.00 906.90,465.95 908.20,465.95 908.52,465.95 908.85,465.95 911.77,463.91 913.40,463.91 915.02,463.91 920.22,461.86 924.77,459.82 926.40,459.82 927.05,457.77 933.87,457.77 937.77,457.77 949.47,457.77 951.75,457.77 952.40,455.73 954.35,455.73 956.30,455.73 959.22,453.68 964.42,453.68 971.25,453.68 975.47,453.68 986.84,453.68 989.12,453.68 993.99,453.68 994.32,453.68 995.29,453.68 997.89,453.68 998.22,451.64 1006.99,451.64 1013.82,451.64 1014.47,451.64 1016.74,451.64 1023.24,451.64 1025.52,451.64 1027.14,451.64 1028.77,451.64 1032.10,451.64 1033.06,451.64 1033.39,451.64 1034.04,451.64 1034.37,451.64 1034.69,451.64 1036.00,451.64"/>
<circle cx="720.48" cy="468.00" r="3.8" fill="#3bf2af" stroke="#111827" stroke-width="1"/>
<circle cx="753.83" cy="468.00" r="3.8" fill="#3bf2af" stroke="#111827" stroke-width="1"/>
<circle cx="770.73" cy="468.00" r="3.8" fill="#3bf2af" stroke="#111827" stroke-width="1"/>
<circle cx="778.85" cy="468.00" r="3.8" fill="#3bf2af" stroke="#111827" stroke-width="1"/>
<circle cx="803.87" cy="468.00" r="3.8" fill="#3bf2af" stroke="#111827" stroke-width="1"/>
<circle cx="814.92" cy="468.00" r="3.8" fill="#3bf2af" stroke="#111827" stroke-width="1"/>
<circle cx="835.07" cy="468.00" r="3.8" fill="#3bf2af" stroke="#111827" stroke-width="1"/>
<circle cx="856.20" cy="468.00" r="3.8" fill="#3bf2af" stroke="#111827" stroke-width="1"/>
<circle cx="871.47" cy="468.00" r="3.8" fill="#3bf2af" stroke="#111827" stroke-width="1"/>
<circle cx="892.92" cy="468.00" r="3.8" fill="#3bf2af" stroke="#111827" stroke-width="1"/>
<circle cx="902.35" cy="468.00" r="3.8" fill="#3bf2af" stroke="#111827" stroke-width="1"/>
<circle cx="908.20" cy="465.95" r="3.8" fill="#3bf2af" stroke="#111827" stroke-width="1"/>
<circle cx="911.77" cy="463.91" r="3.8" fill="#3bf2af" stroke="#111827" stroke-width="1"/>
<circle cx="920.22" cy="461.86" r="3.8" fill="#3bf2af" stroke="#111827" stroke-width="1"/>
<circle cx="927.05" cy="457.77" r="3.8" fill="#3bf2af" stroke="#111827" stroke-width="1"/>
<circle cx="949.47" cy="457.77" r="3.8" fill="#3bf2af" stroke="#111827" stroke-width="1"/>
<circle cx="954.35" cy="455.73" r="3.8" fill="#3bf2af" stroke="#111827" stroke-width="1"/>
<circle cx="964.42" cy="453.68" r="3.8" fill="#3bf2af" stroke="#111827" stroke-width="1"/>
<circle cx="986.84" cy="453.68" r="3.8" fill="#3bf2af" stroke="#111827" stroke-width="1"/>
<circle cx="994.32" cy="453.68" r="3.8" fill="#3bf2af" stroke="#111827" stroke-width="1"/>
<circle cx="998.22" cy="451.64" r="3.8" fill="#3bf2af" stroke="#111827" stroke-width="1"/>
<circle cx="1014.47" cy="451.64" r="3.8" fill="#3bf2af" stroke="#111827" stroke-width="1"/>
<circle cx="1025.52" cy="451.64" r="3.8" fill="#3bf2af" stroke="#111827" stroke-width="1"/>
<circle cx="1032.10" cy="451.64" r="3.8" fill="#3bf2af" stroke="#111827" stroke-width="1"/>
<circle cx="1034.04" cy="451.64" r="3.8" fill="#3bf2af" stroke="#111827" stroke-width="1"/>
<circle cx="1036.00" cy="451.64" r="3.8" fill="#3bf2af" stroke="#111827" stroke-width="1"/>
<text x="1028.00" y="441.64" text-anchor="end" fill="#3bf2af" font-size="12" font-family="-apple-system,BlinkMacSystemFont,Segoe UI,Helvetica,Arial,sans-serif">8</text>
<polyline fill="none" stroke="url(#repo-1)" stroke-width="4" stroke-linecap="round" stroke-linejoin="round" points="90.00,468.00 91.82,468.00 92.47,468.00 96.04,468.00 99.62,468.00 136.67,468.00 137.64,465.95 143.49,463.91 149.34,463.91 153.89,461.86 157.47,461.86 158.12,461.86 158.44,461.86 158.77,461.86 160.39,461.86 161.04,461.86 165.27,459.82 165.59,459.82 169.49,459.82 170.47,459.82 170.79,459.82 172.42,459.82 174.04,459.82 175.99,459.82 176.97,459.82 182.17,459.82 184.77,459.82 186.39,459.82 186.72,459.82 191.92,459.82 192.24,459.82 192.89,457.77 196.14,457.77 196.79,457.77 197.12,455.73 197.44,453.68 203.29,453.68 204.92,451.64 211.09,451.64 212.39,451.64 213.04,449.59 215.64,447.55 218.57,447.55 222.47,445.50 222.79,445.50 225.07,445.50 227.34,445.50 230.59,445.50 231.56,445.50 233.84,445.50 236.11,445.50 238.06,445.50 238.39,445.50 238.71,445.50 241.31,445.50 241.96,445.50 242.61,445.50 242.94,443.45 243.26,441.41 243.59,441.41 246.19,441.41 246.84,441.41 249.44,439.36 254.96,439.36 255.61,437.32 255.94,437.32 256.26,437.32 256.91,433.23 258.21,433.23 258.54,433.23 260.49,433.23 260.81,433.23 263.09,433.23 264.06,433.23 264.71,433.23 265.69,431.18 267.31,431.18 267.64,429.14 268.61,429.14 271.54,429.14 275.11,429.14 276.09,429.14 277.06,429.14 277.39,429.14 278.69,429.14 279.01,429.14 279.66,429.14 280.64,429.14 282.26,429.14 282.91,429.14 283.24,429.14 283.56,429.14 285.19,429.14 286.16,429.14 286.81,429.14 288.11,427.09 288.44,425.05 290.06,425.05 293.64,425.05 295.59,425.05 297.21,423.00 297.54,423.00 299.81,423.00 301.44,423.00 301.76,420.95 303.71,420.95 304.04,420.95 304.69,418.91 305.66,416.86 305.99,416.86 306.31,416.86 306.64,416.86 311.19,414.82 315.09,414.82 315.41,414.82 316.06,414.82 317.36,414.82 317.69,414.82 319.31,412.77 319.96,410.73 320.29,410.73 320.61,410.73 320.94,410.73 322.56,410.73 325.81,408.68 327.11,408.68 327.44,406.64 328.09,406.64 328.41,404.59 329.06,402.55 329.71,402.55 330.36,400.50 331.66,398.45 332.31,398.45 334.26,398.45 334.59,398.45 335.89,398.45 337.84,398.45 339.14,398.45 340.44,396.41 340.76,396.41 341.41,396.41 342.39,396.41 343.36,396.41 344.99,396.41 346.61,396.41 348.24,396.41 351.16,394.36 353.76,394.36 354.09,394.36 354.41,394.36 359.29,394.36 360.26,394.36 361.24,394.36 361.56,394.36 362.54,394.36 364.81,394.36 365.14,394.36 366.76,394.36 368.71,392.32 371.96,392.32 372.94,392.32 373.91,392.32 375.21,392.32 375.86,392.32 376.19,392.32 376.84,390.27 378.46,390.27 379.76,390.27 383.99,388.23 385.61,388.23 386.59,388.23 389.51,386.18 390.16,384.14 390.49,384.14 390.81,384.14 392.44,384.14 393.41,384.14 394.71,384.14 395.04,384.14 395.69,384.14 397.96,384.14 398.29,384.14 398.94,384.14 401.21,384.14 401.86,384.14 403.16,384.14 404.14,382.09 404.46,382.09 404.79,382.09 408.69,382.09 409.34,382.09 410.64,382.09 410.96,382.09 412.26,382.09 413.56,382.09 413.89,382.09 414.21,382.09 415.84,382.09 416.49,382.09 418.11,380.05 419.41,378.00 420.38,378.00 422.33,378.00 423.63,378.00 425.26,378.00 425.58,378.00 426.23,378.00 426.88,378.00 427.53,378.00 427.86,375.95 428.83,373.91 429.16,373.91 429.48,373.91 429.81,371.86 431.43,371.86 432.08,369.82 433.38,369.82 434.03,369.82 435.01,369.82 435.66,369.82 436.63,369.82 437.93,369.82 439.23,367.77 440.53,365.73 440.86,365.73 442.48,365.73 442.81,365.73 443.46,365.73 443.78,365.73 444.43,365.73 444.76,365.73 446.38,365.73 447.68,365.73 449.31,363.68 453.86,363.68 454.18,363.68 454.51,361.64 454.83,361.64 455.81,357.55 456.13,357.55 456.46,357.55 456.78,357.55 458.08,355.50 458.73,355.50 459.06,355.50 460.03,353.45 460.36,351.41 461.01,351.41 462.96,351.41 463.28,351.41 463.61,351.41 464.91,351.41 467.18,351.41 467.51,351.41 468.16,351.41 470.43,351.41 472.06,351.41 473.68,349.36 476.61,347.32 477.91,347.32 478.23,347.32 478.56,345.27 479.21,345.27 479.53,343.23 479.86,343.23 480.83,343.23 481.16,343.23 482.13,343.23 483.76,343.23 484.08,339.14 484.41,339.14 484.73,339.14 485.06,339.14 485.38,339.14 485.71,339.14 486.36,339.14 486.68,339.14 487.01,335.05 487.98,335.05 488.63,335.05 489.28,335.05 490.58,335.05 491.88,335.05 492.21,335.05 492.53,333.00 492.86,330.95 494.48,330.95 495.78,330.95 496.11,330.95 497.41,330.95 497.73,330.95 498.06,328.91 501.31,328.91 501.63,328.91 502.28,328.91 503.91,328.91 504.56,328.91 505.21,328.91 506.51,326.86 507.16,326.86 507.48,324.82 507.81,324.82 508.13,322.77 509.43,322.77 509.76,322.77 510.41,322.77 510.73,322.77 511.71,322.77 512.03,322.77 513.33,322.77 516.26,322.77 517.23,322.77 518.21,322.77 518.53,320.73 518.86,320.73 519.18,318.68 519.51,318.68 520.16,318.68 522.43,316.64 523.73,316.64 524.06,316.64 524.38,316.64 525.36,316.64 526.66,314.59 527.96,314.59 529.58,314.59 529.91,314.59 533.48,314.59 535.11,314.59 535.76,314.59 536.41,314.59 539.01,314.59 539.66,314.59 539.98,314.59 540.96,314.59 541.61,314.59 542.26,312.55 542.91,312.55 543.56,312.55 544.86,312.55 545.18,312.55 545.51,312.55 547.13,310.50 547.78,310.50 548.11,310.50 549.08,310.50 549.73,310.50 550.38,310.50 552.01,310.50 552.33,308.45 552.66,308.45 553.63,308.45 554.28,306.41 554.93,306.41 556.56,306.41 559.48,306.41 559.81,306.41 561.11,306.41 561.43,306.41 562.73,306.41 563.06,306.41 563.38,304.36 564.03,304.36 565.01,304.36 565.33,304.36 565.66,304.36 566.31,304.36 567.61,304.36 568.58,302.32 568.91,302.32 573.13,302.32 573.46,302.32 574.43,302.32 575.08,302.32 577.36,302.32 578.33,300.27 578.66,300.27 578.98,300.27 581.58,300.27 581.91,300.27 582.23,300.27 583.21,300.27 583.53,300.27 584.18,300.27 586.46,300.27 587.11,300.27 587.76,296.18 588.73,296.18 589.06,296.18 590.03,296.18 595.56,296.18 596.86,296.18 597.18,296.18 598.81,296.18 599.46,294.14 599.78,294.14 600.11,292.09 600.43,292.09 601.41,290.05 602.38,290.05 602.71,290.05 604.66,290.05 604.98,290.05 605.63,290.05 606.61,290.05 607.26,290.05 607.58,290.05 608.88,290.05 609.53,288.00 610.18,288.00 611.15,288.00 611.48,288.00 615.70,288.00 616.68,285.95 617.65,285.95 617.98,285.95 619.60,285.95 619.93,285.95 620.25,285.95 620.58,285.95 621.88,285.95 622.85,285.95 625.13,285.95 626.10,285.95 626.43,285.95 627.08,283.91 627.73,283.91 629.68,283.91 630.00,283.91 633.25,283.91 633.58,283.91 634.55,283.91 634.88,283.91 635.85,283.91 636.18,279.82 636.50,279.82 638.13,279.82 638.45,279.82 639.43,279.82 641.05,279.82 642.35,279.82 643.33,277.77 646.90,275.73 647.23,273.68 649.18,271.64 649.83,271.64 650.48,269.59 651.78,267.55 652.10,265.50 654.70,265.50 657.63,265.50 658.28,265.50 658.60,263.45 658.93,263.45 661.85,261.41 663.15,259.36 663.48,259.36 663.80,259.36 664.45,257.32 665.75,257.32 666.08,257.32 666.73,257.32 668.03,257.32 669.65,257.32 669.98,255.27 670.63,255.27 670.95,255.27 671.28,253.23 671.60,253.23 671.93,253.23 672.58,253.23 676.48,253.23 678.75,251.18 681.03,249.14 682.00,247.09 682.33,245.05 682.65,245.05 683.63,243.00 683.95,243.00 686.23,240.95 686.55,240.95 687.85,238.91 688.18,238.91 688.50,238.91 689.80,238.91 690.78,236.86 692.08,236.86 693.05,234.82 693.38,232.77 695.33,232.77 695.98,232.77 696.95,232.77 697.28,232.77 697.93,232.77 699.88,230.73 700.53,228.68 701.18,228.68 701.50,228.68 702.15,228.68 702.48,228.68 703.45,228.68 703.78,228.68 704.43,228.68 705.73,228.68 706.05,228.68 706.70,228.68 707.35,228.68 708.65,228.68 708.98,226.64 710.28,226.64 711.58,226.64 713.20,224.59 714.18,224.59 714.50,224.59 716.13,222.55 716.45,222.55 717.75,222.55 718.73,222.55 719.38,220.50 720.35,220.50 721.65,220.50 721.98,220.50 722.63,220.50 725.23,220.50 727.18,218.45 729.45,218.45 733.03,218.45 733.35,216.41 733.68,216.41 735.63,216.41 736.28,216.41 736.60,216.41 736.93,214.36 737.90,214.36 738.23,212.32 738.88,212.32 741.48,212.32 743.10,212.32 743.75,210.27 745.38,208.23 746.68,208.23 749.60,206.18 750.90,204.14 752.85,204.14 758.70,202.09 760.98,200.05 761.63,200.05 764.55,200.05 765.20,200.05 765.85,200.05 767.80,200.05 768.45,200.05 769.10,200.05 769.43,198.00 769.75,198.00 772.35,198.00 775.28,198.00 776.90,198.00 778.85,198.00 781.78,195.95 784.38,195.95 785.68,195.95 786.33,195.95 787.63,195.95 789.25,195.95 789.90,195.95 790.55,195.95 792.50,195.95 793.80,195.95 794.13,195.95 797.05,193.91 797.37,193.91 797.70,191.86 798.35,191.86 799.32,189.82 800.62,189.82 802.57,189.82 802.90,189.82 803.87,187.77 806.15,185.73 808.42,185.73 810.37,185.73 812.97,185.73 813.62,185.73 813.95,185.73 814.92,183.68 815.25,183.68 815.57,183.68 816.22,183.68 817.52,181.64 819.80,181.64 820.12,179.59 821.10,179.59 823.05,179.59 824.67,179.59 825.00,179.59 826.30,179.59 827.27,179.59 827.60,177.55 828.90,177.55 829.55,175.50 831.17,175.50 831.50,173.45 831.82,173.45 833.77,173.45 834.75,173.45 835.07,173.45 837.02,171.41 838.32,171.41 838.65,171.41 838.97,169.36 841.25,169.36 842.87,169.36 846.77,169.36 847.10,169.36 849.05,169.36 851.97,169.36 855.22,169.36 857.17,169.36 857.50,169.36 857.82,169.36 858.47,169.36 861.07,169.36 863.35,169.36 866.60,169.36 866.92,167.32 869.85,167.32 870.82,167.32 872.12,167.32 882.20,167.32 883.50,167.32 883.82,167.32 887.07,167.32 888.70,167.32 890.97,167.32 891.62,165.27 891.95,165.27 893.90,165.27 895.20,165.27 895.85,165.27 896.17,165.27 896.50,165.27 897.47,165.27 899.10,165.27 899.42,163.23 901.05,163.23 903.32,163.23 905.60,163.23 906.25,163.23 909.82,163.23 910.15,163.23 911.77,163.23 913.40,163.23 916.32,163.23 917.62,163.23 919.90,159.14 920.22,159.14 920.87,157.09 922.50,157.09 922.82,157.09 923.47,157.09 924.45,157.09 924.77,157.09 925.10,157.09 925.42,157.09 926.72,157.09 927.05,155.05 929.00,155.05 929.32,155.05 930.95,155.05 931.27,155.05 931.92,155.05 932.57,153.00 933.55,153.00 936.80,153.00 942.65,153.00 943.95,153.00 945.57,150.95 946.87,150.95 948.17,150.95 949.15,150.95 950.12,150.95 952.40,148.91 954.02,148.91 954.67,146.86 956.95,144.82 957.27,142.77 957.60,142.77 961.17,142.77 963.12,142.77 963.45,140.73 966.37,140.73 971.25,140.73 972.55,138.68 972.87,138.68 973.85,138.68 977.75,138.68 982.30,138.68 982.62,136.64 986.84,136.64 989.44,136.64 1002.12,136.64 1005.04,136.64 1006.02,136.64 1007.64,136.64 1007.97,136.64 1013.82,136.64 1016.42,136.64 1021.62,136.64 1023.24,136.64 1025.52,136.64 1032.10,124.36 1035.02,124.36 1035.34,124.36 1036.00,124.36"/>
<circle cx="90.00" cy="468.00" r="3.8" fill="#ffb50c" stroke="#111827" stroke-width="1"/>
<circle cx="191.92" cy="459.82" r="3.8" fill="#ffb50c" stroke="#111827" stroke-width="1"/>
<circle cx="243.26" cy="441.41" r="3.8" fill="#ffb50c" stroke="#111827" stroke-width="1"/>
<circle cx="280.64" cy="429.14" r="3.8" fill="#ffb50c" stroke="#111827" stroke-width="1"/>
<circle cx="317.36" cy="414.82" r="3.8" fill="#ffb50c" stroke="#111827" stroke-width="1"/>
<circle cx="346.61" cy="396.41" r="3.8" fill="#ffb50c" stroke="#111827" stroke-width="1"/>
<circle cx="390.49" cy="384.14" r="3.8" fill="#ffb50c" stroke="#111827" stroke-width="1"/>
<circle cx="422.33" cy="378.00" r="3.8" fill="#ffb50c" stroke="#111827" stroke-width="1"/>
<circle cx="446.38" cy="365.73" r="3.8" fill="#ffb50c" stroke="#111827" stroke-width="1"/>
<circle cx="478.23" cy="347.32" r="3.8" fill="#ffb50c" stroke="#111827" stroke-width="1"/>
<circle cx="497.41" cy="330.95" r="3.8" fill="#ffb50c" stroke="#111827" stroke-width="1"/>
<circle cx="522.43" cy="316.64" r="3.8" fill="#ffb50c" stroke="#111827" stroke-width="1"/>
<circle cx="550.38" cy="310.50" r="3.8" fill="#ffb50c" stroke="#111827" stroke-width="1"/>
<circle cx="578.66" cy="300.27" r="3.8" fill="#ffb50c" stroke="#111827" stroke-width="1"/>
<circle cx="607.26" cy="290.05" r="3.8" fill="#ffb50c" stroke="#111827" stroke-width="1"/>
<circle cx="636.18" cy="279.82" r="3.8" fill="#ffb50c" stroke="#111827" stroke-width="1"/>
<circle cx="669.65" cy="257.32" r="3.8" fill="#ffb50c" stroke="#111827" stroke-width="1"/>
<circle cx="697.28" cy="232.77" r="3.8" fill="#ffb50c" stroke="#111827" stroke-width="1"/>
<circle cx="721.98" cy="220.50" r="3.8" fill="#ffb50c" stroke="#111827" stroke-width="1"/>
<circle cx="767.80" cy="200.05" r="3.8" fill="#ffb50c" stroke="#111827" stroke-width="1"/>
<circle cx="806.15" cy="185.73" r="3.8" fill="#ffb50c" stroke="#111827" stroke-width="1"/>
<circle cx="838.32" cy="171.41" r="3.8" fill="#ffb50c" stroke="#111827" stroke-width="1"/>
<circle cx="893.90" cy="165.27" r="3.8" fill="#ffb50c" stroke="#111827" stroke-width="1"/>
<circle cx="927.05" cy="155.05" r="3.8" fill="#ffb50c" stroke="#111827" stroke-width="1"/>
<circle cx="973.85" cy="138.68" r="3.8" fill="#ffb50c" stroke="#111827" stroke-width="1"/>
<circle cx="1036.00" cy="124.36" r="3.8" fill="#ffb50c" stroke="#111827" stroke-width="1"/>
<text x="1028.00" y="114.36" text-anchor="end" fill="#ffb50c" font-size="12" font-family="-apple-system,BlinkMacSystemFont,Segoe UI,Helvetica,Arial,sans-serif">168</text>
<rect x="90.00" y="514.00" width="14" height="14" fill="url(#repo-0)" rx="3"/>
<text x="112.00" y="526.00" fill="#3bf2af" font-size="13" font-family="-apple-system,BlinkMacSystemFont,Segoe UI,Helvetica,Arial,sans-serif">bavix/gripmock</text>
<rect x="280.00" y="514.00" width="14" height="14" fill="url(#repo-1)" rx="3"/>
<text x="302.00" y="526.00" fill="#ffb50c" font-size="13" font-family="-apple-system,BlinkMacSystemFont,Segoe UI,Helvetica,Arial,sans-serif">tokopedia/gripmock</text>
<text x="1036.00" y="526.00" text-anchor="end" fill="#9ca3af" font-size="12" font-family="-apple-system,BlinkMacSystemFont,Segoe UI,Helvetica,Arial,sans-serif">Source: https://github.com/bavix/artifact-stats/blob/master/stats/github.csv</text>
</svg>