<svg xmlns="http://www.w3.org/2000/svg" width="1100" height="560" viewBox="0 0 1100 560">
<defs>
<linearGradient id="bg" x1="0" y1="0" x2="1" y2="1"><stop offset="0%" stop-color="#0b1220"/><stop offset="100%" stop-color="#111827"/></linearGradient>
<linearGradient id="repo-0" x1="0" y1="0" x2="0" y2="1"><stop offset="0%" stop-color="#34d399"/><stop offset="100%" stop-color="#059669"/></linearGradient>
<linearGradient id="repo-1" x1="0" y1="0" x2="0" y2="1"><stop offset="0%" stop-color="#f59e0b"/><stop offset="100%" stop-color="#d97706"/></linearGradient>
</defs>
<rect x="0" y="0" width="1100" height="560" fill="url(#bg)" rx="16"/>
<text x="90" y="44" fill="#f9fafb" font-size="28" font-family="-apple-system,BlinkMacSystemFont,Segoe UI,Helvetica,Arial,sans-serif" font-weight="700">GripMock GitHub Metrics - Stars</text>
<text x="90" y="70" fill="#9ca3af" font-size="16" font-family="-apple-system,BlinkMacSystemFont,Segoe UI,Helvetica,Arial,sans-serif">GitHub stars by snapshot date</text>
<line x1="90" y1="90.00" x2="1036" y2="90.00" stroke="#1f2937" stroke-width="1"/>
<text x="80" y="95.00" text-anchor="end" fill="#9ca3af" font-size="12" font-family="-apple-system,BlinkMacSystemFont,Segoe UI,Helvetica,Arial,sans-serif">811</text>
<line x1="90" y1="153.00" x2="1036" y2="153.00" stroke="#1f2937" stroke-width="1"/>
<text x="80" y="158.00" text-anchor="end" fill="#9ca3af" font-size="12" font-family="-apple-system,BlinkMacSystemFont,Segoe UI,Helvetica,Arial,sans-serif">676</text>
<line x1="90" y1="216.00" x2="1036" y2="216.00" stroke="#1f2937" stroke-width="1"/>
<text x="80" y="221.00" text-anchor="end" fill="#9ca3af" font-size="12" font-family="-apple-system,BlinkMacSystemFont,Segoe UI,Helvetica,Arial,sans-serif">540</text>
<line x1="90" y1="279.00" x2="1036" y2="279.00" stroke="#1f2937" stroke-width="1"/>
<text x="80" y="284.00" text-anchor="end" fill="#9ca3af" font-size="12" font-family="-apple-system,BlinkMacSystemFont,Segoe UI,Helvetica,Arial,sans-serif">405</text>
<line x1="90" y1="342.00" x2="1036" y2="342.00" stroke="#1f2937" stroke-width="1"/>
<text x="80" y="347.00" text-anchor="end" fill="#9ca3af" font-size="12" font-family="-apple-system,BlinkMacSystemFont,Segoe UI,Helvetica,Arial,sans-serif">270</text>
<line x1="90" y1="405.00" x2="1036" y2="405.00" stroke="#1f2937" stroke-width="1"/>
<text x="80" y="410.00" text-anchor="end" fill="#9ca3af" font-size="12" font-family="-apple-system,BlinkMacSystemFont,Segoe UI,Helvetica,Arial,sans-serif">135</text>
<line x1="90" y1="468.00" x2="1036" y2="468.00" stroke="#1f2937" stroke-width="1"/>
<text x="80" y="473.00" text-anchor="end" fill="#9ca3af" font-size="12" font-family="-apple-system,BlinkMacSystemFont,Segoe UI,Helvetica,Arial,sans-serif">0</text>
<line x1="90" y1="468" x2="1036" y2="468" stroke="#4b5563" stroke-width="1.4"/>
<line x1="90" y1="90" x2="90" y2="468" stroke="#4b5563" stroke-width="1.4"/>
<line x1="90.00" y1="468" x2="90.00" y2="474" stroke="#6b7280" stroke-width="1"/>
<text x="90.00" y="494" text-anchor="start" fill="#9ca3af" font-size="12" font-family="-apple-system,BlinkMacSystemFont,Segoe UI,Helvetica,Arial,sans-serif">2018-04-24</text>
<line x1="279.20" y1="468" x2="279.20" y2="474" stroke="#6b7280" stroke-width="1"/>
<text x="279.20" y="494" text-anchor="middle" fill="#9ca3af" font-size="12" font-family="-apple-system,BlinkMacSystemFont,Segoe UI,Helvetica,Arial,sans-serif">2019-11-28</text>
<line x1="468.40" y1="468" x2="468.40" y2="474" stroke="#6b7280" stroke-width="1"/>
<text x="468.40" y="494" text-anchor="middle" fill="#9ca3af" font-size="12" font-family="-apple-system,BlinkMacSystemFont,Segoe UI,Helvetica,Arial,sans-serif">2021-07-02</text>
<line x1="657.60" y1="468" x2="657.60" y2="474" stroke="#6b7280" stroke-width="1"/>
<text x="657.60" y="494" text-anchor="middle" fill="#9ca3af" font-size="12" font-family="-apple-system,BlinkMacSystemFont,Segoe UI,Helvetica,Arial,sans-serif">2023-02-05</text>
<line x1="846.80" y1="468" x2="846.80" y2="474" stroke="#6b7280" stroke-width="1"/>
<text x="846.80" y="494" text-anchor="middle" fill="#9ca3af" font-size="12" font-family="-apple-system,BlinkMacSystemFont,Segoe UI,Helvetica,Arial,sans-serif">2024-09-10</text>
<line x1="1036.00" y1="468" x2="1036.00" y2="474" stroke="#6b7280" stroke-width="1"/>
<text x="1036.00" y="494" text-anchor="end" fill="#9ca3af" font-size="12" font-family="-apple-system,BlinkMacSystemFont,Segoe UI,Helvetica,Arial,sans-serif">2026-04-16</text>
<polyline fill="none" stroke="url(#repo-0)" stroke-width="4" stroke-linecap="round" stroke-linejoin="round" points="719.84,468.00 726.52,467.53 739.51,467.07 753.15,466.60 755.09,466.13 758.34,465.67 770.03,465.20 772.30,464.74 777.82,464.27 778.14,463.80 783.01,463.34 790.81,462.87 803.14,462.40 806.39,461.94 810.61,461.47 814.18,461.01 829.12,460.54 833.66,460.07 834.31,459.61 835.61,459.14 841.78,458.67 855.41,458.21 858.34,457.74 865.15,457.28 870.67,456.81 871.32,456.34 871.97,455.88 892.10,455.41 894.70,454.94 895.35,454.48 901.51,454.01 902.16,453.55 906.06,453.55 907.36,453.08 907.68,452.61 908.01,452.15 910.93,451.68 912.55,451.21 914.18,450.75 919.37,450.75 923.92,450.75 925.54,450.28 926.19,450.28 933.01,449.82 936.90,449.35 948.59,448.88 950.86,448.42 951.51,448.42 953.46,447.95 955.41,447.48 958.33,447.48 963.52,447.02 970.34,446.55 974.56,446.09 985.93,445.62 988.20,445.15 993.07,444.69 993.39,444.22 994.37,443.75 996.96,443.29 997.29,443.29 1006.05,442.82 1012.87,442.36 1013.52,441.89 1015.79,441.42 1022.29,440.96 1024.56,440.49 1026.18,440.02 1027.81,439.56 1031.13,439.56 1032.10,439.56 1032.43,439.09 1033.07,439.09 1033.40,438.63 1033.72,439.09 1036.00,439.09"/>
<circle cx="719.84" cy="468.00" r="3.8" fill="#3bf2af" stroke="#111827" stroke-width="1"/>
<circle cx="753.15" cy="466.60" r="3.8" fill="#3bf2af" stroke="#111827" stroke-width="1"/>
<circle cx="770.03" cy="465.20" r="3.8" fill="#3bf2af" stroke="#111827" stroke-width="1"/>
<circle cx="778.14" cy="463.80" r="3.8" fill="#3bf2af" stroke="#111827" stroke-width="1"/>
<circle cx="803.14" cy="462.40" r="3.8" fill="#3bf2af" stroke="#111827" stroke-width="1"/>
<circle cx="814.18" cy="461.01" r="3.8" fill="#3bf2af" stroke="#111827" stroke-width="1"/>
<circle cx="834.31" cy="459.61" r="3.8" fill="#3bf2af" stroke="#111827" stroke-width="1"/>
<circle cx="855.41" cy="458.21" r="3.8" fill="#3bf2af" stroke="#111827" stroke-width="1"/>
<circle cx="870.67" cy="456.81" r="3.8" fill="#3bf2af" stroke="#111827" stroke-width="1"/>
<circle cx="892.10" cy="455.41" r="3.8" fill="#3bf2af" stroke="#111827" stroke-width="1"/>
<circle cx="901.51" cy="454.01" r="3.8" fill="#3bf2af" stroke="#111827" stroke-width="1"/>
<circle cx="907.36" cy="453.08" r="3.8" fill="#3bf2af" stroke="#111827" stroke-width="1"/>
<circle cx="910.93" cy="451.68" r="3.8" fill="#3bf2af" stroke="#111827" stroke-width="1"/>
<circle cx="919.37" cy="450.75" r="3.8" fill="#3bf2af" stroke="#111827" stroke-width="1"/>
<circle cx="926.19" cy="450.28" r="3.8" fill="#3bf2af" stroke="#111827" stroke-width="1"/>
<circle cx="948.59" cy="448.88" r="3.8" fill="#3bf2af" stroke="#111827" stroke-width="1"/>
<circle cx="953.46" cy="447.95" r="3.8" fill="#3bf2af" stroke="#111827" stroke-width="1"/>
<circle cx="963.52" cy="447.02" r="3.8" fill="#3bf2af" stroke="#111827" stroke-width="1"/>
<circle cx="985.93" cy="445.62" r="3.8" fill="#3bf2af" stroke="#111827" stroke-width="1"/>
<circle cx="993.39" cy="444.22" r="3.8" fill="#3bf2af" stroke="#111827" stroke-width="1"/>
<circle cx="997.29" cy="443.29" r="3.8" fill="#3bf2af" stroke="#111827" stroke-width="1"/>
<circle cx="1013.52" cy="441.89" r="3.8" fill="#3bf2af" stroke="#111827" stroke-width="1"/>
<circle cx="1024.56" cy="440.49" r="3.8" fill="#3bf2af" stroke="#111827" stroke-width="1"/>
<circle cx="1031.13" cy="439.56" r="3.8" fill="#3bf2af" stroke="#111827" stroke-width="1"/>
<circle cx="1033.07" cy="439.09" r="3.8" fill="#3bf2af" stroke="#111827" stroke-width="1"/>
<circle cx="1036.00" cy="439.09" r="3.8" fill="#3bf2af" stroke="#111827" stroke-width="1"/>
<text x="1028.00" y="429.09" text-anchor="end" fill="#3bf2af" font-size="12" font-family="-apple-system,BlinkMacSystemFont,Segoe UI,Helvetica,Arial,sans-serif">62</text>
<polyline fill="none" stroke="url(#repo-1)" stroke-width="4" stroke-linecap="round" stroke-linejoin="round" points="90.00,468.00 91.82,466.60 92.47,466.13 96.04,465.67 99.61,465.20 136.62,464.74 137.59,464.27 143.44,464.27 149.28,463.80 153.83,463.80 157.40,463.34 158.05,462.87 158.37,462.40 158.70,461.94 160.32,461.47 160.97,461.01 165.19,460.54 165.51,460.07 169.41,459.61 170.38,459.14 170.71,458.67 172.33,458.21 173.96,457.28 175.90,456.81 176.88,456.34 182.07,455.88 184.67,455.41 186.29,454.94 186.62,454.48 191.81,454.01 192.14,453.55 192.79,453.08 196.03,452.61 196.68,451.68 197.01,451.68 197.33,451.68 203.17,451.21 204.80,451.21 210.97,450.75 212.27,450.28 212.91,450.28 215.51,449.82 218.43,449.35 222.33,449.35 222.65,448.88 224.93,448.42 227.20,447.95 230.45,447.48 231.42,447.02 233.69,446.55 235.97,446.09 237.91,445.62 238.24,445.15 238.56,444.69 241.16,444.22 241.81,443.75 242.46,442.82 242.78,442.36 243.11,441.42 243.43,440.96 246.03,440.49 246.68,439.56 249.28,439.56 254.80,439.09 255.44,439.09 255.77,438.63 256.09,438.16 256.74,438.16 258.04,437.69 258.37,437.23 260.31,436.76 260.64,436.29 262.91,435.83 263.89,434.90 264.53,433.96 265.51,433.96 267.13,433.50 267.46,433.03 268.43,432.56 271.35,432.10 274.92,431.63 275.90,431.17 276.87,430.70 277.20,430.23 278.50,429.77 278.82,429.30 279.47,428.83 280.44,427.44 282.07,426.97 282.72,426.50 283.04,426.04 283.37,424.64 284.99,424.17 285.96,423.70 286.61,423.24 287.91,423.24 288.24,422.77 289.86,422.31 293.43,421.84 295.38,421.37 297.00,421.37 297.33,420.44 299.60,419.97 301.22,419.51 301.55,419.51 303.49,419.04 303.82,418.58 304.47,418.58 305.44,418.58 305.77,418.11 306.09,417.64 306.42,417.18 310.96,415.78 314.86,415.31 315.18,414.85 315.83,414.38 317.13,413.91 317.45,413.45 319.08,413.45 319.73,412.98 320.05,412.51 320.38,412.05 320.70,411.58 322.32,411.12 325.57,410.65 326.87,410.18 327.19,410.18 327.84,409.72 328.17,409.72 328.82,408.32 329.47,407.85 330.12,407.85 331.41,407.39 332.06,406.92 334.01,406.45 334.34,405.99 335.64,405.52 337.58,405.05 338.88,404.59 340.18,404.59 340.51,404.12 341.15,403.66 342.13,403.19 343.10,402.72 344.73,402.26 346.35,401.79 347.97,401.32 350.89,400.86 353.49,400.39 353.82,399.93 354.14,399.46 359.01,398.99 359.98,398.53 360.96,398.06 361.28,397.13 362.26,396.66 364.53,395.73 364.85,394.80 366.48,394.33 368.43,394.33 371.67,393.86 372.65,393.40 373.62,392.93 374.92,392.00 375.57,391.53 375.89,391.07 376.54,390.60 378.17,389.67 379.46,389.20 383.68,388.27 385.31,386.87 386.28,385.94 389.20,385.94 389.85,385.94 390.18,385.47 390.50,384.54 392.13,383.61 393.10,383.14 394.40,382.67 394.72,382.21 395.37,381.74 397.64,381.27 397.97,380.81 398.62,380.34 400.89,379.88 401.54,379.41 402.84,378.94 403.81,378.48 404.14,378.01 404.46,377.54 408.36,377.08 409.01,376.61 410.31,375.68 410.63,375.21 411.93,374.75 413.23,371.48 413.55,370.55 413.88,370.08 415.50,369.62 416.15,369.15 417.77,369.15 419.07,368.69 420.05,368.22 421.99,367.29 423.29,366.82 424.92,366.35 425.24,365.89 425.89,365.42 426.54,364.49 427.19,364.02 427.51,364.02 428.49,364.02 428.81,363.56 429.14,363.09 429.46,362.62 431.08,362.16 431.73,361.23 433.03,360.76 433.68,359.83 434.66,359.36 435.31,358.89 436.28,358.43 437.58,357.96 438.88,357.96 440.18,357.50 440.50,357.03 442.12,356.56 442.45,356.10 443.10,355.63 443.42,355.16 444.07,354.70 444.40,353.30 446.02,352.83 447.32,352.37 448.94,351.90 453.49,350.97 453.81,350.50 454.14,350.50 454.46,350.04 455.43,349.57 455.76,349.10 456.08,348.64 456.41,347.70 457.71,347.24 458.36,346.31 458.68,344.91 459.65,344.91 459.98,344.91 460.63,343.97 462.58,343.51 462.90,342.58 463.23,342.11 464.52,341.64 466.80,341.18 467.12,340.71 467.77,340.24 470.04,339.78 471.67,339.31 473.29,339.31 476.21,339.31 477.51,338.84 477.84,338.38 478.16,338.38 478.81,337.91 479.13,336.98 479.46,336.51 480.43,336.05 480.76,335.58 481.73,335.11 483.35,334.18 483.68,334.18 484.00,333.25 484.33,332.78 484.65,331.38 484.98,330.45 485.30,329.99 485.95,329.52 486.28,327.65 486.60,327.19 487.58,326.72 488.22,325.79 488.87,325.32 490.17,324.86 491.47,324.39 491.80,323.92 492.12,323.46 492.45,322.99 494.07,322.53 495.37,322.06 495.69,321.59 496.99,320.66 497.32,319.73 497.64,319.73 500.89,319.26 501.21,318.80 501.86,318.33 503.48,317.40 504.13,316.93 504.78,316.46 506.08,316.46 506.73,315.53 507.05,315.53 507.38,313.67 507.70,311.34 509.00,310.87 509.33,310.40 509.98,309.94 510.30,309.47 511.28,309.00 511.60,308.54 512.90,308.07 515.82,307.61 516.79,307.14 517.77,306.67 518.09,305.27 518.42,304.81 518.74,304.34 519.07,303.88 519.72,303.41 521.99,303.41 523.29,302.94 523.61,302.48 523.94,302.01 524.91,301.54 526.21,301.54 527.51,301.08 529.13,300.61 529.46,300.15 533.03,299.68 534.65,299.21 535.30,298.28 535.95,297.81 538.55,297.35 539.20,296.88 539.52,296.41 540.49,295.95 541.14,295.48 541.79,295.48 542.44,295.02 543.09,294.55 544.39,294.08 544.72,293.62 545.04,293.15 546.66,293.15 547.31,292.68 547.64,292.22 548.61,291.29 549.26,290.35 549.91,289.89 551.53,288.95 551.86,288.95 552.18,288.49 553.16,288.02 553.81,287.56 554.45,287.09 556.08,286.62 559.00,286.16 559.32,285.69 560.62,285.22 560.95,284.76 562.25,284.29 562.57,283.83 562.90,281.96 563.55,281.49 564.52,281.03 564.84,280.56 565.17,280.10 565.82,279.63 567.12,279.16 568.09,279.16 568.42,278.70 572.64,278.23 572.96,277.76 573.93,276.83 574.58,276.37 576.86,275.90 577.83,275.43 578.15,274.97 578.48,274.50 581.08,273.57 581.40,273.10 581.73,271.24 582.70,270.77 583.02,270.30 583.67,269.84 585.95,269.37 586.60,268.91 587.25,268.91 588.22,268.44 588.54,267.97 589.52,267.51 595.04,267.04 596.34,266.11 596.66,265.64 598.28,265.18 598.93,265.18 599.26,264.24 599.58,264.24 599.91,263.78 600.88,263.31 601.85,262.84 602.18,262.38 604.13,261.91 604.45,261.45 605.10,260.51 606.08,260.05 606.72,259.58 607.05,259.11 608.35,258.65 609.00,258.65 609.65,258.18 610.62,257.72 610.95,257.25 615.17,256.78 616.14,256.78 617.11,256.32 617.44,255.85 619.06,255.38 619.39,254.45 619.71,253.98 620.04,253.05 621.33,252.59 622.31,252.12 624.58,251.19 625.56,250.72 625.88,250.25 626.53,250.25 627.18,248.86 629.13,248.39 629.45,247.92 632.70,247.46 633.02,246.99 634.00,245.59 634.32,245.13 635.29,244.66 635.62,244.66 635.94,244.19 637.57,243.73 637.89,242.79 638.87,241.86 640.49,241.40 641.79,240.93 642.76,240.93 646.33,240.93 646.66,240.93 648.61,240.93 649.26,240.00 649.90,240.00 651.20,240.00 651.53,240.00 654.12,239.53 657.05,239.06 657.70,238.60 658.02,237.67 658.35,237.20 661.27,236.73 662.57,236.73 662.89,236.27 663.22,235.80 663.86,235.80 665.16,235.33 665.49,234.87 666.14,234.40 667.44,233.94 669.06,233.47 669.38,233.47 670.03,233.00 670.36,232.54 670.68,232.54 671.01,232.07 671.33,231.60 671.98,231.14 675.88,230.67 678.15,230.67 680.42,230.67 681.40,230.67 681.72,230.21 682.05,229.74 683.02,229.74 683.34,229.27 685.62,228.81 685.94,228.34 687.24,228.34 687.56,227.87 687.89,227.41 689.19,226.94 690.16,226.94 691.46,226.01 692.43,226.01 692.76,226.01 694.71,225.54 695.36,224.61 696.33,224.14 696.66,223.68 697.30,223.21 699.25,222.28 699.90,222.28 700.55,221.81 700.88,221.35 701.53,220.88 701.85,220.41 702.82,219.95 703.15,219.02 703.80,218.55 705.10,218.08 705.42,217.62 706.07,216.68 706.72,216.22 708.02,215.75 708.34,215.29 709.64,214.82 710.94,214.35 712.56,214.35 713.54,213.89 713.86,213.42 715.49,213.42 715.81,212.95 717.11,212.49 718.08,211.09 718.73,211.09 719.71,210.62 721.00,210.16 721.33,209.69 721.98,209.22 724.58,208.76 726.52,208.29 728.80,207.82 732.37,207.36 732.69,207.36 733.02,206.89 734.96,205.49 735.61,205.03 735.94,204.56 736.26,204.09 737.24,203.63 737.56,203.16 738.21,202.70 740.81,201.76 742.43,201.30 743.08,201.30 744.70,201.30 746.00,200.83 748.93,200.36 750.22,200.36 752.17,199.90 758.02,199.90 760.29,199.90 760.94,199.43 763.86,198.97 764.51,198.50 765.16,198.03 767.11,197.57 767.76,197.10 768.40,196.17 768.73,196.17 769.05,195.70 771.65,195.24 774.57,194.77 776.20,194.30 778.14,193.84 781.07,193.84 783.66,192.44 784.96,191.97 785.61,191.51 786.91,191.04 788.53,190.57 789.18,190.11 789.83,189.64 791.78,189.17 793.08,188.71 793.40,187.78 796.33,187.78 796.65,187.31 796.97,187.31 797.62,186.84 798.60,186.84 799.90,186.38 801.84,185.91 802.17,185.44 803.14,185.44 805.42,185.44 807.69,184.98 809.64,184.51 812.23,184.05 812.88,183.58 813.21,183.11 814.18,183.11 814.51,182.65 814.83,182.18 815.48,181.25 816.78,180.78 819.05,180.32 819.38,179.85 820.35,178.92 822.30,178.45 823.92,177.98 824.25,177.52 825.54,177.05 826.52,176.59 826.84,176.59 828.14,176.12 828.79,176.12 830.41,175.65 830.74,175.19 831.06,173.79 833.01,173.32 833.99,172.86 834.31,172.39 836.26,172.39 837.56,171.92 837.88,170.52 838.21,170.52 840.48,169.12 842.10,168.66 846.00,168.19 846.32,167.73 848.27,167.26 851.19,166.79 854.44,166.33 856.39,165.39 856.71,164.93 857.04,164.46 857.69,164.00 860.28,163.53 862.56,163.06 865.80,162.60 866.13,162.60 869.05,162.13 870.02,161.66 871.32,161.20 881.39,160.73 882.68,159.80 883.01,159.33 886.26,158.87 887.88,157.93 890.15,157.47 890.80,157.47 891.13,157.00 893.07,156.54 894.37,156.07 895.02,155.60 895.35,155.14 895.67,154.67 896.64,154.20 898.27,153.74 898.59,153.74 900.22,153.27 902.49,152.81 904.76,152.34 905.41,151.87 908.98,151.41 909.31,150.94 910.93,150.47 912.55,150.01 915.47,149.54 916.77,149.08 919.05,149.08 919.37,148.61 920.02,148.61 921.64,148.14 921.97,147.68 922.62,147.21 923.59,146.28 923.92,144.88 924.24,143.95 924.57,143.48 925.86,143.01 926.19,143.01 928.14,142.55 928.46,142.08 930.08,141.62 930.41,141.15 931.06,140.68 931.71,140.68 932.68,140.22 935.93,139.75 941.77,139.28 943.07,138.82 944.69,138.35 945.99,137.89 947.29,137.42 948.27,136.95 949.24,136.02 951.51,136.02 953.14,135.55 953.78,135.55 956.06,135.55 956.38,135.55 956.71,135.09 960.28,134.62 962.23,134.16 962.55,134.16 965.47,133.69 970.34,133.22 971.64,133.22 971.97,132.76 972.94,132.29 976.84,131.82 981.38,131.36 981.71,131.36 985.93,130.89 988.52,130.43 1001.18,129.96 1004.11,129.03 1005.08,128.56 1006.70,128.09 1007.03,127.16 1012.87,126.69 1015.47,126.23 1020.66,125.76 1022.29,125.30 1024.56,124.83 1031.13,124.83 1034.05,124.83 1034.37,124.36 1035.03,124.36 1035.35,124.83 1036.00,124.83"/>
<circle cx="90.00" cy="468.00" r="3.8" fill="#ffb50c" stroke="#111827" stroke-width="1"/>
<circle cx="191.81" cy="454.01" r="3.8" fill="#ffb50c" stroke="#111827" stroke-width="1"/>
<circle cx="243.11" cy="441.42" r="3.8" fill="#ffb50c" stroke="#111827" stroke-width="1"/>
<circle cx="280.44" cy="427.44" r="3.8" fill="#ffb50c" stroke="#111827" stroke-width="1"/>
<circle cx="317.13" cy="413.91" r="3.8" fill="#ffb50c" stroke="#111827" stroke-width="1"/>
<circle cx="346.35" cy="401.79" r="3.8" fill="#ffb50c" stroke="#111827" stroke-width="1"/>
<circle cx="390.18" cy="385.47" r="3.8" fill="#ffb50c" stroke="#111827" stroke-width="1"/>
<circle cx="421.99" cy="367.29" r="3.8" fill="#ffb50c" stroke="#111827" stroke-width="1"/>
<circle cx="446.02" cy="352.83" r="3.8" fill="#ffb50c" stroke="#111827" stroke-width="1"/>
<circle cx="477.84" cy="338.38" r="3.8" fill="#ffb50c" stroke="#111827" stroke-width="1"/>
<circle cx="496.99" cy="320.66" r="3.8" fill="#ffb50c" stroke="#111827" stroke-width="1"/>
<circle cx="521.99" cy="303.41" r="3.8" fill="#ffb50c" stroke="#111827" stroke-width="1"/>
<circle cx="549.91" cy="289.89" r="3.8" fill="#ffb50c" stroke="#111827" stroke-width="1"/>
<circle cx="578.15" cy="274.97" r="3.8" fill="#ffb50c" stroke="#111827" stroke-width="1"/>
<circle cx="606.72" cy="259.58" r="3.8" fill="#ffb50c" stroke="#111827" stroke-width="1"/>
<circle cx="635.62" cy="244.66" r="3.8" fill="#ffb50c" stroke="#111827" stroke-width="1"/>
<circle cx="669.06" cy="233.47" r="3.8" fill="#ffb50c" stroke="#111827" stroke-width="1"/>
<circle cx="696.66" cy="223.68" r="3.8" fill="#ffb50c" stroke="#111827" stroke-width="1"/>
<circle cx="721.33" cy="209.69" r="3.8" fill="#ffb50c" stroke="#111827" stroke-width="1"/>
<circle cx="767.11" cy="197.57" r="3.8" fill="#ffb50c" stroke="#111827" stroke-width="1"/>
<circle cx="805.42" cy="185.44" r="3.8" fill="#ffb50c" stroke="#111827" stroke-width="1"/>
<circle cx="837.56" cy="171.92" r="3.8" fill="#ffb50c" stroke="#111827" stroke-width="1"/>
<circle cx="893.07" cy="156.54" r="3.8" fill="#ffb50c" stroke="#111827" stroke-width="1"/>
<circle cx="926.19" cy="143.01" r="3.8" fill="#ffb50c" stroke="#111827" stroke-width="1"/>
<circle cx="972.94" cy="132.29" r="3.8" fill="#ffb50c" stroke="#111827" stroke-width="1"/>
<circle cx="1036.00" cy="124.83" r="3.8" fill="#ffb50c" stroke="#111827" stroke-width="1"/>
<text x="1028.00" y="114.83" text-anchor="end" fill="#ffb50c" font-size="12" font-family="-apple-system,BlinkMacSystemFont,Segoe UI,Helvetica,Arial,sans-serif">736</text>
<rect x="90.00" y="514.00" width="14" height="14" fill="url(#repo-0)" rx="3"/>
<text x="112.00" y="526.00" fill="#3bf2af" font-size="13" font-family="-apple-system,BlinkMacSystemFont,Segoe UI,Helvetica,Arial,sans-serif">bavix/gripmock</text>
<rect x="280.00" y="514.00" width="14" height="14" fill="url(#repo-1)" rx="3"/>
<text x="302.00" y="526.00" fill="#ffb50c" font-size="13" font-family="-apple-system,BlinkMacSystemFont,Segoe UI,Helvetica,Arial,sans-serif">tokopedia/gripmock</text>
<text x="1036.00" y="526.00" text-anchor="end" fill="#9ca3af" font-size="12" font-family="-apple-system,BlinkMacSystemFont,Segoe UI,Helvetica,Arial,sans-serif">Source: https://github.com/bavix/artifact-stats/blob/master/stats/github.csv</text>
</svg>