<svg xmlns="http://www.w3.org/2000/svg" width="1100" height="560" viewBox="0 0 1100 560">
<defs>
<linearGradient id="bg" x1="0" y1="0" x2="1" y2="1"><stop offset="0%" stop-color="#0b1220"/><stop offset="100%" stop-color="#111827"/></linearGradient>
<linearGradient id="repo-0" x1="0" y1="0" x2="0" y2="1"><stop offset="0%" stop-color="#34d399"/><stop offset="100%" stop-color="#059669"/></linearGradient>
<linearGradient id="repo-1" x1="0" y1="0" x2="0" y2="1"><stop offset="0%" stop-color="#f59e0b"/><stop offset="100%" stop-color="#d97706"/></linearGradient>
</defs>
<rect x="0" y="0" width="1100" height="560" fill="url(#bg)" rx="16"/>
<text x="90" y="44" fill="#f9fafb" font-size="28" font-family="-apple-system,BlinkMacSystemFont,Segoe UI,Helvetica,Arial,sans-serif" font-weight="700">GripMock GitHub Metrics - Forks</text>
<text x="90" y="70" fill="#9ca3af" font-size="16" font-family="-apple-system,BlinkMacSystemFont,Segoe UI,Helvetica,Arial,sans-serif">GitHub forks by snapshot date</text>
<line x1="90" y1="90.00" x2="1036" y2="90.00" stroke="#1f2937" stroke-width="1"/>
<text x="80" y="95.00" text-anchor="end" fill="#9ca3af" font-size="12" font-family="-apple-system,BlinkMacSystemFont,Segoe UI,Helvetica,Arial,sans-serif">185</text>
<line x1="90" y1="153.00" x2="1036" y2="153.00" stroke="#1f2937" stroke-width="1"/>
<text x="80" y="158.00" text-anchor="end" fill="#9ca3af" font-size="12" font-family="-apple-system,BlinkMacSystemFont,Segoe UI,Helvetica,Arial,sans-serif">154</text>
<line x1="90" y1="216.00" x2="1036" y2="216.00" stroke="#1f2937" stroke-width="1"/>
<text x="80" y="221.00" text-anchor="end" fill="#9ca3af" font-size="12" font-family="-apple-system,BlinkMacSystemFont,Segoe UI,Helvetica,Arial,sans-serif">123</text>
<line x1="90" y1="279.00" x2="1036" y2="279.00" stroke="#1f2937" stroke-width="1"/>
<text x="80" y="284.00" text-anchor="end" fill="#9ca3af" font-size="12" font-family="-apple-system,BlinkMacSystemFont,Segoe UI,Helvetica,Arial,sans-serif">92</text>
<line x1="90" y1="342.00" x2="1036" y2="342.00" stroke="#1f2937" stroke-width="1"/>
<text x="80" y="347.00" text-anchor="end" fill="#9ca3af" font-size="12" font-family="-apple-system,BlinkMacSystemFont,Segoe UI,Helvetica,Arial,sans-serif">62</text>
<line x1="90" y1="405.00" x2="1036" y2="405.00" stroke="#1f2937" stroke-width="1"/>
<text x="80" y="410.00" text-anchor="end" fill="#9ca3af" font-size="12" font-family="-apple-system,BlinkMacSystemFont,Segoe UI,Helvetica,Arial,sans-serif">31</text>
<line x1="90" y1="468.00" x2="1036" y2="468.00" stroke="#1f2937" stroke-width="1"/>
<text x="80" y="473.00" text-anchor="end" fill="#9ca3af" font-size="12" font-family="-apple-system,BlinkMacSystemFont,Segoe UI,Helvetica,Arial,sans-serif">0</text>
<line x1="90" y1="468" x2="1036" y2="468" stroke="#4b5563" stroke-width="1.4"/>
<line x1="90" y1="90" x2="90" y2="468" stroke="#4b5563" stroke-width="1.4"/>
<line x1="90.00" y1="468" x2="90.00" y2="474" stroke="#6b7280" stroke-width="1"/>
<text x="90.00" y="494" text-anchor="start" fill="#9ca3af" font-size="12" font-family="-apple-system,BlinkMacSystemFont,Segoe UI,Helvetica,Arial,sans-serif">2018-04-24</text>
<line x1="279.20" y1="468" x2="279.20" y2="474" stroke="#6b7280" stroke-width="1"/>
<text x="279.20" y="494" text-anchor="middle" fill="#9ca3af" font-size="12" font-family="-apple-system,BlinkMacSystemFont,Segoe UI,Helvetica,Arial,sans-serif">2019-11-29</text>
<line x1="468.40" y1="468" x2="468.40" y2="474" stroke="#6b7280" stroke-width="1"/>
<text x="468.40" y="494" text-anchor="middle" fill="#9ca3af" font-size="12" font-family="-apple-system,BlinkMacSystemFont,Segoe UI,Helvetica,Arial,sans-serif">2021-07-06</text>
<line x1="657.60" y1="468" x2="657.60" y2="474" stroke="#6b7280" stroke-width="1"/>
<text x="657.60" y="494" text-anchor="middle" fill="#9ca3af" font-size="12" font-family="-apple-system,BlinkMacSystemFont,Segoe UI,Helvetica,Arial,sans-serif">2023-02-10</text>
<line x1="846.80" y1="468" x2="846.80" y2="474" stroke="#6b7280" stroke-width="1"/>
<text x="846.80" y="494" text-anchor="middle" fill="#9ca3af" font-size="12" font-family="-apple-system,BlinkMacSystemFont,Segoe UI,Helvetica,Arial,sans-serif">2024-09-16</text>
<line x1="1036.00" y1="468" x2="1036.00" y2="474" stroke="#6b7280" stroke-width="1"/>
<text x="1036.00" y="494" text-anchor="end" fill="#9ca3af" font-size="12" font-family="-apple-system,BlinkMacSystemFont,Segoe UI,Helvetica,Arial,sans-serif">2026-04-24</text>
<polyline fill="none" stroke="url(#repo-0)" stroke-width="4" stroke-linecap="round" stroke-linejoin="round" points="718.11,468.00 724.78,468.00 737.73,468.00 751.33,468.00 753.27,468.00 756.51,468.00 768.16,468.00 770.43,468.00 775.93,468.00 776.26,468.00 781.11,468.00 788.89,468.00 801.19,468.00 804.43,468.00 808.64,468.00 812.20,468.00 827.09,468.00 831.62,468.00 832.27,468.00 833.57,468.00 839.72,468.00 853.32,468.00 856.23,468.00 863.03,468.00 868.53,468.00 869.18,468.00 869.83,468.00 889.90,468.00 892.49,468.00 893.14,468.00 899.29,468.00 899.94,468.00 903.82,465.95 905.12,465.95 905.44,465.95 905.77,465.95 908.68,463.91 910.30,463.91 911.92,463.91 917.10,461.86 921.63,459.82 923.25,459.82 923.90,457.77 930.70,457.77 934.58,457.77 946.24,457.77 948.50,457.77 949.15,455.73 951.09,455.73 953.04,455.73 955.95,453.68 961.13,453.68 967.93,453.68 972.14,453.68 983.47,453.68 985.74,453.68 990.59,453.68 990.92,453.68 991.89,453.68 994.48,453.68 994.80,451.64 1003.54,451.64 1010.34,451.64 1010.99,451.64 1013.26,451.64 1019.73,451.64 1022.00,451.64 1023.62,451.64 1025.24,451.64 1028.55,451.64 1029.51,451.64 1029.84,451.64 1030.49,451.64 1030.81,451.64 1031.14,451.64 1035.67,451.64 1036.00,451.64"/>
<circle cx="718.11" cy="468.00" r="3.8" fill="#3bf2af" stroke="#111827" stroke-width="1"/>
<circle cx="751.33" cy="468.00" r="3.8" fill="#3bf2af" stroke="#111827" stroke-width="1"/>
<circle cx="768.16" cy="468.00" r="3.8" fill="#3bf2af" stroke="#111827" stroke-width="1"/>
<circle cx="776.26" cy="468.00" r="3.8" fill="#3bf2af" stroke="#111827" stroke-width="1"/>
<circle cx="801.19" cy="468.00" r="3.8" fill="#3bf2af" stroke="#111827" stroke-width="1"/>
<circle cx="812.20" cy="468.00" r="3.8" fill="#3bf2af" stroke="#111827" stroke-width="1"/>
<circle cx="832.27" cy="468.00" r="3.8" fill="#3bf2af" stroke="#111827" stroke-width="1"/>
<circle cx="853.32" cy="468.00" r="3.8" fill="#3bf2af" stroke="#111827" stroke-width="1"/>
<circle cx="868.53" cy="468.00" r="3.8" fill="#3bf2af" stroke="#111827" stroke-width="1"/>
<circle cx="889.90" cy="468.00" r="3.8" fill="#3bf2af" stroke="#111827" stroke-width="1"/>
<circle cx="899.29" cy="468.00" r="3.8" fill="#3bf2af" stroke="#111827" stroke-width="1"/>
<circle cx="905.12" cy="465.95" r="3.8" fill="#3bf2af" stroke="#111827" stroke-width="1"/>
<circle cx="908.68" cy="463.91" r="3.8" fill="#3bf2af" stroke="#111827" stroke-width="1"/>
<circle cx="917.10" cy="461.86" r="3.8" fill="#3bf2af" stroke="#111827" stroke-width="1"/>
<circle cx="923.90" cy="457.77" r="3.8" fill="#3bf2af" stroke="#111827" stroke-width="1"/>
<circle cx="946.24" cy="457.77" r="3.8" fill="#3bf2af" stroke="#111827" stroke-width="1"/>
<circle cx="951.09" cy="455.73" r="3.8" fill="#3bf2af" stroke="#111827" stroke-width="1"/>
<circle cx="961.13" cy="453.68" r="3.8" fill="#3bf2af" stroke="#111827" stroke-width="1"/>
<circle cx="983.47" cy="453.68" r="3.8" fill="#3bf2af" stroke="#111827" stroke-width="1"/>
<circle cx="990.92" cy="453.68" r="3.8" fill="#3bf2af" stroke="#111827" stroke-width="1"/>
<circle cx="994.80" cy="451.64" r="3.8" fill="#3bf2af" stroke="#111827" stroke-width="1"/>
<circle cx="1010.99" cy="451.64" r="3.8" fill="#3bf2af" stroke="#111827" stroke-width="1"/>
<circle cx="1022.00" cy="451.64" r="3.8" fill="#3bf2af" stroke="#111827" stroke-width="1"/>
<circle cx="1028.55" cy="451.64" r="3.8" fill="#3bf2af" stroke="#111827" stroke-width="1"/>
<circle cx="1030.49" cy="451.64" r="3.8" fill="#3bf2af" stroke="#111827" stroke-width="1"/>
<circle cx="1035.67" cy="451.64" r="3.8" fill="#3bf2af" stroke="#111827" stroke-width="1"/>
<circle cx="1036.00" cy="451.64" r="3.8" fill="#3bf2af" stroke="#111827" stroke-width="1"/>
<text x="1028.00" y="441.64" text-anchor="end" fill="#3bf2af" font-size="12" font-family="-apple-system,BlinkMacSystemFont,Segoe UI,Helvetica,Arial,sans-serif">8</text>
<polyline fill="none" stroke="url(#repo-1)" stroke-width="4" stroke-linecap="round" stroke-linejoin="round" points="90.00,468.00 91.81,468.00 92.46,468.00 96.02,468.00 99.58,468.00 136.49,468.00 137.46,465.95 143.29,463.91 149.12,463.91 153.65,461.86 157.21,461.86 157.86,461.86 158.18,461.86 158.51,461.86 160.13,461.86 160.77,461.86 164.98,459.82 165.31,459.82 169.19,459.82 170.16,459.82 170.49,459.82 172.11,459.82 173.73,459.82 175.67,459.82 176.64,459.82 181.82,459.82 184.41,459.82 186.03,459.82 186.35,459.82 191.53,459.82 191.86,459.82 192.50,457.77 195.74,457.77 196.39,457.77 196.71,455.73 197.04,453.68 202.86,453.68 204.48,451.64 210.63,451.64 211.93,451.64 212.58,449.59 215.17,447.55 218.08,447.55 221.97,445.50 222.29,445.50 224.56,445.50 226.82,445.50 230.06,445.50 231.03,445.50 233.30,445.50 235.56,445.50 237.51,445.50 237.83,445.50 238.16,445.50 240.75,445.50 241.39,445.50 242.04,445.50 242.36,443.45 242.69,441.41 243.01,441.41 245.60,441.41 246.25,441.41 248.84,439.36 254.34,439.36 254.99,437.32 255.31,437.32 255.64,437.32 256.29,433.23 257.58,433.23 257.90,433.23 259.85,433.23 260.17,433.23 262.44,433.23 263.41,433.23 264.06,433.23 265.03,431.18 266.65,431.18 266.97,429.14 267.94,429.14 270.86,429.14 274.42,429.14 275.39,429.14 276.36,429.14 276.68,429.14 277.98,429.14 278.30,429.14 278.95,429.14 279.92,429.14 281.54,429.14 282.19,429.14 282.51,429.14 282.84,429.14 284.45,429.14 285.43,429.14 286.07,429.14 287.37,427.09 287.69,425.05 289.31,425.05 292.87,425.05 294.81,425.05 296.43,423.00 296.76,423.00 299.02,423.00 300.64,423.00 300.97,420.95 302.91,420.95 303.23,420.95 303.88,418.91 304.85,416.86 305.18,416.86 305.50,416.86 305.82,416.86 310.36,414.82 314.24,414.82 314.56,414.82 315.21,414.82 316.51,414.82 316.83,414.82 318.45,412.77 319.10,410.73 319.42,410.73 319.74,410.73 320.07,410.73 321.69,410.73 324.93,408.68 326.22,408.68 326.54,406.64 327.19,406.64 327.52,404.59 328.16,402.55 328.81,402.55 329.46,400.50 330.75,398.45 331.40,398.45 333.34,398.45 333.67,398.45 334.96,398.45 336.90,398.45 338.20,398.45 339.49,396.41 339.82,396.41 340.47,396.41 341.44,396.41 342.41,396.41 344.03,396.41 345.65,396.41 347.27,396.41 350.18,394.36 352.77,394.36 353.09,394.36 353.42,394.36 358.27,394.36 359.24,394.36 360.22,394.36 360.54,394.36 361.51,394.36 363.78,394.36 364.10,394.36 365.72,394.36 367.66,392.32 370.90,392.32 371.87,392.32 372.84,392.32 374.14,392.32 374.79,392.32 375.11,392.32 375.76,390.27 377.38,390.27 378.67,390.27 382.88,388.23 384.50,388.23 385.47,388.23 388.38,386.18 389.03,384.14 389.35,384.14 389.68,384.14 391.30,384.14 392.27,384.14 393.56,384.14 393.89,384.14 394.54,384.14 396.80,384.14 397.13,384.14 397.77,384.14 400.04,384.14 400.69,384.14 401.98,384.14 402.95,382.09 403.28,382.09 403.60,382.09 407.49,382.09 408.13,382.09 409.43,382.09 409.75,382.09 411.05,382.09 412.34,382.09 412.67,382.09 412.99,382.09 414.61,382.09 415.26,382.09 416.88,380.05 418.17,378.00 419.14,378.00 421.08,378.00 422.38,378.00 424.00,378.00 424.32,378.00 424.97,378.00 425.62,378.00 426.26,378.00 426.59,375.95 427.56,373.91 427.88,373.91 428.21,373.91 428.53,371.86 430.15,371.86 430.80,369.82 432.09,369.82 432.74,369.82 433.71,369.82 434.36,369.82 435.33,369.82 436.63,369.82 437.92,367.77 439.22,365.73 439.54,365.73 441.16,365.73 441.48,365.73 442.13,365.73 442.45,365.73 443.10,365.73 443.42,365.73 445.04,365.73 446.34,365.73 447.96,363.68 452.49,363.68 452.81,363.68 453.14,361.64 453.46,361.64 454.43,357.55 454.76,357.55 455.08,357.55 455.40,357.55 456.70,355.50 457.35,355.50 457.67,355.50 458.64,353.45 458.97,351.41 459.61,351.41 461.56,351.41 461.88,351.41 462.20,351.41 463.50,351.41 465.76,351.41 466.09,351.41 466.74,351.41 469.00,351.41 470.62,351.41 472.24,349.36 475.15,347.32 476.45,347.32 476.77,347.32 477.10,345.27 477.74,345.27 478.07,343.23 478.39,343.23 479.36,343.23 479.69,343.23 480.66,343.23 482.28,343.23 482.60,339.14 482.92,339.14 483.25,339.14 483.57,339.14 483.90,339.14 484.22,339.14 484.87,339.14 485.19,339.14 485.51,335.05 486.49,335.05 487.13,335.05 487.78,335.05 489.08,335.05 490.37,335.05 490.69,335.05 491.02,333.00 491.34,330.95 492.96,330.95 494.26,330.95 494.58,330.95 495.87,330.95 496.20,330.95 496.52,328.91 499.76,328.91 500.08,328.91 500.73,328.91 502.35,328.91 503.00,328.91 503.65,328.91 504.94,326.86 505.59,326.86 505.91,324.82 506.24,324.82 506.56,322.77 507.85,322.77 508.18,322.77 508.83,322.77 509.15,322.77 510.12,322.77 510.44,322.77 511.74,322.77 514.65,322.77 515.62,322.77 516.60,322.77 516.92,320.73 517.24,320.73 517.57,318.68 517.89,318.68 518.54,318.68 520.80,316.64 522.10,316.64 522.42,316.64 522.75,316.64 523.72,316.64 525.01,314.59 526.31,314.59 527.93,314.59 528.25,314.59 531.81,314.59 533.43,314.59 534.08,314.59 534.73,314.59 537.32,314.59 537.96,314.59 538.29,314.59 539.26,314.59 539.91,314.59 540.55,312.55 541.20,312.55 541.85,312.55 543.14,312.55 543.47,312.55 543.79,312.55 545.41,310.50 546.06,310.50 546.38,310.50 547.35,310.50 548.00,310.50 548.65,310.50 550.27,310.50 550.59,308.45 550.92,308.45 551.89,308.45 552.53,306.41 553.18,306.41 554.80,306.41 557.71,306.41 558.04,306.41 559.33,306.41 559.66,306.41 560.95,306.41 561.28,306.41 561.60,304.36 562.25,304.36 563.22,304.36 563.54,304.36 563.87,304.36 564.51,304.36 565.81,304.36 566.78,302.32 567.10,302.32 571.31,302.32 571.64,302.32 572.61,302.32 573.26,302.32 575.52,302.32 576.49,300.27 576.82,300.27 577.14,300.27 579.73,300.27 580.05,300.27 580.38,300.27 581.35,300.27 581.67,300.27 582.32,300.27 584.59,300.27 585.23,300.27 585.88,296.18 586.85,296.18 587.18,296.18 588.15,296.18 593.65,296.18 594.95,296.18 595.27,296.18 596.89,296.18 597.54,294.14 597.86,294.14 598.19,292.09 598.51,292.09 599.48,290.05 600.45,290.05 600.78,290.05 602.72,290.05 603.04,290.05 603.69,290.05 604.66,290.05 605.31,290.05 605.63,290.05 606.93,290.05 607.57,288.00 608.22,288.00 609.19,288.00 609.52,288.00 613.73,288.00 614.70,285.95 615.67,285.95 615.99,285.95 617.61,285.95 617.94,285.95 618.26,285.95 618.58,285.95 619.88,285.95 620.85,285.95 623.12,285.95 624.09,285.95 624.41,285.95 625.06,283.91 625.71,283.91 627.65,283.91 627.97,283.91 631.21,283.91 631.53,283.91 632.51,283.91 632.83,283.91 633.80,283.91 634.12,279.82 634.45,279.82 636.07,279.82 636.39,279.82 637.36,279.82 638.98,279.82 640.28,279.82 641.25,277.77 644.81,275.73 645.13,273.68 647.07,271.64 647.72,271.64 648.37,269.59 649.66,267.55 649.99,265.50 652.58,265.50 655.49,265.50 656.14,265.50 656.46,263.45 656.79,263.45 659.70,261.41 661.00,259.36 661.32,259.36 661.64,259.36 662.29,257.32 663.59,257.32 663.91,257.32 664.56,257.32 665.85,257.32 667.47,257.32 667.80,255.27 668.44,255.27 668.77,255.27 669.09,253.23 669.41,253.23 669.74,253.23 670.39,253.23 674.27,253.23 676.54,251.18 678.80,249.14 679.78,247.09 680.10,245.05 680.42,245.05 681.39,243.00 681.72,243.00 683.98,240.95 684.31,240.95 685.60,238.91 685.93,238.91 686.25,238.91 687.55,238.91 688.52,236.86 689.81,236.86 690.78,234.82 691.11,232.77 693.05,232.77 693.70,232.77 694.67,232.77 694.99,232.77 695.64,232.77 697.58,230.73 698.23,228.68 698.88,228.68 699.20,228.68 699.85,228.68 700.17,228.68 701.14,228.68 701.47,228.68 702.12,228.68 703.41,228.68 703.73,228.68 704.38,228.68 705.03,228.68 706.32,228.68 706.65,226.64 707.94,226.64 709.24,226.64 710.86,224.59 711.83,224.59 712.15,224.59 713.77,222.55 714.09,222.55 715.39,222.55 716.36,222.55 717.01,220.50 717.98,220.50 719.27,220.50 719.60,220.50 720.25,220.50 722.84,220.50 724.78,218.45 727.05,218.45 730.61,218.45 730.93,216.41 731.25,216.41 733.20,216.41 733.84,216.41 734.17,216.41 734.49,214.36 735.46,214.36 735.79,212.32 736.43,212.32 739.02,212.32 740.64,212.32 741.29,210.27 742.91,208.23 744.21,208.23 747.12,206.18 748.41,204.14 750.36,204.14 756.18,202.09 758.45,200.05 759.10,200.05 762.01,200.05 762.66,200.05 763.31,200.05 765.25,200.05 765.90,200.05 766.55,200.05 766.87,198.00 767.19,198.00 769.78,198.00 772.70,198.00 774.32,198.00 776.26,198.00 779.17,195.95 781.76,195.95 783.06,195.95 783.70,195.95 785.00,195.95 786.62,195.95 787.27,195.95 787.91,195.95 789.86,195.95 791.15,195.95 791.48,195.95 794.39,193.91 794.71,193.91 795.04,191.86 795.68,191.86 796.66,189.82 797.95,189.82 799.89,189.82 800.22,189.82 801.19,187.77 803.45,185.73 805.72,185.73 807.66,185.73 810.25,185.73 810.90,185.73 811.23,185.73 812.20,183.68 812.52,183.68 812.84,183.68 813.49,183.68 814.79,181.64 817.05,181.64 817.38,179.59 818.35,179.59 820.29,179.59 821.91,179.59 822.23,179.59 823.53,179.59 824.50,179.59 824.82,177.55 826.12,177.55 826.77,175.50 828.38,175.50 828.71,173.45 829.03,173.45 830.98,173.45 831.95,173.45 832.27,173.45 834.21,171.41 835.51,171.41 835.83,171.41 836.16,169.36 838.42,169.36 840.04,169.36 843.93,169.36 844.25,169.36 846.19,169.36 849.11,169.36 852.34,169.36 854.29,169.36 854.61,169.36 854.93,169.36 855.58,169.36 858.17,169.36 860.44,169.36 863.68,169.36 864.00,167.32 866.91,167.32 867.88,167.32 869.18,167.32 879.22,167.32 880.51,167.32 880.84,167.32 884.07,167.32 885.69,167.32 887.96,167.32 888.61,165.27 888.93,165.27 890.87,165.27 892.17,165.27 892.81,165.27 893.14,165.27 893.46,165.27 894.43,165.27 896.05,165.27 896.38,163.23 898.00,163.23 900.26,163.23 902.53,163.23 903.18,163.23 906.74,163.23 907.06,163.23 908.68,163.23 910.30,163.23 913.21,163.23 914.51,163.23 916.77,159.14 917.10,159.14 917.74,157.09 919.36,157.09 919.69,157.09 920.34,157.09 921.31,157.09 921.63,157.09 921.95,157.09 922.28,157.09 923.57,157.09 923.90,155.05 925.84,155.05 926.16,155.05 927.78,155.05 928.11,155.05 928.75,155.05 929.40,153.00 930.37,153.00 933.61,153.00 939.44,153.00 940.73,153.00 942.35,150.95 943.65,150.95 944.94,150.95 945.91,150.95 946.88,150.95 949.15,148.91 950.77,148.91 951.42,146.86 953.68,144.82 954.01,142.77 954.33,142.77 957.89,142.77 959.83,142.77 960.16,140.73 963.07,140.73 967.93,140.73 969.22,138.68 969.55,138.68 970.52,138.68 974.40,138.68 978.94,138.68 979.26,136.64 983.47,136.64 986.06,136.64 998.69,136.64 1001.60,136.64 1002.57,136.64 1004.19,136.64 1004.51,136.64 1010.34,136.64 1012.93,136.64 1018.11,136.64 1019.73,136.64 1022.00,136.64 1028.55,124.36 1031.46,124.36 1031.78,124.36 1032.44,124.36 1032.76,124.36 1033.73,124.36 1034.05,124.36 1035.35,124.36 1035.67,124.36 1036.00,124.36"/>
<circle cx="90.00" cy="468.00" r="3.8" fill="#ffb50c" stroke="#111827" stroke-width="1"/>
<circle cx="191.86" cy="459.82" r="3.8" fill="#ffb50c" stroke="#111827" stroke-width="1"/>
<circle cx="245.60" cy="441.41" r="3.8" fill="#ffb50c" stroke="#111827" stroke-width="1"/>
<circle cx="282.51" cy="429.14" r="3.8" fill="#ffb50c" stroke="#111827" stroke-width="1"/>
<circle cx="319.42" cy="410.73" r="3.8" fill="#ffb50c" stroke="#111827" stroke-width="1"/>
<circle cx="353.42" cy="394.36" r="3.8" fill="#ffb50c" stroke="#111827" stroke-width="1"/>
<circle cx="394.54" cy="384.14" r="3.8" fill="#ffb50c" stroke="#111827" stroke-width="1"/>
<circle cx="426.59" cy="375.95" r="3.8" fill="#ffb50c" stroke="#111827" stroke-width="1"/>
<circle cx="454.76" cy="357.55" r="3.8" fill="#ffb50c" stroke="#111827" stroke-width="1"/>
<circle cx="482.60" cy="339.14" r="3.8" fill="#ffb50c" stroke="#111827" stroke-width="1"/>
<circle cx="505.59" cy="326.86" r="3.8" fill="#ffb50c" stroke="#111827" stroke-width="1"/>
<circle cx="534.08" cy="314.59" r="3.8" fill="#ffb50c" stroke="#111827" stroke-width="1"/>
<circle cx="560.95" cy="306.41" r="3.8" fill="#ffb50c" stroke="#111827" stroke-width="1"/>
<circle cx="588.15" cy="296.18" r="3.8" fill="#ffb50c" stroke="#111827" stroke-width="1"/>
<circle cx="618.58" cy="285.95" r="3.8" fill="#ffb50c" stroke="#111827" stroke-width="1"/>
<circle cx="652.58" cy="265.50" r="3.8" fill="#ffb50c" stroke="#111827" stroke-width="1"/>
<circle cx="683.98" cy="240.95" r="3.8" fill="#ffb50c" stroke="#111827" stroke-width="1"/>
<circle cx="707.94" cy="226.64" r="3.8" fill="#ffb50c" stroke="#111827" stroke-width="1"/>
<circle cx="742.91" cy="208.23" r="3.8" fill="#ffb50c" stroke="#111827" stroke-width="1"/>
<circle cx="791.48" cy="195.95" r="3.8" fill="#ffb50c" stroke="#111827" stroke-width="1"/>
<circle cx="826.12" cy="177.55" r="3.8" fill="#ffb50c" stroke="#111827" stroke-width="1"/>
<circle cx="879.22" cy="167.32" r="3.8" fill="#ffb50c" stroke="#111827" stroke-width="1"/>
<circle cx="919.69" cy="157.09" r="3.8" fill="#ffb50c" stroke="#111827" stroke-width="1"/>
<circle cx="959.83" cy="142.77" r="3.8" fill="#ffb50c" stroke="#111827" stroke-width="1"/>
<circle cx="1035.67" cy="124.36" r="3.8" fill="#ffb50c" stroke="#111827" stroke-width="1"/>
<circle cx="1036.00" cy="124.36" r="3.8" fill="#ffb50c" stroke="#111827" stroke-width="1"/>
<text x="1028.00" y="114.36" text-anchor="end" fill="#ffb50c" font-size="12" font-family="-apple-system,BlinkMacSystemFont,Segoe UI,Helvetica,Arial,sans-serif">168</text>
<rect x="90.00" y="514.00" width="14" height="14" fill="url(#repo-0)" rx="3"/>
<text x="112.00" y="526.00" fill="#3bf2af" font-size="13" font-family="-apple-system,BlinkMacSystemFont,Segoe UI,Helvetica,Arial,sans-serif">bavix/gripmock</text>
<rect x="280.00" y="514.00" width="14" height="14" fill="url(#repo-1)" rx="3"/>
<text x="302.00" y="526.00" fill="#ffb50c" font-size="13" font-family="-apple-system,BlinkMacSystemFont,Segoe UI,Helvetica,Arial,sans-serif">tokopedia/gripmock</text>
<text x="1036.00" y="526.00" text-anchor="end" fill="#9ca3af" font-size="12" font-family="-apple-system,BlinkMacSystemFont,Segoe UI,Helvetica,Arial,sans-serif">Source: https://github.com/bavix/artifact-stats/blob/master/stats/github.csv</text>
</svg>