<svg xmlns="http://www.w3.org/2000/svg" width="1100" height="560" viewBox="0 0 1100 560">
<defs>
<linearGradient id="bg" x1="0" y1="0" x2="1" y2="1"><stop offset="0%" stop-color="#0b1220"/><stop offset="100%" stop-color="#111827"/></linearGradient>
<linearGradient id="repo-0" x1="0" y1="0" x2="0" y2="1"><stop offset="0%" stop-color="#34d399"/><stop offset="100%" stop-color="#059669"/></linearGradient>
<linearGradient id="repo-1" x1="0" y1="0" x2="0" y2="1"><stop offset="0%" stop-color="#f59e0b"/><stop offset="100%" stop-color="#d97706"/></linearGradient>
</defs>
<rect x="0" y="0" width="1100" height="560" fill="url(#bg)" rx="16"/>
<text x="90" y="44" fill="#f9fafb" font-size="28" font-family="-apple-system,BlinkMacSystemFont,Segoe UI,Helvetica,Arial,sans-serif" font-weight="700">GripMock GitHub Metrics - Forks</text>
<text x="90" y="70" fill="#9ca3af" font-size="16" font-family="-apple-system,BlinkMacSystemFont,Segoe UI,Helvetica,Arial,sans-serif">GitHub forks by snapshot date</text>
<line x1="90" y1="90.00" x2="1036" y2="90.00" stroke="#1f2937" stroke-width="1"/>
<text x="80" y="95.00" text-anchor="end" fill="#9ca3af" font-size="12" font-family="-apple-system,BlinkMacSystemFont,Segoe UI,Helvetica,Arial,sans-serif">185</text>
<line x1="90" y1="153.00" x2="1036" y2="153.00" stroke="#1f2937" stroke-width="1"/>
<text x="80" y="158.00" text-anchor="end" fill="#9ca3af" font-size="12" font-family="-apple-system,BlinkMacSystemFont,Segoe UI,Helvetica,Arial,sans-serif">154</text>
<line x1="90" y1="216.00" x2="1036" y2="216.00" stroke="#1f2937" stroke-width="1"/>
<text x="80" y="221.00" text-anchor="end" fill="#9ca3af" font-size="12" font-family="-apple-system,BlinkMacSystemFont,Segoe UI,Helvetica,Arial,sans-serif">123</text>
<line x1="90" y1="279.00" x2="1036" y2="279.00" stroke="#1f2937" stroke-width="1"/>
<text x="80" y="284.00" text-anchor="end" fill="#9ca3af" font-size="12" font-family="-apple-system,BlinkMacSystemFont,Segoe UI,Helvetica,Arial,sans-serif">92</text>
<line x1="90" y1="342.00" x2="1036" y2="342.00" stroke="#1f2937" stroke-width="1"/>
<text x="80" y="347.00" text-anchor="end" fill="#9ca3af" font-size="12" font-family="-apple-system,BlinkMacSystemFont,Segoe UI,Helvetica,Arial,sans-serif">62</text>
<line x1="90" y1="405.00" x2="1036" y2="405.00" stroke="#1f2937" stroke-width="1"/>
<text x="80" y="410.00" text-anchor="end" fill="#9ca3af" font-size="12" font-family="-apple-system,BlinkMacSystemFont,Segoe UI,Helvetica,Arial,sans-serif">31</text>
<line x1="90" y1="468.00" x2="1036" y2="468.00" stroke="#1f2937" stroke-width="1"/>
<text x="80" y="473.00" text-anchor="end" fill="#9ca3af" font-size="12" font-family="-apple-system,BlinkMacSystemFont,Segoe UI,Helvetica,Arial,sans-serif">0</text>
<line x1="90" y1="468" x2="1036" y2="468" stroke="#4b5563" stroke-width="1.4"/>
<line x1="90" y1="90" x2="90" y2="468" stroke="#4b5563" stroke-width="1.4"/>
<line x1="90.00" y1="468" x2="90.00" y2="474" stroke="#6b7280" stroke-width="1"/>
<text x="90.00" y="494" text-anchor="start" fill="#9ca3af" font-size="12" font-family="-apple-system,BlinkMacSystemFont,Segoe UI,Helvetica,Arial,sans-serif">2018-04-24</text>
<line x1="279.20" y1="468" x2="279.20" y2="474" stroke="#6b7280" stroke-width="1"/>
<text x="279.20" y="494" text-anchor="middle" fill="#9ca3af" font-size="12" font-family="-apple-system,BlinkMacSystemFont,Segoe UI,Helvetica,Arial,sans-serif">2019-11-28</text>
<line x1="468.40" y1="468" x2="468.40" y2="474" stroke="#6b7280" stroke-width="1"/>
<text x="468.40" y="494" text-anchor="middle" fill="#9ca3af" font-size="12" font-family="-apple-system,BlinkMacSystemFont,Segoe UI,Helvetica,Arial,sans-serif">2021-07-02</text>
<line x1="657.60" y1="468" x2="657.60" y2="474" stroke="#6b7280" stroke-width="1"/>
<text x="657.60" y="494" text-anchor="middle" fill="#9ca3af" font-size="12" font-family="-apple-system,BlinkMacSystemFont,Segoe UI,Helvetica,Arial,sans-serif">2023-02-05</text>
<line x1="846.80" y1="468" x2="846.80" y2="474" stroke="#6b7280" stroke-width="1"/>
<text x="846.80" y="494" text-anchor="middle" fill="#9ca3af" font-size="12" font-family="-apple-system,BlinkMacSystemFont,Segoe UI,Helvetica,Arial,sans-serif">2024-09-10</text>
<line x1="1036.00" y1="468" x2="1036.00" y2="474" stroke="#6b7280" stroke-width="1"/>
<text x="1036.00" y="494" text-anchor="end" fill="#9ca3af" font-size="12" font-family="-apple-system,BlinkMacSystemFont,Segoe UI,Helvetica,Arial,sans-serif">2026-04-16</text>
<polyline fill="none" stroke="url(#repo-0)" stroke-width="4" stroke-linecap="round" stroke-linejoin="round" points="719.84,468.00 726.52,468.00 739.51,468.00 753.15,468.00 755.09,468.00 758.34,468.00 770.03,468.00 772.30,468.00 777.82,468.00 778.14,468.00 783.01,468.00 790.81,468.00 803.14,468.00 806.39,468.00 810.61,468.00 814.18,468.00 829.12,468.00 833.66,468.00 834.31,468.00 835.61,468.00 841.78,468.00 855.41,468.00 858.34,468.00 865.15,468.00 870.67,468.00 871.32,468.00 871.97,468.00 892.10,468.00 894.70,468.00 895.35,468.00 901.51,468.00 902.16,468.00 906.06,465.95 907.36,465.95 907.68,465.95 908.01,465.95 910.93,463.91 912.55,463.91 914.18,463.91 919.37,461.86 923.92,459.82 925.54,459.82 926.19,457.77 933.01,457.77 936.90,457.77 948.59,457.77 950.86,457.77 951.51,455.73 953.46,455.73 955.41,455.73 958.33,453.68 963.52,453.68 970.34,453.68 974.56,453.68 985.93,453.68 988.20,453.68 993.07,453.68 993.39,453.68 994.37,453.68 996.96,453.68 997.29,451.64 1006.05,451.64 1012.87,451.64 1013.52,451.64 1015.79,451.64 1022.29,451.64 1024.56,451.64 1026.18,451.64 1027.81,451.64 1031.13,451.64 1032.10,451.64 1032.43,451.64 1033.07,451.64 1033.40,451.64 1033.72,451.64 1036.00,451.64"/>
<circle cx="719.84" cy="468.00" r="3.8" fill="#3bf2af" stroke="#111827" stroke-width="1"/>
<circle cx="753.15" cy="468.00" r="3.8" fill="#3bf2af" stroke="#111827" stroke-width="1"/>
<circle cx="770.03" cy="468.00" r="3.8" fill="#3bf2af" stroke="#111827" stroke-width="1"/>
<circle cx="778.14" cy="468.00" r="3.8" fill="#3bf2af" stroke="#111827" stroke-width="1"/>
<circle cx="803.14" cy="468.00" r="3.8" fill="#3bf2af" stroke="#111827" stroke-width="1"/>
<circle cx="814.18" cy="468.00" r="3.8" fill="#3bf2af" stroke="#111827" stroke-width="1"/>
<circle cx="834.31" cy="468.00" r="3.8" fill="#3bf2af" stroke="#111827" stroke-width="1"/>
<circle cx="855.41" cy="468.00" r="3.8" fill="#3bf2af" stroke="#111827" stroke-width="1"/>
<circle cx="870.67" cy="468.00" r="3.8" fill="#3bf2af" stroke="#111827" stroke-width="1"/>
<circle cx="892.10" cy="468.00" r="3.8" fill="#3bf2af" stroke="#111827" stroke-width="1"/>
<circle cx="901.51" cy="468.00" r="3.8" fill="#3bf2af" stroke="#111827" stroke-width="1"/>
<circle cx="907.36" cy="465.95" r="3.8" fill="#3bf2af" stroke="#111827" stroke-width="1"/>
<circle cx="910.93" cy="463.91" r="3.8" fill="#3bf2af" stroke="#111827" stroke-width="1"/>
<circle cx="919.37" cy="461.86" r="3.8" fill="#3bf2af" stroke="#111827" stroke-width="1"/>
<circle cx="926.19" cy="457.77" r="3.8" fill="#3bf2af" stroke="#111827" stroke-width="1"/>
<circle cx="948.59" cy="457.77" r="3.8" fill="#3bf2af" stroke="#111827" stroke-width="1"/>
<circle cx="953.46" cy="455.73" r="3.8" fill="#3bf2af" stroke="#111827" stroke-width="1"/>
<circle cx="963.52" cy="453.68" r="3.8" fill="#3bf2af" stroke="#111827" stroke-width="1"/>
<circle cx="985.93" cy="453.68" r="3.8" fill="#3bf2af" stroke="#111827" stroke-width="1"/>
<circle cx="993.39" cy="453.68" r="3.8" fill="#3bf2af" stroke="#111827" stroke-width="1"/>
<circle cx="997.29" cy="451.64" r="3.8" fill="#3bf2af" stroke="#111827" stroke-width="1"/>
<circle cx="1013.52" cy="451.64" r="3.8" fill="#3bf2af" stroke="#111827" stroke-width="1"/>
<circle cx="1024.56" cy="451.64" r="3.8" fill="#3bf2af" stroke="#111827" stroke-width="1"/>
<circle cx="1031.13" cy="451.64" r="3.8" fill="#3bf2af" stroke="#111827" stroke-width="1"/>
<circle cx="1033.07" cy="451.64" r="3.8" fill="#3bf2af" stroke="#111827" stroke-width="1"/>
<circle cx="1036.00" cy="451.64" r="3.8" fill="#3bf2af" stroke="#111827" stroke-width="1"/>
<text x="1028.00" y="441.64" text-anchor="end" fill="#3bf2af" font-size="12" font-family="-apple-system,BlinkMacSystemFont,Segoe UI,Helvetica,Arial,sans-serif">8</text>
<polyline fill="none" stroke="url(#repo-1)" stroke-width="4" stroke-linecap="round" stroke-linejoin="round" points="90.00,468.00 91.82,468.00 92.47,468.00 96.04,468.00 99.61,468.00 136.62,468.00 137.59,465.95 143.44,463.91 149.28,463.91 153.83,461.86 157.40,461.86 158.05,461.86 158.37,461.86 158.70,461.86 160.32,461.86 160.97,461.86 165.19,459.82 165.51,459.82 169.41,459.82 170.38,459.82 170.71,459.82 172.33,459.82 173.96,459.82 175.90,459.82 176.88,459.82 182.07,459.82 184.67,459.82 186.29,459.82 186.62,459.82 191.81,459.82 192.14,459.82 192.79,457.77 196.03,457.77 196.68,457.77 197.01,455.73 197.33,453.68 203.17,453.68 204.80,451.64 210.97,451.64 212.27,451.64 212.91,449.59 215.51,447.55 218.43,447.55 222.33,445.50 222.65,445.50 224.93,445.50 227.20,445.50 230.45,445.50 231.42,445.50 233.69,445.50 235.97,445.50 237.91,445.50 238.24,445.50 238.56,445.50 241.16,445.50 241.81,445.50 242.46,445.50 242.78,443.45 243.11,441.41 243.43,441.41 246.03,441.41 246.68,441.41 249.28,439.36 254.80,439.36 255.44,437.32 255.77,437.32 256.09,437.32 256.74,433.23 258.04,433.23 258.37,433.23 260.31,433.23 260.64,433.23 262.91,433.23 263.89,433.23 264.53,433.23 265.51,431.18 267.13,431.18 267.46,429.14 268.43,429.14 271.35,429.14 274.92,429.14 275.90,429.14 276.87,429.14 277.20,429.14 278.50,429.14 278.82,429.14 279.47,429.14 280.44,429.14 282.07,429.14 282.72,429.14 283.04,429.14 283.37,429.14 284.99,429.14 285.96,429.14 286.61,429.14 287.91,427.09 288.24,425.05 289.86,425.05 293.43,425.05 295.38,425.05 297.00,423.00 297.33,423.00 299.60,423.00 301.22,423.00 301.55,420.95 303.49,420.95 303.82,420.95 304.47,418.91 305.44,416.86 305.77,416.86 306.09,416.86 306.42,416.86 310.96,414.82 314.86,414.82 315.18,414.82 315.83,414.82 317.13,414.82 317.45,414.82 319.08,412.77 319.73,410.73 320.05,410.73 320.38,410.73 320.70,410.73 322.32,410.73 325.57,408.68 326.87,408.68 327.19,406.64 327.84,406.64 328.17,404.59 328.82,402.55 329.47,402.55 330.12,400.50 331.41,398.45 332.06,398.45 334.01,398.45 334.34,398.45 335.64,398.45 337.58,398.45 338.88,398.45 340.18,396.41 340.51,396.41 341.15,396.41 342.13,396.41 343.10,396.41 344.73,396.41 346.35,396.41 347.97,396.41 350.89,394.36 353.49,394.36 353.82,394.36 354.14,394.36 359.01,394.36 359.98,394.36 360.96,394.36 361.28,394.36 362.26,394.36 364.53,394.36 364.85,394.36 366.48,394.36 368.43,392.32 371.67,392.32 372.65,392.32 373.62,392.32 374.92,392.32 375.57,392.32 375.89,392.32 376.54,390.27 378.17,390.27 379.46,390.27 383.68,388.23 385.31,388.23 386.28,388.23 389.20,386.18 389.85,384.14 390.18,384.14 390.50,384.14 392.13,384.14 393.10,384.14 394.40,384.14 394.72,384.14 395.37,384.14 397.64,384.14 397.97,384.14 398.62,384.14 400.89,384.14 401.54,384.14 402.84,384.14 403.81,382.09 404.14,382.09 404.46,382.09 408.36,382.09 409.01,382.09 410.31,382.09 410.63,382.09 411.93,382.09 413.23,382.09 413.55,382.09 413.88,382.09 415.50,382.09 416.15,382.09 417.77,380.05 419.07,378.00 420.05,378.00 421.99,378.00 423.29,378.00 424.92,378.00 425.24,378.00 425.89,378.00 426.54,378.00 427.19,378.00 427.51,375.95 428.49,373.91 428.81,373.91 429.14,373.91 429.46,371.86 431.08,371.86 431.73,369.82 433.03,369.82 433.68,369.82 434.66,369.82 435.31,369.82 436.28,369.82 437.58,369.82 438.88,367.77 440.18,365.73 440.50,365.73 442.12,365.73 442.45,365.73 443.10,365.73 443.42,365.73 444.07,365.73 444.40,365.73 446.02,365.73 447.32,365.73 448.94,363.68 453.49,363.68 453.81,363.68 454.14,361.64 454.46,361.64 455.43,357.55 455.76,357.55 456.08,357.55 456.41,357.55 457.71,355.50 458.36,355.50 458.68,355.50 459.65,353.45 459.98,351.41 460.63,351.41 462.58,351.41 462.90,351.41 463.23,351.41 464.52,351.41 466.80,351.41 467.12,351.41 467.77,351.41 470.04,351.41 471.67,351.41 473.29,349.36 476.21,347.32 477.51,347.32 477.84,347.32 478.16,345.27 478.81,345.27 479.13,343.23 479.46,343.23 480.43,343.23 480.76,343.23 481.73,343.23 483.35,343.23 483.68,339.14 484.00,339.14 484.33,339.14 484.65,339.14 484.98,339.14 485.30,339.14 485.95,339.14 486.28,339.14 486.60,335.05 487.58,335.05 488.22,335.05 488.87,335.05 490.17,335.05 491.47,335.05 491.80,335.05 492.12,333.00 492.45,330.95 494.07,330.95 495.37,330.95 495.69,330.95 496.99,330.95 497.32,330.95 497.64,328.91 500.89,328.91 501.21,328.91 501.86,328.91 503.48,328.91 504.13,328.91 504.78,328.91 506.08,326.86 506.73,326.86 507.05,324.82 507.38,324.82 507.70,322.77 509.00,322.77 509.33,322.77 509.98,322.77 510.30,322.77 511.28,322.77 511.60,322.77 512.90,322.77 515.82,322.77 516.79,322.77 517.77,322.77 518.09,320.73 518.42,320.73 518.74,318.68 519.07,318.68 519.72,318.68 521.99,316.64 523.29,316.64 523.61,316.64 523.94,316.64 524.91,316.64 526.21,314.59 527.51,314.59 529.13,314.59 529.46,314.59 533.03,314.59 534.65,314.59 535.30,314.59 535.95,314.59 538.55,314.59 539.20,314.59 539.52,314.59 540.49,314.59 541.14,314.59 541.79,312.55 542.44,312.55 543.09,312.55 544.39,312.55 544.72,312.55 545.04,312.55 546.66,310.50 547.31,310.50 547.64,310.50 548.61,310.50 549.26,310.50 549.91,310.50 551.53,310.50 551.86,308.45 552.18,308.45 553.16,308.45 553.81,306.41 554.45,306.41 556.08,306.41 559.00,306.41 559.32,306.41 560.62,306.41 560.95,306.41 562.25,306.41 562.57,306.41 562.90,304.36 563.55,304.36 564.52,304.36 564.84,304.36 565.17,304.36 565.82,304.36 567.12,304.36 568.09,302.32 568.42,302.32 572.64,302.32 572.96,302.32 573.93,302.32 574.58,302.32 576.86,302.32 577.83,300.27 578.15,300.27 578.48,300.27 581.08,300.27 581.40,300.27 581.73,300.27 582.70,300.27 583.02,300.27 583.67,300.27 585.95,300.27 586.60,300.27 587.25,296.18 588.22,296.18 588.54,296.18 589.52,296.18 595.04,296.18 596.34,296.18 596.66,296.18 598.28,296.18 598.93,294.14 599.26,294.14 599.58,292.09 599.91,292.09 600.88,290.05 601.85,290.05 602.18,290.05 604.13,290.05 604.45,290.05 605.10,290.05 606.08,290.05 606.72,290.05 607.05,290.05 608.35,290.05 609.00,288.00 609.65,288.00 610.62,288.00 610.95,288.00 615.17,288.00 616.14,285.95 617.11,285.95 617.44,285.95 619.06,285.95 619.39,285.95 619.71,285.95 620.04,285.95 621.33,285.95 622.31,285.95 624.58,285.95 625.56,285.95 625.88,285.95 626.53,283.91 627.18,283.91 629.13,283.91 629.45,283.91 632.70,283.91 633.02,283.91 634.00,283.91 634.32,283.91 635.29,283.91 635.62,279.82 635.94,279.82 637.57,279.82 637.89,279.82 638.87,279.82 640.49,279.82 641.79,279.82 642.76,277.77 646.33,275.73 646.66,273.68 648.61,271.64 649.26,271.64 649.90,269.59 651.20,267.55 651.53,265.50 654.12,265.50 657.05,265.50 657.70,265.50 658.02,263.45 658.35,263.45 661.27,261.41 662.57,259.36 662.89,259.36 663.22,259.36 663.86,257.32 665.16,257.32 665.49,257.32 666.14,257.32 667.44,257.32 669.06,257.32 669.38,255.27 670.03,255.27 670.36,255.27 670.68,253.23 671.01,253.23 671.33,253.23 671.98,253.23 675.88,253.23 678.15,251.18 680.42,249.14 681.40,247.09 681.72,245.05 682.05,245.05 683.02,243.00 683.34,243.00 685.62,240.95 685.94,240.95 687.24,238.91 687.56,238.91 687.89,238.91 689.19,238.91 690.16,236.86 691.46,236.86 692.43,234.82 692.76,232.77 694.71,232.77 695.36,232.77 696.33,232.77 696.66,232.77 697.30,232.77 699.25,230.73 699.90,228.68 700.55,228.68 700.88,228.68 701.53,228.68 701.85,228.68 702.82,228.68 703.15,228.68 703.80,228.68 705.10,228.68 705.42,228.68 706.07,228.68 706.72,228.68 708.02,228.68 708.34,226.64 709.64,226.64 710.94,226.64 712.56,224.59 713.54,224.59 713.86,224.59 715.49,222.55 715.81,222.55 717.11,222.55 718.08,222.55 718.73,220.50 719.71,220.50 721.00,220.50 721.33,220.50 721.98,220.50 724.58,220.50 726.52,218.45 728.80,218.45 732.37,218.45 732.69,216.41 733.02,216.41 734.96,216.41 735.61,216.41 735.94,216.41 736.26,214.36 737.24,214.36 737.56,212.32 738.21,212.32 740.81,212.32 742.43,212.32 743.08,210.27 744.70,208.23 746.00,208.23 748.93,206.18 750.22,204.14 752.17,204.14 758.02,202.09 760.29,200.05 760.94,200.05 763.86,200.05 764.51,200.05 765.16,200.05 767.11,200.05 767.76,200.05 768.40,200.05 768.73,198.00 769.05,198.00 771.65,198.00 774.57,198.00 776.20,198.00 778.14,198.00 781.07,195.95 783.66,195.95 784.96,195.95 785.61,195.95 786.91,195.95 788.53,195.95 789.18,195.95 789.83,195.95 791.78,195.95 793.08,195.95 793.40,195.95 796.33,193.91 796.65,193.91 796.97,191.86 797.62,191.86 798.60,189.82 799.90,189.82 801.84,189.82 802.17,189.82 803.14,187.77 805.42,185.73 807.69,185.73 809.64,185.73 812.23,185.73 812.88,185.73 813.21,185.73 814.18,183.68 814.51,183.68 814.83,183.68 815.48,183.68 816.78,181.64 819.05,181.64 819.38,179.59 820.35,179.59 822.30,179.59 823.92,179.59 824.25,179.59 825.54,179.59 826.52,179.59 826.84,177.55 828.14,177.55 828.79,175.50 830.41,175.50 830.74,173.45 831.06,173.45 833.01,173.45 833.99,173.45 834.31,173.45 836.26,171.41 837.56,171.41 837.88,171.41 838.21,169.36 840.48,169.36 842.10,169.36 846.00,169.36 846.32,169.36 848.27,169.36 851.19,169.36 854.44,169.36 856.39,169.36 856.71,169.36 857.04,169.36 857.69,169.36 860.28,169.36 862.56,169.36 865.80,169.36 866.13,167.32 869.05,167.32 870.02,167.32 871.32,167.32 881.39,167.32 882.68,167.32 883.01,167.32 886.26,167.32 887.88,167.32 890.15,167.32 890.80,165.27 891.13,165.27 893.07,165.27 894.37,165.27 895.02,165.27 895.35,165.27 895.67,165.27 896.64,165.27 898.27,165.27 898.59,163.23 900.22,163.23 902.49,163.23 904.76,163.23 905.41,163.23 908.98,163.23 909.31,163.23 910.93,163.23 912.55,163.23 915.47,163.23 916.77,163.23 919.05,159.14 919.37,159.14 920.02,157.09 921.64,157.09 921.97,157.09 922.62,157.09 923.59,157.09 923.92,157.09 924.24,157.09 924.57,157.09 925.86,157.09 926.19,155.05 928.14,155.05 928.46,155.05 930.08,155.05 930.41,155.05 931.06,155.05 931.71,153.00 932.68,153.00 935.93,153.00 941.77,153.00 943.07,153.00 944.69,150.95 945.99,150.95 947.29,150.95 948.27,150.95 949.24,150.95 951.51,148.91 953.14,148.91 953.78,146.86 956.06,144.82 956.38,142.77 956.71,142.77 960.28,142.77 962.23,142.77 962.55,140.73 965.47,140.73 970.34,140.73 971.64,138.68 971.97,138.68 972.94,138.68 976.84,138.68 981.38,138.68 981.71,136.64 985.93,136.64 988.52,136.64 1001.18,136.64 1004.11,136.64 1005.08,136.64 1006.70,136.64 1007.03,136.64 1012.87,136.64 1015.47,136.64 1020.66,136.64 1022.29,136.64 1024.56,136.64 1031.13,124.36 1034.05,124.36 1034.37,124.36 1035.03,124.36 1035.35,124.36 1036.00,124.36"/>
<circle cx="90.00" cy="468.00" r="3.8" fill="#ffb50c" stroke="#111827" stroke-width="1"/>
<circle cx="191.81" cy="459.82" r="3.8" fill="#ffb50c" stroke="#111827" stroke-width="1"/>
<circle cx="243.11" cy="441.41" r="3.8" fill="#ffb50c" stroke="#111827" stroke-width="1"/>
<circle cx="280.44" cy="429.14" r="3.8" fill="#ffb50c" stroke="#111827" stroke-width="1"/>
<circle cx="317.13" cy="414.82" r="3.8" fill="#ffb50c" stroke="#111827" stroke-width="1"/>
<circle cx="346.35" cy="396.41" r="3.8" fill="#ffb50c" stroke="#111827" stroke-width="1"/>
<circle cx="390.18" cy="384.14" r="3.8" fill="#ffb50c" stroke="#111827" stroke-width="1"/>
<circle cx="421.99" cy="378.00" r="3.8" fill="#ffb50c" stroke="#111827" stroke-width="1"/>
<circle cx="446.02" cy="365.73" r="3.8" fill="#ffb50c" stroke="#111827" stroke-width="1"/>
<circle cx="477.84" cy="347.32" r="3.8" fill="#ffb50c" stroke="#111827" stroke-width="1"/>
<circle cx="496.99" cy="330.95" r="3.8" fill="#ffb50c" stroke="#111827" stroke-width="1"/>
<circle cx="521.99" cy="316.64" r="3.8" fill="#ffb50c" stroke="#111827" stroke-width="1"/>
<circle cx="549.91" cy="310.50" r="3.8" fill="#ffb50c" stroke="#111827" stroke-width="1"/>
<circle cx="578.15" cy="300.27" r="3.8" fill="#ffb50c" stroke="#111827" stroke-width="1"/>
<circle cx="606.72" cy="290.05" r="3.8" fill="#ffb50c" stroke="#111827" stroke-width="1"/>
<circle cx="635.62" cy="279.82" r="3.8" fill="#ffb50c" stroke="#111827" stroke-width="1"/>
<circle cx="669.06" cy="257.32" r="3.8" fill="#ffb50c" stroke="#111827" stroke-width="1"/>
<circle cx="696.66" cy="232.77" r="3.8" fill="#ffb50c" stroke="#111827" stroke-width="1"/>
<circle cx="721.33" cy="220.50" r="3.8" fill="#ffb50c" stroke="#111827" stroke-width="1"/>
<circle cx="767.11" cy="200.05" r="3.8" fill="#ffb50c" stroke="#111827" stroke-width="1"/>
<circle cx="805.42" cy="185.73" r="3.8" fill="#ffb50c" stroke="#111827" stroke-width="1"/>
<circle cx="837.56" cy="171.41" r="3.8" fill="#ffb50c" stroke="#111827" stroke-width="1"/>
<circle cx="893.07" cy="165.27" r="3.8" fill="#ffb50c" stroke="#111827" stroke-width="1"/>
<circle cx="926.19" cy="155.05" r="3.8" fill="#ffb50c" stroke="#111827" stroke-width="1"/>
<circle cx="972.94" cy="138.68" r="3.8" fill="#ffb50c" stroke="#111827" stroke-width="1"/>
<circle cx="1036.00" cy="124.36" r="3.8" fill="#ffb50c" stroke="#111827" stroke-width="1"/>
<text x="1028.00" y="114.36" text-anchor="end" fill="#ffb50c" font-size="12" font-family="-apple-system,BlinkMacSystemFont,Segoe UI,Helvetica,Arial,sans-serif">168</text>
<rect x="90.00" y="514.00" width="14" height="14" fill="url(#repo-0)" rx="3"/>
<text x="112.00" y="526.00" fill="#3bf2af" font-size="13" font-family="-apple-system,BlinkMacSystemFont,Segoe UI,Helvetica,Arial,sans-serif">bavix/gripmock</text>
<rect x="280.00" y="514.00" width="14" height="14" fill="url(#repo-1)" rx="3"/>
<text x="302.00" y="526.00" fill="#ffb50c" font-size="13" font-family="-apple-system,BlinkMacSystemFont,Segoe UI,Helvetica,Arial,sans-serif">tokopedia/gripmock</text>
<text x="1036.00" y="526.00" text-anchor="end" fill="#9ca3af" font-size="12" font-family="-apple-system,BlinkMacSystemFont,Segoe UI,Helvetica,Arial,sans-serif">Source: https://github.com/bavix/artifact-stats/blob/master/stats/github.csv</text>
</svg>