<svg xmlns="http://www.w3.org/2000/svg" width="1100" height="560" viewBox="0 0 1100 560">
<defs>
<linearGradient id="bg" x1="0" y1="0" x2="1" y2="1"><stop offset="0%" stop-color="#0b1220"/><stop offset="100%" stop-color="#111827"/></linearGradient>
<linearGradient id="repo-0" x1="0" y1="0" x2="0" y2="1"><stop offset="0%" stop-color="#34d399"/><stop offset="100%" stop-color="#059669"/></linearGradient>
<linearGradient id="repo-1" x1="0" y1="0" x2="0" y2="1"><stop offset="0%" stop-color="#f59e0b"/><stop offset="100%" stop-color="#d97706"/></linearGradient>
</defs>
<rect x="0" y="0" width="1100" height="560" fill="url(#bg)" rx="16"/>
<text x="90" y="44" fill="#f9fafb" font-size="28" font-family="-apple-system,BlinkMacSystemFont,Segoe UI,Helvetica,Arial,sans-serif" font-weight="700">GripMock GitHub Metrics - Forks</text>
<text x="90" y="70" fill="#9ca3af" font-size="16" font-family="-apple-system,BlinkMacSystemFont,Segoe UI,Helvetica,Arial,sans-serif">GitHub forks by snapshot date</text>
<line x1="90" y1="90.00" x2="1036" y2="90.00" stroke="#1f2937" stroke-width="1"/>
<text x="80" y="95.00" text-anchor="end" fill="#9ca3af" font-size="12" font-family="-apple-system,BlinkMacSystemFont,Segoe UI,Helvetica,Arial,sans-serif">185</text>
<line x1="90" y1="153.00" x2="1036" y2="153.00" stroke="#1f2937" stroke-width="1"/>
<text x="80" y="158.00" text-anchor="end" fill="#9ca3af" font-size="12" font-family="-apple-system,BlinkMacSystemFont,Segoe UI,Helvetica,Arial,sans-serif">154</text>
<line x1="90" y1="216.00" x2="1036" y2="216.00" stroke="#1f2937" stroke-width="1"/>
<text x="80" y="221.00" text-anchor="end" fill="#9ca3af" font-size="12" font-family="-apple-system,BlinkMacSystemFont,Segoe UI,Helvetica,Arial,sans-serif">123</text>
<line x1="90" y1="279.00" x2="1036" y2="279.00" stroke="#1f2937" stroke-width="1"/>
<text x="80" y="284.00" text-anchor="end" fill="#9ca3af" font-size="12" font-family="-apple-system,BlinkMacSystemFont,Segoe UI,Helvetica,Arial,sans-serif">92</text>
<line x1="90" y1="342.00" x2="1036" y2="342.00" stroke="#1f2937" stroke-width="1"/>
<text x="80" y="347.00" text-anchor="end" fill="#9ca3af" font-size="12" font-family="-apple-system,BlinkMacSystemFont,Segoe UI,Helvetica,Arial,sans-serif">62</text>
<line x1="90" y1="405.00" x2="1036" y2="405.00" stroke="#1f2937" stroke-width="1"/>
<text x="80" y="410.00" text-anchor="end" fill="#9ca3af" font-size="12" font-family="-apple-system,BlinkMacSystemFont,Segoe UI,Helvetica,Arial,sans-serif">31</text>
<line x1="90" y1="468.00" x2="1036" y2="468.00" stroke="#1f2937" stroke-width="1"/>
<text x="80" y="473.00" text-anchor="end" fill="#9ca3af" font-size="12" font-family="-apple-system,BlinkMacSystemFont,Segoe UI,Helvetica,Arial,sans-serif">0</text>
<line x1="90" y1="468" x2="1036" y2="468" stroke="#4b5563" stroke-width="1.4"/>
<line x1="90" y1="90" x2="90" y2="468" stroke="#4b5563" stroke-width="1.4"/>
<line x1="90.00" y1="468" x2="90.00" y2="474" stroke="#6b7280" stroke-width="1"/>
<text x="90.00" y="494" text-anchor="start" fill="#9ca3af" font-size="12" font-family="-apple-system,BlinkMacSystemFont,Segoe UI,Helvetica,Arial,sans-serif">2018-04-24</text>
<line x1="279.20" y1="468" x2="279.20" y2="474" stroke="#6b7280" stroke-width="1"/>
<text x="279.20" y="494" text-anchor="middle" fill="#9ca3af" font-size="12" font-family="-apple-system,BlinkMacSystemFont,Segoe UI,Helvetica,Arial,sans-serif">2019-11-28</text>
<line x1="468.40" y1="468" x2="468.40" y2="474" stroke="#6b7280" stroke-width="1"/>
<text x="468.40" y="494" text-anchor="middle" fill="#9ca3af" font-size="12" font-family="-apple-system,BlinkMacSystemFont,Segoe UI,Helvetica,Arial,sans-serif">2021-07-04</text>
<line x1="657.60" y1="468" x2="657.60" y2="474" stroke="#6b7280" stroke-width="1"/>
<text x="657.60" y="494" text-anchor="middle" fill="#9ca3af" font-size="12" font-family="-apple-system,BlinkMacSystemFont,Segoe UI,Helvetica,Arial,sans-serif">2023-02-07</text>
<line x1="846.80" y1="468" x2="846.80" y2="474" stroke="#6b7280" stroke-width="1"/>
<text x="846.80" y="494" text-anchor="middle" fill="#9ca3af" font-size="12" font-family="-apple-system,BlinkMacSystemFont,Segoe UI,Helvetica,Arial,sans-serif">2024-09-12</text>
<line x1="1036.00" y1="468" x2="1036.00" y2="474" stroke="#6b7280" stroke-width="1"/>
<text x="1036.00" y="494" text-anchor="end" fill="#9ca3af" font-size="12" font-family="-apple-system,BlinkMacSystemFont,Segoe UI,Helvetica,Arial,sans-serif">2026-04-19</text>
<polyline fill="none" stroke="url(#repo-0)" stroke-width="4" stroke-linecap="round" stroke-linejoin="round" points="719.19,468.00 725.87,468.00 738.84,468.00 752.46,468.00 754.41,468.00 757.65,468.00 769.33,468.00 771.60,468.00 777.11,468.00 777.44,468.00 782.30,468.00 790.09,468.00 802.41,468.00 805.65,468.00 809.87,468.00 813.44,468.00 828.36,468.00 832.90,468.00 833.55,468.00 834.84,468.00 841.00,468.00 854.63,468.00 857.55,468.00 864.36,468.00 869.87,468.00 870.52,468.00 871.17,468.00 891.27,468.00 893.87,468.00 894.52,468.00 900.68,468.00 901.33,468.00 905.22,465.95 906.52,465.95 906.84,465.95 907.17,465.95 910.09,463.91 911.71,463.91 913.33,463.91 918.52,461.86 923.06,459.82 924.68,459.82 925.33,457.77 932.14,457.77 936.03,457.77 947.71,457.77 949.98,457.77 950.63,455.73 952.57,455.73 954.52,455.73 957.44,453.68 962.63,453.68 969.44,453.68 973.65,453.68 985.00,453.68 987.27,453.68 992.14,453.68 992.46,453.68 993.44,453.68 996.03,453.68 996.36,451.64 1005.11,451.64 1011.92,451.64 1012.57,451.64 1014.84,451.64 1021.33,451.64 1023.60,451.64 1025.22,451.64 1026.84,451.64 1030.16,451.64 1031.13,451.64 1031.46,451.64 1032.10,451.64 1032.43,451.64 1032.75,451.64 1036.00,451.64"/>
<circle cx="719.19" cy="468.00" r="3.8" fill="#3bf2af" stroke="#111827" stroke-width="1"/>
<circle cx="752.46" cy="468.00" r="3.8" fill="#3bf2af" stroke="#111827" stroke-width="1"/>
<circle cx="769.33" cy="468.00" r="3.8" fill="#3bf2af" stroke="#111827" stroke-width="1"/>
<circle cx="777.44" cy="468.00" r="3.8" fill="#3bf2af" stroke="#111827" stroke-width="1"/>
<circle cx="802.41" cy="468.00" r="3.8" fill="#3bf2af" stroke="#111827" stroke-width="1"/>
<circle cx="813.44" cy="468.00" r="3.8" fill="#3bf2af" stroke="#111827" stroke-width="1"/>
<circle cx="833.55" cy="468.00" r="3.8" fill="#3bf2af" stroke="#111827" stroke-width="1"/>
<circle cx="854.63" cy="468.00" r="3.8" fill="#3bf2af" stroke="#111827" stroke-width="1"/>
<circle cx="869.87" cy="468.00" r="3.8" fill="#3bf2af" stroke="#111827" stroke-width="1"/>
<circle cx="891.27" cy="468.00" r="3.8" fill="#3bf2af" stroke="#111827" stroke-width="1"/>
<circle cx="900.68" cy="468.00" r="3.8" fill="#3bf2af" stroke="#111827" stroke-width="1"/>
<circle cx="906.52" cy="465.95" r="3.8" fill="#3bf2af" stroke="#111827" stroke-width="1"/>
<circle cx="910.09" cy="463.91" r="3.8" fill="#3bf2af" stroke="#111827" stroke-width="1"/>
<circle cx="918.52" cy="461.86" r="3.8" fill="#3bf2af" stroke="#111827" stroke-width="1"/>
<circle cx="925.33" cy="457.77" r="3.8" fill="#3bf2af" stroke="#111827" stroke-width="1"/>
<circle cx="947.71" cy="457.77" r="3.8" fill="#3bf2af" stroke="#111827" stroke-width="1"/>
<circle cx="952.57" cy="455.73" r="3.8" fill="#3bf2af" stroke="#111827" stroke-width="1"/>
<circle cx="962.63" cy="453.68" r="3.8" fill="#3bf2af" stroke="#111827" stroke-width="1"/>
<circle cx="985.00" cy="453.68" r="3.8" fill="#3bf2af" stroke="#111827" stroke-width="1"/>
<circle cx="992.46" cy="453.68" r="3.8" fill="#3bf2af" stroke="#111827" stroke-width="1"/>
<circle cx="996.36" cy="451.64" r="3.8" fill="#3bf2af" stroke="#111827" stroke-width="1"/>
<circle cx="1012.57" cy="451.64" r="3.8" fill="#3bf2af" stroke="#111827" stroke-width="1"/>
<circle cx="1023.60" cy="451.64" r="3.8" fill="#3bf2af" stroke="#111827" stroke-width="1"/>
<circle cx="1030.16" cy="451.64" r="3.8" fill="#3bf2af" stroke="#111827" stroke-width="1"/>
<circle cx="1032.10" cy="451.64" r="3.8" fill="#3bf2af" stroke="#111827" stroke-width="1"/>
<circle cx="1036.00" cy="451.64" r="3.8" fill="#3bf2af" stroke="#111827" stroke-width="1"/>
<text x="1028.00" y="441.64" text-anchor="end" fill="#3bf2af" font-size="12" font-family="-apple-system,BlinkMacSystemFont,Segoe UI,Helvetica,Arial,sans-serif">8</text>
<polyline fill="none" stroke="url(#repo-1)" stroke-width="4" stroke-linecap="round" stroke-linejoin="round" points="90.00,468.00 91.81,468.00 92.46,468.00 96.03,468.00 99.60,468.00 136.57,468.00 137.54,465.95 143.38,463.91 149.22,463.91 153.76,461.86 157.33,461.86 157.98,461.86 158.30,461.86 158.63,461.86 160.25,461.86 160.90,461.86 165.11,459.82 165.44,459.82 169.33,459.82 170.30,459.82 170.63,459.82 172.25,459.82 173.87,459.82 175.81,459.82 176.79,459.82 181.98,459.82 184.57,459.82 186.19,459.82 186.52,459.82 191.71,459.82 192.03,459.82 192.68,457.77 195.92,457.77 196.57,457.77 196.90,455.73 197.22,453.68 203.06,453.68 204.68,451.64 210.84,451.64 212.14,451.64 212.79,449.59 215.38,447.55 218.30,447.55 222.19,445.50 222.52,445.50 224.79,445.50 227.06,445.50 230.30,445.50 231.27,445.50 233.54,445.50 235.81,445.50 237.76,445.50 238.09,445.50 238.41,445.50 241.00,445.50 241.65,445.50 242.30,445.50 242.63,443.45 242.95,441.41 243.27,441.41 245.87,441.41 246.52,441.41 249.11,439.36 254.63,439.36 255.27,437.32 255.60,437.32 255.92,437.32 256.57,433.23 257.87,433.23 258.19,433.23 260.14,433.23 260.46,433.23 262.73,433.23 263.71,433.23 264.36,433.23 265.33,431.18 266.95,431.18 267.27,429.14 268.25,429.14 271.17,429.14 274.73,429.14 275.71,429.14 276.68,429.14 277.00,429.14 278.30,429.14 278.63,429.14 279.27,429.14 280.25,429.14 281.87,429.14 282.52,429.14 282.84,429.14 283.17,429.14 284.79,429.14 285.76,429.14 286.41,429.14 287.71,427.09 288.03,425.05 289.65,425.05 293.22,425.05 295.17,425.05 296.79,423.00 297.11,423.00 299.38,423.00 301.00,423.00 301.33,420.95 303.27,420.95 303.60,420.95 304.25,418.91 305.22,416.86 305.54,416.86 305.87,416.86 306.19,416.86 310.73,414.82 314.63,414.82 314.95,414.82 315.60,414.82 316.90,414.82 317.22,414.82 318.84,412.77 319.49,410.73 319.82,410.73 320.14,410.73 320.46,410.73 322.09,410.73 325.33,408.68 326.63,408.68 326.95,406.64 327.60,406.64 327.92,404.59 328.57,402.55 329.22,402.55 329.87,400.50 331.17,398.45 331.82,398.45 333.76,398.45 334.09,398.45 335.38,398.45 337.33,398.45 338.63,398.45 339.92,396.41 340.25,396.41 340.90,396.41 341.87,396.41 342.84,396.41 344.46,396.41 346.09,396.41 347.71,396.41 350.63,394.36 353.22,394.36 353.54,394.36 353.87,394.36 358.73,394.36 359.71,394.36 360.68,394.36 361.00,394.36 361.98,394.36 364.25,394.36 364.57,394.36 366.19,394.36 368.14,392.32 371.38,392.32 372.36,392.32 373.33,392.32 374.63,392.32 375.27,392.32 375.60,392.32 376.25,390.27 377.87,390.27 379.17,390.27 383.38,388.23 385.00,388.23 385.98,388.23 388.90,386.18 389.54,384.14 389.87,384.14 390.19,384.14 391.82,384.14 392.79,384.14 394.09,384.14 394.41,384.14 395.06,384.14 397.33,384.14 397.65,384.14 398.30,384.14 400.57,384.14 401.22,384.14 402.52,384.14 403.49,382.09 403.82,382.09 404.14,382.09 408.03,382.09 408.68,382.09 409.98,382.09 410.30,382.09 411.60,382.09 412.90,382.09 413.22,382.09 413.54,382.09 415.17,382.09 415.82,382.09 417.44,380.05 418.73,378.00 419.71,378.00 421.65,378.00 422.95,378.00 424.57,378.00 424.90,378.00 425.54,378.00 426.19,378.00 426.84,378.00 427.17,375.95 428.14,373.91 428.46,373.91 428.79,373.91 429.11,371.86 430.73,371.86 431.38,369.82 432.68,369.82 433.33,369.82 434.30,369.82 434.95,369.82 435.92,369.82 437.22,369.82 438.52,367.77 439.82,365.73 440.14,365.73 441.76,365.73 442.09,365.73 442.73,365.73 443.06,365.73 443.71,365.73 444.03,365.73 445.65,365.73 446.95,365.73 448.57,363.68 453.11,363.68 453.44,363.68 453.76,361.64 454.09,361.64 455.06,357.55 455.38,357.55 455.71,357.55 456.03,357.55 457.33,355.50 457.98,355.50 458.30,355.50 459.27,353.45 459.60,351.41 460.25,351.41 462.19,351.41 462.52,351.41 462.84,351.41 464.14,351.41 466.41,351.41 466.73,351.41 467.38,351.41 469.65,351.41 471.27,351.41 472.90,349.36 475.82,347.32 477.11,347.32 477.44,347.32 477.76,345.27 478.41,345.27 478.73,343.23 479.06,343.23 480.03,343.23 480.36,343.23 481.33,343.23 482.95,343.23 483.27,339.14 483.60,339.14 483.92,339.14 484.25,339.14 484.57,339.14 484.90,339.14 485.54,339.14 485.87,339.14 486.19,335.05 487.17,335.05 487.82,335.05 488.46,335.05 489.76,335.05 491.06,335.05 491.38,335.05 491.71,333.00 492.03,330.95 493.65,330.95 494.95,330.95 495.27,330.95 496.57,330.95 496.90,330.95 497.22,328.91 500.46,328.91 500.79,328.91 501.44,328.91 503.06,328.91 503.71,328.91 504.36,328.91 505.65,326.86 506.30,326.86 506.63,324.82 506.95,324.82 507.27,322.77 508.57,322.77 508.90,322.77 509.54,322.77 509.87,322.77 510.84,322.77 511.17,322.77 512.46,322.77 515.38,322.77 516.36,322.77 517.33,322.77 517.65,320.73 517.98,320.73 518.30,318.68 518.63,318.68 519.27,318.68 521.54,316.64 522.84,316.64 523.17,316.64 523.49,316.64 524.46,316.64 525.76,314.59 527.06,314.59 528.68,314.59 529.00,314.59 532.57,314.59 534.19,314.59 534.84,314.59 535.49,314.59 538.09,314.59 538.73,314.59 539.06,314.59 540.03,314.59 540.68,314.59 541.33,312.55 541.98,312.55 542.63,312.55 543.92,312.55 544.25,312.55 544.57,312.55 546.19,310.50 546.84,310.50 547.17,310.50 548.14,310.50 548.79,310.50 549.44,310.50 551.06,310.50 551.38,308.45 551.71,308.45 552.68,308.45 553.33,306.41 553.98,306.41 555.60,306.41 558.52,306.41 558.84,306.41 560.14,306.41 560.46,306.41 561.76,306.41 562.09,306.41 562.41,304.36 563.06,304.36 564.03,304.36 564.36,304.36 564.68,304.36 565.33,304.36 566.63,304.36 567.60,302.32 567.92,302.32 572.14,302.32 572.46,302.32 573.44,302.32 574.09,302.32 576.36,302.32 577.33,300.27 577.65,300.27 577.98,300.27 580.57,300.27 580.90,300.27 581.22,300.27 582.19,300.27 582.52,300.27 583.17,300.27 585.44,300.27 586.09,300.27 586.73,296.18 587.71,296.18 588.03,296.18 589.00,296.18 594.52,296.18 595.82,296.18 596.14,296.18 597.76,296.18 598.41,294.14 598.73,294.14 599.06,292.09 599.38,292.09 600.36,290.05 601.33,290.05 601.65,290.05 603.60,290.05 603.92,290.05 604.57,290.05 605.54,290.05 606.19,290.05 606.52,290.05 607.82,290.05 608.46,288.00 609.11,288.00 610.09,288.00 610.41,288.00 614.63,288.00 615.60,285.95 616.57,285.95 616.90,285.95 618.52,285.95 618.84,285.95 619.17,285.95 619.49,285.95 620.79,285.95 621.76,285.95 624.03,285.95 625.00,285.95 625.33,285.95 625.98,283.91 626.63,283.91 628.57,283.91 628.90,283.91 632.14,283.91 632.46,283.91 633.44,283.91 633.76,283.91 634.73,283.91 635.06,279.82 635.38,279.82 637.00,279.82 637.33,279.82 638.30,279.82 639.92,279.82 641.22,279.82 642.19,277.77 645.76,275.73 646.09,273.68 648.03,271.64 648.68,271.64 649.33,269.59 650.63,267.55 650.95,265.50 653.54,265.50 656.46,265.50 657.11,265.50 657.44,263.45 657.76,263.45 660.68,261.41 661.98,259.36 662.30,259.36 662.63,259.36 663.27,257.32 664.57,257.32 664.90,257.32 665.54,257.32 666.84,257.32 668.46,257.32 668.79,255.27 669.44,255.27 669.76,255.27 670.09,253.23 670.41,253.23 670.73,253.23 671.38,253.23 675.27,253.23 677.54,251.18 679.82,249.14 680.79,247.09 681.11,245.05 681.44,245.05 682.41,243.00 682.73,243.00 685.00,240.95 685.33,240.95 686.63,238.91 686.95,238.91 687.27,238.91 688.57,238.91 689.55,236.86 690.84,236.86 691.82,234.82 692.14,232.77 694.09,232.77 694.73,232.77 695.71,232.77 696.03,232.77 696.68,232.77 698.63,230.73 699.27,228.68 699.92,228.68 700.25,228.68 700.90,228.68 701.22,228.68 702.19,228.68 702.52,228.68 703.17,228.68 704.46,228.68 704.79,228.68 705.44,228.68 706.09,228.68 707.38,228.68 707.71,226.64 709.00,226.64 710.30,226.64 711.92,224.59 712.90,224.59 713.22,224.59 714.84,222.55 715.17,222.55 716.46,222.55 717.44,222.55 718.09,220.50 719.06,220.50 720.36,220.50 720.68,220.50 721.33,220.50 723.92,220.50 725.87,218.45 728.14,218.45 731.71,218.45 732.03,216.41 732.36,216.41 734.30,216.41 734.95,216.41 735.27,216.41 735.60,214.36 736.57,214.36 736.90,212.32 737.55,212.32 740.14,212.32 741.76,212.32 742.41,210.27 744.03,208.23 745.33,208.23 748.25,206.18 749.55,204.14 751.49,204.14 757.33,202.09 759.60,200.05 760.25,200.05 763.17,200.05 763.82,200.05 764.46,200.05 766.41,200.05 767.06,200.05 767.71,200.05 768.03,198.00 768.36,198.00 770.95,198.00 773.87,198.00 775.49,198.00 777.44,198.00 780.36,195.95 782.95,195.95 784.25,195.95 784.90,195.95 786.19,195.95 787.82,195.95 788.46,195.95 789.11,195.95 791.06,195.95 792.36,195.95 792.68,195.95 795.60,193.91 795.92,193.91 796.25,191.86 796.90,191.86 797.87,189.82 799.17,189.82 801.11,189.82 801.44,189.82 802.41,187.77 804.68,185.73 806.95,185.73 808.90,185.73 811.49,185.73 812.14,185.73 812.46,185.73 813.44,183.68 813.76,183.68 814.09,183.68 814.73,183.68 816.03,181.64 818.30,181.64 818.63,179.59 819.60,179.59 821.55,179.59 823.17,179.59 823.49,179.59 824.79,179.59 825.76,179.59 826.09,177.55 827.38,177.55 828.03,175.50 829.65,175.50 829.98,173.45 830.30,173.45 832.25,173.45 833.22,173.45 833.55,173.45 835.49,171.41 836.79,171.41 837.11,171.41 837.44,169.36 839.71,169.36 841.33,169.36 845.22,169.36 845.55,169.36 847.49,169.36 850.41,169.36 853.65,169.36 855.60,169.36 855.92,169.36 856.25,169.36 856.90,169.36 859.49,169.36 861.76,169.36 865.00,169.36 865.33,167.32 868.25,167.32 869.22,167.32 870.52,167.32 880.57,167.32 881.87,167.32 882.19,167.32 885.44,167.32 887.06,167.32 889.33,167.32 889.98,165.27 890.30,165.27 892.25,165.27 893.55,165.27 894.19,165.27 894.52,165.27 894.84,165.27 895.82,165.27 897.44,165.27 897.76,163.23 899.38,163.23 901.65,163.23 903.92,163.23 904.57,163.23 908.14,163.23 908.46,163.23 910.09,163.23 911.71,163.23 914.63,163.23 915.92,163.23 918.19,159.14 918.52,159.14 919.17,157.09 920.79,157.09 921.11,157.09 921.76,157.09 922.73,157.09 923.06,157.09 923.38,157.09 923.71,157.09 925.00,157.09 925.33,155.05 927.27,155.05 927.60,155.05 929.22,155.05 929.55,155.05 930.19,155.05 930.84,153.00 931.82,153.00 935.06,153.00 940.90,153.00 942.19,153.00 943.82,150.95 945.11,150.95 946.41,150.95 947.38,150.95 948.36,150.95 950.63,148.91 952.25,148.91 952.90,146.86 955.17,144.82 955.49,142.77 955.82,142.77 959.38,142.77 961.33,142.77 961.65,140.73 964.57,140.73 969.44,140.73 970.73,138.68 971.06,138.68 972.03,138.68 975.92,138.68 980.46,138.68 980.79,136.64 985.00,136.64 987.60,136.64 1000.25,136.64 1003.17,136.64 1004.14,136.64 1005.76,136.64 1006.09,136.64 1011.92,136.64 1014.52,136.64 1019.71,136.64 1021.33,136.64 1023.60,136.64 1030.16,124.36 1033.08,124.36 1033.40,124.36 1034.06,124.36 1034.38,124.36 1035.35,124.36 1035.67,124.36 1036.00,124.36"/>
<circle cx="90.00" cy="468.00" r="3.8" fill="#ffb50c" stroke="#111827" stroke-width="1"/>
<circle cx="192.03" cy="459.82" r="3.8" fill="#ffb50c" stroke="#111827" stroke-width="1"/>
<circle cx="245.87" cy="441.41" r="3.8" fill="#ffb50c" stroke="#111827" stroke-width="1"/>
<circle cx="282.84" cy="429.14" r="3.8" fill="#ffb50c" stroke="#111827" stroke-width="1"/>
<circle cx="319.82" cy="410.73" r="3.8" fill="#ffb50c" stroke="#111827" stroke-width="1"/>
<circle cx="353.87" cy="394.36" r="3.8" fill="#ffb50c" stroke="#111827" stroke-width="1"/>
<circle cx="395.06" cy="384.14" r="3.8" fill="#ffb50c" stroke="#111827" stroke-width="1"/>
<circle cx="427.17" cy="375.95" r="3.8" fill="#ffb50c" stroke="#111827" stroke-width="1"/>
<circle cx="455.38" cy="357.55" r="3.8" fill="#ffb50c" stroke="#111827" stroke-width="1"/>
<circle cx="483.27" cy="339.14" r="3.8" fill="#ffb50c" stroke="#111827" stroke-width="1"/>
<circle cx="506.30" cy="326.86" r="3.8" fill="#ffb50c" stroke="#111827" stroke-width="1"/>
<circle cx="534.84" cy="314.59" r="3.8" fill="#ffb50c" stroke="#111827" stroke-width="1"/>
<circle cx="561.76" cy="306.41" r="3.8" fill="#ffb50c" stroke="#111827" stroke-width="1"/>
<circle cx="589.00" cy="296.18" r="3.8" fill="#ffb50c" stroke="#111827" stroke-width="1"/>
<circle cx="619.49" cy="285.95" r="3.8" fill="#ffb50c" stroke="#111827" stroke-width="1"/>
<circle cx="653.54" cy="265.50" r="3.8" fill="#ffb50c" stroke="#111827" stroke-width="1"/>
<circle cx="685.00" cy="240.95" r="3.8" fill="#ffb50c" stroke="#111827" stroke-width="1"/>
<circle cx="709.00" cy="226.64" r="3.8" fill="#ffb50c" stroke="#111827" stroke-width="1"/>
<circle cx="744.03" cy="208.23" r="3.8" fill="#ffb50c" stroke="#111827" stroke-width="1"/>
<circle cx="792.68" cy="195.95" r="3.8" fill="#ffb50c" stroke="#111827" stroke-width="1"/>
<circle cx="827.38" cy="177.55" r="3.8" fill="#ffb50c" stroke="#111827" stroke-width="1"/>
<circle cx="880.57" cy="167.32" r="3.8" fill="#ffb50c" stroke="#111827" stroke-width="1"/>
<circle cx="921.11" cy="157.09" r="3.8" fill="#ffb50c" stroke="#111827" stroke-width="1"/>
<circle cx="961.33" cy="142.77" r="3.8" fill="#ffb50c" stroke="#111827" stroke-width="1"/>
<circle cx="1036.00" cy="124.36" r="3.8" fill="#ffb50c" stroke="#111827" stroke-width="1"/>
<text x="1028.00" y="114.36" text-anchor="end" fill="#ffb50c" font-size="12" font-family="-apple-system,BlinkMacSystemFont,Segoe UI,Helvetica,Arial,sans-serif">168</text>
<rect x="90.00" y="514.00" width="14" height="14" fill="url(#repo-0)" rx="3"/>
<text x="112.00" y="526.00" fill="#3bf2af" font-size="13" font-family="-apple-system,BlinkMacSystemFont,Segoe UI,Helvetica,Arial,sans-serif">bavix/gripmock</text>
<rect x="280.00" y="514.00" width="14" height="14" fill="url(#repo-1)" rx="3"/>
<text x="302.00" y="526.00" fill="#ffb50c" font-size="13" font-family="-apple-system,BlinkMacSystemFont,Segoe UI,Helvetica,Arial,sans-serif">tokopedia/gripmock</text>
<text x="1036.00" y="526.00" text-anchor="end" fill="#9ca3af" font-size="12" font-family="-apple-system,BlinkMacSystemFont,Segoe UI,Helvetica,Arial,sans-serif">Source: https://github.com/bavix/artifact-stats/blob/master/stats/github.csv</text>
</svg>