<svg xmlns="http://www.w3.org/2000/svg" width="1100" height="560" viewBox="0 0 1100 560">
<defs>
<linearGradient id="bg" x1="0" y1="0" x2="1" y2="1"><stop offset="0%" stop-color="#0b1220"/><stop offset="100%" stop-color="#111827"/></linearGradient>
<linearGradient id="repo-0" x1="0" y1="0" x2="0" y2="1"><stop offset="0%" stop-color="#34d399"/><stop offset="100%" stop-color="#059669"/></linearGradient>
<linearGradient id="repo-1" x1="0" y1="0" x2="0" y2="1"><stop offset="0%" stop-color="#f59e0b"/><stop offset="100%" stop-color="#d97706"/></linearGradient>
</defs>
<rect x="0" y="0" width="1100" height="560" fill="url(#bg)" rx="16"/>
<text x="90" y="44" fill="#f9fafb" font-size="28" font-family="-apple-system,BlinkMacSystemFont,Segoe UI,Helvetica,Arial,sans-serif" font-weight="700">GripMock GitHub Metrics - Forks</text>
<text x="90" y="70" fill="#9ca3af" font-size="16" font-family="-apple-system,BlinkMacSystemFont,Segoe UI,Helvetica,Arial,sans-serif">GitHub forks by snapshot date</text>
<line x1="90" y1="90.0" x2="1036" y2="90.0" stroke="#1f2937" stroke-width="1"/>
<text x="80" y="95.0" text-anchor="end" fill="#9ca3af" font-size="12" font-family="-apple-system,BlinkMacSystemFont,Segoe UI,Helvetica,Arial,sans-serif">185</text>
<line x1="90" y1="153.0" x2="1036" y2="153.0" stroke="#1f2937" stroke-width="1"/>
<text x="80" y="158.0" text-anchor="end" fill="#9ca3af" font-size="12" font-family="-apple-system,BlinkMacSystemFont,Segoe UI,Helvetica,Arial,sans-serif">154</text>
<line x1="90" y1="216.0" x2="1036" y2="216.0" stroke="#1f2937" stroke-width="1"/>
<text x="80" y="221.0" text-anchor="end" fill="#9ca3af" font-size="12" font-family="-apple-system,BlinkMacSystemFont,Segoe UI,Helvetica,Arial,sans-serif">123</text>
<line x1="90" y1="279.0" x2="1036" y2="279.0" stroke="#1f2937" stroke-width="1"/>
<text x="80" y="284.0" text-anchor="end" fill="#9ca3af" font-size="12" font-family="-apple-system,BlinkMacSystemFont,Segoe UI,Helvetica,Arial,sans-serif">92</text>
<line x1="90" y1="342.0" x2="1036" y2="342.0" stroke="#1f2937" stroke-width="1"/>
<text x="80" y="347.0" text-anchor="end" fill="#9ca3af" font-size="12" font-family="-apple-system,BlinkMacSystemFont,Segoe UI,Helvetica,Arial,sans-serif">62</text>
<line x1="90" y1="405.0" x2="1036" y2="405.0" stroke="#1f2937" stroke-width="1"/>
<text x="80" y="410.0" text-anchor="end" fill="#9ca3af" font-size="12" font-family="-apple-system,BlinkMacSystemFont,Segoe UI,Helvetica,Arial,sans-serif">31</text>
<line x1="90" y1="468.0" x2="1036" y2="468.0" stroke="#1f2937" stroke-width="1"/>
<text x="80" y="473.0" text-anchor="end" fill="#9ca3af" font-size="12" font-family="-apple-system,BlinkMacSystemFont,Segoe UI,Helvetica,Arial,sans-serif">0</text>
<line x1="90" y1="468" x2="1036" y2="468" stroke="#4b5563" stroke-width="1.4"/>
<line x1="90" y1="90" x2="90" y2="468" stroke="#4b5563" stroke-width="1.4"/>
<line x1="90.0" y1="468" x2="90.0" y2="474" stroke="#6b7280" stroke-width="1"/>
<text x="90.0" y="494" text-anchor="start" fill="#9ca3af" font-size="12" font-family="-apple-system,BlinkMacSystemFont,Segoe UI,Helvetica,Arial,sans-serif">2018-04-24</text>
<line x1="279.2" y1="468" x2="279.2" y2="474" stroke="#6b7280" stroke-width="1"/>
<text x="279.2" y="494" text-anchor="middle" fill="#9ca3af" font-size="12" font-family="-apple-system,BlinkMacSystemFont,Segoe UI,Helvetica,Arial,sans-serif">2019-11-25</text>
<line x1="468.4" y1="468" x2="468.4" y2="474" stroke="#6b7280" stroke-width="1"/>
<text x="468.4" y="494" text-anchor="middle" fill="#9ca3af" font-size="12" font-family="-apple-system,BlinkMacSystemFont,Segoe UI,Helvetica,Arial,sans-serif">2021-06-28</text>
<line x1="657.6" y1="468" x2="657.6" y2="474" stroke="#6b7280" stroke-width="1"/>
<text x="657.6" y="494" text-anchor="middle" fill="#9ca3af" font-size="12" font-family="-apple-system,BlinkMacSystemFont,Segoe UI,Helvetica,Arial,sans-serif">2023-01-29</text>
<line x1="846.8" y1="468" x2="846.8" y2="474" stroke="#6b7280" stroke-width="1"/>
<text x="846.8" y="494" text-anchor="middle" fill="#9ca3af" font-size="12" font-family="-apple-system,BlinkMacSystemFont,Segoe UI,Helvetica,Arial,sans-serif">2024-08-31</text>
<line x1="1036.0" y1="468" x2="1036.0" y2="474" stroke="#6b7280" stroke-width="1"/>
<text x="1036.0" y="494" text-anchor="end" fill="#9ca3af" font-size="12" font-family="-apple-system,BlinkMacSystemFont,Segoe UI,Helvetica,Arial,sans-serif">2026-04-04</text>
<polyline fill="none" stroke="url(#repo-0)" stroke-width="4" stroke-linecap="round" stroke-linejoin="round" points="722.45,468.00 729.16,468.00 742.20,468.00 755.89,468.00 757.85,468.00 761.11,468.00 772.85,468.00 775.13,468.00 780.67,468.00 781.00,468.00 785.89,468.00 793.71,468.00 806.10,468.00 809.36,468.00 813.60,468.00 817.18,468.00 832.18,468.00 836.74,468.00 837.39,468.00 838.70,468.00 844.89,468.00 858.58,468.00 861.52,468.00 868.36,468.00 873.91,468.00 874.56,468.00 875.21,468.00 895.42,468.00 898.03,468.00 898.68,468.00 904.88,468.00 905.53,468.00 909.44,465.95 910.74,465.95 911.07,465.95 911.40,465.95 914.33,463.91 915.96,463.91 917.59,463.91 922.81,461.86 927.37,459.82 929.00,459.82 929.65,457.77 936.50,457.77 940.41,457.77 952.15,457.77 954.43,457.77 955.08,455.73 957.04,455.73 958.99,455.73 961.93,453.68 967.14,453.68 973.99,453.68 978.23,453.68 989.64,453.68 991.92,453.68 996.81,453.68 997.14,453.68 998.11,453.68 1000.72,453.68 1001.05,451.64 1009.85,451.64 1016.70,451.64 1017.35,451.64 1019.63,451.64 1026.15,451.64 1028.43,451.64 1030.06,451.64 1031.69,451.64 1035.03,451.64 1036.00,451.64"/>
<circle cx="722.45" cy="468.00" r="3.8" fill="#3bf2af" stroke="#111827" stroke-width="1"/>
<circle cx="742.20" cy="468.00" r="3.8" fill="#3bf2af" stroke="#111827" stroke-width="1"/>
<circle cx="757.85" cy="468.00" r="3.8" fill="#3bf2af" stroke="#111827" stroke-width="1"/>
<circle cx="772.85" cy="468.00" r="3.8" fill="#3bf2af" stroke="#111827" stroke-width="1"/>
<circle cx="780.67" cy="468.00" r="3.8" fill="#3bf2af" stroke="#111827" stroke-width="1"/>
<circle cx="785.89" cy="468.00" r="3.8" fill="#3bf2af" stroke="#111827" stroke-width="1"/>
<circle cx="806.10" cy="468.00" r="3.8" fill="#3bf2af" stroke="#111827" stroke-width="1"/>
<circle cx="813.60" cy="468.00" r="3.8" fill="#3bf2af" stroke="#111827" stroke-width="1"/>
<circle cx="832.18" cy="468.00" r="3.8" fill="#3bf2af" stroke="#111827" stroke-width="1"/>
<circle cx="837.39" cy="468.00" r="3.8" fill="#3bf2af" stroke="#111827" stroke-width="1"/>
<circle cx="844.89" cy="468.00" r="3.8" fill="#3bf2af" stroke="#111827" stroke-width="1"/>
<circle cx="861.52" cy="468.00" r="3.8" fill="#3bf2af" stroke="#111827" stroke-width="1"/>
<circle cx="873.91" cy="468.00" r="3.8" fill="#3bf2af" stroke="#111827" stroke-width="1"/>
<circle cx="875.21" cy="468.00" r="3.8" fill="#3bf2af" stroke="#111827" stroke-width="1"/>
<circle cx="898.03" cy="468.00" r="3.8" fill="#3bf2af" stroke="#111827" stroke-width="1"/>
<circle cx="904.88" cy="468.00" r="3.8" fill="#3bf2af" stroke="#111827" stroke-width="1"/>
<circle cx="909.44" cy="465.95" r="3.8" fill="#3bf2af" stroke="#111827" stroke-width="1"/>
<circle cx="911.07" cy="465.95" r="3.8" fill="#3bf2af" stroke="#111827" stroke-width="1"/>
<circle cx="914.33" cy="463.91" r="3.8" fill="#3bf2af" stroke="#111827" stroke-width="1"/>
<circle cx="917.59" cy="463.91" r="3.8" fill="#3bf2af" stroke="#111827" stroke-width="1"/>
<circle cx="927.37" cy="459.82" r="3.8" fill="#3bf2af" stroke="#111827" stroke-width="1"/>
<circle cx="929.65" cy="457.77" r="3.8" fill="#3bf2af" stroke="#111827" stroke-width="1"/>
<circle cx="940.41" cy="457.77" r="3.8" fill="#3bf2af" stroke="#111827" stroke-width="1"/>
<circle cx="954.43" cy="457.77" r="3.8" fill="#3bf2af" stroke="#111827" stroke-width="1"/>
<circle cx="957.04" cy="455.73" r="3.8" fill="#3bf2af" stroke="#111827" stroke-width="1"/>
<circle cx="961.93" cy="453.68" r="3.8" fill="#3bf2af" stroke="#111827" stroke-width="1"/>
<circle cx="973.99" cy="453.68" r="3.8" fill="#3bf2af" stroke="#111827" stroke-width="1"/>
<circle cx="989.64" cy="453.68" r="3.8" fill="#3bf2af" stroke="#111827" stroke-width="1"/>
<circle cx="996.81" cy="453.68" r="3.8" fill="#3bf2af" stroke="#111827" stroke-width="1"/>
<circle cx="998.11" cy="453.68" r="3.8" fill="#3bf2af" stroke="#111827" stroke-width="1"/>
<circle cx="1001.05" cy="451.64" r="3.8" fill="#3bf2af" stroke="#111827" stroke-width="1"/>
<circle cx="1016.70" cy="451.64" r="3.8" fill="#3bf2af" stroke="#111827" stroke-width="1"/>
<circle cx="1019.63" cy="451.64" r="3.8" fill="#3bf2af" stroke="#111827" stroke-width="1"/>
<circle cx="1028.43" cy="451.64" r="3.8" fill="#3bf2af" stroke="#111827" stroke-width="1"/>
<circle cx="1031.69" cy="451.64" r="3.8" fill="#3bf2af" stroke="#111827" stroke-width="1"/>
<circle cx="1036.00" cy="451.64" r="3.8" fill="#3bf2af" stroke="#111827" stroke-width="1"/>
<text x="1028.0" y="441.6" text-anchor="end" fill="#3bf2af" font-size="12" font-family="-apple-system,BlinkMacSystemFont,Segoe UI,Helvetica,Arial,sans-serif">8</text>
<polyline fill="none" stroke="url(#repo-1)" stroke-width="4" stroke-linecap="round" stroke-linejoin="round" points="90.00,468.00 91.82,468.00 92.48,468.00 96.06,468.00 99.65,468.00 136.81,468.00 137.79,465.95 143.66,463.91 149.53,463.91 154.09,461.86 157.68,461.86 158.33,461.86 158.66,461.86 158.98,461.86 160.61,461.86 161.26,461.86 165.50,459.82 165.83,459.82 169.74,459.82 170.72,459.82 171.04,459.82 172.67,459.82 174.30,459.82 176.26,459.82 177.24,459.82 182.45,459.82 185.06,459.82 186.69,459.82 187.02,459.82 192.23,459.82 192.56,459.82 193.21,457.77 196.47,457.77 197.12,457.77 197.45,455.73 197.78,453.68 203.64,453.68 205.27,451.64 211.47,451.64 212.77,451.64 213.42,449.59 216.03,447.55 218.97,447.55 222.88,445.50 223.20,445.50 225.49,445.50 227.77,445.50 231.03,445.50 232.01,445.50 234.29,445.50 236.57,445.50 238.53,445.50 238.85,445.50 239.18,445.50 241.79,445.50 242.44,445.50 243.09,445.50 243.42,443.45 243.74,441.41 244.07,441.41 246.68,441.41 247.33,441.41 249.94,439.36 255.48,439.36 256.13,437.32 256.46,437.32 256.78,437.32 257.43,433.23 258.74,433.23 259.06,433.23 261.02,433.23 261.35,433.23 263.63,433.23 264.61,433.23 265.26,433.23 266.24,431.18 267.87,431.18 268.19,429.14 269.17,429.14 272.10,429.14 275.69,429.14 276.67,429.14 277.65,429.14 277.97,429.14 279.28,429.14 279.60,429.14 280.25,429.14 281.23,429.14 282.86,429.14 283.51,429.14 283.84,429.14 284.17,429.14 285.80,429.14 286.77,429.14 287.43,429.14 288.73,427.09 289.06,425.05 290.69,425.05 294.27,425.05 296.23,425.05 297.86,423.00 298.18,423.00 300.47,423.00 302.10,423.00 302.42,420.95 304.38,420.95 304.70,420.95 305.36,418.91 306.33,416.86 306.66,416.86 306.99,416.86 307.31,416.86 311.88,414.82 315.79,414.82 316.11,414.82 316.77,414.82 318.07,414.82 318.40,414.82 320.03,412.77 320.68,410.73 321.00,410.73 321.33,410.73 321.66,410.73 323.29,410.73 326.55,408.68 327.85,408.68 328.18,406.64 328.83,406.64 329.15,404.59 329.81,402.55 330.46,402.55 331.11,400.50 332.41,398.45 333.07,398.45 335.02,398.45 335.35,398.45 336.65,398.45 338.61,398.45 339.91,398.45 341.22,396.41 341.54,396.41 342.19,396.41 343.17,396.41 344.15,396.41 345.78,396.41 347.41,396.41 349.04,396.41 351.98,394.36 354.58,394.36 354.91,394.36 355.24,394.36 360.13,394.36 361.10,394.36 362.08,394.36 362.41,394.36 363.39,394.36 365.67,394.36 365.99,394.36 367.62,394.36 369.58,392.32 372.84,392.32 373.82,392.32 374.80,392.32 376.10,392.32 376.75,392.32 377.08,392.32 377.73,390.27 379.36,390.27 380.66,390.27 384.90,388.23 386.53,388.23 387.51,388.23 390.44,386.18 391.10,384.14 391.42,384.14 391.75,384.14 393.38,384.14 394.36,384.14 395.66,384.14 395.99,384.14 396.64,384.14 398.92,384.14 399.25,384.14 399.90,384.14 402.18,384.14 402.83,384.14 404.14,384.14 405.11,382.09 405.44,382.09 405.77,382.09 409.68,382.09 410.33,382.09 411.63,382.09 411.96,382.09 413.26,382.09 414.57,382.09 414.89,382.09 415.22,382.09 416.85,382.09 417.50,382.09 419.13,380.05 420.44,378.00 421.41,378.00 423.37,378.00 424.67,378.00 426.30,378.00 426.63,378.00 427.28,378.00 427.93,378.00 428.59,378.00 428.91,375.95 429.89,373.91 430.22,373.91 430.54,373.91 430.87,371.86 432.50,371.86 433.15,369.82 434.45,369.82 435.11,369.82 436.08,369.82 436.74,369.82 437.71,369.82 439.02,369.82 440.32,367.77 441.63,365.73 441.95,365.73 443.58,365.73 443.91,365.73 444.56,365.73 444.89,365.73 445.54,365.73 445.86,365.73 447.49,365.73 448.80,365.73 450.43,363.68 454.99,363.68 455.32,363.68 455.64,361.64 455.97,361.64 456.95,357.55 457.27,357.55 457.60,357.55 457.93,357.55 459.23,355.50 459.88,355.50 460.21,355.50 461.19,353.45 461.51,351.41 462.16,351.41 464.12,351.41 464.45,351.41 464.77,351.41 466.08,351.41 468.36,351.41 468.68,351.41 469.34,351.41 471.62,351.41 473.25,351.41 474.88,349.36 477.81,347.32 479.12,347.32 479.44,347.32 479.77,345.27 480.42,345.27 480.75,343.23 481.07,343.23 482.05,343.23 482.38,343.23 483.35,343.23 484.98,343.23 485.31,339.14 485.64,339.14 485.96,339.14 486.29,339.14 486.61,339.14 486.94,339.14 487.59,339.14 487.92,339.14 488.24,335.05 489.22,335.05 489.87,335.05 490.53,335.05 491.83,335.05 493.13,335.05 493.46,335.05 493.79,333.00 494.11,330.95 495.74,330.95 497.05,330.95 497.37,330.95 498.68,330.95 499.00,330.95 499.33,328.91 502.59,328.91 502.91,328.91 503.57,328.91 505.20,328.91 505.85,328.91 506.50,328.91 507.80,326.86 508.46,326.86 508.78,324.82 509.11,324.82 509.43,322.77 510.74,322.77 511.06,322.77 511.72,322.77 512.04,322.77 513.02,322.77 513.35,322.77 514.65,322.77 517.58,322.77 518.56,322.77 519.54,322.77 519.87,320.73 520.19,320.73 520.52,318.68 520.84,318.68 521.50,318.68 523.78,316.64 525.08,316.64 525.41,316.64 525.73,316.64 526.71,316.64 528.02,314.59 529.32,314.59 530.95,314.59 531.28,314.59 534.86,314.59 536.49,314.59 537.15,314.59 537.80,314.59 540.41,314.59 541.06,314.59 541.38,314.59 542.36,314.59 543.01,314.59 543.67,312.55 544.32,312.55 544.97,312.55 546.27,312.55 546.60,312.55 546.93,312.55 548.56,310.50 549.21,310.50 549.53,310.50 550.51,310.50 551.16,310.50 551.82,310.50 553.45,310.50 553.77,308.45 554.10,308.45 555.08,308.45 555.73,306.41 556.38,306.41 558.01,306.41 560.94,306.41 561.27,306.41 562.57,306.41 562.90,306.41 564.20,306.41 564.53,306.41 564.86,304.36 565.51,304.36 566.49,304.36 566.81,304.36 567.14,304.36 567.79,304.36 569.09,304.36 570.07,302.32 570.40,302.32 574.64,302.32 574.96,302.32 575.94,302.32 576.59,302.32 578.87,302.32 579.85,300.27 580.18,300.27 580.50,300.27 583.11,300.27 583.44,300.27 583.76,300.27 584.74,300.27 585.07,300.27 585.72,300.27 588.00,300.27 588.65,300.27 589.31,296.18 590.28,296.18 590.61,296.18 591.59,296.18 597.13,296.18 598.43,296.18 598.76,296.18 600.39,296.18 601.04,294.14 601.37,294.14 601.69,292.09 602.02,292.09 603.00,290.05 603.98,290.05 604.30,290.05 606.26,290.05 606.58,290.05 607.24,290.05 608.21,290.05 608.87,290.05 609.19,290.05 610.50,290.05 611.15,288.00 611.80,288.00 612.78,288.00 613.10,288.00 617.34,288.00 618.32,285.95 619.30,285.95 619.62,285.95 621.25,285.95 621.58,285.95 621.91,285.95 622.23,285.95 623.54,285.95 624.51,285.95 626.80,285.95 627.77,285.95 628.10,285.95 628.75,283.91 629.40,283.91 631.36,283.91 631.69,283.91 634.95,283.91 635.27,283.91 636.25,283.91 636.58,283.91 637.55,283.91 637.88,279.82 638.21,279.82 639.84,279.82 640.16,279.82 641.14,279.82 642.77,279.82 644.07,279.82 645.05,277.77 648.64,275.73 648.96,273.68 650.92,271.64 651.57,271.64 652.22,269.59 653.53,267.55 653.85,265.50 656.46,265.50 659.40,265.50 660.05,265.50 660.37,263.45 660.70,263.45 663.63,261.41 664.94,259.36 665.26,259.36 665.59,259.36 666.24,257.32 667.55,257.32 667.87,257.32 668.52,257.32 669.83,257.32 671.46,257.32 671.78,255.27 672.44,255.27 672.76,255.27 673.09,253.23 673.41,253.23 673.74,253.23 674.39,253.23 678.30,253.23 680.59,251.18 682.87,249.14 683.85,247.09 684.17,245.05 684.50,245.05 685.48,243.00 685.80,243.00 688.08,240.95 688.41,240.95 689.71,238.91 690.04,238.91 690.37,238.91 691.67,238.91 692.65,236.86 693.95,236.86 694.93,234.82 695.26,232.77 697.21,232.77 697.86,232.77 698.84,232.77 699.17,232.77 699.82,232.77 701.78,230.73 702.43,228.68 703.08,228.68 703.41,228.68 704.06,228.68 704.38,228.68 705.36,228.68 705.69,228.68 706.34,228.68 707.64,228.68 707.97,228.68 708.62,228.68 709.27,228.68 710.58,228.68 710.90,226.64 712.21,226.64 713.51,226.64 715.14,224.59 716.12,224.59 716.45,224.59 718.08,222.55 718.40,222.55 719.71,222.55 720.68,222.55 721.34,220.50 722.31,220.50 723.62,220.50 723.95,220.50 724.60,220.50 727.21,220.50 729.16,218.45 731.44,218.45 735.03,218.45 735.36,216.41 735.68,216.41 737.64,216.41 738.29,216.41 738.62,216.41 738.94,214.36 739.92,214.36 740.25,212.32 740.90,212.32 743.51,212.32 745.14,212.32 745.79,210.27 747.42,208.23 748.72,208.23 751.66,206.18 752.96,204.14 754.92,204.14 760.78,202.09 763.07,200.05 763.72,200.05 766.65,200.05 767.30,200.05 767.96,200.05 769.91,200.05 770.56,200.05 771.22,200.05 771.54,198.00 771.87,198.00 774.48,198.00 777.41,198.00 779.04,198.00 781.00,198.00 783.93,195.95 786.54,195.95 787.84,195.95 788.49,195.95 789.80,195.95 791.43,195.95 792.08,195.95 792.73,195.95 794.69,195.95 795.99,195.95 796.32,195.95 799.25,193.91 799.58,193.91 799.90,191.86 800.56,191.86 801.53,189.82 802.84,189.82 804.79,189.82 805.12,189.82 806.10,187.77 808.38,185.73 810.66,185.73 812.62,185.73 815.23,185.73 815.88,185.73 816.20,185.73 817.18,183.68 817.51,183.68 817.83,183.68 818.49,183.68 819.79,181.64 822.07,181.64 822.40,179.59 823.38,179.59 825.33,179.59 826.96,179.59 827.29,179.59 828.59,179.59 829.57,179.59 829.90,177.55 831.20,177.55 831.85,175.50 833.48,175.50 833.81,173.45 834.13,173.45 836.09,173.45 837.07,173.45 837.39,173.45 839.35,171.41 840.65,171.41 840.98,171.41 841.31,169.36 843.59,169.36 845.22,169.36 849.13,169.36 849.46,169.36 851.41,169.36 854.35,169.36 857.61,169.36 859.56,169.36 859.89,169.36 860.21,169.36 860.87,169.36 863.47,169.36 865.76,169.36 869.02,169.36 869.34,167.32 872.28,167.32 873.25,167.32 874.56,167.32 884.66,167.32 885.97,167.32 886.29,167.32 889.55,167.32 891.18,167.32 893.47,167.32 894.12,165.27 894.44,165.27 896.40,165.27 897.70,165.27 898.36,165.27 898.68,165.27 899.01,165.27 899.99,165.27 901.62,165.27 901.94,163.23 903.57,163.23 905.85,163.23 908.14,163.23 908.79,163.23 912.38,163.23 912.70,163.23 914.33,163.23 915.96,163.23 918.90,163.23 920.20,163.23 922.48,159.14 922.81,159.14 923.46,157.09 925.09,157.09 925.42,157.09 926.07,157.09 927.05,157.09 927.37,157.09 927.70,157.09 928.02,157.09 929.33,157.09 929.65,155.05 931.61,155.05 931.94,155.05 933.57,155.05 933.89,155.05 934.54,155.05 935.20,153.00 936.17,153.00 939.43,153.00 945.30,153.00 946.61,153.00 948.24,150.95 949.54,150.95 950.84,150.95 951.82,150.95 952.80,150.95 955.08,148.91 956.71,148.91 957.36,146.86 959.65,144.82 959.97,142.77 960.30,142.77 963.88,142.77 965.84,142.77 966.17,140.73 969.10,140.73 973.99,140.73 975.29,138.68 975.62,138.68 976.60,138.68 980.51,138.68 985.07,138.68 985.40,136.64 989.64,136.64 992.25,136.64 1004.96,136.64 1007.89,136.64 1008.87,136.64 1010.50,136.64 1010.83,136.64 1016.70,136.64 1019.30,136.64 1024.52,136.64 1026.15,136.64 1028.43,136.64 1035.03,124.36 1036.00,124.36"/>
<circle cx="90.00" cy="468.00" r="3.8" fill="#ffb50c" stroke="#111827" stroke-width="1"/>
<circle cx="192.23" cy="459.82" r="3.8" fill="#ffb50c" stroke="#111827" stroke-width="1"/>
<circle cx="243.74" cy="441.41" r="3.8" fill="#ffb50c" stroke="#111827" stroke-width="1"/>
<circle cx="281.23" cy="429.14" r="3.8" fill="#ffb50c" stroke="#111827" stroke-width="1"/>
<circle cx="318.07" cy="414.82" r="3.8" fill="#ffb50c" stroke="#111827" stroke-width="1"/>
<circle cx="347.41" cy="396.41" r="3.8" fill="#ffb50c" stroke="#111827" stroke-width="1"/>
<circle cx="391.42" cy="384.14" r="3.8" fill="#ffb50c" stroke="#111827" stroke-width="1"/>
<circle cx="423.37" cy="378.00" r="3.8" fill="#ffb50c" stroke="#111827" stroke-width="1"/>
<circle cx="447.49" cy="365.73" r="3.8" fill="#ffb50c" stroke="#111827" stroke-width="1"/>
<circle cx="479.44" cy="347.32" r="3.8" fill="#ffb50c" stroke="#111827" stroke-width="1"/>
<circle cx="498.68" cy="330.95" r="3.8" fill="#ffb50c" stroke="#111827" stroke-width="1"/>
<circle cx="523.78" cy="316.64" r="3.8" fill="#ffb50c" stroke="#111827" stroke-width="1"/>
<circle cx="551.82" cy="310.50" r="3.8" fill="#ffb50c" stroke="#111827" stroke-width="1"/>
<circle cx="580.18" cy="300.27" r="3.8" fill="#ffb50c" stroke="#111827" stroke-width="1"/>
<circle cx="608.87" cy="290.05" r="3.8" fill="#ffb50c" stroke="#111827" stroke-width="1"/>
<circle cx="637.88" cy="279.82" r="3.8" fill="#ffb50c" stroke="#111827" stroke-width="1"/>
<circle cx="671.46" cy="257.32" r="3.8" fill="#ffb50c" stroke="#111827" stroke-width="1"/>
<circle cx="699.17" cy="232.77" r="3.8" fill="#ffb50c" stroke="#111827" stroke-width="1"/>
<circle cx="723.95" cy="220.50" r="3.8" fill="#ffb50c" stroke="#111827" stroke-width="1"/>
<circle cx="769.91" cy="200.05" r="3.8" fill="#ffb50c" stroke="#111827" stroke-width="1"/>
<circle cx="808.38" cy="185.73" r="3.8" fill="#ffb50c" stroke="#111827" stroke-width="1"/>
<circle cx="840.65" cy="171.41" r="3.8" fill="#ffb50c" stroke="#111827" stroke-width="1"/>
<circle cx="896.40" cy="165.27" r="3.8" fill="#ffb50c" stroke="#111827" stroke-width="1"/>
<circle cx="929.65" cy="155.05" r="3.8" fill="#ffb50c" stroke="#111827" stroke-width="1"/>
<circle cx="976.60" cy="138.68" r="3.8" fill="#ffb50c" stroke="#111827" stroke-width="1"/>
<circle cx="1036.00" cy="124.36" r="3.8" fill="#ffb50c" stroke="#111827" stroke-width="1"/>
<text x="1028.0" y="114.4" text-anchor="end" fill="#ffb50c" font-size="12" font-family="-apple-system,BlinkMacSystemFont,Segoe UI,Helvetica,Arial,sans-serif">168</text>
<rect x="90" y="514" width="14" height="14" fill="url(#repo-0)" rx="3"/>
<text x="112" y="526" fill="#3bf2af" font-size="13" font-family="-apple-system,BlinkMacSystemFont,Segoe UI,Helvetica,Arial,sans-serif">bavix/gripmock</text>
<rect x="280" y="514" width="14" height="14" fill="url(#repo-1)" rx="3"/>
<text x="302" y="526" fill="#ffb50c" font-size="13" font-family="-apple-system,BlinkMacSystemFont,Segoe UI,Helvetica,Arial,sans-serif">tokopedia/gripmock</text>
<text x="1036" y="526" text-anchor="end" fill="#9ca3af" font-size="12" font-family="-apple-system,BlinkMacSystemFont,Segoe UI,Helvetica,Arial,sans-serif">Source: https://github.com/bavix/artifact-stats/blob/master/stats/github.csv</text>
</svg>