<svg xmlns="http://www.w3.org/2000/svg" width="1100" height="560" viewBox="0 0 1100 560">
<defs>
<linearGradient id="bg" x1="0" y1="0" x2="1" y2="1"><stop offset="0%" stop-color="#0b1220"/><stop offset="100%" stop-color="#111827"/></linearGradient>
<linearGradient id="repo-0" x1="0" y1="0" x2="0" y2="1"><stop offset="0%" stop-color="#34d399"/><stop offset="100%" stop-color="#059669"/></linearGradient>
<linearGradient id="repo-1" x1="0" y1="0" x2="0" y2="1"><stop offset="0%" stop-color="#f59e0b"/><stop offset="100%" stop-color="#d97706"/></linearGradient>
</defs>
<rect x="0" y="0" width="1100" height="560" fill="url(#bg)" rx="16"/>
<text x="90" y="44" fill="#f9fafb" font-size="28" font-family="-apple-system,BlinkMacSystemFont,Segoe UI,Helvetica,Arial,sans-serif" font-weight="700">GripMock GitHub Metrics - Stars</text>
<text x="90" y="70" fill="#9ca3af" font-size="16" font-family="-apple-system,BlinkMacSystemFont,Segoe UI,Helvetica,Arial,sans-serif">GitHub stars by snapshot date</text>
<line x1="90" y1="90.00" x2="1036" y2="90.00" stroke="#1f2937" stroke-width="1"/>
<text x="80" y="95.00" text-anchor="end" fill="#9ca3af" font-size="12" font-family="-apple-system,BlinkMacSystemFont,Segoe UI,Helvetica,Arial,sans-serif">811</text>
<line x1="90" y1="153.00" x2="1036" y2="153.00" stroke="#1f2937" stroke-width="1"/>
<text x="80" y="158.00" text-anchor="end" fill="#9ca3af" font-size="12" font-family="-apple-system,BlinkMacSystemFont,Segoe UI,Helvetica,Arial,sans-serif">676</text>
<line x1="90" y1="216.00" x2="1036" y2="216.00" stroke="#1f2937" stroke-width="1"/>
<text x="80" y="221.00" text-anchor="end" fill="#9ca3af" font-size="12" font-family="-apple-system,BlinkMacSystemFont,Segoe UI,Helvetica,Arial,sans-serif">540</text>
<line x1="90" y1="279.00" x2="1036" y2="279.00" stroke="#1f2937" stroke-width="1"/>
<text x="80" y="284.00" text-anchor="end" fill="#9ca3af" font-size="12" font-family="-apple-system,BlinkMacSystemFont,Segoe UI,Helvetica,Arial,sans-serif">405</text>
<line x1="90" y1="342.00" x2="1036" y2="342.00" stroke="#1f2937" stroke-width="1"/>
<text x="80" y="347.00" text-anchor="end" fill="#9ca3af" font-size="12" font-family="-apple-system,BlinkMacSystemFont,Segoe UI,Helvetica,Arial,sans-serif">270</text>
<line x1="90" y1="405.00" x2="1036" y2="405.00" stroke="#1f2937" stroke-width="1"/>
<text x="80" y="410.00" text-anchor="end" fill="#9ca3af" font-size="12" font-family="-apple-system,BlinkMacSystemFont,Segoe UI,Helvetica,Arial,sans-serif">135</text>
<line x1="90" y1="468.00" x2="1036" y2="468.00" stroke="#1f2937" stroke-width="1"/>
<text x="80" y="473.00" text-anchor="end" fill="#9ca3af" font-size="12" font-family="-apple-system,BlinkMacSystemFont,Segoe UI,Helvetica,Arial,sans-serif">0</text>
<line x1="90" y1="468" x2="1036" y2="468" stroke="#4b5563" stroke-width="1.4"/>
<line x1="90" y1="90" x2="90" y2="468" stroke="#4b5563" stroke-width="1.4"/>
<line x1="90.00" y1="468" x2="90.00" y2="474" stroke="#6b7280" stroke-width="1"/>
<text x="90.00" y="494" text-anchor="start" fill="#9ca3af" font-size="12" font-family="-apple-system,BlinkMacSystemFont,Segoe UI,Helvetica,Arial,sans-serif">2018-04-24</text>
<line x1="279.20" y1="468" x2="279.20" y2="474" stroke="#6b7280" stroke-width="1"/>
<text x="279.20" y="494" text-anchor="middle" fill="#9ca3af" font-size="12" font-family="-apple-system,BlinkMacSystemFont,Segoe UI,Helvetica,Arial,sans-serif">2019-11-29</text>
<line x1="468.40" y1="468" x2="468.40" y2="474" stroke="#6b7280" stroke-width="1"/>
<text x="468.40" y="494" text-anchor="middle" fill="#9ca3af" font-size="12" font-family="-apple-system,BlinkMacSystemFont,Segoe UI,Helvetica,Arial,sans-serif">2021-07-06</text>
<line x1="657.60" y1="468" x2="657.60" y2="474" stroke="#6b7280" stroke-width="1"/>
<text x="657.60" y="494" text-anchor="middle" fill="#9ca3af" font-size="12" font-family="-apple-system,BlinkMacSystemFont,Segoe UI,Helvetica,Arial,sans-serif">2023-02-11</text>
<line x1="846.80" y1="468" x2="846.80" y2="474" stroke="#6b7280" stroke-width="1"/>
<text x="846.80" y="494" text-anchor="middle" fill="#9ca3af" font-size="12" font-family="-apple-system,BlinkMacSystemFont,Segoe UI,Helvetica,Arial,sans-serif">2024-09-17</text>
<line x1="1036.00" y1="468" x2="1036.00" y2="474" stroke="#6b7280" stroke-width="1"/>
<text x="1036.00" y="494" text-anchor="end" fill="#9ca3af" font-size="12" font-family="-apple-system,BlinkMacSystemFont,Segoe UI,Helvetica,Arial,sans-serif">2026-04-25</text>
<polyline fill="none" stroke="url(#repo-0)" stroke-width="4" stroke-linecap="round" stroke-linejoin="round" points="717.90,468.00 724.57,467.53 737.51,467.07 751.11,466.60 753.05,466.13 756.28,465.67 767.94,465.20 770.20,464.74 775.70,464.27 776.03,463.80 780.88,463.34 788.65,462.87 800.95,462.40 804.19,461.94 808.39,461.47 811.95,461.01 826.84,460.54 831.37,460.07 832.02,459.61 833.32,459.14 839.47,458.67 853.06,458.21 855.97,457.74 862.77,457.28 868.27,456.81 868.92,456.34 869.57,455.88 889.63,455.41 892.22,454.94 892.87,454.48 899.02,454.01 899.67,453.55 903.55,453.55 904.84,453.08 905.17,452.61 905.49,452.15 908.40,451.68 910.02,451.21 911.64,450.75 916.82,450.75 921.35,450.75 922.97,450.28 923.62,450.28 930.41,449.82 934.30,449.35 945.95,448.88 948.22,448.42 948.86,448.42 950.80,447.95 952.75,447.48 955.66,447.48 960.84,447.02 967.63,446.55 971.84,446.09 983.17,445.62 985.44,445.15 990.29,444.69 990.61,444.22 991.59,443.75 994.17,443.29 994.50,443.29 1003.24,442.82 1010.03,442.36 1010.68,441.89 1012.95,441.42 1019.42,440.96 1021.69,440.49 1023.30,440.02 1024.92,439.56 1028.24,439.56 1029.20,439.56 1029.53,439.09 1030.17,439.09 1030.50,438.63 1030.82,439.09 1035.36,439.09 1035.68,438.63 1036.00,438.16"/>
<circle cx="717.90" cy="468.00" r="3.8" fill="#3bf2af" stroke="#111827" stroke-width="1"/>
<circle cx="751.11" cy="466.60" r="3.8" fill="#3bf2af" stroke="#111827" stroke-width="1"/>
<circle cx="767.94" cy="465.20" r="3.8" fill="#3bf2af" stroke="#111827" stroke-width="1"/>
<circle cx="776.03" cy="463.80" r="3.8" fill="#3bf2af" stroke="#111827" stroke-width="1"/>
<circle cx="800.95" cy="462.40" r="3.8" fill="#3bf2af" stroke="#111827" stroke-width="1"/>
<circle cx="811.95" cy="461.01" r="3.8" fill="#3bf2af" stroke="#111827" stroke-width="1"/>
<circle cx="832.02" cy="459.61" r="3.8" fill="#3bf2af" stroke="#111827" stroke-width="1"/>
<circle cx="853.06" cy="458.21" r="3.8" fill="#3bf2af" stroke="#111827" stroke-width="1"/>
<circle cx="868.27" cy="456.81" r="3.8" fill="#3bf2af" stroke="#111827" stroke-width="1"/>
<circle cx="889.63" cy="455.41" r="3.8" fill="#3bf2af" stroke="#111827" stroke-width="1"/>
<circle cx="899.02" cy="454.01" r="3.8" fill="#3bf2af" stroke="#111827" stroke-width="1"/>
<circle cx="904.84" cy="453.08" r="3.8" fill="#3bf2af" stroke="#111827" stroke-width="1"/>
<circle cx="908.40" cy="451.68" r="3.8" fill="#3bf2af" stroke="#111827" stroke-width="1"/>
<circle cx="916.82" cy="450.75" r="3.8" fill="#3bf2af" stroke="#111827" stroke-width="1"/>
<circle cx="923.62" cy="450.28" r="3.8" fill="#3bf2af" stroke="#111827" stroke-width="1"/>
<circle cx="945.95" cy="448.88" r="3.8" fill="#3bf2af" stroke="#111827" stroke-width="1"/>
<circle cx="950.80" cy="447.95" r="3.8" fill="#3bf2af" stroke="#111827" stroke-width="1"/>
<circle cx="960.84" cy="447.02" r="3.8" fill="#3bf2af" stroke="#111827" stroke-width="1"/>
<circle cx="983.17" cy="445.62" r="3.8" fill="#3bf2af" stroke="#111827" stroke-width="1"/>
<circle cx="990.61" cy="444.22" r="3.8" fill="#3bf2af" stroke="#111827" stroke-width="1"/>
<circle cx="994.50" cy="443.29" r="3.8" fill="#3bf2af" stroke="#111827" stroke-width="1"/>
<circle cx="1010.68" cy="441.89" r="3.8" fill="#3bf2af" stroke="#111827" stroke-width="1"/>
<circle cx="1021.69" cy="440.49" r="3.8" fill="#3bf2af" stroke="#111827" stroke-width="1"/>
<circle cx="1028.24" cy="439.56" r="3.8" fill="#3bf2af" stroke="#111827" stroke-width="1"/>
<circle cx="1030.17" cy="439.09" r="3.8" fill="#3bf2af" stroke="#111827" stroke-width="1"/>
<circle cx="1035.36" cy="439.09" r="3.8" fill="#3bf2af" stroke="#111827" stroke-width="1"/>
<circle cx="1036.00" cy="438.16" r="3.8" fill="#3bf2af" stroke="#111827" stroke-width="1"/>
<text x="1028.00" y="428.16" text-anchor="end" fill="#3bf2af" font-size="12" font-family="-apple-system,BlinkMacSystemFont,Segoe UI,Helvetica,Arial,sans-serif">64</text>
<polyline fill="none" stroke="url(#repo-1)" stroke-width="4" stroke-linecap="round" stroke-linejoin="round" points="90.00,468.00 91.81,466.60 92.46,466.13 96.02,465.67 99.58,465.20 136.48,464.74 137.45,464.27 143.27,464.27 149.10,463.80 153.63,463.80 157.19,463.34 157.84,462.87 158.16,462.40 158.49,461.94 160.10,461.47 160.75,461.01 164.96,460.54 165.28,460.07 169.17,459.61 170.14,459.14 170.46,458.67 172.08,458.21 173.70,457.28 175.64,456.81 176.61,456.34 181.79,455.88 184.38,455.41 186.00,454.94 186.32,454.48 191.50,454.01 191.82,453.55 192.47,453.08 195.71,452.61 196.35,451.68 196.68,451.68 197.00,451.68 202.83,451.21 204.44,451.21 210.59,450.75 211.89,450.28 212.54,450.28 215.13,449.82 218.04,449.35 221.92,449.35 222.25,448.88 224.51,448.42 226.78,447.95 230.01,447.48 230.98,447.02 233.25,446.55 235.52,446.09 237.46,445.62 237.78,445.15 238.11,444.69 240.69,444.22 241.34,443.75 241.99,442.82 242.31,442.36 242.64,441.42 242.96,440.96 245.55,440.49 246.20,439.56 248.79,439.56 254.29,439.09 254.94,439.09 255.26,438.63 255.58,438.16 256.23,438.16 257.53,437.69 257.85,437.23 259.79,436.76 260.11,436.29 262.38,435.83 263.35,434.90 264.00,433.96 264.97,433.96 266.59,433.50 266.91,433.03 267.88,432.56 270.80,432.10 274.36,431.63 275.33,431.17 276.30,430.70 276.62,430.23 277.92,429.77 278.24,429.30 278.89,428.83 279.86,427.44 281.48,426.97 282.12,426.50 282.45,426.04 282.77,424.64 284.39,424.17 285.36,423.70 286.01,423.24 287.30,423.24 287.63,422.77 289.24,422.31 292.80,421.84 294.75,421.37 296.36,421.37 296.69,420.44 298.95,419.97 300.57,419.51 300.90,419.51 302.84,419.04 303.16,418.58 303.81,418.58 304.78,418.58 305.10,418.11 305.43,417.64 305.75,417.18 310.28,415.78 314.17,415.31 314.49,414.85 315.14,414.38 316.43,413.91 316.75,413.45 318.37,413.45 319.02,412.98 319.34,412.51 319.67,412.05 319.99,411.58 321.61,411.12 324.85,410.65 326.14,410.18 326.46,410.18 327.11,409.72 327.44,409.72 328.08,408.32 328.73,407.85 329.38,407.85 330.67,407.39 331.32,406.92 333.26,406.45 333.59,405.99 334.88,405.52 336.82,405.05 338.12,404.59 339.41,404.59 339.73,404.12 340.38,403.66 341.35,403.19 342.32,402.72 343.94,402.26 345.56,401.79 347.18,401.32 350.09,400.86 352.68,400.39 353.00,399.93 353.33,399.46 358.18,398.99 359.15,398.53 360.13,398.06 360.45,397.13 361.42,396.66 363.69,395.73 364.01,394.80 365.63,394.33 367.57,394.33 370.81,393.86 371.78,393.40 372.75,392.93 374.04,392.00 374.69,391.53 375.01,391.07 375.66,390.60 377.28,389.67 378.57,389.20 382.78,388.27 384.40,386.87 385.37,385.94 388.28,385.94 388.93,385.94 389.25,385.47 389.58,384.54 391.20,383.61 392.17,383.14 393.46,382.67 393.79,382.21 394.43,381.74 396.70,381.27 397.02,380.81 397.67,380.34 399.94,379.88 400.58,379.41 401.88,378.94 402.85,378.48 403.17,378.01 403.50,377.54 407.38,377.08 408.03,376.61 409.32,375.68 409.65,375.21 410.94,374.75 412.23,371.48 412.56,370.55 412.88,370.08 414.50,369.62 415.15,369.15 416.77,369.15 418.06,368.69 419.03,368.22 420.97,367.29 422.27,366.82 423.89,366.35 424.21,365.89 424.86,365.42 425.50,364.49 426.15,364.02 426.48,364.02 427.45,364.02 427.77,363.56 428.09,363.09 428.42,362.62 430.04,362.16 430.68,361.23 431.98,360.76 432.62,359.83 433.60,359.36 434.24,358.89 435.21,358.43 436.51,357.96 437.80,357.96 439.10,357.50 439.42,357.03 441.04,356.56 441.36,356.10 442.01,355.63 442.33,355.16 442.98,354.70 443.31,353.30 444.92,352.83 446.22,352.37 447.84,351.90 452.37,350.97 452.69,350.50 453.02,350.50 453.34,350.04 454.31,349.57 454.63,349.10 454.96,348.64 455.28,347.70 456.58,347.24 457.22,346.31 457.55,344.91 458.52,344.91 458.84,344.91 459.49,343.97 461.43,343.51 461.75,342.58 462.08,342.11 463.37,341.64 465.64,341.18 465.96,340.71 466.61,340.24 468.87,339.78 470.49,339.31 472.11,339.31 475.02,339.31 476.32,338.84 476.64,338.38 476.97,338.38 477.61,337.91 477.94,336.98 478.26,336.51 479.23,336.05 479.56,335.58 480.53,335.11 482.14,334.18 482.47,334.18 482.79,333.25 483.12,332.78 483.44,331.38 483.76,330.45 484.09,329.99 484.73,329.52 485.06,327.65 485.38,327.19 486.35,326.72 487.00,325.79 487.65,325.32 488.94,324.86 490.24,324.39 490.56,323.92 490.88,323.46 491.21,322.99 492.83,322.53 494.12,322.06 494.44,321.59 495.74,320.66 496.06,319.73 496.39,319.73 499.62,319.26 499.95,318.80 500.59,318.33 502.21,317.40 502.86,316.93 503.51,316.46 504.80,316.46 505.45,315.53 505.77,315.53 506.10,313.67 506.42,311.34 507.71,310.87 508.04,310.40 508.69,309.94 509.01,309.47 509.98,309.00 510.30,308.54 511.60,308.07 514.51,307.61 515.48,307.14 516.45,306.67 516.78,305.27 517.10,304.81 517.42,304.34 517.75,303.88 518.39,303.41 520.66,303.41 521.96,302.94 522.28,302.48 522.60,302.01 523.57,301.54 524.87,301.54 526.16,301.08 527.78,300.61 528.10,300.15 531.66,299.68 533.28,299.21 533.93,298.28 534.58,297.81 537.17,297.35 537.81,296.88 538.14,296.41 539.11,295.95 539.76,295.48 540.40,295.48 541.05,295.02 541.70,294.55 542.99,294.08 543.32,293.62 543.64,293.15 545.26,293.15 545.91,292.68 546.23,292.22 547.20,291.29 547.85,290.35 548.50,289.89 550.11,288.95 550.44,288.95 550.76,288.49 551.73,288.02 552.38,287.56 553.03,287.09 554.64,286.62 557.56,286.16 557.88,285.69 559.18,285.22 559.50,284.76 560.79,284.29 561.12,283.83 561.44,281.96 562.09,281.49 563.06,281.03 563.38,280.56 563.71,280.10 564.35,279.63 565.65,279.16 566.62,279.16 566.94,278.70 571.15,278.23 571.48,277.76 572.45,276.83 573.09,276.37 575.36,275.90 576.33,275.43 576.65,274.97 576.98,274.50 579.57,273.57 579.89,273.10 580.21,271.24 581.18,270.77 581.51,270.30 582.16,269.84 584.42,269.37 585.07,268.91 585.72,268.91 586.69,268.44 587.01,267.97 587.98,267.51 593.48,267.04 594.78,266.11 595.10,265.64 596.72,265.18 597.37,265.18 597.69,264.24 598.02,264.24 598.34,263.78 599.31,263.31 600.28,262.84 600.60,262.38 602.55,261.91 602.87,261.45 603.52,260.51 604.49,260.05 605.14,259.58 605.46,259.11 606.75,258.65 607.40,258.65 608.05,258.18 609.02,257.72 609.34,257.25 613.55,256.78 614.52,256.78 615.49,256.32 615.82,255.85 617.43,255.38 617.76,254.45 618.08,253.98 618.41,253.05 619.70,252.59 620.67,252.12 622.94,251.19 623.91,250.72 624.23,250.25 624.88,250.25 625.53,248.86 627.47,248.39 627.79,247.92 631.03,247.46 631.35,246.99 632.32,245.59 632.65,245.13 633.62,244.66 633.94,244.66 634.27,244.19 635.88,243.73 636.21,242.79 637.18,241.86 638.80,241.40 640.09,240.93 641.06,240.93 644.62,240.93 644.95,240.93 646.89,240.93 647.54,240.00 648.18,240.00 649.48,240.00 649.80,240.00 652.39,239.53 655.30,239.06 655.95,238.60 656.27,237.67 656.60,237.20 659.51,236.73 660.81,236.73 661.13,236.27 661.45,235.80 662.10,235.80 663.39,235.33 663.72,234.87 664.37,234.40 665.66,233.94 667.28,233.47 667.60,233.47 668.25,233.00 668.57,232.54 668.90,232.54 669.22,232.07 669.54,231.60 670.19,231.14 674.08,230.67 676.34,230.67 678.61,230.67 679.58,230.67 679.90,230.21 680.22,229.74 681.20,229.74 681.52,229.27 683.79,228.81 684.11,228.34 685.40,228.34 685.73,227.87 686.05,227.41 687.35,226.94 688.32,226.94 689.61,226.01 690.58,226.01 690.91,226.01 692.85,225.54 693.49,224.61 694.47,224.14 694.79,223.68 695.44,223.21 697.38,222.28 698.03,222.28 698.67,221.81 699.00,221.35 699.64,220.88 699.97,220.41 700.94,219.95 701.26,219.02 701.91,218.55 703.20,218.08 703.53,217.62 704.18,216.68 704.82,216.22 706.12,215.75 706.44,215.29 707.74,214.82 709.03,214.35 710.65,214.35 711.62,213.89 711.94,213.42 713.56,213.42 713.89,212.95 715.18,212.49 716.15,211.09 716.80,211.09 717.77,210.62 719.06,210.16 719.39,209.69 720.03,209.22 722.62,208.76 724.57,208.29 726.83,207.82 730.39,207.36 730.72,207.36 731.04,206.89 732.98,205.49 733.63,205.03 733.95,204.56 734.28,204.09 735.25,203.63 735.57,203.16 736.22,202.70 738.81,201.76 740.43,201.30 741.07,201.30 742.69,201.30 743.99,200.83 746.90,200.36 748.19,200.36 750.14,199.90 755.96,199.90 758.23,199.90 758.87,199.43 761.79,198.97 762.43,198.50 763.08,198.03 765.02,197.57 765.67,197.10 766.32,196.17 766.64,196.17 766.97,195.70 769.55,195.24 772.47,194.77 774.09,194.30 776.03,193.84 778.94,193.84 781.53,192.44 782.82,191.97 783.47,191.51 784.77,191.04 786.39,190.57 787.03,190.11 787.68,189.64 789.62,189.17 790.92,188.71 791.24,187.78 794.15,187.78 794.48,187.31 794.80,187.31 795.45,186.84 796.42,186.84 797.71,186.38 799.66,185.91 799.98,185.44 800.95,185.44 803.22,185.44 805.48,184.98 807.42,184.51 810.01,184.05 810.66,183.58 810.98,183.11 811.95,183.11 812.28,182.65 812.60,182.18 813.25,181.25 814.54,180.78 816.81,180.32 817.13,179.85 818.10,178.92 820.05,178.45 821.66,177.98 821.99,177.52 823.28,177.05 824.25,176.59 824.58,176.59 825.87,176.12 826.52,176.12 828.14,175.65 828.46,175.19 828.78,173.79 830.73,173.32 831.70,172.86 832.02,172.39 833.96,172.39 835.26,171.92 835.58,170.52 835.91,170.52 838.17,169.12 839.79,168.66 843.67,168.19 844.00,167.73 845.94,167.26 848.85,166.79 852.09,166.33 854.03,165.39 854.35,164.93 854.68,164.46 855.32,164.00 857.91,163.53 860.18,163.06 863.42,162.60 863.74,162.60 866.65,162.13 867.62,161.66 868.92,161.20 878.95,160.73 880.25,159.80 880.57,159.33 883.81,158.87 885.43,157.93 887.69,157.47 888.34,157.47 888.66,157.00 890.60,156.54 891.90,156.07 892.55,155.60 892.87,155.14 893.19,154.67 894.16,154.20 895.78,153.74 896.11,153.74 897.72,153.27 899.99,152.81 902.26,152.34 902.90,151.87 906.46,151.41 906.79,150.94 908.40,150.47 910.02,150.01 912.94,149.54 914.23,149.08 916.50,149.08 916.82,148.61 917.47,148.61 919.09,148.14 919.41,147.68 920.06,147.21 921.03,146.28 921.35,144.88 921.67,143.95 922.00,143.48 923.29,143.01 923.62,143.01 925.56,142.55 925.88,142.08 927.50,141.62 927.82,141.15 928.47,140.68 929.12,140.68 930.09,140.22 933.33,139.75 939.15,139.28 940.45,138.82 942.07,138.35 943.36,137.89 944.65,137.42 945.63,136.95 946.60,136.02 948.86,136.02 950.48,135.55 951.13,135.55 953.39,135.55 953.72,135.55 954.04,135.09 957.60,134.62 959.54,134.16 959.87,134.16 962.78,133.69 967.63,133.22 968.93,133.22 969.25,132.76 970.22,132.29 974.11,131.82 978.64,131.36 978.96,131.36 983.17,130.89 985.76,130.43 998.38,129.96 1001.30,129.03 1002.27,128.56 1003.88,128.09 1004.21,127.16 1010.03,126.69 1012.62,126.23 1017.80,125.76 1019.42,125.30 1021.69,124.83 1028.24,124.83 1031.15,124.83 1031.47,124.36 1032.12,124.36 1032.44,124.83 1033.41,124.83 1033.73,125.30 1035.03,125.30 1035.36,124.83 1036.00,124.83"/>
<circle cx="90.00" cy="468.00" r="3.8" fill="#ffb50c" stroke="#111827" stroke-width="1"/>
<circle cx="191.82" cy="453.55" r="3.8" fill="#ffb50c" stroke="#111827" stroke-width="1"/>
<circle cx="245.55" cy="440.49" r="3.8" fill="#ffb50c" stroke="#111827" stroke-width="1"/>
<circle cx="282.45" cy="426.04" r="3.8" fill="#ffb50c" stroke="#111827" stroke-width="1"/>
<circle cx="319.34" cy="412.51" r="3.8" fill="#ffb50c" stroke="#111827" stroke-width="1"/>
<circle cx="353.33" cy="399.46" r="3.8" fill="#ffb50c" stroke="#111827" stroke-width="1"/>
<circle cx="394.43" cy="381.74" r="3.8" fill="#ffb50c" stroke="#111827" stroke-width="1"/>
<circle cx="426.48" cy="364.02" r="3.8" fill="#ffb50c" stroke="#111827" stroke-width="1"/>
<circle cx="454.63" cy="349.10" r="3.8" fill="#ffb50c" stroke="#111827" stroke-width="1"/>
<circle cx="482.47" cy="334.18" r="3.8" fill="#ffb50c" stroke="#111827" stroke-width="1"/>
<circle cx="505.45" cy="315.53" r="3.8" fill="#ffb50c" stroke="#111827" stroke-width="1"/>
<circle cx="533.93" cy="298.28" r="3.8" fill="#ffb50c" stroke="#111827" stroke-width="1"/>
<circle cx="560.79" cy="284.29" r="3.8" fill="#ffb50c" stroke="#111827" stroke-width="1"/>
<circle cx="587.98" cy="267.51" r="3.8" fill="#ffb50c" stroke="#111827" stroke-width="1"/>
<circle cx="618.41" cy="253.05" r="3.8" fill="#ffb50c" stroke="#111827" stroke-width="1"/>
<circle cx="652.39" cy="239.53" r="3.8" fill="#ffb50c" stroke="#111827" stroke-width="1"/>
<circle cx="683.79" cy="228.81" r="3.8" fill="#ffb50c" stroke="#111827" stroke-width="1"/>
<circle cx="707.74" cy="214.82" r="3.8" fill="#ffb50c" stroke="#111827" stroke-width="1"/>
<circle cx="742.69" cy="201.30" r="3.8" fill="#ffb50c" stroke="#111827" stroke-width="1"/>
<circle cx="791.24" cy="187.78" r="3.8" fill="#ffb50c" stroke="#111827" stroke-width="1"/>
<circle cx="825.87" cy="176.12" r="3.8" fill="#ffb50c" stroke="#111827" stroke-width="1"/>
<circle cx="878.95" cy="160.73" r="3.8" fill="#ffb50c" stroke="#111827" stroke-width="1"/>
<circle cx="919.41" cy="147.68" r="3.8" fill="#ffb50c" stroke="#111827" stroke-width="1"/>
<circle cx="959.54" cy="134.16" r="3.8" fill="#ffb50c" stroke="#111827" stroke-width="1"/>
<circle cx="1035.36" cy="124.83" r="3.8" fill="#ffb50c" stroke="#111827" stroke-width="1"/>
<circle cx="1036.00" cy="124.83" r="3.8" fill="#ffb50c" stroke="#111827" stroke-width="1"/>
<text x="1028.00" y="114.83" text-anchor="end" fill="#ffb50c" font-size="12" font-family="-apple-system,BlinkMacSystemFont,Segoe UI,Helvetica,Arial,sans-serif">736</text>
<rect x="90.00" y="514.00" width="14" height="14" fill="url(#repo-0)" rx="3"/>
<text x="112.00" y="526.00" fill="#3bf2af" font-size="13" font-family="-apple-system,BlinkMacSystemFont,Segoe UI,Helvetica,Arial,sans-serif">bavix/gripmock</text>
<rect x="280.00" y="514.00" width="14" height="14" fill="url(#repo-1)" rx="3"/>
<text x="302.00" y="526.00" fill="#ffb50c" font-size="13" font-family="-apple-system,BlinkMacSystemFont,Segoe UI,Helvetica,Arial,sans-serif">tokopedia/gripmock</text>
<text x="1036.00" y="526.00" text-anchor="end" fill="#9ca3af" font-size="12" font-family="-apple-system,BlinkMacSystemFont,Segoe UI,Helvetica,Arial,sans-serif">Source: https://github.com/bavix/artifact-stats/blob/master/stats/github.csv</text>
</svg>