<svg xmlns="http://www.w3.org/2000/svg" width="1100" height="560" viewBox="0 0 1100 560">
<defs>
<linearGradient id="bg" x1="0" y1="0" x2="1" y2="1"><stop offset="0%" stop-color="#0b1220"/><stop offset="100%" stop-color="#111827"/></linearGradient>
<linearGradient id="repo-0" x1="0" y1="0" x2="0" y2="1"><stop offset="0%" stop-color="#34d399"/><stop offset="100%" stop-color="#059669"/></linearGradient>
<linearGradient id="repo-1" x1="0" y1="0" x2="0" y2="1"><stop offset="0%" stop-color="#f59e0b"/><stop offset="100%" stop-color="#d97706"/></linearGradient>
</defs>
<rect x="0" y="0" width="1100" height="560" fill="url(#bg)" rx="16"/>
<text x="90" y="44" fill="#f9fafb" font-size="28" font-family="-apple-system,BlinkMacSystemFont,Segoe UI,Helvetica,Arial,sans-serif" font-weight="700">GripMock GitHub Metrics - Stars</text>
<text x="90" y="70" fill="#9ca3af" font-size="16" font-family="-apple-system,BlinkMacSystemFont,Segoe UI,Helvetica,Arial,sans-serif">GitHub stars by snapshot date</text>
<line x1="90" y1="90.00" x2="1036" y2="90.00" stroke="#1f2937" stroke-width="1"/>
<text x="80" y="95.00" text-anchor="end" fill="#9ca3af" font-size="12" font-family="-apple-system,BlinkMacSystemFont,Segoe UI,Helvetica,Arial,sans-serif">811</text>
<line x1="90" y1="153.00" x2="1036" y2="153.00" stroke="#1f2937" stroke-width="1"/>
<text x="80" y="158.00" text-anchor="end" fill="#9ca3af" font-size="12" font-family="-apple-system,BlinkMacSystemFont,Segoe UI,Helvetica,Arial,sans-serif">676</text>
<line x1="90" y1="216.00" x2="1036" y2="216.00" stroke="#1f2937" stroke-width="1"/>
<text x="80" y="221.00" text-anchor="end" fill="#9ca3af" font-size="12" font-family="-apple-system,BlinkMacSystemFont,Segoe UI,Helvetica,Arial,sans-serif">540</text>
<line x1="90" y1="279.00" x2="1036" y2="279.00" stroke="#1f2937" stroke-width="1"/>
<text x="80" y="284.00" text-anchor="end" fill="#9ca3af" font-size="12" font-family="-apple-system,BlinkMacSystemFont,Segoe UI,Helvetica,Arial,sans-serif">405</text>
<line x1="90" y1="342.00" x2="1036" y2="342.00" stroke="#1f2937" stroke-width="1"/>
<text x="80" y="347.00" text-anchor="end" fill="#9ca3af" font-size="12" font-family="-apple-system,BlinkMacSystemFont,Segoe UI,Helvetica,Arial,sans-serif">270</text>
<line x1="90" y1="405.00" x2="1036" y2="405.00" stroke="#1f2937" stroke-width="1"/>
<text x="80" y="410.00" text-anchor="end" fill="#9ca3af" font-size="12" font-family="-apple-system,BlinkMacSystemFont,Segoe UI,Helvetica,Arial,sans-serif">135</text>
<line x1="90" y1="468.00" x2="1036" y2="468.00" stroke="#1f2937" stroke-width="1"/>
<text x="80" y="473.00" text-anchor="end" fill="#9ca3af" font-size="12" font-family="-apple-system,BlinkMacSystemFont,Segoe UI,Helvetica,Arial,sans-serif">0</text>
<line x1="90" y1="468" x2="1036" y2="468" stroke="#4b5563" stroke-width="1.4"/>
<line x1="90" y1="90" x2="90" y2="468" stroke="#4b5563" stroke-width="1.4"/>
<line x1="90.00" y1="468" x2="90.00" y2="474" stroke="#6b7280" stroke-width="1"/>
<text x="90.00" y="494" text-anchor="start" fill="#9ca3af" font-size="12" font-family="-apple-system,BlinkMacSystemFont,Segoe UI,Helvetica,Arial,sans-serif">2018-04-24</text>
<line x1="279.20" y1="468" x2="279.20" y2="474" stroke="#6b7280" stroke-width="1"/>
<text x="279.20" y="494" text-anchor="middle" fill="#9ca3af" font-size="12" font-family="-apple-system,BlinkMacSystemFont,Segoe UI,Helvetica,Arial,sans-serif">2019-11-29</text>
<line x1="468.40" y1="468" x2="468.40" y2="474" stroke="#6b7280" stroke-width="1"/>
<text x="468.40" y="494" text-anchor="middle" fill="#9ca3af" font-size="12" font-family="-apple-system,BlinkMacSystemFont,Segoe UI,Helvetica,Arial,sans-serif">2021-07-06</text>
<line x1="657.60" y1="468" x2="657.60" y2="474" stroke="#6b7280" stroke-width="1"/>
<text x="657.60" y="494" text-anchor="middle" fill="#9ca3af" font-size="12" font-family="-apple-system,BlinkMacSystemFont,Segoe UI,Helvetica,Arial,sans-serif">2023-02-10</text>
<line x1="846.80" y1="468" x2="846.80" y2="474" stroke="#6b7280" stroke-width="1"/>
<text x="846.80" y="494" text-anchor="middle" fill="#9ca3af" font-size="12" font-family="-apple-system,BlinkMacSystemFont,Segoe UI,Helvetica,Arial,sans-serif">2024-09-16</text>
<line x1="1036.00" y1="468" x2="1036.00" y2="474" stroke="#6b7280" stroke-width="1"/>
<text x="1036.00" y="494" text-anchor="end" fill="#9ca3af" font-size="12" font-family="-apple-system,BlinkMacSystemFont,Segoe UI,Helvetica,Arial,sans-serif">2026-04-24</text>
<polyline fill="none" stroke="url(#repo-0)" stroke-width="4" stroke-linecap="round" stroke-linejoin="round" points="718.11,468.00 724.78,467.53 737.73,467.07 751.33,466.60 753.27,466.13 756.51,465.67 768.16,465.20 770.43,464.74 775.93,464.27 776.26,463.80 781.11,463.34 788.89,462.87 801.19,462.40 804.43,461.94 808.64,461.47 812.20,461.01 827.09,460.54 831.62,460.07 832.27,459.61 833.57,459.14 839.72,458.67 853.32,458.21 856.23,457.74 863.03,457.28 868.53,456.81 869.18,456.34 869.83,455.88 889.90,455.41 892.49,454.94 893.14,454.48 899.29,454.01 899.94,453.55 903.82,453.55 905.12,453.08 905.44,452.61 905.77,452.15 908.68,451.68 910.30,451.21 911.92,450.75 917.10,450.75 921.63,450.75 923.25,450.28 923.90,450.28 930.70,449.82 934.58,449.35 946.24,448.88 948.50,448.42 949.15,448.42 951.09,447.95 953.04,447.48 955.95,447.48 961.13,447.02 967.93,446.55 972.14,446.09 983.47,445.62 985.74,445.15 990.59,444.69 990.92,444.22 991.89,443.75 994.48,443.29 994.80,443.29 1003.54,442.82 1010.34,442.36 1010.99,441.89 1013.26,441.42 1019.73,440.96 1022.00,440.49 1023.62,440.02 1025.24,439.56 1028.55,439.56 1029.51,439.56 1029.84,439.09 1030.49,439.09 1030.81,438.63 1031.14,439.09 1035.67,439.09 1036.00,438.63"/>
<circle cx="718.11" cy="468.00" r="3.8" fill="#3bf2af" stroke="#111827" stroke-width="1"/>
<circle cx="751.33" cy="466.60" r="3.8" fill="#3bf2af" stroke="#111827" stroke-width="1"/>
<circle cx="768.16" cy="465.20" r="3.8" fill="#3bf2af" stroke="#111827" stroke-width="1"/>
<circle cx="776.26" cy="463.80" r="3.8" fill="#3bf2af" stroke="#111827" stroke-width="1"/>
<circle cx="801.19" cy="462.40" r="3.8" fill="#3bf2af" stroke="#111827" stroke-width="1"/>
<circle cx="812.20" cy="461.01" r="3.8" fill="#3bf2af" stroke="#111827" stroke-width="1"/>
<circle cx="832.27" cy="459.61" r="3.8" fill="#3bf2af" stroke="#111827" stroke-width="1"/>
<circle cx="853.32" cy="458.21" r="3.8" fill="#3bf2af" stroke="#111827" stroke-width="1"/>
<circle cx="868.53" cy="456.81" r="3.8" fill="#3bf2af" stroke="#111827" stroke-width="1"/>
<circle cx="889.90" cy="455.41" r="3.8" fill="#3bf2af" stroke="#111827" stroke-width="1"/>
<circle cx="899.29" cy="454.01" r="3.8" fill="#3bf2af" stroke="#111827" stroke-width="1"/>
<circle cx="905.12" cy="453.08" r="3.8" fill="#3bf2af" stroke="#111827" stroke-width="1"/>
<circle cx="908.68" cy="451.68" r="3.8" fill="#3bf2af" stroke="#111827" stroke-width="1"/>
<circle cx="917.10" cy="450.75" r="3.8" fill="#3bf2af" stroke="#111827" stroke-width="1"/>
<circle cx="923.90" cy="450.28" r="3.8" fill="#3bf2af" stroke="#111827" stroke-width="1"/>
<circle cx="946.24" cy="448.88" r="3.8" fill="#3bf2af" stroke="#111827" stroke-width="1"/>
<circle cx="951.09" cy="447.95" r="3.8" fill="#3bf2af" stroke="#111827" stroke-width="1"/>
<circle cx="961.13" cy="447.02" r="3.8" fill="#3bf2af" stroke="#111827" stroke-width="1"/>
<circle cx="983.47" cy="445.62" r="3.8" fill="#3bf2af" stroke="#111827" stroke-width="1"/>
<circle cx="990.92" cy="444.22" r="3.8" fill="#3bf2af" stroke="#111827" stroke-width="1"/>
<circle cx="994.80" cy="443.29" r="3.8" fill="#3bf2af" stroke="#111827" stroke-width="1"/>
<circle cx="1010.99" cy="441.89" r="3.8" fill="#3bf2af" stroke="#111827" stroke-width="1"/>
<circle cx="1022.00" cy="440.49" r="3.8" fill="#3bf2af" stroke="#111827" stroke-width="1"/>
<circle cx="1028.55" cy="439.56" r="3.8" fill="#3bf2af" stroke="#111827" stroke-width="1"/>
<circle cx="1030.49" cy="439.09" r="3.8" fill="#3bf2af" stroke="#111827" stroke-width="1"/>
<circle cx="1035.67" cy="439.09" r="3.8" fill="#3bf2af" stroke="#111827" stroke-width="1"/>
<circle cx="1036.00" cy="438.63" r="3.8" fill="#3bf2af" stroke="#111827" stroke-width="1"/>
<text x="1028.00" y="428.63" text-anchor="end" fill="#3bf2af" font-size="12" font-family="-apple-system,BlinkMacSystemFont,Segoe UI,Helvetica,Arial,sans-serif">63</text>
<polyline fill="none" stroke="url(#repo-1)" stroke-width="4" stroke-linecap="round" stroke-linejoin="round" points="90.00,468.00 91.81,466.60 92.46,466.13 96.02,465.67 99.58,465.20 136.49,464.74 137.46,464.27 143.29,464.27 149.12,463.80 153.65,463.80 157.21,463.34 157.86,462.87 158.18,462.40 158.51,461.94 160.13,461.47 160.77,461.01 164.98,460.54 165.31,460.07 169.19,459.61 170.16,459.14 170.49,458.67 172.11,458.21 173.73,457.28 175.67,456.81 176.64,456.34 181.82,455.88 184.41,455.41 186.03,454.94 186.35,454.48 191.53,454.01 191.86,453.55 192.50,453.08 195.74,452.61 196.39,451.68 196.71,451.68 197.04,451.68 202.86,451.21 204.48,451.21 210.63,450.75 211.93,450.28 212.58,450.28 215.17,449.82 218.08,449.35 221.97,449.35 222.29,448.88 224.56,448.42 226.82,447.95 230.06,447.48 231.03,447.02 233.30,446.55 235.56,446.09 237.51,445.62 237.83,445.15 238.16,444.69 240.75,444.22 241.39,443.75 242.04,442.82 242.36,442.36 242.69,441.42 243.01,440.96 245.60,440.49 246.25,439.56 248.84,439.56 254.34,439.09 254.99,439.09 255.31,438.63 255.64,438.16 256.29,438.16 257.58,437.69 257.90,437.23 259.85,436.76 260.17,436.29 262.44,435.83 263.41,434.90 264.06,433.96 265.03,433.96 266.65,433.50 266.97,433.03 267.94,432.56 270.86,432.10 274.42,431.63 275.39,431.17 276.36,430.70 276.68,430.23 277.98,429.77 278.30,429.30 278.95,428.83 279.92,427.44 281.54,426.97 282.19,426.50 282.51,426.04 282.84,424.64 284.45,424.17 285.43,423.70 286.07,423.24 287.37,423.24 287.69,422.77 289.31,422.31 292.87,421.84 294.81,421.37 296.43,421.37 296.76,420.44 299.02,419.97 300.64,419.51 300.97,419.51 302.91,419.04 303.23,418.58 303.88,418.58 304.85,418.58 305.18,418.11 305.50,417.64 305.82,417.18 310.36,415.78 314.24,415.31 314.56,414.85 315.21,414.38 316.51,413.91 316.83,413.45 318.45,413.45 319.10,412.98 319.42,412.51 319.74,412.05 320.07,411.58 321.69,411.12 324.93,410.65 326.22,410.18 326.54,410.18 327.19,409.72 327.52,409.72 328.16,408.32 328.81,407.85 329.46,407.85 330.75,407.39 331.40,406.92 333.34,406.45 333.67,405.99 334.96,405.52 336.90,405.05 338.20,404.59 339.49,404.59 339.82,404.12 340.47,403.66 341.44,403.19 342.41,402.72 344.03,402.26 345.65,401.79 347.27,401.32 350.18,400.86 352.77,400.39 353.09,399.93 353.42,399.46 358.27,398.99 359.24,398.53 360.22,398.06 360.54,397.13 361.51,396.66 363.78,395.73 364.10,394.80 365.72,394.33 367.66,394.33 370.90,393.86 371.87,393.40 372.84,392.93 374.14,392.00 374.79,391.53 375.11,391.07 375.76,390.60 377.38,389.67 378.67,389.20 382.88,388.27 384.50,386.87 385.47,385.94 388.38,385.94 389.03,385.94 389.35,385.47 389.68,384.54 391.30,383.61 392.27,383.14 393.56,382.67 393.89,382.21 394.54,381.74 396.80,381.27 397.13,380.81 397.77,380.34 400.04,379.88 400.69,379.41 401.98,378.94 402.95,378.48 403.28,378.01 403.60,377.54 407.49,377.08 408.13,376.61 409.43,375.68 409.75,375.21 411.05,374.75 412.34,371.48 412.67,370.55 412.99,370.08 414.61,369.62 415.26,369.15 416.88,369.15 418.17,368.69 419.14,368.22 421.08,367.29 422.38,366.82 424.00,366.35 424.32,365.89 424.97,365.42 425.62,364.49 426.26,364.02 426.59,364.02 427.56,364.02 427.88,363.56 428.21,363.09 428.53,362.62 430.15,362.16 430.80,361.23 432.09,360.76 432.74,359.83 433.71,359.36 434.36,358.89 435.33,358.43 436.63,357.96 437.92,357.96 439.22,357.50 439.54,357.03 441.16,356.56 441.48,356.10 442.13,355.63 442.45,355.16 443.10,354.70 443.42,353.30 445.04,352.83 446.34,352.37 447.96,351.90 452.49,350.97 452.81,350.50 453.14,350.50 453.46,350.04 454.43,349.57 454.76,349.10 455.08,348.64 455.40,347.70 456.70,347.24 457.35,346.31 457.67,344.91 458.64,344.91 458.97,344.91 459.61,343.97 461.56,343.51 461.88,342.58 462.20,342.11 463.50,341.64 465.76,341.18 466.09,340.71 466.74,340.24 469.00,339.78 470.62,339.31 472.24,339.31 475.15,339.31 476.45,338.84 476.77,338.38 477.10,338.38 477.74,337.91 478.07,336.98 478.39,336.51 479.36,336.05 479.69,335.58 480.66,335.11 482.28,334.18 482.60,334.18 482.92,333.25 483.25,332.78 483.57,331.38 483.90,330.45 484.22,329.99 484.87,329.52 485.19,327.65 485.51,327.19 486.49,326.72 487.13,325.79 487.78,325.32 489.08,324.86 490.37,324.39 490.69,323.92 491.02,323.46 491.34,322.99 492.96,322.53 494.26,322.06 494.58,321.59 495.87,320.66 496.20,319.73 496.52,319.73 499.76,319.26 500.08,318.80 500.73,318.33 502.35,317.40 503.00,316.93 503.65,316.46 504.94,316.46 505.59,315.53 505.91,315.53 506.24,313.67 506.56,311.34 507.85,310.87 508.18,310.40 508.83,309.94 509.15,309.47 510.12,309.00 510.44,308.54 511.74,308.07 514.65,307.61 515.62,307.14 516.60,306.67 516.92,305.27 517.24,304.81 517.57,304.34 517.89,303.88 518.54,303.41 520.80,303.41 522.10,302.94 522.42,302.48 522.75,302.01 523.72,301.54 525.01,301.54 526.31,301.08 527.93,300.61 528.25,300.15 531.81,299.68 533.43,299.21 534.08,298.28 534.73,297.81 537.32,297.35 537.96,296.88 538.29,296.41 539.26,295.95 539.91,295.48 540.55,295.48 541.20,295.02 541.85,294.55 543.14,294.08 543.47,293.62 543.79,293.15 545.41,293.15 546.06,292.68 546.38,292.22 547.35,291.29 548.00,290.35 548.65,289.89 550.27,288.95 550.59,288.95 550.92,288.49 551.89,288.02 552.53,287.56 553.18,287.09 554.80,286.62 557.71,286.16 558.04,285.69 559.33,285.22 559.66,284.76 560.95,284.29 561.28,283.83 561.60,281.96 562.25,281.49 563.22,281.03 563.54,280.56 563.87,280.10 564.51,279.63 565.81,279.16 566.78,279.16 567.10,278.70 571.31,278.23 571.64,277.76 572.61,276.83 573.26,276.37 575.52,275.90 576.49,275.43 576.82,274.97 577.14,274.50 579.73,273.57 580.05,273.10 580.38,271.24 581.35,270.77 581.67,270.30 582.32,269.84 584.59,269.37 585.23,268.91 585.88,268.91 586.85,268.44 587.18,267.97 588.15,267.51 593.65,267.04 594.95,266.11 595.27,265.64 596.89,265.18 597.54,265.18 597.86,264.24 598.19,264.24 598.51,263.78 599.48,263.31 600.45,262.84 600.78,262.38 602.72,261.91 603.04,261.45 603.69,260.51 604.66,260.05 605.31,259.58 605.63,259.11 606.93,258.65 607.57,258.65 608.22,258.18 609.19,257.72 609.52,257.25 613.73,256.78 614.70,256.78 615.67,256.32 615.99,255.85 617.61,255.38 617.94,254.45 618.26,253.98 618.58,253.05 619.88,252.59 620.85,252.12 623.12,251.19 624.09,250.72 624.41,250.25 625.06,250.25 625.71,248.86 627.65,248.39 627.97,247.92 631.21,247.46 631.53,246.99 632.51,245.59 632.83,245.13 633.80,244.66 634.12,244.66 634.45,244.19 636.07,243.73 636.39,242.79 637.36,241.86 638.98,241.40 640.28,240.93 641.25,240.93 644.81,240.93 645.13,240.93 647.07,240.93 647.72,240.00 648.37,240.00 649.66,240.00 649.99,240.00 652.58,239.53 655.49,239.06 656.14,238.60 656.46,237.67 656.79,237.20 659.70,236.73 661.00,236.73 661.32,236.27 661.64,235.80 662.29,235.80 663.59,235.33 663.91,234.87 664.56,234.40 665.85,233.94 667.47,233.47 667.80,233.47 668.44,233.00 668.77,232.54 669.09,232.54 669.41,232.07 669.74,231.60 670.39,231.14 674.27,230.67 676.54,230.67 678.80,230.67 679.78,230.67 680.10,230.21 680.42,229.74 681.39,229.74 681.72,229.27 683.98,228.81 684.31,228.34 685.60,228.34 685.93,227.87 686.25,227.41 687.55,226.94 688.52,226.94 689.81,226.01 690.78,226.01 691.11,226.01 693.05,225.54 693.70,224.61 694.67,224.14 694.99,223.68 695.64,223.21 697.58,222.28 698.23,222.28 698.88,221.81 699.20,221.35 699.85,220.88 700.17,220.41 701.14,219.95 701.47,219.02 702.12,218.55 703.41,218.08 703.73,217.62 704.38,216.68 705.03,216.22 706.32,215.75 706.65,215.29 707.94,214.82 709.24,214.35 710.86,214.35 711.83,213.89 712.15,213.42 713.77,213.42 714.09,212.95 715.39,212.49 716.36,211.09 717.01,211.09 717.98,210.62 719.27,210.16 719.60,209.69 720.25,209.22 722.84,208.76 724.78,208.29 727.05,207.82 730.61,207.36 730.93,207.36 731.25,206.89 733.20,205.49 733.84,205.03 734.17,204.56 734.49,204.09 735.46,203.63 735.79,203.16 736.43,202.70 739.02,201.76 740.64,201.30 741.29,201.30 742.91,201.30 744.21,200.83 747.12,200.36 748.41,200.36 750.36,199.90 756.18,199.90 758.45,199.90 759.10,199.43 762.01,198.97 762.66,198.50 763.31,198.03 765.25,197.57 765.90,197.10 766.55,196.17 766.87,196.17 767.19,195.70 769.78,195.24 772.70,194.77 774.32,194.30 776.26,193.84 779.17,193.84 781.76,192.44 783.06,191.97 783.70,191.51 785.00,191.04 786.62,190.57 787.27,190.11 787.91,189.64 789.86,189.17 791.15,188.71 791.48,187.78 794.39,187.78 794.71,187.31 795.04,187.31 795.68,186.84 796.66,186.84 797.95,186.38 799.89,185.91 800.22,185.44 801.19,185.44 803.45,185.44 805.72,184.98 807.66,184.51 810.25,184.05 810.90,183.58 811.23,183.11 812.20,183.11 812.52,182.65 812.84,182.18 813.49,181.25 814.79,180.78 817.05,180.32 817.38,179.85 818.35,178.92 820.29,178.45 821.91,177.98 822.23,177.52 823.53,177.05 824.50,176.59 824.82,176.59 826.12,176.12 826.77,176.12 828.38,175.65 828.71,175.19 829.03,173.79 830.98,173.32 831.95,172.86 832.27,172.39 834.21,172.39 835.51,171.92 835.83,170.52 836.16,170.52 838.42,169.12 840.04,168.66 843.93,168.19 844.25,167.73 846.19,167.26 849.11,166.79 852.34,166.33 854.29,165.39 854.61,164.93 854.93,164.46 855.58,164.00 858.17,163.53 860.44,163.06 863.68,162.60 864.00,162.60 866.91,162.13 867.88,161.66 869.18,161.20 879.22,160.73 880.51,159.80 880.84,159.33 884.07,158.87 885.69,157.93 887.96,157.47 888.61,157.47 888.93,157.00 890.87,156.54 892.17,156.07 892.81,155.60 893.14,155.14 893.46,154.67 894.43,154.20 896.05,153.74 896.38,153.74 898.00,153.27 900.26,152.81 902.53,152.34 903.18,151.87 906.74,151.41 907.06,150.94 908.68,150.47 910.30,150.01 913.21,149.54 914.51,149.08 916.77,149.08 917.10,148.61 917.74,148.61 919.36,148.14 919.69,147.68 920.34,147.21 921.31,146.28 921.63,144.88 921.95,143.95 922.28,143.48 923.57,143.01 923.90,143.01 925.84,142.55 926.16,142.08 927.78,141.62 928.11,141.15 928.75,140.68 929.40,140.68 930.37,140.22 933.61,139.75 939.44,139.28 940.73,138.82 942.35,138.35 943.65,137.89 944.94,137.42 945.91,136.95 946.88,136.02 949.15,136.02 950.77,135.55 951.42,135.55 953.68,135.55 954.01,135.55 954.33,135.09 957.89,134.62 959.83,134.16 960.16,134.16 963.07,133.69 967.93,133.22 969.22,133.22 969.55,132.76 970.52,132.29 974.40,131.82 978.94,131.36 979.26,131.36 983.47,130.89 986.06,130.43 998.69,129.96 1001.60,129.03 1002.57,128.56 1004.19,128.09 1004.51,127.16 1010.34,126.69 1012.93,126.23 1018.11,125.76 1019.73,125.30 1022.00,124.83 1028.55,124.83 1031.46,124.83 1031.78,124.36 1032.44,124.36 1032.76,124.83 1033.73,124.83 1034.05,125.30 1035.35,125.30 1035.67,124.83 1036.00,124.83"/>
<circle cx="90.00" cy="468.00" r="3.8" fill="#ffb50c" stroke="#111827" stroke-width="1"/>
<circle cx="191.86" cy="453.55" r="3.8" fill="#ffb50c" stroke="#111827" stroke-width="1"/>
<circle cx="245.60" cy="440.49" r="3.8" fill="#ffb50c" stroke="#111827" stroke-width="1"/>
<circle cx="282.51" cy="426.04" r="3.8" fill="#ffb50c" stroke="#111827" stroke-width="1"/>
<circle cx="319.42" cy="412.51" r="3.8" fill="#ffb50c" stroke="#111827" stroke-width="1"/>
<circle cx="353.42" cy="399.46" r="3.8" fill="#ffb50c" stroke="#111827" stroke-width="1"/>
<circle cx="394.54" cy="381.74" r="3.8" fill="#ffb50c" stroke="#111827" stroke-width="1"/>
<circle cx="426.59" cy="364.02" r="3.8" fill="#ffb50c" stroke="#111827" stroke-width="1"/>
<circle cx="454.76" cy="349.10" r="3.8" fill="#ffb50c" stroke="#111827" stroke-width="1"/>
<circle cx="482.60" cy="334.18" r="3.8" fill="#ffb50c" stroke="#111827" stroke-width="1"/>
<circle cx="505.59" cy="315.53" r="3.8" fill="#ffb50c" stroke="#111827" stroke-width="1"/>
<circle cx="534.08" cy="298.28" r="3.8" fill="#ffb50c" stroke="#111827" stroke-width="1"/>
<circle cx="560.95" cy="284.29" r="3.8" fill="#ffb50c" stroke="#111827" stroke-width="1"/>
<circle cx="588.15" cy="267.51" r="3.8" fill="#ffb50c" stroke="#111827" stroke-width="1"/>
<circle cx="618.58" cy="253.05" r="3.8" fill="#ffb50c" stroke="#111827" stroke-width="1"/>
<circle cx="652.58" cy="239.53" r="3.8" fill="#ffb50c" stroke="#111827" stroke-width="1"/>
<circle cx="683.98" cy="228.81" r="3.8" fill="#ffb50c" stroke="#111827" stroke-width="1"/>
<circle cx="707.94" cy="214.82" r="3.8" fill="#ffb50c" stroke="#111827" stroke-width="1"/>
<circle cx="742.91" cy="201.30" r="3.8" fill="#ffb50c" stroke="#111827" stroke-width="1"/>
<circle cx="791.48" cy="187.78" r="3.8" fill="#ffb50c" stroke="#111827" stroke-width="1"/>
<circle cx="826.12" cy="176.12" r="3.8" fill="#ffb50c" stroke="#111827" stroke-width="1"/>
<circle cx="879.22" cy="160.73" r="3.8" fill="#ffb50c" stroke="#111827" stroke-width="1"/>
<circle cx="919.69" cy="147.68" r="3.8" fill="#ffb50c" stroke="#111827" stroke-width="1"/>
<circle cx="959.83" cy="134.16" r="3.8" fill="#ffb50c" stroke="#111827" stroke-width="1"/>
<circle cx="1035.67" cy="124.83" r="3.8" fill="#ffb50c" stroke="#111827" stroke-width="1"/>
<circle cx="1036.00" cy="124.83" r="3.8" fill="#ffb50c" stroke="#111827" stroke-width="1"/>
<text x="1028.00" y="114.83" text-anchor="end" fill="#ffb50c" font-size="12" font-family="-apple-system,BlinkMacSystemFont,Segoe UI,Helvetica,Arial,sans-serif">736</text>
<rect x="90.00" y="514.00" width="14" height="14" fill="url(#repo-0)" rx="3"/>
<text x="112.00" y="526.00" fill="#3bf2af" font-size="13" font-family="-apple-system,BlinkMacSystemFont,Segoe UI,Helvetica,Arial,sans-serif">bavix/gripmock</text>
<rect x="280.00" y="514.00" width="14" height="14" fill="url(#repo-1)" rx="3"/>
<text x="302.00" y="526.00" fill="#ffb50c" font-size="13" font-family="-apple-system,BlinkMacSystemFont,Segoe UI,Helvetica,Arial,sans-serif">tokopedia/gripmock</text>
<text x="1036.00" y="526.00" text-anchor="end" fill="#9ca3af" font-size="12" font-family="-apple-system,BlinkMacSystemFont,Segoe UI,Helvetica,Arial,sans-serif">Source: https://github.com/bavix/artifact-stats/blob/master/stats/github.csv</text>
</svg>