<svg xmlns="http://www.w3.org/2000/svg" width="1100" height="560" viewBox="0 0 1100 560">
<defs>
<linearGradient id="bg" x1="0" y1="0" x2="1" y2="1"><stop offset="0%" stop-color="#0b1220"/><stop offset="100%" stop-color="#111827"/></linearGradient>
<linearGradient id="repo-0" x1="0" y1="0" x2="0" y2="1"><stop offset="0%" stop-color="#34d399"/><stop offset="100%" stop-color="#059669"/></linearGradient>
<linearGradient id="repo-1" x1="0" y1="0" x2="0" y2="1"><stop offset="0%" stop-color="#f59e0b"/><stop offset="100%" stop-color="#d97706"/></linearGradient>
</defs>
<rect x="0" y="0" width="1100" height="560" fill="url(#bg)" rx="16"/>
<text x="90" y="44" fill="#f9fafb" font-size="28" font-family="-apple-system,BlinkMacSystemFont,Segoe UI,Helvetica,Arial,sans-serif" font-weight="700">GripMock GitHub Metrics - Stars</text>
<text x="90" y="70" fill="#9ca3af" font-size="16" font-family="-apple-system,BlinkMacSystemFont,Segoe UI,Helvetica,Arial,sans-serif">GitHub stars by snapshot date</text>
<line x1="90" y1="90.0" x2="1036" y2="90.0" stroke="#1f2937" stroke-width="1"/>
<text x="80" y="95.0" text-anchor="end" fill="#9ca3af" font-size="12" font-family="-apple-system,BlinkMacSystemFont,Segoe UI,Helvetica,Arial,sans-serif">810</text>
<line x1="90" y1="153.0" x2="1036" y2="153.0" stroke="#1f2937" stroke-width="1"/>
<text x="80" y="158.0" text-anchor="end" fill="#9ca3af" font-size="12" font-family="-apple-system,BlinkMacSystemFont,Segoe UI,Helvetica,Arial,sans-serif">675</text>
<line x1="90" y1="216.0" x2="1036" y2="216.0" stroke="#1f2937" stroke-width="1"/>
<text x="80" y="221.0" text-anchor="end" fill="#9ca3af" font-size="12" font-family="-apple-system,BlinkMacSystemFont,Segoe UI,Helvetica,Arial,sans-serif">540</text>
<line x1="90" y1="279.0" x2="1036" y2="279.0" stroke="#1f2937" stroke-width="1"/>
<text x="80" y="284.0" text-anchor="end" fill="#9ca3af" font-size="12" font-family="-apple-system,BlinkMacSystemFont,Segoe UI,Helvetica,Arial,sans-serif">405</text>
<line x1="90" y1="342.0" x2="1036" y2="342.0" stroke="#1f2937" stroke-width="1"/>
<text x="80" y="347.0" text-anchor="end" fill="#9ca3af" font-size="12" font-family="-apple-system,BlinkMacSystemFont,Segoe UI,Helvetica,Arial,sans-serif">270</text>
<line x1="90" y1="405.0" x2="1036" y2="405.0" stroke="#1f2937" stroke-width="1"/>
<text x="80" y="410.0" text-anchor="end" fill="#9ca3af" font-size="12" font-family="-apple-system,BlinkMacSystemFont,Segoe UI,Helvetica,Arial,sans-serif">135</text>
<line x1="90" y1="468.0" x2="1036" y2="468.0" stroke="#1f2937" stroke-width="1"/>
<text x="80" y="473.0" text-anchor="end" fill="#9ca3af" font-size="12" font-family="-apple-system,BlinkMacSystemFont,Segoe UI,Helvetica,Arial,sans-serif">0</text>
<line x1="90" y1="468" x2="1036" y2="468" stroke="#4b5563" stroke-width="1.4"/>
<line x1="90" y1="90" x2="90" y2="468" stroke="#4b5563" stroke-width="1.4"/>
<line x1="90.0" y1="468" x2="90.0" y2="474" stroke="#6b7280" stroke-width="1"/>
<text x="90.0" y="494" text-anchor="start" fill="#9ca3af" font-size="12" font-family="-apple-system,BlinkMacSystemFont,Segoe UI,Helvetica,Arial,sans-serif">2018-04-24</text>
<line x1="279.2" y1="468" x2="279.2" y2="474" stroke="#6b7280" stroke-width="1"/>
<text x="279.2" y="494" text-anchor="middle" fill="#9ca3af" font-size="12" font-family="-apple-system,BlinkMacSystemFont,Segoe UI,Helvetica,Arial,sans-serif">2019-11-25</text>
<line x1="468.4" y1="468" x2="468.4" y2="474" stroke="#6b7280" stroke-width="1"/>
<text x="468.4" y="494" text-anchor="middle" fill="#9ca3af" font-size="12" font-family="-apple-system,BlinkMacSystemFont,Segoe UI,Helvetica,Arial,sans-serif">2021-06-27</text>
<line x1="657.6" y1="468" x2="657.6" y2="474" stroke="#6b7280" stroke-width="1"/>
<text x="657.6" y="494" text-anchor="middle" fill="#9ca3af" font-size="12" font-family="-apple-system,BlinkMacSystemFont,Segoe UI,Helvetica,Arial,sans-serif">2023-01-28</text>
<line x1="846.8" y1="468" x2="846.8" y2="474" stroke="#6b7280" stroke-width="1"/>
<text x="846.8" y="494" text-anchor="middle" fill="#9ca3af" font-size="12" font-family="-apple-system,BlinkMacSystemFont,Segoe UI,Helvetica,Arial,sans-serif">2024-08-30</text>
<line x1="1036.0" y1="468" x2="1036.0" y2="474" stroke="#6b7280" stroke-width="1"/>
<text x="1036.0" y="494" text-anchor="end" fill="#9ca3af" font-size="12" font-family="-apple-system,BlinkMacSystemFont,Segoe UI,Helvetica,Arial,sans-serif">2026-04-02</text>
<polyline fill="none" stroke="url(#repo-0)" stroke-width="4" stroke-linecap="round" stroke-linejoin="round" points="722.88,468.00 729.60,467.53 742.65,467.07 756.35,466.60 758.31,466.13 761.57,465.67 773.31,465.20 775.60,464.73 781.14,464.26 781.47,463.80 786.36,463.33 794.19,462.86 806.59,462.40 809.85,461.93 814.09,461.46 817.68,461.00 832.69,460.53 837.26,460.06 837.91,459.60 839.21,459.13 845.41,458.66 859.11,458.20 862.05,457.73 868.90,457.26 874.45,456.79 875.10,456.33 875.75,455.86 895.98,455.39 898.59,454.93 899.24,454.46 905.44,453.99 906.09,453.53 910.00,453.53 911.31,453.06 911.64,452.59 911.96,452.13 914.90,451.66 916.53,451.19 918.16,450.72 923.38,450.72 927.95,450.72 929.58,450.26 930.23,450.26 937.08,449.79 941.00,449.32 952.74,448.86 955.02,448.39 955.68,448.39 957.63,447.92 959.59,447.46 962.53,447.46 967.75,446.99 974.60,446.52 978.84,446.06 990.26,445.59 992.54,445.12 997.43,444.66 997.76,444.19 998.74,443.72 1001.35,443.25 1001.67,443.25 1010.48,442.79 1017.33,442.32 1017.99,441.85 1020.27,441.39 1026.79,440.92 1029.08,440.45 1030.71,439.99 1032.34,439.52 1035.68,439.52 1036.00,439.52"/>
<circle cx="722.88" cy="468.00" r="3.8" fill="#3bf2af" stroke="#111827" stroke-width="1"/>
<circle cx="742.65" cy="467.07" r="3.8" fill="#3bf2af" stroke="#111827" stroke-width="1"/>
<circle cx="758.31" cy="466.13" r="3.8" fill="#3bf2af" stroke="#111827" stroke-width="1"/>
<circle cx="773.31" cy="465.20" r="3.8" fill="#3bf2af" stroke="#111827" stroke-width="1"/>
<circle cx="781.14" cy="464.26" r="3.8" fill="#3bf2af" stroke="#111827" stroke-width="1"/>
<circle cx="786.36" cy="463.33" r="3.8" fill="#3bf2af" stroke="#111827" stroke-width="1"/>
<circle cx="806.59" cy="462.40" r="3.8" fill="#3bf2af" stroke="#111827" stroke-width="1"/>
<circle cx="814.09" cy="461.46" r="3.8" fill="#3bf2af" stroke="#111827" stroke-width="1"/>
<circle cx="832.69" cy="460.53" r="3.8" fill="#3bf2af" stroke="#111827" stroke-width="1"/>
<circle cx="837.91" cy="459.60" r="3.8" fill="#3bf2af" stroke="#111827" stroke-width="1"/>
<circle cx="845.41" cy="458.66" r="3.8" fill="#3bf2af" stroke="#111827" stroke-width="1"/>
<circle cx="862.05" cy="457.73" r="3.8" fill="#3bf2af" stroke="#111827" stroke-width="1"/>
<circle cx="874.45" cy="456.79" r="3.8" fill="#3bf2af" stroke="#111827" stroke-width="1"/>
<circle cx="875.75" cy="455.86" r="3.8" fill="#3bf2af" stroke="#111827" stroke-width="1"/>
<circle cx="898.59" cy="454.93" r="3.8" fill="#3bf2af" stroke="#111827" stroke-width="1"/>
<circle cx="905.44" cy="453.99" r="3.8" fill="#3bf2af" stroke="#111827" stroke-width="1"/>
<circle cx="910.00" cy="453.53" r="3.8" fill="#3bf2af" stroke="#111827" stroke-width="1"/>
<circle cx="911.64" cy="452.59" r="3.8" fill="#3bf2af" stroke="#111827" stroke-width="1"/>
<circle cx="914.90" cy="451.66" r="3.8" fill="#3bf2af" stroke="#111827" stroke-width="1"/>
<circle cx="918.16" cy="450.72" r="3.8" fill="#3bf2af" stroke="#111827" stroke-width="1"/>
<circle cx="927.95" cy="450.72" r="3.8" fill="#3bf2af" stroke="#111827" stroke-width="1"/>
<circle cx="930.23" cy="450.26" r="3.8" fill="#3bf2af" stroke="#111827" stroke-width="1"/>
<circle cx="941.00" cy="449.32" r="3.8" fill="#3bf2af" stroke="#111827" stroke-width="1"/>
<circle cx="955.02" cy="448.39" r="3.8" fill="#3bf2af" stroke="#111827" stroke-width="1"/>
<circle cx="957.63" cy="447.92" r="3.8" fill="#3bf2af" stroke="#111827" stroke-width="1"/>
<circle cx="962.53" cy="447.46" r="3.8" fill="#3bf2af" stroke="#111827" stroke-width="1"/>
<circle cx="974.60" cy="446.52" r="3.8" fill="#3bf2af" stroke="#111827" stroke-width="1"/>
<circle cx="990.26" cy="445.59" r="3.8" fill="#3bf2af" stroke="#111827" stroke-width="1"/>
<circle cx="997.43" cy="444.66" r="3.8" fill="#3bf2af" stroke="#111827" stroke-width="1"/>
<circle cx="998.74" cy="443.72" r="3.8" fill="#3bf2af" stroke="#111827" stroke-width="1"/>
<circle cx="1001.67" cy="443.25" r="3.8" fill="#3bf2af" stroke="#111827" stroke-width="1"/>
<circle cx="1017.33" cy="442.32" r="3.8" fill="#3bf2af" stroke="#111827" stroke-width="1"/>
<circle cx="1020.27" cy="441.39" r="3.8" fill="#3bf2af" stroke="#111827" stroke-width="1"/>
<circle cx="1029.08" cy="440.45" r="3.8" fill="#3bf2af" stroke="#111827" stroke-width="1"/>
<circle cx="1032.34" cy="439.52" r="3.8" fill="#3bf2af" stroke="#111827" stroke-width="1"/>
<circle cx="1036.00" cy="439.52" r="3.8" fill="#3bf2af" stroke="#111827" stroke-width="1"/>
<text x="1028.0" y="429.5" text-anchor="end" fill="#3bf2af" font-size="12" font-family="-apple-system,BlinkMacSystemFont,Segoe UI,Helvetica,Arial,sans-serif">61</text>
<polyline fill="none" stroke="url(#repo-1)" stroke-width="4" stroke-linecap="round" stroke-linejoin="round" points="90.00,468.00 91.83,466.60 92.48,466.13 96.07,465.67 99.66,465.20 136.84,464.73 137.82,464.26 143.70,464.26 149.57,463.80 154.14,463.80 157.72,463.33 158.38,462.86 158.70,462.40 159.03,461.93 160.66,461.46 161.31,461.00 165.55,460.53 165.88,460.06 169.79,459.60 170.77,459.13 171.10,458.66 172.73,458.20 174.36,457.26 176.32,456.79 177.30,456.33 182.52,455.86 185.13,455.39 186.76,454.93 187.08,454.46 192.30,453.99 192.63,453.53 193.28,453.06 196.54,452.59 197.20,451.66 197.52,451.66 197.85,451.66 203.72,451.19 205.35,451.19 211.55,450.72 212.86,450.26 213.51,450.26 216.12,449.79 219.05,449.32 222.97,449.32 223.30,448.86 225.58,448.39 227.86,447.92 231.12,447.46 232.10,446.99 234.39,446.52 236.67,446.06 238.63,445.59 238.95,445.12 239.28,444.66 241.89,444.19 242.54,443.72 243.20,442.79 243.52,442.32 243.85,441.39 244.17,440.92 246.78,440.45 247.44,439.52 250.05,439.52 255.59,439.05 256.24,439.05 256.57,438.59 256.90,438.12 257.55,438.12 258.85,437.65 259.18,437.18 261.14,436.72 261.46,436.25 263.75,435.78 264.73,434.85 265.38,433.92 266.36,433.92 267.99,433.45 268.31,432.98 269.29,432.52 272.23,432.05 275.82,431.58 276.80,431.12 277.78,430.65 278.10,430.18 279.41,429.71 279.73,429.25 280.39,428.78 281.36,427.38 282.99,426.91 283.65,426.45 283.97,425.98 284.30,424.58 285.93,424.11 286.91,423.64 287.56,423.18 288.87,423.18 289.19,422.71 290.82,422.24 294.41,421.78 296.37,421.31 298.00,421.31 298.33,420.38 300.61,419.91 302.24,419.44 302.57,419.44 304.53,418.98 304.85,418.51 305.50,418.51 306.48,418.51 306.81,418.04 307.14,417.58 307.46,417.11 312.03,415.71 315.94,415.24 316.27,414.77 316.92,414.31 318.23,413.84 318.55,413.37 320.18,413.37 320.84,412.91 321.16,412.44 321.49,411.97 321.82,411.51 323.45,411.04 326.71,410.57 328.01,410.10 328.34,410.10 328.99,409.64 329.32,409.64 329.97,408.24 330.62,407.77 331.28,407.77 332.58,407.30 333.23,406.84 335.19,406.37 335.52,405.90 336.82,405.44 338.78,404.97 340.08,404.50 341.39,404.50 341.72,404.04 342.37,403.57 343.35,403.10 344.33,402.63 345.96,402.17 347.59,401.70 349.22,401.23 352.16,400.77 354.76,400.30 355.09,399.83 355.42,399.37 360.31,398.90 361.29,398.43 362.27,397.97 362.59,397.03 363.57,396.56 365.86,395.63 366.18,394.70 367.81,394.23 369.77,394.23 373.03,393.76 374.01,393.30 374.99,392.83 376.30,391.90 376.95,391.43 377.27,390.96 377.93,390.50 379.56,389.56 380.86,389.09 385.10,388.16 386.74,386.76 387.71,385.83 390.65,385.83 391.30,385.83 391.63,385.36 391.95,384.43 393.59,383.49 394.56,383.02 395.87,382.56 396.20,382.09 396.85,381.62 399.13,381.16 399.46,380.69 400.11,380.22 402.39,379.76 403.05,379.29 404.35,378.82 405.33,378.36 405.66,377.89 405.98,377.42 409.90,376.96 410.55,376.49 411.85,375.55 412.18,375.09 413.49,374.62 414.79,371.35 415.12,370.42 415.44,369.95 417.07,369.48 417.73,369.02 419.36,369.02 420.66,368.55 421.64,368.08 423.60,367.15 424.90,366.68 426.53,366.22 426.86,365.75 427.51,365.28 428.17,364.35 428.82,363.88 429.14,363.88 430.12,363.88 430.45,363.42 430.78,362.95 431.10,362.48 432.73,362.01 433.39,361.08 434.69,360.61 435.34,359.68 436.32,359.21 436.97,358.75 437.95,358.28 439.26,357.81 440.56,357.81 441.87,357.35 442.19,356.88 443.83,356.41 444.15,355.94 444.80,355.48 445.13,355.01 445.78,354.54 446.11,353.14 447.74,352.68 449.04,352.21 450.68,351.74 455.24,350.81 455.57,350.34 455.90,350.34 456.22,349.88 457.20,349.41 457.53,348.94 457.85,348.47 458.18,347.54 459.48,347.07 460.14,346.14 460.46,344.74 461.44,344.74 461.77,344.74 462.42,343.81 464.38,343.34 464.70,342.40 465.03,341.94 466.33,341.47 468.62,341.00 468.94,340.54 469.60,340.07 471.88,339.60 473.51,339.14 475.14,339.14 478.08,339.14 479.38,338.67 479.71,338.20 480.04,338.20 480.69,337.74 481.01,336.80 481.34,336.33 482.32,335.87 482.65,335.40 483.62,334.93 485.26,334.00 485.58,334.00 485.91,333.07 486.23,332.60 486.56,331.20 486.89,330.27 487.21,329.80 487.87,329.33 488.19,327.46 488.52,327.00 489.50,326.53 490.15,325.60 490.80,325.13 492.11,324.66 493.41,324.20 493.74,323.73 494.06,323.26 494.39,322.79 496.02,322.33 497.33,321.86 497.65,321.39 498.96,320.46 499.28,319.53 499.61,319.53 502.87,319.06 503.20,318.59 503.85,318.13 505.48,317.19 506.13,316.73 506.79,316.26 508.09,316.26 508.74,315.32 509.07,315.32 509.40,313.46 509.72,311.12 511.03,310.66 511.35,310.19 512.01,309.72 512.33,309.25 513.31,308.79 513.64,308.32 514.94,307.85 517.88,307.39 518.86,306.92 519.84,306.45 520.16,305.05 520.49,304.59 520.81,304.12 521.14,303.65 521.79,303.19 524.08,303.19 525.38,302.72 525.71,302.25 526.03,301.78 527.01,301.32 528.32,301.32 529.62,300.85 531.25,300.38 531.58,299.92 535.17,299.45 536.80,298.98 537.45,298.05 538.10,297.58 540.71,297.12 541.37,296.65 541.69,296.18 542.67,295.71 543.32,295.25 543.98,295.25 544.63,294.78 545.28,294.31 546.59,293.85 546.91,293.38 547.24,292.91 548.87,292.91 549.52,292.45 549.85,291.98 550.83,291.05 551.48,290.11 552.13,289.65 553.76,288.71 554.09,288.71 554.42,288.24 555.39,287.78 556.05,287.31 556.70,286.84 558.33,286.38 561.27,285.91 561.59,285.44 562.90,284.98 563.22,284.51 564.53,284.04 564.86,283.58 565.18,281.71 565.83,281.24 566.81,280.77 567.14,280.31 567.47,279.84 568.12,279.37 569.42,278.91 570.40,278.91 570.73,278.44 574.97,277.97 575.29,277.51 576.27,276.57 576.93,276.11 579.21,275.64 580.19,275.17 580.51,274.70 580.84,274.24 583.45,273.30 583.78,272.84 584.10,270.97 585.08,270.50 585.41,270.04 586.06,269.57 588.34,269.10 589.00,268.63 589.65,268.63 590.63,268.17 590.95,267.70 591.93,267.23 597.48,266.77 598.78,265.83 599.11,265.37 600.74,264.90 601.39,264.90 601.72,263.97 602.05,263.97 602.37,263.50 603.35,263.03 604.33,262.57 604.66,262.10 606.61,261.63 606.94,261.16 607.59,260.23 608.57,259.76 609.22,259.30 609.55,258.83 610.85,258.36 611.51,258.36 612.16,257.90 613.14,257.43 613.46,256.96 617.70,256.50 618.68,256.50 619.66,256.03 619.99,255.56 621.62,255.09 621.95,254.16 622.27,253.69 622.60,252.76 623.90,252.29 624.88,251.83 627.16,250.89 628.14,250.43 628.47,249.96 629.12,249.96 629.77,248.56 631.73,248.09 632.06,247.62 635.32,247.16 635.65,246.69 636.63,245.29 636.95,244.82 637.93,244.36 638.26,244.36 638.58,243.89 640.21,243.42 640.54,242.49 641.52,241.55 643.15,241.09 644.45,240.62 645.43,240.62 649.02,240.62 649.35,240.62 651.31,240.62 651.96,239.69 652.61,239.69 653.92,239.69 654.24,239.69 656.85,239.22 659.79,238.75 660.44,238.29 660.77,237.35 661.09,236.89 664.03,236.42 665.33,236.42 665.66,235.95 665.99,235.49 666.64,235.49 667.94,235.02 668.27,234.55 668.92,234.08 670.23,233.62 671.86,233.15 672.18,233.15 672.84,232.68 673.16,232.22 673.49,232.22 673.82,231.75 674.14,231.28 674.79,230.82 678.71,230.35 680.99,230.35 683.28,230.35 684.25,230.35 684.58,229.88 684.91,229.42 685.89,229.42 686.21,228.95 688.50,228.48 688.82,228.01 690.13,228.01 690.45,227.55 690.78,227.08 692.08,226.61 693.06,226.61 694.37,225.68 695.35,225.68 695.67,225.68 697.63,225.21 698.28,224.28 699.26,223.81 699.59,223.35 700.24,222.88 702.20,221.95 702.85,221.95 703.50,221.48 703.83,221.01 704.48,220.54 704.81,220.08 705.79,219.61 706.11,218.68 706.76,218.21 708.07,217.74 708.40,217.28 709.05,216.34 709.70,215.88 711.01,215.41 711.33,214.94 712.64,214.47 713.94,214.01 715.57,214.01 716.55,213.54 716.88,213.07 718.51,213.07 718.83,212.61 720.14,212.14 721.12,210.74 721.77,210.74 722.75,210.27 724.05,209.81 724.38,209.34 725.03,208.87 727.64,208.41 729.60,207.94 731.88,207.47 735.47,207.00 735.80,207.00 736.12,206.54 738.08,205.14 738.73,204.67 739.06,204.20 739.39,203.74 740.37,203.27 740.69,202.80 741.34,202.34 743.95,201.40 745.59,200.93 746.24,200.93 747.87,200.93 749.17,200.47 752.11,200.00 753.41,200.00 755.37,199.53 761.24,199.53 763.53,199.53 764.18,199.07 767.12,198.60 767.77,198.13 768.42,197.67 770.38,197.20 771.03,196.73 771.68,195.80 772.01,195.80 772.34,195.33 774.95,194.87 777.88,194.40 779.51,193.93 781.47,193.46 784.41,193.46 787.02,192.06 788.32,191.60 788.97,191.13 790.28,190.66 791.91,190.20 792.56,189.73 793.21,189.26 795.17,188.80 796.48,188.33 796.80,187.39 799.74,187.39 800.07,186.93 800.39,186.93 801.04,186.46 802.02,186.46 803.33,185.99 805.29,185.53 805.61,185.06 806.59,185.06 808.87,185.06 811.16,184.59 813.11,184.13 815.72,183.66 816.38,183.19 816.70,182.73 817.68,182.73 818.01,182.26 818.33,181.79 818.99,180.86 820.29,180.39 822.58,179.92 822.90,179.46 823.88,178.52 825.84,178.06 827.47,177.59 827.79,177.12 829.10,176.66 830.08,176.19 830.40,176.19 831.71,175.72 832.36,175.72 833.99,175.26 834.32,174.79 834.65,173.39 836.60,172.92 837.58,172.45 837.91,171.99 839.87,171.99 841.17,171.52 841.50,170.12 841.82,170.12 844.11,168.72 845.74,168.25 849.65,167.79 849.98,167.32 851.94,166.85 854.87,166.38 858.13,165.92 860.09,164.98 860.42,164.52 860.74,164.05 861.40,163.58 864.01,163.12 866.29,162.65 869.55,162.18 869.88,162.18 872.81,161.72 873.79,161.25 875.10,160.78 885.21,160.31 886.52,159.38 886.84,158.91 890.10,158.45 891.74,157.51 894.02,157.05 894.67,157.05 895.00,156.58 896.96,156.11 898.26,155.65 898.91,155.18 899.24,154.71 899.56,154.25 900.54,153.78 902.17,153.31 902.50,153.31 904.13,152.84 906.42,152.38 908.70,151.91 909.35,151.44 912.94,150.98 913.27,150.51 914.90,150.04 916.53,149.58 919.46,149.11 920.77,148.64 923.05,148.64 923.38,148.18 924.03,148.18 925.66,147.71 925.99,147.24 926.64,146.77 927.62,145.84 927.95,144.44 928.27,143.51 928.60,143.04 929.90,142.57 930.23,142.57 932.19,142.11 932.51,141.64 934.14,141.17 934.47,140.71 935.12,140.24 935.78,140.24 936.75,139.77 940.02,139.30 945.89,138.84 947.19,138.37 948.83,137.90 950.13,137.44 951.44,136.97 952.41,136.50 953.39,135.57 955.68,135.57 957.31,135.10 957.96,135.10 960.24,135.10 960.57,135.10 960.90,134.64 964.48,134.17 966.44,133.70 966.77,133.70 969.70,133.23 974.60,132.77 975.90,132.77 976.23,132.30 977.21,131.83 981.12,131.37 985.69,130.90 986.02,130.90 990.26,130.43 992.87,129.97 1005.59,129.50 1008.52,128.57 1009.50,128.10 1011.13,127.63 1011.46,126.70 1017.33,126.23 1019.94,125.76 1025.16,125.30 1026.79,124.83 1029.08,124.36 1035.68,124.36 1036.00,124.36"/>
<circle cx="90.00" cy="468.00" r="3.8" fill="#ffb50c" stroke="#111827" stroke-width="1"/>
<circle cx="192.30" cy="453.99" r="3.8" fill="#ffb50c" stroke="#111827" stroke-width="1"/>
<circle cx="243.85" cy="441.39" r="3.8" fill="#ffb50c" stroke="#111827" stroke-width="1"/>
<circle cx="281.36" cy="427.38" r="3.8" fill="#ffb50c" stroke="#111827" stroke-width="1"/>
<circle cx="318.23" cy="413.84" r="3.8" fill="#ffb50c" stroke="#111827" stroke-width="1"/>
<circle cx="347.59" cy="401.70" r="3.8" fill="#ffb50c" stroke="#111827" stroke-width="1"/>
<circle cx="391.63" cy="385.36" r="3.8" fill="#ffb50c" stroke="#111827" stroke-width="1"/>
<circle cx="423.60" cy="367.15" r="3.8" fill="#ffb50c" stroke="#111827" stroke-width="1"/>
<circle cx="447.74" cy="352.68" r="3.8" fill="#ffb50c" stroke="#111827" stroke-width="1"/>
<circle cx="479.71" cy="338.20" r="3.8" fill="#ffb50c" stroke="#111827" stroke-width="1"/>
<circle cx="498.96" cy="320.46" r="3.8" fill="#ffb50c" stroke="#111827" stroke-width="1"/>
<circle cx="524.08" cy="303.19" r="3.8" fill="#ffb50c" stroke="#111827" stroke-width="1"/>
<circle cx="552.13" cy="289.65" r="3.8" fill="#ffb50c" stroke="#111827" stroke-width="1"/>
<circle cx="580.51" cy="274.70" r="3.8" fill="#ffb50c" stroke="#111827" stroke-width="1"/>
<circle cx="609.22" cy="259.30" r="3.8" fill="#ffb50c" stroke="#111827" stroke-width="1"/>
<circle cx="638.26" cy="244.36" r="3.8" fill="#ffb50c" stroke="#111827" stroke-width="1"/>
<circle cx="671.86" cy="233.15" r="3.8" fill="#ffb50c" stroke="#111827" stroke-width="1"/>
<circle cx="699.59" cy="223.35" r="3.8" fill="#ffb50c" stroke="#111827" stroke-width="1"/>
<circle cx="724.38" cy="209.34" r="3.8" fill="#ffb50c" stroke="#111827" stroke-width="1"/>
<circle cx="770.38" cy="197.20" r="3.8" fill="#ffb50c" stroke="#111827" stroke-width="1"/>
<circle cx="808.87" cy="185.06" r="3.8" fill="#ffb50c" stroke="#111827" stroke-width="1"/>
<circle cx="841.17" cy="171.52" r="3.8" fill="#ffb50c" stroke="#111827" stroke-width="1"/>
<circle cx="896.96" cy="156.11" r="3.8" fill="#ffb50c" stroke="#111827" stroke-width="1"/>
<circle cx="930.23" cy="142.57" r="3.8" fill="#ffb50c" stroke="#111827" stroke-width="1"/>
<circle cx="977.21" cy="131.83" r="3.8" fill="#ffb50c" stroke="#111827" stroke-width="1"/>
<circle cx="1036.00" cy="124.36" r="3.8" fill="#ffb50c" stroke="#111827" stroke-width="1"/>
<text x="1028.0" y="114.4" text-anchor="end" fill="#ffb50c" font-size="12" font-family="-apple-system,BlinkMacSystemFont,Segoe UI,Helvetica,Arial,sans-serif">736</text>
<rect x="90" y="514" width="14" height="14" fill="url(#repo-0)" rx="3"/>
<text x="112" y="526" fill="#3bf2af" font-size="13" font-family="-apple-system,BlinkMacSystemFont,Segoe UI,Helvetica,Arial,sans-serif">bavix/gripmock</text>
<rect x="280" y="514" width="14" height="14" fill="url(#repo-1)" rx="3"/>
<text x="302" y="526" fill="#ffb50c" font-size="13" font-family="-apple-system,BlinkMacSystemFont,Segoe UI,Helvetica,Arial,sans-serif">tokopedia/gripmock</text>
<text x="1036" y="526" text-anchor="end" fill="#9ca3af" font-size="12" font-family="-apple-system,BlinkMacSystemFont,Segoe UI,Helvetica,Arial,sans-serif">Source: https://github.com/bavix/artifact-stats/blob/master/stats/github.csv</text>
</svg>