<svg xmlns="http://www.w3.org/2000/svg" width="1100" height="560" viewBox="0 0 1100 560">
<defs>
<linearGradient id="bg" x1="0" y1="0" x2="1" y2="1"><stop offset="0%" stop-color="#0b1220"/><stop offset="100%" stop-color="#111827"/></linearGradient>
<linearGradient id="repo-0" x1="0" y1="0" x2="0" y2="1"><stop offset="0%" stop-color="#34d399"/><stop offset="100%" stop-color="#059669"/></linearGradient>
<linearGradient id="repo-1" x1="0" y1="0" x2="0" y2="1"><stop offset="0%" stop-color="#f59e0b"/><stop offset="100%" stop-color="#d97706"/></linearGradient>
</defs>
<rect x="0" y="0" width="1100" height="560" fill="url(#bg)" rx="16"/>
<text x="90" y="44" fill="#f9fafb" font-size="28" font-family="-apple-system,BlinkMacSystemFont,Segoe UI,Helvetica,Arial,sans-serif" font-weight="700">GripMock GitHub Metrics - Stars</text>
<text x="90" y="70" fill="#9ca3af" font-size="16" font-family="-apple-system,BlinkMacSystemFont,Segoe UI,Helvetica,Arial,sans-serif">GitHub stars by snapshot date</text>
<line x1="90" y1="90.0" x2="1036" y2="90.0" stroke="#1f2937" stroke-width="1"/>
<text x="80" y="95.0" text-anchor="end" fill="#9ca3af" font-size="12" font-family="-apple-system,BlinkMacSystemFont,Segoe UI,Helvetica,Arial,sans-serif">811</text>
<line x1="90" y1="153.0" x2="1036" y2="153.0" stroke="#1f2937" stroke-width="1"/>
<text x="80" y="158.0" text-anchor="end" fill="#9ca3af" font-size="12" font-family="-apple-system,BlinkMacSystemFont,Segoe UI,Helvetica,Arial,sans-serif">676</text>
<line x1="90" y1="216.0" x2="1036" y2="216.0" stroke="#1f2937" stroke-width="1"/>
<text x="80" y="221.0" text-anchor="end" fill="#9ca3af" font-size="12" font-family="-apple-system,BlinkMacSystemFont,Segoe UI,Helvetica,Arial,sans-serif">540</text>
<line x1="90" y1="279.0" x2="1036" y2="279.0" stroke="#1f2937" stroke-width="1"/>
<text x="80" y="284.0" text-anchor="end" fill="#9ca3af" font-size="12" font-family="-apple-system,BlinkMacSystemFont,Segoe UI,Helvetica,Arial,sans-serif">405</text>
<line x1="90" y1="342.0" x2="1036" y2="342.0" stroke="#1f2937" stroke-width="1"/>
<text x="80" y="347.0" text-anchor="end" fill="#9ca3af" font-size="12" font-family="-apple-system,BlinkMacSystemFont,Segoe UI,Helvetica,Arial,sans-serif">270</text>
<line x1="90" y1="405.0" x2="1036" y2="405.0" stroke="#1f2937" stroke-width="1"/>
<text x="80" y="410.0" text-anchor="end" fill="#9ca3af" font-size="12" font-family="-apple-system,BlinkMacSystemFont,Segoe UI,Helvetica,Arial,sans-serif">135</text>
<line x1="90" y1="468.0" x2="1036" y2="468.0" stroke="#1f2937" stroke-width="1"/>
<text x="80" y="473.0" text-anchor="end" fill="#9ca3af" font-size="12" font-family="-apple-system,BlinkMacSystemFont,Segoe UI,Helvetica,Arial,sans-serif">0</text>
<line x1="90" y1="468" x2="1036" y2="468" stroke="#4b5563" stroke-width="1.4"/>
<line x1="90" y1="90" x2="90" y2="468" stroke="#4b5563" stroke-width="1.4"/>
<line x1="90.0" y1="468" x2="90.0" y2="474" stroke="#6b7280" stroke-width="1"/>
<text x="90.0" y="494" text-anchor="start" fill="#9ca3af" font-size="12" font-family="-apple-system,BlinkMacSystemFont,Segoe UI,Helvetica,Arial,sans-serif">2018-04-24</text>
<line x1="279.2" y1="468" x2="279.2" y2="474" stroke="#6b7280" stroke-width="1"/>
<text x="279.2" y="494" text-anchor="middle" fill="#9ca3af" font-size="12" font-family="-apple-system,BlinkMacSystemFont,Segoe UI,Helvetica,Arial,sans-serif">2019-11-27</text>
<line x1="468.4" y1="468" x2="468.4" y2="474" stroke="#6b7280" stroke-width="1"/>
<text x="468.4" y="494" text-anchor="middle" fill="#9ca3af" font-size="12" font-family="-apple-system,BlinkMacSystemFont,Segoe UI,Helvetica,Arial,sans-serif">2021-07-01</text>
<line x1="657.6" y1="468" x2="657.6" y2="474" stroke="#6b7280" stroke-width="1"/>
<text x="657.6" y="494" text-anchor="middle" fill="#9ca3af" font-size="12" font-family="-apple-system,BlinkMacSystemFont,Segoe UI,Helvetica,Arial,sans-serif">2023-02-03</text>
<line x1="846.8" y1="468" x2="846.8" y2="474" stroke="#6b7280" stroke-width="1"/>
<text x="846.8" y="494" text-anchor="middle" fill="#9ca3af" font-size="12" font-family="-apple-system,BlinkMacSystemFont,Segoe UI,Helvetica,Arial,sans-serif">2024-09-07</text>
<line x1="1036.0" y1="468" x2="1036.0" y2="474" stroke="#6b7280" stroke-width="1"/>
<text x="1036.0" y="494" text-anchor="end" fill="#9ca3af" font-size="12" font-family="-apple-system,BlinkMacSystemFont,Segoe UI,Helvetica,Arial,sans-serif">2026-04-12</text>
<polyline fill="none" stroke="url(#repo-0)" stroke-width="4" stroke-linecap="round" stroke-linejoin="round" points="720.70,468.00 727.40,467.53 740.40,467.07 754.06,466.60 756.01,466.13 759.26,465.67 770.96,465.20 773.24,464.74 778.77,464.27 779.09,463.80 783.97,463.34 791.77,462.87 804.12,462.40 807.38,461.94 811.60,461.47 815.18,461.01 830.13,460.54 834.68,460.07 835.33,459.61 836.64,459.14 842.81,458.67 856.47,458.21 859.39,457.74 866.22,457.28 871.75,456.81 872.40,456.34 873.05,455.88 893.20,455.41 895.80,454.94 896.45,454.48 902.63,454.01 903.28,453.55 907.18,453.55 908.48,453.08 908.81,452.61 909.13,452.15 912.06,451.68 913.69,451.21 915.31,450.75 920.51,450.75 925.06,450.75 926.69,450.28 927.34,450.28 934.17,449.82 938.07,449.35 949.77,448.88 952.05,448.42 952.70,448.42 954.65,447.95 956.60,447.48 959.52,447.48 964.73,447.02 971.55,446.55 975.78,446.09 987.16,445.62 989.43,445.15 994.31,444.69 994.64,444.22 995.61,443.75 998.21,443.29 998.54,443.29 1007.32,442.82 1014.14,442.36 1014.79,441.89 1017.07,441.42 1023.57,440.96 1025.85,440.49 1027.47,440.02 1029.10,439.56 1032.43,439.56 1033.39,439.56 1033.72,439.09 1034.37,439.09 1034.70,438.63 1035.02,439.09 1036.00,439.09"/>
<circle cx="720.70" cy="468.00" r="3.8" fill="#3bf2af" stroke="#111827" stroke-width="1"/>
<circle cx="754.06" cy="466.60" r="3.8" fill="#3bf2af" stroke="#111827" stroke-width="1"/>
<circle cx="770.96" cy="465.20" r="3.8" fill="#3bf2af" stroke="#111827" stroke-width="1"/>
<circle cx="779.09" cy="463.80" r="3.8" fill="#3bf2af" stroke="#111827" stroke-width="1"/>
<circle cx="804.12" cy="462.40" r="3.8" fill="#3bf2af" stroke="#111827" stroke-width="1"/>
<circle cx="815.18" cy="461.01" r="3.8" fill="#3bf2af" stroke="#111827" stroke-width="1"/>
<circle cx="835.33" cy="459.61" r="3.8" fill="#3bf2af" stroke="#111827" stroke-width="1"/>
<circle cx="856.47" cy="458.21" r="3.8" fill="#3bf2af" stroke="#111827" stroke-width="1"/>
<circle cx="871.75" cy="456.81" r="3.8" fill="#3bf2af" stroke="#111827" stroke-width="1"/>
<circle cx="893.20" cy="455.41" r="3.8" fill="#3bf2af" stroke="#111827" stroke-width="1"/>
<circle cx="902.63" cy="454.01" r="3.8" fill="#3bf2af" stroke="#111827" stroke-width="1"/>
<circle cx="908.48" cy="453.08" r="3.8" fill="#3bf2af" stroke="#111827" stroke-width="1"/>
<circle cx="912.06" cy="451.68" r="3.8" fill="#3bf2af" stroke="#111827" stroke-width="1"/>
<circle cx="920.51" cy="450.75" r="3.8" fill="#3bf2af" stroke="#111827" stroke-width="1"/>
<circle cx="927.34" cy="450.28" r="3.8" fill="#3bf2af" stroke="#111827" stroke-width="1"/>
<circle cx="949.77" cy="448.88" r="3.8" fill="#3bf2af" stroke="#111827" stroke-width="1"/>
<circle cx="954.65" cy="447.95" r="3.8" fill="#3bf2af" stroke="#111827" stroke-width="1"/>
<circle cx="964.73" cy="447.02" r="3.8" fill="#3bf2af" stroke="#111827" stroke-width="1"/>
<circle cx="987.16" cy="445.62" r="3.8" fill="#3bf2af" stroke="#111827" stroke-width="1"/>
<circle cx="994.64" cy="444.22" r="3.8" fill="#3bf2af" stroke="#111827" stroke-width="1"/>
<circle cx="998.54" cy="443.29" r="3.8" fill="#3bf2af" stroke="#111827" stroke-width="1"/>
<circle cx="1014.79" cy="441.89" r="3.8" fill="#3bf2af" stroke="#111827" stroke-width="1"/>
<circle cx="1025.85" cy="440.49" r="3.8" fill="#3bf2af" stroke="#111827" stroke-width="1"/>
<circle cx="1032.43" cy="439.56" r="3.8" fill="#3bf2af" stroke="#111827" stroke-width="1"/>
<circle cx="1034.37" cy="439.09" r="3.8" fill="#3bf2af" stroke="#111827" stroke-width="1"/>
<circle cx="1036.00" cy="439.09" r="3.8" fill="#3bf2af" stroke="#111827" stroke-width="1"/>
<text x="1028.0" y="429.1" text-anchor="end" fill="#3bf2af" font-size="12" font-family="-apple-system,BlinkMacSystemFont,Segoe UI,Helvetica,Arial,sans-serif">62</text>
<polyline fill="none" stroke="url(#repo-1)" stroke-width="4" stroke-linecap="round" stroke-linejoin="round" points="90.00,468.00 91.82,466.60 92.47,466.13 96.05,465.67 99.62,465.20 136.68,464.74 137.66,464.27 143.51,464.27 149.36,463.80 153.91,463.80 157.49,463.34 158.14,462.87 158.47,462.40 158.79,461.94 160.42,461.47 161.07,461.01 165.29,460.54 165.62,460.07 169.52,459.61 170.49,459.14 170.82,458.67 172.45,458.21 174.07,457.28 176.02,456.81 177.00,456.34 182.20,455.88 184.80,455.41 186.42,454.94 186.75,454.48 191.95,454.01 192.28,453.55 192.93,453.08 196.18,452.61 196.83,451.68 197.15,451.68 197.48,451.68 203.33,451.21 204.96,451.21 211.13,450.75 212.43,450.28 213.08,450.28 215.68,449.82 218.61,449.35 222.51,449.35 222.84,448.88 225.11,448.42 227.39,447.95 230.64,447.48 231.61,447.02 233.89,446.55 236.17,446.09 238.12,445.62 238.44,445.15 238.77,444.69 241.37,444.22 242.02,443.75 242.67,442.82 242.99,442.36 243.32,441.42 243.64,440.96 246.24,440.49 246.89,439.56 249.50,439.56 255.02,439.09 255.67,439.09 256.00,438.63 256.32,438.16 256.97,438.16 258.27,437.69 258.60,437.23 260.55,436.76 260.87,436.29 263.15,435.83 264.12,434.90 264.78,433.96 265.75,433.96 267.38,433.50 267.70,433.03 268.68,432.56 271.60,432.10 275.18,431.63 276.15,431.17 277.13,430.70 277.45,430.23 278.75,429.77 279.08,429.30 279.73,428.83 280.71,427.44 282.33,426.97 282.98,426.50 283.31,426.04 283.63,424.64 285.26,424.17 286.23,423.70 286.88,423.24 288.18,423.24 288.51,422.77 290.13,422.31 293.71,421.84 295.66,421.37 297.29,421.37 297.61,420.44 299.89,419.97 301.51,419.51 301.84,419.51 303.79,419.04 304.11,418.58 304.76,418.58 305.74,418.58 306.06,418.11 306.39,417.64 306.71,417.18 311.27,415.78 315.17,415.31 315.49,414.85 316.14,414.38 317.44,413.91 317.77,413.45 319.39,413.45 320.04,412.98 320.37,412.51 320.69,412.05 321.02,411.58 322.64,411.12 325.89,410.65 327.20,410.18 327.52,410.18 328.17,409.72 328.50,409.72 329.15,408.32 329.80,407.85 330.45,407.85 331.75,407.39 332.40,406.92 334.35,406.45 334.67,405.99 335.97,405.52 337.92,405.05 339.22,404.59 340.52,404.59 340.85,404.12 341.50,403.66 342.48,403.19 343.45,402.72 345.08,402.26 346.70,401.79 348.33,401.32 351.25,400.86 353.85,400.39 354.18,399.93 354.50,399.46 359.38,398.99 360.36,398.53 361.33,398.06 361.66,397.13 362.63,396.66 364.91,395.73 365.23,394.80 366.86,394.33 368.81,394.33 372.06,393.86 373.04,393.40 374.01,392.93 375.31,392.00 375.96,391.53 376.29,391.07 376.94,390.60 378.56,389.67 379.86,389.20 384.09,388.27 385.71,386.87 386.69,385.94 389.62,385.94 390.27,385.94 390.59,385.47 390.92,384.54 392.54,383.61 393.52,383.14 394.82,382.67 395.14,382.21 395.79,381.74 398.07,381.27 398.39,380.81 399.04,380.34 401.32,379.88 401.97,379.41 403.27,378.94 404.25,378.48 404.57,378.01 404.90,377.54 408.80,377.08 409.45,376.61 410.75,375.68 411.07,375.21 412.37,374.75 413.67,371.48 414.00,370.55 414.32,370.08 415.95,369.62 416.60,369.15 418.22,369.15 419.53,368.69 420.50,368.22 422.45,367.29 423.75,366.82 425.38,366.35 425.70,365.89 426.35,365.42 427.00,364.49 427.65,364.02 427.98,364.02 428.95,364.02 429.28,363.56 429.60,363.09 429.93,362.62 431.55,362.16 432.20,361.23 433.50,360.76 434.15,359.83 435.13,359.36 435.78,358.89 436.76,358.43 438.06,357.96 439.36,357.96 440.66,357.50 440.98,357.03 442.61,356.56 442.93,356.10 443.58,355.63 443.91,355.16 444.56,354.70 444.88,353.30 446.51,352.83 447.81,352.37 449.43,351.90 453.99,350.97 454.31,350.50 454.64,350.50 454.96,350.04 455.94,349.57 456.26,349.10 456.59,348.64 456.91,347.70 458.21,347.24 458.86,346.31 459.19,344.91 460.16,344.91 460.49,344.91 461.14,343.97 463.09,343.51 463.41,342.58 463.74,342.11 465.04,341.64 467.32,341.18 467.64,340.71 468.29,340.24 470.57,339.78 472.19,339.31 473.82,339.31 476.74,339.31 478.04,338.84 478.37,338.38 478.69,338.38 479.34,337.91 479.67,336.98 479.99,336.51 480.97,336.05 481.30,335.58 482.27,335.11 483.90,334.18 484.22,334.18 484.55,333.25 484.87,332.78 485.20,331.38 485.52,330.45 485.85,329.99 486.50,329.52 486.82,327.65 487.15,327.19 488.12,326.72 488.77,325.79 489.42,325.32 490.72,324.86 492.02,324.39 492.35,323.92 492.67,323.46 493.00,322.99 494.62,322.53 495.92,322.06 496.25,321.59 497.55,320.66 497.88,319.73 498.20,319.73 501.45,319.26 501.78,318.80 502.43,318.33 504.05,317.40 504.70,316.93 505.35,316.46 506.65,316.46 507.30,315.53 507.63,315.53 507.95,313.67 508.28,311.34 509.58,310.87 509.90,310.40 510.55,309.94 510.88,309.47 511.86,309.00 512.18,308.54 513.48,308.07 516.41,307.61 517.38,307.14 518.36,306.67 518.68,305.27 519.01,304.81 519.33,304.34 519.66,303.88 520.31,303.41 522.58,303.41 523.88,302.94 524.21,302.48 524.53,302.01 525.51,301.54 526.81,301.54 528.11,301.08 529.74,300.61 530.06,300.15 533.64,299.68 535.26,299.21 535.91,298.28 536.56,297.81 539.16,297.35 539.81,296.88 540.14,296.41 541.11,295.95 541.76,295.48 542.41,295.48 543.07,295.02 543.72,294.55 545.02,294.08 545.34,293.62 545.67,293.15 547.29,293.15 547.94,292.68 548.27,292.22 549.24,291.29 549.89,290.35 550.54,289.89 552.17,288.95 552.49,288.95 552.82,288.49 553.79,288.02 554.44,287.56 555.09,287.09 556.72,286.62 559.65,286.16 559.97,285.69 561.27,285.22 561.60,284.76 562.90,284.29 563.22,283.83 563.55,281.96 564.20,281.49 565.17,281.03 565.50,280.56 565.82,280.10 566.47,279.63 567.77,279.16 568.75,279.16 569.07,278.70 573.30,278.23 573.63,277.76 574.60,276.83 575.25,276.37 577.53,275.90 578.50,275.43 578.83,274.97 579.15,274.50 581.75,273.57 582.08,273.10 582.40,271.24 583.38,270.77 583.70,270.30 584.35,269.84 586.63,269.37 587.28,268.91 587.93,268.91 588.91,268.44 589.23,267.97 590.21,267.51 595.73,267.04 597.03,266.11 597.36,265.64 598.98,265.18 599.63,265.18 599.96,264.24 600.28,264.24 600.61,263.78 601.58,263.31 602.56,262.84 602.88,262.38 604.84,261.91 605.16,261.45 605.81,260.51 606.79,260.05 607.44,259.58 607.76,259.11 609.06,258.65 609.71,258.65 610.36,258.18 611.34,257.72 611.66,257.25 615.89,256.78 616.86,256.78 617.84,256.32 618.16,255.85 619.79,255.38 620.12,254.45 620.44,253.98 620.77,253.05 622.07,252.59 623.04,252.12 625.32,251.19 626.29,250.72 626.62,250.25 627.27,250.25 627.92,248.86 629.87,248.39 630.19,247.92 633.44,247.46 633.77,246.99 634.74,245.59 635.07,245.13 636.05,244.66 636.37,244.66 636.70,244.19 638.32,243.73 638.65,242.79 639.62,241.86 641.25,241.40 642.55,240.93 643.52,240.93 647.10,240.93 647.42,240.93 649.37,240.93 650.02,240.00 650.68,240.00 651.98,240.00 652.30,240.00 654.90,239.53 657.83,239.06 658.48,238.60 658.80,237.67 659.13,237.20 662.05,236.73 663.35,236.73 663.68,236.27 664.00,235.80 664.65,235.80 665.95,235.33 666.28,234.87 666.93,234.40 668.23,233.94 669.86,233.47 670.18,233.47 670.83,233.00 671.16,232.54 671.48,232.54 671.81,232.07 672.13,231.60 672.78,231.14 676.68,230.67 678.96,230.67 681.23,230.67 682.21,230.67 682.54,230.21 682.86,229.74 683.84,229.74 684.16,229.27 686.44,228.81 686.76,228.34 688.06,228.34 688.39,227.87 688.71,227.41 690.01,226.94 690.99,226.94 692.29,226.01 693.26,226.01 693.59,226.01 695.54,225.54 696.19,224.61 697.17,224.14 697.49,223.68 698.14,223.21 700.09,222.28 700.74,222.28 701.39,221.81 701.72,221.35 702.37,220.88 702.69,220.41 703.67,219.95 703.99,219.02 704.64,218.55 705.94,218.08 706.27,217.62 706.92,216.68 707.57,216.22 708.87,215.75 709.19,215.29 710.49,214.82 711.79,214.35 713.42,214.35 714.40,213.89 714.72,213.42 716.35,213.42 716.67,212.95 717.97,212.49 718.95,211.09 719.60,211.09 720.57,210.62 721.87,210.16 722.20,209.69 722.85,209.22 725.45,208.76 727.40,208.29 729.68,207.82 733.25,207.36 733.58,207.36 733.90,206.89 735.85,205.49 736.50,205.03 736.83,204.56 737.15,204.09 738.13,203.63 738.45,203.16 739.10,202.70 741.70,201.76 743.33,201.30 743.98,201.30 745.61,201.30 746.91,200.83 749.83,200.36 751.13,200.36 753.08,199.90 758.94,199.90 761.21,199.90 761.86,199.43 764.79,198.97 765.44,198.50 766.09,198.03 768.04,197.57 768.69,197.10 769.34,196.17 769.66,196.17 769.99,195.70 772.59,195.24 775.52,194.77 777.14,194.30 779.09,193.84 782.02,193.84 784.62,192.44 785.92,191.97 786.57,191.51 787.87,191.04 789.49,190.57 790.15,190.11 790.80,189.64 792.75,189.17 794.05,188.71 794.37,187.78 797.30,187.78 797.62,187.31 797.95,187.31 798.60,186.84 799.57,186.84 800.87,186.38 802.82,185.91 803.15,185.44 804.12,185.44 806.40,185.44 808.68,184.98 810.63,184.51 813.23,184.05 813.88,183.58 814.20,183.11 815.18,183.11 815.50,182.65 815.83,182.18 816.48,181.25 817.78,180.78 820.05,180.32 820.38,179.85 821.36,178.92 823.31,178.45 824.93,177.98 825.26,177.52 826.56,177.05 827.53,176.59 827.86,176.59 829.16,176.12 829.81,176.12 831.43,175.65 831.76,175.19 832.08,173.79 834.03,173.32 835.01,172.86 835.33,172.39 837.29,172.39 838.59,171.92 838.91,170.52 839.24,170.52 841.51,169.12 843.14,168.66 847.04,168.19 847.36,167.73 849.31,167.26 852.24,166.79 855.49,166.33 857.44,165.39 857.77,164.93 858.09,164.46 858.74,164.00 861.34,163.53 863.62,163.06 866.87,162.60 867.20,162.60 870.12,162.13 871.10,161.66 872.40,161.20 882.47,160.73 883.78,159.80 884.10,159.33 887.35,158.87 888.98,157.93 891.25,157.47 891.90,157.47 892.23,157.00 894.18,156.54 895.48,156.07 896.13,155.60 896.45,155.14 896.78,154.67 897.75,154.20 899.38,153.74 899.71,153.74 901.33,153.27 903.61,152.81 905.88,152.34 906.53,151.87 910.11,151.41 910.43,150.94 912.06,150.47 913.69,150.01 916.61,149.54 917.91,149.08 920.19,149.08 920.51,148.61 921.16,148.61 922.79,148.14 923.11,147.68 923.76,147.21 924.74,146.28 925.06,144.88 925.39,143.95 925.71,143.48 927.01,143.01 927.34,143.01 929.29,142.55 929.62,142.08 931.24,141.62 931.57,141.15 932.22,140.68 932.87,140.68 933.84,140.22 937.09,139.75 942.94,139.28 944.24,138.82 945.87,138.35 947.17,137.89 948.47,137.42 949.45,136.95 950.42,136.02 952.70,136.02 954.32,135.55 954.97,135.55 957.25,135.55 957.57,135.55 957.90,135.09 961.48,134.62 963.43,134.16 963.75,134.16 966.68,133.69 971.55,133.22 972.85,133.22 973.18,132.76 974.15,132.29 978.06,131.82 982.61,131.36 982.93,131.36 987.16,130.89 989.76,130.43 1002.44,129.96 1005.36,129.03 1006.34,128.56 1007.97,128.09 1008.29,127.16 1014.14,126.69 1016.74,126.23 1021.95,125.76 1023.57,125.30 1025.85,124.83 1032.43,124.83 1035.35,124.83 1035.67,124.36 1036.00,124.36"/>
<circle cx="90.00" cy="468.00" r="3.8" fill="#ffb50c" stroke="#111827" stroke-width="1"/>
<circle cx="191.95" cy="454.01" r="3.8" fill="#ffb50c" stroke="#111827" stroke-width="1"/>
<circle cx="243.32" cy="441.42" r="3.8" fill="#ffb50c" stroke="#111827" stroke-width="1"/>
<circle cx="280.71" cy="427.44" r="3.8" fill="#ffb50c" stroke="#111827" stroke-width="1"/>
<circle cx="317.44" cy="413.91" r="3.8" fill="#ffb50c" stroke="#111827" stroke-width="1"/>
<circle cx="346.70" cy="401.79" r="3.8" fill="#ffb50c" stroke="#111827" stroke-width="1"/>
<circle cx="390.59" cy="385.47" r="3.8" fill="#ffb50c" stroke="#111827" stroke-width="1"/>
<circle cx="422.45" cy="367.29" r="3.8" fill="#ffb50c" stroke="#111827" stroke-width="1"/>
<circle cx="446.51" cy="352.83" r="3.8" fill="#ffb50c" stroke="#111827" stroke-width="1"/>
<circle cx="478.37" cy="338.38" r="3.8" fill="#ffb50c" stroke="#111827" stroke-width="1"/>
<circle cx="497.55" cy="320.66" r="3.8" fill="#ffb50c" stroke="#111827" stroke-width="1"/>
<circle cx="522.58" cy="303.41" r="3.8" fill="#ffb50c" stroke="#111827" stroke-width="1"/>
<circle cx="550.54" cy="289.89" r="3.8" fill="#ffb50c" stroke="#111827" stroke-width="1"/>
<circle cx="578.83" cy="274.97" r="3.8" fill="#ffb50c" stroke="#111827" stroke-width="1"/>
<circle cx="607.44" cy="259.58" r="3.8" fill="#ffb50c" stroke="#111827" stroke-width="1"/>
<circle cx="636.37" cy="244.66" r="3.8" fill="#ffb50c" stroke="#111827" stroke-width="1"/>
<circle cx="669.86" cy="233.47" r="3.8" fill="#ffb50c" stroke="#111827" stroke-width="1"/>
<circle cx="697.49" cy="223.68" r="3.8" fill="#ffb50c" stroke="#111827" stroke-width="1"/>
<circle cx="722.20" cy="209.69" r="3.8" fill="#ffb50c" stroke="#111827" stroke-width="1"/>
<circle cx="768.04" cy="197.57" r="3.8" fill="#ffb50c" stroke="#111827" stroke-width="1"/>
<circle cx="806.40" cy="185.44" r="3.8" fill="#ffb50c" stroke="#111827" stroke-width="1"/>
<circle cx="838.59" cy="171.92" r="3.8" fill="#ffb50c" stroke="#111827" stroke-width="1"/>
<circle cx="894.18" cy="156.54" r="3.8" fill="#ffb50c" stroke="#111827" stroke-width="1"/>
<circle cx="927.34" cy="143.01" r="3.8" fill="#ffb50c" stroke="#111827" stroke-width="1"/>
<circle cx="974.15" cy="132.29" r="3.8" fill="#ffb50c" stroke="#111827" stroke-width="1"/>
<circle cx="1036.00" cy="124.36" r="3.8" fill="#ffb50c" stroke="#111827" stroke-width="1"/>
<text x="1028.0" y="114.4" text-anchor="end" fill="#ffb50c" font-size="12" font-family="-apple-system,BlinkMacSystemFont,Segoe UI,Helvetica,Arial,sans-serif">737</text>
<rect x="90" y="514" width="14" height="14" fill="url(#repo-0)" rx="3"/>
<text x="112" y="526" fill="#3bf2af" font-size="13" font-family="-apple-system,BlinkMacSystemFont,Segoe UI,Helvetica,Arial,sans-serif">bavix/gripmock</text>
<rect x="280" y="514" width="14" height="14" fill="url(#repo-1)" rx="3"/>
<text x="302" y="526" fill="#ffb50c" font-size="13" font-family="-apple-system,BlinkMacSystemFont,Segoe UI,Helvetica,Arial,sans-serif">tokopedia/gripmock</text>
<text x="1036" y="526" text-anchor="end" fill="#9ca3af" font-size="12" font-family="-apple-system,BlinkMacSystemFont,Segoe UI,Helvetica,Arial,sans-serif">Source: https://github.com/bavix/artifact-stats/blob/master/stats/github.csv</text>
</svg>