<svg xmlns="http://www.w3.org/2000/svg" width="1100" height="560" viewBox="0 0 1100 560">
<defs>
<linearGradient id="bg" x1="0" y1="0" x2="1" y2="1"><stop offset="0%" stop-color="#0b1220"/><stop offset="100%" stop-color="#111827"/></linearGradient>
<linearGradient id="repo-0" x1="0" y1="0" x2="0" y2="1"><stop offset="0%" stop-color="#34d399"/><stop offset="100%" stop-color="#059669"/></linearGradient>
<linearGradient id="repo-1" x1="0" y1="0" x2="0" y2="1"><stop offset="0%" stop-color="#f59e0b"/><stop offset="100%" stop-color="#d97706"/></linearGradient>
</defs>
<rect x="0" y="0" width="1100" height="560" fill="url(#bg)" rx="16"/>
<text x="90" y="44" fill="#f9fafb" font-size="28" font-family="-apple-system,BlinkMacSystemFont,Segoe UI,Helvetica,Arial,sans-serif" font-weight="700">GripMock GitHub Metrics - Stars</text>
<text x="90" y="70" fill="#9ca3af" font-size="16" font-family="-apple-system,BlinkMacSystemFont,Segoe UI,Helvetica,Arial,sans-serif">GitHub stars by snapshot date</text>
<line x1="90" y1="90.00" x2="1036" y2="90.00" stroke="#1f2937" stroke-width="1"/>
<text x="80" y="95.00" text-anchor="end" fill="#9ca3af" font-size="12" font-family="-apple-system,BlinkMacSystemFont,Segoe UI,Helvetica,Arial,sans-serif">811</text>
<line x1="90" y1="153.00" x2="1036" y2="153.00" stroke="#1f2937" stroke-width="1"/>
<text x="80" y="158.00" text-anchor="end" fill="#9ca3af" font-size="12" font-family="-apple-system,BlinkMacSystemFont,Segoe UI,Helvetica,Arial,sans-serif">676</text>
<line x1="90" y1="216.00" x2="1036" y2="216.00" stroke="#1f2937" stroke-width="1"/>
<text x="80" y="221.00" text-anchor="end" fill="#9ca3af" font-size="12" font-family="-apple-system,BlinkMacSystemFont,Segoe UI,Helvetica,Arial,sans-serif">540</text>
<line x1="90" y1="279.00" x2="1036" y2="279.00" stroke="#1f2937" stroke-width="1"/>
<text x="80" y="284.00" text-anchor="end" fill="#9ca3af" font-size="12" font-family="-apple-system,BlinkMacSystemFont,Segoe UI,Helvetica,Arial,sans-serif">405</text>
<line x1="90" y1="342.00" x2="1036" y2="342.00" stroke="#1f2937" stroke-width="1"/>
<text x="80" y="347.00" text-anchor="end" fill="#9ca3af" font-size="12" font-family="-apple-system,BlinkMacSystemFont,Segoe UI,Helvetica,Arial,sans-serif">270</text>
<line x1="90" y1="405.00" x2="1036" y2="405.00" stroke="#1f2937" stroke-width="1"/>
<text x="80" y="410.00" text-anchor="end" fill="#9ca3af" font-size="12" font-family="-apple-system,BlinkMacSystemFont,Segoe UI,Helvetica,Arial,sans-serif">135</text>
<line x1="90" y1="468.00" x2="1036" y2="468.00" stroke="#1f2937" stroke-width="1"/>
<text x="80" y="473.00" text-anchor="end" fill="#9ca3af" font-size="12" font-family="-apple-system,BlinkMacSystemFont,Segoe UI,Helvetica,Arial,sans-serif">0</text>
<line x1="90" y1="468" x2="1036" y2="468" stroke="#4b5563" stroke-width="1.4"/>
<line x1="90" y1="90" x2="90" y2="468" stroke="#4b5563" stroke-width="1.4"/>
<line x1="90.00" y1="468" x2="90.00" y2="474" stroke="#6b7280" stroke-width="1"/>
<text x="90.00" y="494" text-anchor="start" fill="#9ca3af" font-size="12" font-family="-apple-system,BlinkMacSystemFont,Segoe UI,Helvetica,Arial,sans-serif">2018-04-24</text>
<line x1="279.20" y1="468" x2="279.20" y2="474" stroke="#6b7280" stroke-width="1"/>
<text x="279.20" y="494" text-anchor="middle" fill="#9ca3af" font-size="12" font-family="-apple-system,BlinkMacSystemFont,Segoe UI,Helvetica,Arial,sans-serif">2019-11-28</text>
<line x1="468.40" y1="468" x2="468.40" y2="474" stroke="#6b7280" stroke-width="1"/>
<text x="468.40" y="494" text-anchor="middle" fill="#9ca3af" font-size="12" font-family="-apple-system,BlinkMacSystemFont,Segoe UI,Helvetica,Arial,sans-serif">2021-07-03</text>
<line x1="657.60" y1="468" x2="657.60" y2="474" stroke="#6b7280" stroke-width="1"/>
<text x="657.60" y="494" text-anchor="middle" fill="#9ca3af" font-size="12" font-family="-apple-system,BlinkMacSystemFont,Segoe UI,Helvetica,Arial,sans-serif">2023-02-06</text>
<line x1="846.80" y1="468" x2="846.80" y2="474" stroke="#6b7280" stroke-width="1"/>
<text x="846.80" y="494" text-anchor="middle" fill="#9ca3af" font-size="12" font-family="-apple-system,BlinkMacSystemFont,Segoe UI,Helvetica,Arial,sans-serif">2024-09-12</text>
<line x1="1036.00" y1="468" x2="1036.00" y2="474" stroke="#6b7280" stroke-width="1"/>
<text x="1036.00" y="494" text-anchor="end" fill="#9ca3af" font-size="12" font-family="-apple-system,BlinkMacSystemFont,Segoe UI,Helvetica,Arial,sans-serif">2026-04-18</text>
<polyline fill="none" stroke="url(#repo-0)" stroke-width="4" stroke-linecap="round" stroke-linejoin="round" points="719.41,468.00 726.09,467.53 739.07,467.07 752.69,466.60 754.64,466.13 757.89,465.67 769.56,465.20 771.84,464.74 777.35,464.27 777.68,463.80 782.54,463.34 790.33,462.87 802.66,462.40 805.90,461.94 810.12,461.47 813.69,461.01 828.61,460.54 833.15,460.07 833.80,459.61 835.10,459.14 841.27,458.67 854.89,458.21 857.81,457.74 864.62,457.28 870.14,456.81 870.79,456.34 871.44,455.88 891.55,455.41 894.15,454.94 894.80,454.48 900.96,454.01 901.61,453.55 905.50,453.55 906.80,453.08 907.13,452.61 907.45,452.15 910.37,451.68 911.99,451.21 913.61,450.75 918.81,450.75 923.35,450.75 924.97,450.28 925.62,450.28 932.43,449.82 936.33,449.35 948.01,448.88 950.28,448.42 950.93,448.42 952.87,447.95 954.82,447.48 957.74,447.48 962.93,447.02 969.74,446.55 973.96,446.09 985.32,445.62 987.59,445.15 992.45,444.69 992.78,444.22 993.75,443.75 996.35,443.29 996.67,443.29 1005.43,442.82 1012.24,442.36 1012.89,441.89 1015.16,441.42 1021.65,440.96 1023.92,440.49 1025.55,440.02 1027.17,439.56 1030.49,439.56 1031.45,439.56 1031.78,439.09 1032.43,439.09 1032.76,438.63 1033.08,439.09 1036.00,439.09"/>
<circle cx="719.41" cy="468.00" r="3.8" fill="#3bf2af" stroke="#111827" stroke-width="1"/>
<circle cx="752.69" cy="466.60" r="3.8" fill="#3bf2af" stroke="#111827" stroke-width="1"/>
<circle cx="769.56" cy="465.20" r="3.8" fill="#3bf2af" stroke="#111827" stroke-width="1"/>
<circle cx="777.68" cy="463.80" r="3.8" fill="#3bf2af" stroke="#111827" stroke-width="1"/>
<circle cx="802.66" cy="462.40" r="3.8" fill="#3bf2af" stroke="#111827" stroke-width="1"/>
<circle cx="813.69" cy="461.01" r="3.8" fill="#3bf2af" stroke="#111827" stroke-width="1"/>
<circle cx="833.80" cy="459.61" r="3.8" fill="#3bf2af" stroke="#111827" stroke-width="1"/>
<circle cx="854.89" cy="458.21" r="3.8" fill="#3bf2af" stroke="#111827" stroke-width="1"/>
<circle cx="870.14" cy="456.81" r="3.8" fill="#3bf2af" stroke="#111827" stroke-width="1"/>
<circle cx="891.55" cy="455.41" r="3.8" fill="#3bf2af" stroke="#111827" stroke-width="1"/>
<circle cx="900.96" cy="454.01" r="3.8" fill="#3bf2af" stroke="#111827" stroke-width="1"/>
<circle cx="906.80" cy="453.08" r="3.8" fill="#3bf2af" stroke="#111827" stroke-width="1"/>
<circle cx="910.37" cy="451.68" r="3.8" fill="#3bf2af" stroke="#111827" stroke-width="1"/>
<circle cx="918.81" cy="450.75" r="3.8" fill="#3bf2af" stroke="#111827" stroke-width="1"/>
<circle cx="925.62" cy="450.28" r="3.8" fill="#3bf2af" stroke="#111827" stroke-width="1"/>
<circle cx="948.01" cy="448.88" r="3.8" fill="#3bf2af" stroke="#111827" stroke-width="1"/>
<circle cx="952.87" cy="447.95" r="3.8" fill="#3bf2af" stroke="#111827" stroke-width="1"/>
<circle cx="962.93" cy="447.02" r="3.8" fill="#3bf2af" stroke="#111827" stroke-width="1"/>
<circle cx="985.32" cy="445.62" r="3.8" fill="#3bf2af" stroke="#111827" stroke-width="1"/>
<circle cx="992.78" cy="444.22" r="3.8" fill="#3bf2af" stroke="#111827" stroke-width="1"/>
<circle cx="996.67" cy="443.29" r="3.8" fill="#3bf2af" stroke="#111827" stroke-width="1"/>
<circle cx="1012.89" cy="441.89" r="3.8" fill="#3bf2af" stroke="#111827" stroke-width="1"/>
<circle cx="1023.92" cy="440.49" r="3.8" fill="#3bf2af" stroke="#111827" stroke-width="1"/>
<circle cx="1030.49" cy="439.56" r="3.8" fill="#3bf2af" stroke="#111827" stroke-width="1"/>
<circle cx="1032.43" cy="439.09" r="3.8" fill="#3bf2af" stroke="#111827" stroke-width="1"/>
<circle cx="1036.00" cy="439.09" r="3.8" fill="#3bf2af" stroke="#111827" stroke-width="1"/>
<text x="1028.00" y="429.09" text-anchor="end" fill="#3bf2af" font-size="12" font-family="-apple-system,BlinkMacSystemFont,Segoe UI,Helvetica,Arial,sans-serif">62</text>
<polyline fill="none" stroke="url(#repo-1)" stroke-width="4" stroke-linecap="round" stroke-linejoin="round" points="90.00,468.00 91.82,466.60 92.46,466.13 96.03,465.67 99.60,465.20 136.59,464.74 137.56,464.27 143.40,464.27 149.24,463.80 153.78,463.80 157.35,463.34 158.00,462.87 158.33,462.40 158.65,461.94 160.27,461.47 160.92,461.01 165.14,460.54 165.46,460.07 169.36,459.61 170.33,459.14 170.65,458.67 172.28,458.21 173.90,457.28 175.84,456.81 176.82,456.34 182.01,455.88 184.60,455.41 186.23,454.94 186.55,454.48 191.74,454.01 192.07,453.55 192.72,453.08 195.96,452.61 196.61,451.68 196.93,451.68 197.26,451.68 203.10,451.21 204.72,451.21 210.88,450.75 212.18,450.28 212.83,450.28 215.43,449.82 218.35,449.35 222.24,449.35 222.56,448.88 224.83,448.42 227.11,447.95 230.35,447.48 231.32,447.02 233.59,446.55 235.87,446.09 237.81,445.62 238.14,445.15 238.46,444.69 241.06,444.22 241.71,443.75 242.35,442.82 242.68,442.36 243.00,441.42 243.33,440.96 245.92,440.49 246.57,439.56 249.17,439.56 254.68,439.09 255.33,439.09 255.66,438.63 255.98,438.16 256.63,438.16 257.93,437.69 258.25,437.23 260.20,436.76 260.52,436.29 262.79,435.83 263.77,434.90 264.42,433.96 265.39,433.96 267.01,433.50 267.34,433.03 268.31,432.56 271.23,432.10 274.80,431.63 275.77,431.17 276.74,430.70 277.07,430.23 278.37,429.77 278.69,429.30 279.34,428.83 280.31,427.44 281.94,426.97 282.58,426.50 282.91,426.04 283.23,424.64 284.86,424.17 285.83,423.70 286.48,423.24 287.78,423.24 288.10,422.77 289.72,422.31 293.29,421.84 295.24,421.37 296.86,421.37 297.18,420.44 299.46,419.97 301.08,419.51 301.40,419.51 303.35,419.04 303.67,418.58 304.32,418.58 305.30,418.58 305.62,418.11 305.94,417.64 306.27,417.18 310.81,415.78 314.70,415.31 315.03,414.85 315.68,414.38 316.97,413.91 317.30,413.45 318.92,413.45 319.57,412.98 319.89,412.51 320.22,412.05 320.54,411.58 322.17,411.12 325.41,410.65 326.71,410.18 327.03,410.18 327.68,409.72 328.01,409.72 328.65,408.32 329.30,407.85 329.95,407.85 331.25,407.39 331.90,406.92 333.85,406.45 334.17,405.99 335.47,405.52 337.41,405.05 338.71,404.59 340.01,404.59 340.33,404.12 340.98,403.66 341.96,403.19 342.93,402.72 344.55,402.26 346.17,401.79 347.80,401.32 350.72,400.86 353.31,400.39 353.64,399.93 353.96,399.46 358.83,398.99 359.80,398.53 360.77,398.06 361.10,397.13 362.07,396.66 364.34,395.73 364.67,394.80 366.29,394.33 368.24,394.33 371.48,393.86 372.45,393.40 373.43,392.93 374.72,392.00 375.37,391.53 375.70,391.07 376.35,390.60 377.97,389.67 379.27,389.20 383.48,388.27 385.11,386.87 386.08,385.94 389.00,385.94 389.65,385.94 389.97,385.47 390.30,384.54 391.92,383.61 392.89,383.14 394.19,382.67 394.52,382.21 395.16,381.74 397.44,381.27 397.76,380.81 398.41,380.34 400.68,379.88 401.33,379.41 402.63,378.94 403.60,378.48 403.92,378.01 404.25,377.54 408.14,377.08 408.79,376.61 410.09,375.68 410.41,375.21 411.71,374.75 413.01,371.48 413.33,370.55 413.66,370.08 415.28,369.62 415.93,369.15 417.55,369.15 418.85,368.69 419.82,368.22 421.77,367.29 423.07,366.82 424.69,366.35 425.01,365.89 425.66,365.42 426.31,364.49 426.96,364.02 427.28,364.02 428.26,364.02 428.58,363.56 428.91,363.09 429.23,362.62 430.85,362.16 431.50,361.23 432.80,360.76 433.45,359.83 434.42,359.36 435.07,358.89 436.04,358.43 437.34,357.96 438.64,357.96 439.94,357.50 440.26,357.03 441.88,356.56 442.21,356.10 442.86,355.63 443.18,355.16 443.83,354.70 444.15,353.30 445.78,352.83 447.07,352.37 448.70,351.90 453.24,350.97 453.56,350.50 453.89,350.50 454.21,350.04 455.19,349.57 455.51,349.10 455.83,348.64 456.16,347.70 457.46,347.24 458.11,346.31 458.43,344.91 459.40,344.91 459.73,344.91 460.38,343.97 462.32,343.51 462.65,342.58 462.97,342.11 464.27,341.64 466.54,341.18 466.86,340.71 467.51,340.24 469.78,339.78 471.41,339.31 473.03,339.31 475.95,339.31 477.25,338.84 477.57,338.38 477.90,338.38 478.54,337.91 478.87,336.98 479.19,336.51 480.17,336.05 480.49,335.58 481.46,335.11 483.09,334.18 483.41,334.18 483.74,333.25 484.06,332.78 484.38,331.38 484.71,330.45 485.03,329.99 485.68,329.52 486.01,327.65 486.33,327.19 487.30,326.72 487.95,325.79 488.60,325.32 489.90,324.86 491.20,324.39 491.52,323.92 491.85,323.46 492.17,322.99 493.79,322.53 495.09,322.06 495.42,321.59 496.71,320.66 497.04,319.73 497.36,319.73 500.61,319.26 500.93,318.80 501.58,318.33 503.20,317.40 503.85,316.93 504.50,316.46 505.80,316.46 506.45,315.53 506.77,315.53 507.10,313.67 507.42,311.34 508.72,310.87 509.04,310.40 509.69,309.94 510.02,309.47 510.99,309.00 511.31,308.54 512.61,308.07 515.53,307.61 516.50,307.14 517.48,306.67 517.80,305.27 518.13,304.81 518.45,304.34 518.77,303.88 519.42,303.41 521.69,303.41 522.99,302.94 523.32,302.48 523.64,302.01 524.61,301.54 525.91,301.54 527.21,301.08 528.83,300.61 529.16,300.15 532.73,299.68 534.35,299.21 535.00,298.28 535.65,297.81 538.24,297.35 538.89,296.88 539.21,296.41 540.19,295.95 540.84,295.48 541.49,295.48 542.13,295.02 542.78,294.55 544.08,294.08 544.41,293.62 544.73,293.15 546.35,293.15 547.00,292.68 547.33,292.22 548.30,291.29 548.95,290.35 549.60,289.89 551.22,288.95 551.54,288.95 551.87,288.49 552.84,288.02 553.49,287.56 554.14,287.09 555.76,286.62 558.68,286.16 559.01,285.69 560.30,285.22 560.63,284.76 561.93,284.29 562.25,283.83 562.57,281.96 563.22,281.49 564.20,281.03 564.52,280.56 564.84,280.10 565.49,279.63 566.79,279.16 567.76,279.16 568.09,278.70 572.31,278.23 572.63,277.76 573.60,276.83 574.25,276.37 576.52,275.90 577.50,275.43 577.82,274.97 578.15,274.50 580.74,273.57 581.07,273.10 581.39,271.24 582.36,270.77 582.69,270.30 583.34,269.84 585.61,269.37 586.26,268.91 586.91,268.91 587.88,268.44 588.20,267.97 589.18,267.51 594.69,267.04 595.99,266.11 596.32,265.64 597.94,265.18 598.59,265.18 598.91,264.24 599.24,264.24 599.56,263.78 600.53,263.31 601.51,262.84 601.83,262.38 603.78,261.91 604.10,261.45 604.75,260.51 605.72,260.05 606.37,259.58 606.70,259.11 608.00,258.65 608.64,258.65 609.29,258.18 610.27,257.72 610.59,257.25 614.81,256.78 615.78,256.78 616.75,256.32 617.08,255.85 618.70,255.38 619.03,254.45 619.35,253.98 619.67,253.05 620.97,252.59 621.95,252.12 624.22,251.19 625.19,250.72 625.51,250.25 626.16,250.25 626.81,248.86 628.76,248.39 629.08,247.92 632.33,247.46 632.65,246.99 633.63,245.59 633.95,245.13 634.92,244.66 635.25,244.66 635.57,244.19 637.19,243.73 637.52,242.79 638.49,241.86 640.11,241.40 641.41,240.93 642.39,240.93 645.95,240.93 646.28,240.93 648.23,240.93 648.87,240.00 649.52,240.00 650.82,240.00 651.15,240.00 653.74,239.53 656.66,239.06 657.31,238.60 657.63,237.67 657.96,237.20 660.88,236.73 662.18,236.73 662.50,236.27 662.82,235.80 663.47,235.80 664.77,235.33 665.10,234.87 665.74,234.40 667.04,233.94 668.66,233.47 668.99,233.47 669.64,233.00 669.96,232.54 670.29,232.54 670.61,232.07 670.94,231.60 671.58,231.14 675.48,230.67 677.75,230.67 680.02,230.67 680.99,230.67 681.32,230.21 681.64,229.74 682.62,229.74 682.94,229.27 685.21,228.81 685.54,228.34 686.83,228.34 687.16,227.87 687.48,227.41 688.78,226.94 689.75,226.94 691.05,226.01 692.02,226.01 692.35,226.01 694.30,225.54 694.94,224.61 695.92,224.14 696.24,223.68 696.89,223.21 698.84,222.28 699.49,222.28 700.14,221.81 700.46,221.35 701.11,220.88 701.43,220.41 702.41,219.95 702.73,219.02 703.38,218.55 704.68,218.08 705.00,217.62 705.65,216.68 706.30,216.22 707.60,215.75 707.92,215.29 709.22,214.82 710.52,214.35 712.14,214.35 713.11,213.89 713.44,213.42 715.06,213.42 715.38,212.95 716.68,212.49 717.65,211.09 718.30,211.09 719.28,210.62 720.57,210.16 720.90,209.69 721.55,209.22 724.14,208.76 726.09,208.29 728.36,207.82 731.93,207.36 732.25,207.36 732.58,206.89 734.53,205.49 735.17,205.03 735.50,204.56 735.82,204.09 736.80,203.63 737.12,203.16 737.77,202.70 740.37,201.76 741.99,201.30 742.64,201.30 744.26,201.30 745.56,200.83 748.48,200.36 749.77,200.36 751.72,199.90 757.56,199.90 759.83,199.90 760.48,199.43 763.40,198.97 764.05,198.50 764.70,198.03 766.64,197.57 767.29,197.10 767.94,196.17 768.27,196.17 768.59,195.70 771.19,195.24 774.11,194.77 775.73,194.30 777.68,193.84 780.60,193.84 783.19,192.44 784.49,191.97 785.14,191.51 786.44,191.04 788.06,190.57 788.71,190.11 789.36,189.64 791.30,189.17 792.60,188.71 792.92,187.78 795.84,187.78 796.17,187.31 796.49,187.31 797.14,186.84 798.12,186.84 799.41,186.38 801.36,185.91 801.68,185.44 802.66,185.44 804.93,185.44 807.20,184.98 809.15,184.51 811.74,184.05 812.39,183.58 812.71,183.11 813.69,183.11 814.01,182.65 814.34,182.18 814.99,181.25 816.28,180.78 818.55,180.32 818.88,179.85 819.85,178.92 821.80,178.45 823.42,177.98 823.75,177.52 825.04,177.05 826.02,176.59 826.34,176.59 827.64,176.12 828.29,176.12 829.91,175.65 830.23,175.19 830.56,173.79 832.51,173.32 833.48,172.86 833.80,172.39 835.75,172.39 837.05,171.92 837.37,170.52 837.70,170.52 839.97,169.12 841.59,168.66 845.48,168.19 845.81,167.73 847.75,167.26 850.67,166.79 853.92,166.33 855.87,165.39 856.19,164.93 856.51,164.46 857.16,164.00 859.76,163.53 862.03,163.06 865.27,162.60 865.60,162.60 868.52,162.13 869.49,161.66 870.79,161.20 880.85,160.73 882.14,159.80 882.47,159.33 885.71,158.87 887.34,157.93 889.61,157.47 890.26,157.47 890.58,157.00 892.53,156.54 893.82,156.07 894.47,155.60 894.80,155.14 895.12,154.67 896.10,154.20 897.72,153.74 898.04,153.74 899.66,153.27 901.94,152.81 904.21,152.34 904.86,151.87 908.42,151.41 908.75,150.94 910.37,150.47 911.99,150.01 914.91,149.54 916.21,149.08 918.48,149.08 918.81,148.61 919.45,148.61 921.08,148.14 921.40,147.68 922.05,147.21 923.02,146.28 923.35,144.88 923.67,143.95 924.00,143.48 925.29,143.01 925.62,143.01 927.57,142.55 927.89,142.08 929.51,141.62 929.84,141.15 930.49,140.68 931.13,140.68 932.11,140.22 935.35,139.75 941.19,139.28 942.49,138.82 944.11,138.35 945.41,137.89 946.71,137.42 947.68,136.95 948.65,136.02 950.93,136.02 952.55,135.55 953.20,135.55 955.47,135.55 955.79,135.55 956.12,135.09 959.69,134.62 961.63,134.16 961.96,134.16 964.88,133.69 969.74,133.22 971.04,133.22 971.36,132.76 972.34,132.29 976.23,131.82 980.77,131.36 981.10,131.36 985.32,130.89 987.91,130.43 1000.56,129.96 1003.48,129.03 1004.46,128.56 1006.08,128.09 1006.40,127.16 1012.24,126.69 1014.84,126.23 1020.03,125.76 1021.65,125.30 1023.92,124.83 1030.49,124.83 1033.41,124.83 1033.73,124.36 1034.39,124.36 1034.71,124.83 1035.68,124.83 1036.00,125.30"/>
<circle cx="90.00" cy="468.00" r="3.8" fill="#ffb50c" stroke="#111827" stroke-width="1"/>
<circle cx="191.74" cy="454.01" r="3.8" fill="#ffb50c" stroke="#111827" stroke-width="1"/>
<circle cx="243.00" cy="441.42" r="3.8" fill="#ffb50c" stroke="#111827" stroke-width="1"/>
<circle cx="280.31" cy="427.44" r="3.8" fill="#ffb50c" stroke="#111827" stroke-width="1"/>
<circle cx="316.97" cy="413.91" r="3.8" fill="#ffb50c" stroke="#111827" stroke-width="1"/>
<circle cx="346.17" cy="401.79" r="3.8" fill="#ffb50c" stroke="#111827" stroke-width="1"/>
<circle cx="389.97" cy="385.47" r="3.8" fill="#ffb50c" stroke="#111827" stroke-width="1"/>
<circle cx="421.77" cy="367.29" r="3.8" fill="#ffb50c" stroke="#111827" stroke-width="1"/>
<circle cx="445.78" cy="352.83" r="3.8" fill="#ffb50c" stroke="#111827" stroke-width="1"/>
<circle cx="477.57" cy="338.38" r="3.8" fill="#ffb50c" stroke="#111827" stroke-width="1"/>
<circle cx="496.71" cy="320.66" r="3.8" fill="#ffb50c" stroke="#111827" stroke-width="1"/>
<circle cx="521.69" cy="303.41" r="3.8" fill="#ffb50c" stroke="#111827" stroke-width="1"/>
<circle cx="549.60" cy="289.89" r="3.8" fill="#ffb50c" stroke="#111827" stroke-width="1"/>
<circle cx="577.82" cy="274.97" r="3.8" fill="#ffb50c" stroke="#111827" stroke-width="1"/>
<circle cx="606.37" cy="259.58" r="3.8" fill="#ffb50c" stroke="#111827" stroke-width="1"/>
<circle cx="635.25" cy="244.66" r="3.8" fill="#ffb50c" stroke="#111827" stroke-width="1"/>
<circle cx="668.66" cy="233.47" r="3.8" fill="#ffb50c" stroke="#111827" stroke-width="1"/>
<circle cx="696.24" cy="223.68" r="3.8" fill="#ffb50c" stroke="#111827" stroke-width="1"/>
<circle cx="720.90" cy="209.69" r="3.8" fill="#ffb50c" stroke="#111827" stroke-width="1"/>
<circle cx="766.64" cy="197.57" r="3.8" fill="#ffb50c" stroke="#111827" stroke-width="1"/>
<circle cx="804.93" cy="185.44" r="3.8" fill="#ffb50c" stroke="#111827" stroke-width="1"/>
<circle cx="837.05" cy="171.92" r="3.8" fill="#ffb50c" stroke="#111827" stroke-width="1"/>
<circle cx="892.53" cy="156.54" r="3.8" fill="#ffb50c" stroke="#111827" stroke-width="1"/>
<circle cx="925.62" cy="143.01" r="3.8" fill="#ffb50c" stroke="#111827" stroke-width="1"/>
<circle cx="972.34" cy="132.29" r="3.8" fill="#ffb50c" stroke="#111827" stroke-width="1"/>
<circle cx="1036.00" cy="125.30" r="3.8" fill="#ffb50c" stroke="#111827" stroke-width="1"/>
<text x="1028.00" y="115.30" text-anchor="end" fill="#ffb50c" font-size="12" font-family="-apple-system,BlinkMacSystemFont,Segoe UI,Helvetica,Arial,sans-serif">735</text>
<rect x="90.00" y="514.00" width="14" height="14" fill="url(#repo-0)" rx="3"/>
<text x="112.00" y="526.00" fill="#3bf2af" font-size="13" font-family="-apple-system,BlinkMacSystemFont,Segoe UI,Helvetica,Arial,sans-serif">bavix/gripmock</text>
<rect x="280.00" y="514.00" width="14" height="14" fill="url(#repo-1)" rx="3"/>
<text x="302.00" y="526.00" fill="#ffb50c" font-size="13" font-family="-apple-system,BlinkMacSystemFont,Segoe UI,Helvetica,Arial,sans-serif">tokopedia/gripmock</text>
<text x="1036.00" y="526.00" text-anchor="end" fill="#9ca3af" font-size="12" font-family="-apple-system,BlinkMacSystemFont,Segoe UI,Helvetica,Arial,sans-serif">Source: https://github.com/bavix/artifact-stats/blob/master/stats/github.csv</text>
</svg>