<svg xmlns="http://www.w3.org/2000/svg" width="1100" height="560" viewBox="0 0 1100 560">
<defs>
<linearGradient id="bg" x1="0" y1="0" x2="1" y2="1"><stop offset="0%" stop-color="#0b1220"/><stop offset="100%" stop-color="#111827"/></linearGradient>
<linearGradient id="repo-0" x1="0" y1="0" x2="0" y2="1"><stop offset="0%" stop-color="#34d399"/><stop offset="100%" stop-color="#059669"/></linearGradient>
<linearGradient id="repo-1" x1="0" y1="0" x2="0" y2="1"><stop offset="0%" stop-color="#f59e0b"/><stop offset="100%" stop-color="#d97706"/></linearGradient>
</defs>
<rect x="0" y="0" width="1100" height="560" fill="url(#bg)" rx="16"/>
<text x="90" y="44" fill="#f9fafb" font-size="28" font-family="-apple-system,BlinkMacSystemFont,Segoe UI,Helvetica,Arial,sans-serif" font-weight="700">GripMock GitHub Metrics - Stars</text>
<text x="90" y="70" fill="#9ca3af" font-size="16" font-family="-apple-system,BlinkMacSystemFont,Segoe UI,Helvetica,Arial,sans-serif">GitHub stars by snapshot date</text>
<line x1="90" y1="90.00" x2="1036" y2="90.00" stroke="#1f2937" stroke-width="1"/>
<text x="80" y="95.00" text-anchor="end" fill="#9ca3af" font-size="12" font-family="-apple-system,BlinkMacSystemFont,Segoe UI,Helvetica,Arial,sans-serif">811</text>
<line x1="90" y1="153.00" x2="1036" y2="153.00" stroke="#1f2937" stroke-width="1"/>
<text x="80" y="158.00" text-anchor="end" fill="#9ca3af" font-size="12" font-family="-apple-system,BlinkMacSystemFont,Segoe UI,Helvetica,Arial,sans-serif">676</text>
<line x1="90" y1="216.00" x2="1036" y2="216.00" stroke="#1f2937" stroke-width="1"/>
<text x="80" y="221.00" text-anchor="end" fill="#9ca3af" font-size="12" font-family="-apple-system,BlinkMacSystemFont,Segoe UI,Helvetica,Arial,sans-serif">540</text>
<line x1="90" y1="279.00" x2="1036" y2="279.00" stroke="#1f2937" stroke-width="1"/>
<text x="80" y="284.00" text-anchor="end" fill="#9ca3af" font-size="12" font-family="-apple-system,BlinkMacSystemFont,Segoe UI,Helvetica,Arial,sans-serif">405</text>
<line x1="90" y1="342.00" x2="1036" y2="342.00" stroke="#1f2937" stroke-width="1"/>
<text x="80" y="347.00" text-anchor="end" fill="#9ca3af" font-size="12" font-family="-apple-system,BlinkMacSystemFont,Segoe UI,Helvetica,Arial,sans-serif">270</text>
<line x1="90" y1="405.00" x2="1036" y2="405.00" stroke="#1f2937" stroke-width="1"/>
<text x="80" y="410.00" text-anchor="end" fill="#9ca3af" font-size="12" font-family="-apple-system,BlinkMacSystemFont,Segoe UI,Helvetica,Arial,sans-serif">135</text>
<line x1="90" y1="468.00" x2="1036" y2="468.00" stroke="#1f2937" stroke-width="1"/>
<text x="80" y="473.00" text-anchor="end" fill="#9ca3af" font-size="12" font-family="-apple-system,BlinkMacSystemFont,Segoe UI,Helvetica,Arial,sans-serif">0</text>
<line x1="90" y1="468" x2="1036" y2="468" stroke="#4b5563" stroke-width="1.4"/>
<line x1="90" y1="90" x2="90" y2="468" stroke="#4b5563" stroke-width="1.4"/>
<line x1="90.00" y1="468" x2="90.00" y2="474" stroke="#6b7280" stroke-width="1"/>
<text x="90.00" y="494" text-anchor="start" fill="#9ca3af" font-size="12" font-family="-apple-system,BlinkMacSystemFont,Segoe UI,Helvetica,Arial,sans-serif">2018-04-24</text>
<line x1="279.20" y1="468" x2="279.20" y2="474" stroke="#6b7280" stroke-width="1"/>
<text x="279.20" y="494" text-anchor="middle" fill="#9ca3af" font-size="12" font-family="-apple-system,BlinkMacSystemFont,Segoe UI,Helvetica,Arial,sans-serif">2019-11-27</text>
<line x1="468.40" y1="468" x2="468.40" y2="474" stroke="#6b7280" stroke-width="1"/>
<text x="468.40" y="494" text-anchor="middle" fill="#9ca3af" font-size="12" font-family="-apple-system,BlinkMacSystemFont,Segoe UI,Helvetica,Arial,sans-serif">2021-07-01</text>
<line x1="657.60" y1="468" x2="657.60" y2="474" stroke="#6b7280" stroke-width="1"/>
<text x="657.60" y="494" text-anchor="middle" fill="#9ca3af" font-size="12" font-family="-apple-system,BlinkMacSystemFont,Segoe UI,Helvetica,Arial,sans-serif">2023-02-03</text>
<line x1="846.80" y1="468" x2="846.80" y2="474" stroke="#6b7280" stroke-width="1"/>
<text x="846.80" y="494" text-anchor="middle" fill="#9ca3af" font-size="12" font-family="-apple-system,BlinkMacSystemFont,Segoe UI,Helvetica,Arial,sans-serif">2024-09-08</text>
<line x1="1036.00" y1="468" x2="1036.00" y2="474" stroke="#6b7280" stroke-width="1"/>
<text x="1036.00" y="494" text-anchor="end" fill="#9ca3af" font-size="12" font-family="-apple-system,BlinkMacSystemFont,Segoe UI,Helvetica,Arial,sans-serif">2026-04-13</text>
<polyline fill="none" stroke="url(#repo-0)" stroke-width="4" stroke-linecap="round" stroke-linejoin="round" points="720.48,468.00 727.18,467.53 740.18,467.07 753.83,466.60 755.78,466.13 759.03,465.67 770.73,465.20 773.00,464.74 778.53,464.27 778.85,463.80 783.73,463.34 791.53,462.87 803.87,462.40 807.12,461.94 811.35,461.47 814.92,461.01 829.87,460.54 834.42,460.07 835.07,459.61 836.37,459.14 842.55,458.67 856.20,458.21 859.12,457.74 865.95,457.28 871.47,456.81 872.12,456.34 872.77,455.88 892.92,455.41 895.52,454.94 896.17,454.48 902.35,454.01 903.00,453.55 906.90,453.55 908.20,453.08 908.52,452.61 908.85,452.15 911.77,451.68 913.40,451.21 915.02,450.75 920.22,450.75 924.77,450.75 926.40,450.28 927.05,450.28 933.87,449.82 937.77,449.35 949.47,448.88 951.75,448.42 952.40,448.42 954.35,447.95 956.30,447.48 959.22,447.48 964.42,447.02 971.25,446.55 975.47,446.09 986.84,445.62 989.12,445.15 993.99,444.69 994.32,444.22 995.29,443.75 997.89,443.29 998.22,443.29 1006.99,442.82 1013.82,442.36 1014.47,441.89 1016.74,441.42 1023.24,440.96 1025.52,440.49 1027.14,440.02 1028.77,439.56 1032.10,439.56 1033.06,439.56 1033.39,439.09 1034.04,439.09 1034.37,438.63 1034.69,439.09 1036.00,439.09"/>
<circle cx="720.48" cy="468.00" r="3.8" fill="#3bf2af" stroke="#111827" stroke-width="1"/>
<circle cx="753.83" cy="466.60" r="3.8" fill="#3bf2af" stroke="#111827" stroke-width="1"/>
<circle cx="770.73" cy="465.20" r="3.8" fill="#3bf2af" stroke="#111827" stroke-width="1"/>
<circle cx="778.85" cy="463.80" r="3.8" fill="#3bf2af" stroke="#111827" stroke-width="1"/>
<circle cx="803.87" cy="462.40" r="3.8" fill="#3bf2af" stroke="#111827" stroke-width="1"/>
<circle cx="814.92" cy="461.01" r="3.8" fill="#3bf2af" stroke="#111827" stroke-width="1"/>
<circle cx="835.07" cy="459.61" r="3.8" fill="#3bf2af" stroke="#111827" stroke-width="1"/>
<circle cx="856.20" cy="458.21" r="3.8" fill="#3bf2af" stroke="#111827" stroke-width="1"/>
<circle cx="871.47" cy="456.81" r="3.8" fill="#3bf2af" stroke="#111827" stroke-width="1"/>
<circle cx="892.92" cy="455.41" r="3.8" fill="#3bf2af" stroke="#111827" stroke-width="1"/>
<circle cx="902.35" cy="454.01" r="3.8" fill="#3bf2af" stroke="#111827" stroke-width="1"/>
<circle cx="908.20" cy="453.08" r="3.8" fill="#3bf2af" stroke="#111827" stroke-width="1"/>
<circle cx="911.77" cy="451.68" r="3.8" fill="#3bf2af" stroke="#111827" stroke-width="1"/>
<circle cx="920.22" cy="450.75" r="3.8" fill="#3bf2af" stroke="#111827" stroke-width="1"/>
<circle cx="927.05" cy="450.28" r="3.8" fill="#3bf2af" stroke="#111827" stroke-width="1"/>
<circle cx="949.47" cy="448.88" r="3.8" fill="#3bf2af" stroke="#111827" stroke-width="1"/>
<circle cx="954.35" cy="447.95" r="3.8" fill="#3bf2af" stroke="#111827" stroke-width="1"/>
<circle cx="964.42" cy="447.02" r="3.8" fill="#3bf2af" stroke="#111827" stroke-width="1"/>
<circle cx="986.84" cy="445.62" r="3.8" fill="#3bf2af" stroke="#111827" stroke-width="1"/>
<circle cx="994.32" cy="444.22" r="3.8" fill="#3bf2af" stroke="#111827" stroke-width="1"/>
<circle cx="998.22" cy="443.29" r="3.8" fill="#3bf2af" stroke="#111827" stroke-width="1"/>
<circle cx="1014.47" cy="441.89" r="3.8" fill="#3bf2af" stroke="#111827" stroke-width="1"/>
<circle cx="1025.52" cy="440.49" r="3.8" fill="#3bf2af" stroke="#111827" stroke-width="1"/>
<circle cx="1032.10" cy="439.56" r="3.8" fill="#3bf2af" stroke="#111827" stroke-width="1"/>
<circle cx="1034.04" cy="439.09" r="3.8" fill="#3bf2af" stroke="#111827" stroke-width="1"/>
<circle cx="1036.00" cy="439.09" r="3.8" fill="#3bf2af" stroke="#111827" stroke-width="1"/>
<text x="1028.00" y="429.09" text-anchor="end" fill="#3bf2af" font-size="12" font-family="-apple-system,BlinkMacSystemFont,Segoe UI,Helvetica,Arial,sans-serif">62</text>
<polyline fill="none" stroke="url(#repo-1)" stroke-width="4" stroke-linecap="round" stroke-linejoin="round" points="90.00,468.00 91.82,466.60 92.47,466.13 96.04,465.67 99.62,465.20 136.67,464.74 137.64,464.27 143.49,464.27 149.34,463.80 153.89,463.80 157.47,463.34 158.12,462.87 158.44,462.40 158.77,461.94 160.39,461.47 161.04,461.01 165.27,460.54 165.59,460.07 169.49,459.61 170.47,459.14 170.79,458.67 172.42,458.21 174.04,457.28 175.99,456.81 176.97,456.34 182.17,455.88 184.77,455.41 186.39,454.94 186.72,454.48 191.92,454.01 192.24,453.55 192.89,453.08 196.14,452.61 196.79,451.68 197.12,451.68 197.44,451.68 203.29,451.21 204.92,451.21 211.09,450.75 212.39,450.28 213.04,450.28 215.64,449.82 218.57,449.35 222.47,449.35 222.79,448.88 225.07,448.42 227.34,447.95 230.59,447.48 231.56,447.02 233.84,446.55 236.11,446.09 238.06,445.62 238.39,445.15 238.71,444.69 241.31,444.22 241.96,443.75 242.61,442.82 242.94,442.36 243.26,441.42 243.59,440.96 246.19,440.49 246.84,439.56 249.44,439.56 254.96,439.09 255.61,439.09 255.94,438.63 256.26,438.16 256.91,438.16 258.21,437.69 258.54,437.23 260.49,436.76 260.81,436.29 263.09,435.83 264.06,434.90 264.71,433.96 265.69,433.96 267.31,433.50 267.64,433.03 268.61,432.56 271.54,432.10 275.11,431.63 276.09,431.17 277.06,430.70 277.39,430.23 278.69,429.77 279.01,429.30 279.66,428.83 280.64,427.44 282.26,426.97 282.91,426.50 283.24,426.04 283.56,424.64 285.19,424.17 286.16,423.70 286.81,423.24 288.11,423.24 288.44,422.77 290.06,422.31 293.64,421.84 295.59,421.37 297.21,421.37 297.54,420.44 299.81,419.97 301.44,419.51 301.76,419.51 303.71,419.04 304.04,418.58 304.69,418.58 305.66,418.58 305.99,418.11 306.31,417.64 306.64,417.18 311.19,415.78 315.09,415.31 315.41,414.85 316.06,414.38 317.36,413.91 317.69,413.45 319.31,413.45 319.96,412.98 320.29,412.51 320.61,412.05 320.94,411.58 322.56,411.12 325.81,410.65 327.11,410.18 327.44,410.18 328.09,409.72 328.41,409.72 329.06,408.32 329.71,407.85 330.36,407.85 331.66,407.39 332.31,406.92 334.26,406.45 334.59,405.99 335.89,405.52 337.84,405.05 339.14,404.59 340.44,404.59 340.76,404.12 341.41,403.66 342.39,403.19 343.36,402.72 344.99,402.26 346.61,401.79 348.24,401.32 351.16,400.86 353.76,400.39 354.09,399.93 354.41,399.46 359.29,398.99 360.26,398.53 361.24,398.06 361.56,397.13 362.54,396.66 364.81,395.73 365.14,394.80 366.76,394.33 368.71,394.33 371.96,393.86 372.94,393.40 373.91,392.93 375.21,392.00 375.86,391.53 376.19,391.07 376.84,390.60 378.46,389.67 379.76,389.20 383.99,388.27 385.61,386.87 386.59,385.94 389.51,385.94 390.16,385.94 390.49,385.47 390.81,384.54 392.44,383.61 393.41,383.14 394.71,382.67 395.04,382.21 395.69,381.74 397.96,381.27 398.29,380.81 398.94,380.34 401.21,379.88 401.86,379.41 403.16,378.94 404.14,378.48 404.46,378.01 404.79,377.54 408.69,377.08 409.34,376.61 410.64,375.68 410.96,375.21 412.26,374.75 413.56,371.48 413.89,370.55 414.21,370.08 415.84,369.62 416.49,369.15 418.11,369.15 419.41,368.69 420.38,368.22 422.33,367.29 423.63,366.82 425.26,366.35 425.58,365.89 426.23,365.42 426.88,364.49 427.53,364.02 427.86,364.02 428.83,364.02 429.16,363.56 429.48,363.09 429.81,362.62 431.43,362.16 432.08,361.23 433.38,360.76 434.03,359.83 435.01,359.36 435.66,358.89 436.63,358.43 437.93,357.96 439.23,357.96 440.53,357.50 440.86,357.03 442.48,356.56 442.81,356.10 443.46,355.63 443.78,355.16 444.43,354.70 444.76,353.30 446.38,352.83 447.68,352.37 449.31,351.90 453.86,350.97 454.18,350.50 454.51,350.50 454.83,350.04 455.81,349.57 456.13,349.10 456.46,348.64 456.78,347.70 458.08,347.24 458.73,346.31 459.06,344.91 460.03,344.91 460.36,344.91 461.01,343.97 462.96,343.51 463.28,342.58 463.61,342.11 464.91,341.64 467.18,341.18 467.51,340.71 468.16,340.24 470.43,339.78 472.06,339.31 473.68,339.31 476.61,339.31 477.91,338.84 478.23,338.38 478.56,338.38 479.21,337.91 479.53,336.98 479.86,336.51 480.83,336.05 481.16,335.58 482.13,335.11 483.76,334.18 484.08,334.18 484.41,333.25 484.73,332.78 485.06,331.38 485.38,330.45 485.71,329.99 486.36,329.52 486.68,327.65 487.01,327.19 487.98,326.72 488.63,325.79 489.28,325.32 490.58,324.86 491.88,324.39 492.21,323.92 492.53,323.46 492.86,322.99 494.48,322.53 495.78,322.06 496.11,321.59 497.41,320.66 497.73,319.73 498.06,319.73 501.31,319.26 501.63,318.80 502.28,318.33 503.91,317.40 504.56,316.93 505.21,316.46 506.51,316.46 507.16,315.53 507.48,315.53 507.81,313.67 508.13,311.34 509.43,310.87 509.76,310.40 510.41,309.94 510.73,309.47 511.71,309.00 512.03,308.54 513.33,308.07 516.26,307.61 517.23,307.14 518.21,306.67 518.53,305.27 518.86,304.81 519.18,304.34 519.51,303.88 520.16,303.41 522.43,303.41 523.73,302.94 524.06,302.48 524.38,302.01 525.36,301.54 526.66,301.54 527.96,301.08 529.58,300.61 529.91,300.15 533.48,299.68 535.11,299.21 535.76,298.28 536.41,297.81 539.01,297.35 539.66,296.88 539.98,296.41 540.96,295.95 541.61,295.48 542.26,295.48 542.91,295.02 543.56,294.55 544.86,294.08 545.18,293.62 545.51,293.15 547.13,293.15 547.78,292.68 548.11,292.22 549.08,291.29 549.73,290.35 550.38,289.89 552.01,288.95 552.33,288.95 552.66,288.49 553.63,288.02 554.28,287.56 554.93,287.09 556.56,286.62 559.48,286.16 559.81,285.69 561.11,285.22 561.43,284.76 562.73,284.29 563.06,283.83 563.38,281.96 564.03,281.49 565.01,281.03 565.33,280.56 565.66,280.10 566.31,279.63 567.61,279.16 568.58,279.16 568.91,278.70 573.13,278.23 573.46,277.76 574.43,276.83 575.08,276.37 577.36,275.90 578.33,275.43 578.66,274.97 578.98,274.50 581.58,273.57 581.91,273.10 582.23,271.24 583.21,270.77 583.53,270.30 584.18,269.84 586.46,269.37 587.11,268.91 587.76,268.91 588.73,268.44 589.06,267.97 590.03,267.51 595.56,267.04 596.86,266.11 597.18,265.64 598.81,265.18 599.46,265.18 599.78,264.24 600.11,264.24 600.43,263.78 601.41,263.31 602.38,262.84 602.71,262.38 604.66,261.91 604.98,261.45 605.63,260.51 606.61,260.05 607.26,259.58 607.58,259.11 608.88,258.65 609.53,258.65 610.18,258.18 611.15,257.72 611.48,257.25 615.70,256.78 616.68,256.78 617.65,256.32 617.98,255.85 619.60,255.38 619.93,254.45 620.25,253.98 620.58,253.05 621.88,252.59 622.85,252.12 625.13,251.19 626.10,250.72 626.43,250.25 627.08,250.25 627.73,248.86 629.68,248.39 630.00,247.92 633.25,247.46 633.58,246.99 634.55,245.59 634.88,245.13 635.85,244.66 636.18,244.66 636.50,244.19 638.13,243.73 638.45,242.79 639.43,241.86 641.05,241.40 642.35,240.93 643.33,240.93 646.90,240.93 647.23,240.93 649.18,240.93 649.83,240.00 650.48,240.00 651.78,240.00 652.10,240.00 654.70,239.53 657.63,239.06 658.28,238.60 658.60,237.67 658.93,237.20 661.85,236.73 663.15,236.73 663.48,236.27 663.80,235.80 664.45,235.80 665.75,235.33 666.08,234.87 666.73,234.40 668.03,233.94 669.65,233.47 669.98,233.47 670.63,233.00 670.95,232.54 671.28,232.54 671.60,232.07 671.93,231.60 672.58,231.14 676.48,230.67 678.75,230.67 681.03,230.67 682.00,230.67 682.33,230.21 682.65,229.74 683.63,229.74 683.95,229.27 686.23,228.81 686.55,228.34 687.85,228.34 688.18,227.87 688.50,227.41 689.80,226.94 690.78,226.94 692.08,226.01 693.05,226.01 693.38,226.01 695.33,225.54 695.98,224.61 696.95,224.14 697.28,223.68 697.93,223.21 699.88,222.28 700.53,222.28 701.18,221.81 701.50,221.35 702.15,220.88 702.48,220.41 703.45,219.95 703.78,219.02 704.43,218.55 705.73,218.08 706.05,217.62 706.70,216.68 707.35,216.22 708.65,215.75 708.98,215.29 710.28,214.82 711.58,214.35 713.20,214.35 714.18,213.89 714.50,213.42 716.13,213.42 716.45,212.95 717.75,212.49 718.73,211.09 719.38,211.09 720.35,210.62 721.65,210.16 721.98,209.69 722.63,209.22 725.23,208.76 727.18,208.29 729.45,207.82 733.03,207.36 733.35,207.36 733.68,206.89 735.63,205.49 736.28,205.03 736.60,204.56 736.93,204.09 737.90,203.63 738.23,203.16 738.88,202.70 741.48,201.76 743.10,201.30 743.75,201.30 745.38,201.30 746.68,200.83 749.60,200.36 750.90,200.36 752.85,199.90 758.70,199.90 760.98,199.90 761.63,199.43 764.55,198.97 765.20,198.50 765.85,198.03 767.80,197.57 768.45,197.10 769.10,196.17 769.43,196.17 769.75,195.70 772.35,195.24 775.28,194.77 776.90,194.30 778.85,193.84 781.78,193.84 784.38,192.44 785.68,191.97 786.33,191.51 787.63,191.04 789.25,190.57 789.90,190.11 790.55,189.64 792.50,189.17 793.80,188.71 794.13,187.78 797.05,187.78 797.37,187.31 797.70,187.31 798.35,186.84 799.32,186.84 800.62,186.38 802.57,185.91 802.90,185.44 803.87,185.44 806.15,185.44 808.42,184.98 810.37,184.51 812.97,184.05 813.62,183.58 813.95,183.11 814.92,183.11 815.25,182.65 815.57,182.18 816.22,181.25 817.52,180.78 819.80,180.32 820.12,179.85 821.10,178.92 823.05,178.45 824.67,177.98 825.00,177.52 826.30,177.05 827.27,176.59 827.60,176.59 828.90,176.12 829.55,176.12 831.17,175.65 831.50,175.19 831.82,173.79 833.77,173.32 834.75,172.86 835.07,172.39 837.02,172.39 838.32,171.92 838.65,170.52 838.97,170.52 841.25,169.12 842.87,168.66 846.77,168.19 847.10,167.73 849.05,167.26 851.97,166.79 855.22,166.33 857.17,165.39 857.50,164.93 857.82,164.46 858.47,164.00 861.07,163.53 863.35,163.06 866.60,162.60 866.92,162.60 869.85,162.13 870.82,161.66 872.12,161.20 882.20,160.73 883.50,159.80 883.82,159.33 887.07,158.87 888.70,157.93 890.97,157.47 891.62,157.47 891.95,157.00 893.90,156.54 895.20,156.07 895.85,155.60 896.17,155.14 896.50,154.67 897.47,154.20 899.10,153.74 899.42,153.74 901.05,153.27 903.32,152.81 905.60,152.34 906.25,151.87 909.82,151.41 910.15,150.94 911.77,150.47 913.40,150.01 916.32,149.54 917.62,149.08 919.90,149.08 920.22,148.61 920.87,148.61 922.50,148.14 922.82,147.68 923.47,147.21 924.45,146.28 924.77,144.88 925.10,143.95 925.42,143.48 926.72,143.01 927.05,143.01 929.00,142.55 929.32,142.08 930.95,141.62 931.27,141.15 931.92,140.68 932.57,140.68 933.55,140.22 936.80,139.75 942.65,139.28 943.95,138.82 945.57,138.35 946.87,137.89 948.17,137.42 949.15,136.95 950.12,136.02 952.40,136.02 954.02,135.55 954.67,135.55 956.95,135.55 957.27,135.55 957.60,135.09 961.17,134.62 963.12,134.16 963.45,134.16 966.37,133.69 971.25,133.22 972.55,133.22 972.87,132.76 973.85,132.29 977.75,131.82 982.30,131.36 982.62,131.36 986.84,130.89 989.44,130.43 1002.12,129.96 1005.04,129.03 1006.02,128.56 1007.64,128.09 1007.97,127.16 1013.82,126.69 1016.42,126.23 1021.62,125.76 1023.24,125.30 1025.52,124.83 1032.10,124.83 1035.02,124.83 1035.34,124.36 1036.00,124.36"/>
<circle cx="90.00" cy="468.00" r="3.8" fill="#ffb50c" stroke="#111827" stroke-width="1"/>
<circle cx="191.92" cy="454.01" r="3.8" fill="#ffb50c" stroke="#111827" stroke-width="1"/>
<circle cx="243.26" cy="441.42" r="3.8" fill="#ffb50c" stroke="#111827" stroke-width="1"/>
<circle cx="280.64" cy="427.44" r="3.8" fill="#ffb50c" stroke="#111827" stroke-width="1"/>
<circle cx="317.36" cy="413.91" r="3.8" fill="#ffb50c" stroke="#111827" stroke-width="1"/>
<circle cx="346.61" cy="401.79" r="3.8" fill="#ffb50c" stroke="#111827" stroke-width="1"/>
<circle cx="390.49" cy="385.47" r="3.8" fill="#ffb50c" stroke="#111827" stroke-width="1"/>
<circle cx="422.33" cy="367.29" r="3.8" fill="#ffb50c" stroke="#111827" stroke-width="1"/>
<circle cx="446.38" cy="352.83" r="3.8" fill="#ffb50c" stroke="#111827" stroke-width="1"/>
<circle cx="478.23" cy="338.38" r="3.8" fill="#ffb50c" stroke="#111827" stroke-width="1"/>
<circle cx="497.41" cy="320.66" r="3.8" fill="#ffb50c" stroke="#111827" stroke-width="1"/>
<circle cx="522.43" cy="303.41" r="3.8" fill="#ffb50c" stroke="#111827" stroke-width="1"/>
<circle cx="550.38" cy="289.89" r="3.8" fill="#ffb50c" stroke="#111827" stroke-width="1"/>
<circle cx="578.66" cy="274.97" r="3.8" fill="#ffb50c" stroke="#111827" stroke-width="1"/>
<circle cx="607.26" cy="259.58" r="3.8" fill="#ffb50c" stroke="#111827" stroke-width="1"/>
<circle cx="636.18" cy="244.66" r="3.8" fill="#ffb50c" stroke="#111827" stroke-width="1"/>
<circle cx="669.65" cy="233.47" r="3.8" fill="#ffb50c" stroke="#111827" stroke-width="1"/>
<circle cx="697.28" cy="223.68" r="3.8" fill="#ffb50c" stroke="#111827" stroke-width="1"/>
<circle cx="721.98" cy="209.69" r="3.8" fill="#ffb50c" stroke="#111827" stroke-width="1"/>
<circle cx="767.80" cy="197.57" r="3.8" fill="#ffb50c" stroke="#111827" stroke-width="1"/>
<circle cx="806.15" cy="185.44" r="3.8" fill="#ffb50c" stroke="#111827" stroke-width="1"/>
<circle cx="838.32" cy="171.92" r="3.8" fill="#ffb50c" stroke="#111827" stroke-width="1"/>
<circle cx="893.90" cy="156.54" r="3.8" fill="#ffb50c" stroke="#111827" stroke-width="1"/>
<circle cx="927.05" cy="143.01" r="3.8" fill="#ffb50c" stroke="#111827" stroke-width="1"/>
<circle cx="973.85" cy="132.29" r="3.8" fill="#ffb50c" stroke="#111827" stroke-width="1"/>
<circle cx="1036.00" cy="124.36" r="3.8" fill="#ffb50c" stroke="#111827" stroke-width="1"/>
<text x="1028.00" y="114.36" text-anchor="end" fill="#ffb50c" font-size="12" font-family="-apple-system,BlinkMacSystemFont,Segoe UI,Helvetica,Arial,sans-serif">737</text>
<rect x="90.00" y="514.00" width="14" height="14" fill="url(#repo-0)" rx="3"/>
<text x="112.00" y="526.00" fill="#3bf2af" font-size="13" font-family="-apple-system,BlinkMacSystemFont,Segoe UI,Helvetica,Arial,sans-serif">bavix/gripmock</text>
<rect x="280.00" y="514.00" width="14" height="14" fill="url(#repo-1)" rx="3"/>
<text x="302.00" y="526.00" fill="#ffb50c" font-size="13" font-family="-apple-system,BlinkMacSystemFont,Segoe UI,Helvetica,Arial,sans-serif">tokopedia/gripmock</text>
<text x="1036.00" y="526.00" text-anchor="end" fill="#9ca3af" font-size="12" font-family="-apple-system,BlinkMacSystemFont,Segoe UI,Helvetica,Arial,sans-serif">Source: https://github.com/bavix/artifact-stats/blob/master/stats/github.csv</text>
</svg>