<svg xmlns="http://www.w3.org/2000/svg" width="1100" height="560" viewBox="0 0 1100 560">
<defs>
<linearGradient id="bg" x1="0" y1="0" x2="1" y2="1"><stop offset="0%" stop-color="#0b1220"/><stop offset="100%" stop-color="#111827"/></linearGradient>
<linearGradient id="repo-0" x1="0" y1="0" x2="0" y2="1"><stop offset="0%" stop-color="#34d399"/><stop offset="100%" stop-color="#059669"/></linearGradient>
<linearGradient id="repo-1" x1="0" y1="0" x2="0" y2="1"><stop offset="0%" stop-color="#f59e0b"/><stop offset="100%" stop-color="#d97706"/></linearGradient>
</defs>
<rect x="0" y="0" width="1100" height="560" fill="url(#bg)" rx="16"/>
<text x="90" y="44" fill="#f9fafb" font-size="28" font-family="-apple-system,BlinkMacSystemFont,Segoe UI,Helvetica,Arial,sans-serif" font-weight="700">GripMock GitHub Metrics - Forks</text>
<text x="90" y="70" fill="#9ca3af" font-size="16" font-family="-apple-system,BlinkMacSystemFont,Segoe UI,Helvetica,Arial,sans-serif">GitHub forks by snapshot date</text>
<line x1="90" y1="90.0" x2="1036" y2="90.0" stroke="#1f2937" stroke-width="1"/>
<text x="80" y="95.0" text-anchor="end" fill="#9ca3af" font-size="12" font-family="-apple-system,BlinkMacSystemFont,Segoe UI,Helvetica,Arial,sans-serif">185</text>
<line x1="90" y1="153.0" x2="1036" y2="153.0" stroke="#1f2937" stroke-width="1"/>
<text x="80" y="158.0" text-anchor="end" fill="#9ca3af" font-size="12" font-family="-apple-system,BlinkMacSystemFont,Segoe UI,Helvetica,Arial,sans-serif">154</text>
<line x1="90" y1="216.0" x2="1036" y2="216.0" stroke="#1f2937" stroke-width="1"/>
<text x="80" y="221.0" text-anchor="end" fill="#9ca3af" font-size="12" font-family="-apple-system,BlinkMacSystemFont,Segoe UI,Helvetica,Arial,sans-serif">123</text>
<line x1="90" y1="279.0" x2="1036" y2="279.0" stroke="#1f2937" stroke-width="1"/>
<text x="80" y="284.0" text-anchor="end" fill="#9ca3af" font-size="12" font-family="-apple-system,BlinkMacSystemFont,Segoe UI,Helvetica,Arial,sans-serif">92</text>
<line x1="90" y1="342.0" x2="1036" y2="342.0" stroke="#1f2937" stroke-width="1"/>
<text x="80" y="347.0" text-anchor="end" fill="#9ca3af" font-size="12" font-family="-apple-system,BlinkMacSystemFont,Segoe UI,Helvetica,Arial,sans-serif">62</text>
<line x1="90" y1="405.0" x2="1036" y2="405.0" stroke="#1f2937" stroke-width="1"/>
<text x="80" y="410.0" text-anchor="end" fill="#9ca3af" font-size="12" font-family="-apple-system,BlinkMacSystemFont,Segoe UI,Helvetica,Arial,sans-serif">31</text>
<line x1="90" y1="468.0" x2="1036" y2="468.0" stroke="#1f2937" stroke-width="1"/>
<text x="80" y="473.0" text-anchor="end" fill="#9ca3af" font-size="12" font-family="-apple-system,BlinkMacSystemFont,Segoe UI,Helvetica,Arial,sans-serif">0</text>
<line x1="90" y1="468" x2="1036" y2="468" stroke="#4b5563" stroke-width="1.4"/>
<line x1="90" y1="90" x2="90" y2="468" stroke="#4b5563" stroke-width="1.4"/>
<line x1="90.0" y1="468" x2="90.0" y2="474" stroke="#6b7280" stroke-width="1"/>
<text x="90.0" y="494" text-anchor="start" fill="#9ca3af" font-size="12" font-family="-apple-system,BlinkMacSystemFont,Segoe UI,Helvetica,Arial,sans-serif">2018-04-24</text>
<line x1="279.2" y1="468" x2="279.2" y2="474" stroke="#6b7280" stroke-width="1"/>
<text x="279.2" y="494" text-anchor="middle" fill="#9ca3af" font-size="12" font-family="-apple-system,BlinkMacSystemFont,Segoe UI,Helvetica,Arial,sans-serif">2019-11-26</text>
<line x1="468.4" y1="468" x2="468.4" y2="474" stroke="#6b7280" stroke-width="1"/>
<text x="468.4" y="494" text-anchor="middle" fill="#9ca3af" font-size="12" font-family="-apple-system,BlinkMacSystemFont,Segoe UI,Helvetica,Arial,sans-serif">2021-06-30</text>
<line x1="657.6" y1="468" x2="657.6" y2="474" stroke="#6b7280" stroke-width="1"/>
<text x="657.6" y="494" text-anchor="middle" fill="#9ca3af" font-size="12" font-family="-apple-system,BlinkMacSystemFont,Segoe UI,Helvetica,Arial,sans-serif">2023-02-02</text>
<line x1="846.8" y1="468" x2="846.8" y2="474" stroke="#6b7280" stroke-width="1"/>
<text x="846.8" y="494" text-anchor="middle" fill="#9ca3af" font-size="12" font-family="-apple-system,BlinkMacSystemFont,Segoe UI,Helvetica,Arial,sans-serif">2024-09-05</text>
<line x1="1036.0" y1="468" x2="1036.0" y2="474" stroke="#6b7280" stroke-width="1"/>
<text x="1036.0" y="494" text-anchor="end" fill="#9ca3af" font-size="12" font-family="-apple-system,BlinkMacSystemFont,Segoe UI,Helvetica,Arial,sans-serif">2026-04-10</text>
<polyline fill="none" stroke="url(#repo-0)" stroke-width="4" stroke-linecap="round" stroke-linejoin="round" points="721.14,468.00 727.84,468.00 740.85,468.00 754.51,468.00 756.47,468.00 759.72,468.00 771.43,468.00 773.71,468.00 779.24,468.00 779.57,468.00 784.44,468.00 792.25,468.00 804.62,468.00 807.87,468.00 812.10,468.00 815.68,468.00 830.64,468.00 835.20,468.00 835.85,468.00 837.15,468.00 843.33,468.00 856.99,468.00 859.92,468.00 866.75,468.00 872.28,468.00 872.93,468.00 873.59,468.00 893.76,468.00 896.36,468.00 897.01,468.00 903.19,468.00 903.84,468.00 907.74,465.95 909.05,465.95 909.37,465.95 909.70,465.95 912.62,463.91 914.25,463.91 915.88,463.91 921.08,461.86 925.64,459.82 927.26,459.82 927.91,457.77 934.75,457.77 938.65,457.77 950.36,457.77 952.64,457.77 953.29,455.73 955.24,455.73 957.19,455.73 960.12,453.68 965.33,453.68 972.16,453.68 976.39,453.68 987.78,453.68 990.05,453.68 994.93,453.68 995.26,453.68 996.23,453.68 998.84,453.68 999.16,451.64 1007.95,451.64 1014.78,451.64 1015.43,451.64 1017.71,451.64 1024.21,451.64 1026.49,451.64 1028.12,451.64 1029.74,451.64 1033.08,451.64 1034.04,451.64 1034.37,451.64 1035.02,451.64 1035.35,451.64 1035.67,451.64 1036.00,451.64"/>
<circle cx="721.14" cy="468.00" r="3.8" fill="#3bf2af" stroke="#111827" stroke-width="1"/>
<circle cx="754.51" cy="468.00" r="3.8" fill="#3bf2af" stroke="#111827" stroke-width="1"/>
<circle cx="771.43" cy="468.00" r="3.8" fill="#3bf2af" stroke="#111827" stroke-width="1"/>
<circle cx="779.57" cy="468.00" r="3.8" fill="#3bf2af" stroke="#111827" stroke-width="1"/>
<circle cx="804.62" cy="468.00" r="3.8" fill="#3bf2af" stroke="#111827" stroke-width="1"/>
<circle cx="815.68" cy="468.00" r="3.8" fill="#3bf2af" stroke="#111827" stroke-width="1"/>
<circle cx="835.85" cy="468.00" r="3.8" fill="#3bf2af" stroke="#111827" stroke-width="1"/>
<circle cx="856.99" cy="468.00" r="3.8" fill="#3bf2af" stroke="#111827" stroke-width="1"/>
<circle cx="872.28" cy="468.00" r="3.8" fill="#3bf2af" stroke="#111827" stroke-width="1"/>
<circle cx="893.76" cy="468.00" r="3.8" fill="#3bf2af" stroke="#111827" stroke-width="1"/>
<circle cx="903.19" cy="468.00" r="3.8" fill="#3bf2af" stroke="#111827" stroke-width="1"/>
<circle cx="909.05" cy="465.95" r="3.8" fill="#3bf2af" stroke="#111827" stroke-width="1"/>
<circle cx="912.62" cy="463.91" r="3.8" fill="#3bf2af" stroke="#111827" stroke-width="1"/>
<circle cx="921.08" cy="461.86" r="3.8" fill="#3bf2af" stroke="#111827" stroke-width="1"/>
<circle cx="927.91" cy="457.77" r="3.8" fill="#3bf2af" stroke="#111827" stroke-width="1"/>
<circle cx="950.36" cy="457.77" r="3.8" fill="#3bf2af" stroke="#111827" stroke-width="1"/>
<circle cx="955.24" cy="455.73" r="3.8" fill="#3bf2af" stroke="#111827" stroke-width="1"/>
<circle cx="965.33" cy="453.68" r="3.8" fill="#3bf2af" stroke="#111827" stroke-width="1"/>
<circle cx="987.78" cy="453.68" r="3.8" fill="#3bf2af" stroke="#111827" stroke-width="1"/>
<circle cx="995.26" cy="453.68" r="3.8" fill="#3bf2af" stroke="#111827" stroke-width="1"/>
<circle cx="999.16" cy="451.64" r="3.8" fill="#3bf2af" stroke="#111827" stroke-width="1"/>
<circle cx="1015.43" cy="451.64" r="3.8" fill="#3bf2af" stroke="#111827" stroke-width="1"/>
<circle cx="1026.49" cy="451.64" r="3.8" fill="#3bf2af" stroke="#111827" stroke-width="1"/>
<circle cx="1033.08" cy="451.64" r="3.8" fill="#3bf2af" stroke="#111827" stroke-width="1"/>
<circle cx="1035.02" cy="451.64" r="3.8" fill="#3bf2af" stroke="#111827" stroke-width="1"/>
<circle cx="1036.00" cy="451.64" r="3.8" fill="#3bf2af" stroke="#111827" stroke-width="1"/>
<text x="1028.0" y="441.6" text-anchor="end" fill="#3bf2af" font-size="12" font-family="-apple-system,BlinkMacSystemFont,Segoe UI,Helvetica,Arial,sans-serif">8</text>
<polyline fill="none" stroke="url(#repo-1)" stroke-width="4" stroke-linecap="round" stroke-linejoin="round" points="90.00,468.00 91.82,468.00 92.47,468.00 96.05,468.00 99.63,468.00 136.72,468.00 137.69,465.95 143.55,463.91 149.40,463.91 153.96,461.86 157.54,461.86 158.19,461.86 158.51,461.86 158.84,461.86 160.46,461.86 161.12,461.86 165.34,459.82 165.67,459.82 169.57,459.82 170.55,459.82 170.88,459.82 172.50,459.82 174.13,459.82 176.08,459.82 177.06,459.82 182.26,459.82 184.86,459.82 186.49,459.82 186.82,459.82 192.02,459.82 192.35,459.82 193.00,457.77 196.25,457.77 196.90,457.77 197.23,455.73 197.55,453.68 203.41,453.68 205.03,451.64 211.22,451.64 212.52,451.64 213.17,449.59 215.77,447.55 218.70,447.55 222.60,445.50 222.93,445.50 225.21,445.50 227.48,445.50 230.74,445.50 231.71,445.50 233.99,445.50 236.27,445.50 238.22,445.50 238.54,445.50 238.87,445.50 241.47,445.50 242.12,445.50 242.77,445.50 243.10,443.45 243.42,441.41 243.75,441.41 246.35,441.41 247.00,441.41 249.60,439.36 255.14,439.36 255.79,437.32 256.11,437.32 256.44,437.32 257.09,433.23 258.39,433.23 258.71,433.23 260.67,433.23 260.99,433.23 263.27,433.23 264.24,433.23 264.90,433.23 265.87,431.18 267.50,431.18 267.82,429.14 268.80,429.14 271.73,429.14 275.31,429.14 276.28,429.14 277.26,429.14 277.58,429.14 278.88,429.14 279.21,429.14 279.86,429.14 280.84,429.14 282.46,429.14 283.11,429.14 283.44,429.14 283.76,429.14 285.39,429.14 286.37,429.14 287.02,429.14 288.32,427.09 288.64,425.05 290.27,425.05 293.85,425.05 295.80,425.05 297.43,423.00 297.75,423.00 300.03,423.00 301.66,423.00 301.98,420.95 303.93,420.95 304.26,420.95 304.91,418.91 305.89,416.86 306.21,416.86 306.54,416.86 306.86,416.86 311.42,414.82 315.32,414.82 315.65,414.82 316.30,414.82 317.60,414.82 317.92,414.82 319.55,412.77 320.20,410.73 320.53,410.73 320.85,410.73 321.18,410.73 322.80,410.73 326.06,408.68 327.36,408.68 327.68,406.64 328.33,406.64 328.66,404.59 329.31,402.55 329.96,402.55 330.61,400.50 331.91,398.45 332.56,398.45 334.52,398.45 334.84,398.45 336.14,398.45 338.09,398.45 339.40,398.45 340.70,396.41 341.02,396.41 341.67,396.41 342.65,396.41 343.62,396.41 345.25,396.41 346.88,396.41 348.50,396.41 351.43,394.36 354.04,394.36 354.36,394.36 354.69,394.36 359.57,394.36 360.54,394.36 361.52,394.36 361.84,394.36 362.82,394.36 365.10,394.36 365.42,394.36 367.05,394.36 369.00,392.32 372.25,392.32 373.23,392.32 374.21,392.32 375.51,392.32 376.16,392.32 376.48,392.32 377.13,390.27 378.76,390.27 380.06,390.27 384.29,388.23 385.92,388.23 386.89,388.23 389.82,386.18 390.47,384.14 390.80,384.14 391.12,384.14 392.75,384.14 393.73,384.14 395.03,384.14 395.35,384.14 396.00,384.14 398.28,384.14 398.61,384.14 399.26,384.14 401.53,384.14 402.18,384.14 403.49,384.14 404.46,382.09 404.79,382.09 405.11,382.09 409.02,382.09 409.67,382.09 410.97,382.09 411.29,382.09 412.59,382.09 413.90,382.09 414.22,382.09 414.55,382.09 416.17,382.09 416.82,382.09 418.45,380.05 419.75,378.00 420.73,378.00 422.68,378.00 423.98,378.00 425.61,378.00 425.93,378.00 426.58,378.00 427.23,378.00 427.88,378.00 428.21,375.95 429.19,373.91 429.51,373.91 429.84,373.91 430.16,371.86 431.79,371.86 432.44,369.82 433.74,369.82 434.39,369.82 435.37,369.82 436.02,369.82 436.99,369.82 438.30,369.82 439.60,367.77 440.90,365.73 441.22,365.73 442.85,365.73 443.18,365.73 443.83,365.73 444.15,365.73 444.80,365.73 445.13,365.73 446.75,365.73 448.06,365.73 449.68,363.68 454.24,363.68 454.56,363.68 454.89,361.64 455.21,361.64 456.19,357.55 456.51,357.55 456.84,357.55 457.16,357.55 458.47,355.50 459.12,355.50 459.44,355.50 460.42,353.45 460.74,351.41 461.39,351.41 463.35,351.41 463.67,351.41 464.00,351.41 465.30,351.41 467.57,351.41 467.90,351.41 468.55,351.41 470.83,351.41 472.45,351.41 474.08,349.36 477.01,347.32 478.31,347.32 478.64,347.32 478.96,345.27 479.61,345.27 479.94,343.23 480.26,343.23 481.24,343.23 481.56,343.23 482.54,343.23 484.17,343.23 484.49,339.14 484.82,339.14 485.14,339.14 485.47,339.14 485.79,339.14 486.12,339.14 486.77,339.14 487.09,339.14 487.42,335.05 488.40,335.05 489.05,335.05 489.70,335.05 491.00,335.05 492.30,335.05 492.63,335.05 492.95,333.00 493.28,330.95 494.90,330.95 496.20,330.95 496.53,330.95 497.83,330.95 498.16,330.95 498.48,328.91 501.73,328.91 502.06,328.91 502.71,328.91 504.34,328.91 504.99,328.91 505.64,328.91 506.94,326.86 507.59,326.86 507.92,324.82 508.24,324.82 508.57,322.77 509.87,322.77 510.19,322.77 510.84,322.77 511.17,322.77 512.14,322.77 512.47,322.77 513.77,322.77 516.70,322.77 517.68,322.77 518.65,322.77 518.98,320.73 519.30,320.73 519.63,318.68 519.95,318.68 520.60,318.68 522.88,316.64 524.18,316.64 524.51,316.64 524.83,316.64 525.81,316.64 527.11,314.59 528.41,314.59 530.04,314.59 530.36,314.59 533.94,314.59 535.57,314.59 536.22,314.59 536.87,314.59 539.47,314.59 540.12,314.59 540.45,314.59 541.42,314.59 542.08,314.59 542.73,312.55 543.38,312.55 544.03,312.55 545.33,312.55 545.65,312.55 545.98,312.55 547.61,310.50 548.26,310.50 548.58,310.50 549.56,310.50 550.21,310.50 550.86,310.50 552.49,310.50 552.81,308.45 553.14,308.45 554.11,308.45 554.76,306.41 555.41,306.41 557.04,306.41 559.97,306.41 560.29,306.41 561.59,306.41 561.92,306.41 563.22,306.41 563.55,306.41 563.87,304.36 564.52,304.36 565.50,304.36 565.82,304.36 566.15,304.36 566.80,304.36 568.10,304.36 569.08,302.32 569.40,302.32 573.63,302.32 573.96,302.32 574.93,302.32 575.58,302.32 577.86,302.32 578.84,300.27 579.16,300.27 579.49,300.27 582.09,300.27 582.42,300.27 582.74,300.27 583.72,300.27 584.04,300.27 584.69,300.27 586.97,300.27 587.62,300.27 588.27,296.18 589.25,296.18 589.57,296.18 590.55,296.18 596.08,296.18 597.38,296.18 597.71,296.18 599.33,296.18 599.98,294.14 600.31,294.14 600.63,292.09 600.96,292.09 601.94,290.05 602.91,290.05 603.24,290.05 605.19,290.05 605.51,290.05 606.16,290.05 607.14,290.05 607.79,290.05 608.12,290.05 609.42,290.05 610.07,288.00 610.72,288.00 611.70,288.00 612.02,288.00 616.25,288.00 617.23,285.95 618.20,285.95 618.53,285.95 620.15,285.95 620.48,285.95 620.80,285.95 621.13,285.95 622.43,285.95 623.41,285.95 625.68,285.95 626.66,285.95 626.99,285.95 627.64,283.91 628.29,283.91 630.24,283.91 630.56,283.91 633.82,283.91 634.14,283.91 635.12,283.91 635.44,283.91 636.42,283.91 636.75,279.82 637.07,279.82 638.70,279.82 639.02,279.82 640.00,279.82 641.63,279.82 642.93,279.82 643.90,277.77 647.48,275.73 647.81,273.68 649.76,271.64 650.41,271.64 651.06,269.59 652.36,267.55 652.69,265.50 655.29,265.50 658.22,265.50 658.87,265.50 659.19,263.45 659.52,263.45 662.45,261.41 663.75,259.36 664.07,259.36 664.40,259.36 665.05,257.32 666.35,257.32 666.68,257.32 667.33,257.32 668.63,257.32 670.25,257.32 670.58,255.27 671.23,255.27 671.56,255.27 671.88,253.23 672.21,253.23 672.53,253.23 673.18,253.23 677.09,253.23 679.36,251.18 681.64,249.14 682.62,247.09 682.94,245.05 683.27,245.05 684.24,243.00 684.57,243.00 686.85,240.95 687.17,240.95 688.47,238.91 688.80,238.91 689.12,238.91 690.43,238.91 691.40,236.86 692.70,236.86 693.68,234.82 694.00,232.77 695.96,232.77 696.61,232.77 697.58,232.77 697.91,232.77 698.56,232.77 700.51,230.73 701.16,228.68 701.81,228.68 702.14,228.68 702.79,228.68 703.11,228.68 704.09,228.68 704.41,228.68 705.06,228.68 706.37,228.68 706.69,228.68 707.34,228.68 707.99,228.68 709.29,228.68 709.62,226.64 710.92,226.64 712.22,226.64 713.85,224.59 714.82,224.59 715.15,224.59 716.78,222.55 717.10,222.55 718.40,222.55 719.38,222.55 720.03,220.50 721.01,220.50 722.31,220.50 722.63,220.50 723.28,220.50 725.89,220.50 727.84,218.45 730.12,218.45 733.69,218.45 734.02,216.41 734.34,216.41 736.30,216.41 736.95,216.41 737.27,216.41 737.60,214.36 738.57,214.36 738.90,212.32 739.55,212.32 742.15,212.32 743.78,212.32 744.43,210.27 746.06,208.23 747.36,208.23 750.29,206.18 751.59,204.14 753.54,204.14 759.39,202.09 761.67,200.05 762.32,200.05 765.25,200.05 765.90,200.05 766.55,200.05 768.50,200.05 769.15,200.05 769.81,200.05 770.13,198.00 770.46,198.00 773.06,198.00 775.99,198.00 777.61,198.00 779.57,198.00 782.49,195.95 785.10,195.95 786.40,195.95 787.05,195.95 788.35,195.95 789.98,195.95 790.63,195.95 791.28,195.95 793.23,195.95 794.53,195.95 794.86,195.95 797.78,193.91 798.11,193.91 798.43,191.86 799.08,191.86 800.06,189.82 801.36,189.82 803.31,189.82 803.64,189.82 804.62,187.77 806.89,185.73 809.17,185.73 811.12,185.73 813.72,185.73 814.38,185.73 814.70,185.73 815.68,183.68 816.00,183.68 816.33,183.68 816.98,183.68 818.28,181.64 820.56,181.64 820.88,179.59 821.86,179.59 823.81,179.59 825.44,179.59 825.76,179.59 827.06,179.59 828.04,179.59 828.36,177.55 829.67,177.55 830.32,175.50 831.94,175.50 832.27,173.45 832.59,173.45 834.55,173.45 835.52,173.45 835.85,173.45 837.80,171.41 839.10,171.41 839.43,171.41 839.75,169.36 842.03,169.36 843.65,169.36 847.56,169.36 847.88,169.36 849.84,169.36 852.76,169.36 856.02,169.36 857.97,169.36 858.29,169.36 858.62,169.36 859.27,169.36 861.87,169.36 864.15,169.36 867.40,169.36 867.73,167.32 870.66,167.32 871.63,167.32 872.93,167.32 883.02,167.32 884.32,167.32 884.65,167.32 887.90,167.32 889.53,167.32 891.80,167.32 892.45,165.27 892.78,165.27 894.73,165.27 896.03,165.27 896.68,165.27 897.01,165.27 897.33,165.27 898.31,165.27 899.94,165.27 900.26,163.23 901.89,163.23 904.17,163.23 906.44,163.23 907.09,163.23 910.67,163.23 911.00,163.23 912.62,163.23 914.25,163.23 917.18,163.23 918.48,163.23 920.76,159.14 921.08,159.14 921.73,157.09 923.36,157.09 923.69,157.09 924.34,157.09 925.31,157.09 925.64,157.09 925.96,157.09 926.29,157.09 927.59,157.09 927.91,155.05 929.87,155.05 930.19,155.05 931.82,155.05 932.14,155.05 932.79,155.05 933.45,153.00 934.42,153.00 937.67,153.00 943.53,153.00 944.83,153.00 946.46,150.95 947.76,150.95 949.06,150.95 950.04,150.95 951.01,150.95 953.29,148.91 954.92,148.91 955.57,146.86 957.85,144.82 958.17,142.77 958.50,142.77 962.07,142.77 964.03,142.77 964.35,140.73 967.28,140.73 972.16,140.73 973.46,138.68 973.79,138.68 974.76,138.68 978.67,138.68 983.22,138.68 983.55,136.64 987.78,136.64 990.38,136.64 1003.07,136.64 1005.99,136.64 1006.97,136.64 1008.60,136.64 1008.92,136.64 1014.78,136.64 1017.38,136.64 1022.59,136.64 1024.21,136.64 1026.49,136.64 1033.08,124.36 1036.00,124.36"/>
<circle cx="90.00" cy="468.00" r="3.8" fill="#ffb50c" stroke="#111827" stroke-width="1"/>
<circle cx="192.02" cy="459.82" r="3.8" fill="#ffb50c" stroke="#111827" stroke-width="1"/>
<circle cx="243.42" cy="441.41" r="3.8" fill="#ffb50c" stroke="#111827" stroke-width="1"/>
<circle cx="280.84" cy="429.14" r="3.8" fill="#ffb50c" stroke="#111827" stroke-width="1"/>
<circle cx="317.60" cy="414.82" r="3.8" fill="#ffb50c" stroke="#111827" stroke-width="1"/>
<circle cx="346.88" cy="396.41" r="3.8" fill="#ffb50c" stroke="#111827" stroke-width="1"/>
<circle cx="390.80" cy="384.14" r="3.8" fill="#ffb50c" stroke="#111827" stroke-width="1"/>
<circle cx="422.68" cy="378.00" r="3.8" fill="#ffb50c" stroke="#111827" stroke-width="1"/>
<circle cx="446.75" cy="365.73" r="3.8" fill="#ffb50c" stroke="#111827" stroke-width="1"/>
<circle cx="478.64" cy="347.32" r="3.8" fill="#ffb50c" stroke="#111827" stroke-width="1"/>
<circle cx="497.83" cy="330.95" r="3.8" fill="#ffb50c" stroke="#111827" stroke-width="1"/>
<circle cx="522.88" cy="316.64" r="3.8" fill="#ffb50c" stroke="#111827" stroke-width="1"/>
<circle cx="550.86" cy="310.50" r="3.8" fill="#ffb50c" stroke="#111827" stroke-width="1"/>
<circle cx="579.16" cy="300.27" r="3.8" fill="#ffb50c" stroke="#111827" stroke-width="1"/>
<circle cx="607.79" cy="290.05" r="3.8" fill="#ffb50c" stroke="#111827" stroke-width="1"/>
<circle cx="636.75" cy="279.82" r="3.8" fill="#ffb50c" stroke="#111827" stroke-width="1"/>
<circle cx="670.25" cy="257.32" r="3.8" fill="#ffb50c" stroke="#111827" stroke-width="1"/>
<circle cx="697.91" cy="232.77" r="3.8" fill="#ffb50c" stroke="#111827" stroke-width="1"/>
<circle cx="722.63" cy="220.50" r="3.8" fill="#ffb50c" stroke="#111827" stroke-width="1"/>
<circle cx="768.50" cy="200.05" r="3.8" fill="#ffb50c" stroke="#111827" stroke-width="1"/>
<circle cx="806.89" cy="185.73" r="3.8" fill="#ffb50c" stroke="#111827" stroke-width="1"/>
<circle cx="839.10" cy="171.41" r="3.8" fill="#ffb50c" stroke="#111827" stroke-width="1"/>
<circle cx="894.73" cy="165.27" r="3.8" fill="#ffb50c" stroke="#111827" stroke-width="1"/>
<circle cx="927.91" cy="155.05" r="3.8" fill="#ffb50c" stroke="#111827" stroke-width="1"/>
<circle cx="974.76" cy="138.68" r="3.8" fill="#ffb50c" stroke="#111827" stroke-width="1"/>
<circle cx="1036.00" cy="124.36" r="3.8" fill="#ffb50c" stroke="#111827" stroke-width="1"/>
<text x="1028.0" y="114.4" text-anchor="end" fill="#ffb50c" font-size="12" font-family="-apple-system,BlinkMacSystemFont,Segoe UI,Helvetica,Arial,sans-serif">168</text>
<rect x="90" y="514" width="14" height="14" fill="url(#repo-0)" rx="3"/>
<text x="112" y="526" fill="#3bf2af" font-size="13" font-family="-apple-system,BlinkMacSystemFont,Segoe UI,Helvetica,Arial,sans-serif">bavix/gripmock</text>
<rect x="280" y="514" width="14" height="14" fill="url(#repo-1)" rx="3"/>
<text x="302" y="526" fill="#ffb50c" font-size="13" font-family="-apple-system,BlinkMacSystemFont,Segoe UI,Helvetica,Arial,sans-serif">tokopedia/gripmock</text>
<text x="1036" y="526" text-anchor="end" fill="#9ca3af" font-size="12" font-family="-apple-system,BlinkMacSystemFont,Segoe UI,Helvetica,Arial,sans-serif">Source: https://github.com/bavix/artifact-stats/blob/master/stats/github.csv</text>
</svg>