<svg xmlns="http://www.w3.org/2000/svg" width="1100" height="560" viewBox="0 0 1100 560">
<defs>
<linearGradient id="bg" x1="0" y1="0" x2="1" y2="1"><stop offset="0%" stop-color="#0b1220"/><stop offset="100%" stop-color="#111827"/></linearGradient>
<linearGradient id="repo-0" x1="0" y1="0" x2="0" y2="1"><stop offset="0%" stop-color="#34d399"/><stop offset="100%" stop-color="#059669"/></linearGradient>
<linearGradient id="repo-1" x1="0" y1="0" x2="0" y2="1"><stop offset="0%" stop-color="#f59e0b"/><stop offset="100%" stop-color="#d97706"/></linearGradient>
</defs>
<rect x="0" y="0" width="1100" height="560" fill="url(#bg)" rx="16"/>
<text x="90" y="44" fill="#f9fafb" font-size="28" font-family="-apple-system,BlinkMacSystemFont,Segoe UI,Helvetica,Arial,sans-serif" font-weight="700">GripMock GitHub Metrics - Stars</text>
<text x="90" y="70" fill="#9ca3af" font-size="16" font-family="-apple-system,BlinkMacSystemFont,Segoe UI,Helvetica,Arial,sans-serif">GitHub stars by snapshot date</text>
<line x1="90" y1="90.0" x2="1036" y2="90.0" stroke="#1f2937" stroke-width="1"/>
<text x="80" y="95.0" text-anchor="end" fill="#9ca3af" font-size="12" font-family="-apple-system,BlinkMacSystemFont,Segoe UI,Helvetica,Arial,sans-serif">811</text>
<line x1="90" y1="153.0" x2="1036" y2="153.0" stroke="#1f2937" stroke-width="1"/>
<text x="80" y="158.0" text-anchor="end" fill="#9ca3af" font-size="12" font-family="-apple-system,BlinkMacSystemFont,Segoe UI,Helvetica,Arial,sans-serif">676</text>
<line x1="90" y1="216.0" x2="1036" y2="216.0" stroke="#1f2937" stroke-width="1"/>
<text x="80" y="221.0" text-anchor="end" fill="#9ca3af" font-size="12" font-family="-apple-system,BlinkMacSystemFont,Segoe UI,Helvetica,Arial,sans-serif">540</text>
<line x1="90" y1="279.0" x2="1036" y2="279.0" stroke="#1f2937" stroke-width="1"/>
<text x="80" y="284.0" text-anchor="end" fill="#9ca3af" font-size="12" font-family="-apple-system,BlinkMacSystemFont,Segoe UI,Helvetica,Arial,sans-serif">405</text>
<line x1="90" y1="342.0" x2="1036" y2="342.0" stroke="#1f2937" stroke-width="1"/>
<text x="80" y="347.0" text-anchor="end" fill="#9ca3af" font-size="12" font-family="-apple-system,BlinkMacSystemFont,Segoe UI,Helvetica,Arial,sans-serif">270</text>
<line x1="90" y1="405.0" x2="1036" y2="405.0" stroke="#1f2937" stroke-width="1"/>
<text x="80" y="410.0" text-anchor="end" fill="#9ca3af" font-size="12" font-family="-apple-system,BlinkMacSystemFont,Segoe UI,Helvetica,Arial,sans-serif">135</text>
<line x1="90" y1="468.0" x2="1036" y2="468.0" stroke="#1f2937" stroke-width="1"/>
<text x="80" y="473.0" text-anchor="end" fill="#9ca3af" font-size="12" font-family="-apple-system,BlinkMacSystemFont,Segoe UI,Helvetica,Arial,sans-serif">0</text>
<line x1="90" y1="468" x2="1036" y2="468" stroke="#4b5563" stroke-width="1.4"/>
<line x1="90" y1="90" x2="90" y2="468" stroke="#4b5563" stroke-width="1.4"/>
<line x1="90.0" y1="468" x2="90.0" y2="474" stroke="#6b7280" stroke-width="1"/>
<text x="90.0" y="494" text-anchor="start" fill="#9ca3af" font-size="12" font-family="-apple-system,BlinkMacSystemFont,Segoe UI,Helvetica,Arial,sans-serif">2018-04-24</text>
<line x1="279.2" y1="468" x2="279.2" y2="474" stroke="#6b7280" stroke-width="1"/>
<text x="279.2" y="494" text-anchor="middle" fill="#9ca3af" font-size="12" font-family="-apple-system,BlinkMacSystemFont,Segoe UI,Helvetica,Arial,sans-serif">2019-11-27</text>
<line x1="468.4" y1="468" x2="468.4" y2="474" stroke="#6b7280" stroke-width="1"/>
<text x="468.4" y="494" text-anchor="middle" fill="#9ca3af" font-size="12" font-family="-apple-system,BlinkMacSystemFont,Segoe UI,Helvetica,Arial,sans-serif">2021-06-30</text>
<line x1="657.6" y1="468" x2="657.6" y2="474" stroke="#6b7280" stroke-width="1"/>
<text x="657.6" y="494" text-anchor="middle" fill="#9ca3af" font-size="12" font-family="-apple-system,BlinkMacSystemFont,Segoe UI,Helvetica,Arial,sans-serif">2023-02-02</text>
<line x1="846.8" y1="468" x2="846.8" y2="474" stroke="#6b7280" stroke-width="1"/>
<text x="846.8" y="494" text-anchor="middle" fill="#9ca3af" font-size="12" font-family="-apple-system,BlinkMacSystemFont,Segoe UI,Helvetica,Arial,sans-serif">2024-09-06</text>
<line x1="1036.0" y1="468" x2="1036.0" y2="474" stroke="#6b7280" stroke-width="1"/>
<text x="1036.0" y="494" text-anchor="end" fill="#9ca3af" font-size="12" font-family="-apple-system,BlinkMacSystemFont,Segoe UI,Helvetica,Arial,sans-serif">2026-04-11</text>
<polyline fill="none" stroke="url(#repo-0)" stroke-width="4" stroke-linecap="round" stroke-linejoin="round" points="720.92,468.00 727.62,467.53 740.63,467.07 754.29,466.60 756.24,466.13 759.49,465.67 771.20,465.20 773.48,464.74 779.01,464.27 779.33,463.80 784.21,463.34 792.02,462.87 804.37,462.40 807.63,461.94 811.85,461.47 815.43,461.01 830.39,460.54 834.94,460.07 835.60,459.61 836.90,459.14 843.08,458.67 856.73,458.21 859.66,457.74 866.49,457.28 872.02,456.81 872.67,456.34 873.32,455.88 893.48,455.41 896.09,454.94 896.74,454.48 902.92,454.01 903.57,453.55 907.47,453.55 908.77,453.08 909.09,452.61 909.42,452.15 912.35,451.68 913.97,451.21 915.60,450.75 920.80,450.75 925.36,450.75 926.98,450.28 927.63,450.28 934.46,449.82 938.36,449.35 950.07,448.88 952.35,448.42 953.00,448.42 954.95,447.95 956.90,447.48 959.83,447.48 965.03,447.02 971.86,446.55 976.09,446.09 987.47,445.62 989.75,445.15 994.63,444.69 994.95,444.22 995.93,443.75 998.53,443.29 998.85,443.29 1007.64,442.82 1014.47,442.36 1015.12,441.89 1017.39,441.42 1023.90,440.96 1026.17,440.49 1027.80,440.02 1029.43,439.56 1032.76,439.56 1033.72,439.56 1034.05,439.09 1034.70,439.09 1035.03,438.63 1035.35,439.09 1036.00,439.09"/>
<circle cx="720.92" cy="468.00" r="3.8" fill="#3bf2af" stroke="#111827" stroke-width="1"/>
<circle cx="754.29" cy="466.60" r="3.8" fill="#3bf2af" stroke="#111827" stroke-width="1"/>
<circle cx="771.20" cy="465.20" r="3.8" fill="#3bf2af" stroke="#111827" stroke-width="1"/>
<circle cx="779.33" cy="463.80" r="3.8" fill="#3bf2af" stroke="#111827" stroke-width="1"/>
<circle cx="804.37" cy="462.40" r="3.8" fill="#3bf2af" stroke="#111827" stroke-width="1"/>
<circle cx="815.43" cy="461.01" r="3.8" fill="#3bf2af" stroke="#111827" stroke-width="1"/>
<circle cx="835.60" cy="459.61" r="3.8" fill="#3bf2af" stroke="#111827" stroke-width="1"/>
<circle cx="856.73" cy="458.21" r="3.8" fill="#3bf2af" stroke="#111827" stroke-width="1"/>
<circle cx="872.02" cy="456.81" r="3.8" fill="#3bf2af" stroke="#111827" stroke-width="1"/>
<circle cx="893.48" cy="455.41" r="3.8" fill="#3bf2af" stroke="#111827" stroke-width="1"/>
<circle cx="902.92" cy="454.01" r="3.8" fill="#3bf2af" stroke="#111827" stroke-width="1"/>
<circle cx="908.77" cy="453.08" r="3.8" fill="#3bf2af" stroke="#111827" stroke-width="1"/>
<circle cx="912.35" cy="451.68" r="3.8" fill="#3bf2af" stroke="#111827" stroke-width="1"/>
<circle cx="920.80" cy="450.75" r="3.8" fill="#3bf2af" stroke="#111827" stroke-width="1"/>
<circle cx="927.63" cy="450.28" r="3.8" fill="#3bf2af" stroke="#111827" stroke-width="1"/>
<circle cx="950.07" cy="448.88" r="3.8" fill="#3bf2af" stroke="#111827" stroke-width="1"/>
<circle cx="954.95" cy="447.95" r="3.8" fill="#3bf2af" stroke="#111827" stroke-width="1"/>
<circle cx="965.03" cy="447.02" r="3.8" fill="#3bf2af" stroke="#111827" stroke-width="1"/>
<circle cx="987.47" cy="445.62" r="3.8" fill="#3bf2af" stroke="#111827" stroke-width="1"/>
<circle cx="994.95" cy="444.22" r="3.8" fill="#3bf2af" stroke="#111827" stroke-width="1"/>
<circle cx="998.85" cy="443.29" r="3.8" fill="#3bf2af" stroke="#111827" stroke-width="1"/>
<circle cx="1015.12" cy="441.89" r="3.8" fill="#3bf2af" stroke="#111827" stroke-width="1"/>
<circle cx="1026.17" cy="440.49" r="3.8" fill="#3bf2af" stroke="#111827" stroke-width="1"/>
<circle cx="1032.76" cy="439.56" r="3.8" fill="#3bf2af" stroke="#111827" stroke-width="1"/>
<circle cx="1034.70" cy="439.09" r="3.8" fill="#3bf2af" stroke="#111827" stroke-width="1"/>
<circle cx="1036.00" cy="439.09" r="3.8" fill="#3bf2af" stroke="#111827" stroke-width="1"/>
<text x="1028.0" y="429.1" text-anchor="end" fill="#3bf2af" font-size="12" font-family="-apple-system,BlinkMacSystemFont,Segoe UI,Helvetica,Arial,sans-serif">62</text>
<polyline fill="none" stroke="url(#repo-1)" stroke-width="4" stroke-linecap="round" stroke-linejoin="round" points="90.00,468.00 91.82,466.60 92.47,466.13 96.05,465.67 99.63,465.20 136.70,464.74 137.68,464.27 143.53,464.27 149.38,463.80 153.94,463.80 157.51,463.34 158.16,462.87 158.49,462.40 158.81,461.94 160.44,461.47 161.09,461.01 165.32,460.54 165.64,460.07 169.55,459.61 170.52,459.14 170.85,458.67 172.47,458.21 174.10,457.28 176.05,456.81 177.03,456.34 182.23,455.88 184.83,455.41 186.46,454.94 186.78,454.48 191.99,454.01 192.31,453.55 192.96,453.08 196.22,452.61 196.87,451.68 197.19,451.68 197.52,451.68 203.37,451.21 205.00,451.21 211.18,450.75 212.48,450.28 213.13,450.28 215.73,449.82 218.66,449.35 222.56,449.35 222.88,448.88 225.16,448.42 227.44,447.95 230.69,447.48 231.66,447.02 233.94,446.55 236.22,446.09 238.17,445.62 238.49,445.15 238.82,444.69 241.42,444.22 242.07,443.75 242.72,442.82 243.05,442.36 243.37,441.42 243.70,440.96 246.30,440.49 246.95,439.56 249.55,439.56 255.08,439.09 255.73,439.09 256.06,438.63 256.38,438.16 257.03,438.16 258.33,437.69 258.66,437.23 260.61,436.76 260.93,436.29 263.21,435.83 264.19,434.90 264.84,433.96 265.81,433.96 267.44,433.50 267.76,433.03 268.74,432.56 271.67,432.10 275.24,431.63 276.22,431.17 277.19,430.70 277.52,430.23 278.82,429.77 279.15,429.30 279.80,428.83 280.77,427.44 282.40,426.97 283.05,426.50 283.37,426.04 283.70,424.64 285.33,424.17 286.30,423.70 286.95,423.24 288.25,423.24 288.58,422.77 290.20,422.31 293.78,421.84 295.73,421.37 297.36,421.37 297.68,420.44 299.96,419.97 301.59,419.51 301.91,419.51 303.86,419.04 304.19,418.58 304.84,418.58 305.81,418.58 306.14,418.11 306.46,417.64 306.79,417.18 311.34,415.78 315.25,415.31 315.57,414.85 316.22,414.38 317.52,413.91 317.85,413.45 319.47,413.45 320.12,412.98 320.45,412.51 320.77,412.05 321.10,411.58 322.73,411.12 325.98,410.65 327.28,410.18 327.60,410.18 328.25,409.72 328.58,409.72 329.23,408.32 329.88,407.85 330.53,407.85 331.83,407.39 332.48,406.92 334.43,406.45 334.76,405.99 336.06,405.52 338.01,405.05 339.31,404.59 340.61,404.59 340.94,404.12 341.59,403.66 342.56,403.19 343.54,402.72 345.17,402.26 346.79,401.79 348.42,401.32 351.34,400.86 353.95,400.39 354.27,399.93 354.60,399.46 359.47,398.99 360.45,398.53 361.43,398.06 361.75,397.13 362.73,396.66 365.00,395.73 365.33,394.80 366.95,394.33 368.91,394.33 372.16,393.86 373.13,393.40 374.11,392.93 375.41,392.00 376.06,391.53 376.39,391.07 377.04,390.60 378.66,389.67 379.96,389.20 384.19,388.27 385.82,386.87 386.79,385.94 389.72,385.94 390.37,385.94 390.70,385.47 391.02,384.54 392.65,383.61 393.62,383.14 394.92,382.67 395.25,382.21 395.90,381.74 398.18,381.27 398.50,380.81 399.15,380.34 401.43,379.88 402.08,379.41 403.38,378.94 404.36,378.48 404.68,378.01 405.01,377.54 408.91,377.08 409.56,376.61 410.86,375.68 411.18,375.21 412.49,374.75 413.79,371.48 414.11,370.55 414.44,370.08 416.06,369.62 416.71,369.15 418.34,369.15 419.64,368.69 420.62,368.22 422.57,367.29 423.87,366.82 425.49,366.35 425.82,365.89 426.47,365.42 427.12,364.49 427.77,364.02 428.10,364.02 429.07,364.02 429.40,363.56 429.72,363.09 430.05,362.62 431.67,362.16 432.32,361.23 433.62,360.76 434.28,359.83 435.25,359.36 435.90,358.89 436.88,358.43 438.18,357.96 439.48,357.96 440.78,357.50 441.10,357.03 442.73,356.56 443.06,356.10 443.71,355.63 444.03,355.16 444.68,354.70 445.01,353.30 446.63,352.83 447.93,352.37 449.56,351.90 454.11,350.97 454.44,350.50 454.76,350.50 455.09,350.04 456.06,349.57 456.39,349.10 456.72,348.64 457.04,347.70 458.34,347.24 458.99,346.31 459.32,344.91 460.29,344.91 460.62,344.91 461.27,343.97 463.22,343.51 463.54,342.58 463.87,342.11 465.17,341.64 467.45,341.18 467.77,340.71 468.42,340.24 470.70,339.78 472.33,339.31 473.95,339.31 476.88,339.31 478.18,338.84 478.50,338.38 478.83,338.38 479.48,337.91 479.81,336.98 480.13,336.51 481.11,336.05 481.43,335.58 482.41,335.11 484.03,334.18 484.36,334.18 484.68,333.25 485.01,332.78 485.33,331.38 485.66,330.45 485.98,329.99 486.64,329.52 486.96,327.65 487.29,327.19 488.26,326.72 488.91,325.79 489.56,325.32 490.86,324.86 492.16,324.39 492.49,323.92 492.81,323.46 493.14,322.99 494.77,322.53 496.07,322.06 496.39,321.59 497.69,320.66 498.02,319.73 498.34,319.73 501.60,319.26 501.92,318.80 502.57,318.33 504.20,317.40 504.85,316.93 505.50,316.46 506.80,316.46 507.45,315.53 507.77,315.53 508.10,313.67 508.43,311.34 509.73,310.87 510.05,310.40 510.70,309.94 511.03,309.47 512.00,309.00 512.33,308.54 513.63,308.07 516.56,307.61 517.53,307.14 518.51,306.67 518.83,305.27 519.16,304.81 519.48,304.34 519.81,303.88 520.46,303.41 522.73,303.41 524.04,302.94 524.36,302.48 524.69,302.01 525.66,301.54 526.96,301.54 528.26,301.08 529.89,300.61 530.21,300.15 533.79,299.68 535.42,299.21 536.07,298.28 536.72,297.81 539.32,297.35 539.97,296.88 540.30,296.41 541.27,295.95 541.92,295.48 542.57,295.48 543.22,295.02 543.87,294.55 545.17,294.08 545.50,293.62 545.83,293.15 547.45,293.15 548.10,292.68 548.43,292.22 549.40,291.29 550.05,290.35 550.70,289.89 552.33,288.95 552.65,288.95 552.98,288.49 553.96,288.02 554.61,287.56 555.26,287.09 556.88,286.62 559.81,286.16 560.13,285.69 561.44,285.22 561.76,284.76 563.06,284.29 563.39,283.83 563.71,281.96 564.36,281.49 565.34,281.03 565.66,280.56 565.99,280.10 566.64,279.63 567.94,279.16 568.92,279.16 569.24,278.70 573.47,278.23 573.79,277.76 574.77,276.83 575.42,276.37 577.70,275.90 578.67,275.43 579.00,274.97 579.32,274.50 581.92,273.57 582.25,273.10 582.57,271.24 583.55,270.77 583.88,270.30 584.53,269.84 586.80,269.37 587.45,268.91 588.10,268.91 589.08,268.44 589.40,267.97 590.38,267.51 595.91,267.04 597.21,266.11 597.53,265.64 599.16,265.18 599.81,265.18 600.14,264.24 600.46,264.24 600.79,263.78 601.76,263.31 602.74,262.84 603.06,262.38 605.02,261.91 605.34,261.45 605.99,260.51 606.97,260.05 607.62,259.58 607.94,259.11 609.24,258.65 609.89,258.65 610.54,258.18 611.52,257.72 611.84,257.25 616.07,256.78 617.05,256.78 618.02,256.32 618.35,255.85 619.98,255.38 620.30,254.45 620.63,253.98 620.95,253.05 622.25,252.59 623.23,252.12 625.50,251.19 626.48,250.72 626.80,250.25 627.46,250.25 628.11,248.86 630.06,248.39 630.38,247.92 633.63,247.46 633.96,246.99 634.94,245.59 635.26,245.13 636.24,244.66 636.56,244.66 636.89,244.19 638.51,243.73 638.84,242.79 639.81,241.86 641.44,241.40 642.74,240.93 643.72,240.93 647.29,240.93 647.62,240.93 649.57,240.93 650.22,240.00 650.87,240.00 652.17,240.00 652.50,240.00 655.10,239.53 658.03,239.06 658.68,238.60 659.00,237.67 659.33,237.20 662.25,236.73 663.55,236.73 663.88,236.27 664.20,235.80 664.86,235.80 666.16,235.33 666.48,234.87 667.13,234.40 668.43,233.94 670.06,233.47 670.38,233.47 671.03,233.00 671.36,232.54 671.68,232.54 672.01,232.07 672.34,231.60 672.99,231.14 676.89,230.67 679.16,230.67 681.44,230.67 682.42,230.67 682.74,230.21 683.07,229.74 684.04,229.74 684.37,229.27 686.64,228.81 686.97,228.34 688.27,228.34 688.60,227.87 688.92,227.41 690.22,226.94 691.20,226.94 692.50,226.01 693.47,226.01 693.80,226.01 695.75,225.54 696.40,224.61 697.38,224.14 697.70,223.68 698.35,223.21 700.30,222.28 700.95,222.28 701.60,221.81 701.93,221.35 702.58,220.88 702.91,220.41 703.88,219.95 704.21,219.02 704.86,218.55 706.16,218.08 706.48,217.62 707.13,216.68 707.78,216.22 709.08,215.75 709.41,215.29 710.71,214.82 712.01,214.35 713.64,214.35 714.61,213.89 714.94,213.42 716.57,213.42 716.89,212.95 718.19,212.49 719.17,211.09 719.82,211.09 720.79,210.62 722.09,210.16 722.42,209.69 723.07,209.22 725.67,208.76 727.62,208.29 729.90,207.82 733.48,207.36 733.80,207.36 734.13,206.89 736.08,205.49 736.73,205.03 737.05,204.56 737.38,204.09 738.35,203.63 738.68,203.16 739.33,202.70 741.93,201.76 743.56,201.30 744.21,201.30 745.83,201.30 747.14,200.83 750.06,200.36 751.36,200.36 753.31,199.90 759.17,199.90 761.45,199.90 762.10,199.43 765.02,198.97 765.67,198.50 766.32,198.03 768.27,197.57 768.93,197.10 769.58,196.17 769.90,196.17 770.23,195.70 772.83,195.24 775.75,194.77 777.38,194.30 779.33,193.84 782.26,193.84 784.86,192.44 786.16,191.97 786.81,191.51 788.11,191.04 789.74,190.57 790.39,190.11 791.04,189.64 792.99,189.17 794.29,188.71 794.62,187.78 797.54,187.78 797.87,187.31 798.19,187.31 798.85,186.84 799.82,186.84 801.12,186.38 803.07,185.91 803.40,185.44 804.37,185.44 806.65,185.44 808.93,184.98 810.88,184.51 813.48,184.05 814.13,183.58 814.46,183.11 815.43,183.11 815.76,182.65 816.08,182.18 816.73,181.25 818.03,180.78 820.31,180.32 820.64,179.85 821.61,178.92 823.56,178.45 825.19,177.98 825.51,177.52 826.81,177.05 827.79,176.59 828.12,176.59 829.42,176.12 830.07,176.12 831.69,175.65 832.02,175.19 832.34,173.79 834.29,173.32 835.27,172.86 835.60,172.39 837.55,172.39 838.85,171.92 839.17,170.52 839.50,170.52 841.77,169.12 843.40,168.66 847.30,168.19 847.63,167.73 849.58,167.26 852.51,166.79 855.76,166.33 857.71,165.39 858.04,164.93 858.36,164.46 859.01,164.00 861.61,163.53 863.89,163.06 867.14,162.60 867.47,162.60 870.39,162.13 871.37,161.66 872.67,161.20 882.75,160.73 884.05,159.80 884.38,159.33 887.63,158.87 889.26,157.93 891.53,157.47 892.18,157.47 892.51,157.00 894.46,156.54 895.76,156.07 896.41,155.60 896.74,155.14 897.06,154.67 898.04,154.20 899.66,153.74 899.99,153.74 901.61,153.27 903.89,152.81 906.17,152.34 906.82,151.87 910.40,151.41 910.72,150.94 912.35,150.47 913.97,150.01 916.90,149.54 918.20,149.08 920.48,149.08 920.80,148.61 921.45,148.61 923.08,148.14 923.40,147.68 924.05,147.21 925.03,146.28 925.36,144.88 925.68,143.95 926.01,143.48 927.31,143.01 927.63,143.01 929.58,142.55 929.91,142.08 931.53,141.62 931.86,141.15 932.51,140.68 933.16,140.68 934.14,140.22 937.39,139.75 943.24,139.28 944.54,138.82 946.17,138.35 947.47,137.89 948.77,137.42 949.75,136.95 950.72,136.02 953.00,136.02 954.63,135.55 955.28,135.55 957.55,135.55 957.88,135.55 958.20,135.09 961.78,134.62 963.73,134.16 964.06,134.16 966.98,133.69 971.86,133.22 973.16,133.22 973.49,132.76 974.46,132.29 978.37,131.82 982.92,131.36 983.24,131.36 987.47,130.89 990.07,130.43 1002.76,129.96 1005.68,129.03 1006.66,128.56 1008.29,128.09 1008.61,127.16 1014.47,126.69 1017.07,126.23 1022.27,125.76 1023.90,125.30 1026.17,124.83 1032.76,124.83 1035.68,124.83 1036.00,124.36"/>
<circle cx="90.00" cy="468.00" r="3.8" fill="#ffb50c" stroke="#111827" stroke-width="1"/>
<circle cx="191.99" cy="454.01" r="3.8" fill="#ffb50c" stroke="#111827" stroke-width="1"/>
<circle cx="243.37" cy="441.42" r="3.8" fill="#ffb50c" stroke="#111827" stroke-width="1"/>
<circle cx="280.77" cy="427.44" r="3.8" fill="#ffb50c" stroke="#111827" stroke-width="1"/>
<circle cx="317.52" cy="413.91" r="3.8" fill="#ffb50c" stroke="#111827" stroke-width="1"/>
<circle cx="346.79" cy="401.79" r="3.8" fill="#ffb50c" stroke="#111827" stroke-width="1"/>
<circle cx="390.70" cy="385.47" r="3.8" fill="#ffb50c" stroke="#111827" stroke-width="1"/>
<circle cx="422.57" cy="367.29" r="3.8" fill="#ffb50c" stroke="#111827" stroke-width="1"/>
<circle cx="446.63" cy="352.83" r="3.8" fill="#ffb50c" stroke="#111827" stroke-width="1"/>
<circle cx="478.50" cy="338.38" r="3.8" fill="#ffb50c" stroke="#111827" stroke-width="1"/>
<circle cx="497.69" cy="320.66" r="3.8" fill="#ffb50c" stroke="#111827" stroke-width="1"/>
<circle cx="522.73" cy="303.41" r="3.8" fill="#ffb50c" stroke="#111827" stroke-width="1"/>
<circle cx="550.70" cy="289.89" r="3.8" fill="#ffb50c" stroke="#111827" stroke-width="1"/>
<circle cx="579.00" cy="274.97" r="3.8" fill="#ffb50c" stroke="#111827" stroke-width="1"/>
<circle cx="607.62" cy="259.58" r="3.8" fill="#ffb50c" stroke="#111827" stroke-width="1"/>
<circle cx="636.56" cy="244.66" r="3.8" fill="#ffb50c" stroke="#111827" stroke-width="1"/>
<circle cx="670.06" cy="233.47" r="3.8" fill="#ffb50c" stroke="#111827" stroke-width="1"/>
<circle cx="697.70" cy="223.68" r="3.8" fill="#ffb50c" stroke="#111827" stroke-width="1"/>
<circle cx="722.42" cy="209.69" r="3.8" fill="#ffb50c" stroke="#111827" stroke-width="1"/>
<circle cx="768.27" cy="197.57" r="3.8" fill="#ffb50c" stroke="#111827" stroke-width="1"/>
<circle cx="806.65" cy="185.44" r="3.8" fill="#ffb50c" stroke="#111827" stroke-width="1"/>
<circle cx="838.85" cy="171.92" r="3.8" fill="#ffb50c" stroke="#111827" stroke-width="1"/>
<circle cx="894.46" cy="156.54" r="3.8" fill="#ffb50c" stroke="#111827" stroke-width="1"/>
<circle cx="927.63" cy="143.01" r="3.8" fill="#ffb50c" stroke="#111827" stroke-width="1"/>
<circle cx="974.46" cy="132.29" r="3.8" fill="#ffb50c" stroke="#111827" stroke-width="1"/>
<circle cx="1036.00" cy="124.36" r="3.8" fill="#ffb50c" stroke="#111827" stroke-width="1"/>
<text x="1028.0" y="114.4" text-anchor="end" fill="#ffb50c" font-size="12" font-family="-apple-system,BlinkMacSystemFont,Segoe UI,Helvetica,Arial,sans-serif">737</text>
<rect x="90" y="514" width="14" height="14" fill="url(#repo-0)" rx="3"/>
<text x="112" y="526" fill="#3bf2af" font-size="13" font-family="-apple-system,BlinkMacSystemFont,Segoe UI,Helvetica,Arial,sans-serif">bavix/gripmock</text>
<rect x="280" y="514" width="14" height="14" fill="url(#repo-1)" rx="3"/>
<text x="302" y="526" fill="#ffb50c" font-size="13" font-family="-apple-system,BlinkMacSystemFont,Segoe UI,Helvetica,Arial,sans-serif">tokopedia/gripmock</text>
<text x="1036" y="526" text-anchor="end" fill="#9ca3af" font-size="12" font-family="-apple-system,BlinkMacSystemFont,Segoe UI,Helvetica,Arial,sans-serif">Source: https://github.com/bavix/artifact-stats/blob/master/stats/github.csv</text>
</svg>