<svg xmlns="http://www.w3.org/2000/svg" width="1100" height="560" viewBox="0 0 1100 560">
<defs>
<linearGradient id="bg" x1="0" y1="0" x2="1" y2="1"><stop offset="0%" stop-color="#0b1220"/><stop offset="100%" stop-color="#111827"/></linearGradient>
<linearGradient id="repo-0" x1="0" y1="0" x2="0" y2="1"><stop offset="0%" stop-color="#34d399"/><stop offset="100%" stop-color="#059669"/></linearGradient>
<linearGradient id="repo-1" x1="0" y1="0" x2="0" y2="1"><stop offset="0%" stop-color="#f59e0b"/><stop offset="100%" stop-color="#d97706"/></linearGradient>
</defs>
<rect x="0" y="0" width="1100" height="560" fill="url(#bg)" rx="16"/>
<text x="90" y="44" fill="#f9fafb" font-size="28" font-family="-apple-system,BlinkMacSystemFont,Segoe UI,Helvetica,Arial,sans-serif" font-weight="700">GripMock GitHub Metrics - Forks</text>
<text x="90" y="70" fill="#9ca3af" font-size="16" font-family="-apple-system,BlinkMacSystemFont,Segoe UI,Helvetica,Arial,sans-serif">GitHub forks by snapshot date</text>
<line x1="90" y1="90.0" x2="1036" y2="90.0" stroke="#1f2937" stroke-width="1"/>
<text x="80" y="95.0" text-anchor="end" fill="#9ca3af" font-size="12" font-family="-apple-system,BlinkMacSystemFont,Segoe UI,Helvetica,Arial,sans-serif">185</text>
<line x1="90" y1="153.0" x2="1036" y2="153.0" stroke="#1f2937" stroke-width="1"/>
<text x="80" y="158.0" text-anchor="end" fill="#9ca3af" font-size="12" font-family="-apple-system,BlinkMacSystemFont,Segoe UI,Helvetica,Arial,sans-serif">154</text>
<line x1="90" y1="216.0" x2="1036" y2="216.0" stroke="#1f2937" stroke-width="1"/>
<text x="80" y="221.0" text-anchor="end" fill="#9ca3af" font-size="12" font-family="-apple-system,BlinkMacSystemFont,Segoe UI,Helvetica,Arial,sans-serif">123</text>
<line x1="90" y1="279.0" x2="1036" y2="279.0" stroke="#1f2937" stroke-width="1"/>
<text x="80" y="284.0" text-anchor="end" fill="#9ca3af" font-size="12" font-family="-apple-system,BlinkMacSystemFont,Segoe UI,Helvetica,Arial,sans-serif">92</text>
<line x1="90" y1="342.0" x2="1036" y2="342.0" stroke="#1f2937" stroke-width="1"/>
<text x="80" y="347.0" text-anchor="end" fill="#9ca3af" font-size="12" font-family="-apple-system,BlinkMacSystemFont,Segoe UI,Helvetica,Arial,sans-serif">62</text>
<line x1="90" y1="405.0" x2="1036" y2="405.0" stroke="#1f2937" stroke-width="1"/>
<text x="80" y="410.0" text-anchor="end" fill="#9ca3af" font-size="12" font-family="-apple-system,BlinkMacSystemFont,Segoe UI,Helvetica,Arial,sans-serif">31</text>
<line x1="90" y1="468.0" x2="1036" y2="468.0" stroke="#1f2937" stroke-width="1"/>
<text x="80" y="473.0" text-anchor="end" fill="#9ca3af" font-size="12" font-family="-apple-system,BlinkMacSystemFont,Segoe UI,Helvetica,Arial,sans-serif">0</text>
<line x1="90" y1="468" x2="1036" y2="468" stroke="#4b5563" stroke-width="1.4"/>
<line x1="90" y1="90" x2="90" y2="468" stroke="#4b5563" stroke-width="1.4"/>
<line x1="90.0" y1="468" x2="90.0" y2="474" stroke="#6b7280" stroke-width="1"/>
<text x="90.0" y="494" text-anchor="start" fill="#9ca3af" font-size="12" font-family="-apple-system,BlinkMacSystemFont,Segoe UI,Helvetica,Arial,sans-serif">2018-04-24</text>
<line x1="279.2" y1="468" x2="279.2" y2="474" stroke="#6b7280" stroke-width="1"/>
<text x="279.2" y="494" text-anchor="middle" fill="#9ca3af" font-size="12" font-family="-apple-system,BlinkMacSystemFont,Segoe UI,Helvetica,Arial,sans-serif">2019-11-27</text>
<line x1="468.4" y1="468" x2="468.4" y2="474" stroke="#6b7280" stroke-width="1"/>
<text x="468.4" y="494" text-anchor="middle" fill="#9ca3af" font-size="12" font-family="-apple-system,BlinkMacSystemFont,Segoe UI,Helvetica,Arial,sans-serif">2021-07-01</text>
<line x1="657.6" y1="468" x2="657.6" y2="474" stroke="#6b7280" stroke-width="1"/>
<text x="657.6" y="494" text-anchor="middle" fill="#9ca3af" font-size="12" font-family="-apple-system,BlinkMacSystemFont,Segoe UI,Helvetica,Arial,sans-serif">2023-02-03</text>
<line x1="846.8" y1="468" x2="846.8" y2="474" stroke="#6b7280" stroke-width="1"/>
<text x="846.8" y="494" text-anchor="middle" fill="#9ca3af" font-size="12" font-family="-apple-system,BlinkMacSystemFont,Segoe UI,Helvetica,Arial,sans-serif">2024-09-07</text>
<line x1="1036.0" y1="468" x2="1036.0" y2="474" stroke="#6b7280" stroke-width="1"/>
<text x="1036.0" y="494" text-anchor="end" fill="#9ca3af" font-size="12" font-family="-apple-system,BlinkMacSystemFont,Segoe UI,Helvetica,Arial,sans-serif">2026-04-12</text>
<polyline fill="none" stroke="url(#repo-0)" stroke-width="4" stroke-linecap="round" stroke-linejoin="round" points="720.70,468.00 727.40,468.00 740.40,468.00 754.06,468.00 756.01,468.00 759.26,468.00 770.96,468.00 773.24,468.00 778.77,468.00 779.09,468.00 783.97,468.00 791.77,468.00 804.12,468.00 807.38,468.00 811.60,468.00 815.18,468.00 830.13,468.00 834.68,468.00 835.33,468.00 836.64,468.00 842.81,468.00 856.47,468.00 859.39,468.00 866.22,468.00 871.75,468.00 872.40,468.00 873.05,468.00 893.20,468.00 895.80,468.00 896.45,468.00 902.63,468.00 903.28,468.00 907.18,465.95 908.48,465.95 908.81,465.95 909.13,465.95 912.06,463.91 913.69,463.91 915.31,463.91 920.51,461.86 925.06,459.82 926.69,459.82 927.34,457.77 934.17,457.77 938.07,457.77 949.77,457.77 952.05,457.77 952.70,455.73 954.65,455.73 956.60,455.73 959.52,453.68 964.73,453.68 971.55,453.68 975.78,453.68 987.16,453.68 989.43,453.68 994.31,453.68 994.64,453.68 995.61,453.68 998.21,453.68 998.54,451.64 1007.32,451.64 1014.14,451.64 1014.79,451.64 1017.07,451.64 1023.57,451.64 1025.85,451.64 1027.47,451.64 1029.10,451.64 1032.43,451.64 1033.39,451.64 1033.72,451.64 1034.37,451.64 1034.70,451.64 1035.02,451.64 1036.00,451.64"/>
<circle cx="720.70" cy="468.00" r="3.8" fill="#3bf2af" stroke="#111827" stroke-width="1"/>
<circle cx="754.06" cy="468.00" r="3.8" fill="#3bf2af" stroke="#111827" stroke-width="1"/>
<circle cx="770.96" cy="468.00" r="3.8" fill="#3bf2af" stroke="#111827" stroke-width="1"/>
<circle cx="779.09" cy="468.00" r="3.8" fill="#3bf2af" stroke="#111827" stroke-width="1"/>
<circle cx="804.12" cy="468.00" r="3.8" fill="#3bf2af" stroke="#111827" stroke-width="1"/>
<circle cx="815.18" cy="468.00" r="3.8" fill="#3bf2af" stroke="#111827" stroke-width="1"/>
<circle cx="835.33" cy="468.00" r="3.8" fill="#3bf2af" stroke="#111827" stroke-width="1"/>
<circle cx="856.47" cy="468.00" r="3.8" fill="#3bf2af" stroke="#111827" stroke-width="1"/>
<circle cx="871.75" cy="468.00" r="3.8" fill="#3bf2af" stroke="#111827" stroke-width="1"/>
<circle cx="893.20" cy="468.00" r="3.8" fill="#3bf2af" stroke="#111827" stroke-width="1"/>
<circle cx="902.63" cy="468.00" r="3.8" fill="#3bf2af" stroke="#111827" stroke-width="1"/>
<circle cx="908.48" cy="465.95" r="3.8" fill="#3bf2af" stroke="#111827" stroke-width="1"/>
<circle cx="912.06" cy="463.91" r="3.8" fill="#3bf2af" stroke="#111827" stroke-width="1"/>
<circle cx="920.51" cy="461.86" r="3.8" fill="#3bf2af" stroke="#111827" stroke-width="1"/>
<circle cx="927.34" cy="457.77" r="3.8" fill="#3bf2af" stroke="#111827" stroke-width="1"/>
<circle cx="949.77" cy="457.77" r="3.8" fill="#3bf2af" stroke="#111827" stroke-width="1"/>
<circle cx="954.65" cy="455.73" r="3.8" fill="#3bf2af" stroke="#111827" stroke-width="1"/>
<circle cx="964.73" cy="453.68" r="3.8" fill="#3bf2af" stroke="#111827" stroke-width="1"/>
<circle cx="987.16" cy="453.68" r="3.8" fill="#3bf2af" stroke="#111827" stroke-width="1"/>
<circle cx="994.64" cy="453.68" r="3.8" fill="#3bf2af" stroke="#111827" stroke-width="1"/>
<circle cx="998.54" cy="451.64" r="3.8" fill="#3bf2af" stroke="#111827" stroke-width="1"/>
<circle cx="1014.79" cy="451.64" r="3.8" fill="#3bf2af" stroke="#111827" stroke-width="1"/>
<circle cx="1025.85" cy="451.64" r="3.8" fill="#3bf2af" stroke="#111827" stroke-width="1"/>
<circle cx="1032.43" cy="451.64" r="3.8" fill="#3bf2af" stroke="#111827" stroke-width="1"/>
<circle cx="1034.37" cy="451.64" r="3.8" fill="#3bf2af" stroke="#111827" stroke-width="1"/>
<circle cx="1036.00" cy="451.64" r="3.8" fill="#3bf2af" stroke="#111827" stroke-width="1"/>
<text x="1028.0" y="441.6" text-anchor="end" fill="#3bf2af" font-size="12" font-family="-apple-system,BlinkMacSystemFont,Segoe UI,Helvetica,Arial,sans-serif">8</text>
<polyline fill="none" stroke="url(#repo-1)" stroke-width="4" stroke-linecap="round" stroke-linejoin="round" points="90.00,468.00 91.82,468.00 92.47,468.00 96.05,468.00 99.62,468.00 136.68,468.00 137.66,465.95 143.51,463.91 149.36,463.91 153.91,461.86 157.49,461.86 158.14,461.86 158.47,461.86 158.79,461.86 160.42,461.86 161.07,461.86 165.29,459.82 165.62,459.82 169.52,459.82 170.49,459.82 170.82,459.82 172.45,459.82 174.07,459.82 176.02,459.82 177.00,459.82 182.20,459.82 184.80,459.82 186.42,459.82 186.75,459.82 191.95,459.82 192.28,459.82 192.93,457.77 196.18,457.77 196.83,457.77 197.15,455.73 197.48,453.68 203.33,453.68 204.96,451.64 211.13,451.64 212.43,451.64 213.08,449.59 215.68,447.55 218.61,447.55 222.51,445.50 222.84,445.50 225.11,445.50 227.39,445.50 230.64,445.50 231.61,445.50 233.89,445.50 236.17,445.50 238.12,445.50 238.44,445.50 238.77,445.50 241.37,445.50 242.02,445.50 242.67,445.50 242.99,443.45 243.32,441.41 243.64,441.41 246.24,441.41 246.89,441.41 249.50,439.36 255.02,439.36 255.67,437.32 256.00,437.32 256.32,437.32 256.97,433.23 258.27,433.23 258.60,433.23 260.55,433.23 260.87,433.23 263.15,433.23 264.12,433.23 264.78,433.23 265.75,431.18 267.38,431.18 267.70,429.14 268.68,429.14 271.60,429.14 275.18,429.14 276.15,429.14 277.13,429.14 277.45,429.14 278.75,429.14 279.08,429.14 279.73,429.14 280.71,429.14 282.33,429.14 282.98,429.14 283.31,429.14 283.63,429.14 285.26,429.14 286.23,429.14 286.88,429.14 288.18,427.09 288.51,425.05 290.13,425.05 293.71,425.05 295.66,425.05 297.29,423.00 297.61,423.00 299.89,423.00 301.51,423.00 301.84,420.95 303.79,420.95 304.11,420.95 304.76,418.91 305.74,416.86 306.06,416.86 306.39,416.86 306.71,416.86 311.27,414.82 315.17,414.82 315.49,414.82 316.14,414.82 317.44,414.82 317.77,414.82 319.39,412.77 320.04,410.73 320.37,410.73 320.69,410.73 321.02,410.73 322.64,410.73 325.89,408.68 327.20,408.68 327.52,406.64 328.17,406.64 328.50,404.59 329.15,402.55 329.80,402.55 330.45,400.50 331.75,398.45 332.40,398.45 334.35,398.45 334.67,398.45 335.97,398.45 337.92,398.45 339.22,398.45 340.52,396.41 340.85,396.41 341.50,396.41 342.48,396.41 343.45,396.41 345.08,396.41 346.70,396.41 348.33,396.41 351.25,394.36 353.85,394.36 354.18,394.36 354.50,394.36 359.38,394.36 360.36,394.36 361.33,394.36 361.66,394.36 362.63,394.36 364.91,394.36 365.23,394.36 366.86,394.36 368.81,392.32 372.06,392.32 373.04,392.32 374.01,392.32 375.31,392.32 375.96,392.32 376.29,392.32 376.94,390.27 378.56,390.27 379.86,390.27 384.09,388.23 385.71,388.23 386.69,388.23 389.62,386.18 390.27,384.14 390.59,384.14 390.92,384.14 392.54,384.14 393.52,384.14 394.82,384.14 395.14,384.14 395.79,384.14 398.07,384.14 398.39,384.14 399.04,384.14 401.32,384.14 401.97,384.14 403.27,384.14 404.25,382.09 404.57,382.09 404.90,382.09 408.80,382.09 409.45,382.09 410.75,382.09 411.07,382.09 412.37,382.09 413.67,382.09 414.00,382.09 414.32,382.09 415.95,382.09 416.60,382.09 418.22,380.05 419.53,378.00 420.50,378.00 422.45,378.00 423.75,378.00 425.38,378.00 425.70,378.00 426.35,378.00 427.00,378.00 427.65,378.00 427.98,375.95 428.95,373.91 429.28,373.91 429.60,373.91 429.93,371.86 431.55,371.86 432.20,369.82 433.50,369.82 434.15,369.82 435.13,369.82 435.78,369.82 436.76,369.82 438.06,369.82 439.36,367.77 440.66,365.73 440.98,365.73 442.61,365.73 442.93,365.73 443.58,365.73 443.91,365.73 444.56,365.73 444.88,365.73 446.51,365.73 447.81,365.73 449.43,363.68 453.99,363.68 454.31,363.68 454.64,361.64 454.96,361.64 455.94,357.55 456.26,357.55 456.59,357.55 456.91,357.55 458.21,355.50 458.86,355.50 459.19,355.50 460.16,353.45 460.49,351.41 461.14,351.41 463.09,351.41 463.41,351.41 463.74,351.41 465.04,351.41 467.32,351.41 467.64,351.41 468.29,351.41 470.57,351.41 472.19,351.41 473.82,349.36 476.74,347.32 478.04,347.32 478.37,347.32 478.69,345.27 479.34,345.27 479.67,343.23 479.99,343.23 480.97,343.23 481.30,343.23 482.27,343.23 483.90,343.23 484.22,339.14 484.55,339.14 484.87,339.14 485.20,339.14 485.52,339.14 485.85,339.14 486.50,339.14 486.82,339.14 487.15,335.05 488.12,335.05 488.77,335.05 489.42,335.05 490.72,335.05 492.02,335.05 492.35,335.05 492.67,333.00 493.00,330.95 494.62,330.95 495.92,330.95 496.25,330.95 497.55,330.95 497.88,330.95 498.20,328.91 501.45,328.91 501.78,328.91 502.43,328.91 504.05,328.91 504.70,328.91 505.35,328.91 506.65,326.86 507.30,326.86 507.63,324.82 507.95,324.82 508.28,322.77 509.58,322.77 509.90,322.77 510.55,322.77 510.88,322.77 511.86,322.77 512.18,322.77 513.48,322.77 516.41,322.77 517.38,322.77 518.36,322.77 518.68,320.73 519.01,320.73 519.33,318.68 519.66,318.68 520.31,318.68 522.58,316.64 523.88,316.64 524.21,316.64 524.53,316.64 525.51,316.64 526.81,314.59 528.11,314.59 529.74,314.59 530.06,314.59 533.64,314.59 535.26,314.59 535.91,314.59 536.56,314.59 539.16,314.59 539.81,314.59 540.14,314.59 541.11,314.59 541.76,314.59 542.41,312.55 543.07,312.55 543.72,312.55 545.02,312.55 545.34,312.55 545.67,312.55 547.29,310.50 547.94,310.50 548.27,310.50 549.24,310.50 549.89,310.50 550.54,310.50 552.17,310.50 552.49,308.45 552.82,308.45 553.79,308.45 554.44,306.41 555.09,306.41 556.72,306.41 559.65,306.41 559.97,306.41 561.27,306.41 561.60,306.41 562.90,306.41 563.22,306.41 563.55,304.36 564.20,304.36 565.17,304.36 565.50,304.36 565.82,304.36 566.47,304.36 567.77,304.36 568.75,302.32 569.07,302.32 573.30,302.32 573.63,302.32 574.60,302.32 575.25,302.32 577.53,302.32 578.50,300.27 578.83,300.27 579.15,300.27 581.75,300.27 582.08,300.27 582.40,300.27 583.38,300.27 583.70,300.27 584.35,300.27 586.63,300.27 587.28,300.27 587.93,296.18 588.91,296.18 589.23,296.18 590.21,296.18 595.73,296.18 597.03,296.18 597.36,296.18 598.98,296.18 599.63,294.14 599.96,294.14 600.28,292.09 600.61,292.09 601.58,290.05 602.56,290.05 602.88,290.05 604.84,290.05 605.16,290.05 605.81,290.05 606.79,290.05 607.44,290.05 607.76,290.05 609.06,290.05 609.71,288.00 610.36,288.00 611.34,288.00 611.66,288.00 615.89,288.00 616.86,285.95 617.84,285.95 618.16,285.95 619.79,285.95 620.12,285.95 620.44,285.95 620.77,285.95 622.07,285.95 623.04,285.95 625.32,285.95 626.29,285.95 626.62,285.95 627.27,283.91 627.92,283.91 629.87,283.91 630.19,283.91 633.44,283.91 633.77,283.91 634.74,283.91 635.07,283.91 636.05,283.91 636.37,279.82 636.70,279.82 638.32,279.82 638.65,279.82 639.62,279.82 641.25,279.82 642.55,279.82 643.52,277.77 647.10,275.73 647.42,273.68 649.37,271.64 650.02,271.64 650.68,269.59 651.98,267.55 652.30,265.50 654.90,265.50 657.83,265.50 658.48,265.50 658.80,263.45 659.13,263.45 662.05,261.41 663.35,259.36 663.68,259.36 664.00,259.36 664.65,257.32 665.95,257.32 666.28,257.32 666.93,257.32 668.23,257.32 669.86,257.32 670.18,255.27 670.83,255.27 671.16,255.27 671.48,253.23 671.81,253.23 672.13,253.23 672.78,253.23 676.68,253.23 678.96,251.18 681.23,249.14 682.21,247.09 682.54,245.05 682.86,245.05 683.84,243.00 684.16,243.00 686.44,240.95 686.76,240.95 688.06,238.91 688.39,238.91 688.71,238.91 690.01,238.91 690.99,236.86 692.29,236.86 693.26,234.82 693.59,232.77 695.54,232.77 696.19,232.77 697.17,232.77 697.49,232.77 698.14,232.77 700.09,230.73 700.74,228.68 701.39,228.68 701.72,228.68 702.37,228.68 702.69,228.68 703.67,228.68 703.99,228.68 704.64,228.68 705.94,228.68 706.27,228.68 706.92,228.68 707.57,228.68 708.87,228.68 709.19,226.64 710.49,226.64 711.79,226.64 713.42,224.59 714.40,224.59 714.72,224.59 716.35,222.55 716.67,222.55 717.97,222.55 718.95,222.55 719.60,220.50 720.57,220.50 721.87,220.50 722.20,220.50 722.85,220.50 725.45,220.50 727.40,218.45 729.68,218.45 733.25,218.45 733.58,216.41 733.90,216.41 735.85,216.41 736.50,216.41 736.83,216.41 737.15,214.36 738.13,214.36 738.45,212.32 739.10,212.32 741.70,212.32 743.33,212.32 743.98,210.27 745.61,208.23 746.91,208.23 749.83,206.18 751.13,204.14 753.08,204.14 758.94,202.09 761.21,200.05 761.86,200.05 764.79,200.05 765.44,200.05 766.09,200.05 768.04,200.05 768.69,200.05 769.34,200.05 769.66,198.00 769.99,198.00 772.59,198.00 775.52,198.00 777.14,198.00 779.09,198.00 782.02,195.95 784.62,195.95 785.92,195.95 786.57,195.95 787.87,195.95 789.49,195.95 790.15,195.95 790.80,195.95 792.75,195.95 794.05,195.95 794.37,195.95 797.30,193.91 797.62,193.91 797.95,191.86 798.60,191.86 799.57,189.82 800.87,189.82 802.82,189.82 803.15,189.82 804.12,187.77 806.40,185.73 808.68,185.73 810.63,185.73 813.23,185.73 813.88,185.73 814.20,185.73 815.18,183.68 815.50,183.68 815.83,183.68 816.48,183.68 817.78,181.64 820.05,181.64 820.38,179.59 821.36,179.59 823.31,179.59 824.93,179.59 825.26,179.59 826.56,179.59 827.53,179.59 827.86,177.55 829.16,177.55 829.81,175.50 831.43,175.50 831.76,173.45 832.08,173.45 834.03,173.45 835.01,173.45 835.33,173.45 837.29,171.41 838.59,171.41 838.91,171.41 839.24,169.36 841.51,169.36 843.14,169.36 847.04,169.36 847.36,169.36 849.31,169.36 852.24,169.36 855.49,169.36 857.44,169.36 857.77,169.36 858.09,169.36 858.74,169.36 861.34,169.36 863.62,169.36 866.87,169.36 867.20,167.32 870.12,167.32 871.10,167.32 872.40,167.32 882.47,167.32 883.78,167.32 884.10,167.32 887.35,167.32 888.98,167.32 891.25,167.32 891.90,165.27 892.23,165.27 894.18,165.27 895.48,165.27 896.13,165.27 896.45,165.27 896.78,165.27 897.75,165.27 899.38,165.27 899.71,163.23 901.33,163.23 903.61,163.23 905.88,163.23 906.53,163.23 910.11,163.23 910.43,163.23 912.06,163.23 913.69,163.23 916.61,163.23 917.91,163.23 920.19,159.14 920.51,159.14 921.16,157.09 922.79,157.09 923.11,157.09 923.76,157.09 924.74,157.09 925.06,157.09 925.39,157.09 925.71,157.09 927.01,157.09 927.34,155.05 929.29,155.05 929.62,155.05 931.24,155.05 931.57,155.05 932.22,155.05 932.87,153.00 933.84,153.00 937.09,153.00 942.94,153.00 944.24,153.00 945.87,150.95 947.17,150.95 948.47,150.95 949.45,150.95 950.42,150.95 952.70,148.91 954.32,148.91 954.97,146.86 957.25,144.82 957.57,142.77 957.90,142.77 961.48,142.77 963.43,142.77 963.75,140.73 966.68,140.73 971.55,140.73 972.85,138.68 973.18,138.68 974.15,138.68 978.06,138.68 982.61,138.68 982.93,136.64 987.16,136.64 989.76,136.64 1002.44,136.64 1005.36,136.64 1006.34,136.64 1007.97,136.64 1008.29,136.64 1014.14,136.64 1016.74,136.64 1021.95,136.64 1023.57,136.64 1025.85,136.64 1032.43,124.36 1035.35,124.36 1035.67,124.36 1036.00,124.36"/>
<circle cx="90.00" cy="468.00" r="3.8" fill="#ffb50c" stroke="#111827" stroke-width="1"/>
<circle cx="191.95" cy="459.82" r="3.8" fill="#ffb50c" stroke="#111827" stroke-width="1"/>
<circle cx="243.32" cy="441.41" r="3.8" fill="#ffb50c" stroke="#111827" stroke-width="1"/>
<circle cx="280.71" cy="429.14" r="3.8" fill="#ffb50c" stroke="#111827" stroke-width="1"/>
<circle cx="317.44" cy="414.82" r="3.8" fill="#ffb50c" stroke="#111827" stroke-width="1"/>
<circle cx="346.70" cy="396.41" r="3.8" fill="#ffb50c" stroke="#111827" stroke-width="1"/>
<circle cx="390.59" cy="384.14" r="3.8" fill="#ffb50c" stroke="#111827" stroke-width="1"/>
<circle cx="422.45" cy="378.00" r="3.8" fill="#ffb50c" stroke="#111827" stroke-width="1"/>
<circle cx="446.51" cy="365.73" r="3.8" fill="#ffb50c" stroke="#111827" stroke-width="1"/>
<circle cx="478.37" cy="347.32" r="3.8" fill="#ffb50c" stroke="#111827" stroke-width="1"/>
<circle cx="497.55" cy="330.95" r="3.8" fill="#ffb50c" stroke="#111827" stroke-width="1"/>
<circle cx="522.58" cy="316.64" r="3.8" fill="#ffb50c" stroke="#111827" stroke-width="1"/>
<circle cx="550.54" cy="310.50" r="3.8" fill="#ffb50c" stroke="#111827" stroke-width="1"/>
<circle cx="578.83" cy="300.27" r="3.8" fill="#ffb50c" stroke="#111827" stroke-width="1"/>
<circle cx="607.44" cy="290.05" r="3.8" fill="#ffb50c" stroke="#111827" stroke-width="1"/>
<circle cx="636.37" cy="279.82" r="3.8" fill="#ffb50c" stroke="#111827" stroke-width="1"/>
<circle cx="669.86" cy="257.32" r="3.8" fill="#ffb50c" stroke="#111827" stroke-width="1"/>
<circle cx="697.49" cy="232.77" r="3.8" fill="#ffb50c" stroke="#111827" stroke-width="1"/>
<circle cx="722.20" cy="220.50" r="3.8" fill="#ffb50c" stroke="#111827" stroke-width="1"/>
<circle cx="768.04" cy="200.05" r="3.8" fill="#ffb50c" stroke="#111827" stroke-width="1"/>
<circle cx="806.40" cy="185.73" r="3.8" fill="#ffb50c" stroke="#111827" stroke-width="1"/>
<circle cx="838.59" cy="171.41" r="3.8" fill="#ffb50c" stroke="#111827" stroke-width="1"/>
<circle cx="894.18" cy="165.27" r="3.8" fill="#ffb50c" stroke="#111827" stroke-width="1"/>
<circle cx="927.34" cy="155.05" r="3.8" fill="#ffb50c" stroke="#111827" stroke-width="1"/>
<circle cx="974.15" cy="138.68" r="3.8" fill="#ffb50c" stroke="#111827" stroke-width="1"/>
<circle cx="1036.00" cy="124.36" r="3.8" fill="#ffb50c" stroke="#111827" stroke-width="1"/>
<text x="1028.0" y="114.4" text-anchor="end" fill="#ffb50c" font-size="12" font-family="-apple-system,BlinkMacSystemFont,Segoe UI,Helvetica,Arial,sans-serif">168</text>
<rect x="90" y="514" width="14" height="14" fill="url(#repo-0)" rx="3"/>
<text x="112" y="526" fill="#3bf2af" font-size="13" font-family="-apple-system,BlinkMacSystemFont,Segoe UI,Helvetica,Arial,sans-serif">bavix/gripmock</text>
<rect x="280" y="514" width="14" height="14" fill="url(#repo-1)" rx="3"/>
<text x="302" y="526" fill="#ffb50c" font-size="13" font-family="-apple-system,BlinkMacSystemFont,Segoe UI,Helvetica,Arial,sans-serif">tokopedia/gripmock</text>
<text x="1036" y="526" text-anchor="end" fill="#9ca3af" font-size="12" font-family="-apple-system,BlinkMacSystemFont,Segoe UI,Helvetica,Arial,sans-serif">Source: https://github.com/bavix/artifact-stats/blob/master/stats/github.csv</text>
</svg>