<svg xmlns="http://www.w3.org/2000/svg" width="1100" height="560" viewBox="0 0 1100 560">
<defs>
<linearGradient id="bg" x1="0" y1="0" x2="1" y2="1"><stop offset="0%" stop-color="#0b1220"/><stop offset="100%" stop-color="#111827"/></linearGradient>
<linearGradient id="repo-0" x1="0" y1="0" x2="0" y2="1"><stop offset="0%" stop-color="#34d399"/><stop offset="100%" stop-color="#059669"/></linearGradient>
<linearGradient id="repo-1" x1="0" y1="0" x2="0" y2="1"><stop offset="0%" stop-color="#f59e0b"/><stop offset="100%" stop-color="#d97706"/></linearGradient>
</defs>
<rect x="0" y="0" width="1100" height="560" fill="url(#bg)" rx="16"/>
<text x="90" y="44" fill="#f9fafb" font-size="28" font-family="-apple-system,BlinkMacSystemFont,Segoe UI,Helvetica,Arial,sans-serif" font-weight="700">GripMock GitHub Metrics - Forks</text>
<text x="90" y="70" fill="#9ca3af" font-size="16" font-family="-apple-system,BlinkMacSystemFont,Segoe UI,Helvetica,Arial,sans-serif">GitHub forks by snapshot date</text>
<line x1="90" y1="90.00" x2="1036" y2="90.00" stroke="#1f2937" stroke-width="1"/>
<text x="80" y="95.00" text-anchor="end" fill="#9ca3af" font-size="12" font-family="-apple-system,BlinkMacSystemFont,Segoe UI,Helvetica,Arial,sans-serif">185</text>
<line x1="90" y1="153.00" x2="1036" y2="153.00" stroke="#1f2937" stroke-width="1"/>
<text x="80" y="158.00" text-anchor="end" fill="#9ca3af" font-size="12" font-family="-apple-system,BlinkMacSystemFont,Segoe UI,Helvetica,Arial,sans-serif">154</text>
<line x1="90" y1="216.00" x2="1036" y2="216.00" stroke="#1f2937" stroke-width="1"/>
<text x="80" y="221.00" text-anchor="end" fill="#9ca3af" font-size="12" font-family="-apple-system,BlinkMacSystemFont,Segoe UI,Helvetica,Arial,sans-serif">123</text>
<line x1="90" y1="279.00" x2="1036" y2="279.00" stroke="#1f2937" stroke-width="1"/>
<text x="80" y="284.00" text-anchor="end" fill="#9ca3af" font-size="12" font-family="-apple-system,BlinkMacSystemFont,Segoe UI,Helvetica,Arial,sans-serif">92</text>
<line x1="90" y1="342.00" x2="1036" y2="342.00" stroke="#1f2937" stroke-width="1"/>
<text x="80" y="347.00" text-anchor="end" fill="#9ca3af" font-size="12" font-family="-apple-system,BlinkMacSystemFont,Segoe UI,Helvetica,Arial,sans-serif">62</text>
<line x1="90" y1="405.00" x2="1036" y2="405.00" stroke="#1f2937" stroke-width="1"/>
<text x="80" y="410.00" text-anchor="end" fill="#9ca3af" font-size="12" font-family="-apple-system,BlinkMacSystemFont,Segoe UI,Helvetica,Arial,sans-serif">31</text>
<line x1="90" y1="468.00" x2="1036" y2="468.00" stroke="#1f2937" stroke-width="1"/>
<text x="80" y="473.00" text-anchor="end" fill="#9ca3af" font-size="12" font-family="-apple-system,BlinkMacSystemFont,Segoe UI,Helvetica,Arial,sans-serif">0</text>
<line x1="90" y1="468" x2="1036" y2="468" stroke="#4b5563" stroke-width="1.4"/>
<line x1="90" y1="90" x2="90" y2="468" stroke="#4b5563" stroke-width="1.4"/>
<line x1="90.00" y1="468" x2="90.00" y2="474" stroke="#6b7280" stroke-width="1"/>
<text x="90.00" y="494" text-anchor="start" fill="#9ca3af" font-size="12" font-family="-apple-system,BlinkMacSystemFont,Segoe UI,Helvetica,Arial,sans-serif">2018-04-24</text>
<line x1="279.20" y1="468" x2="279.20" y2="474" stroke="#6b7280" stroke-width="1"/>
<text x="279.20" y="494" text-anchor="middle" fill="#9ca3af" font-size="12" font-family="-apple-system,BlinkMacSystemFont,Segoe UI,Helvetica,Arial,sans-serif">2019-11-29</text>
<line x1="468.40" y1="468" x2="468.40" y2="474" stroke="#6b7280" stroke-width="1"/>
<text x="468.40" y="494" text-anchor="middle" fill="#9ca3af" font-size="12" font-family="-apple-system,BlinkMacSystemFont,Segoe UI,Helvetica,Arial,sans-serif">2021-07-06</text>
<line x1="657.60" y1="468" x2="657.60" y2="474" stroke="#6b7280" stroke-width="1"/>
<text x="657.60" y="494" text-anchor="middle" fill="#9ca3af" font-size="12" font-family="-apple-system,BlinkMacSystemFont,Segoe UI,Helvetica,Arial,sans-serif">2023-02-11</text>
<line x1="846.80" y1="468" x2="846.80" y2="474" stroke="#6b7280" stroke-width="1"/>
<text x="846.80" y="494" text-anchor="middle" fill="#9ca3af" font-size="12" font-family="-apple-system,BlinkMacSystemFont,Segoe UI,Helvetica,Arial,sans-serif">2024-09-17</text>
<line x1="1036.00" y1="468" x2="1036.00" y2="474" stroke="#6b7280" stroke-width="1"/>
<text x="1036.00" y="494" text-anchor="end" fill="#9ca3af" font-size="12" font-family="-apple-system,BlinkMacSystemFont,Segoe UI,Helvetica,Arial,sans-serif">2026-04-25</text>
<polyline fill="none" stroke="url(#repo-0)" stroke-width="4" stroke-linecap="round" stroke-linejoin="round" points="717.90,468.00 724.57,468.00 737.51,468.00 751.11,468.00 753.05,468.00 756.28,468.00 767.94,468.00 770.20,468.00 775.70,468.00 776.03,468.00 780.88,468.00 788.65,468.00 800.95,468.00 804.19,468.00 808.39,468.00 811.95,468.00 826.84,468.00 831.37,468.00 832.02,468.00 833.32,468.00 839.47,468.00 853.06,468.00 855.97,468.00 862.77,468.00 868.27,468.00 868.92,468.00 869.57,468.00 889.63,468.00 892.22,468.00 892.87,468.00 899.02,468.00 899.67,468.00 903.55,465.95 904.84,465.95 905.17,465.95 905.49,465.95 908.40,463.91 910.02,463.91 911.64,463.91 916.82,461.86 921.35,459.82 922.97,459.82 923.62,457.77 930.41,457.77 934.30,457.77 945.95,457.77 948.22,457.77 948.86,455.73 950.80,455.73 952.75,455.73 955.66,453.68 960.84,453.68 967.63,453.68 971.84,453.68 983.17,453.68 985.44,453.68 990.29,453.68 990.61,453.68 991.59,453.68 994.17,453.68 994.50,451.64 1003.24,451.64 1010.03,451.64 1010.68,451.64 1012.95,451.64 1019.42,451.64 1021.69,451.64 1023.30,451.64 1024.92,451.64 1028.24,451.64 1029.20,451.64 1029.53,451.64 1030.17,451.64 1030.50,451.64 1030.82,451.64 1035.36,451.64 1035.68,451.64 1036.00,451.64"/>
<circle cx="717.90" cy="468.00" r="3.8" fill="#3bf2af" stroke="#111827" stroke-width="1"/>
<circle cx="751.11" cy="468.00" r="3.8" fill="#3bf2af" stroke="#111827" stroke-width="1"/>
<circle cx="767.94" cy="468.00" r="3.8" fill="#3bf2af" stroke="#111827" stroke-width="1"/>
<circle cx="776.03" cy="468.00" r="3.8" fill="#3bf2af" stroke="#111827" stroke-width="1"/>
<circle cx="800.95" cy="468.00" r="3.8" fill="#3bf2af" stroke="#111827" stroke-width="1"/>
<circle cx="811.95" cy="468.00" r="3.8" fill="#3bf2af" stroke="#111827" stroke-width="1"/>
<circle cx="832.02" cy="468.00" r="3.8" fill="#3bf2af" stroke="#111827" stroke-width="1"/>
<circle cx="853.06" cy="468.00" r="3.8" fill="#3bf2af" stroke="#111827" stroke-width="1"/>
<circle cx="868.27" cy="468.00" r="3.8" fill="#3bf2af" stroke="#111827" stroke-width="1"/>
<circle cx="889.63" cy="468.00" r="3.8" fill="#3bf2af" stroke="#111827" stroke-width="1"/>
<circle cx="899.02" cy="468.00" r="3.8" fill="#3bf2af" stroke="#111827" stroke-width="1"/>
<circle cx="904.84" cy="465.95" r="3.8" fill="#3bf2af" stroke="#111827" stroke-width="1"/>
<circle cx="908.40" cy="463.91" r="3.8" fill="#3bf2af" stroke="#111827" stroke-width="1"/>
<circle cx="916.82" cy="461.86" r="3.8" fill="#3bf2af" stroke="#111827" stroke-width="1"/>
<circle cx="923.62" cy="457.77" r="3.8" fill="#3bf2af" stroke="#111827" stroke-width="1"/>
<circle cx="945.95" cy="457.77" r="3.8" fill="#3bf2af" stroke="#111827" stroke-width="1"/>
<circle cx="950.80" cy="455.73" r="3.8" fill="#3bf2af" stroke="#111827" stroke-width="1"/>
<circle cx="960.84" cy="453.68" r="3.8" fill="#3bf2af" stroke="#111827" stroke-width="1"/>
<circle cx="983.17" cy="453.68" r="3.8" fill="#3bf2af" stroke="#111827" stroke-width="1"/>
<circle cx="990.61" cy="453.68" r="3.8" fill="#3bf2af" stroke="#111827" stroke-width="1"/>
<circle cx="994.50" cy="451.64" r="3.8" fill="#3bf2af" stroke="#111827" stroke-width="1"/>
<circle cx="1010.68" cy="451.64" r="3.8" fill="#3bf2af" stroke="#111827" stroke-width="1"/>
<circle cx="1021.69" cy="451.64" r="3.8" fill="#3bf2af" stroke="#111827" stroke-width="1"/>
<circle cx="1028.24" cy="451.64" r="3.8" fill="#3bf2af" stroke="#111827" stroke-width="1"/>
<circle cx="1030.17" cy="451.64" r="3.8" fill="#3bf2af" stroke="#111827" stroke-width="1"/>
<circle cx="1035.36" cy="451.64" r="3.8" fill="#3bf2af" stroke="#111827" stroke-width="1"/>
<circle cx="1036.00" cy="451.64" r="3.8" fill="#3bf2af" stroke="#111827" stroke-width="1"/>
<text x="1028.00" y="441.64" text-anchor="end" fill="#3bf2af" font-size="12" font-family="-apple-system,BlinkMacSystemFont,Segoe UI,Helvetica,Arial,sans-serif">8</text>
<polyline fill="none" stroke="url(#repo-1)" stroke-width="4" stroke-linecap="round" stroke-linejoin="round" points="90.00,468.00 91.81,468.00 92.46,468.00 96.02,468.00 99.58,468.00 136.48,468.00 137.45,465.95 143.27,463.91 149.10,463.91 153.63,461.86 157.19,461.86 157.84,461.86 158.16,461.86 158.49,461.86 160.10,461.86 160.75,461.86 164.96,459.82 165.28,459.82 169.17,459.82 170.14,459.82 170.46,459.82 172.08,459.82 173.70,459.82 175.64,459.82 176.61,459.82 181.79,459.82 184.38,459.82 186.00,459.82 186.32,459.82 191.50,459.82 191.82,459.82 192.47,457.77 195.71,457.77 196.35,457.77 196.68,455.73 197.00,453.68 202.83,453.68 204.44,451.64 210.59,451.64 211.89,451.64 212.54,449.59 215.13,447.55 218.04,447.55 221.92,445.50 222.25,445.50 224.51,445.50 226.78,445.50 230.01,445.50 230.98,445.50 233.25,445.50 235.52,445.50 237.46,445.50 237.78,445.50 238.11,445.50 240.69,445.50 241.34,445.50 241.99,445.50 242.31,443.45 242.64,441.41 242.96,441.41 245.55,441.41 246.20,441.41 248.79,439.36 254.29,439.36 254.94,437.32 255.26,437.32 255.58,437.32 256.23,433.23 257.53,433.23 257.85,433.23 259.79,433.23 260.11,433.23 262.38,433.23 263.35,433.23 264.00,433.23 264.97,431.18 266.59,431.18 266.91,429.14 267.88,429.14 270.80,429.14 274.36,429.14 275.33,429.14 276.30,429.14 276.62,429.14 277.92,429.14 278.24,429.14 278.89,429.14 279.86,429.14 281.48,429.14 282.12,429.14 282.45,429.14 282.77,429.14 284.39,429.14 285.36,429.14 286.01,429.14 287.30,427.09 287.63,425.05 289.24,425.05 292.80,425.05 294.75,425.05 296.36,423.00 296.69,423.00 298.95,423.00 300.57,423.00 300.90,420.95 302.84,420.95 303.16,420.95 303.81,418.91 304.78,416.86 305.10,416.86 305.43,416.86 305.75,416.86 310.28,414.82 314.17,414.82 314.49,414.82 315.14,414.82 316.43,414.82 316.75,414.82 318.37,412.77 319.02,410.73 319.34,410.73 319.67,410.73 319.99,410.73 321.61,410.73 324.85,408.68 326.14,408.68 326.46,406.64 327.11,406.64 327.44,404.59 328.08,402.55 328.73,402.55 329.38,400.50 330.67,398.45 331.32,398.45 333.26,398.45 333.59,398.45 334.88,398.45 336.82,398.45 338.12,398.45 339.41,396.41 339.73,396.41 340.38,396.41 341.35,396.41 342.32,396.41 343.94,396.41 345.56,396.41 347.18,396.41 350.09,394.36 352.68,394.36 353.00,394.36 353.33,394.36 358.18,394.36 359.15,394.36 360.13,394.36 360.45,394.36 361.42,394.36 363.69,394.36 364.01,394.36 365.63,394.36 367.57,392.32 370.81,392.32 371.78,392.32 372.75,392.32 374.04,392.32 374.69,392.32 375.01,392.32 375.66,390.27 377.28,390.27 378.57,390.27 382.78,388.23 384.40,388.23 385.37,388.23 388.28,386.18 388.93,384.14 389.25,384.14 389.58,384.14 391.20,384.14 392.17,384.14 393.46,384.14 393.79,384.14 394.43,384.14 396.70,384.14 397.02,384.14 397.67,384.14 399.94,384.14 400.58,384.14 401.88,384.14 402.85,382.09 403.17,382.09 403.50,382.09 407.38,382.09 408.03,382.09 409.32,382.09 409.65,382.09 410.94,382.09 412.23,382.09 412.56,382.09 412.88,382.09 414.50,382.09 415.15,382.09 416.77,380.05 418.06,378.00 419.03,378.00 420.97,378.00 422.27,378.00 423.89,378.00 424.21,378.00 424.86,378.00 425.50,378.00 426.15,378.00 426.48,375.95 427.45,373.91 427.77,373.91 428.09,373.91 428.42,371.86 430.04,371.86 430.68,369.82 431.98,369.82 432.62,369.82 433.60,369.82 434.24,369.82 435.21,369.82 436.51,369.82 437.80,367.77 439.10,365.73 439.42,365.73 441.04,365.73 441.36,365.73 442.01,365.73 442.33,365.73 442.98,365.73 443.31,365.73 444.92,365.73 446.22,365.73 447.84,363.68 452.37,363.68 452.69,363.68 453.02,361.64 453.34,361.64 454.31,357.55 454.63,357.55 454.96,357.55 455.28,357.55 456.58,355.50 457.22,355.50 457.55,355.50 458.52,353.45 458.84,351.41 459.49,351.41 461.43,351.41 461.75,351.41 462.08,351.41 463.37,351.41 465.64,351.41 465.96,351.41 466.61,351.41 468.87,351.41 470.49,351.41 472.11,349.36 475.02,347.32 476.32,347.32 476.64,347.32 476.97,345.27 477.61,345.27 477.94,343.23 478.26,343.23 479.23,343.23 479.56,343.23 480.53,343.23 482.14,343.23 482.47,339.14 482.79,339.14 483.12,339.14 483.44,339.14 483.76,339.14 484.09,339.14 484.73,339.14 485.06,339.14 485.38,335.05 486.35,335.05 487.00,335.05 487.65,335.05 488.94,335.05 490.24,335.05 490.56,335.05 490.88,333.00 491.21,330.95 492.83,330.95 494.12,330.95 494.44,330.95 495.74,330.95 496.06,330.95 496.39,328.91 499.62,328.91 499.95,328.91 500.59,328.91 502.21,328.91 502.86,328.91 503.51,328.91 504.80,326.86 505.45,326.86 505.77,324.82 506.10,324.82 506.42,322.77 507.71,322.77 508.04,322.77 508.69,322.77 509.01,322.77 509.98,322.77 510.30,322.77 511.60,322.77 514.51,322.77 515.48,322.77 516.45,322.77 516.78,320.73 517.10,320.73 517.42,318.68 517.75,318.68 518.39,318.68 520.66,316.64 521.96,316.64 522.28,316.64 522.60,316.64 523.57,316.64 524.87,314.59 526.16,314.59 527.78,314.59 528.10,314.59 531.66,314.59 533.28,314.59 533.93,314.59 534.58,314.59 537.17,314.59 537.81,314.59 538.14,314.59 539.11,314.59 539.76,314.59 540.40,312.55 541.05,312.55 541.70,312.55 542.99,312.55 543.32,312.55 543.64,312.55 545.26,310.50 545.91,310.50 546.23,310.50 547.20,310.50 547.85,310.50 548.50,310.50 550.11,310.50 550.44,308.45 550.76,308.45 551.73,308.45 552.38,306.41 553.03,306.41 554.64,306.41 557.56,306.41 557.88,306.41 559.18,306.41 559.50,306.41 560.79,306.41 561.12,306.41 561.44,304.36 562.09,304.36 563.06,304.36 563.38,304.36 563.71,304.36 564.35,304.36 565.65,304.36 566.62,302.32 566.94,302.32 571.15,302.32 571.48,302.32 572.45,302.32 573.09,302.32 575.36,302.32 576.33,300.27 576.65,300.27 576.98,300.27 579.57,300.27 579.89,300.27 580.21,300.27 581.18,300.27 581.51,300.27 582.16,300.27 584.42,300.27 585.07,300.27 585.72,296.18 586.69,296.18 587.01,296.18 587.98,296.18 593.48,296.18 594.78,296.18 595.10,296.18 596.72,296.18 597.37,294.14 597.69,294.14 598.02,292.09 598.34,292.09 599.31,290.05 600.28,290.05 600.60,290.05 602.55,290.05 602.87,290.05 603.52,290.05 604.49,290.05 605.14,290.05 605.46,290.05 606.75,290.05 607.40,288.00 608.05,288.00 609.02,288.00 609.34,288.00 613.55,288.00 614.52,285.95 615.49,285.95 615.82,285.95 617.43,285.95 617.76,285.95 618.08,285.95 618.41,285.95 619.70,285.95 620.67,285.95 622.94,285.95 623.91,285.95 624.23,285.95 624.88,283.91 625.53,283.91 627.47,283.91 627.79,283.91 631.03,283.91 631.35,283.91 632.32,283.91 632.65,283.91 633.62,283.91 633.94,279.82 634.27,279.82 635.88,279.82 636.21,279.82 637.18,279.82 638.80,279.82 640.09,279.82 641.06,277.77 644.62,275.73 644.95,273.68 646.89,271.64 647.54,271.64 648.18,269.59 649.48,267.55 649.80,265.50 652.39,265.50 655.30,265.50 655.95,265.50 656.27,263.45 656.60,263.45 659.51,261.41 660.81,259.36 661.13,259.36 661.45,259.36 662.10,257.32 663.39,257.32 663.72,257.32 664.37,257.32 665.66,257.32 667.28,257.32 667.60,255.27 668.25,255.27 668.57,255.27 668.90,253.23 669.22,253.23 669.54,253.23 670.19,253.23 674.08,253.23 676.34,251.18 678.61,249.14 679.58,247.09 679.90,245.05 680.22,245.05 681.20,243.00 681.52,243.00 683.79,240.95 684.11,240.95 685.40,238.91 685.73,238.91 686.05,238.91 687.35,238.91 688.32,236.86 689.61,236.86 690.58,234.82 690.91,232.77 692.85,232.77 693.49,232.77 694.47,232.77 694.79,232.77 695.44,232.77 697.38,230.73 698.03,228.68 698.67,228.68 699.00,228.68 699.64,228.68 699.97,228.68 700.94,228.68 701.26,228.68 701.91,228.68 703.20,228.68 703.53,228.68 704.18,228.68 704.82,228.68 706.12,228.68 706.44,226.64 707.74,226.64 709.03,226.64 710.65,224.59 711.62,224.59 711.94,224.59 713.56,222.55 713.89,222.55 715.18,222.55 716.15,222.55 716.80,220.50 717.77,220.50 719.06,220.50 719.39,220.50 720.03,220.50 722.62,220.50 724.57,218.45 726.83,218.45 730.39,218.45 730.72,216.41 731.04,216.41 732.98,216.41 733.63,216.41 733.95,216.41 734.28,214.36 735.25,214.36 735.57,212.32 736.22,212.32 738.81,212.32 740.43,212.32 741.07,210.27 742.69,208.23 743.99,208.23 746.90,206.18 748.19,204.14 750.14,204.14 755.96,202.09 758.23,200.05 758.87,200.05 761.79,200.05 762.43,200.05 763.08,200.05 765.02,200.05 765.67,200.05 766.32,200.05 766.64,198.00 766.97,198.00 769.55,198.00 772.47,198.00 774.09,198.00 776.03,198.00 778.94,195.95 781.53,195.95 782.82,195.95 783.47,195.95 784.77,195.95 786.39,195.95 787.03,195.95 787.68,195.95 789.62,195.95 790.92,195.95 791.24,195.95 794.15,193.91 794.48,193.91 794.80,191.86 795.45,191.86 796.42,189.82 797.71,189.82 799.66,189.82 799.98,189.82 800.95,187.77 803.22,185.73 805.48,185.73 807.42,185.73 810.01,185.73 810.66,185.73 810.98,185.73 811.95,183.68 812.28,183.68 812.60,183.68 813.25,183.68 814.54,181.64 816.81,181.64 817.13,179.59 818.10,179.59 820.05,179.59 821.66,179.59 821.99,179.59 823.28,179.59 824.25,179.59 824.58,177.55 825.87,177.55 826.52,175.50 828.14,175.50 828.46,173.45 828.78,173.45 830.73,173.45 831.70,173.45 832.02,173.45 833.96,171.41 835.26,171.41 835.58,171.41 835.91,169.36 838.17,169.36 839.79,169.36 843.67,169.36 844.00,169.36 845.94,169.36 848.85,169.36 852.09,169.36 854.03,169.36 854.35,169.36 854.68,169.36 855.32,169.36 857.91,169.36 860.18,169.36 863.42,169.36 863.74,167.32 866.65,167.32 867.62,167.32 868.92,167.32 878.95,167.32 880.25,167.32 880.57,167.32 883.81,167.32 885.43,167.32 887.69,167.32 888.34,165.27 888.66,165.27 890.60,165.27 891.90,165.27 892.55,165.27 892.87,165.27 893.19,165.27 894.16,165.27 895.78,165.27 896.11,163.23 897.72,163.23 899.99,163.23 902.26,163.23 902.90,163.23 906.46,163.23 906.79,163.23 908.40,163.23 910.02,163.23 912.94,163.23 914.23,163.23 916.50,159.14 916.82,159.14 917.47,157.09 919.09,157.09 919.41,157.09 920.06,157.09 921.03,157.09 921.35,157.09 921.67,157.09 922.00,157.09 923.29,157.09 923.62,155.05 925.56,155.05 925.88,155.05 927.50,155.05 927.82,155.05 928.47,155.05 929.12,153.00 930.09,153.00 933.33,153.00 939.15,153.00 940.45,153.00 942.07,150.95 943.36,150.95 944.65,150.95 945.63,150.95 946.60,150.95 948.86,148.91 950.48,148.91 951.13,146.86 953.39,144.82 953.72,142.77 954.04,142.77 957.60,142.77 959.54,142.77 959.87,140.73 962.78,140.73 967.63,140.73 968.93,138.68 969.25,138.68 970.22,138.68 974.11,138.68 978.64,138.68 978.96,136.64 983.17,136.64 985.76,136.64 998.38,136.64 1001.30,136.64 1002.27,136.64 1003.88,136.64 1004.21,136.64 1010.03,136.64 1012.62,136.64 1017.80,136.64 1019.42,136.64 1021.69,136.64 1028.24,124.36 1031.15,124.36 1031.47,124.36 1032.12,124.36 1032.44,124.36 1033.41,124.36 1033.73,124.36 1035.03,124.36 1035.36,124.36 1036.00,124.36"/>
<circle cx="90.00" cy="468.00" r="3.8" fill="#ffb50c" stroke="#111827" stroke-width="1"/>
<circle cx="191.82" cy="459.82" r="3.8" fill="#ffb50c" stroke="#111827" stroke-width="1"/>
<circle cx="245.55" cy="441.41" r="3.8" fill="#ffb50c" stroke="#111827" stroke-width="1"/>
<circle cx="282.45" cy="429.14" r="3.8" fill="#ffb50c" stroke="#111827" stroke-width="1"/>
<circle cx="319.34" cy="410.73" r="3.8" fill="#ffb50c" stroke="#111827" stroke-width="1"/>
<circle cx="353.33" cy="394.36" r="3.8" fill="#ffb50c" stroke="#111827" stroke-width="1"/>
<circle cx="394.43" cy="384.14" r="3.8" fill="#ffb50c" stroke="#111827" stroke-width="1"/>
<circle cx="426.48" cy="375.95" r="3.8" fill="#ffb50c" stroke="#111827" stroke-width="1"/>
<circle cx="454.63" cy="357.55" r="3.8" fill="#ffb50c" stroke="#111827" stroke-width="1"/>
<circle cx="482.47" cy="339.14" r="3.8" fill="#ffb50c" stroke="#111827" stroke-width="1"/>
<circle cx="505.45" cy="326.86" r="3.8" fill="#ffb50c" stroke="#111827" stroke-width="1"/>
<circle cx="533.93" cy="314.59" r="3.8" fill="#ffb50c" stroke="#111827" stroke-width="1"/>
<circle cx="560.79" cy="306.41" r="3.8" fill="#ffb50c" stroke="#111827" stroke-width="1"/>
<circle cx="587.98" cy="296.18" r="3.8" fill="#ffb50c" stroke="#111827" stroke-width="1"/>
<circle cx="618.41" cy="285.95" r="3.8" fill="#ffb50c" stroke="#111827" stroke-width="1"/>
<circle cx="652.39" cy="265.50" r="3.8" fill="#ffb50c" stroke="#111827" stroke-width="1"/>
<circle cx="683.79" cy="240.95" r="3.8" fill="#ffb50c" stroke="#111827" stroke-width="1"/>
<circle cx="707.74" cy="226.64" r="3.8" fill="#ffb50c" stroke="#111827" stroke-width="1"/>
<circle cx="742.69" cy="208.23" r="3.8" fill="#ffb50c" stroke="#111827" stroke-width="1"/>
<circle cx="791.24" cy="195.95" r="3.8" fill="#ffb50c" stroke="#111827" stroke-width="1"/>
<circle cx="825.87" cy="177.55" r="3.8" fill="#ffb50c" stroke="#111827" stroke-width="1"/>
<circle cx="878.95" cy="167.32" r="3.8" fill="#ffb50c" stroke="#111827" stroke-width="1"/>
<circle cx="919.41" cy="157.09" r="3.8" fill="#ffb50c" stroke="#111827" stroke-width="1"/>
<circle cx="959.54" cy="142.77" r="3.8" fill="#ffb50c" stroke="#111827" stroke-width="1"/>
<circle cx="1035.36" cy="124.36" r="3.8" fill="#ffb50c" stroke="#111827" stroke-width="1"/>
<circle cx="1036.00" cy="124.36" r="3.8" fill="#ffb50c" stroke="#111827" stroke-width="1"/>
<text x="1028.00" y="114.36" text-anchor="end" fill="#ffb50c" font-size="12" font-family="-apple-system,BlinkMacSystemFont,Segoe UI,Helvetica,Arial,sans-serif">168</text>
<rect x="90.00" y="514.00" width="14" height="14" fill="url(#repo-0)" rx="3"/>
<text x="112.00" y="526.00" fill="#3bf2af" font-size="13" font-family="-apple-system,BlinkMacSystemFont,Segoe UI,Helvetica,Arial,sans-serif">bavix/gripmock</text>
<rect x="280.00" y="514.00" width="14" height="14" fill="url(#repo-1)" rx="3"/>
<text x="302.00" y="526.00" fill="#ffb50c" font-size="13" font-family="-apple-system,BlinkMacSystemFont,Segoe UI,Helvetica,Arial,sans-serif">tokopedia/gripmock</text>
<text x="1036.00" y="526.00" text-anchor="end" fill="#9ca3af" font-size="12" font-family="-apple-system,BlinkMacSystemFont,Segoe UI,Helvetica,Arial,sans-serif">Source: https://github.com/bavix/artifact-stats/blob/master/stats/github.csv</text>
</svg>