<svg xmlns="http://www.w3.org/2000/svg" width="1100" height="560" viewBox="0 0 1100 560">
<defs>
<linearGradient id="bg" x1="0" y1="0" x2="1" y2="1"><stop offset="0%" stop-color="#0b1220"/><stop offset="100%" stop-color="#111827"/></linearGradient>
<linearGradient id="repo-0" x1="0" y1="0" x2="0" y2="1"><stop offset="0%" stop-color="#34d399"/><stop offset="100%" stop-color="#059669"/></linearGradient>
<linearGradient id="repo-1" x1="0" y1="0" x2="0" y2="1"><stop offset="0%" stop-color="#f59e0b"/><stop offset="100%" stop-color="#d97706"/></linearGradient>
</defs>
<rect x="0" y="0" width="1100" height="560" fill="url(#bg)" rx="16"/>
<text x="90" y="44" fill="#f9fafb" font-size="28" font-family="-apple-system,BlinkMacSystemFont,Segoe UI,Helvetica,Arial,sans-serif" font-weight="700">GripMock GitHub Metrics - Stars</text>
<text x="90" y="70" fill="#9ca3af" font-size="16" font-family="-apple-system,BlinkMacSystemFont,Segoe UI,Helvetica,Arial,sans-serif">GitHub stars by snapshot date</text>
<line x1="90" y1="90.00" x2="1036" y2="90.00" stroke="#1f2937" stroke-width="1"/>
<text x="80" y="95.00" text-anchor="end" fill="#9ca3af" font-size="12" font-family="-apple-system,BlinkMacSystemFont,Segoe UI,Helvetica,Arial,sans-serif">811</text>
<line x1="90" y1="153.00" x2="1036" y2="153.00" stroke="#1f2937" stroke-width="1"/>
<text x="80" y="158.00" text-anchor="end" fill="#9ca3af" font-size="12" font-family="-apple-system,BlinkMacSystemFont,Segoe UI,Helvetica,Arial,sans-serif">676</text>
<line x1="90" y1="216.00" x2="1036" y2="216.00" stroke="#1f2937" stroke-width="1"/>
<text x="80" y="221.00" text-anchor="end" fill="#9ca3af" font-size="12" font-family="-apple-system,BlinkMacSystemFont,Segoe UI,Helvetica,Arial,sans-serif">540</text>
<line x1="90" y1="279.00" x2="1036" y2="279.00" stroke="#1f2937" stroke-width="1"/>
<text x="80" y="284.00" text-anchor="end" fill="#9ca3af" font-size="12" font-family="-apple-system,BlinkMacSystemFont,Segoe UI,Helvetica,Arial,sans-serif">405</text>
<line x1="90" y1="342.00" x2="1036" y2="342.00" stroke="#1f2937" stroke-width="1"/>
<text x="80" y="347.00" text-anchor="end" fill="#9ca3af" font-size="12" font-family="-apple-system,BlinkMacSystemFont,Segoe UI,Helvetica,Arial,sans-serif">270</text>
<line x1="90" y1="405.00" x2="1036" y2="405.00" stroke="#1f2937" stroke-width="1"/>
<text x="80" y="410.00" text-anchor="end" fill="#9ca3af" font-size="12" font-family="-apple-system,BlinkMacSystemFont,Segoe UI,Helvetica,Arial,sans-serif">135</text>
<line x1="90" y1="468.00" x2="1036" y2="468.00" stroke="#1f2937" stroke-width="1"/>
<text x="80" y="473.00" text-anchor="end" fill="#9ca3af" font-size="12" font-family="-apple-system,BlinkMacSystemFont,Segoe UI,Helvetica,Arial,sans-serif">0</text>
<line x1="90" y1="468" x2="1036" y2="468" stroke="#4b5563" stroke-width="1.4"/>
<line x1="90" y1="90" x2="90" y2="468" stroke="#4b5563" stroke-width="1.4"/>
<line x1="90.00" y1="468" x2="90.00" y2="474" stroke="#6b7280" stroke-width="1"/>
<text x="90.00" y="494" text-anchor="start" fill="#9ca3af" font-size="12" font-family="-apple-system,BlinkMacSystemFont,Segoe UI,Helvetica,Arial,sans-serif">2018-04-24</text>
<line x1="279.20" y1="468" x2="279.20" y2="474" stroke="#6b7280" stroke-width="1"/>
<text x="279.20" y="494" text-anchor="middle" fill="#9ca3af" font-size="12" font-family="-apple-system,BlinkMacSystemFont,Segoe UI,Helvetica,Arial,sans-serif">2019-11-29</text>
<line x1="468.40" y1="468" x2="468.40" y2="474" stroke="#6b7280" stroke-width="1"/>
<text x="468.40" y="494" text-anchor="middle" fill="#9ca3af" font-size="12" font-family="-apple-system,BlinkMacSystemFont,Segoe UI,Helvetica,Arial,sans-serif">2021-07-04</text>
<line x1="657.60" y1="468" x2="657.60" y2="474" stroke="#6b7280" stroke-width="1"/>
<text x="657.60" y="494" text-anchor="middle" fill="#9ca3af" font-size="12" font-family="-apple-system,BlinkMacSystemFont,Segoe UI,Helvetica,Arial,sans-serif">2023-02-08</text>
<line x1="846.80" y1="468" x2="846.80" y2="474" stroke="#6b7280" stroke-width="1"/>
<text x="846.80" y="494" text-anchor="middle" fill="#9ca3af" font-size="12" font-family="-apple-system,BlinkMacSystemFont,Segoe UI,Helvetica,Arial,sans-serif">2024-09-14</text>
<line x1="1036.00" y1="468" x2="1036.00" y2="474" stroke="#6b7280" stroke-width="1"/>
<text x="1036.00" y="494" text-anchor="end" fill="#9ca3af" font-size="12" font-family="-apple-system,BlinkMacSystemFont,Segoe UI,Helvetica,Arial,sans-serif">2026-04-21</text>
<polyline fill="none" stroke="url(#repo-0)" stroke-width="4" stroke-linecap="round" stroke-linejoin="round" points="718.76,468.00 725.43,467.53 738.40,467.07 752.01,466.60 753.95,466.13 757.20,465.67 768.86,465.20 771.13,464.74 776.64,464.27 776.97,463.80 781.83,463.34 789.61,462.87 801.92,462.40 805.16,461.94 809.38,461.47 812.94,461.01 827.85,460.54 832.39,460.07 833.04,459.61 834.33,459.14 840.49,458.67 854.10,458.21 857.02,457.74 863.83,457.28 869.34,456.81 869.98,456.34 870.63,455.88 890.73,455.41 893.32,454.94 893.97,454.48 900.12,454.01 900.77,453.55 904.66,453.55 905.96,453.08 906.28,452.61 906.61,452.15 909.52,451.68 911.14,451.21 912.76,450.75 917.95,450.75 922.49,450.75 924.11,450.28 924.76,450.28 931.56,449.82 935.45,449.35 947.12,448.88 949.39,448.42 950.04,448.42 951.98,447.95 953.93,447.48 956.84,447.48 962.03,447.02 968.83,446.55 973.05,446.09 984.39,445.62 986.66,445.15 991.52,444.69 991.85,444.22 992.82,443.75 995.41,443.29 995.74,443.29 1004.49,442.82 1011.29,442.36 1011.94,441.89 1014.21,441.42 1020.69,440.96 1022.96,440.49 1024.58,440.02 1026.20,439.56 1029.52,439.56 1030.48,439.56 1030.81,439.09 1031.46,439.09 1031.78,438.63 1032.11,439.09 1036.00,439.09"/>
<circle cx="718.76" cy="468.00" r="3.8" fill="#3bf2af" stroke="#111827" stroke-width="1"/>
<circle cx="752.01" cy="466.60" r="3.8" fill="#3bf2af" stroke="#111827" stroke-width="1"/>
<circle cx="768.86" cy="465.20" r="3.8" fill="#3bf2af" stroke="#111827" stroke-width="1"/>
<circle cx="776.97" cy="463.80" r="3.8" fill="#3bf2af" stroke="#111827" stroke-width="1"/>
<circle cx="801.92" cy="462.40" r="3.8" fill="#3bf2af" stroke="#111827" stroke-width="1"/>
<circle cx="812.94" cy="461.01" r="3.8" fill="#3bf2af" stroke="#111827" stroke-width="1"/>
<circle cx="833.04" cy="459.61" r="3.8" fill="#3bf2af" stroke="#111827" stroke-width="1"/>
<circle cx="854.10" cy="458.21" r="3.8" fill="#3bf2af" stroke="#111827" stroke-width="1"/>
<circle cx="869.34" cy="456.81" r="3.8" fill="#3bf2af" stroke="#111827" stroke-width="1"/>
<circle cx="890.73" cy="455.41" r="3.8" fill="#3bf2af" stroke="#111827" stroke-width="1"/>
<circle cx="900.12" cy="454.01" r="3.8" fill="#3bf2af" stroke="#111827" stroke-width="1"/>
<circle cx="905.96" cy="453.08" r="3.8" fill="#3bf2af" stroke="#111827" stroke-width="1"/>
<circle cx="909.52" cy="451.68" r="3.8" fill="#3bf2af" stroke="#111827" stroke-width="1"/>
<circle cx="917.95" cy="450.75" r="3.8" fill="#3bf2af" stroke="#111827" stroke-width="1"/>
<circle cx="924.76" cy="450.28" r="3.8" fill="#3bf2af" stroke="#111827" stroke-width="1"/>
<circle cx="947.12" cy="448.88" r="3.8" fill="#3bf2af" stroke="#111827" stroke-width="1"/>
<circle cx="951.98" cy="447.95" r="3.8" fill="#3bf2af" stroke="#111827" stroke-width="1"/>
<circle cx="962.03" cy="447.02" r="3.8" fill="#3bf2af" stroke="#111827" stroke-width="1"/>
<circle cx="984.39" cy="445.62" r="3.8" fill="#3bf2af" stroke="#111827" stroke-width="1"/>
<circle cx="991.85" cy="444.22" r="3.8" fill="#3bf2af" stroke="#111827" stroke-width="1"/>
<circle cx="995.74" cy="443.29" r="3.8" fill="#3bf2af" stroke="#111827" stroke-width="1"/>
<circle cx="1011.94" cy="441.89" r="3.8" fill="#3bf2af" stroke="#111827" stroke-width="1"/>
<circle cx="1022.96" cy="440.49" r="3.8" fill="#3bf2af" stroke="#111827" stroke-width="1"/>
<circle cx="1029.52" cy="439.56" r="3.8" fill="#3bf2af" stroke="#111827" stroke-width="1"/>
<circle cx="1031.46" cy="439.09" r="3.8" fill="#3bf2af" stroke="#111827" stroke-width="1"/>
<circle cx="1036.00" cy="439.09" r="3.8" fill="#3bf2af" stroke="#111827" stroke-width="1"/>
<text x="1028.00" y="429.09" text-anchor="end" fill="#3bf2af" font-size="12" font-family="-apple-system,BlinkMacSystemFont,Segoe UI,Helvetica,Arial,sans-serif">62</text>
<polyline fill="none" stroke="url(#repo-1)" stroke-width="4" stroke-linecap="round" stroke-linejoin="round" points="90.00,468.00 91.81,466.60 92.46,466.13 96.03,465.67 99.59,465.20 136.54,464.74 137.51,464.27 143.35,464.27 149.18,463.80 153.72,463.80 157.28,463.34 157.93,462.87 158.25,462.40 158.58,461.94 160.20,461.47 160.85,461.01 165.06,460.54 165.38,460.07 169.27,459.61 170.25,459.14 170.57,458.67 172.19,458.21 173.81,457.28 175.76,456.81 176.73,456.34 181.91,455.88 184.51,455.41 186.13,454.94 186.45,454.48 191.64,454.01 191.96,453.55 192.61,453.08 195.85,452.61 196.50,451.68 196.82,451.68 197.15,451.68 202.98,451.21 204.60,451.21 210.76,450.75 212.06,450.28 212.70,450.28 215.30,449.82 218.21,449.35 222.10,449.35 222.43,448.88 224.70,448.42 226.96,447.95 230.21,447.48 231.18,447.02 233.45,446.55 235.72,446.09 237.66,445.62 237.98,445.15 238.31,444.69 240.90,444.22 241.55,443.75 242.20,442.82 242.52,442.36 242.85,441.42 243.17,440.96 245.76,440.49 246.41,439.56 249.00,439.56 254.51,439.09 255.16,439.09 255.49,438.63 255.81,438.16 256.46,438.16 257.75,437.69 258.08,437.23 260.02,436.76 260.35,436.29 262.62,435.83 263.59,434.90 264.24,433.96 265.21,433.96 266.83,433.50 267.15,433.03 268.13,432.56 271.04,432.10 274.61,431.63 275.58,431.17 276.55,430.70 276.88,430.23 278.17,429.77 278.50,429.30 279.14,428.83 280.12,427.44 281.74,426.97 282.39,426.50 282.71,426.04 283.03,424.64 284.65,424.17 285.63,423.70 286.28,423.24 287.57,423.24 287.90,422.77 289.52,422.31 293.08,421.84 295.03,421.37 296.65,421.37 296.97,420.44 299.24,419.97 300.86,419.51 301.18,419.51 303.13,419.04 303.45,418.58 304.10,418.58 305.07,418.58 305.40,418.11 305.72,417.64 306.05,417.18 310.58,415.78 314.47,415.31 314.80,414.85 315.44,414.38 316.74,413.91 317.06,413.45 318.69,413.45 319.33,412.98 319.66,412.51 319.98,412.05 320.31,411.58 321.93,411.12 325.17,410.65 326.46,410.18 326.79,410.18 327.44,409.72 327.76,409.72 328.41,408.32 329.06,407.85 329.70,407.85 331.00,407.39 331.65,406.92 333.59,406.45 333.92,405.99 335.21,405.52 337.16,405.05 338.46,404.59 339.75,404.59 340.08,404.12 340.72,403.66 341.70,403.19 342.67,402.72 344.29,402.26 345.91,401.79 347.53,401.32 350.45,400.86 353.04,400.39 353.36,399.93 353.69,399.46 358.55,398.99 359.52,398.53 360.49,398.06 360.82,397.13 361.79,396.66 364.06,395.73 364.38,394.80 366.00,394.33 367.95,394.33 371.19,393.86 372.16,393.40 373.13,392.93 374.43,392.00 375.08,391.53 375.40,391.07 376.05,390.60 377.67,389.67 378.97,389.20 383.18,388.27 384.80,386.87 385.77,385.94 388.69,385.94 389.34,385.94 389.66,385.47 389.99,384.54 391.61,383.61 392.58,383.14 393.88,382.67 394.20,382.21 394.85,381.74 397.12,381.27 397.44,380.81 398.09,380.34 400.36,379.88 401.01,379.41 402.30,378.94 403.28,378.48 403.60,378.01 403.92,377.54 407.81,377.08 408.46,376.61 409.76,375.68 410.08,375.21 411.38,374.75 412.68,371.48 413.00,370.55 413.32,370.08 414.94,369.62 415.59,369.15 417.21,369.15 418.51,368.69 419.48,368.22 421.43,367.29 422.72,366.82 424.34,366.35 424.67,365.89 425.32,365.42 425.96,364.49 426.61,364.02 426.94,364.02 427.91,364.02 428.23,363.56 428.56,363.09 428.88,362.62 430.50,362.16 431.15,361.23 432.45,360.76 433.09,359.83 434.07,359.36 434.71,358.89 435.69,358.43 436.98,357.96 438.28,357.96 439.58,357.50 439.90,357.03 441.52,356.56 441.84,356.10 442.49,355.63 442.82,355.16 443.46,354.70 443.79,353.30 445.41,352.83 446.71,352.37 448.33,351.90 452.86,350.97 453.19,350.50 453.51,350.50 453.84,350.04 454.81,349.57 455.13,349.10 455.46,348.64 455.78,347.70 457.08,347.24 457.73,346.31 458.05,344.91 459.02,344.91 459.35,344.91 459.99,343.97 461.94,343.51 462.26,342.58 462.59,342.11 463.88,341.64 466.15,341.18 466.48,340.71 467.12,340.24 469.39,339.78 471.01,339.31 472.63,339.31 475.55,339.31 476.85,338.84 477.17,338.38 477.50,338.38 478.14,337.91 478.47,336.98 478.79,336.51 479.76,336.05 480.09,335.58 481.06,335.11 482.68,334.18 483.01,334.18 483.33,333.25 483.65,332.78 483.98,331.38 484.30,330.45 484.63,329.99 485.27,329.52 485.60,327.65 485.92,327.19 486.89,326.72 487.54,325.79 488.19,325.32 489.49,324.86 490.78,324.39 491.11,323.92 491.43,323.46 491.76,322.99 493.38,322.53 494.67,322.06 495.00,321.59 496.29,320.66 496.62,319.73 496.94,319.73 500.18,319.26 500.51,318.80 501.15,318.33 502.78,317.40 503.42,316.93 504.07,316.46 505.37,316.46 506.02,315.53 506.34,315.53 506.66,313.67 506.99,311.34 508.29,310.87 508.61,310.40 509.26,309.94 509.58,309.47 510.55,309.00 510.88,308.54 512.17,308.07 515.09,307.61 516.06,307.14 517.04,306.67 517.36,305.27 517.68,304.81 518.01,304.34 518.33,303.88 518.98,303.41 521.25,303.41 522.55,302.94 522.87,302.48 523.19,302.01 524.17,301.54 525.46,301.54 526.76,301.08 528.38,300.61 528.70,300.15 532.27,299.68 533.89,299.21 534.54,298.28 535.19,297.81 537.78,297.35 538.43,296.88 538.75,296.41 539.72,295.95 540.37,295.48 541.02,295.48 541.67,295.02 542.32,294.55 543.61,294.08 543.94,293.62 544.26,293.15 545.88,293.15 546.53,292.68 546.85,292.22 547.83,291.29 548.47,290.35 549.12,289.89 550.74,288.95 551.07,288.95 551.39,288.49 552.36,288.02 553.01,287.56 553.66,287.09 555.28,286.62 558.20,286.16 558.52,285.69 559.82,285.22 560.14,284.76 561.44,284.29 561.76,283.83 562.09,281.96 562.73,281.49 563.71,281.03 564.03,280.56 564.35,280.10 565.00,279.63 566.30,279.16 567.27,279.16 567.60,278.70 571.81,278.23 572.13,277.76 573.11,276.83 573.75,276.37 576.02,275.90 576.99,275.43 577.32,274.97 577.64,274.50 580.24,273.57 580.56,273.10 580.88,271.24 581.86,270.77 582.18,270.30 582.83,269.84 585.10,269.37 585.75,268.91 586.39,268.91 587.37,268.44 587.69,267.97 588.66,267.51 594.17,267.04 595.47,266.11 595.79,265.64 597.41,265.18 598.06,265.18 598.39,264.24 598.71,264.24 599.03,263.78 600.01,263.31 600.98,262.84 601.30,262.38 603.25,261.91 603.57,261.45 604.22,260.51 605.19,260.05 605.84,259.58 606.16,259.11 607.46,258.65 608.11,258.65 608.76,258.18 609.73,257.72 610.05,257.25 614.27,256.78 615.24,256.78 616.21,256.32 616.54,255.85 618.16,255.38 618.48,254.45 618.80,253.98 619.13,253.05 620.42,252.59 621.40,252.12 623.67,251.19 624.64,250.72 624.96,250.25 625.61,250.25 626.26,248.86 628.20,248.39 628.53,247.92 631.77,247.46 632.09,246.99 633.06,245.59 633.39,245.13 634.36,244.66 634.69,244.66 635.01,244.19 636.63,243.73 636.95,242.79 637.93,241.86 639.55,241.40 640.84,240.93 641.82,240.93 645.38,240.93 645.70,240.93 647.65,240.93 648.30,240.00 648.95,240.00 650.24,240.00 650.57,240.00 653.16,239.53 656.08,239.06 656.72,238.60 657.05,237.67 657.37,237.20 660.29,236.73 661.59,236.73 661.91,236.27 662.23,235.80 662.88,235.80 664.18,235.33 664.50,234.87 665.15,234.40 666.45,233.94 668.07,233.47 668.39,233.47 669.04,233.00 669.36,232.54 669.69,232.54 670.01,232.07 670.34,231.60 670.98,231.14 674.87,230.67 677.14,230.67 679.41,230.67 680.38,230.67 680.71,230.21 681.03,229.74 682.00,229.74 682.33,229.27 684.60,228.81 684.92,228.34 686.22,228.34 686.54,227.87 686.87,227.41 688.16,226.94 689.13,226.94 690.43,226.01 691.40,226.01 691.73,226.01 693.67,225.54 694.32,224.61 695.29,224.14 695.62,223.68 696.26,223.21 698.21,222.28 698.86,222.28 699.51,221.81 699.83,221.35 700.48,220.88 700.80,220.41 701.77,219.95 702.10,219.02 702.75,218.55 704.04,218.08 704.37,217.62 705.02,216.68 705.66,216.22 706.96,215.75 707.28,215.29 708.58,214.82 709.88,214.35 711.50,214.35 712.47,213.89 712.79,213.42 714.41,213.42 714.74,212.95 716.03,212.49 717.01,211.09 717.66,211.09 718.63,210.62 719.92,210.16 720.25,209.69 720.90,209.22 723.49,208.76 725.43,208.29 727.70,207.82 731.27,207.36 731.59,207.36 731.92,206.89 733.86,205.49 734.51,205.03 734.83,204.56 735.16,204.09 736.13,203.63 736.45,203.16 737.10,202.70 739.69,201.76 741.31,201.30 741.96,201.30 743.58,201.30 744.88,200.83 747.80,200.36 749.09,200.36 751.04,199.90 756.87,199.90 759.14,199.90 759.79,199.43 762.71,198.97 763.35,198.50 764.00,198.03 765.95,197.57 766.59,197.10 767.24,196.17 767.57,196.17 767.89,195.70 770.48,195.24 773.40,194.77 775.02,194.30 776.97,193.84 779.88,193.84 782.48,192.44 783.77,191.97 784.42,191.51 785.72,191.04 787.34,190.57 787.99,190.11 788.63,189.64 790.58,189.17 791.87,188.71 792.20,187.78 795.12,187.78 795.44,187.31 795.76,187.31 796.41,186.84 797.38,186.84 798.68,186.38 800.63,185.91 800.95,185.44 801.92,185.44 804.19,185.44 806.46,184.98 808.40,184.51 811.00,184.05 811.65,183.58 811.97,183.11 812.94,183.11 813.27,182.65 813.59,182.18 814.24,181.25 815.53,180.78 817.80,180.32 818.13,179.85 819.10,178.92 821.04,178.45 822.66,177.98 822.99,177.52 824.29,177.05 825.26,176.59 825.58,176.59 826.88,176.12 827.53,176.12 829.15,175.65 829.47,175.19 829.79,173.79 831.74,173.32 832.71,172.86 833.04,172.39 834.98,172.39 836.28,171.92 836.60,170.52 836.93,170.52 839.19,169.12 840.81,168.66 844.70,168.19 845.03,167.73 846.97,167.26 849.89,166.79 853.13,166.33 855.07,165.39 855.40,164.93 855.72,164.46 856.37,164.00 858.96,163.53 861.23,163.06 864.47,162.60 864.80,162.60 867.71,162.13 868.69,161.66 869.98,161.20 880.03,160.73 881.33,159.80 881.65,159.33 884.89,158.87 886.51,157.93 888.78,157.47 889.43,157.47 889.75,157.00 891.70,156.54 892.99,156.07 893.64,155.60 893.97,155.14 894.29,154.67 895.26,154.20 896.88,153.74 897.21,153.74 898.83,153.27 901.10,152.81 903.37,152.34 904.01,151.87 907.58,151.41 907.90,150.94 909.52,150.47 911.14,150.01 914.06,149.54 915.36,149.08 917.63,149.08 917.95,148.61 918.60,148.61 920.22,148.14 920.54,147.68 921.19,147.21 922.16,146.28 922.49,144.88 922.81,143.95 923.14,143.48 924.43,143.01 924.76,143.01 926.70,142.55 927.03,142.08 928.65,141.62 928.97,141.15 929.62,140.68 930.27,140.68 931.24,140.22 934.48,139.75 940.31,139.28 941.61,138.82 943.23,138.35 944.53,137.89 945.82,137.42 946.80,136.95 947.77,136.02 950.04,136.02 951.66,135.55 952.31,135.55 954.57,135.55 954.90,135.55 955.22,135.09 958.79,134.62 960.73,134.16 961.06,134.16 963.97,133.69 968.83,133.22 970.13,133.22 970.46,132.76 971.43,132.29 975.32,131.82 979.85,131.36 980.18,131.36 984.39,130.89 986.98,130.43 999.62,129.96 1002.54,129.03 1003.51,128.56 1005.13,128.09 1005.46,127.16 1011.29,126.69 1013.88,126.23 1019.07,125.76 1020.69,125.30 1022.96,124.83 1029.52,124.83 1032.43,124.83 1032.75,124.36 1033.41,124.36 1033.73,124.83 1034.70,124.83 1035.02,125.30 1036.00,125.30"/>
<circle cx="90.00" cy="468.00" r="3.8" fill="#ffb50c" stroke="#111827" stroke-width="1"/>
<circle cx="191.96" cy="453.55" r="3.8" fill="#ffb50c" stroke="#111827" stroke-width="1"/>
<circle cx="245.76" cy="440.49" r="3.8" fill="#ffb50c" stroke="#111827" stroke-width="1"/>
<circle cx="282.71" cy="426.04" r="3.8" fill="#ffb50c" stroke="#111827" stroke-width="1"/>
<circle cx="319.66" cy="412.51" r="3.8" fill="#ffb50c" stroke="#111827" stroke-width="1"/>
<circle cx="353.69" cy="399.46" r="3.8" fill="#ffb50c" stroke="#111827" stroke-width="1"/>
<circle cx="394.85" cy="381.74" r="3.8" fill="#ffb50c" stroke="#111827" stroke-width="1"/>
<circle cx="426.94" cy="364.02" r="3.8" fill="#ffb50c" stroke="#111827" stroke-width="1"/>
<circle cx="455.13" cy="349.10" r="3.8" fill="#ffb50c" stroke="#111827" stroke-width="1"/>
<circle cx="483.01" cy="334.18" r="3.8" fill="#ffb50c" stroke="#111827" stroke-width="1"/>
<circle cx="506.02" cy="315.53" r="3.8" fill="#ffb50c" stroke="#111827" stroke-width="1"/>
<circle cx="534.54" cy="298.28" r="3.8" fill="#ffb50c" stroke="#111827" stroke-width="1"/>
<circle cx="561.44" cy="284.29" r="3.8" fill="#ffb50c" stroke="#111827" stroke-width="1"/>
<circle cx="588.66" cy="267.51" r="3.8" fill="#ffb50c" stroke="#111827" stroke-width="1"/>
<circle cx="619.13" cy="253.05" r="3.8" fill="#ffb50c" stroke="#111827" stroke-width="1"/>
<circle cx="653.16" cy="239.53" r="3.8" fill="#ffb50c" stroke="#111827" stroke-width="1"/>
<circle cx="684.60" cy="228.81" r="3.8" fill="#ffb50c" stroke="#111827" stroke-width="1"/>
<circle cx="708.58" cy="214.82" r="3.8" fill="#ffb50c" stroke="#111827" stroke-width="1"/>
<circle cx="743.58" cy="201.30" r="3.8" fill="#ffb50c" stroke="#111827" stroke-width="1"/>
<circle cx="792.20" cy="187.78" r="3.8" fill="#ffb50c" stroke="#111827" stroke-width="1"/>
<circle cx="826.88" cy="176.12" r="3.8" fill="#ffb50c" stroke="#111827" stroke-width="1"/>
<circle cx="880.03" cy="160.73" r="3.8" fill="#ffb50c" stroke="#111827" stroke-width="1"/>
<circle cx="920.54" cy="147.68" r="3.8" fill="#ffb50c" stroke="#111827" stroke-width="1"/>
<circle cx="960.73" cy="134.16" r="3.8" fill="#ffb50c" stroke="#111827" stroke-width="1"/>
<circle cx="1036.00" cy="125.30" r="3.8" fill="#ffb50c" stroke="#111827" stroke-width="1"/>
<text x="1028.00" y="115.30" text-anchor="end" fill="#ffb50c" font-size="12" font-family="-apple-system,BlinkMacSystemFont,Segoe UI,Helvetica,Arial,sans-serif">735</text>
<rect x="90.00" y="514.00" width="14" height="14" fill="url(#repo-0)" rx="3"/>
<text x="112.00" y="526.00" fill="#3bf2af" font-size="13" font-family="-apple-system,BlinkMacSystemFont,Segoe UI,Helvetica,Arial,sans-serif">bavix/gripmock</text>
<rect x="280.00" y="514.00" width="14" height="14" fill="url(#repo-1)" rx="3"/>
<text x="302.00" y="526.00" fill="#ffb50c" font-size="13" font-family="-apple-system,BlinkMacSystemFont,Segoe UI,Helvetica,Arial,sans-serif">tokopedia/gripmock</text>
<text x="1036.00" y="526.00" text-anchor="end" fill="#9ca3af" font-size="12" font-family="-apple-system,BlinkMacSystemFont,Segoe UI,Helvetica,Arial,sans-serif">Source: https://github.com/bavix/artifact-stats/blob/master/stats/github.csv</text>
</svg>