<svg xmlns="http://www.w3.org/2000/svg" width="1100" height="560" viewBox="0 0 1100 560">
<defs>
<linearGradient id="bg" x1="0" y1="0" x2="1" y2="1"><stop offset="0%" stop-color="#0b1220"/><stop offset="100%" stop-color="#111827"/></linearGradient>
<linearGradient id="repo-0" x1="0" y1="0" x2="0" y2="1"><stop offset="0%" stop-color="#34d399"/><stop offset="100%" stop-color="#059669"/></linearGradient>
<linearGradient id="repo-1" x1="0" y1="0" x2="0" y2="1"><stop offset="0%" stop-color="#f59e0b"/><stop offset="100%" stop-color="#d97706"/></linearGradient>
</defs>
<rect x="0" y="0" width="1100" height="560" fill="url(#bg)" rx="16"/>
<text x="90" y="44" fill="#f9fafb" font-size="28" font-family="-apple-system,BlinkMacSystemFont,Segoe UI,Helvetica,Arial,sans-serif" font-weight="700">GripMock GitHub Metrics - Forks</text>
<text x="90" y="70" fill="#9ca3af" font-size="16" font-family="-apple-system,BlinkMacSystemFont,Segoe UI,Helvetica,Arial,sans-serif">GitHub forks by snapshot date</text>
<line x1="90" y1="90.00" x2="1036" y2="90.00" stroke="#1f2937" stroke-width="1"/>
<text x="80" y="95.00" text-anchor="end" fill="#9ca3af" font-size="12" font-family="-apple-system,BlinkMacSystemFont,Segoe UI,Helvetica,Arial,sans-serif">185</text>
<line x1="90" y1="153.00" x2="1036" y2="153.00" stroke="#1f2937" stroke-width="1"/>
<text x="80" y="158.00" text-anchor="end" fill="#9ca3af" font-size="12" font-family="-apple-system,BlinkMacSystemFont,Segoe UI,Helvetica,Arial,sans-serif">154</text>
<line x1="90" y1="216.00" x2="1036" y2="216.00" stroke="#1f2937" stroke-width="1"/>
<text x="80" y="221.00" text-anchor="end" fill="#9ca3af" font-size="12" font-family="-apple-system,BlinkMacSystemFont,Segoe UI,Helvetica,Arial,sans-serif">123</text>
<line x1="90" y1="279.00" x2="1036" y2="279.00" stroke="#1f2937" stroke-width="1"/>
<text x="80" y="284.00" text-anchor="end" fill="#9ca3af" font-size="12" font-family="-apple-system,BlinkMacSystemFont,Segoe UI,Helvetica,Arial,sans-serif">92</text>
<line x1="90" y1="342.00" x2="1036" y2="342.00" stroke="#1f2937" stroke-width="1"/>
<text x="80" y="347.00" text-anchor="end" fill="#9ca3af" font-size="12" font-family="-apple-system,BlinkMacSystemFont,Segoe UI,Helvetica,Arial,sans-serif">62</text>
<line x1="90" y1="405.00" x2="1036" y2="405.00" stroke="#1f2937" stroke-width="1"/>
<text x="80" y="410.00" text-anchor="end" fill="#9ca3af" font-size="12" font-family="-apple-system,BlinkMacSystemFont,Segoe UI,Helvetica,Arial,sans-serif">31</text>
<line x1="90" y1="468.00" x2="1036" y2="468.00" stroke="#1f2937" stroke-width="1"/>
<text x="80" y="473.00" text-anchor="end" fill="#9ca3af" font-size="12" font-family="-apple-system,BlinkMacSystemFont,Segoe UI,Helvetica,Arial,sans-serif">0</text>
<line x1="90" y1="468" x2="1036" y2="468" stroke="#4b5563" stroke-width="1.4"/>
<line x1="90" y1="90" x2="90" y2="468" stroke="#4b5563" stroke-width="1.4"/>
<line x1="90.00" y1="468" x2="90.00" y2="474" stroke="#6b7280" stroke-width="1"/>
<text x="90.00" y="494" text-anchor="start" fill="#9ca3af" font-size="12" font-family="-apple-system,BlinkMacSystemFont,Segoe UI,Helvetica,Arial,sans-serif">2018-04-24</text>
<line x1="279.20" y1="468" x2="279.20" y2="474" stroke="#6b7280" stroke-width="1"/>
<text x="279.20" y="494" text-anchor="middle" fill="#9ca3af" font-size="12" font-family="-apple-system,BlinkMacSystemFont,Segoe UI,Helvetica,Arial,sans-serif">2019-11-28</text>
<line x1="468.40" y1="468" x2="468.40" y2="474" stroke="#6b7280" stroke-width="1"/>
<text x="468.40" y="494" text-anchor="middle" fill="#9ca3af" font-size="12" font-family="-apple-system,BlinkMacSystemFont,Segoe UI,Helvetica,Arial,sans-serif">2021-07-03</text>
<line x1="657.60" y1="468" x2="657.60" y2="474" stroke="#6b7280" stroke-width="1"/>
<text x="657.60" y="494" text-anchor="middle" fill="#9ca3af" font-size="12" font-family="-apple-system,BlinkMacSystemFont,Segoe UI,Helvetica,Arial,sans-serif">2023-02-06</text>
<line x1="846.80" y1="468" x2="846.80" y2="474" stroke="#6b7280" stroke-width="1"/>
<text x="846.80" y="494" text-anchor="middle" fill="#9ca3af" font-size="12" font-family="-apple-system,BlinkMacSystemFont,Segoe UI,Helvetica,Arial,sans-serif">2024-09-12</text>
<line x1="1036.00" y1="468" x2="1036.00" y2="474" stroke="#6b7280" stroke-width="1"/>
<text x="1036.00" y="494" text-anchor="end" fill="#9ca3af" font-size="12" font-family="-apple-system,BlinkMacSystemFont,Segoe UI,Helvetica,Arial,sans-serif">2026-04-18</text>
<polyline fill="none" stroke="url(#repo-0)" stroke-width="4" stroke-linecap="round" stroke-linejoin="round" points="719.41,468.00 726.09,468.00 739.07,468.00 752.69,468.00 754.64,468.00 757.89,468.00 769.56,468.00 771.84,468.00 777.35,468.00 777.68,468.00 782.54,468.00 790.33,468.00 802.66,468.00 805.90,468.00 810.12,468.00 813.69,468.00 828.61,468.00 833.15,468.00 833.80,468.00 835.10,468.00 841.27,468.00 854.89,468.00 857.81,468.00 864.62,468.00 870.14,468.00 870.79,468.00 871.44,468.00 891.55,468.00 894.15,468.00 894.80,468.00 900.96,468.00 901.61,468.00 905.50,465.95 906.80,465.95 907.13,465.95 907.45,465.95 910.37,463.91 911.99,463.91 913.61,463.91 918.81,461.86 923.35,459.82 924.97,459.82 925.62,457.77 932.43,457.77 936.33,457.77 948.01,457.77 950.28,457.77 950.93,455.73 952.87,455.73 954.82,455.73 957.74,453.68 962.93,453.68 969.74,453.68 973.96,453.68 985.32,453.68 987.59,453.68 992.45,453.68 992.78,453.68 993.75,453.68 996.35,453.68 996.67,451.64 1005.43,451.64 1012.24,451.64 1012.89,451.64 1015.16,451.64 1021.65,451.64 1023.92,451.64 1025.55,451.64 1027.17,451.64 1030.49,451.64 1031.45,451.64 1031.78,451.64 1032.43,451.64 1032.76,451.64 1033.08,451.64 1036.00,451.64"/>
<circle cx="719.41" cy="468.00" r="3.8" fill="#3bf2af" stroke="#111827" stroke-width="1"/>
<circle cx="752.69" cy="468.00" r="3.8" fill="#3bf2af" stroke="#111827" stroke-width="1"/>
<circle cx="769.56" cy="468.00" r="3.8" fill="#3bf2af" stroke="#111827" stroke-width="1"/>
<circle cx="777.68" cy="468.00" r="3.8" fill="#3bf2af" stroke="#111827" stroke-width="1"/>
<circle cx="802.66" cy="468.00" r="3.8" fill="#3bf2af" stroke="#111827" stroke-width="1"/>
<circle cx="813.69" cy="468.00" r="3.8" fill="#3bf2af" stroke="#111827" stroke-width="1"/>
<circle cx="833.80" cy="468.00" r="3.8" fill="#3bf2af" stroke="#111827" stroke-width="1"/>
<circle cx="854.89" cy="468.00" r="3.8" fill="#3bf2af" stroke="#111827" stroke-width="1"/>
<circle cx="870.14" cy="468.00" r="3.8" fill="#3bf2af" stroke="#111827" stroke-width="1"/>
<circle cx="891.55" cy="468.00" r="3.8" fill="#3bf2af" stroke="#111827" stroke-width="1"/>
<circle cx="900.96" cy="468.00" r="3.8" fill="#3bf2af" stroke="#111827" stroke-width="1"/>
<circle cx="906.80" cy="465.95" r="3.8" fill="#3bf2af" stroke="#111827" stroke-width="1"/>
<circle cx="910.37" cy="463.91" r="3.8" fill="#3bf2af" stroke="#111827" stroke-width="1"/>
<circle cx="918.81" cy="461.86" r="3.8" fill="#3bf2af" stroke="#111827" stroke-width="1"/>
<circle cx="925.62" cy="457.77" r="3.8" fill="#3bf2af" stroke="#111827" stroke-width="1"/>
<circle cx="948.01" cy="457.77" r="3.8" fill="#3bf2af" stroke="#111827" stroke-width="1"/>
<circle cx="952.87" cy="455.73" r="3.8" fill="#3bf2af" stroke="#111827" stroke-width="1"/>
<circle cx="962.93" cy="453.68" r="3.8" fill="#3bf2af" stroke="#111827" stroke-width="1"/>
<circle cx="985.32" cy="453.68" r="3.8" fill="#3bf2af" stroke="#111827" stroke-width="1"/>
<circle cx="992.78" cy="453.68" r="3.8" fill="#3bf2af" stroke="#111827" stroke-width="1"/>
<circle cx="996.67" cy="451.64" r="3.8" fill="#3bf2af" stroke="#111827" stroke-width="1"/>
<circle cx="1012.89" cy="451.64" r="3.8" fill="#3bf2af" stroke="#111827" stroke-width="1"/>
<circle cx="1023.92" cy="451.64" r="3.8" fill="#3bf2af" stroke="#111827" stroke-width="1"/>
<circle cx="1030.49" cy="451.64" r="3.8" fill="#3bf2af" stroke="#111827" stroke-width="1"/>
<circle cx="1032.43" cy="451.64" r="3.8" fill="#3bf2af" stroke="#111827" stroke-width="1"/>
<circle cx="1036.00" cy="451.64" r="3.8" fill="#3bf2af" stroke="#111827" stroke-width="1"/>
<text x="1028.00" y="441.64" text-anchor="end" fill="#3bf2af" font-size="12" font-family="-apple-system,BlinkMacSystemFont,Segoe UI,Helvetica,Arial,sans-serif">8</text>
<polyline fill="none" stroke="url(#repo-1)" stroke-width="4" stroke-linecap="round" stroke-linejoin="round" points="90.00,468.00 91.82,468.00 92.46,468.00 96.03,468.00 99.60,468.00 136.59,468.00 137.56,465.95 143.40,463.91 149.24,463.91 153.78,461.86 157.35,461.86 158.00,461.86 158.33,461.86 158.65,461.86 160.27,461.86 160.92,461.86 165.14,459.82 165.46,459.82 169.36,459.82 170.33,459.82 170.65,459.82 172.28,459.82 173.90,459.82 175.84,459.82 176.82,459.82 182.01,459.82 184.60,459.82 186.23,459.82 186.55,459.82 191.74,459.82 192.07,459.82 192.72,457.77 195.96,457.77 196.61,457.77 196.93,455.73 197.26,453.68 203.10,453.68 204.72,451.64 210.88,451.64 212.18,451.64 212.83,449.59 215.43,447.55 218.35,447.55 222.24,445.50 222.56,445.50 224.83,445.50 227.11,445.50 230.35,445.50 231.32,445.50 233.59,445.50 235.87,445.50 237.81,445.50 238.14,445.50 238.46,445.50 241.06,445.50 241.71,445.50 242.35,445.50 242.68,443.45 243.00,441.41 243.33,441.41 245.92,441.41 246.57,441.41 249.17,439.36 254.68,439.36 255.33,437.32 255.66,437.32 255.98,437.32 256.63,433.23 257.93,433.23 258.25,433.23 260.20,433.23 260.52,433.23 262.79,433.23 263.77,433.23 264.42,433.23 265.39,431.18 267.01,431.18 267.34,429.14 268.31,429.14 271.23,429.14 274.80,429.14 275.77,429.14 276.74,429.14 277.07,429.14 278.37,429.14 278.69,429.14 279.34,429.14 280.31,429.14 281.94,429.14 282.58,429.14 282.91,429.14 283.23,429.14 284.86,429.14 285.83,429.14 286.48,429.14 287.78,427.09 288.10,425.05 289.72,425.05 293.29,425.05 295.24,425.05 296.86,423.00 297.18,423.00 299.46,423.00 301.08,423.00 301.40,420.95 303.35,420.95 303.67,420.95 304.32,418.91 305.30,416.86 305.62,416.86 305.94,416.86 306.27,416.86 310.81,414.82 314.70,414.82 315.03,414.82 315.68,414.82 316.97,414.82 317.30,414.82 318.92,412.77 319.57,410.73 319.89,410.73 320.22,410.73 320.54,410.73 322.17,410.73 325.41,408.68 326.71,408.68 327.03,406.64 327.68,406.64 328.01,404.59 328.65,402.55 329.30,402.55 329.95,400.50 331.25,398.45 331.90,398.45 333.85,398.45 334.17,398.45 335.47,398.45 337.41,398.45 338.71,398.45 340.01,396.41 340.33,396.41 340.98,396.41 341.96,396.41 342.93,396.41 344.55,396.41 346.17,396.41 347.80,396.41 350.72,394.36 353.31,394.36 353.64,394.36 353.96,394.36 358.83,394.36 359.80,394.36 360.77,394.36 361.10,394.36 362.07,394.36 364.34,394.36 364.67,394.36 366.29,394.36 368.24,392.32 371.48,392.32 372.45,392.32 373.43,392.32 374.72,392.32 375.37,392.32 375.70,392.32 376.35,390.27 377.97,390.27 379.27,390.27 383.48,388.23 385.11,388.23 386.08,388.23 389.00,386.18 389.65,384.14 389.97,384.14 390.30,384.14 391.92,384.14 392.89,384.14 394.19,384.14 394.52,384.14 395.16,384.14 397.44,384.14 397.76,384.14 398.41,384.14 400.68,384.14 401.33,384.14 402.63,384.14 403.60,382.09 403.92,382.09 404.25,382.09 408.14,382.09 408.79,382.09 410.09,382.09 410.41,382.09 411.71,382.09 413.01,382.09 413.33,382.09 413.66,382.09 415.28,382.09 415.93,382.09 417.55,380.05 418.85,378.00 419.82,378.00 421.77,378.00 423.07,378.00 424.69,378.00 425.01,378.00 425.66,378.00 426.31,378.00 426.96,378.00 427.28,375.95 428.26,373.91 428.58,373.91 428.91,373.91 429.23,371.86 430.85,371.86 431.50,369.82 432.80,369.82 433.45,369.82 434.42,369.82 435.07,369.82 436.04,369.82 437.34,369.82 438.64,367.77 439.94,365.73 440.26,365.73 441.88,365.73 442.21,365.73 442.86,365.73 443.18,365.73 443.83,365.73 444.15,365.73 445.78,365.73 447.07,365.73 448.70,363.68 453.24,363.68 453.56,363.68 453.89,361.64 454.21,361.64 455.19,357.55 455.51,357.55 455.83,357.55 456.16,357.55 457.46,355.50 458.11,355.50 458.43,355.50 459.40,353.45 459.73,351.41 460.38,351.41 462.32,351.41 462.65,351.41 462.97,351.41 464.27,351.41 466.54,351.41 466.86,351.41 467.51,351.41 469.78,351.41 471.41,351.41 473.03,349.36 475.95,347.32 477.25,347.32 477.57,347.32 477.90,345.27 478.54,345.27 478.87,343.23 479.19,343.23 480.17,343.23 480.49,343.23 481.46,343.23 483.09,343.23 483.41,339.14 483.74,339.14 484.06,339.14 484.38,339.14 484.71,339.14 485.03,339.14 485.68,339.14 486.01,339.14 486.33,335.05 487.30,335.05 487.95,335.05 488.60,335.05 489.90,335.05 491.20,335.05 491.52,335.05 491.85,333.00 492.17,330.95 493.79,330.95 495.09,330.95 495.42,330.95 496.71,330.95 497.04,330.95 497.36,328.91 500.61,328.91 500.93,328.91 501.58,328.91 503.20,328.91 503.85,328.91 504.50,328.91 505.80,326.86 506.45,326.86 506.77,324.82 507.10,324.82 507.42,322.77 508.72,322.77 509.04,322.77 509.69,322.77 510.02,322.77 510.99,322.77 511.31,322.77 512.61,322.77 515.53,322.77 516.50,322.77 517.48,322.77 517.80,320.73 518.13,320.73 518.45,318.68 518.77,318.68 519.42,318.68 521.69,316.64 522.99,316.64 523.32,316.64 523.64,316.64 524.61,316.64 525.91,314.59 527.21,314.59 528.83,314.59 529.16,314.59 532.73,314.59 534.35,314.59 535.00,314.59 535.65,314.59 538.24,314.59 538.89,314.59 539.21,314.59 540.19,314.59 540.84,314.59 541.49,312.55 542.13,312.55 542.78,312.55 544.08,312.55 544.41,312.55 544.73,312.55 546.35,310.50 547.00,310.50 547.33,310.50 548.30,310.50 548.95,310.50 549.60,310.50 551.22,310.50 551.54,308.45 551.87,308.45 552.84,308.45 553.49,306.41 554.14,306.41 555.76,306.41 558.68,306.41 559.01,306.41 560.30,306.41 560.63,306.41 561.93,306.41 562.25,306.41 562.57,304.36 563.22,304.36 564.20,304.36 564.52,304.36 564.84,304.36 565.49,304.36 566.79,304.36 567.76,302.32 568.09,302.32 572.31,302.32 572.63,302.32 573.60,302.32 574.25,302.32 576.52,302.32 577.50,300.27 577.82,300.27 578.15,300.27 580.74,300.27 581.07,300.27 581.39,300.27 582.36,300.27 582.69,300.27 583.34,300.27 585.61,300.27 586.26,300.27 586.91,296.18 587.88,296.18 588.20,296.18 589.18,296.18 594.69,296.18 595.99,296.18 596.32,296.18 597.94,296.18 598.59,294.14 598.91,294.14 599.24,292.09 599.56,292.09 600.53,290.05 601.51,290.05 601.83,290.05 603.78,290.05 604.10,290.05 604.75,290.05 605.72,290.05 606.37,290.05 606.70,290.05 608.00,290.05 608.64,288.00 609.29,288.00 610.27,288.00 610.59,288.00 614.81,288.00 615.78,285.95 616.75,285.95 617.08,285.95 618.70,285.95 619.03,285.95 619.35,285.95 619.67,285.95 620.97,285.95 621.95,285.95 624.22,285.95 625.19,285.95 625.51,285.95 626.16,283.91 626.81,283.91 628.76,283.91 629.08,283.91 632.33,283.91 632.65,283.91 633.63,283.91 633.95,283.91 634.92,283.91 635.25,279.82 635.57,279.82 637.19,279.82 637.52,279.82 638.49,279.82 640.11,279.82 641.41,279.82 642.39,277.77 645.95,275.73 646.28,273.68 648.23,271.64 648.87,271.64 649.52,269.59 650.82,267.55 651.15,265.50 653.74,265.50 656.66,265.50 657.31,265.50 657.63,263.45 657.96,263.45 660.88,261.41 662.18,259.36 662.50,259.36 662.82,259.36 663.47,257.32 664.77,257.32 665.10,257.32 665.74,257.32 667.04,257.32 668.66,257.32 668.99,255.27 669.64,255.27 669.96,255.27 670.29,253.23 670.61,253.23 670.94,253.23 671.58,253.23 675.48,253.23 677.75,251.18 680.02,249.14 680.99,247.09 681.32,245.05 681.64,245.05 682.62,243.00 682.94,243.00 685.21,240.95 685.54,240.95 686.83,238.91 687.16,238.91 687.48,238.91 688.78,238.91 689.75,236.86 691.05,236.86 692.02,234.82 692.35,232.77 694.30,232.77 694.94,232.77 695.92,232.77 696.24,232.77 696.89,232.77 698.84,230.73 699.49,228.68 700.14,228.68 700.46,228.68 701.11,228.68 701.43,228.68 702.41,228.68 702.73,228.68 703.38,228.68 704.68,228.68 705.00,228.68 705.65,228.68 706.30,228.68 707.60,228.68 707.92,226.64 709.22,226.64 710.52,226.64 712.14,224.59 713.11,224.59 713.44,224.59 715.06,222.55 715.38,222.55 716.68,222.55 717.65,222.55 718.30,220.50 719.28,220.50 720.57,220.50 720.90,220.50 721.55,220.50 724.14,220.50 726.09,218.45 728.36,218.45 731.93,218.45 732.25,216.41 732.58,216.41 734.53,216.41 735.17,216.41 735.50,216.41 735.82,214.36 736.80,214.36 737.12,212.32 737.77,212.32 740.37,212.32 741.99,212.32 742.64,210.27 744.26,208.23 745.56,208.23 748.48,206.18 749.77,204.14 751.72,204.14 757.56,202.09 759.83,200.05 760.48,200.05 763.40,200.05 764.05,200.05 764.70,200.05 766.64,200.05 767.29,200.05 767.94,200.05 768.27,198.00 768.59,198.00 771.19,198.00 774.11,198.00 775.73,198.00 777.68,198.00 780.60,195.95 783.19,195.95 784.49,195.95 785.14,195.95 786.44,195.95 788.06,195.95 788.71,195.95 789.36,195.95 791.30,195.95 792.60,195.95 792.92,195.95 795.84,193.91 796.17,193.91 796.49,191.86 797.14,191.86 798.12,189.82 799.41,189.82 801.36,189.82 801.68,189.82 802.66,187.77 804.93,185.73 807.20,185.73 809.15,185.73 811.74,185.73 812.39,185.73 812.71,185.73 813.69,183.68 814.01,183.68 814.34,183.68 814.99,183.68 816.28,181.64 818.55,181.64 818.88,179.59 819.85,179.59 821.80,179.59 823.42,179.59 823.75,179.59 825.04,179.59 826.02,179.59 826.34,177.55 827.64,177.55 828.29,175.50 829.91,175.50 830.23,173.45 830.56,173.45 832.51,173.45 833.48,173.45 833.80,173.45 835.75,171.41 837.05,171.41 837.37,171.41 837.70,169.36 839.97,169.36 841.59,169.36 845.48,169.36 845.81,169.36 847.75,169.36 850.67,169.36 853.92,169.36 855.87,169.36 856.19,169.36 856.51,169.36 857.16,169.36 859.76,169.36 862.03,169.36 865.27,169.36 865.60,167.32 868.52,167.32 869.49,167.32 870.79,167.32 880.85,167.32 882.14,167.32 882.47,167.32 885.71,167.32 887.34,167.32 889.61,167.32 890.26,165.27 890.58,165.27 892.53,165.27 893.82,165.27 894.47,165.27 894.80,165.27 895.12,165.27 896.10,165.27 897.72,165.27 898.04,163.23 899.66,163.23 901.94,163.23 904.21,163.23 904.86,163.23 908.42,163.23 908.75,163.23 910.37,163.23 911.99,163.23 914.91,163.23 916.21,163.23 918.48,159.14 918.81,159.14 919.45,157.09 921.08,157.09 921.40,157.09 922.05,157.09 923.02,157.09 923.35,157.09 923.67,157.09 924.00,157.09 925.29,157.09 925.62,155.05 927.57,155.05 927.89,155.05 929.51,155.05 929.84,155.05 930.49,155.05 931.13,153.00 932.11,153.00 935.35,153.00 941.19,153.00 942.49,153.00 944.11,150.95 945.41,150.95 946.71,150.95 947.68,150.95 948.65,150.95 950.93,148.91 952.55,148.91 953.20,146.86 955.47,144.82 955.79,142.77 956.12,142.77 959.69,142.77 961.63,142.77 961.96,140.73 964.88,140.73 969.74,140.73 971.04,138.68 971.36,138.68 972.34,138.68 976.23,138.68 980.77,138.68 981.10,136.64 985.32,136.64 987.91,136.64 1000.56,136.64 1003.48,136.64 1004.46,136.64 1006.08,136.64 1006.40,136.64 1012.24,136.64 1014.84,136.64 1020.03,136.64 1021.65,136.64 1023.92,136.64 1030.49,124.36 1033.41,124.36 1033.73,124.36 1034.39,124.36 1034.71,124.36 1035.68,124.36 1036.00,124.36"/>
<circle cx="90.00" cy="468.00" r="3.8" fill="#ffb50c" stroke="#111827" stroke-width="1"/>
<circle cx="191.74" cy="459.82" r="3.8" fill="#ffb50c" stroke="#111827" stroke-width="1"/>
<circle cx="243.00" cy="441.41" r="3.8" fill="#ffb50c" stroke="#111827" stroke-width="1"/>
<circle cx="280.31" cy="429.14" r="3.8" fill="#ffb50c" stroke="#111827" stroke-width="1"/>
<circle cx="316.97" cy="414.82" r="3.8" fill="#ffb50c" stroke="#111827" stroke-width="1"/>
<circle cx="346.17" cy="396.41" r="3.8" fill="#ffb50c" stroke="#111827" stroke-width="1"/>
<circle cx="389.97" cy="384.14" r="3.8" fill="#ffb50c" stroke="#111827" stroke-width="1"/>
<circle cx="421.77" cy="378.00" r="3.8" fill="#ffb50c" stroke="#111827" stroke-width="1"/>
<circle cx="445.78" cy="365.73" r="3.8" fill="#ffb50c" stroke="#111827" stroke-width="1"/>
<circle cx="477.57" cy="347.32" r="3.8" fill="#ffb50c" stroke="#111827" stroke-width="1"/>
<circle cx="496.71" cy="330.95" r="3.8" fill="#ffb50c" stroke="#111827" stroke-width="1"/>
<circle cx="521.69" cy="316.64" r="3.8" fill="#ffb50c" stroke="#111827" stroke-width="1"/>
<circle cx="549.60" cy="310.50" r="3.8" fill="#ffb50c" stroke="#111827" stroke-width="1"/>
<circle cx="577.82" cy="300.27" r="3.8" fill="#ffb50c" stroke="#111827" stroke-width="1"/>
<circle cx="606.37" cy="290.05" r="3.8" fill="#ffb50c" stroke="#111827" stroke-width="1"/>
<circle cx="635.25" cy="279.82" r="3.8" fill="#ffb50c" stroke="#111827" stroke-width="1"/>
<circle cx="668.66" cy="257.32" r="3.8" fill="#ffb50c" stroke="#111827" stroke-width="1"/>
<circle cx="696.24" cy="232.77" r="3.8" fill="#ffb50c" stroke="#111827" stroke-width="1"/>
<circle cx="720.90" cy="220.50" r="3.8" fill="#ffb50c" stroke="#111827" stroke-width="1"/>
<circle cx="766.64" cy="200.05" r="3.8" fill="#ffb50c" stroke="#111827" stroke-width="1"/>
<circle cx="804.93" cy="185.73" r="3.8" fill="#ffb50c" stroke="#111827" stroke-width="1"/>
<circle cx="837.05" cy="171.41" r="3.8" fill="#ffb50c" stroke="#111827" stroke-width="1"/>
<circle cx="892.53" cy="165.27" r="3.8" fill="#ffb50c" stroke="#111827" stroke-width="1"/>
<circle cx="925.62" cy="155.05" r="3.8" fill="#ffb50c" stroke="#111827" stroke-width="1"/>
<circle cx="972.34" cy="138.68" r="3.8" fill="#ffb50c" stroke="#111827" stroke-width="1"/>
<circle cx="1036.00" cy="124.36" r="3.8" fill="#ffb50c" stroke="#111827" stroke-width="1"/>
<text x="1028.00" y="114.36" text-anchor="end" fill="#ffb50c" font-size="12" font-family="-apple-system,BlinkMacSystemFont,Segoe UI,Helvetica,Arial,sans-serif">168</text>
<rect x="90.00" y="514.00" width="14" height="14" fill="url(#repo-0)" rx="3"/>
<text x="112.00" y="526.00" fill="#3bf2af" font-size="13" font-family="-apple-system,BlinkMacSystemFont,Segoe UI,Helvetica,Arial,sans-serif">bavix/gripmock</text>
<rect x="280.00" y="514.00" width="14" height="14" fill="url(#repo-1)" rx="3"/>
<text x="302.00" y="526.00" fill="#ffb50c" font-size="13" font-family="-apple-system,BlinkMacSystemFont,Segoe UI,Helvetica,Arial,sans-serif">tokopedia/gripmock</text>
<text x="1036.00" y="526.00" text-anchor="end" fill="#9ca3af" font-size="12" font-family="-apple-system,BlinkMacSystemFont,Segoe UI,Helvetica,Arial,sans-serif">Source: https://github.com/bavix/artifact-stats/blob/master/stats/github.csv</text>
</svg>