<svg xmlns="http://www.w3.org/2000/svg" width="1100" height="560" viewBox="0 0 1100 560">
<defs>
<linearGradient id="bg" x1="0" y1="0" x2="1" y2="1"><stop offset="0%" stop-color="#0b1220"/><stop offset="100%" stop-color="#111827"/></linearGradient>
<linearGradient id="repo-0" x1="0" y1="0" x2="0" y2="1"><stop offset="0%" stop-color="#34d399"/><stop offset="100%" stop-color="#059669"/></linearGradient>
<linearGradient id="repo-1" x1="0" y1="0" x2="0" y2="1"><stop offset="0%" stop-color="#f59e0b"/><stop offset="100%" stop-color="#d97706"/></linearGradient>
</defs>
<rect x="0" y="0" width="1100" height="560" fill="url(#bg)" rx="16"/>
<text x="90" y="44" fill="#f9fafb" font-size="28" font-family="-apple-system,BlinkMacSystemFont,Segoe UI,Helvetica,Arial,sans-serif" font-weight="700">GripMock GitHub Metrics - Forks</text>
<text x="90" y="70" fill="#9ca3af" font-size="16" font-family="-apple-system,BlinkMacSystemFont,Segoe UI,Helvetica,Arial,sans-serif">GitHub forks by snapshot date</text>
<line x1="90" y1="90.0" x2="1036" y2="90.0" stroke="#1f2937" stroke-width="1"/>
<text x="80" y="95.0" text-anchor="end" fill="#9ca3af" font-size="12" font-family="-apple-system,BlinkMacSystemFont,Segoe UI,Helvetica,Arial,sans-serif">185</text>
<line x1="90" y1="153.0" x2="1036" y2="153.0" stroke="#1f2937" stroke-width="1"/>
<text x="80" y="158.0" text-anchor="end" fill="#9ca3af" font-size="12" font-family="-apple-system,BlinkMacSystemFont,Segoe UI,Helvetica,Arial,sans-serif">154</text>
<line x1="90" y1="216.0" x2="1036" y2="216.0" stroke="#1f2937" stroke-width="1"/>
<text x="80" y="221.0" text-anchor="end" fill="#9ca3af" font-size="12" font-family="-apple-system,BlinkMacSystemFont,Segoe UI,Helvetica,Arial,sans-serif">123</text>
<line x1="90" y1="279.0" x2="1036" y2="279.0" stroke="#1f2937" stroke-width="1"/>
<text x="80" y="284.0" text-anchor="end" fill="#9ca3af" font-size="12" font-family="-apple-system,BlinkMacSystemFont,Segoe UI,Helvetica,Arial,sans-serif">92</text>
<line x1="90" y1="342.0" x2="1036" y2="342.0" stroke="#1f2937" stroke-width="1"/>
<text x="80" y="347.0" text-anchor="end" fill="#9ca3af" font-size="12" font-family="-apple-system,BlinkMacSystemFont,Segoe UI,Helvetica,Arial,sans-serif">62</text>
<line x1="90" y1="405.0" x2="1036" y2="405.0" stroke="#1f2937" stroke-width="1"/>
<text x="80" y="410.0" text-anchor="end" fill="#9ca3af" font-size="12" font-family="-apple-system,BlinkMacSystemFont,Segoe UI,Helvetica,Arial,sans-serif">31</text>
<line x1="90" y1="468.0" x2="1036" y2="468.0" stroke="#1f2937" stroke-width="1"/>
<text x="80" y="473.0" text-anchor="end" fill="#9ca3af" font-size="12" font-family="-apple-system,BlinkMacSystemFont,Segoe UI,Helvetica,Arial,sans-serif">0</text>
<line x1="90" y1="468" x2="1036" y2="468" stroke="#4b5563" stroke-width="1.4"/>
<line x1="90" y1="90" x2="90" y2="468" stroke="#4b5563" stroke-width="1.4"/>
<line x1="90.0" y1="468" x2="90.0" y2="474" stroke="#6b7280" stroke-width="1"/>
<text x="90.0" y="494" text-anchor="start" fill="#9ca3af" font-size="12" font-family="-apple-system,BlinkMacSystemFont,Segoe UI,Helvetica,Arial,sans-serif">2018-04-24</text>
<line x1="279.2" y1="468" x2="279.2" y2="474" stroke="#6b7280" stroke-width="1"/>
<text x="279.2" y="494" text-anchor="middle" fill="#9ca3af" font-size="12" font-family="-apple-system,BlinkMacSystemFont,Segoe UI,Helvetica,Arial,sans-serif">2019-11-26</text>
<line x1="468.4" y1="468" x2="468.4" y2="474" stroke="#6b7280" stroke-width="1"/>
<text x="468.4" y="494" text-anchor="middle" fill="#9ca3af" font-size="12" font-family="-apple-system,BlinkMacSystemFont,Segoe UI,Helvetica,Arial,sans-serif">2021-06-30</text>
<line x1="657.6" y1="468" x2="657.6" y2="474" stroke="#6b7280" stroke-width="1"/>
<text x="657.6" y="494" text-anchor="middle" fill="#9ca3af" font-size="12" font-family="-apple-system,BlinkMacSystemFont,Segoe UI,Helvetica,Arial,sans-serif">2023-02-01</text>
<line x1="846.8" y1="468" x2="846.8" y2="474" stroke="#6b7280" stroke-width="1"/>
<text x="846.8" y="494" text-anchor="middle" fill="#9ca3af" font-size="12" font-family="-apple-system,BlinkMacSystemFont,Segoe UI,Helvetica,Arial,sans-serif">2024-09-04</text>
<line x1="1036.0" y1="468" x2="1036.0" y2="474" stroke="#6b7280" stroke-width="1"/>
<text x="1036.0" y="494" text-anchor="end" fill="#9ca3af" font-size="12" font-family="-apple-system,BlinkMacSystemFont,Segoe UI,Helvetica,Arial,sans-serif">2026-04-09</text>
<polyline fill="none" stroke="url(#repo-0)" stroke-width="4" stroke-linecap="round" stroke-linejoin="round" points="721.36,468.00 728.06,468.00 741.08,468.00 754.75,468.00 756.70,468.00 759.95,468.00 771.67,468.00 773.95,468.00 779.48,468.00 779.80,468.00 784.69,468.00 792.50,468.00 804.86,468.00 808.12,468.00 812.35,468.00 815.93,468.00 830.90,468.00 835.45,468.00 836.11,468.00 837.41,468.00 843.59,468.00 857.26,468.00 860.19,468.00 867.02,468.00 872.55,468.00 873.21,468.00 873.86,468.00 894.03,468.00 896.64,468.00 897.29,468.00 903.47,468.00 904.12,468.00 908.03,465.95 909.33,465.95 909.66,465.95 909.98,465.95 912.91,463.91 914.54,463.91 916.16,463.91 921.37,461.86 925.93,459.82 927.55,459.82 928.21,457.77 935.04,457.77 938.94,457.77 950.66,457.77 952.94,457.77 953.59,455.73 955.54,455.73 957.49,455.73 960.42,453.68 965.63,453.68 972.47,453.68 976.70,453.68 988.09,453.68 990.36,453.68 995.25,453.68 995.57,453.68 996.55,453.68 999.15,453.68 999.48,451.64 1008.26,451.64 1015.10,451.64 1015.75,451.64 1018.03,451.64 1024.54,451.64 1026.81,451.64 1028.44,451.64 1030.07,451.64 1033.40,451.64 1034.37,451.64 1034.70,451.64 1035.35,451.64 1035.67,451.64 1036.00,451.64"/>
<circle cx="721.36" cy="468.00" r="3.8" fill="#3bf2af" stroke="#111827" stroke-width="1"/>
<circle cx="754.75" cy="468.00" r="3.8" fill="#3bf2af" stroke="#111827" stroke-width="1"/>
<circle cx="771.67" cy="468.00" r="3.8" fill="#3bf2af" stroke="#111827" stroke-width="1"/>
<circle cx="779.80" cy="468.00" r="3.8" fill="#3bf2af" stroke="#111827" stroke-width="1"/>
<circle cx="804.86" cy="468.00" r="3.8" fill="#3bf2af" stroke="#111827" stroke-width="1"/>
<circle cx="815.93" cy="468.00" r="3.8" fill="#3bf2af" stroke="#111827" stroke-width="1"/>
<circle cx="836.11" cy="468.00" r="3.8" fill="#3bf2af" stroke="#111827" stroke-width="1"/>
<circle cx="857.26" cy="468.00" r="3.8" fill="#3bf2af" stroke="#111827" stroke-width="1"/>
<circle cx="872.55" cy="468.00" r="3.8" fill="#3bf2af" stroke="#111827" stroke-width="1"/>
<circle cx="894.03" cy="468.00" r="3.8" fill="#3bf2af" stroke="#111827" stroke-width="1"/>
<circle cx="903.47" cy="468.00" r="3.8" fill="#3bf2af" stroke="#111827" stroke-width="1"/>
<circle cx="909.33" cy="465.95" r="3.8" fill="#3bf2af" stroke="#111827" stroke-width="1"/>
<circle cx="912.91" cy="463.91" r="3.8" fill="#3bf2af" stroke="#111827" stroke-width="1"/>
<circle cx="921.37" cy="461.86" r="3.8" fill="#3bf2af" stroke="#111827" stroke-width="1"/>
<circle cx="928.21" cy="457.77" r="3.8" fill="#3bf2af" stroke="#111827" stroke-width="1"/>
<circle cx="950.66" cy="457.77" r="3.8" fill="#3bf2af" stroke="#111827" stroke-width="1"/>
<circle cx="955.54" cy="455.73" r="3.8" fill="#3bf2af" stroke="#111827" stroke-width="1"/>
<circle cx="965.63" cy="453.68" r="3.8" fill="#3bf2af" stroke="#111827" stroke-width="1"/>
<circle cx="988.09" cy="453.68" r="3.8" fill="#3bf2af" stroke="#111827" stroke-width="1"/>
<circle cx="995.57" cy="453.68" r="3.8" fill="#3bf2af" stroke="#111827" stroke-width="1"/>
<circle cx="999.48" cy="451.64" r="3.8" fill="#3bf2af" stroke="#111827" stroke-width="1"/>
<circle cx="1015.75" cy="451.64" r="3.8" fill="#3bf2af" stroke="#111827" stroke-width="1"/>
<circle cx="1026.81" cy="451.64" r="3.8" fill="#3bf2af" stroke="#111827" stroke-width="1"/>
<circle cx="1033.40" cy="451.64" r="3.8" fill="#3bf2af" stroke="#111827" stroke-width="1"/>
<circle cx="1035.35" cy="451.64" r="3.8" fill="#3bf2af" stroke="#111827" stroke-width="1"/>
<circle cx="1036.00" cy="451.64" r="3.8" fill="#3bf2af" stroke="#111827" stroke-width="1"/>
<text x="1028.0" y="441.6" text-anchor="end" fill="#3bf2af" font-size="12" font-family="-apple-system,BlinkMacSystemFont,Segoe UI,Helvetica,Arial,sans-serif">8</text>
<polyline fill="none" stroke="url(#repo-1)" stroke-width="4" stroke-linecap="round" stroke-linejoin="round" points="90.00,468.00 91.82,468.00 92.47,468.00 96.05,468.00 99.63,468.00 136.73,468.00 137.71,465.95 143.57,463.91 149.42,463.91 153.98,461.86 157.56,461.86 158.21,461.86 158.54,461.86 158.86,461.86 160.49,461.86 161.14,461.86 165.37,459.82 165.70,459.82 169.60,459.82 170.58,459.82 170.90,459.82 172.53,459.82 174.16,459.82 176.11,459.82 177.09,459.82 182.29,459.82 184.90,459.82 186.52,459.82 186.85,459.82 192.06,459.82 192.38,459.82 193.03,457.77 196.29,457.77 196.94,457.77 197.26,455.73 197.59,453.68 203.45,453.68 205.07,451.64 211.26,451.64 212.56,451.64 213.21,449.59 215.81,447.55 218.74,447.55 222.65,445.50 222.97,445.50 225.25,445.50 227.53,445.50 230.78,445.50 231.76,445.50 234.04,445.50 236.32,445.50 238.27,445.50 238.60,445.50 238.92,445.50 241.52,445.50 242.18,445.50 242.83,445.50 243.15,443.45 243.48,441.41 243.80,441.41 246.41,441.41 247.06,441.41 249.66,439.36 255.19,439.36 255.84,437.32 256.17,437.32 256.49,437.32 257.15,433.23 258.45,433.23 258.77,433.23 260.73,433.23 261.05,433.23 263.33,433.23 264.31,433.23 264.96,433.23 265.93,431.18 267.56,431.18 267.88,429.14 268.86,429.14 271.79,429.14 275.37,429.14 276.35,429.14 277.32,429.14 277.65,429.14 278.95,429.14 279.28,429.14 279.93,429.14 280.90,429.14 282.53,429.14 283.18,429.14 283.51,429.14 283.83,429.14 285.46,429.14 286.44,429.14 287.09,429.14 288.39,427.09 288.71,425.05 290.34,425.05 293.92,425.05 295.87,425.05 297.50,423.00 297.83,423.00 300.10,423.00 301.73,423.00 302.06,420.95 304.01,420.95 304.33,420.95 304.99,418.91 305.96,416.86 306.29,416.86 306.61,416.86 306.94,416.86 311.49,414.82 315.40,414.82 315.72,414.82 316.38,414.82 317.68,414.82 318.00,414.82 319.63,412.77 320.28,410.73 320.61,410.73 320.93,410.73 321.26,410.73 322.88,410.73 326.14,408.68 327.44,408.68 327.77,406.64 328.42,406.64 328.74,404.59 329.39,402.55 330.04,402.55 330.70,400.50 332.00,398.45 332.65,398.45 334.60,398.45 334.93,398.45 336.23,398.45 338.18,398.45 339.48,398.45 340.78,396.41 341.11,396.41 341.76,396.41 342.74,396.41 343.71,396.41 345.34,396.41 346.97,396.41 348.59,396.41 351.52,394.36 354.13,394.36 354.45,394.36 354.78,394.36 359.66,394.36 360.64,394.36 361.61,394.36 361.94,394.36 362.91,394.36 365.19,394.36 365.52,394.36 367.14,394.36 369.10,392.32 372.35,392.32 373.33,392.32 374.30,392.32 375.61,392.32 376.26,392.32 376.58,392.32 377.23,390.27 378.86,390.27 380.16,390.27 384.39,388.23 386.02,388.23 387.00,388.23 389.93,386.18 390.58,384.14 390.90,384.14 391.23,384.14 392.85,384.14 393.83,384.14 395.13,384.14 395.46,384.14 396.11,384.14 398.39,384.14 398.71,384.14 399.36,384.14 401.64,384.14 402.29,384.14 403.59,384.14 404.57,382.09 404.90,382.09 405.22,382.09 409.13,382.09 409.78,382.09 411.08,382.09 411.40,382.09 412.71,382.09 414.01,382.09 414.33,382.09 414.66,382.09 416.29,382.09 416.94,382.09 418.56,380.05 419.87,378.00 420.84,378.00 422.79,378.00 424.10,378.00 425.72,378.00 426.05,378.00 426.70,378.00 427.35,378.00 428.00,378.00 428.33,375.95 429.30,373.91 429.63,373.91 429.95,373.91 430.28,371.86 431.91,371.86 432.56,369.82 433.86,369.82 434.51,369.82 435.49,369.82 436.14,369.82 437.11,369.82 438.42,369.82 439.72,367.77 441.02,365.73 441.35,365.73 442.97,365.73 443.30,365.73 443.95,365.73 444.27,365.73 444.92,365.73 445.25,365.73 446.88,365.73 448.18,365.73 449.81,363.68 454.36,363.68 454.69,363.68 455.01,361.64 455.34,361.64 456.32,357.55 456.64,357.55 456.97,357.55 457.29,357.55 458.59,355.50 459.24,355.50 459.57,355.50 460.55,353.45 460.87,351.41 461.52,351.41 463.48,351.41 463.80,351.41 464.13,351.41 465.43,351.41 467.71,351.41 468.03,351.41 468.68,351.41 470.96,351.41 472.59,351.41 474.21,349.36 477.14,347.32 478.45,347.32 478.77,347.32 479.10,345.27 479.75,345.27 480.07,343.23 480.40,343.23 481.37,343.23 481.70,343.23 482.68,343.23 484.30,343.23 484.63,339.14 484.95,339.14 485.28,339.14 485.61,339.14 485.93,339.14 486.26,339.14 486.91,339.14 487.23,339.14 487.56,335.05 488.53,335.05 489.18,335.05 489.84,335.05 491.14,335.05 492.44,335.05 492.76,335.05 493.09,333.00 493.42,330.95 495.04,330.95 496.34,330.95 496.67,330.95 497.97,330.95 498.30,330.95 498.62,328.91 501.88,328.91 502.20,328.91 502.85,328.91 504.48,328.91 505.13,328.91 505.78,328.91 507.08,326.86 507.74,326.86 508.06,324.82 508.39,324.82 508.71,322.77 510.01,322.77 510.34,322.77 510.99,322.77 511.31,322.77 512.29,322.77 512.62,322.77 513.92,322.77 516.85,322.77 517.82,322.77 518.80,322.77 519.13,320.73 519.45,320.73 519.78,318.68 520.10,318.68 520.75,318.68 523.03,316.64 524.33,316.64 524.66,316.64 524.98,316.64 525.96,316.64 527.26,314.59 528.56,314.59 530.19,314.59 530.52,314.59 534.10,314.59 535.72,314.59 536.37,314.59 537.02,314.59 539.63,314.59 540.28,314.59 540.60,314.59 541.58,314.59 542.23,314.59 542.88,312.55 543.53,312.55 544.18,312.55 545.49,312.55 545.81,312.55 546.14,312.55 547.76,310.50 548.42,310.50 548.74,310.50 549.72,310.50 550.37,310.50 551.02,310.50 552.65,310.50 552.97,308.45 553.30,308.45 554.27,308.45 554.92,306.41 555.57,306.41 557.20,306.41 560.13,306.41 560.46,306.41 561.76,306.41 562.08,306.41 563.39,306.41 563.71,306.41 564.04,304.36 564.69,304.36 565.66,304.36 565.99,304.36 566.31,304.36 566.97,304.36 568.27,304.36 569.24,302.32 569.57,302.32 573.80,302.32 574.13,302.32 575.10,302.32 575.75,302.32 578.03,302.32 579.01,300.27 579.33,300.27 579.66,300.27 582.26,300.27 582.59,300.27 582.91,300.27 583.89,300.27 584.21,300.27 584.86,300.27 587.14,300.27 587.79,300.27 588.44,296.18 589.42,296.18 589.75,296.18 590.72,296.18 596.26,296.18 597.56,296.18 597.88,296.18 599.51,296.18 600.16,294.14 600.49,294.14 600.81,292.09 601.14,292.09 602.11,290.05 603.09,290.05 603.41,290.05 605.37,290.05 605.69,290.05 606.34,290.05 607.32,290.05 607.97,290.05 608.30,290.05 609.60,290.05 610.25,288.00 610.90,288.00 611.88,288.00 612.20,288.00 616.43,288.00 617.41,285.95 618.39,285.95 618.71,285.95 620.34,285.95 620.66,285.95 620.99,285.95 621.31,285.95 622.62,285.95 623.59,285.95 625.87,285.95 626.85,285.95 627.17,285.95 627.82,283.91 628.47,283.91 630.43,283.91 630.75,283.91 634.01,283.91 634.33,283.91 635.31,283.91 635.63,283.91 636.61,283.91 636.94,279.82 637.26,279.82 638.89,279.82 639.21,279.82 640.19,279.82 641.82,279.82 643.12,279.82 644.09,277.77 647.67,275.73 648.00,273.68 649.95,271.64 650.60,271.64 651.25,269.59 652.56,267.55 652.88,265.50 655.49,265.50 658.41,265.50 659.07,265.50 659.39,263.45 659.72,263.45 662.65,261.41 663.95,259.36 664.27,259.36 664.60,259.36 665.25,257.32 666.55,257.32 666.88,257.32 667.53,257.32 668.83,257.32 670.46,257.32 670.78,255.27 671.43,255.27 671.76,255.27 672.08,253.23 672.41,253.23 672.73,253.23 673.38,253.23 677.29,253.23 679.57,251.18 681.85,249.14 682.82,247.09 683.15,245.05 683.47,245.05 684.45,243.00 684.78,243.00 687.05,240.95 687.38,240.95 688.68,238.91 689.01,238.91 689.33,238.91 690.63,238.91 691.61,236.86 692.91,236.86 693.89,234.82 694.21,232.77 696.17,232.77 696.82,232.77 697.79,232.77 698.12,232.77 698.77,232.77 700.72,230.73 701.37,228.68 702.02,228.68 702.35,228.68 703.00,228.68 703.33,228.68 704.30,228.68 704.63,228.68 705.28,228.68 706.58,228.68 706.91,228.68 707.56,228.68 708.21,228.68 709.51,228.68 709.83,226.64 711.14,226.64 712.44,226.64 714.06,224.59 715.04,224.59 715.37,224.59 716.99,222.55 717.32,222.55 718.62,222.55 719.60,222.55 720.25,220.50 721.22,220.50 722.53,220.50 722.85,220.50 723.50,220.50 726.11,220.50 728.06,218.45 730.34,218.45 733.92,218.45 734.24,216.41 734.57,216.41 736.52,216.41 737.17,216.41 737.50,216.41 737.82,214.36 738.80,214.36 739.12,212.32 739.77,212.32 742.38,212.32 744.01,212.32 744.66,210.27 746.28,208.23 747.59,208.23 750.51,206.18 751.82,204.14 753.77,204.14 759.63,202.09 761.90,200.05 762.56,200.05 765.48,200.05 766.14,200.05 766.79,200.05 768.74,200.05 769.39,200.05 770.04,200.05 770.37,198.00 770.69,198.00 773.30,198.00 776.22,198.00 777.85,198.00 779.80,198.00 782.73,195.95 785.34,195.95 786.64,195.95 787.29,195.95 788.59,195.95 790.22,195.95 790.87,195.95 791.52,195.95 793.47,195.95 794.77,195.95 795.10,195.95 798.03,193.91 798.35,193.91 798.68,191.86 799.33,191.86 800.31,189.82 801.61,189.82 803.56,189.82 803.89,189.82 804.86,187.77 807.14,185.73 809.42,185.73 811.37,185.73 813.98,185.73 814.63,185.73 814.95,185.73 815.93,183.68 816.25,183.68 816.58,183.68 817.23,183.68 818.53,181.64 820.81,181.64 821.14,179.59 822.11,179.59 824.06,179.59 825.69,179.59 826.02,179.59 827.32,179.59 828.29,179.59 828.62,177.55 829.92,177.55 830.57,175.50 832.20,175.50 832.53,173.45 832.85,173.45 834.80,173.45 835.78,173.45 836.11,173.45 838.06,171.41 839.36,171.41 839.69,171.41 840.01,169.36 842.29,169.36 843.92,169.36 847.82,169.36 848.15,169.36 850.10,169.36 853.03,169.36 856.28,169.36 858.24,169.36 858.56,169.36 858.89,169.36 859.54,169.36 862.14,169.36 864.42,169.36 867.67,169.36 868.00,167.32 870.93,167.32 871.90,167.32 873.21,167.32 883.29,167.32 884.60,167.32 884.92,167.32 888.18,167.32 889.80,167.32 892.08,167.32 892.73,165.27 893.06,165.27 895.01,165.27 896.31,165.27 896.96,165.27 897.29,165.27 897.61,165.27 898.59,165.27 900.22,165.27 900.54,163.23 902.17,163.23 904.45,163.23 906.73,163.23 907.38,163.23 910.96,163.23 911.28,163.23 912.91,163.23 914.54,163.23 917.47,163.23 918.77,163.23 921.05,159.14 921.37,159.14 922.02,157.09 923.65,157.09 923.97,157.09 924.63,157.09 925.60,157.09 925.93,157.09 926.25,157.09 926.58,157.09 927.88,157.09 928.21,155.05 930.16,155.05 930.48,155.05 932.11,155.05 932.44,155.05 933.09,155.05 933.74,153.00 934.71,153.00 937.97,153.00 943.83,153.00 945.13,153.00 946.76,150.95 948.06,150.95 949.36,150.95 950.34,150.95 951.31,150.95 953.59,148.91 955.22,148.91 955.87,146.86 958.15,144.82 958.47,142.77 958.80,142.77 962.38,142.77 964.33,142.77 964.65,140.73 967.58,140.73 972.47,140.73 973.77,138.68 974.09,138.68 975.07,138.68 978.97,138.68 983.53,138.68 983.86,136.64 988.09,136.64 990.69,136.64 1003.38,136.64 1006.31,136.64 1007.29,136.64 1008.91,136.64 1009.24,136.64 1015.10,136.64 1017.70,136.64 1022.91,136.64 1024.54,136.64 1026.81,136.64 1033.40,124.36 1036.00,124.36"/>
<circle cx="90.00" cy="468.00" r="3.8" fill="#ffb50c" stroke="#111827" stroke-width="1"/>
<circle cx="192.06" cy="459.82" r="3.8" fill="#ffb50c" stroke="#111827" stroke-width="1"/>
<circle cx="243.48" cy="441.41" r="3.8" fill="#ffb50c" stroke="#111827" stroke-width="1"/>
<circle cx="280.90" cy="429.14" r="3.8" fill="#ffb50c" stroke="#111827" stroke-width="1"/>
<circle cx="317.68" cy="414.82" r="3.8" fill="#ffb50c" stroke="#111827" stroke-width="1"/>
<circle cx="346.97" cy="396.41" r="3.8" fill="#ffb50c" stroke="#111827" stroke-width="1"/>
<circle cx="390.90" cy="384.14" r="3.8" fill="#ffb50c" stroke="#111827" stroke-width="1"/>
<circle cx="422.79" cy="378.00" r="3.8" fill="#ffb50c" stroke="#111827" stroke-width="1"/>
<circle cx="446.88" cy="365.73" r="3.8" fill="#ffb50c" stroke="#111827" stroke-width="1"/>
<circle cx="478.77" cy="347.32" r="3.8" fill="#ffb50c" stroke="#111827" stroke-width="1"/>
<circle cx="497.97" cy="330.95" r="3.8" fill="#ffb50c" stroke="#111827" stroke-width="1"/>
<circle cx="523.03" cy="316.64" r="3.8" fill="#ffb50c" stroke="#111827" stroke-width="1"/>
<circle cx="551.02" cy="310.50" r="3.8" fill="#ffb50c" stroke="#111827" stroke-width="1"/>
<circle cx="579.33" cy="300.27" r="3.8" fill="#ffb50c" stroke="#111827" stroke-width="1"/>
<circle cx="607.97" cy="290.05" r="3.8" fill="#ffb50c" stroke="#111827" stroke-width="1"/>
<circle cx="636.94" cy="279.82" r="3.8" fill="#ffb50c" stroke="#111827" stroke-width="1"/>
<circle cx="670.46" cy="257.32" r="3.8" fill="#ffb50c" stroke="#111827" stroke-width="1"/>
<circle cx="698.12" cy="232.77" r="3.8" fill="#ffb50c" stroke="#111827" stroke-width="1"/>
<circle cx="722.85" cy="220.50" r="3.8" fill="#ffb50c" stroke="#111827" stroke-width="1"/>
<circle cx="768.74" cy="200.05" r="3.8" fill="#ffb50c" stroke="#111827" stroke-width="1"/>
<circle cx="807.14" cy="185.73" r="3.8" fill="#ffb50c" stroke="#111827" stroke-width="1"/>
<circle cx="839.36" cy="171.41" r="3.8" fill="#ffb50c" stroke="#111827" stroke-width="1"/>
<circle cx="895.01" cy="165.27" r="3.8" fill="#ffb50c" stroke="#111827" stroke-width="1"/>
<circle cx="928.21" cy="155.05" r="3.8" fill="#ffb50c" stroke="#111827" stroke-width="1"/>
<circle cx="975.07" cy="138.68" r="3.8" fill="#ffb50c" stroke="#111827" stroke-width="1"/>
<circle cx="1036.00" cy="124.36" r="3.8" fill="#ffb50c" stroke="#111827" stroke-width="1"/>
<text x="1028.0" y="114.4" text-anchor="end" fill="#ffb50c" font-size="12" font-family="-apple-system,BlinkMacSystemFont,Segoe UI,Helvetica,Arial,sans-serif">168</text>
<rect x="90" y="514" width="14" height="14" fill="url(#repo-0)" rx="3"/>
<text x="112" y="526" fill="#3bf2af" font-size="13" font-family="-apple-system,BlinkMacSystemFont,Segoe UI,Helvetica,Arial,sans-serif">bavix/gripmock</text>
<rect x="280" y="514" width="14" height="14" fill="url(#repo-1)" rx="3"/>
<text x="302" y="526" fill="#ffb50c" font-size="13" font-family="-apple-system,BlinkMacSystemFont,Segoe UI,Helvetica,Arial,sans-serif">tokopedia/gripmock</text>
<text x="1036" y="526" text-anchor="end" fill="#9ca3af" font-size="12" font-family="-apple-system,BlinkMacSystemFont,Segoe UI,Helvetica,Arial,sans-serif">Source: https://github.com/bavix/artifact-stats/blob/master/stats/github.csv</text>
</svg>