<svg xmlns="http://www.w3.org/2000/svg" width="1100" height="560" viewBox="0 0 1100 560">
<defs>
<linearGradient id="bg" x1="0" y1="0" x2="1" y2="1"><stop offset="0%" stop-color="#0b1220"/><stop offset="100%" stop-color="#111827"/></linearGradient>
<linearGradient id="repo-0" x1="0" y1="0" x2="0" y2="1"><stop offset="0%" stop-color="#34d399"/><stop offset="100%" stop-color="#059669"/></linearGradient>
<linearGradient id="repo-1" x1="0" y1="0" x2="0" y2="1"><stop offset="0%" stop-color="#f59e0b"/><stop offset="100%" stop-color="#d97706"/></linearGradient>
</defs>
<rect x="0" y="0" width="1100" height="560" fill="url(#bg)" rx="16"/>
<text x="90" y="44" fill="#f9fafb" font-size="28" font-family="-apple-system,BlinkMacSystemFont,Segoe UI,Helvetica,Arial,sans-serif" font-weight="700">GripMock GitHub Metrics - Stars</text>
<text x="90" y="70" fill="#9ca3af" font-size="16" font-family="-apple-system,BlinkMacSystemFont,Segoe UI,Helvetica,Arial,sans-serif">GitHub stars by snapshot date</text>
<line x1="90" y1="90.0" x2="1036" y2="90.0" stroke="#1f2937" stroke-width="1"/>
<text x="80" y="95.0" text-anchor="end" fill="#9ca3af" font-size="12" font-family="-apple-system,BlinkMacSystemFont,Segoe UI,Helvetica,Arial,sans-serif">810</text>
<line x1="90" y1="153.0" x2="1036" y2="153.0" stroke="#1f2937" stroke-width="1"/>
<text x="80" y="158.0" text-anchor="end" fill="#9ca3af" font-size="12" font-family="-apple-system,BlinkMacSystemFont,Segoe UI,Helvetica,Arial,sans-serif">675</text>
<line x1="90" y1="216.0" x2="1036" y2="216.0" stroke="#1f2937" stroke-width="1"/>
<text x="80" y="221.0" text-anchor="end" fill="#9ca3af" font-size="12" font-family="-apple-system,BlinkMacSystemFont,Segoe UI,Helvetica,Arial,sans-serif">540</text>
<line x1="90" y1="279.0" x2="1036" y2="279.0" stroke="#1f2937" stroke-width="1"/>
<text x="80" y="284.0" text-anchor="end" fill="#9ca3af" font-size="12" font-family="-apple-system,BlinkMacSystemFont,Segoe UI,Helvetica,Arial,sans-serif">405</text>
<line x1="90" y1="342.0" x2="1036" y2="342.0" stroke="#1f2937" stroke-width="1"/>
<text x="80" y="347.0" text-anchor="end" fill="#9ca3af" font-size="12" font-family="-apple-system,BlinkMacSystemFont,Segoe UI,Helvetica,Arial,sans-serif">270</text>
<line x1="90" y1="405.0" x2="1036" y2="405.0" stroke="#1f2937" stroke-width="1"/>
<text x="80" y="410.0" text-anchor="end" fill="#9ca3af" font-size="12" font-family="-apple-system,BlinkMacSystemFont,Segoe UI,Helvetica,Arial,sans-serif">135</text>
<line x1="90" y1="468.0" x2="1036" y2="468.0" stroke="#1f2937" stroke-width="1"/>
<text x="80" y="473.0" text-anchor="end" fill="#9ca3af" font-size="12" font-family="-apple-system,BlinkMacSystemFont,Segoe UI,Helvetica,Arial,sans-serif">0</text>
<line x1="90" y1="468" x2="1036" y2="468" stroke="#4b5563" stroke-width="1.4"/>
<line x1="90" y1="90" x2="90" y2="468" stroke="#4b5563" stroke-width="1.4"/>
<line x1="90.0" y1="468" x2="90.0" y2="474" stroke="#6b7280" stroke-width="1"/>
<text x="90.0" y="494" text-anchor="start" fill="#9ca3af" font-size="12" font-family="-apple-system,BlinkMacSystemFont,Segoe UI,Helvetica,Arial,sans-serif">2018-04-24</text>
<line x1="279.2" y1="468" x2="279.2" y2="474" stroke="#6b7280" stroke-width="1"/>
<text x="279.2" y="494" text-anchor="middle" fill="#9ca3af" font-size="12" font-family="-apple-system,BlinkMacSystemFont,Segoe UI,Helvetica,Arial,sans-serif">2019-11-25</text>
<line x1="468.4" y1="468" x2="468.4" y2="474" stroke="#6b7280" stroke-width="1"/>
<text x="468.4" y="494" text-anchor="middle" fill="#9ca3af" font-size="12" font-family="-apple-system,BlinkMacSystemFont,Segoe UI,Helvetica,Arial,sans-serif">2021-06-28</text>
<line x1="657.6" y1="468" x2="657.6" y2="474" stroke="#6b7280" stroke-width="1"/>
<text x="657.6" y="494" text-anchor="middle" fill="#9ca3af" font-size="12" font-family="-apple-system,BlinkMacSystemFont,Segoe UI,Helvetica,Arial,sans-serif">2023-01-30</text>
<line x1="846.8" y1="468" x2="846.8" y2="474" stroke="#6b7280" stroke-width="1"/>
<text x="846.8" y="494" text-anchor="middle" fill="#9ca3af" font-size="12" font-family="-apple-system,BlinkMacSystemFont,Segoe UI,Helvetica,Arial,sans-serif">2024-09-01</text>
<line x1="1036.0" y1="468" x2="1036.0" y2="474" stroke="#6b7280" stroke-width="1"/>
<text x="1036.0" y="494" text-anchor="end" fill="#9ca3af" font-size="12" font-family="-apple-system,BlinkMacSystemFont,Segoe UI,Helvetica,Arial,sans-serif">2026-04-05</text>
<polyline fill="none" stroke="url(#repo-0)" stroke-width="4" stroke-linecap="round" stroke-linejoin="round" points="722.23,468.00 728.94,467.53 741.97,467.07 755.66,466.60 757.62,466.13 760.88,465.67 772.61,465.20 774.89,464.73 780.43,464.26 780.75,463.80 785.64,463.33 793.46,462.86 805.85,462.40 809.11,461.93 813.34,461.46 816.93,461.00 831.92,460.53 836.48,460.06 837.13,459.60 838.44,459.13 844.63,458.66 858.32,458.20 861.25,457.73 868.09,457.26 873.63,456.79 874.29,456.33 874.94,455.86 895.14,455.39 897.75,454.93 898.40,454.46 904.59,453.99 905.24,453.53 909.16,453.53 910.46,453.06 910.78,452.59 911.11,452.13 914.04,451.66 915.67,451.19 917.30,450.72 922.52,450.72 927.08,450.72 928.71,450.26 929.36,450.26 936.20,449.79 940.11,449.32 951.85,448.86 954.13,448.39 954.78,448.39 956.74,447.92 958.69,447.46 961.62,447.46 966.84,446.99 973.68,446.52 977.92,446.06 989.32,445.59 991.61,445.12 996.49,444.66 996.82,444.19 997.80,443.72 1000.40,443.25 1000.73,443.25 1009.53,442.79 1016.37,442.32 1017.02,441.85 1019.31,441.39 1025.82,440.92 1028.11,440.45 1029.73,439.99 1031.36,439.52 1034.70,439.52 1035.67,439.52 1036.00,439.05"/>
<circle cx="722.23" cy="468.00" r="3.8" fill="#3bf2af" stroke="#111827" stroke-width="1"/>
<circle cx="755.66" cy="466.60" r="3.8" fill="#3bf2af" stroke="#111827" stroke-width="1"/>
<circle cx="772.61" cy="465.20" r="3.8" fill="#3bf2af" stroke="#111827" stroke-width="1"/>
<circle cx="780.75" cy="463.80" r="3.8" fill="#3bf2af" stroke="#111827" stroke-width="1"/>
<circle cx="805.85" cy="462.40" r="3.8" fill="#3bf2af" stroke="#111827" stroke-width="1"/>
<circle cx="816.93" cy="461.00" r="3.8" fill="#3bf2af" stroke="#111827" stroke-width="1"/>
<circle cx="837.13" cy="459.60" r="3.8" fill="#3bf2af" stroke="#111827" stroke-width="1"/>
<circle cx="858.32" cy="458.20" r="3.8" fill="#3bf2af" stroke="#111827" stroke-width="1"/>
<circle cx="873.63" cy="456.79" r="3.8" fill="#3bf2af" stroke="#111827" stroke-width="1"/>
<circle cx="895.14" cy="455.39" r="3.8" fill="#3bf2af" stroke="#111827" stroke-width="1"/>
<circle cx="904.59" cy="453.99" r="3.8" fill="#3bf2af" stroke="#111827" stroke-width="1"/>
<circle cx="910.46" cy="453.06" r="3.8" fill="#3bf2af" stroke="#111827" stroke-width="1"/>
<circle cx="914.04" cy="451.66" r="3.8" fill="#3bf2af" stroke="#111827" stroke-width="1"/>
<circle cx="922.52" cy="450.72" r="3.8" fill="#3bf2af" stroke="#111827" stroke-width="1"/>
<circle cx="929.36" cy="450.26" r="3.8" fill="#3bf2af" stroke="#111827" stroke-width="1"/>
<circle cx="951.85" cy="448.86" r="3.8" fill="#3bf2af" stroke="#111827" stroke-width="1"/>
<circle cx="956.74" cy="447.92" r="3.8" fill="#3bf2af" stroke="#111827" stroke-width="1"/>
<circle cx="966.84" cy="446.99" r="3.8" fill="#3bf2af" stroke="#111827" stroke-width="1"/>
<circle cx="989.32" cy="445.59" r="3.8" fill="#3bf2af" stroke="#111827" stroke-width="1"/>
<circle cx="996.82" cy="444.19" r="3.8" fill="#3bf2af" stroke="#111827" stroke-width="1"/>
<circle cx="1000.73" cy="443.25" r="3.8" fill="#3bf2af" stroke="#111827" stroke-width="1"/>
<circle cx="1017.02" cy="441.85" r="3.8" fill="#3bf2af" stroke="#111827" stroke-width="1"/>
<circle cx="1028.11" cy="440.45" r="3.8" fill="#3bf2af" stroke="#111827" stroke-width="1"/>
<circle cx="1034.70" cy="439.52" r="3.8" fill="#3bf2af" stroke="#111827" stroke-width="1"/>
<circle cx="1036.00" cy="439.05" r="3.8" fill="#3bf2af" stroke="#111827" stroke-width="1"/>
<text x="1028.0" y="429.1" text-anchor="end" fill="#3bf2af" font-size="12" font-family="-apple-system,BlinkMacSystemFont,Segoe UI,Helvetica,Arial,sans-serif">62</text>
<polyline fill="none" stroke="url(#repo-1)" stroke-width="4" stroke-linecap="round" stroke-linejoin="round" points="90.00,468.00 91.82,466.60 92.48,466.13 96.06,465.67 99.65,465.20 136.80,464.73 137.77,464.26 143.64,464.26 149.51,463.80 154.07,463.80 157.65,463.33 158.31,462.86 158.63,462.40 158.96,461.93 160.59,461.46 161.24,461.00 165.47,460.53 165.80,460.06 169.71,459.60 170.69,459.13 171.01,458.66 172.64,458.20 174.27,457.26 176.23,456.79 177.21,456.33 182.42,455.86 185.03,455.39 186.66,454.93 186.98,454.46 192.20,453.99 192.52,453.53 193.18,453.06 196.43,452.59 197.09,451.66 197.41,451.66 197.74,451.66 203.60,451.19 205.23,451.19 211.43,450.72 212.73,450.26 213.38,450.26 215.99,449.79 218.92,449.32 222.83,449.32 223.16,448.86 225.44,448.39 227.72,447.92 230.98,447.46 231.96,446.99 234.24,446.52 236.52,446.06 238.47,445.59 238.80,445.12 239.13,444.66 241.73,444.19 242.38,443.72 243.04,442.79 243.36,442.32 243.69,441.39 244.01,440.92 246.62,440.45 247.27,439.52 249.88,439.52 255.42,439.05 256.07,439.05 256.40,438.59 256.72,438.12 257.38,438.12 258.68,437.65 259.01,437.18 260.96,436.72 261.29,436.25 263.57,435.78 264.55,434.85 265.20,433.92 266.17,433.92 267.80,433.45 268.13,432.98 269.11,432.52 272.04,432.05 275.63,431.58 276.60,431.12 277.58,430.65 277.91,430.18 279.21,429.71 279.54,429.25 280.19,428.78 281.17,427.38 282.80,426.91 283.45,426.45 283.77,425.98 284.10,424.58 285.73,424.11 286.71,423.64 287.36,423.18 288.66,423.18 288.99,422.71 290.62,422.24 294.20,421.78 296.16,421.31 297.79,421.31 298.11,420.38 300.39,419.91 302.02,419.44 302.35,419.44 304.30,418.98 304.63,418.51 305.28,418.51 306.26,418.51 306.59,418.04 306.91,417.58 307.24,417.11 311.80,415.71 315.71,415.24 316.04,414.77 316.69,414.31 317.99,413.84 318.32,413.37 319.95,413.37 320.60,412.91 320.92,412.44 321.25,411.97 321.58,411.51 323.21,411.04 326.46,410.57 327.77,410.10 328.09,410.10 328.75,409.64 329.07,409.64 329.72,408.24 330.38,407.77 331.03,407.77 332.33,407.30 332.98,406.84 334.94,406.37 335.26,405.90 336.57,405.44 338.52,404.97 339.83,404.50 341.13,404.50 341.46,404.04 342.11,403.57 343.08,403.10 344.06,402.63 345.69,402.17 347.32,401.70 348.95,401.23 351.88,400.77 354.49,400.30 354.82,399.83 355.14,399.37 360.03,398.90 361.01,398.43 361.99,397.97 362.31,397.03 363.29,396.56 365.57,395.63 365.90,394.70 367.53,394.23 369.48,394.23 372.74,393.76 373.72,393.30 374.70,392.83 376.00,391.90 376.65,391.43 376.98,390.96 377.63,390.50 379.26,389.56 380.56,389.09 384.80,388.16 386.43,386.76 387.41,385.83 390.34,385.83 390.99,385.83 391.32,385.36 391.64,384.43 393.27,383.49 394.25,383.02 395.55,382.56 395.88,382.09 396.53,381.62 398.81,381.16 399.14,380.69 399.79,380.22 402.07,379.76 402.72,379.29 404.03,378.82 405.00,378.36 405.33,377.89 405.66,377.42 409.57,376.96 410.22,376.49 411.52,375.55 411.85,375.09 413.15,374.62 414.45,371.35 414.78,370.42 415.11,369.95 416.74,369.48 417.39,369.02 419.02,369.02 420.32,368.55 421.30,368.08 423.25,367.15 424.56,366.68 426.19,366.22 426.51,365.75 427.16,365.28 427.82,364.35 428.47,363.88 428.79,363.88 429.77,363.88 430.10,363.42 430.42,362.95 430.75,362.48 432.38,362.01 433.03,361.08 434.33,360.61 434.99,359.68 435.96,359.21 436.62,358.75 437.59,358.28 438.90,357.81 440.20,357.81 441.50,357.35 441.83,356.88 443.46,356.41 443.78,355.94 444.44,355.48 444.76,355.01 445.41,354.54 445.74,353.14 447.37,352.68 448.67,352.21 450.30,351.74 454.86,350.81 455.19,350.34 455.52,350.34 455.84,349.88 456.82,349.41 457.15,348.94 457.47,348.47 457.80,347.54 459.10,347.07 459.75,346.14 460.08,344.74 461.06,344.74 461.38,344.74 462.03,343.81 463.99,343.34 464.32,342.40 464.64,341.94 465.95,341.47 468.23,341.00 468.55,340.54 469.20,340.07 471.49,339.60 473.11,339.14 474.74,339.14 477.68,339.14 478.98,338.67 479.31,338.20 479.63,338.20 480.28,337.74 480.61,336.80 480.94,336.33 481.91,335.87 482.24,335.40 483.22,334.93 484.85,334.00 485.17,334.00 485.50,333.07 485.82,332.60 486.15,331.20 486.48,330.27 486.80,329.80 487.45,329.33 487.78,327.46 488.11,327.00 489.08,326.53 489.74,325.60 490.39,325.13 491.69,324.66 492.99,324.20 493.32,323.73 493.65,323.26 493.97,322.79 495.60,322.33 496.90,321.86 497.23,321.39 498.53,320.46 498.86,319.53 499.19,319.53 502.44,319.06 502.77,318.59 503.42,318.13 505.05,317.19 505.70,316.73 506.36,316.26 507.66,316.26 508.31,315.32 508.64,315.32 508.96,313.46 509.29,311.12 510.59,310.66 510.92,310.19 511.57,309.72 511.90,309.25 512.87,308.79 513.20,308.32 514.50,307.85 517.44,307.39 518.41,306.92 519.39,306.45 519.72,305.05 520.04,304.59 520.37,304.12 520.69,303.65 521.35,303.19 523.63,303.19 524.93,302.72 525.26,302.25 525.58,301.78 526.56,301.32 527.86,301.32 529.17,300.85 530.80,300.38 531.12,299.92 534.71,299.45 536.34,298.98 536.99,298.05 537.64,297.58 540.25,297.12 540.90,296.65 541.23,296.18 542.20,295.71 542.86,295.25 543.51,295.25 544.16,294.78 544.81,294.31 546.11,293.85 546.44,293.38 546.77,292.91 548.40,292.91 549.05,292.45 549.37,291.98 550.35,291.05 551.00,290.11 551.65,289.65 553.28,288.71 553.61,288.71 553.94,288.24 554.91,287.78 555.56,287.31 556.22,286.84 557.85,286.38 560.78,285.91 561.11,285.44 562.41,284.98 562.73,284.51 564.04,284.04 564.36,283.58 564.69,281.71 565.34,281.24 566.32,280.77 566.65,280.31 566.97,279.84 567.62,279.37 568.93,278.91 569.90,278.91 570.23,278.44 574.47,277.97 574.79,277.51 575.77,276.57 576.42,276.11 578.70,275.64 579.68,275.17 580.01,274.70 580.33,274.24 582.94,273.30 583.27,272.84 583.59,270.97 584.57,270.50 584.90,270.04 585.55,269.57 587.83,269.10 588.48,268.63 589.13,268.63 590.11,268.17 590.44,267.70 591.41,267.23 596.95,266.77 598.26,265.83 598.58,265.37 600.21,264.90 600.86,264.90 601.19,263.97 601.52,263.97 601.84,263.50 602.82,263.03 603.80,262.57 604.12,262.10 606.08,261.63 606.40,261.16 607.06,260.23 608.03,259.76 608.68,259.30 609.01,258.83 610.31,258.36 610.97,258.36 611.62,257.90 612.60,257.43 612.92,256.96 617.16,256.50 618.14,256.50 619.11,256.03 619.44,255.56 621.07,255.09 621.39,254.16 621.72,253.69 622.05,252.76 623.35,252.29 624.33,251.83 626.61,250.89 627.59,250.43 627.91,249.96 628.56,249.96 629.22,248.56 631.17,248.09 631.50,247.62 634.76,247.16 635.08,246.69 636.06,245.29 636.39,244.82 637.36,244.36 637.69,244.36 638.02,243.89 639.64,243.42 639.97,242.49 640.95,241.55 642.58,241.09 643.88,240.62 644.86,240.62 648.44,240.62 648.77,240.62 650.72,240.62 651.38,239.69 652.03,239.69 653.33,239.69 653.66,239.69 656.26,239.22 659.20,238.75 659.85,238.29 660.18,237.35 660.50,236.89 663.43,236.42 664.74,236.42 665.06,235.95 665.39,235.49 666.04,235.49 667.35,235.02 667.67,234.55 668.32,234.08 669.63,233.62 671.26,233.15 671.58,233.15 672.23,232.68 672.56,232.22 672.89,232.22 673.21,231.75 673.54,231.28 674.19,230.82 678.10,230.35 680.38,230.35 682.66,230.35 683.64,230.35 683.97,229.88 684.29,229.42 685.27,229.42 685.59,228.95 687.88,228.48 688.20,228.01 689.51,228.01 689.83,227.55 690.16,227.08 691.46,226.61 692.44,226.61 693.74,225.68 694.72,225.68 695.05,225.68 697.00,225.21 697.65,224.28 698.63,223.81 698.96,223.35 699.61,222.88 701.56,221.95 702.22,221.95 702.87,221.48 703.19,221.01 703.84,220.54 704.17,220.08 705.15,219.61 705.47,218.68 706.13,218.21 707.43,217.74 707.76,217.28 708.41,216.34 709.06,215.88 710.36,215.41 710.69,214.94 711.99,214.47 713.30,214.01 714.93,214.01 715.90,213.54 716.23,213.07 717.86,213.07 718.18,212.61 719.49,212.14 720.47,210.74 721.12,210.74 722.09,210.27 723.40,209.81 723.72,209.34 724.38,208.87 726.98,208.41 728.94,207.94 731.22,207.47 734.80,207.00 735.13,207.00 735.46,206.54 737.41,205.14 738.06,204.67 738.39,204.20 738.72,203.74 739.69,203.27 740.02,202.80 740.67,202.34 743.28,201.40 744.91,200.93 745.56,200.93 747.19,200.93 748.49,200.47 751.42,200.00 752.73,200.00 754.68,199.53 760.55,199.53 762.83,199.53 763.48,199.07 766.42,198.60 767.07,198.13 767.72,197.67 769.67,197.20 770.33,196.73 770.98,195.80 771.30,195.80 771.63,195.33 774.24,194.87 777.17,194.40 778.80,193.93 780.75,193.46 783.69,193.46 786.29,192.06 787.60,191.60 788.25,191.13 789.55,190.66 791.18,190.20 791.84,189.73 792.49,189.26 794.44,188.80 795.75,188.33 796.07,187.39 799.00,187.39 799.33,186.93 799.66,186.93 800.31,186.46 801.29,186.46 802.59,185.99 804.54,185.53 804.87,185.06 805.85,185.06 808.13,185.06 810.41,184.59 812.37,184.13 814.97,183.66 815.63,183.19 815.95,182.73 816.93,182.73 817.25,182.26 817.58,181.79 818.23,180.86 819.54,180.39 821.82,179.92 822.14,179.46 823.12,178.52 825.08,178.06 826.71,177.59 827.03,177.12 828.33,176.66 829.31,176.19 829.64,176.19 830.94,175.72 831.59,175.72 833.22,175.26 833.55,174.79 833.87,173.39 835.83,172.92 836.81,172.45 837.13,171.99 839.09,171.99 840.39,171.52 840.72,170.12 841.04,170.12 843.33,168.72 844.96,168.25 848.87,167.79 849.19,167.32 851.15,166.85 854.08,166.38 857.34,165.92 859.29,164.98 859.62,164.52 859.95,164.05 860.60,163.58 863.20,163.12 865.49,162.65 868.75,162.18 869.07,162.18 872.00,161.72 872.98,161.25 874.29,160.78 884.39,160.31 885.69,159.38 886.02,158.91 889.28,158.45 890.91,157.51 893.19,157.05 893.84,157.05 894.16,156.58 896.12,156.11 897.42,155.65 898.08,155.18 898.40,154.71 898.73,154.25 899.70,153.78 901.33,153.31 901.66,153.31 903.29,152.84 905.57,152.38 907.85,151.91 908.50,151.44 912.09,150.98 912.41,150.51 914.04,150.04 915.67,149.58 918.61,149.11 919.91,148.64 922.19,148.64 922.52,148.18 923.17,148.18 924.80,147.71 925.12,147.24 925.78,146.77 926.75,145.84 927.08,144.44 927.41,143.51 927.73,143.04 929.03,142.57 929.36,142.57 931.32,142.11 931.64,141.64 933.27,141.17 933.60,140.71 934.25,140.24 934.90,140.24 935.88,139.77 939.14,139.30 945.00,138.84 946.31,138.37 947.94,137.90 949.24,137.44 950.54,136.97 951.52,136.50 952.50,135.57 954.78,135.57 956.41,135.10 957.06,135.10 959.34,135.10 959.67,135.10 959.99,134.64 963.58,134.17 965.53,133.70 965.86,133.70 968.79,133.23 973.68,132.77 974.99,132.77 975.31,132.30 976.29,131.83 980.20,131.37 984.76,130.90 985.09,130.90 989.32,130.43 991.93,129.97 1004.64,129.50 1007.57,128.57 1008.55,128.10 1010.18,127.63 1010.51,126.70 1016.37,126.23 1018.98,125.76 1024.19,125.30 1025.82,124.83 1028.11,124.36 1034.70,124.36 1036.00,124.36"/>
<circle cx="90.00" cy="468.00" r="3.8" fill="#ffb50c" stroke="#111827" stroke-width="1"/>
<circle cx="192.20" cy="453.99" r="3.8" fill="#ffb50c" stroke="#111827" stroke-width="1"/>
<circle cx="243.69" cy="441.39" r="3.8" fill="#ffb50c" stroke="#111827" stroke-width="1"/>
<circle cx="281.17" cy="427.38" r="3.8" fill="#ffb50c" stroke="#111827" stroke-width="1"/>
<circle cx="317.99" cy="413.84" r="3.8" fill="#ffb50c" stroke="#111827" stroke-width="1"/>
<circle cx="347.32" cy="401.70" r="3.8" fill="#ffb50c" stroke="#111827" stroke-width="1"/>
<circle cx="391.32" cy="385.36" r="3.8" fill="#ffb50c" stroke="#111827" stroke-width="1"/>
<circle cx="423.25" cy="367.15" r="3.8" fill="#ffb50c" stroke="#111827" stroke-width="1"/>
<circle cx="447.37" cy="352.68" r="3.8" fill="#ffb50c" stroke="#111827" stroke-width="1"/>
<circle cx="479.31" cy="338.20" r="3.8" fill="#ffb50c" stroke="#111827" stroke-width="1"/>
<circle cx="498.53" cy="320.46" r="3.8" fill="#ffb50c" stroke="#111827" stroke-width="1"/>
<circle cx="523.63" cy="303.19" r="3.8" fill="#ffb50c" stroke="#111827" stroke-width="1"/>
<circle cx="551.65" cy="289.65" r="3.8" fill="#ffb50c" stroke="#111827" stroke-width="1"/>
<circle cx="580.01" cy="274.70" r="3.8" fill="#ffb50c" stroke="#111827" stroke-width="1"/>
<circle cx="608.68" cy="259.30" r="3.8" fill="#ffb50c" stroke="#111827" stroke-width="1"/>
<circle cx="637.69" cy="244.36" r="3.8" fill="#ffb50c" stroke="#111827" stroke-width="1"/>
<circle cx="671.26" cy="233.15" r="3.8" fill="#ffb50c" stroke="#111827" stroke-width="1"/>
<circle cx="698.96" cy="223.35" r="3.8" fill="#ffb50c" stroke="#111827" stroke-width="1"/>
<circle cx="723.72" cy="209.34" r="3.8" fill="#ffb50c" stroke="#111827" stroke-width="1"/>
<circle cx="769.67" cy="197.20" r="3.8" fill="#ffb50c" stroke="#111827" stroke-width="1"/>
<circle cx="808.13" cy="185.06" r="3.8" fill="#ffb50c" stroke="#111827" stroke-width="1"/>
<circle cx="840.39" cy="171.52" r="3.8" fill="#ffb50c" stroke="#111827" stroke-width="1"/>
<circle cx="896.12" cy="156.11" r="3.8" fill="#ffb50c" stroke="#111827" stroke-width="1"/>
<circle cx="929.36" cy="142.57" r="3.8" fill="#ffb50c" stroke="#111827" stroke-width="1"/>
<circle cx="976.29" cy="131.83" r="3.8" fill="#ffb50c" stroke="#111827" stroke-width="1"/>
<circle cx="1036.00" cy="124.36" r="3.8" fill="#ffb50c" stroke="#111827" stroke-width="1"/>
<text x="1028.0" y="114.4" text-anchor="end" fill="#ffb50c" font-size="12" font-family="-apple-system,BlinkMacSystemFont,Segoe UI,Helvetica,Arial,sans-serif">736</text>
<rect x="90" y="514" width="14" height="14" fill="url(#repo-0)" rx="3"/>
<text x="112" y="526" fill="#3bf2af" font-size="13" font-family="-apple-system,BlinkMacSystemFont,Segoe UI,Helvetica,Arial,sans-serif">bavix/gripmock</text>
<rect x="280" y="514" width="14" height="14" fill="url(#repo-1)" rx="3"/>
<text x="302" y="526" fill="#ffb50c" font-size="13" font-family="-apple-system,BlinkMacSystemFont,Segoe UI,Helvetica,Arial,sans-serif">tokopedia/gripmock</text>
<text x="1036" y="526" text-anchor="end" fill="#9ca3af" font-size="12" font-family="-apple-system,BlinkMacSystemFont,Segoe UI,Helvetica,Arial,sans-serif">Source: https://github.com/bavix/artifact-stats/blob/master/stats/github.csv</text>
</svg>