<svg xmlns="http://www.w3.org/2000/svg" width="1100" height="560" viewBox="0 0 1100 560">
<defs>
<linearGradient id="bg" x1="0" y1="0" x2="1" y2="1"><stop offset="0%" stop-color="#0b1220"/><stop offset="100%" stop-color="#111827"/></linearGradient>
<linearGradient id="repo-0" x1="0" y1="0" x2="0" y2="1"><stop offset="0%" stop-color="#34d399"/><stop offset="100%" stop-color="#059669"/></linearGradient>
<linearGradient id="repo-1" x1="0" y1="0" x2="0" y2="1"><stop offset="0%" stop-color="#f59e0b"/><stop offset="100%" stop-color="#d97706"/></linearGradient>
</defs>
<rect x="0" y="0" width="1100" height="560" fill="url(#bg)" rx="16"/>
<text x="90" y="44" fill="#f9fafb" font-size="28" font-family="-apple-system,BlinkMacSystemFont,Segoe UI,Helvetica,Arial,sans-serif" font-weight="700">GripMock GitHub Metrics - Stars</text>
<text x="90" y="70" fill="#9ca3af" font-size="16" font-family="-apple-system,BlinkMacSystemFont,Segoe UI,Helvetica,Arial,sans-serif">GitHub stars by snapshot date</text>
<line x1="90" y1="90.00" x2="1036" y2="90.00" stroke="#1f2937" stroke-width="1"/>
<text x="80" y="95.00" text-anchor="end" fill="#9ca3af" font-size="12" font-family="-apple-system,BlinkMacSystemFont,Segoe UI,Helvetica,Arial,sans-serif">811</text>
<line x1="90" y1="153.00" x2="1036" y2="153.00" stroke="#1f2937" stroke-width="1"/>
<text x="80" y="158.00" text-anchor="end" fill="#9ca3af" font-size="12" font-family="-apple-system,BlinkMacSystemFont,Segoe UI,Helvetica,Arial,sans-serif">676</text>
<line x1="90" y1="216.00" x2="1036" y2="216.00" stroke="#1f2937" stroke-width="1"/>
<text x="80" y="221.00" text-anchor="end" fill="#9ca3af" font-size="12" font-family="-apple-system,BlinkMacSystemFont,Segoe UI,Helvetica,Arial,sans-serif">540</text>
<line x1="90" y1="279.00" x2="1036" y2="279.00" stroke="#1f2937" stroke-width="1"/>
<text x="80" y="284.00" text-anchor="end" fill="#9ca3af" font-size="12" font-family="-apple-system,BlinkMacSystemFont,Segoe UI,Helvetica,Arial,sans-serif">405</text>
<line x1="90" y1="342.00" x2="1036" y2="342.00" stroke="#1f2937" stroke-width="1"/>
<text x="80" y="347.00" text-anchor="end" fill="#9ca3af" font-size="12" font-family="-apple-system,BlinkMacSystemFont,Segoe UI,Helvetica,Arial,sans-serif">270</text>
<line x1="90" y1="405.00" x2="1036" y2="405.00" stroke="#1f2937" stroke-width="1"/>
<text x="80" y="410.00" text-anchor="end" fill="#9ca3af" font-size="12" font-family="-apple-system,BlinkMacSystemFont,Segoe UI,Helvetica,Arial,sans-serif">135</text>
<line x1="90" y1="468.00" x2="1036" y2="468.00" stroke="#1f2937" stroke-width="1"/>
<text x="80" y="473.00" text-anchor="end" fill="#9ca3af" font-size="12" font-family="-apple-system,BlinkMacSystemFont,Segoe UI,Helvetica,Arial,sans-serif">0</text>
<line x1="90" y1="468" x2="1036" y2="468" stroke="#4b5563" stroke-width="1.4"/>
<line x1="90" y1="90" x2="90" y2="468" stroke="#4b5563" stroke-width="1.4"/>
<line x1="90.00" y1="468" x2="90.00" y2="474" stroke="#6b7280" stroke-width="1"/>
<text x="90.00" y="494" text-anchor="start" fill="#9ca3af" font-size="12" font-family="-apple-system,BlinkMacSystemFont,Segoe UI,Helvetica,Arial,sans-serif">2018-04-24</text>
<line x1="279.20" y1="468" x2="279.20" y2="474" stroke="#6b7280" stroke-width="1"/>
<text x="279.20" y="494" text-anchor="middle" fill="#9ca3af" font-size="12" font-family="-apple-system,BlinkMacSystemFont,Segoe UI,Helvetica,Arial,sans-serif">2019-11-27</text>
<line x1="468.40" y1="468" x2="468.40" y2="474" stroke="#6b7280" stroke-width="1"/>
<text x="468.40" y="494" text-anchor="middle" fill="#9ca3af" font-size="12" font-family="-apple-system,BlinkMacSystemFont,Segoe UI,Helvetica,Arial,sans-serif">2021-07-02</text>
<line x1="657.60" y1="468" x2="657.60" y2="474" stroke="#6b7280" stroke-width="1"/>
<text x="657.60" y="494" text-anchor="middle" fill="#9ca3af" font-size="12" font-family="-apple-system,BlinkMacSystemFont,Segoe UI,Helvetica,Arial,sans-serif">2023-02-05</text>
<line x1="846.80" y1="468" x2="846.80" y2="474" stroke="#6b7280" stroke-width="1"/>
<text x="846.80" y="494" text-anchor="middle" fill="#9ca3af" font-size="12" font-family="-apple-system,BlinkMacSystemFont,Segoe UI,Helvetica,Arial,sans-serif">2024-09-09</text>
<line x1="1036.00" y1="468" x2="1036.00" y2="474" stroke="#6b7280" stroke-width="1"/>
<text x="1036.00" y="494" text-anchor="end" fill="#9ca3af" font-size="12" font-family="-apple-system,BlinkMacSystemFont,Segoe UI,Helvetica,Arial,sans-serif">2026-04-15</text>
<polyline fill="none" stroke="url(#repo-0)" stroke-width="4" stroke-linecap="round" stroke-linejoin="round" points="720.05,468.00 726.74,467.53 739.73,467.07 753.37,466.60 755.32,466.13 758.57,465.67 770.26,465.20 772.54,464.74 778.06,464.27 778.38,463.80 783.25,463.34 791.05,462.87 803.39,462.40 806.64,461.94 810.86,461.47 814.43,461.01 829.37,460.54 833.92,460.07 834.57,459.61 835.87,459.14 842.04,458.67 855.68,458.21 858.60,457.74 865.42,457.28 870.94,456.81 871.59,456.34 872.24,455.88 892.38,455.41 894.97,454.94 895.62,454.48 901.79,454.01 902.44,453.55 906.34,453.55 907.64,453.08 907.96,452.61 908.29,452.15 911.21,451.68 912.84,451.21 914.46,450.75 919.66,450.75 924.20,450.75 925.83,450.28 926.48,450.28 933.30,449.82 937.19,449.35 948.89,448.88 951.16,448.42 951.81,448.42 953.76,447.95 955.71,447.48 958.63,447.48 963.83,447.02 970.65,446.55 974.87,446.09 986.23,445.62 988.51,445.15 993.38,444.69 993.70,444.22 994.68,443.75 997.28,443.29 997.60,443.29 1006.37,442.82 1013.19,442.36 1013.84,441.89 1016.11,441.42 1022.61,440.96 1024.88,440.49 1026.51,440.02 1028.13,439.56 1031.46,439.56 1032.42,439.56 1032.75,439.09 1033.40,439.09 1033.72,438.63 1034.05,439.09 1036.00,439.09"/>
<circle cx="720.05" cy="468.00" r="3.8" fill="#3bf2af" stroke="#111827" stroke-width="1"/>
<circle cx="753.37" cy="466.60" r="3.8" fill="#3bf2af" stroke="#111827" stroke-width="1"/>
<circle cx="770.26" cy="465.20" r="3.8" fill="#3bf2af" stroke="#111827" stroke-width="1"/>
<circle cx="778.38" cy="463.80" r="3.8" fill="#3bf2af" stroke="#111827" stroke-width="1"/>
<circle cx="803.39" cy="462.40" r="3.8" fill="#3bf2af" stroke="#111827" stroke-width="1"/>
<circle cx="814.43" cy="461.01" r="3.8" fill="#3bf2af" stroke="#111827" stroke-width="1"/>
<circle cx="834.57" cy="459.61" r="3.8" fill="#3bf2af" stroke="#111827" stroke-width="1"/>
<circle cx="855.68" cy="458.21" r="3.8" fill="#3bf2af" stroke="#111827" stroke-width="1"/>
<circle cx="870.94" cy="456.81" r="3.8" fill="#3bf2af" stroke="#111827" stroke-width="1"/>
<circle cx="892.38" cy="455.41" r="3.8" fill="#3bf2af" stroke="#111827" stroke-width="1"/>
<circle cx="901.79" cy="454.01" r="3.8" fill="#3bf2af" stroke="#111827" stroke-width="1"/>
<circle cx="907.64" cy="453.08" r="3.8" fill="#3bf2af" stroke="#111827" stroke-width="1"/>
<circle cx="911.21" cy="451.68" r="3.8" fill="#3bf2af" stroke="#111827" stroke-width="1"/>
<circle cx="919.66" cy="450.75" r="3.8" fill="#3bf2af" stroke="#111827" stroke-width="1"/>
<circle cx="926.48" cy="450.28" r="3.8" fill="#3bf2af" stroke="#111827" stroke-width="1"/>
<circle cx="948.89" cy="448.88" r="3.8" fill="#3bf2af" stroke="#111827" stroke-width="1"/>
<circle cx="953.76" cy="447.95" r="3.8" fill="#3bf2af" stroke="#111827" stroke-width="1"/>
<circle cx="963.83" cy="447.02" r="3.8" fill="#3bf2af" stroke="#111827" stroke-width="1"/>
<circle cx="986.23" cy="445.62" r="3.8" fill="#3bf2af" stroke="#111827" stroke-width="1"/>
<circle cx="993.70" cy="444.22" r="3.8" fill="#3bf2af" stroke="#111827" stroke-width="1"/>
<circle cx="997.60" cy="443.29" r="3.8" fill="#3bf2af" stroke="#111827" stroke-width="1"/>
<circle cx="1013.84" cy="441.89" r="3.8" fill="#3bf2af" stroke="#111827" stroke-width="1"/>
<circle cx="1024.88" cy="440.49" r="3.8" fill="#3bf2af" stroke="#111827" stroke-width="1"/>
<circle cx="1031.46" cy="439.56" r="3.8" fill="#3bf2af" stroke="#111827" stroke-width="1"/>
<circle cx="1033.40" cy="439.09" r="3.8" fill="#3bf2af" stroke="#111827" stroke-width="1"/>
<circle cx="1036.00" cy="439.09" r="3.8" fill="#3bf2af" stroke="#111827" stroke-width="1"/>
<text x="1028.00" y="429.09" text-anchor="end" fill="#3bf2af" font-size="12" font-family="-apple-system,BlinkMacSystemFont,Segoe UI,Helvetica,Arial,sans-serif">62</text>
<polyline fill="none" stroke="url(#repo-1)" stroke-width="4" stroke-linecap="round" stroke-linejoin="round" points="90.00,468.00 91.82,466.60 92.47,466.13 96.04,465.67 99.61,465.20 136.64,464.74 137.61,464.27 143.46,464.27 149.30,463.80 153.85,463.80 157.42,463.34 158.07,462.87 158.40,462.40 158.72,461.94 160.34,461.47 160.99,461.01 165.22,460.54 165.54,460.07 169.44,459.61 170.41,459.14 170.74,458.67 172.36,458.21 173.98,457.28 175.93,456.81 176.91,456.34 182.10,455.88 184.70,455.41 186.33,454.94 186.65,454.48 191.85,454.01 192.17,453.55 192.82,453.08 196.07,452.61 196.72,451.68 197.04,451.68 197.37,451.68 203.21,451.21 204.84,451.21 211.01,450.75 212.31,450.28 212.96,450.28 215.55,449.82 218.48,449.35 222.38,449.35 222.70,448.88 224.97,448.42 227.25,447.95 230.49,447.48 231.47,447.02 233.74,446.55 236.02,446.09 237.96,445.62 238.29,445.15 238.61,444.69 241.21,444.22 241.86,443.75 242.51,442.82 242.84,442.36 243.16,441.42 243.49,440.96 246.08,440.49 246.73,439.56 249.33,439.56 254.85,439.09 255.50,439.09 255.83,438.63 256.15,438.16 256.80,438.16 258.10,437.69 258.42,437.23 260.37,436.76 260.70,436.29 262.97,435.83 263.95,434.90 264.60,433.96 265.57,433.96 267.19,433.50 267.52,433.03 268.49,432.56 271.42,432.10 274.99,431.63 275.96,431.17 276.94,430.70 277.26,430.23 278.56,429.77 278.89,429.30 279.53,428.83 280.51,427.44 282.13,426.97 282.78,426.50 283.11,426.04 283.43,424.64 285.06,424.17 286.03,423.70 286.68,423.24 287.98,423.24 288.30,422.77 289.93,422.31 293.50,421.84 295.45,421.37 297.07,421.37 297.40,420.44 299.67,419.97 301.29,419.51 301.62,419.51 303.57,419.04 303.89,418.58 304.54,418.58 305.52,418.58 305.84,418.11 306.17,417.64 306.49,417.18 311.04,415.78 314.93,415.31 315.26,414.85 315.91,414.38 317.21,413.91 317.53,413.45 319.16,413.45 319.81,412.98 320.13,412.51 320.46,412.05 320.78,411.58 322.40,411.12 325.65,410.65 326.95,410.18 327.28,410.18 327.93,409.72 328.25,409.72 328.90,408.32 329.55,407.85 330.20,407.85 331.50,407.39 332.15,406.92 334.10,406.45 334.42,405.99 335.72,405.52 337.67,405.05 338.97,404.59 340.27,404.59 340.59,404.12 341.24,403.66 342.22,403.19 343.19,402.72 344.81,402.26 346.44,401.79 348.06,401.32 350.98,400.86 353.58,400.39 353.91,399.93 354.23,399.46 359.10,398.99 360.08,398.53 361.05,398.06 361.38,397.13 362.35,396.66 364.62,395.73 364.95,394.80 366.57,394.33 368.52,394.33 371.77,393.86 372.74,393.40 373.72,392.93 375.02,392.00 375.67,391.53 375.99,391.07 376.64,390.60 378.26,389.67 379.56,389.20 383.79,388.27 385.41,386.87 386.38,385.94 389.31,385.94 389.96,385.94 390.28,385.47 390.61,384.54 392.23,383.61 393.20,383.14 394.50,382.67 394.83,382.21 395.48,381.74 397.75,381.27 398.08,380.81 398.73,380.34 401.00,379.88 401.65,379.41 402.95,378.94 403.92,378.48 404.25,378.01 404.57,377.54 408.47,377.08 409.12,376.61 410.42,375.68 410.74,375.21 412.04,374.75 413.34,371.48 413.66,370.55 413.99,370.08 415.61,369.62 416.26,369.15 417.89,369.15 419.19,368.69 420.16,368.22 422.11,367.29 423.41,366.82 425.03,366.35 425.36,365.89 426.01,365.42 426.66,364.49 427.31,364.02 427.63,364.02 428.60,364.02 428.93,363.56 429.25,363.09 429.58,362.62 431.20,362.16 431.85,361.23 433.15,360.76 433.80,359.83 434.77,359.36 435.42,358.89 436.40,358.43 437.70,357.96 439.00,357.96 440.30,357.50 440.62,357.03 442.24,356.56 442.57,356.10 443.22,355.63 443.54,355.16 444.19,354.70 444.52,353.30 446.14,352.83 447.44,352.37 449.06,351.90 453.61,350.97 453.94,350.50 454.26,350.50 454.59,350.04 455.56,349.57 455.88,349.10 456.21,348.64 456.53,347.70 457.83,347.24 458.48,346.31 458.81,344.91 459.78,344.91 460.11,344.91 460.76,343.97 462.70,343.51 463.03,342.58 463.35,342.11 464.65,341.64 466.93,341.18 467.25,340.71 467.90,340.24 470.17,339.78 471.80,339.31 473.42,339.31 476.35,339.31 477.64,338.84 477.97,338.38 478.29,338.38 478.94,337.91 479.27,336.98 479.59,336.51 480.57,336.05 480.89,335.58 481.87,335.11 483.49,334.18 483.82,334.18 484.14,333.25 484.46,332.78 484.79,331.38 485.11,330.45 485.44,329.99 486.09,329.52 486.41,327.65 486.74,327.19 487.71,326.72 488.36,325.79 489.01,325.32 490.31,324.86 491.61,324.39 491.93,323.92 492.26,323.46 492.58,322.99 494.21,322.53 495.51,322.06 495.83,321.59 497.13,320.66 497.46,319.73 497.78,319.73 501.03,319.26 501.35,318.80 502.00,318.33 503.63,317.40 504.28,316.93 504.93,316.46 506.22,316.46 506.87,315.53 507.20,315.53 507.52,313.67 507.85,311.34 509.15,310.87 509.47,310.40 510.12,309.94 510.45,309.47 511.42,309.00 511.75,308.54 513.04,308.07 515.97,307.61 516.94,307.14 517.92,306.67 518.24,305.27 518.57,304.81 518.89,304.34 519.21,303.88 519.86,303.41 522.14,303.41 523.44,302.94 523.76,302.48 524.09,302.01 525.06,301.54 526.36,301.54 527.66,301.08 529.28,300.61 529.61,300.15 533.18,299.68 534.80,299.21 535.45,298.28 536.10,297.81 538.70,297.35 539.35,296.88 539.68,296.41 540.65,295.95 541.30,295.48 541.95,295.48 542.60,295.02 543.25,294.55 544.55,294.08 544.87,293.62 545.20,293.15 546.82,293.15 547.47,292.68 547.79,292.22 548.77,291.29 549.42,290.35 550.07,289.89 551.69,288.95 552.02,288.95 552.34,288.49 553.32,288.02 553.97,287.56 554.61,287.09 556.24,286.62 559.16,286.16 559.49,285.69 560.79,285.22 561.11,284.76 562.41,284.29 562.73,283.83 563.06,281.96 563.71,281.49 564.68,281.03 565.01,280.56 565.33,280.10 565.98,279.63 567.28,279.16 568.26,279.16 568.58,278.70 572.80,278.23 573.13,277.76 574.10,276.83 574.75,276.37 577.02,275.90 578.00,275.43 578.32,274.97 578.65,274.50 581.25,273.57 581.57,273.10 581.90,271.24 582.87,270.77 583.19,270.30 583.84,269.84 586.12,269.37 586.77,268.91 587.42,268.91 588.39,268.44 588.72,267.97 589.69,267.51 595.21,267.04 596.51,266.11 596.84,265.64 598.46,265.18 599.11,265.18 599.43,264.24 599.76,264.24 600.08,263.78 601.06,263.31 602.03,262.84 602.36,262.38 604.30,261.91 604.63,261.45 605.28,260.51 606.25,260.05 606.90,259.58 607.23,259.11 608.53,258.65 609.18,258.65 609.83,258.18 610.80,257.72 611.12,257.25 615.35,256.78 616.32,256.78 617.30,256.32 617.62,255.85 619.24,255.38 619.57,254.45 619.89,253.98 620.22,253.05 621.52,252.59 622.49,252.12 624.77,251.19 625.74,250.72 626.06,250.25 626.71,250.25 627.36,248.86 629.31,248.39 629.64,247.92 632.88,247.46 633.21,246.99 634.18,245.59 634.51,245.13 635.48,244.66 635.81,244.66 636.13,244.19 637.76,243.73 638.08,242.79 639.06,241.86 640.68,241.40 641.98,240.93 642.95,240.93 646.52,240.93 646.85,240.93 648.80,240.93 649.45,240.00 650.10,240.00 651.40,240.00 651.72,240.00 654.32,239.53 657.24,239.06 657.89,238.60 658.22,237.67 658.54,237.20 661.46,236.73 662.76,236.73 663.09,236.27 663.41,235.80 664.06,235.80 665.36,235.33 665.69,234.87 666.34,234.40 667.63,233.94 669.26,233.47 669.58,233.47 670.23,233.00 670.56,232.54 670.88,232.54 671.21,232.07 671.53,231.60 672.18,231.14 676.08,230.67 678.35,230.67 680.63,230.67 681.60,230.67 681.92,230.21 682.25,229.74 683.22,229.74 683.55,229.27 685.82,228.81 686.15,228.34 687.45,228.34 687.77,227.87 688.10,227.41 689.39,226.94 690.37,226.94 691.67,226.01 692.64,226.01 692.97,226.01 694.92,225.54 695.57,224.61 696.54,224.14 696.86,223.68 697.51,223.21 699.46,222.28 700.11,222.28 700.76,221.81 701.09,221.35 701.74,220.88 702.06,220.41 703.03,219.95 703.36,219.02 704.01,218.55 705.31,218.08 705.63,217.62 706.28,216.68 706.93,216.22 708.23,215.75 708.56,215.29 709.86,214.82 711.15,214.35 712.78,214.35 713.75,213.89 714.08,213.42 715.70,213.42 716.03,212.95 717.32,212.49 718.30,211.09 718.95,211.09 719.92,210.62 721.22,210.16 721.55,209.69 722.20,209.22 724.79,208.76 726.74,208.29 729.02,207.82 732.59,207.36 732.91,207.36 733.24,206.89 735.19,205.49 735.84,205.03 736.16,204.56 736.49,204.09 737.46,203.63 737.79,203.16 738.43,202.70 741.03,201.76 742.66,201.30 743.31,201.30 744.93,201.30 746.23,200.83 749.15,200.36 750.45,200.36 752.40,199.90 758.25,199.90 760.52,199.90 761.17,199.43 764.09,198.97 764.74,198.50 765.39,198.03 767.34,197.57 767.99,197.10 768.64,196.17 768.96,196.17 769.29,195.70 771.89,195.24 774.81,194.77 776.43,194.30 778.38,193.84 781.30,193.84 783.90,192.44 785.20,191.97 785.85,191.51 787.15,191.04 788.77,190.57 789.42,190.11 790.07,189.64 792.02,189.17 793.32,188.71 793.65,187.78 796.57,187.78 796.89,187.31 797.22,187.31 797.87,186.84 798.84,186.84 800.14,186.38 802.09,185.91 802.41,185.44 803.39,185.44 805.66,185.44 807.94,184.98 809.88,184.51 812.48,184.05 813.13,183.58 813.46,183.11 814.43,183.11 814.76,182.65 815.08,182.18 815.73,181.25 817.03,180.78 819.30,180.32 819.63,179.85 820.60,178.92 822.55,178.45 824.17,177.98 824.50,177.52 825.80,177.05 826.77,176.59 827.10,176.59 828.40,176.12 829.05,176.12 830.67,175.65 830.99,175.19 831.32,173.79 833.27,173.32 834.24,172.86 834.57,172.39 836.52,172.39 837.81,171.92 838.14,170.52 838.46,170.52 840.74,169.12 842.36,168.66 846.26,168.19 846.58,167.73 848.53,167.26 851.45,166.79 854.70,166.33 856.65,165.39 856.98,164.93 857.30,164.46 857.95,164.00 860.55,163.53 862.82,163.06 866.07,162.60 866.39,162.60 869.32,162.13 870.29,161.66 871.59,161.20 881.66,160.73 882.96,159.80 883.28,159.33 886.53,158.87 888.15,157.93 890.43,157.47 891.08,157.47 891.40,157.00 893.35,156.54 894.65,156.07 895.30,155.60 895.62,155.14 895.95,154.67 896.92,154.20 898.55,153.74 898.87,153.74 900.50,153.27 902.77,152.81 905.04,152.34 905.69,151.87 909.26,151.41 909.59,150.94 911.21,150.47 912.84,150.01 915.76,149.54 917.06,149.08 919.33,149.08 919.66,148.61 920.31,148.61 921.93,148.14 922.25,147.68 922.90,147.21 923.88,146.28 924.20,144.88 924.53,143.95 924.85,143.48 926.15,143.01 926.48,143.01 928.43,142.55 928.75,142.08 930.37,141.62 930.70,141.15 931.35,140.68 932.00,140.68 932.97,140.22 936.22,139.75 942.07,139.28 943.36,138.82 944.99,138.35 946.29,137.89 947.59,137.42 948.56,136.95 949.54,136.02 951.81,136.02 953.43,135.55 954.08,135.55 956.36,135.55 956.68,135.55 957.01,135.09 960.58,134.62 962.53,134.16 962.85,134.16 965.77,133.69 970.65,133.22 971.94,133.22 972.27,132.76 973.24,132.29 977.14,131.82 981.69,131.36 982.01,131.36 986.23,130.89 988.83,130.43 1001.50,129.96 1004.42,129.03 1005.40,128.56 1007.02,128.09 1007.34,127.16 1013.19,126.69 1015.79,126.23 1020.98,125.76 1022.61,125.30 1024.88,124.83 1031.46,124.83 1034.38,124.83 1034.70,124.36 1035.36,124.36 1035.68,124.83 1036.00,124.83"/>
<circle cx="90.00" cy="468.00" r="3.8" fill="#ffb50c" stroke="#111827" stroke-width="1"/>
<circle cx="191.85" cy="454.01" r="3.8" fill="#ffb50c" stroke="#111827" stroke-width="1"/>
<circle cx="243.16" cy="441.42" r="3.8" fill="#ffb50c" stroke="#111827" stroke-width="1"/>
<circle cx="280.51" cy="427.44" r="3.8" fill="#ffb50c" stroke="#111827" stroke-width="1"/>
<circle cx="317.21" cy="413.91" r="3.8" fill="#ffb50c" stroke="#111827" stroke-width="1"/>
<circle cx="346.44" cy="401.79" r="3.8" fill="#ffb50c" stroke="#111827" stroke-width="1"/>
<circle cx="390.28" cy="385.47" r="3.8" fill="#ffb50c" stroke="#111827" stroke-width="1"/>
<circle cx="422.11" cy="367.29" r="3.8" fill="#ffb50c" stroke="#111827" stroke-width="1"/>
<circle cx="446.14" cy="352.83" r="3.8" fill="#ffb50c" stroke="#111827" stroke-width="1"/>
<circle cx="477.97" cy="338.38" r="3.8" fill="#ffb50c" stroke="#111827" stroke-width="1"/>
<circle cx="497.13" cy="320.66" r="3.8" fill="#ffb50c" stroke="#111827" stroke-width="1"/>
<circle cx="522.14" cy="303.41" r="3.8" fill="#ffb50c" stroke="#111827" stroke-width="1"/>
<circle cx="550.07" cy="289.89" r="3.8" fill="#ffb50c" stroke="#111827" stroke-width="1"/>
<circle cx="578.32" cy="274.97" r="3.8" fill="#ffb50c" stroke="#111827" stroke-width="1"/>
<circle cx="606.90" cy="259.58" r="3.8" fill="#ffb50c" stroke="#111827" stroke-width="1"/>
<circle cx="635.81" cy="244.66" r="3.8" fill="#ffb50c" stroke="#111827" stroke-width="1"/>
<circle cx="669.26" cy="233.47" r="3.8" fill="#ffb50c" stroke="#111827" stroke-width="1"/>
<circle cx="696.86" cy="223.68" r="3.8" fill="#ffb50c" stroke="#111827" stroke-width="1"/>
<circle cx="721.55" cy="209.69" r="3.8" fill="#ffb50c" stroke="#111827" stroke-width="1"/>
<circle cx="767.34" cy="197.57" r="3.8" fill="#ffb50c" stroke="#111827" stroke-width="1"/>
<circle cx="805.66" cy="185.44" r="3.8" fill="#ffb50c" stroke="#111827" stroke-width="1"/>
<circle cx="837.81" cy="171.92" r="3.8" fill="#ffb50c" stroke="#111827" stroke-width="1"/>
<circle cx="893.35" cy="156.54" r="3.8" fill="#ffb50c" stroke="#111827" stroke-width="1"/>
<circle cx="926.48" cy="143.01" r="3.8" fill="#ffb50c" stroke="#111827" stroke-width="1"/>
<circle cx="973.24" cy="132.29" r="3.8" fill="#ffb50c" stroke="#111827" stroke-width="1"/>
<circle cx="1036.00" cy="124.83" r="3.8" fill="#ffb50c" stroke="#111827" stroke-width="1"/>
<text x="1028.00" y="114.83" text-anchor="end" fill="#ffb50c" font-size="12" font-family="-apple-system,BlinkMacSystemFont,Segoe UI,Helvetica,Arial,sans-serif">736</text>
<rect x="90.00" y="514.00" width="14" height="14" fill="url(#repo-0)" rx="3"/>
<text x="112.00" y="526.00" fill="#3bf2af" font-size="13" font-family="-apple-system,BlinkMacSystemFont,Segoe UI,Helvetica,Arial,sans-serif">bavix/gripmock</text>
<rect x="280.00" y="514.00" width="14" height="14" fill="url(#repo-1)" rx="3"/>
<text x="302.00" y="526.00" fill="#ffb50c" font-size="13" font-family="-apple-system,BlinkMacSystemFont,Segoe UI,Helvetica,Arial,sans-serif">tokopedia/gripmock</text>
<text x="1036.00" y="526.00" text-anchor="end" fill="#9ca3af" font-size="12" font-family="-apple-system,BlinkMacSystemFont,Segoe UI,Helvetica,Arial,sans-serif">Source: https://github.com/bavix/artifact-stats/blob/master/stats/github.csv</text>
</svg>