<svg xmlns="http://www.w3.org/2000/svg" width="1100" height="560" viewBox="0 0 1100 560">
<defs>
<linearGradient id="bg" x1="0" y1="0" x2="1" y2="1"><stop offset="0%" stop-color="#0b1220"/><stop offset="100%" stop-color="#111827"/></linearGradient>
<linearGradient id="repo-0" x1="0" y1="0" x2="0" y2="1"><stop offset="0%" stop-color="#f59e0b"/><stop offset="100%" stop-color="#d97706"/></linearGradient>
<linearGradient id="repo-1" x1="0" y1="0" x2="0" y2="1"><stop offset="0%" stop-color="#34d399"/><stop offset="100%" stop-color="#059669"/></linearGradient>
</defs>
<rect x="0" y="0" width="1100" height="560" fill="url(#bg)" rx="16"/>
<text x="90" y="44" fill="#f9fafb" font-size="28" font-family="-apple-system,BlinkMacSystemFont,Segoe UI,Helvetica,Arial,sans-serif" font-weight="700">GripMock Docker Hub Downloads</text>
<text x="90" y="70" fill="#9ca3af" font-size="16" font-family="-apple-system,BlinkMacSystemFont,Segoe UI,Helvetica,Arial,sans-serif">Docker Hub pull count by snapshot date</text>
<line x1="90" y1="90.00" x2="1036" y2="90.00" stroke="#1f2937" stroke-width="1"/>
<text x="80" y="95.00" text-anchor="end" fill="#9ca3af" font-size="12" font-family="-apple-system,BlinkMacSystemFont,Segoe UI,Helvetica,Arial,sans-serif">1.75M</text>
<line x1="90" y1="153.00" x2="1036" y2="153.00" stroke="#1f2937" stroke-width="1"/>
<text x="80" y="158.00" text-anchor="end" fill="#9ca3af" font-size="12" font-family="-apple-system,BlinkMacSystemFont,Segoe UI,Helvetica,Arial,sans-serif">1.46M</text>
<line x1="90" y1="216.00" x2="1036" y2="216.00" stroke="#1f2937" stroke-width="1"/>
<text x="80" y="221.00" text-anchor="end" fill="#9ca3af" font-size="12" font-family="-apple-system,BlinkMacSystemFont,Segoe UI,Helvetica,Arial,sans-serif">1.17M</text>
<line x1="90" y1="279.00" x2="1036" y2="279.00" stroke="#1f2937" stroke-width="1"/>
<text x="80" y="284.00" text-anchor="end" fill="#9ca3af" font-size="12" font-family="-apple-system,BlinkMacSystemFont,Segoe UI,Helvetica,Arial,sans-serif">874.81k</text>
<line x1="90" y1="342.00" x2="1036" y2="342.00" stroke="#1f2937" stroke-width="1"/>
<text x="80" y="347.00" text-anchor="end" fill="#9ca3af" font-size="12" font-family="-apple-system,BlinkMacSystemFont,Segoe UI,Helvetica,Arial,sans-serif">583.21k</text>
<line x1="90" y1="405.00" x2="1036" y2="405.00" stroke="#1f2937" stroke-width="1"/>
<text x="80" y="410.00" text-anchor="end" fill="#9ca3af" font-size="12" font-family="-apple-system,BlinkMacSystemFont,Segoe UI,Helvetica,Arial,sans-serif">291.60k</text>
<line x1="90" y1="468.00" x2="1036" y2="468.00" stroke="#1f2937" stroke-width="1"/>
<text x="80" y="473.00" text-anchor="end" fill="#9ca3af" font-size="12" font-family="-apple-system,BlinkMacSystemFont,Segoe UI,Helvetica,Arial,sans-serif">0</text>
<line x1="90" y1="468" x2="1036" y2="468" stroke="#4b5563" stroke-width="1.4"/>
<line x1="90" y1="90" x2="90" y2="468" stroke="#4b5563" stroke-width="1.4"/>
<line x1="90.00" y1="468" x2="90.00" y2="474" stroke="#6b7280" stroke-width="1"/>
<text x="90.00" y="494" text-anchor="start" fill="#9ca3af" font-size="12" font-family="-apple-system,BlinkMacSystemFont,Segoe UI,Helvetica,Arial,sans-serif">2019-09-16</text>
<line x1="279.20" y1="468" x2="279.20" y2="474" stroke="#6b7280" stroke-width="1"/>
<text x="279.20" y="494" text-anchor="middle" fill="#9ca3af" font-size="12" font-family="-apple-system,BlinkMacSystemFont,Segoe UI,Helvetica,Arial,sans-serif">2021-01-09</text>
<line x1="468.40" y1="468" x2="468.40" y2="474" stroke="#6b7280" stroke-width="1"/>
<text x="468.40" y="494" text-anchor="middle" fill="#9ca3af" font-size="12" font-family="-apple-system,BlinkMacSystemFont,Segoe UI,Helvetica,Arial,sans-serif">2022-05-06</text>
<line x1="657.60" y1="468" x2="657.60" y2="474" stroke="#6b7280" stroke-width="1"/>
<text x="657.60" y="494" text-anchor="middle" fill="#9ca3af" font-size="12" font-family="-apple-system,BlinkMacSystemFont,Segoe UI,Helvetica,Arial,sans-serif">2023-08-30</text>
<line x1="846.80" y1="468" x2="846.80" y2="474" stroke="#6b7280" stroke-width="1"/>
<text x="846.80" y="494" text-anchor="middle" fill="#9ca3af" font-size="12" font-family="-apple-system,BlinkMacSystemFont,Segoe UI,Helvetica,Arial,sans-serif">2024-12-23</text>
<line x1="1036.00" y1="468" x2="1036.00" y2="474" stroke="#6b7280" stroke-width="1"/>
<text x="1036.00" y="494" text-anchor="end" fill="#9ca3af" font-size="12" font-family="-apple-system,BlinkMacSystemFont,Segoe UI,Helvetica,Arial,sans-serif">2026-04-19</text>
<polyline fill="none" stroke="url(#repo-0)" stroke-width="4" stroke-linecap="round" stroke-linejoin="round" points="90.00,468.00 98.23,462.38 106.47,461.17 114.70,461.12 122.93,461.05 131.16,460.96 139.40,460.85 147.63,460.72 155.86,460.58 164.10,460.42 172.33,460.24 180.56,460.04 188.79,459.82 197.03,458.89 205.26,458.23 213.49,457.97 221.73,457.69 229.96,457.40 238.19,456.35 246.42,452.85 254.66,447.93 262.89,442.31 271.12,436.96 279.35,432.76 287.59,430.14 295.82,429.00 304.05,428.59 312.29,428.17 320.52,426.95 328.75,424.24 336.98,420.21 345.22,415.45 353.45,410.83 361.68,407.20 369.92,405.08 378.15,404.39 386.38,403.89 394.61,403.37 402.85,402.85 411.08,400.71 419.31,396.08 427.55,390.07 435.78,383.57 444.01,377.54 452.24,372.72 460.48,369.31 468.71,366.97 476.94,364.87 485.18,362.10 493.41,357.95 501.64,352.22 509.87,345.28 518.11,337.98 526.34,331.37 534.57,326.30 542.80,323.13 551.04,321.62 559.27,320.97 567.50,320.17 575.74,318.29 583.97,314.84 592.20,309.95 600.43,304.27 608.67,298.72 616.90,294.20 625.13,291.19 633.37,289.57 641.60,288.67 649.83,287.50 658.06,285.10 666.30,280.88 674.53,274.83 682.76,267.56 691.00,260.06 699.23,253.40 707.46,248.31 715.69,244.97 723.93,242.95 732.16,241.38 740.39,239.28 748.63,235.94 756.86,231.17 765.09,225.41 773.32,219.54 781.56,214.57 789.79,211.32 798.02,210.04 806.26,209.61 814.49,209.18 822.72,208.77 830.95,208.38 839.19,207.99 847.42,205.12 855.65,200.34 863.88,195.74 872.12,192.22 880.35,190.26 888.58,189.72 896.82,189.43 905.05,189.15 913.28,188.65 921.51,185.75 929.75,181.27 937.98,175.90 946.21,170.70 954.45,169.71 962.68,169.54 970.91,169.40 979.14,169.27 987.38,169.16 995.61,169.07 1003.84,169.00 1012.08,168.95 1020.31,168.92 1028.54,168.91 1028.94,167.93 1029.31,166.84 1029.71,165.85 1030.09,165.23 1030.49,164.90 1030.89,164.46 1031.28,155.23 1031.67,137.70 1032.06,133.61 1032.46,131.51 1032.85,130.57 1033.25,130.50 1033.65,130.37 1034.03,129.05 1034.43,127.51 1034.82,126.28 1035.21,125.29 1035.60,124.43 1036.00,124.36"/>
<circle cx="90.00" cy="468.00" r="3.8" fill="#ffb50c" stroke="#111827" stroke-width="1"/>
<circle cx="131.16" cy="460.96" r="3.8" fill="#ffb50c" stroke="#111827" stroke-width="1"/>
<circle cx="172.33" cy="460.24" r="3.8" fill="#ffb50c" stroke="#111827" stroke-width="1"/>
<circle cx="213.49" cy="457.97" r="3.8" fill="#ffb50c" stroke="#111827" stroke-width="1"/>
<circle cx="254.66" cy="447.93" r="3.8" fill="#ffb50c" stroke="#111827" stroke-width="1"/>
<circle cx="295.82" cy="429.00" r="3.8" fill="#ffb50c" stroke="#111827" stroke-width="1"/>
<circle cx="336.98" cy="420.21" r="3.8" fill="#ffb50c" stroke="#111827" stroke-width="1"/>
<circle cx="378.15" cy="404.39" r="3.8" fill="#ffb50c" stroke="#111827" stroke-width="1"/>
<circle cx="419.31" cy="396.08" r="3.8" fill="#ffb50c" stroke="#111827" stroke-width="1"/>
<circle cx="460.48" cy="369.31" r="3.8" fill="#ffb50c" stroke="#111827" stroke-width="1"/>
<circle cx="501.64" cy="352.22" r="3.8" fill="#ffb50c" stroke="#111827" stroke-width="1"/>
<circle cx="542.80" cy="323.13" r="3.8" fill="#ffb50c" stroke="#111827" stroke-width="1"/>
<circle cx="583.97" cy="314.84" r="3.8" fill="#ffb50c" stroke="#111827" stroke-width="1"/>
<circle cx="625.13" cy="291.19" r="3.8" fill="#ffb50c" stroke="#111827" stroke-width="1"/>
<circle cx="666.30" cy="280.88" r="3.8" fill="#ffb50c" stroke="#111827" stroke-width="1"/>
<circle cx="707.46" cy="248.31" r="3.8" fill="#ffb50c" stroke="#111827" stroke-width="1"/>
<circle cx="748.63" cy="235.94" r="3.8" fill="#ffb50c" stroke="#111827" stroke-width="1"/>
<circle cx="789.79" cy="211.32" r="3.8" fill="#ffb50c" stroke="#111827" stroke-width="1"/>
<circle cx="830.95" cy="208.38" r="3.8" fill="#ffb50c" stroke="#111827" stroke-width="1"/>
<circle cx="872.12" cy="192.22" r="3.8" fill="#ffb50c" stroke="#111827" stroke-width="1"/>
<circle cx="913.28" cy="188.65" r="3.8" fill="#ffb50c" stroke="#111827" stroke-width="1"/>
<circle cx="954.45" cy="169.71" r="3.8" fill="#ffb50c" stroke="#111827" stroke-width="1"/>
<circle cx="995.61" cy="169.07" r="3.8" fill="#ffb50c" stroke="#111827" stroke-width="1"/>
<circle cx="1028.94" cy="167.93" r="3.8" fill="#ffb50c" stroke="#111827" stroke-width="1"/>
<circle cx="1030.89" cy="164.46" r="3.8" fill="#ffb50c" stroke="#111827" stroke-width="1"/>
<circle cx="1032.85" cy="130.57" r="3.8" fill="#ffb50c" stroke="#111827" stroke-width="1"/>
<circle cx="1034.82" cy="126.28" r="3.8" fill="#ffb50c" stroke="#111827" stroke-width="1"/>
<circle cx="1036.00" cy="124.36" r="3.8" fill="#ffb50c" stroke="#111827" stroke-width="1"/>
<text x="1028.00" y="114.36" text-anchor="end" fill="#ffb50c" font-size="12" font-family="-apple-system,BlinkMacSystemFont,Segoe UI,Helvetica,Arial,sans-serif">1.59M</text>
<polyline fill="none" stroke="url(#repo-1)" stroke-width="4" stroke-linecap="round" stroke-linejoin="round" points="652.08,468.00 660.26,467.29 668.45,467.03 676.63,466.88 684.82,466.83 693.00,466.76 701.18,466.69 709.37,466.57 717.55,466.14 725.74,465.46 733.92,464.57 742.10,463.55 750.29,462.52 758.47,461.57 766.66,460.74 774.84,459.98 783.02,459.21 791.21,458.33 799.39,457.23 807.58,455.90 815.76,454.37 823.94,452.75 832.13,451.17 840.31,449.74 848.49,448.53 856.68,447.52 864.86,446.63 873.05,445.75 881.23,444.78 889.41,443.66 897.60,442.40 905.78,441.08 913.97,439.83 922.15,438.75 930.33,437.92 938.52,437.34 946.70,436.93 954.89,436.56 963.07,436.13 971.25,435.54 979.44,434.80 987.62,433.96 995.81,433.16 1003.99,432.50 1012.17,432.11 1020.36,432.09 1028.54,432.08 1028.94,431.83 1029.31,431.59 1029.71,431.37 1030.09,431.25 1030.49,431.21 1030.89,431.13 1031.28,430.95 1031.67,430.67 1032.06,430.35 1032.46,430.03 1032.85,429.74 1033.25,429.70 1033.65,429.56 1034.03,429.28 1034.43,428.95 1034.82,428.59 1035.21,428.35 1035.60,428.03 1036.00,427.99"/>
<circle cx="652.08" cy="468.00" r="3.8" fill="#3bf2af" stroke="#111827" stroke-width="1"/>
<circle cx="668.45" cy="467.03" r="3.8" fill="#3bf2af" stroke="#111827" stroke-width="1"/>
<circle cx="684.82" cy="466.83" r="3.8" fill="#3bf2af" stroke="#111827" stroke-width="1"/>
<circle cx="701.18" cy="466.69" r="3.8" fill="#3bf2af" stroke="#111827" stroke-width="1"/>
<circle cx="717.55" cy="466.14" r="3.8" fill="#3bf2af" stroke="#111827" stroke-width="1"/>
<circle cx="733.92" cy="464.57" r="3.8" fill="#3bf2af" stroke="#111827" stroke-width="1"/>
<circle cx="750.29" cy="462.52" r="3.8" fill="#3bf2af" stroke="#111827" stroke-width="1"/>
<circle cx="766.66" cy="460.74" r="3.8" fill="#3bf2af" stroke="#111827" stroke-width="1"/>
<circle cx="783.02" cy="459.21" r="3.8" fill="#3bf2af" stroke="#111827" stroke-width="1"/>
<circle cx="799.39" cy="457.23" r="3.8" fill="#3bf2af" stroke="#111827" stroke-width="1"/>
<circle cx="815.76" cy="454.37" r="3.8" fill="#3bf2af" stroke="#111827" stroke-width="1"/>
<circle cx="832.13" cy="451.17" r="3.8" fill="#3bf2af" stroke="#111827" stroke-width="1"/>
<circle cx="848.49" cy="448.53" r="3.8" fill="#3bf2af" stroke="#111827" stroke-width="1"/>
<circle cx="864.86" cy="446.63" r="3.8" fill="#3bf2af" stroke="#111827" stroke-width="1"/>
<circle cx="881.23" cy="444.78" r="3.8" fill="#3bf2af" stroke="#111827" stroke-width="1"/>
<circle cx="897.60" cy="442.40" r="3.8" fill="#3bf2af" stroke="#111827" stroke-width="1"/>
<circle cx="913.97" cy="439.83" r="3.8" fill="#3bf2af" stroke="#111827" stroke-width="1"/>
<circle cx="930.33" cy="437.92" r="3.8" fill="#3bf2af" stroke="#111827" stroke-width="1"/>
<circle cx="946.70" cy="436.93" r="3.8" fill="#3bf2af" stroke="#111827" stroke-width="1"/>
<circle cx="963.07" cy="436.13" r="3.8" fill="#3bf2af" stroke="#111827" stroke-width="1"/>
<circle cx="979.44" cy="434.80" r="3.8" fill="#3bf2af" stroke="#111827" stroke-width="1"/>
<circle cx="995.81" cy="433.16" r="3.8" fill="#3bf2af" stroke="#111827" stroke-width="1"/>
<circle cx="1012.17" cy="432.11" r="3.8" fill="#3bf2af" stroke="#111827" stroke-width="1"/>
<circle cx="1028.54" cy="432.08" r="3.8" fill="#3bf2af" stroke="#111827" stroke-width="1"/>
<circle cx="1029.31" cy="431.59" r="3.8" fill="#3bf2af" stroke="#111827" stroke-width="1"/>
<circle cx="1030.09" cy="431.25" r="3.8" fill="#3bf2af" stroke="#111827" stroke-width="1"/>
<circle cx="1030.89" cy="431.13" r="3.8" fill="#3bf2af" stroke="#111827" stroke-width="1"/>
<circle cx="1031.67" cy="430.67" r="3.8" fill="#3bf2af" stroke="#111827" stroke-width="1"/>
<circle cx="1032.46" cy="430.03" r="3.8" fill="#3bf2af" stroke="#111827" stroke-width="1"/>
<circle cx="1033.25" cy="429.70" r="3.8" fill="#3bf2af" stroke="#111827" stroke-width="1"/>
<circle cx="1034.03" cy="429.28" r="3.8" fill="#3bf2af" stroke="#111827" stroke-width="1"/>
<circle cx="1034.82" cy="428.59" r="3.8" fill="#3bf2af" stroke="#111827" stroke-width="1"/>
<circle cx="1035.60" cy="428.03" r="3.8" fill="#3bf2af" stroke="#111827" stroke-width="1"/>
<circle cx="1036.00" cy="427.99" r="3.8" fill="#3bf2af" stroke="#111827" stroke-width="1"/>
<text x="1028.00" y="417.99" text-anchor="end" fill="#3bf2af" font-size="12" font-family="-apple-system,BlinkMacSystemFont,Segoe UI,Helvetica,Arial,sans-serif">185.19k</text>
<rect x="90.00" y="514.00" width="14" height="14" fill="url(#repo-0)" rx="3"/>
<text x="112.00" y="526.00" fill="#ffb50c" font-size="13" font-family="-apple-system,BlinkMacSystemFont,Segoe UI,Helvetica,Arial,sans-serif">tkpd/gripmock</text>
<rect x="280.00" y="514.00" width="14" height="14" fill="url(#repo-1)" rx="3"/>
<text x="302.00" y="526.00" fill="#3bf2af" font-size="13" font-family="-apple-system,BlinkMacSystemFont,Segoe UI,Helvetica,Arial,sans-serif">bavix/gripmock</text>
<text x="1036.00" y="526.00" text-anchor="end" fill="#9ca3af" font-size="12" font-family="-apple-system,BlinkMacSystemFont,Segoe UI,Helvetica,Arial,sans-serif">Source: https://github.com/bavix/artifact-stats/blob/master/stats/dockerhub.csv</text>
</svg>