<svg xmlns="http://www.w3.org/2000/svg" width="1100" height="560" viewBox="0 0 1100 560">
<defs>
<linearGradient id="bg" x1="0" y1="0" x2="1" y2="1"><stop offset="0%" stop-color="#0b1220"/><stop offset="100%" stop-color="#111827"/></linearGradient>
<linearGradient id="repo-0" x1="0" y1="0" x2="0" y2="1"><stop offset="0%" stop-color="#f59e0b"/><stop offset="100%" stop-color="#d97706"/></linearGradient>
<linearGradient id="repo-1" x1="0" y1="0" x2="0" y2="1"><stop offset="0%" stop-color="#34d399"/><stop offset="100%" stop-color="#059669"/></linearGradient>
</defs>
<rect x="0" y="0" width="1100" height="560" fill="url(#bg)" rx="16"/>
<text x="90" y="44" fill="#f9fafb" font-size="28" font-family="-apple-system,BlinkMacSystemFont,Segoe UI,Helvetica,Arial,sans-serif" font-weight="700">GripMock Docker Hub Downloads</text>
<text x="90" y="70" fill="#9ca3af" font-size="16" font-family="-apple-system,BlinkMacSystemFont,Segoe UI,Helvetica,Arial,sans-serif">Docker Hub pull count by snapshot date</text>
<line x1="90" y1="90.0" x2="1036" y2="90.0" stroke="#1f2937" stroke-width="1"/>
<text x="80" y="95.0" text-anchor="end" fill="#9ca3af" font-size="12" font-family="-apple-system,BlinkMacSystemFont,Segoe UI,Helvetica,Arial,sans-serif">1.7M</text>
<line x1="90" y1="153.0" x2="1036" y2="153.0" stroke="#1f2937" stroke-width="1"/>
<text x="80" y="158.0" text-anchor="end" fill="#9ca3af" font-size="12" font-family="-apple-system,BlinkMacSystemFont,Segoe UI,Helvetica,Arial,sans-serif">1.4M</text>
<line x1="90" y1="216.0" x2="1036" y2="216.0" stroke="#1f2937" stroke-width="1"/>
<text x="80" y="221.0" text-anchor="end" fill="#9ca3af" font-size="12" font-family="-apple-system,BlinkMacSystemFont,Segoe UI,Helvetica,Arial,sans-serif">1.1M</text>
<line x1="90" y1="279.0" x2="1036" y2="279.0" stroke="#1f2937" stroke-width="1"/>
<text x="80" y="284.0" text-anchor="end" fill="#9ca3af" font-size="12" font-family="-apple-system,BlinkMacSystemFont,Segoe UI,Helvetica,Arial,sans-serif">859.0k</text>
<line x1="90" y1="342.0" x2="1036" y2="342.0" stroke="#1f2937" stroke-width="1"/>
<text x="80" y="347.0" text-anchor="end" fill="#9ca3af" font-size="12" font-family="-apple-system,BlinkMacSystemFont,Segoe UI,Helvetica,Arial,sans-serif">572.7k</text>
<line x1="90" y1="405.0" x2="1036" y2="405.0" stroke="#1f2937" stroke-width="1"/>
<text x="80" y="410.0" text-anchor="end" fill="#9ca3af" font-size="12" font-family="-apple-system,BlinkMacSystemFont,Segoe UI,Helvetica,Arial,sans-serif">286.3k</text>
<line x1="90" y1="468.0" x2="1036" y2="468.0" stroke="#1f2937" stroke-width="1"/>
<text x="80" y="473.0" text-anchor="end" fill="#9ca3af" font-size="12" font-family="-apple-system,BlinkMacSystemFont,Segoe UI,Helvetica,Arial,sans-serif">0</text>
<line x1="90" y1="468" x2="1036" y2="468" stroke="#4b5563" stroke-width="1.4"/>
<line x1="90" y1="90" x2="90" y2="468" stroke="#4b5563" stroke-width="1.4"/>
<line x1="90.0" y1="468" x2="90.0" y2="474" stroke="#6b7280" stroke-width="1"/>
<text x="90.0" y="494" text-anchor="start" fill="#9ca3af" font-size="12" font-family="-apple-system,BlinkMacSystemFont,Segoe UI,Helvetica,Arial,sans-serif">2019-09-16</text>
<line x1="279.2" y1="468" x2="279.2" y2="474" stroke="#6b7280" stroke-width="1"/>
<text x="279.2" y="494" text-anchor="middle" fill="#9ca3af" font-size="12" font-family="-apple-system,BlinkMacSystemFont,Segoe UI,Helvetica,Arial,sans-serif">2021-01-08</text>
<line x1="468.4" y1="468" x2="468.4" y2="474" stroke="#6b7280" stroke-width="1"/>
<text x="468.4" y="494" text-anchor="middle" fill="#9ca3af" font-size="12" font-family="-apple-system,BlinkMacSystemFont,Segoe UI,Helvetica,Arial,sans-serif">2022-05-02</text>
<line x1="657.6" y1="468" x2="657.6" y2="474" stroke="#6b7280" stroke-width="1"/>
<text x="657.6" y="494" text-anchor="middle" fill="#9ca3af" font-size="12" font-family="-apple-system,BlinkMacSystemFont,Segoe UI,Helvetica,Arial,sans-serif">2023-08-25</text>
<line x1="846.8" y1="468" x2="846.8" y2="474" stroke="#6b7280" stroke-width="1"/>
<text x="846.8" y="494" text-anchor="middle" fill="#9ca3af" font-size="12" font-family="-apple-system,BlinkMacSystemFont,Segoe UI,Helvetica,Arial,sans-serif">2024-12-17</text>
<line x1="1036.0" y1="468" x2="1036.0" y2="474" stroke="#6b7280" stroke-width="1"/>
<text x="1036.0" y="494" text-anchor="end" fill="#9ca3af" font-size="12" font-family="-apple-system,BlinkMacSystemFont,Segoe UI,Helvetica,Arial,sans-serif">2026-04-11</text>
<polyline fill="none" stroke="url(#repo-0)" stroke-width="4" stroke-linecap="round" stroke-linejoin="round" points="90.00,468.00 98.26,462.27 106.52,461.04 114.78,460.99 123.04,460.92 131.30,460.83 139.56,460.72 147.82,460.59 156.08,460.44 164.34,460.28 172.60,460.09 180.86,459.89 189.12,459.67 197.38,458.72 205.64,458.05 213.91,457.78 222.17,457.50 230.43,457.20 238.69,456.13 246.95,452.57 255.21,447.56 263.47,441.84 271.73,436.39 279.99,432.11 288.25,429.45 296.51,428.28 304.77,427.86 313.03,427.43 321.29,426.19 329.55,423.43 337.81,419.33 346.07,414.48 354.33,409.77 362.59,406.08 370.85,403.92 379.11,403.22 387.37,402.71 395.63,402.18 403.89,401.65 412.15,399.47 420.41,394.76 428.67,388.64 436.93,382.01 445.19,375.87 453.46,370.96 461.72,367.50 469.98,365.11 478.24,362.97 486.50,360.15 494.76,355.93 503.02,350.09 511.28,343.02 519.54,335.59 527.80,328.86 536.06,323.69 544.32,320.46 552.58,318.92 560.84,318.27 569.10,317.45 577.36,315.53 585.62,312.02 593.88,307.04 602.14,301.25 610.40,295.61 618.66,291.01 626.92,287.93 635.18,286.28 643.44,285.37 651.70,284.18 659.96,281.74 668.22,277.43 676.48,271.27 684.74,263.87 693.01,256.23 701.27,249.45 709.53,244.26 717.79,240.86 726.05,238.81 734.31,237.21 742.57,235.07 750.83,231.66 759.09,226.81 767.35,220.95 775.61,214.96 783.87,209.91 792.13,206.59 800.39,205.29 808.65,204.85 816.91,204.42 825.17,204.00 833.43,203.60 841.69,203.20 849.95,200.28 858.21,195.41 866.47,190.73 874.73,187.14 882.99,185.15 891.25,184.60 899.51,184.30 907.77,184.02 916.03,183.51 924.30,180.56 932.56,175.99 940.82,170.52 949.08,165.23 957.34,164.22 965.60,164.05 973.86,163.90 982.12,163.77 990.38,163.66 998.64,163.57 1006.90,163.50 1015.16,163.45 1023.42,163.42 1031.68,163.41 1032.08,162.41 1032.45,161.29 1032.85,160.29 1033.24,159.65 1033.64,159.33 1034.04,158.87 1034.43,149.47 1034.82,131.62 1035.22,127.45 1035.61,125.31 1036.00,124.36"/>
<circle cx="90.00" cy="468.00" r="3.8" fill="#ffb50c" stroke="#111827" stroke-width="1"/>
<circle cx="131.30" cy="460.83" r="3.8" fill="#ffb50c" stroke="#111827" stroke-width="1"/>
<circle cx="172.60" cy="460.09" r="3.8" fill="#ffb50c" stroke="#111827" stroke-width="1"/>
<circle cx="213.91" cy="457.78" r="3.8" fill="#ffb50c" stroke="#111827" stroke-width="1"/>
<circle cx="255.21" cy="447.56" r="3.8" fill="#ffb50c" stroke="#111827" stroke-width="1"/>
<circle cx="296.51" cy="428.28" r="3.8" fill="#ffb50c" stroke="#111827" stroke-width="1"/>
<circle cx="337.81" cy="419.33" r="3.8" fill="#ffb50c" stroke="#111827" stroke-width="1"/>
<circle cx="379.11" cy="403.22" r="3.8" fill="#ffb50c" stroke="#111827" stroke-width="1"/>
<circle cx="420.41" cy="394.76" r="3.8" fill="#ffb50c" stroke="#111827" stroke-width="1"/>
<circle cx="461.72" cy="367.50" r="3.8" fill="#ffb50c" stroke="#111827" stroke-width="1"/>
<circle cx="503.02" cy="350.09" r="3.8" fill="#ffb50c" stroke="#111827" stroke-width="1"/>
<circle cx="544.32" cy="320.46" r="3.8" fill="#ffb50c" stroke="#111827" stroke-width="1"/>
<circle cx="585.62" cy="312.02" r="3.8" fill="#ffb50c" stroke="#111827" stroke-width="1"/>
<circle cx="626.92" cy="287.93" r="3.8" fill="#ffb50c" stroke="#111827" stroke-width="1"/>
<circle cx="668.22" cy="277.43" r="3.8" fill="#ffb50c" stroke="#111827" stroke-width="1"/>
<circle cx="709.53" cy="244.26" r="3.8" fill="#ffb50c" stroke="#111827" stroke-width="1"/>
<circle cx="750.83" cy="231.66" r="3.8" fill="#ffb50c" stroke="#111827" stroke-width="1"/>
<circle cx="792.13" cy="206.59" r="3.8" fill="#ffb50c" stroke="#111827" stroke-width="1"/>
<circle cx="833.43" cy="203.60" r="3.8" fill="#ffb50c" stroke="#111827" stroke-width="1"/>
<circle cx="874.73" cy="187.14" r="3.8" fill="#ffb50c" stroke="#111827" stroke-width="1"/>
<circle cx="916.03" cy="183.51" r="3.8" fill="#ffb50c" stroke="#111827" stroke-width="1"/>
<circle cx="957.34" cy="164.22" r="3.8" fill="#ffb50c" stroke="#111827" stroke-width="1"/>
<circle cx="998.64" cy="163.57" r="3.8" fill="#ffb50c" stroke="#111827" stroke-width="1"/>
<circle cx="1032.08" cy="162.41" r="3.8" fill="#ffb50c" stroke="#111827" stroke-width="1"/>
<circle cx="1034.04" cy="158.87" r="3.8" fill="#ffb50c" stroke="#111827" stroke-width="1"/>
<circle cx="1036.00" cy="124.36" r="3.8" fill="#ffb50c" stroke="#111827" stroke-width="1"/>
<text x="1028.0" y="114.4" text-anchor="end" fill="#ffb50c" font-size="12" font-family="-apple-system,BlinkMacSystemFont,Segoe UI,Helvetica,Arial,sans-serif">1.6M</text>
<polyline fill="none" stroke="url(#repo-1)" stroke-width="4" stroke-linecap="round" stroke-linejoin="round" points="653.96,468.00 662.17,467.27 670.38,467.02 678.59,466.86 686.81,466.80 695.02,466.74 703.23,466.67 711.44,466.55 719.65,466.11 727.86,465.41 736.07,464.50 744.28,463.47 752.50,462.42 760.71,461.45 768.92,460.60 777.13,459.83 785.34,459.05 793.55,458.15 801.76,457.03 809.97,455.68 818.19,454.12 826.40,452.47 834.61,450.86 842.82,449.40 851.03,448.17 859.24,447.14 867.45,446.24 875.67,445.34 883.88,444.35 892.09,443.21 900.30,441.93 908.51,440.59 916.72,439.31 924.93,438.21 933.14,437.37 941.36,436.78 949.57,436.35 957.78,435.98 965.99,435.54 974.20,434.95 982.41,434.19 990.62,433.34 998.83,432.51 1007.05,431.85 1015.26,431.45 1023.47,431.42 1031.68,431.42 1032.08,431.16 1032.45,430.92 1032.85,430.69 1033.24,430.57 1033.64,430.53 1034.04,430.45 1034.43,430.27 1034.82,429.99 1035.22,429.65 1035.61,429.33 1036.00,429.04"/>
<circle cx="653.96" cy="468.00" r="3.8" fill="#3bf2af" stroke="#111827" stroke-width="1"/>
<circle cx="670.38" cy="467.02" r="3.8" fill="#3bf2af" stroke="#111827" stroke-width="1"/>
<circle cx="686.81" cy="466.80" r="3.8" fill="#3bf2af" stroke="#111827" stroke-width="1"/>
<circle cx="703.23" cy="466.67" r="3.8" fill="#3bf2af" stroke="#111827" stroke-width="1"/>
<circle cx="719.65" cy="466.11" r="3.8" fill="#3bf2af" stroke="#111827" stroke-width="1"/>
<circle cx="736.07" cy="464.50" r="3.8" fill="#3bf2af" stroke="#111827" stroke-width="1"/>
<circle cx="752.50" cy="462.42" r="3.8" fill="#3bf2af" stroke="#111827" stroke-width="1"/>
<circle cx="768.92" cy="460.60" r="3.8" fill="#3bf2af" stroke="#111827" stroke-width="1"/>
<circle cx="785.34" cy="459.05" r="3.8" fill="#3bf2af" stroke="#111827" stroke-width="1"/>
<circle cx="801.76" cy="457.03" r="3.8" fill="#3bf2af" stroke="#111827" stroke-width="1"/>
<circle cx="818.19" cy="454.12" r="3.8" fill="#3bf2af" stroke="#111827" stroke-width="1"/>
<circle cx="834.61" cy="450.86" r="3.8" fill="#3bf2af" stroke="#111827" stroke-width="1"/>
<circle cx="851.03" cy="448.17" r="3.8" fill="#3bf2af" stroke="#111827" stroke-width="1"/>
<circle cx="867.45" cy="446.24" r="3.8" fill="#3bf2af" stroke="#111827" stroke-width="1"/>
<circle cx="883.88" cy="444.35" r="3.8" fill="#3bf2af" stroke="#111827" stroke-width="1"/>
<circle cx="900.30" cy="441.93" r="3.8" fill="#3bf2af" stroke="#111827" stroke-width="1"/>
<circle cx="916.72" cy="439.31" r="3.8" fill="#3bf2af" stroke="#111827" stroke-width="1"/>
<circle cx="933.14" cy="437.37" r="3.8" fill="#3bf2af" stroke="#111827" stroke-width="1"/>
<circle cx="949.57" cy="436.35" r="3.8" fill="#3bf2af" stroke="#111827" stroke-width="1"/>
<circle cx="965.99" cy="435.54" r="3.8" fill="#3bf2af" stroke="#111827" stroke-width="1"/>
<circle cx="982.41" cy="434.19" r="3.8" fill="#3bf2af" stroke="#111827" stroke-width="1"/>
<circle cx="998.83" cy="432.51" r="3.8" fill="#3bf2af" stroke="#111827" stroke-width="1"/>
<circle cx="1015.26" cy="431.45" r="3.8" fill="#3bf2af" stroke="#111827" stroke-width="1"/>
<circle cx="1031.68" cy="431.42" r="3.8" fill="#3bf2af" stroke="#111827" stroke-width="1"/>
<circle cx="1032.45" cy="430.92" r="3.8" fill="#3bf2af" stroke="#111827" stroke-width="1"/>
<circle cx="1033.24" cy="430.57" r="3.8" fill="#3bf2af" stroke="#111827" stroke-width="1"/>
<circle cx="1034.04" cy="430.45" r="3.8" fill="#3bf2af" stroke="#111827" stroke-width="1"/>
<circle cx="1034.82" cy="429.99" r="3.8" fill="#3bf2af" stroke="#111827" stroke-width="1"/>
<circle cx="1035.61" cy="429.33" r="3.8" fill="#3bf2af" stroke="#111827" stroke-width="1"/>
<circle cx="1036.00" cy="429.04" r="3.8" fill="#3bf2af" stroke="#111827" stroke-width="1"/>
<text x="1028.0" y="419.0" text-anchor="end" fill="#3bf2af" font-size="12" font-family="-apple-system,BlinkMacSystemFont,Segoe UI,Helvetica,Arial,sans-serif">177.1k</text>
<rect x="90" y="514" width="14" height="14" fill="url(#repo-0)" rx="3"/>
<text x="112" y="526" fill="#ffb50c" font-size="13" font-family="-apple-system,BlinkMacSystemFont,Segoe UI,Helvetica,Arial,sans-serif">tkpd/gripmock</text>
<rect x="280" y="514" width="14" height="14" fill="url(#repo-1)" rx="3"/>
<text x="302" y="526" fill="#3bf2af" font-size="13" font-family="-apple-system,BlinkMacSystemFont,Segoe UI,Helvetica,Arial,sans-serif">bavix/gripmock</text>
<text x="1036" y="526" text-anchor="end" fill="#9ca3af" font-size="12" font-family="-apple-system,BlinkMacSystemFont,Segoe UI,Helvetica,Arial,sans-serif">Source: https://github.com/bavix/artifact-stats/blob/master/stats/dockerhub.csv</text>
</svg>