<svg xmlns="http://www.w3.org/2000/svg" width="1100" height="560" viewBox="0 0 1100 560">
<defs>
<linearGradient id="bg" x1="0" y1="0" x2="1" y2="1"><stop offset="0%" stop-color="#0b1220"/><stop offset="100%" stop-color="#111827"/></linearGradient>
<linearGradient id="repo-0" x1="0" y1="0" x2="0" y2="1"><stop offset="0%" stop-color="#f59e0b"/><stop offset="100%" stop-color="#d97706"/></linearGradient>
<linearGradient id="repo-1" x1="0" y1="0" x2="0" y2="1"><stop offset="0%" stop-color="#34d399"/><stop offset="100%" stop-color="#059669"/></linearGradient>
</defs>
<rect x="0" y="0" width="1100" height="560" fill="url(#bg)" rx="16"/>
<text x="90" y="44" fill="#f9fafb" font-size="28" font-family="-apple-system,BlinkMacSystemFont,Segoe UI,Helvetica,Arial,sans-serif" font-weight="700">GripMock Docker Hub Downloads</text>
<text x="90" y="70" fill="#9ca3af" font-size="16" font-family="-apple-system,BlinkMacSystemFont,Segoe UI,Helvetica,Arial,sans-serif">Docker Hub pull count by snapshot date</text>
<line x1="90" y1="90.0" x2="1036" y2="90.0" stroke="#1f2937" stroke-width="1"/>
<text x="80" y="95.0" text-anchor="end" fill="#9ca3af" font-size="12" font-family="-apple-system,BlinkMacSystemFont,Segoe UI,Helvetica,Arial,sans-serif">1.5M</text>
<line x1="90" y1="153.0" x2="1036" y2="153.0" stroke="#1f2937" stroke-width="1"/>
<text x="80" y="158.0" text-anchor="end" fill="#9ca3af" font-size="12" font-family="-apple-system,BlinkMacSystemFont,Segoe UI,Helvetica,Arial,sans-serif">1.3M</text>
<line x1="90" y1="216.0" x2="1036" y2="216.0" stroke="#1f2937" stroke-width="1"/>
<text x="80" y="221.0" text-anchor="end" fill="#9ca3af" font-size="12" font-family="-apple-system,BlinkMacSystemFont,Segoe UI,Helvetica,Arial,sans-serif">1.0M</text>
<line x1="90" y1="279.0" x2="1036" y2="279.0" stroke="#1f2937" stroke-width="1"/>
<text x="80" y="284.0" text-anchor="end" fill="#9ca3af" font-size="12" font-family="-apple-system,BlinkMacSystemFont,Segoe UI,Helvetica,Arial,sans-serif">766.7k</text>
<line x1="90" y1="342.0" x2="1036" y2="342.0" stroke="#1f2937" stroke-width="1"/>
<text x="80" y="347.0" text-anchor="end" fill="#9ca3af" font-size="12" font-family="-apple-system,BlinkMacSystemFont,Segoe UI,Helvetica,Arial,sans-serif">511.1k</text>
<line x1="90" y1="405.0" x2="1036" y2="405.0" stroke="#1f2937" stroke-width="1"/>
<text x="80" y="410.0" text-anchor="end" fill="#9ca3af" font-size="12" font-family="-apple-system,BlinkMacSystemFont,Segoe UI,Helvetica,Arial,sans-serif">255.6k</text>
<line x1="90" y1="468.0" x2="1036" y2="468.0" stroke="#1f2937" stroke-width="1"/>
<text x="80" y="473.0" text-anchor="end" fill="#9ca3af" font-size="12" font-family="-apple-system,BlinkMacSystemFont,Segoe UI,Helvetica,Arial,sans-serif">0</text>
<line x1="90" y1="468" x2="1036" y2="468" stroke="#4b5563" stroke-width="1.4"/>
<line x1="90" y1="90" x2="90" y2="468" stroke="#4b5563" stroke-width="1.4"/>
<line x1="90.0" y1="468" x2="90.0" y2="474" stroke="#6b7280" stroke-width="1"/>
<text x="90.0" y="494" text-anchor="start" fill="#9ca3af" font-size="12" font-family="-apple-system,BlinkMacSystemFont,Segoe UI,Helvetica,Arial,sans-serif">2019-09-16</text>
<line x1="279.2" y1="468" x2="279.2" y2="474" stroke="#6b7280" stroke-width="1"/>
<text x="279.2" y="494" text-anchor="middle" fill="#9ca3af" font-size="12" font-family="-apple-system,BlinkMacSystemFont,Segoe UI,Helvetica,Arial,sans-serif">2021-01-06</text>
<line x1="468.4" y1="468" x2="468.4" y2="474" stroke="#6b7280" stroke-width="1"/>
<text x="468.4" y="494" text-anchor="middle" fill="#9ca3af" font-size="12" font-family="-apple-system,BlinkMacSystemFont,Segoe UI,Helvetica,Arial,sans-serif">2022-04-29</text>
<line x1="657.6" y1="468" x2="657.6" y2="474" stroke="#6b7280" stroke-width="1"/>
<text x="657.6" y="494" text-anchor="middle" fill="#9ca3af" font-size="12" font-family="-apple-system,BlinkMacSystemFont,Segoe UI,Helvetica,Arial,sans-serif">2023-08-20</text>
<line x1="846.8" y1="468" x2="846.8" y2="474" stroke="#6b7280" stroke-width="1"/>
<text x="846.8" y="494" text-anchor="middle" fill="#9ca3af" font-size="12" font-family="-apple-system,BlinkMacSystemFont,Segoe UI,Helvetica,Arial,sans-serif">2024-12-10</text>
<line x1="1036.0" y1="468" x2="1036.0" y2="474" stroke="#6b7280" stroke-width="1"/>
<text x="1036.0" y="494" text-anchor="end" fill="#9ca3af" font-size="12" font-family="-apple-system,BlinkMacSystemFont,Segoe UI,Helvetica,Arial,sans-serif">2026-04-02</text>
<polyline fill="none" stroke="url(#repo-0)" stroke-width="4" stroke-linecap="round" stroke-linejoin="round" points="90.00,468.00 98.29,461.58 106.58,460.21 114.87,460.15 123.17,460.07 131.46,459.97 139.75,459.84 148.04,459.70 156.33,459.53 164.62,459.35 172.91,459.14 181.21,458.92 189.50,458.67 197.79,457.60 206.08,456.85 214.37,456.55 222.66,456.24 230.95,455.90 239.25,454.70 247.54,450.71 255.83,445.10 264.12,438.69 272.41,432.59 280.70,427.79 288.99,424.81 297.29,423.50 305.58,423.03 313.87,422.55 322.16,421.16 330.45,418.07 338.74,413.47 347.03,408.04 355.33,402.76 363.62,398.63 371.91,396.20 380.20,395.42 388.49,394.85 396.78,394.26 405.07,393.67 413.37,391.22 421.66,385.94 429.95,379.08 438.24,371.66 446.53,364.78 454.82,359.28 463.11,355.40 471.41,352.72 479.70,350.33 487.99,347.17 496.28,342.44 504.57,335.89 512.86,327.97 521.15,319.65 529.45,312.10 537.74,306.31 546.03,302.70 554.32,300.98 562.61,300.24 570.90,299.32 579.19,297.17 587.49,293.24 595.78,287.67 604.07,281.18 612.36,274.85 620.65,269.69 628.94,266.25 637.23,264.40 645.53,263.38 653.82,262.05 662.11,259.31 670.40,254.49 678.69,247.59 686.98,239.29 695.27,230.74 703.57,223.13 711.86,217.33 720.15,213.52 728.44,211.21 736.73,209.42 745.02,207.02 753.31,203.21 761.61,197.78 769.90,191.20 778.19,184.50 786.48,178.83 794.77,175.12 803.06,173.66 811.35,173.17 819.65,172.69 827.94,172.22 836.23,171.76 844.52,171.32 852.81,168.04 861.10,162.59 869.39,157.34 877.69,153.33 885.98,151.09 894.27,150.48 902.56,150.14 910.85,149.83 919.14,149.26 927.43,145.95 935.73,140.83 944.02,134.71 952.31,128.78 960.60,127.64 968.89,127.45 977.18,127.29 985.47,127.14 993.77,127.02 1002.06,126.92 1010.35,126.84 1018.64,126.78 1026.93,126.75 1035.22,126.73 1035.63,125.61 1036.00,124.36"/>
<circle cx="90.00" cy="468.00" r="3.8" fill="#ffb50c" stroke="#111827" stroke-width="1"/>
<circle cx="123.17" cy="460.07" r="3.8" fill="#ffb50c" stroke="#111827" stroke-width="1"/>
<circle cx="156.33" cy="459.53" r="3.8" fill="#ffb50c" stroke="#111827" stroke-width="1"/>
<circle cx="189.50" cy="458.67" r="3.8" fill="#ffb50c" stroke="#111827" stroke-width="1"/>
<circle cx="222.66" cy="456.24" r="3.8" fill="#ffb50c" stroke="#111827" stroke-width="1"/>
<circle cx="255.83" cy="445.10" r="3.8" fill="#ffb50c" stroke="#111827" stroke-width="1"/>
<circle cx="288.99" cy="424.81" r="3.8" fill="#ffb50c" stroke="#111827" stroke-width="1"/>
<circle cx="322.16" cy="421.16" r="3.8" fill="#ffb50c" stroke="#111827" stroke-width="1"/>
<circle cx="355.33" cy="402.76" r="3.8" fill="#ffb50c" stroke="#111827" stroke-width="1"/>
<circle cx="388.49" cy="394.85" r="3.8" fill="#ffb50c" stroke="#111827" stroke-width="1"/>
<circle cx="421.66" cy="385.94" r="3.8" fill="#ffb50c" stroke="#111827" stroke-width="1"/>
<circle cx="454.82" cy="359.28" r="3.8" fill="#ffb50c" stroke="#111827" stroke-width="1"/>
<circle cx="487.99" cy="347.17" r="3.8" fill="#ffb50c" stroke="#111827" stroke-width="1"/>
<circle cx="521.15" cy="319.65" r="3.8" fill="#ffb50c" stroke="#111827" stroke-width="1"/>
<circle cx="554.32" cy="300.98" r="3.8" fill="#ffb50c" stroke="#111827" stroke-width="1"/>
<circle cx="587.49" cy="293.24" r="3.8" fill="#ffb50c" stroke="#111827" stroke-width="1"/>
<circle cx="620.65" cy="269.69" r="3.8" fill="#ffb50c" stroke="#111827" stroke-width="1"/>
<circle cx="653.82" cy="262.05" r="3.8" fill="#ffb50c" stroke="#111827" stroke-width="1"/>
<circle cx="686.98" cy="239.29" r="3.8" fill="#ffb50c" stroke="#111827" stroke-width="1"/>
<circle cx="720.15" cy="213.52" r="3.8" fill="#ffb50c" stroke="#111827" stroke-width="1"/>
<circle cx="753.31" cy="203.21" r="3.8" fill="#ffb50c" stroke="#111827" stroke-width="1"/>
<circle cx="786.48" cy="178.83" r="3.8" fill="#ffb50c" stroke="#111827" stroke-width="1"/>
<circle cx="819.65" cy="172.69" r="3.8" fill="#ffb50c" stroke="#111827" stroke-width="1"/>
<circle cx="852.81" cy="168.04" r="3.8" fill="#ffb50c" stroke="#111827" stroke-width="1"/>
<circle cx="885.98" cy="151.09" r="3.8" fill="#ffb50c" stroke="#111827" stroke-width="1"/>
<circle cx="919.14" cy="149.26" r="3.8" fill="#ffb50c" stroke="#111827" stroke-width="1"/>
<circle cx="952.31" cy="128.78" r="3.8" fill="#ffb50c" stroke="#111827" stroke-width="1"/>
<circle cx="985.47" cy="127.14" r="3.8" fill="#ffb50c" stroke="#111827" stroke-width="1"/>
<circle cx="1018.64" cy="126.78" r="3.8" fill="#ffb50c" stroke="#111827" stroke-width="1"/>
<circle cx="1036.00" cy="124.36" r="3.8" fill="#ffb50c" stroke="#111827" stroke-width="1"/>
<text x="1028.0" y="114.4" text-anchor="end" fill="#ffb50c" font-size="12" font-family="-apple-system,BlinkMacSystemFont,Segoe UI,Helvetica,Arial,sans-serif">1.4M</text>
<polyline fill="none" stroke="url(#repo-1)" stroke-width="4" stroke-linecap="round" stroke-linejoin="round" points="656.08,468.00 664.33,467.19 672.57,466.90 680.81,466.72 689.05,466.66 697.29,466.59 705.54,466.50 713.78,466.37 722.02,465.88 730.26,465.10 738.50,464.08 746.75,462.92 754.99,461.75 763.23,460.66 771.47,459.71 779.72,458.85 787.96,457.97 796.20,456.96 804.44,455.71 812.68,454.20 820.93,452.45 829.17,450.60 837.41,448.80 845.65,447.17 853.90,445.78 862.14,444.63 870.38,443.62 878.62,442.62 886.86,441.51 895.11,440.23 903.35,438.79 911.59,437.29 919.83,435.85 928.08,434.63 936.32,433.68 944.56,433.02 952.80,432.54 961.04,432.13 969.29,431.63 977.53,430.97 985.77,430.12 994.01,429.17 1002.25,428.24 1010.50,427.50 1018.74,427.05 1026.98,427.02 1035.22,427.01 1035.63,426.73 1036.00,426.46"/>
<circle cx="656.08" cy="468.00" r="3.8" fill="#3bf2af" stroke="#111827" stroke-width="1"/>
<circle cx="672.57" cy="466.90" r="3.8" fill="#3bf2af" stroke="#111827" stroke-width="1"/>
<circle cx="689.05" cy="466.66" r="3.8" fill="#3bf2af" stroke="#111827" stroke-width="1"/>
<circle cx="705.54" cy="466.50" r="3.8" fill="#3bf2af" stroke="#111827" stroke-width="1"/>
<circle cx="722.02" cy="465.88" r="3.8" fill="#3bf2af" stroke="#111827" stroke-width="1"/>
<circle cx="738.50" cy="464.08" r="3.8" fill="#3bf2af" stroke="#111827" stroke-width="1"/>
<circle cx="754.99" cy="461.75" r="3.8" fill="#3bf2af" stroke="#111827" stroke-width="1"/>
<circle cx="771.47" cy="459.71" r="3.8" fill="#3bf2af" stroke="#111827" stroke-width="1"/>
<circle cx="787.96" cy="457.97" r="3.8" fill="#3bf2af" stroke="#111827" stroke-width="1"/>
<circle cx="804.44" cy="455.71" r="3.8" fill="#3bf2af" stroke="#111827" stroke-width="1"/>
<circle cx="820.93" cy="452.45" r="3.8" fill="#3bf2af" stroke="#111827" stroke-width="1"/>
<circle cx="837.41" cy="448.80" r="3.8" fill="#3bf2af" stroke="#111827" stroke-width="1"/>
<circle cx="853.90" cy="445.78" r="3.8" fill="#3bf2af" stroke="#111827" stroke-width="1"/>
<circle cx="870.38" cy="443.62" r="3.8" fill="#3bf2af" stroke="#111827" stroke-width="1"/>
<circle cx="886.86" cy="441.51" r="3.8" fill="#3bf2af" stroke="#111827" stroke-width="1"/>
<circle cx="903.35" cy="438.79" r="3.8" fill="#3bf2af" stroke="#111827" stroke-width="1"/>
<circle cx="919.83" cy="435.85" r="3.8" fill="#3bf2af" stroke="#111827" stroke-width="1"/>
<circle cx="936.32" cy="433.68" r="3.8" fill="#3bf2af" stroke="#111827" stroke-width="1"/>
<circle cx="952.80" cy="432.54" r="3.8" fill="#3bf2af" stroke="#111827" stroke-width="1"/>
<circle cx="969.29" cy="431.63" r="3.8" fill="#3bf2af" stroke="#111827" stroke-width="1"/>
<circle cx="985.77" cy="430.12" r="3.8" fill="#3bf2af" stroke="#111827" stroke-width="1"/>
<circle cx="1002.25" cy="428.24" r="3.8" fill="#3bf2af" stroke="#111827" stroke-width="1"/>
<circle cx="1018.74" cy="427.05" r="3.8" fill="#3bf2af" stroke="#111827" stroke-width="1"/>
<circle cx="1035.22" cy="427.01" r="3.8" fill="#3bf2af" stroke="#111827" stroke-width="1"/>
<circle cx="1036.00" cy="426.46" r="3.8" fill="#3bf2af" stroke="#111827" stroke-width="1"/>
<text x="1028.0" y="416.5" text-anchor="end" fill="#3bf2af" font-size="12" font-family="-apple-system,BlinkMacSystemFont,Segoe UI,Helvetica,Arial,sans-serif">168.5k</text>
<rect x="90" y="514" width="14" height="14" fill="url(#repo-0)" rx="3"/>
<text x="112" y="526" fill="#ffb50c" font-size="13" font-family="-apple-system,BlinkMacSystemFont,Segoe UI,Helvetica,Arial,sans-serif">tkpd/gripmock</text>
<rect x="280" y="514" width="14" height="14" fill="url(#repo-1)" rx="3"/>
<text x="302" y="526" fill="#3bf2af" font-size="13" font-family="-apple-system,BlinkMacSystemFont,Segoe UI,Helvetica,Arial,sans-serif">bavix/gripmock</text>
<text x="1036" y="526" text-anchor="end" fill="#9ca3af" font-size="12" font-family="-apple-system,BlinkMacSystemFont,Segoe UI,Helvetica,Arial,sans-serif">Source: https://github.com/bavix/artifact-stats/blob/master/stats/dockerhub.csv</text>
</svg>