<svg xmlns="http://www.w3.org/2000/svg" width="1100" height="560" viewBox="0 0 1100 560">
<defs>
<linearGradient id="bg" x1="0" y1="0" x2="1" y2="1"><stop offset="0%" stop-color="#0b1220"/><stop offset="100%" stop-color="#111827"/></linearGradient>
<linearGradient id="repo-0" x1="0" y1="0" x2="0" y2="1"><stop offset="0%" stop-color="#f59e0b"/><stop offset="100%" stop-color="#d97706"/></linearGradient>
<linearGradient id="repo-1" x1="0" y1="0" x2="0" y2="1"><stop offset="0%" stop-color="#34d399"/><stop offset="100%" stop-color="#059669"/></linearGradient>
</defs>
<rect x="0" y="0" width="1100" height="560" fill="url(#bg)" rx="16"/>
<text x="90" y="44" fill="#f9fafb" font-size="28" font-family="-apple-system,BlinkMacSystemFont,Segoe UI,Helvetica,Arial,sans-serif" font-weight="700">GripMock Docker Hub Downloads</text>
<text x="90" y="70" fill="#9ca3af" font-size="16" font-family="-apple-system,BlinkMacSystemFont,Segoe UI,Helvetica,Arial,sans-serif">Docker Hub pull count by snapshot date</text>
<line x1="90" y1="90.0" x2="1036" y2="90.0" stroke="#1f2937" stroke-width="1"/>
<text x="80" y="95.0" text-anchor="end" fill="#9ca3af" font-size="12" font-family="-apple-system,BlinkMacSystemFont,Segoe UI,Helvetica,Arial,sans-serif">1.7M</text>
<line x1="90" y1="153.0" x2="1036" y2="153.0" stroke="#1f2937" stroke-width="1"/>
<text x="80" y="158.0" text-anchor="end" fill="#9ca3af" font-size="12" font-family="-apple-system,BlinkMacSystemFont,Segoe UI,Helvetica,Arial,sans-serif">1.4M</text>
<line x1="90" y1="216.0" x2="1036" y2="216.0" stroke="#1f2937" stroke-width="1"/>
<text x="80" y="221.0" text-anchor="end" fill="#9ca3af" font-size="12" font-family="-apple-system,BlinkMacSystemFont,Segoe UI,Helvetica,Arial,sans-serif">1.1M</text>
<line x1="90" y1="279.0" x2="1036" y2="279.0" stroke="#1f2937" stroke-width="1"/>
<text x="80" y="284.0" text-anchor="end" fill="#9ca3af" font-size="12" font-family="-apple-system,BlinkMacSystemFont,Segoe UI,Helvetica,Arial,sans-serif">856.6k</text>
<line x1="90" y1="342.0" x2="1036" y2="342.0" stroke="#1f2937" stroke-width="1"/>
<text x="80" y="347.0" text-anchor="end" fill="#9ca3af" font-size="12" font-family="-apple-system,BlinkMacSystemFont,Segoe UI,Helvetica,Arial,sans-serif">571.1k</text>
<line x1="90" y1="405.0" x2="1036" y2="405.0" stroke="#1f2937" stroke-width="1"/>
<text x="80" y="410.0" text-anchor="end" fill="#9ca3af" font-size="12" font-family="-apple-system,BlinkMacSystemFont,Segoe UI,Helvetica,Arial,sans-serif">285.5k</text>
<line x1="90" y1="468.0" x2="1036" y2="468.0" stroke="#1f2937" stroke-width="1"/>
<text x="80" y="473.0" text-anchor="end" fill="#9ca3af" font-size="12" font-family="-apple-system,BlinkMacSystemFont,Segoe UI,Helvetica,Arial,sans-serif">0</text>
<line x1="90" y1="468" x2="1036" y2="468" stroke="#4b5563" stroke-width="1.4"/>
<line x1="90" y1="90" x2="90" y2="468" stroke="#4b5563" stroke-width="1.4"/>
<line x1="90.0" y1="468" x2="90.0" y2="474" stroke="#6b7280" stroke-width="1"/>
<text x="90.0" y="494" text-anchor="start" fill="#9ca3af" font-size="12" font-family="-apple-system,BlinkMacSystemFont,Segoe UI,Helvetica,Arial,sans-serif">2019-09-16</text>
<line x1="279.2" y1="468" x2="279.2" y2="474" stroke="#6b7280" stroke-width="1"/>
<text x="279.2" y="494" text-anchor="middle" fill="#9ca3af" font-size="12" font-family="-apple-system,BlinkMacSystemFont,Segoe UI,Helvetica,Arial,sans-serif">2021-01-07</text>
<line x1="468.4" y1="468" x2="468.4" y2="474" stroke="#6b7280" stroke-width="1"/>
<text x="468.4" y="494" text-anchor="middle" fill="#9ca3af" font-size="12" font-family="-apple-system,BlinkMacSystemFont,Segoe UI,Helvetica,Arial,sans-serif">2022-05-02</text>
<line x1="657.6" y1="468" x2="657.6" y2="474" stroke="#6b7280" stroke-width="1"/>
<text x="657.6" y="494" text-anchor="middle" fill="#9ca3af" font-size="12" font-family="-apple-system,BlinkMacSystemFont,Segoe UI,Helvetica,Arial,sans-serif">2023-08-25</text>
<line x1="846.8" y1="468" x2="846.8" y2="474" stroke="#6b7280" stroke-width="1"/>
<text x="846.8" y="494" text-anchor="middle" fill="#9ca3af" font-size="12" font-family="-apple-system,BlinkMacSystemFont,Segoe UI,Helvetica,Arial,sans-serif">2024-12-16</text>
<line x1="1036.0" y1="468" x2="1036.0" y2="474" stroke="#6b7280" stroke-width="1"/>
<text x="1036.0" y="494" text-anchor="end" fill="#9ca3af" font-size="12" font-family="-apple-system,BlinkMacSystemFont,Segoe UI,Helvetica,Arial,sans-serif">2026-04-10</text>
<polyline fill="none" stroke="url(#repo-0)" stroke-width="4" stroke-linecap="round" stroke-linejoin="round" points="90.00,468.00 98.26,462.26 106.53,461.03 114.79,460.97 123.05,460.90 131.32,460.81 139.58,460.70 147.85,460.57 156.11,460.42 164.37,460.26 172.64,460.07 180.90,459.87 189.16,459.65 197.43,458.69 205.69,458.02 213.96,457.75 222.22,457.47 230.48,457.17 238.75,456.10 247.01,452.53 255.27,447.50 263.54,441.77 271.80,436.31 280.07,432.01 288.33,429.34 296.59,428.17 304.86,427.75 313.12,427.32 321.38,426.07 329.65,423.31 337.91,419.20 346.18,414.33 354.44,409.61 362.70,405.91 370.97,403.74 379.23,403.04 387.49,402.53 395.76,402.00 404.02,401.47 412.29,399.29 420.55,394.55 428.81,388.42 437.08,381.78 445.34,375.62 453.60,370.69 461.87,367.22 470.13,364.82 478.40,362.68 486.66,359.85 494.92,355.62 503.19,349.76 511.45,342.67 519.71,335.22 527.98,328.47 536.24,323.29 544.50,320.06 552.77,318.51 561.03,317.85 569.30,317.03 577.56,315.11 585.82,311.59 594.09,306.60 602.35,300.79 610.61,295.13 618.88,290.51 627.14,287.43 635.41,285.78 643.67,284.86 651.93,283.67 660.20,281.22 668.46,276.90 676.72,270.73 684.99,263.30 693.25,255.65 701.52,248.84 709.78,243.64 718.04,240.23 726.31,238.17 734.57,236.57 742.83,234.42 751.10,231.01 759.36,226.15 767.63,220.26 775.89,214.26 784.15,209.19 792.42,205.87 800.68,204.56 808.94,204.12 817.21,203.69 825.47,203.27 833.74,202.87 842.00,202.47 850.26,199.54 858.53,194.66 866.79,189.96 875.05,186.37 883.32,184.36 891.58,183.81 899.84,183.52 908.11,183.23 916.37,182.72 924.64,179.76 932.90,175.18 941.16,169.70 949.43,164.39 957.69,163.37 965.95,163.21 974.22,163.06 982.48,162.93 990.75,162.82 999.01,162.73 1007.27,162.66 1015.54,162.60 1023.80,162.57 1032.06,162.56 1032.47,161.56 1032.84,160.44 1033.23,159.44 1033.62,158.80 1034.02,158.47 1034.42,158.01 1034.81,148.59 1035.21,130.69 1035.60,126.51 1036.00,124.36"/>
<circle cx="90.00" cy="468.00" r="3.8" fill="#ffb50c" stroke="#111827" stroke-width="1"/>
<circle cx="131.32" cy="460.81" r="3.8" fill="#ffb50c" stroke="#111827" stroke-width="1"/>
<circle cx="172.64" cy="460.07" r="3.8" fill="#ffb50c" stroke="#111827" stroke-width="1"/>
<circle cx="213.96" cy="457.75" r="3.8" fill="#ffb50c" stroke="#111827" stroke-width="1"/>
<circle cx="255.27" cy="447.50" r="3.8" fill="#ffb50c" stroke="#111827" stroke-width="1"/>
<circle cx="296.59" cy="428.17" r="3.8" fill="#ffb50c" stroke="#111827" stroke-width="1"/>
<circle cx="337.91" cy="419.20" r="3.8" fill="#ffb50c" stroke="#111827" stroke-width="1"/>
<circle cx="379.23" cy="403.04" r="3.8" fill="#ffb50c" stroke="#111827" stroke-width="1"/>
<circle cx="420.55" cy="394.55" r="3.8" fill="#ffb50c" stroke="#111827" stroke-width="1"/>
<circle cx="461.87" cy="367.22" r="3.8" fill="#ffb50c" stroke="#111827" stroke-width="1"/>
<circle cx="503.19" cy="349.76" r="3.8" fill="#ffb50c" stroke="#111827" stroke-width="1"/>
<circle cx="544.50" cy="320.06" r="3.8" fill="#ffb50c" stroke="#111827" stroke-width="1"/>
<circle cx="585.82" cy="311.59" r="3.8" fill="#ffb50c" stroke="#111827" stroke-width="1"/>
<circle cx="627.14" cy="287.43" r="3.8" fill="#ffb50c" stroke="#111827" stroke-width="1"/>
<circle cx="668.46" cy="276.90" r="3.8" fill="#ffb50c" stroke="#111827" stroke-width="1"/>
<circle cx="709.78" cy="243.64" r="3.8" fill="#ffb50c" stroke="#111827" stroke-width="1"/>
<circle cx="751.10" cy="231.01" r="3.8" fill="#ffb50c" stroke="#111827" stroke-width="1"/>
<circle cx="792.42" cy="205.87" r="3.8" fill="#ffb50c" stroke="#111827" stroke-width="1"/>
<circle cx="833.74" cy="202.87" r="3.8" fill="#ffb50c" stroke="#111827" stroke-width="1"/>
<circle cx="875.05" cy="186.37" r="3.8" fill="#ffb50c" stroke="#111827" stroke-width="1"/>
<circle cx="916.37" cy="182.72" r="3.8" fill="#ffb50c" stroke="#111827" stroke-width="1"/>
<circle cx="957.69" cy="163.37" r="3.8" fill="#ffb50c" stroke="#111827" stroke-width="1"/>
<circle cx="999.01" cy="162.73" r="3.8" fill="#ffb50c" stroke="#111827" stroke-width="1"/>
<circle cx="1032.47" cy="161.56" r="3.8" fill="#ffb50c" stroke="#111827" stroke-width="1"/>
<circle cx="1034.42" cy="158.01" r="3.8" fill="#ffb50c" stroke="#111827" stroke-width="1"/>
<circle cx="1036.00" cy="124.36" r="3.8" fill="#ffb50c" stroke="#111827" stroke-width="1"/>
<text x="1028.0" y="114.4" text-anchor="end" fill="#ffb50c" font-size="12" font-family="-apple-system,BlinkMacSystemFont,Segoe UI,Helvetica,Arial,sans-serif">1.6M</text>
<polyline fill="none" stroke="url(#repo-1)" stroke-width="4" stroke-linecap="round" stroke-linejoin="round" points="654.19,468.00 662.41,467.27 670.62,467.01 678.83,466.85 687.05,466.80 695.26,466.74 703.48,466.66 711.69,466.54 719.91,466.10 728.12,465.41 736.34,464.49 744.55,463.45 752.77,462.40 760.98,461.44 769.20,460.58 777.41,459.81 785.63,459.03 793.84,458.12 802.05,457.00 810.27,455.64 818.48,454.09 826.70,452.43 834.91,450.81 843.13,449.35 851.34,448.11 859.56,447.08 867.77,446.18 875.99,445.28 884.20,444.29 892.42,443.14 900.63,441.86 908.84,440.51 917.06,439.23 925.27,438.13 933.49,437.29 941.70,436.69 949.92,436.27 958.13,435.90 966.35,435.45 974.56,434.86 982.78,434.10 990.99,433.24 999.21,432.42 1007.42,431.75 1015.64,431.35 1023.85,431.32 1032.06,431.32 1032.47,431.06 1032.84,430.82 1033.23,430.59 1033.62,430.47 1034.02,430.43 1034.42,430.34 1034.81,430.16 1035.21,429.88 1035.60,429.55 1036.00,429.22"/>
<circle cx="654.19" cy="468.00" r="3.8" fill="#3bf2af" stroke="#111827" stroke-width="1"/>
<circle cx="670.62" cy="467.01" r="3.8" fill="#3bf2af" stroke="#111827" stroke-width="1"/>
<circle cx="687.05" cy="466.80" r="3.8" fill="#3bf2af" stroke="#111827" stroke-width="1"/>
<circle cx="703.48" cy="466.66" r="3.8" fill="#3bf2af" stroke="#111827" stroke-width="1"/>
<circle cx="719.91" cy="466.10" r="3.8" fill="#3bf2af" stroke="#111827" stroke-width="1"/>
<circle cx="736.34" cy="464.49" r="3.8" fill="#3bf2af" stroke="#111827" stroke-width="1"/>
<circle cx="752.77" cy="462.40" r="3.8" fill="#3bf2af" stroke="#111827" stroke-width="1"/>
<circle cx="769.20" cy="460.58" r="3.8" fill="#3bf2af" stroke="#111827" stroke-width="1"/>
<circle cx="785.63" cy="459.03" r="3.8" fill="#3bf2af" stroke="#111827" stroke-width="1"/>
<circle cx="802.05" cy="457.00" r="3.8" fill="#3bf2af" stroke="#111827" stroke-width="1"/>
<circle cx="818.48" cy="454.09" r="3.8" fill="#3bf2af" stroke="#111827" stroke-width="1"/>
<circle cx="834.91" cy="450.81" r="3.8" fill="#3bf2af" stroke="#111827" stroke-width="1"/>
<circle cx="851.34" cy="448.11" r="3.8" fill="#3bf2af" stroke="#111827" stroke-width="1"/>
<circle cx="867.77" cy="446.18" r="3.8" fill="#3bf2af" stroke="#111827" stroke-width="1"/>
<circle cx="884.20" cy="444.29" r="3.8" fill="#3bf2af" stroke="#111827" stroke-width="1"/>
<circle cx="900.63" cy="441.86" r="3.8" fill="#3bf2af" stroke="#111827" stroke-width="1"/>
<circle cx="917.06" cy="439.23" r="3.8" fill="#3bf2af" stroke="#111827" stroke-width="1"/>
<circle cx="933.49" cy="437.29" r="3.8" fill="#3bf2af" stroke="#111827" stroke-width="1"/>
<circle cx="949.92" cy="436.27" r="3.8" fill="#3bf2af" stroke="#111827" stroke-width="1"/>
<circle cx="966.35" cy="435.45" r="3.8" fill="#3bf2af" stroke="#111827" stroke-width="1"/>
<circle cx="982.78" cy="434.10" r="3.8" fill="#3bf2af" stroke="#111827" stroke-width="1"/>
<circle cx="999.21" cy="432.42" r="3.8" fill="#3bf2af" stroke="#111827" stroke-width="1"/>
<circle cx="1015.64" cy="431.35" r="3.8" fill="#3bf2af" stroke="#111827" stroke-width="1"/>
<circle cx="1032.06" cy="431.32" r="3.8" fill="#3bf2af" stroke="#111827" stroke-width="1"/>
<circle cx="1032.84" cy="430.82" r="3.8" fill="#3bf2af" stroke="#111827" stroke-width="1"/>
<circle cx="1033.62" cy="430.47" r="3.8" fill="#3bf2af" stroke="#111827" stroke-width="1"/>
<circle cx="1034.42" cy="430.34" r="3.8" fill="#3bf2af" stroke="#111827" stroke-width="1"/>
<circle cx="1035.21" cy="429.88" r="3.8" fill="#3bf2af" stroke="#111827" stroke-width="1"/>
<circle cx="1036.00" cy="429.22" r="3.8" fill="#3bf2af" stroke="#111827" stroke-width="1"/>
<text x="1028.0" y="419.2" text-anchor="end" fill="#3bf2af" font-size="12" font-family="-apple-system,BlinkMacSystemFont,Segoe UI,Helvetica,Arial,sans-serif">175.8k</text>
<rect x="90" y="514" width="14" height="14" fill="url(#repo-0)" rx="3"/>
<text x="112" y="526" fill="#ffb50c" font-size="13" font-family="-apple-system,BlinkMacSystemFont,Segoe UI,Helvetica,Arial,sans-serif">tkpd/gripmock</text>
<rect x="280" y="514" width="14" height="14" fill="url(#repo-1)" rx="3"/>
<text x="302" y="526" fill="#3bf2af" font-size="13" font-family="-apple-system,BlinkMacSystemFont,Segoe UI,Helvetica,Arial,sans-serif">bavix/gripmock</text>
<text x="1036" y="526" text-anchor="end" fill="#9ca3af" font-size="12" font-family="-apple-system,BlinkMacSystemFont,Segoe UI,Helvetica,Arial,sans-serif">Source: https://github.com/bavix/artifact-stats/blob/master/stats/dockerhub.csv</text>
</svg>