<svg xmlns="http://www.w3.org/2000/svg" width="1100" height="560" viewBox="0 0 1100 560">
<defs>
<linearGradient id="bg" x1="0" y1="0" x2="1" y2="1"><stop offset="0%" stop-color="#0b1220"/><stop offset="100%" stop-color="#111827"/></linearGradient>
<linearGradient id="repo-0" x1="0" y1="0" x2="0" y2="1"><stop offset="0%" stop-color="#f59e0b"/><stop offset="100%" stop-color="#d97706"/></linearGradient>
<linearGradient id="repo-1" x1="0" y1="0" x2="0" y2="1"><stop offset="0%" stop-color="#34d399"/><stop offset="100%" stop-color="#059669"/></linearGradient>
</defs>
<rect x="0" y="0" width="1100" height="560" fill="url(#bg)" rx="16"/>
<text x="90" y="44" fill="#f9fafb" font-size="28" font-family="-apple-system,BlinkMacSystemFont,Segoe UI,Helvetica,Arial,sans-serif" font-weight="700">GripMock Docker Hub Downloads</text>
<text x="90" y="70" fill="#9ca3af" font-size="16" font-family="-apple-system,BlinkMacSystemFont,Segoe UI,Helvetica,Arial,sans-serif">Docker Hub pull count by snapshot date</text>
<line x1="90" y1="90.00" x2="1036" y2="90.00" stroke="#1f2937" stroke-width="1"/>
<text x="80" y="95.00" text-anchor="end" fill="#9ca3af" font-size="12" font-family="-apple-system,BlinkMacSystemFont,Segoe UI,Helvetica,Arial,sans-serif">1.76M</text>
<line x1="90" y1="153.00" x2="1036" y2="153.00" stroke="#1f2937" stroke-width="1"/>
<text x="80" y="158.00" text-anchor="end" fill="#9ca3af" font-size="12" font-family="-apple-system,BlinkMacSystemFont,Segoe UI,Helvetica,Arial,sans-serif">1.47M</text>
<line x1="90" y1="216.00" x2="1036" y2="216.00" stroke="#1f2937" stroke-width="1"/>
<text x="80" y="221.00" text-anchor="end" fill="#9ca3af" font-size="12" font-family="-apple-system,BlinkMacSystemFont,Segoe UI,Helvetica,Arial,sans-serif">1.17M</text>
<line x1="90" y1="279.00" x2="1036" y2="279.00" stroke="#1f2937" stroke-width="1"/>
<text x="80" y="284.00" text-anchor="end" fill="#9ca3af" font-size="12" font-family="-apple-system,BlinkMacSystemFont,Segoe UI,Helvetica,Arial,sans-serif">879.18k</text>
<line x1="90" y1="342.00" x2="1036" y2="342.00" stroke="#1f2937" stroke-width="1"/>
<text x="80" y="347.00" text-anchor="end" fill="#9ca3af" font-size="12" font-family="-apple-system,BlinkMacSystemFont,Segoe UI,Helvetica,Arial,sans-serif">586.12k</text>
<line x1="90" y1="405.00" x2="1036" y2="405.00" stroke="#1f2937" stroke-width="1"/>
<text x="80" y="410.00" text-anchor="end" fill="#9ca3af" font-size="12" font-family="-apple-system,BlinkMacSystemFont,Segoe UI,Helvetica,Arial,sans-serif">293.06k</text>
<line x1="90" y1="468.00" x2="1036" y2="468.00" stroke="#1f2937" stroke-width="1"/>
<text x="80" y="473.00" text-anchor="end" fill="#9ca3af" font-size="12" font-family="-apple-system,BlinkMacSystemFont,Segoe UI,Helvetica,Arial,sans-serif">0</text>
<line x1="90" y1="468" x2="1036" y2="468" stroke="#4b5563" stroke-width="1.4"/>
<line x1="90" y1="90" x2="90" y2="468" stroke="#4b5563" stroke-width="1.4"/>
<line x1="90.00" y1="468" x2="90.00" y2="474" stroke="#6b7280" stroke-width="1"/>
<text x="90.00" y="494" text-anchor="start" fill="#9ca3af" font-size="12" font-family="-apple-system,BlinkMacSystemFont,Segoe UI,Helvetica,Arial,sans-serif">2019-09-16</text>
<line x1="279.20" y1="468" x2="279.20" y2="474" stroke="#6b7280" stroke-width="1"/>
<text x="279.20" y="494" text-anchor="middle" fill="#9ca3af" font-size="12" font-family="-apple-system,BlinkMacSystemFont,Segoe UI,Helvetica,Arial,sans-serif">2021-01-10</text>
<line x1="468.40" y1="468" x2="468.40" y2="474" stroke="#6b7280" stroke-width="1"/>
<text x="468.40" y="494" text-anchor="middle" fill="#9ca3af" font-size="12" font-family="-apple-system,BlinkMacSystemFont,Segoe UI,Helvetica,Arial,sans-serif">2022-05-07</text>
<line x1="657.60" y1="468" x2="657.60" y2="474" stroke="#6b7280" stroke-width="1"/>
<text x="657.60" y="494" text-anchor="middle" fill="#9ca3af" font-size="12" font-family="-apple-system,BlinkMacSystemFont,Segoe UI,Helvetica,Arial,sans-serif">2023-09-01</text>
<line x1="846.80" y1="468" x2="846.80" y2="474" stroke="#6b7280" stroke-width="1"/>
<text x="846.80" y="494" text-anchor="middle" fill="#9ca3af" font-size="12" font-family="-apple-system,BlinkMacSystemFont,Segoe UI,Helvetica,Arial,sans-serif">2024-12-26</text>
<line x1="1036.00" y1="468" x2="1036.00" y2="474" stroke="#6b7280" stroke-width="1"/>
<text x="1036.00" y="494" text-anchor="end" fill="#9ca3af" font-size="12" font-family="-apple-system,BlinkMacSystemFont,Segoe UI,Helvetica,Arial,sans-serif">2026-04-22</text>
<polyline fill="none" stroke="url(#repo-0)" stroke-width="4" stroke-linecap="round" stroke-linejoin="round" points="90.00,468.00 98.22,462.41 106.45,461.20 114.67,461.15 122.89,461.08 131.11,461.00 139.34,460.89 147.56,460.76 155.78,460.62 164.00,460.45 172.23,460.27 180.45,460.08 188.67,459.87 196.89,458.93 205.12,458.28 213.34,458.02 221.56,457.74 229.78,457.45 238.01,456.41 246.23,452.92 254.45,448.03 262.67,442.44 270.90,437.12 279.12,432.93 287.34,430.33 295.56,429.19 303.79,428.78 312.01,428.36 320.23,427.15 328.45,424.46 336.68,420.45 344.90,415.71 353.12,411.11 361.34,407.50 369.57,405.39 377.79,404.71 386.01,404.21 394.24,403.70 402.46,403.18 410.68,401.05 418.90,396.44 427.13,390.46 435.35,383.99 443.57,377.99 451.79,373.19 460.02,369.80 468.24,367.47 476.46,365.38 484.68,362.63 492.91,358.50 501.13,352.80 509.35,345.89 517.57,338.63 525.80,332.05 534.02,327.00 542.24,323.85 550.46,322.35 558.69,321.71 566.91,320.90 575.13,319.03 583.35,315.60 591.58,310.74 599.80,305.08 608.02,299.57 616.24,295.07 624.47,292.07 632.69,290.45 640.91,289.56 649.14,288.40 657.36,286.01 665.58,281.81 673.80,275.79 682.03,268.55 690.25,261.10 698.47,254.46 706.69,249.40 714.92,246.08 723.14,244.07 731.36,242.50 739.58,240.41 747.81,237.09 756.03,232.35 764.25,226.62 772.47,220.77 780.70,215.83 788.92,212.59 797.14,211.32 805.36,210.89 813.59,210.47 821.81,210.06 830.03,209.67 838.25,209.28 846.48,206.42 854.70,201.67 862.92,197.09 871.14,193.59 879.37,191.64 887.59,191.10 895.81,190.81 904.03,190.54 912.26,190.04 920.48,187.16 928.70,182.69 936.93,177.35 945.15,172.18 953.37,171.19 961.59,171.03 969.82,170.88 978.04,170.76 986.26,170.65 994.48,170.56 1002.71,170.49 1010.93,170.44 1019.15,170.41 1027.37,170.40 1027.77,169.42 1028.14,168.33 1028.54,167.35 1028.92,166.73 1029.32,166.41 1029.72,165.97 1030.11,156.78 1030.50,139.34 1030.89,135.27 1031.29,133.18 1031.67,132.25 1032.07,132.18 1032.47,132.05 1032.86,130.74 1033.25,129.20 1033.65,127.98 1034.04,126.99 1034.43,126.14 1034.82,126.07 1035.22,125.92 1035.61,125.01 1036.00,124.36"/>
<circle cx="90.00" cy="468.00" r="3.8" fill="#ffb50c" stroke="#111827" stroke-width="1"/>
<circle cx="131.11" cy="461.00" r="3.8" fill="#ffb50c" stroke="#111827" stroke-width="1"/>
<circle cx="172.23" cy="460.27" r="3.8" fill="#ffb50c" stroke="#111827" stroke-width="1"/>
<circle cx="213.34" cy="458.02" r="3.8" fill="#ffb50c" stroke="#111827" stroke-width="1"/>
<circle cx="254.45" cy="448.03" r="3.8" fill="#ffb50c" stroke="#111827" stroke-width="1"/>
<circle cx="295.56" cy="429.19" r="3.8" fill="#ffb50c" stroke="#111827" stroke-width="1"/>
<circle cx="336.68" cy="420.45" r="3.8" fill="#ffb50c" stroke="#111827" stroke-width="1"/>
<circle cx="377.79" cy="404.71" r="3.8" fill="#ffb50c" stroke="#111827" stroke-width="1"/>
<circle cx="418.90" cy="396.44" r="3.8" fill="#ffb50c" stroke="#111827" stroke-width="1"/>
<circle cx="460.02" cy="369.80" r="3.8" fill="#ffb50c" stroke="#111827" stroke-width="1"/>
<circle cx="501.13" cy="352.80" r="3.8" fill="#ffb50c" stroke="#111827" stroke-width="1"/>
<circle cx="542.24" cy="323.85" r="3.8" fill="#ffb50c" stroke="#111827" stroke-width="1"/>
<circle cx="583.35" cy="315.60" r="3.8" fill="#ffb50c" stroke="#111827" stroke-width="1"/>
<circle cx="624.47" cy="292.07" r="3.8" fill="#ffb50c" stroke="#111827" stroke-width="1"/>
<circle cx="665.58" cy="281.81" r="3.8" fill="#ffb50c" stroke="#111827" stroke-width="1"/>
<circle cx="706.69" cy="249.40" r="3.8" fill="#ffb50c" stroke="#111827" stroke-width="1"/>
<circle cx="747.81" cy="237.09" r="3.8" fill="#ffb50c" stroke="#111827" stroke-width="1"/>
<circle cx="788.92" cy="212.59" r="3.8" fill="#ffb50c" stroke="#111827" stroke-width="1"/>
<circle cx="830.03" cy="209.67" r="3.8" fill="#ffb50c" stroke="#111827" stroke-width="1"/>
<circle cx="871.14" cy="193.59" r="3.8" fill="#ffb50c" stroke="#111827" stroke-width="1"/>
<circle cx="912.26" cy="190.04" r="3.8" fill="#ffb50c" stroke="#111827" stroke-width="1"/>
<circle cx="953.37" cy="171.19" r="3.8" fill="#ffb50c" stroke="#111827" stroke-width="1"/>
<circle cx="994.48" cy="170.56" r="3.8" fill="#ffb50c" stroke="#111827" stroke-width="1"/>
<circle cx="1027.77" cy="169.42" r="3.8" fill="#ffb50c" stroke="#111827" stroke-width="1"/>
<circle cx="1029.72" cy="165.97" r="3.8" fill="#ffb50c" stroke="#111827" stroke-width="1"/>
<circle cx="1031.67" cy="132.25" r="3.8" fill="#ffb50c" stroke="#111827" stroke-width="1"/>
<circle cx="1033.65" cy="127.98" r="3.8" fill="#ffb50c" stroke="#111827" stroke-width="1"/>
<circle cx="1035.61" cy="125.01" r="3.8" fill="#ffb50c" stroke="#111827" stroke-width="1"/>
<circle cx="1036.00" cy="124.36" r="3.8" fill="#ffb50c" stroke="#111827" stroke-width="1"/>
<text x="1028.00" y="114.36" text-anchor="end" fill="#ffb50c" font-size="12" font-family="-apple-system,BlinkMacSystemFont,Segoe UI,Helvetica,Arial,sans-serif">1.60M</text>
<polyline fill="none" stroke="url(#repo-1)" stroke-width="4" stroke-linecap="round" stroke-linejoin="round" points="651.38,468.00 659.56,467.29 667.73,467.04 675.90,466.88 684.08,466.83 692.25,466.77 700.42,466.70 708.60,466.58 716.77,466.15 724.95,465.47 733.12,464.58 741.29,463.57 749.47,462.55 757.64,461.60 765.81,460.77 773.99,460.02 782.16,459.26 790.34,458.37 798.51,457.29 806.68,455.96 814.86,454.44 823.03,452.83 831.20,451.25 839.38,449.83 847.55,448.62 855.73,447.62 863.90,446.74 872.07,445.86 880.25,444.90 888.42,443.78 896.59,442.53 904.77,441.22 912.94,439.97 921.11,438.90 929.29,438.07 937.46,437.49 945.64,437.08 953.81,436.72 961.98,436.29 970.16,435.71 978.33,434.97 986.50,434.13 994.68,433.33 1002.85,432.68 1011.03,432.29 1019.20,432.26 1027.37,432.26 1027.77,432.01 1028.14,431.78 1028.54,431.55 1028.92,431.43 1029.32,431.39 1029.72,431.31 1030.11,431.13 1030.50,430.86 1030.89,430.53 1031.29,430.22 1031.67,429.93 1032.07,429.89 1032.47,429.75 1032.86,429.47 1033.25,429.15 1033.65,428.78 1034.04,428.55 1034.43,428.23 1034.82,428.19 1035.22,428.12 1035.61,427.75 1036.00,427.42"/>
<circle cx="651.38" cy="468.00" r="3.8" fill="#3bf2af" stroke="#111827" stroke-width="1"/>
<circle cx="667.73" cy="467.04" r="3.8" fill="#3bf2af" stroke="#111827" stroke-width="1"/>
<circle cx="684.08" cy="466.83" r="3.8" fill="#3bf2af" stroke="#111827" stroke-width="1"/>
<circle cx="700.42" cy="466.70" r="3.8" fill="#3bf2af" stroke="#111827" stroke-width="1"/>
<circle cx="716.77" cy="466.15" r="3.8" fill="#3bf2af" stroke="#111827" stroke-width="1"/>
<circle cx="733.12" cy="464.58" r="3.8" fill="#3bf2af" stroke="#111827" stroke-width="1"/>
<circle cx="749.47" cy="462.55" r="3.8" fill="#3bf2af" stroke="#111827" stroke-width="1"/>
<circle cx="765.81" cy="460.77" r="3.8" fill="#3bf2af" stroke="#111827" stroke-width="1"/>
<circle cx="782.16" cy="459.26" r="3.8" fill="#3bf2af" stroke="#111827" stroke-width="1"/>
<circle cx="798.51" cy="457.29" r="3.8" fill="#3bf2af" stroke="#111827" stroke-width="1"/>
<circle cx="814.86" cy="454.44" r="3.8" fill="#3bf2af" stroke="#111827" stroke-width="1"/>
<circle cx="831.20" cy="451.25" r="3.8" fill="#3bf2af" stroke="#111827" stroke-width="1"/>
<circle cx="847.55" cy="448.62" r="3.8" fill="#3bf2af" stroke="#111827" stroke-width="1"/>
<circle cx="863.90" cy="446.74" r="3.8" fill="#3bf2af" stroke="#111827" stroke-width="1"/>
<circle cx="880.25" cy="444.90" r="3.8" fill="#3bf2af" stroke="#111827" stroke-width="1"/>
<circle cx="896.59" cy="442.53" r="3.8" fill="#3bf2af" stroke="#111827" stroke-width="1"/>
<circle cx="912.94" cy="439.97" r="3.8" fill="#3bf2af" stroke="#111827" stroke-width="1"/>
<circle cx="929.29" cy="438.07" r="3.8" fill="#3bf2af" stroke="#111827" stroke-width="1"/>
<circle cx="945.64" cy="437.08" r="3.8" fill="#3bf2af" stroke="#111827" stroke-width="1"/>
<circle cx="961.98" cy="436.29" r="3.8" fill="#3bf2af" stroke="#111827" stroke-width="1"/>
<circle cx="978.33" cy="434.97" r="3.8" fill="#3bf2af" stroke="#111827" stroke-width="1"/>
<circle cx="994.68" cy="433.33" r="3.8" fill="#3bf2af" stroke="#111827" stroke-width="1"/>
<circle cx="1011.03" cy="432.29" r="3.8" fill="#3bf2af" stroke="#111827" stroke-width="1"/>
<circle cx="1027.37" cy="432.26" r="3.8" fill="#3bf2af" stroke="#111827" stroke-width="1"/>
<circle cx="1028.14" cy="431.78" r="3.8" fill="#3bf2af" stroke="#111827" stroke-width="1"/>
<circle cx="1028.92" cy="431.43" r="3.8" fill="#3bf2af" stroke="#111827" stroke-width="1"/>
<circle cx="1029.72" cy="431.31" r="3.8" fill="#3bf2af" stroke="#111827" stroke-width="1"/>
<circle cx="1030.50" cy="430.86" r="3.8" fill="#3bf2af" stroke="#111827" stroke-width="1"/>
<circle cx="1031.29" cy="430.22" r="3.8" fill="#3bf2af" stroke="#111827" stroke-width="1"/>
<circle cx="1032.07" cy="429.89" r="3.8" fill="#3bf2af" stroke="#111827" stroke-width="1"/>
<circle cx="1032.86" cy="429.47" r="3.8" fill="#3bf2af" stroke="#111827" stroke-width="1"/>
<circle cx="1033.65" cy="428.78" r="3.8" fill="#3bf2af" stroke="#111827" stroke-width="1"/>
<circle cx="1034.43" cy="428.23" r="3.8" fill="#3bf2af" stroke="#111827" stroke-width="1"/>
<circle cx="1035.22" cy="428.12" r="3.8" fill="#3bf2af" stroke="#111827" stroke-width="1"/>
<circle cx="1036.00" cy="427.42" r="3.8" fill="#3bf2af" stroke="#111827" stroke-width="1"/>
<text x="1028.00" y="417.42" text-anchor="end" fill="#3bf2af" font-size="12" font-family="-apple-system,BlinkMacSystemFont,Segoe UI,Helvetica,Arial,sans-serif">188.77k</text>
<rect x="90.00" y="514.00" width="14" height="14" fill="url(#repo-0)" rx="3"/>
<text x="112.00" y="526.00" fill="#ffb50c" font-size="13" font-family="-apple-system,BlinkMacSystemFont,Segoe UI,Helvetica,Arial,sans-serif">tkpd/gripmock</text>
<rect x="280.00" y="514.00" width="14" height="14" fill="url(#repo-1)" rx="3"/>
<text x="302.00" y="526.00" fill="#3bf2af" font-size="13" font-family="-apple-system,BlinkMacSystemFont,Segoe UI,Helvetica,Arial,sans-serif">bavix/gripmock</text>
<text x="1036.00" y="526.00" text-anchor="end" fill="#9ca3af" font-size="12" font-family="-apple-system,BlinkMacSystemFont,Segoe UI,Helvetica,Arial,sans-serif">Source: https://github.com/bavix/artifact-stats/blob/master/stats/dockerhub.csv</text>
</svg>