<svg xmlns="http://www.w3.org/2000/svg" width="1100" height="560" viewBox="0 0 1100 560">
<defs>
<linearGradient id="bg" x1="0" y1="0" x2="1" y2="1"><stop offset="0%" stop-color="#0b1220"/><stop offset="100%" stop-color="#111827"/></linearGradient>
<linearGradient id="repo-0" x1="0" y1="0" x2="0" y2="1"><stop offset="0%" stop-color="#f59e0b"/><stop offset="100%" stop-color="#d97706"/></linearGradient>
<linearGradient id="repo-1" x1="0" y1="0" x2="0" y2="1"><stop offset="0%" stop-color="#34d399"/><stop offset="100%" stop-color="#059669"/></linearGradient>
</defs>
<rect x="0" y="0" width="1100" height="560" fill="url(#bg)" rx="16"/>
<text x="90" y="44" fill="#f9fafb" font-size="28" font-family="-apple-system,BlinkMacSystemFont,Segoe UI,Helvetica,Arial,sans-serif" font-weight="700">GripMock Docker Hub Downloads</text>
<text x="90" y="70" fill="#9ca3af" font-size="16" font-family="-apple-system,BlinkMacSystemFont,Segoe UI,Helvetica,Arial,sans-serif">Docker Hub pull count by snapshot date</text>
<line x1="90" y1="90.0" x2="1036" y2="90.0" stroke="#1f2937" stroke-width="1"/>
<text x="80" y="95.0" text-anchor="end" fill="#9ca3af" font-size="12" font-family="-apple-system,BlinkMacSystemFont,Segoe UI,Helvetica,Arial,sans-serif">1.5M</text>
<line x1="90" y1="153.0" x2="1036" y2="153.0" stroke="#1f2937" stroke-width="1"/>
<text x="80" y="158.0" text-anchor="end" fill="#9ca3af" font-size="12" font-family="-apple-system,BlinkMacSystemFont,Segoe UI,Helvetica,Arial,sans-serif">1.3M</text>
<line x1="90" y1="216.0" x2="1036" y2="216.0" stroke="#1f2937" stroke-width="1"/>
<text x="80" y="221.0" text-anchor="end" fill="#9ca3af" font-size="12" font-family="-apple-system,BlinkMacSystemFont,Segoe UI,Helvetica,Arial,sans-serif">1.0M</text>
<line x1="90" y1="279.0" x2="1036" y2="279.0" stroke="#1f2937" stroke-width="1"/>
<text x="80" y="284.0" text-anchor="end" fill="#9ca3af" font-size="12" font-family="-apple-system,BlinkMacSystemFont,Segoe UI,Helvetica,Arial,sans-serif">769.2k</text>
<line x1="90" y1="342.0" x2="1036" y2="342.0" stroke="#1f2937" stroke-width="1"/>
<text x="80" y="347.0" text-anchor="end" fill="#9ca3af" font-size="12" font-family="-apple-system,BlinkMacSystemFont,Segoe UI,Helvetica,Arial,sans-serif">512.8k</text>
<line x1="90" y1="405.0" x2="1036" y2="405.0" stroke="#1f2937" stroke-width="1"/>
<text x="80" y="410.0" text-anchor="end" fill="#9ca3af" font-size="12" font-family="-apple-system,BlinkMacSystemFont,Segoe UI,Helvetica,Arial,sans-serif">256.4k</text>
<line x1="90" y1="468.0" x2="1036" y2="468.0" stroke="#1f2937" stroke-width="1"/>
<text x="80" y="473.0" text-anchor="end" fill="#9ca3af" font-size="12" font-family="-apple-system,BlinkMacSystemFont,Segoe UI,Helvetica,Arial,sans-serif">0</text>
<line x1="90" y1="468" x2="1036" y2="468" stroke="#4b5563" stroke-width="1.4"/>
<line x1="90" y1="90" x2="90" y2="468" stroke="#4b5563" stroke-width="1.4"/>
<line x1="90.0" y1="468" x2="90.0" y2="474" stroke="#6b7280" stroke-width="1"/>
<text x="90.0" y="494" text-anchor="start" fill="#9ca3af" font-size="12" font-family="-apple-system,BlinkMacSystemFont,Segoe UI,Helvetica,Arial,sans-serif">2019-09-16</text>
<line x1="279.2" y1="468" x2="279.2" y2="474" stroke="#6b7280" stroke-width="1"/>
<text x="279.2" y="494" text-anchor="middle" fill="#9ca3af" font-size="12" font-family="-apple-system,BlinkMacSystemFont,Segoe UI,Helvetica,Arial,sans-serif">2021-01-06</text>
<line x1="468.4" y1="468" x2="468.4" y2="474" stroke="#6b7280" stroke-width="1"/>
<text x="468.4" y="494" text-anchor="middle" fill="#9ca3af" font-size="12" font-family="-apple-system,BlinkMacSystemFont,Segoe UI,Helvetica,Arial,sans-serif">2022-04-29</text>
<line x1="657.6" y1="468" x2="657.6" y2="474" stroke="#6b7280" stroke-width="1"/>
<text x="657.6" y="494" text-anchor="middle" fill="#9ca3af" font-size="12" font-family="-apple-system,BlinkMacSystemFont,Segoe UI,Helvetica,Arial,sans-serif">2023-08-20</text>
<line x1="846.8" y1="468" x2="846.8" y2="474" stroke="#6b7280" stroke-width="1"/>
<text x="846.8" y="494" text-anchor="middle" fill="#9ca3af" font-size="12" font-family="-apple-system,BlinkMacSystemFont,Segoe UI,Helvetica,Arial,sans-serif">2024-12-11</text>
<line x1="1036.0" y1="468" x2="1036.0" y2="474" stroke="#6b7280" stroke-width="1"/>
<text x="1036.0" y="494" text-anchor="end" fill="#9ca3af" font-size="12" font-family="-apple-system,BlinkMacSystemFont,Segoe UI,Helvetica,Arial,sans-serif">2026-04-03</text>
<polyline fill="none" stroke="url(#repo-0)" stroke-width="4" stroke-linecap="round" stroke-linejoin="round" points="90.00,468.00 98.29,461.61 106.58,460.23 114.86,460.18 123.15,460.10 131.44,459.99 139.73,459.87 148.02,459.73 156.30,459.56 164.59,459.38 172.88,459.17 181.17,458.95 189.46,458.70 197.74,457.63 206.03,456.89 214.32,456.59 222.61,456.27 230.90,455.94 239.18,454.75 247.47,450.77 255.76,445.17 264.05,438.78 272.34,432.70 280.62,427.92 288.91,424.95 297.20,423.64 305.49,423.18 313.77,422.70 322.06,421.31 330.35,418.23 338.64,413.65 346.93,408.23 355.21,402.98 363.50,398.85 371.79,396.44 380.08,395.66 388.37,395.09 396.65,394.50 404.94,393.91 413.23,391.47 421.52,386.21 429.81,379.37 438.09,371.97 446.38,365.12 454.67,359.63 462.96,355.76 471.25,353.09 479.53,350.71 487.82,347.56 496.11,342.84 504.40,336.32 512.69,328.43 520.97,320.13 529.26,312.61 537.55,306.84 545.84,303.24 554.13,301.52 562.41,300.79 570.70,299.87 578.99,297.73 587.28,293.81 595.57,288.25 603.85,281.79 612.14,275.48 620.43,270.34 628.72,266.91 637.01,265.06 645.29,264.05 653.58,262.72 661.87,259.99 670.16,255.18 678.45,248.30 686.73,240.03 695.02,231.51 703.31,223.93 711.60,218.14 719.89,214.35 728.17,212.05 736.46,210.26 744.75,207.87 753.04,204.07 761.32,198.66 769.61,192.10 777.90,185.42 786.19,179.78 794.48,176.07 802.76,174.62 811.05,174.13 819.34,173.65 827.63,173.18 835.92,172.73 844.20,172.29 852.49,169.02 860.78,163.59 869.07,158.36 877.36,154.35 885.64,152.12 893.93,151.51 902.22,151.18 910.51,150.86 918.80,150.30 927.08,147.00 935.37,141.90 943.66,135.79 951.95,129.88 960.24,128.75 968.52,128.56 976.81,128.40 985.10,128.25 993.39,128.13 1001.68,128.03 1009.96,127.95 1018.25,127.89 1026.54,127.86 1034.83,127.85 1035.23,126.73 1035.60,125.48 1036.00,124.36"/>
<circle cx="90.00" cy="468.00" r="3.8" fill="#ffb50c" stroke="#111827" stroke-width="1"/>
<circle cx="123.15" cy="460.10" r="3.8" fill="#ffb50c" stroke="#111827" stroke-width="1"/>
<circle cx="156.30" cy="459.56" r="3.8" fill="#ffb50c" stroke="#111827" stroke-width="1"/>
<circle cx="189.46" cy="458.70" r="3.8" fill="#ffb50c" stroke="#111827" stroke-width="1"/>
<circle cx="222.61" cy="456.27" r="3.8" fill="#ffb50c" stroke="#111827" stroke-width="1"/>
<circle cx="255.76" cy="445.17" r="3.8" fill="#ffb50c" stroke="#111827" stroke-width="1"/>
<circle cx="288.91" cy="424.95" r="3.8" fill="#ffb50c" stroke="#111827" stroke-width="1"/>
<circle cx="322.06" cy="421.31" r="3.8" fill="#ffb50c" stroke="#111827" stroke-width="1"/>
<circle cx="355.21" cy="402.98" r="3.8" fill="#ffb50c" stroke="#111827" stroke-width="1"/>
<circle cx="388.37" cy="395.09" r="3.8" fill="#ffb50c" stroke="#111827" stroke-width="1"/>
<circle cx="421.52" cy="386.21" r="3.8" fill="#ffb50c" stroke="#111827" stroke-width="1"/>
<circle cx="454.67" cy="359.63" r="3.8" fill="#ffb50c" stroke="#111827" stroke-width="1"/>
<circle cx="487.82" cy="347.56" r="3.8" fill="#ffb50c" stroke="#111827" stroke-width="1"/>
<circle cx="520.97" cy="320.13" r="3.8" fill="#ffb50c" stroke="#111827" stroke-width="1"/>
<circle cx="554.13" cy="301.52" r="3.8" fill="#ffb50c" stroke="#111827" stroke-width="1"/>
<circle cx="587.28" cy="293.81" r="3.8" fill="#ffb50c" stroke="#111827" stroke-width="1"/>
<circle cx="620.43" cy="270.34" r="3.8" fill="#ffb50c" stroke="#111827" stroke-width="1"/>
<circle cx="653.58" cy="262.72" r="3.8" fill="#ffb50c" stroke="#111827" stroke-width="1"/>
<circle cx="686.73" cy="240.03" r="3.8" fill="#ffb50c" stroke="#111827" stroke-width="1"/>
<circle cx="719.89" cy="214.35" r="3.8" fill="#ffb50c" stroke="#111827" stroke-width="1"/>
<circle cx="753.04" cy="204.07" r="3.8" fill="#ffb50c" stroke="#111827" stroke-width="1"/>
<circle cx="786.19" cy="179.78" r="3.8" fill="#ffb50c" stroke="#111827" stroke-width="1"/>
<circle cx="819.34" cy="173.65" r="3.8" fill="#ffb50c" stroke="#111827" stroke-width="1"/>
<circle cx="852.49" cy="169.02" r="3.8" fill="#ffb50c" stroke="#111827" stroke-width="1"/>
<circle cx="885.64" cy="152.12" r="3.8" fill="#ffb50c" stroke="#111827" stroke-width="1"/>
<circle cx="918.80" cy="150.30" r="3.8" fill="#ffb50c" stroke="#111827" stroke-width="1"/>
<circle cx="951.95" cy="129.88" r="3.8" fill="#ffb50c" stroke="#111827" stroke-width="1"/>
<circle cx="985.10" cy="128.25" r="3.8" fill="#ffb50c" stroke="#111827" stroke-width="1"/>
<circle cx="1018.25" cy="127.89" r="3.8" fill="#ffb50c" stroke="#111827" stroke-width="1"/>
<circle cx="1035.60" cy="125.48" r="3.8" fill="#ffb50c" stroke="#111827" stroke-width="1"/>
<circle cx="1036.00" cy="124.36" r="3.8" fill="#ffb50c" stroke="#111827" stroke-width="1"/>
<text x="1028.0" y="114.4" text-anchor="end" fill="#ffb50c" font-size="12" font-family="-apple-system,BlinkMacSystemFont,Segoe UI,Helvetica,Arial,sans-serif">1.4M</text>
<polyline fill="none" stroke="url(#repo-1)" stroke-width="4" stroke-linecap="round" stroke-linejoin="round" points="655.85,468.00 664.08,467.19 672.32,466.90 680.56,466.72 688.80,466.66 697.04,466.59 705.28,466.51 713.52,466.38 721.76,465.89 729.99,465.11 738.23,464.09 746.47,462.94 754.71,461.77 762.95,460.69 771.19,459.74 779.43,458.88 787.67,458.01 795.90,457.00 804.14,455.75 812.38,454.24 820.62,452.50 828.86,450.66 837.10,448.86 845.34,447.23 853.58,445.85 861.81,444.70 870.05,443.69 878.29,442.70 886.53,441.59 894.77,440.32 903.01,438.88 911.25,437.39 919.49,435.96 927.72,434.74 935.96,433.79 944.20,433.13 952.44,432.66 960.68,432.25 968.92,431.75 977.16,431.09 985.40,430.24 993.63,429.29 1001.87,428.37 1010.11,427.63 1018.35,427.18 1026.59,427.15 1034.83,427.15 1035.23,426.86 1035.60,426.60 1036.00,426.34"/>
<circle cx="655.85" cy="468.00" r="3.8" fill="#3bf2af" stroke="#111827" stroke-width="1"/>
<circle cx="672.32" cy="466.90" r="3.8" fill="#3bf2af" stroke="#111827" stroke-width="1"/>
<circle cx="688.80" cy="466.66" r="3.8" fill="#3bf2af" stroke="#111827" stroke-width="1"/>
<circle cx="705.28" cy="466.51" r="3.8" fill="#3bf2af" stroke="#111827" stroke-width="1"/>
<circle cx="721.76" cy="465.89" r="3.8" fill="#3bf2af" stroke="#111827" stroke-width="1"/>
<circle cx="738.23" cy="464.09" r="3.8" fill="#3bf2af" stroke="#111827" stroke-width="1"/>
<circle cx="754.71" cy="461.77" r="3.8" fill="#3bf2af" stroke="#111827" stroke-width="1"/>
<circle cx="771.19" cy="459.74" r="3.8" fill="#3bf2af" stroke="#111827" stroke-width="1"/>
<circle cx="787.67" cy="458.01" r="3.8" fill="#3bf2af" stroke="#111827" stroke-width="1"/>
<circle cx="804.14" cy="455.75" r="3.8" fill="#3bf2af" stroke="#111827" stroke-width="1"/>
<circle cx="820.62" cy="452.50" r="3.8" fill="#3bf2af" stroke="#111827" stroke-width="1"/>
<circle cx="837.10" cy="448.86" r="3.8" fill="#3bf2af" stroke="#111827" stroke-width="1"/>
<circle cx="853.58" cy="445.85" r="3.8" fill="#3bf2af" stroke="#111827" stroke-width="1"/>
<circle cx="870.05" cy="443.69" r="3.8" fill="#3bf2af" stroke="#111827" stroke-width="1"/>
<circle cx="886.53" cy="441.59" r="3.8" fill="#3bf2af" stroke="#111827" stroke-width="1"/>
<circle cx="903.01" cy="438.88" r="3.8" fill="#3bf2af" stroke="#111827" stroke-width="1"/>
<circle cx="919.49" cy="435.96" r="3.8" fill="#3bf2af" stroke="#111827" stroke-width="1"/>
<circle cx="935.96" cy="433.79" r="3.8" fill="#3bf2af" stroke="#111827" stroke-width="1"/>
<circle cx="952.44" cy="432.66" r="3.8" fill="#3bf2af" stroke="#111827" stroke-width="1"/>
<circle cx="968.92" cy="431.75" r="3.8" fill="#3bf2af" stroke="#111827" stroke-width="1"/>
<circle cx="985.40" cy="430.24" r="3.8" fill="#3bf2af" stroke="#111827" stroke-width="1"/>
<circle cx="1001.87" cy="428.37" r="3.8" fill="#3bf2af" stroke="#111827" stroke-width="1"/>
<circle cx="1018.35" cy="427.18" r="3.8" fill="#3bf2af" stroke="#111827" stroke-width="1"/>
<circle cx="1034.83" cy="427.15" r="3.8" fill="#3bf2af" stroke="#111827" stroke-width="1"/>
<circle cx="1035.60" cy="426.60" r="3.8" fill="#3bf2af" stroke="#111827" stroke-width="1"/>
<circle cx="1036.00" cy="426.34" r="3.8" fill="#3bf2af" stroke="#111827" stroke-width="1"/>
<text x="1028.0" y="416.3" text-anchor="end" fill="#3bf2af" font-size="12" font-family="-apple-system,BlinkMacSystemFont,Segoe UI,Helvetica,Arial,sans-serif">169.6k</text>
<rect x="90" y="514" width="14" height="14" fill="url(#repo-0)" rx="3"/>
<text x="112" y="526" fill="#ffb50c" font-size="13" font-family="-apple-system,BlinkMacSystemFont,Segoe UI,Helvetica,Arial,sans-serif">tkpd/gripmock</text>
<rect x="280" y="514" width="14" height="14" fill="url(#repo-1)" rx="3"/>
<text x="302" y="526" fill="#3bf2af" font-size="13" font-family="-apple-system,BlinkMacSystemFont,Segoe UI,Helvetica,Arial,sans-serif">bavix/gripmock</text>
<text x="1036" y="526" text-anchor="end" fill="#9ca3af" font-size="12" font-family="-apple-system,BlinkMacSystemFont,Segoe UI,Helvetica,Arial,sans-serif">Source: https://github.com/bavix/artifact-stats/blob/master/stats/dockerhub.csv</text>
</svg>