<svg xmlns="http://www.w3.org/2000/svg" width="1100" height="560" viewBox="0 0 1100 560">
<defs>
<linearGradient id="bg" x1="0" y1="0" x2="1" y2="1"><stop offset="0%" stop-color="#0b1220"/><stop offset="100%" stop-color="#111827"/></linearGradient>
<linearGradient id="repo-0" x1="0" y1="0" x2="0" y2="1"><stop offset="0%" stop-color="#f59e0b"/><stop offset="100%" stop-color="#d97706"/></linearGradient>
<linearGradient id="repo-1" x1="0" y1="0" x2="0" y2="1"><stop offset="0%" stop-color="#34d399"/><stop offset="100%" stop-color="#059669"/></linearGradient>
</defs>
<rect x="0" y="0" width="1100" height="560" fill="url(#bg)" rx="16"/>
<text x="90" y="44" fill="#f9fafb" font-size="28" font-family="-apple-system,BlinkMacSystemFont,Segoe UI,Helvetica,Arial,sans-serif" font-weight="700">GripMock Docker Hub Downloads</text>
<text x="90" y="70" fill="#9ca3af" font-size="16" font-family="-apple-system,BlinkMacSystemFont,Segoe UI,Helvetica,Arial,sans-serif">Docker Hub pull count by snapshot date</text>
<line x1="90" y1="90.00" x2="1036" y2="90.00" stroke="#1f2937" stroke-width="1"/>
<text x="80" y="95.00" text-anchor="end" fill="#9ca3af" font-size="12" font-family="-apple-system,BlinkMacSystemFont,Segoe UI,Helvetica,Arial,sans-serif">1.76M</text>
<line x1="90" y1="153.00" x2="1036" y2="153.00" stroke="#1f2937" stroke-width="1"/>
<text x="80" y="158.00" text-anchor="end" fill="#9ca3af" font-size="12" font-family="-apple-system,BlinkMacSystemFont,Segoe UI,Helvetica,Arial,sans-serif">1.47M</text>
<line x1="90" y1="216.00" x2="1036" y2="216.00" stroke="#1f2937" stroke-width="1"/>
<text x="80" y="221.00" text-anchor="end" fill="#9ca3af" font-size="12" font-family="-apple-system,BlinkMacSystemFont,Segoe UI,Helvetica,Arial,sans-serif">1.18M</text>
<line x1="90" y1="279.00" x2="1036" y2="279.00" stroke="#1f2937" stroke-width="1"/>
<text x="80" y="284.00" text-anchor="end" fill="#9ca3af" font-size="12" font-family="-apple-system,BlinkMacSystemFont,Segoe UI,Helvetica,Arial,sans-serif">882.40k</text>
<line x1="90" y1="342.00" x2="1036" y2="342.00" stroke="#1f2937" stroke-width="1"/>
<text x="80" y="347.00" text-anchor="end" fill="#9ca3af" font-size="12" font-family="-apple-system,BlinkMacSystemFont,Segoe UI,Helvetica,Arial,sans-serif">588.27k</text>
<line x1="90" y1="405.00" x2="1036" y2="405.00" stroke="#1f2937" stroke-width="1"/>
<text x="80" y="410.00" text-anchor="end" fill="#9ca3af" font-size="12" font-family="-apple-system,BlinkMacSystemFont,Segoe UI,Helvetica,Arial,sans-serif">294.13k</text>
<line x1="90" y1="468.00" x2="1036" y2="468.00" stroke="#1f2937" stroke-width="1"/>
<text x="80" y="473.00" text-anchor="end" fill="#9ca3af" font-size="12" font-family="-apple-system,BlinkMacSystemFont,Segoe UI,Helvetica,Arial,sans-serif">0</text>
<line x1="90" y1="468" x2="1036" y2="468" stroke="#4b5563" stroke-width="1.4"/>
<line x1="90" y1="90" x2="90" y2="468" stroke="#4b5563" stroke-width="1.4"/>
<line x1="90.00" y1="468" x2="90.00" y2="474" stroke="#6b7280" stroke-width="1"/>
<text x="90.00" y="494" text-anchor="start" fill="#9ca3af" font-size="12" font-family="-apple-system,BlinkMacSystemFont,Segoe UI,Helvetica,Arial,sans-serif">2019-09-16</text>
<line x1="279.20" y1="468" x2="279.20" y2="474" stroke="#6b7280" stroke-width="1"/>
<text x="279.20" y="494" text-anchor="middle" fill="#9ca3af" font-size="12" font-family="-apple-system,BlinkMacSystemFont,Segoe UI,Helvetica,Arial,sans-serif">2021-01-10</text>
<line x1="468.40" y1="468" x2="468.40" y2="474" stroke="#6b7280" stroke-width="1"/>
<text x="468.40" y="494" text-anchor="middle" fill="#9ca3af" font-size="12" font-family="-apple-system,BlinkMacSystemFont,Segoe UI,Helvetica,Arial,sans-serif">2022-05-08</text>
<line x1="657.60" y1="468" x2="657.60" y2="474" stroke="#6b7280" stroke-width="1"/>
<text x="657.60" y="494" text-anchor="middle" fill="#9ca3af" font-size="12" font-family="-apple-system,BlinkMacSystemFont,Segoe UI,Helvetica,Arial,sans-serif">2023-09-02</text>
<line x1="846.80" y1="468" x2="846.80" y2="474" stroke="#6b7280" stroke-width="1"/>
<text x="846.80" y="494" text-anchor="middle" fill="#9ca3af" font-size="12" font-family="-apple-system,BlinkMacSystemFont,Segoe UI,Helvetica,Arial,sans-serif">2024-12-27</text>
<line x1="1036.00" y1="468" x2="1036.00" y2="474" stroke="#6b7280" stroke-width="1"/>
<text x="1036.00" y="494" text-anchor="end" fill="#9ca3af" font-size="12" font-family="-apple-system,BlinkMacSystemFont,Segoe UI,Helvetica,Arial,sans-serif">2026-04-24</text>
<polyline fill="none" stroke="url(#repo-0)" stroke-width="4" stroke-linecap="round" stroke-linejoin="round" points="90.00,468.00 98.22,462.43 106.43,461.23 114.65,461.18 122.86,461.11 131.08,461.02 139.29,460.91 147.51,460.79 155.73,460.64 163.94,460.48 172.16,460.30 180.37,460.11 188.59,459.90 196.80,458.96 205.02,458.31 213.24,458.05 221.45,457.78 229.67,457.49 237.88,456.45 246.10,452.98 254.31,448.10 262.53,442.53 270.75,437.23 278.96,433.06 287.18,430.47 295.39,429.33 303.61,428.93 311.82,428.51 320.04,427.30 328.26,424.61 336.47,420.62 344.69,415.90 352.90,411.32 361.12,407.72 369.33,405.62 377.55,404.94 385.77,404.44 393.98,403.93 402.20,403.41 410.41,401.29 418.63,396.70 426.85,390.74 435.06,384.29 443.28,378.32 451.49,373.54 459.71,370.16 467.92,367.83 476.14,365.76 484.36,363.01 492.57,358.90 500.79,353.22 509.00,346.33 517.22,339.10 525.43,332.55 533.65,327.52 541.87,324.38 550.08,322.88 558.30,322.24 566.51,321.44 574.73,319.57 582.94,316.16 591.16,311.31 599.38,305.67 607.59,300.18 615.81,295.70 624.02,292.71 632.24,291.10 640.45,290.21 648.67,289.05 656.89,286.67 665.10,282.49 673.32,276.49 681.53,269.28 689.75,261.85 697.96,255.24 706.18,250.20 714.40,246.89 722.61,244.88 730.83,243.33 739.04,241.24 747.26,237.93 755.47,233.21 763.69,227.50 771.91,221.67 780.12,216.75 788.34,213.53 796.55,212.26 804.77,211.83 812.98,211.41 821.20,211.00 829.42,210.61 837.63,210.23 845.85,207.38 854.06,202.64 862.28,198.08 870.49,194.59 878.71,192.65 886.93,192.11 895.14,191.82 903.36,191.55 911.57,191.06 919.79,188.18 928.00,183.73 936.22,178.41 944.44,173.26 952.65,172.27 960.87,172.11 969.08,171.97 977.30,171.84 985.51,171.73 993.73,171.64 1001.95,171.58 1010.16,171.52 1018.38,171.49 1026.59,171.48 1026.99,170.51 1027.36,169.42 1027.76,168.45 1028.14,167.83 1028.54,167.51 1028.94,167.07 1029.33,157.92 1029.72,140.54 1030.11,136.48 1030.51,134.40 1030.89,133.48 1031.29,133.40 1031.69,133.27 1032.07,131.97 1032.47,130.44 1032.86,129.22 1033.25,128.23 1033.64,127.39 1034.04,127.32 1034.43,127.17 1034.82,126.26 1035.21,125.62 1035.61,124.96 1036.00,124.36"/>
<circle cx="90.00" cy="468.00" r="3.8" fill="#ffb50c" stroke="#111827" stroke-width="1"/>
<circle cx="131.08" cy="461.02" r="3.8" fill="#ffb50c" stroke="#111827" stroke-width="1"/>
<circle cx="172.16" cy="460.30" r="3.8" fill="#ffb50c" stroke="#111827" stroke-width="1"/>
<circle cx="213.24" cy="458.05" r="3.8" fill="#ffb50c" stroke="#111827" stroke-width="1"/>
<circle cx="254.31" cy="448.10" r="3.8" fill="#ffb50c" stroke="#111827" stroke-width="1"/>
<circle cx="295.39" cy="429.33" r="3.8" fill="#ffb50c" stroke="#111827" stroke-width="1"/>
<circle cx="336.47" cy="420.62" r="3.8" fill="#ffb50c" stroke="#111827" stroke-width="1"/>
<circle cx="377.55" cy="404.94" r="3.8" fill="#ffb50c" stroke="#111827" stroke-width="1"/>
<circle cx="418.63" cy="396.70" r="3.8" fill="#ffb50c" stroke="#111827" stroke-width="1"/>
<circle cx="459.71" cy="370.16" r="3.8" fill="#ffb50c" stroke="#111827" stroke-width="1"/>
<circle cx="500.79" cy="353.22" r="3.8" fill="#ffb50c" stroke="#111827" stroke-width="1"/>
<circle cx="541.87" cy="324.38" r="3.8" fill="#ffb50c" stroke="#111827" stroke-width="1"/>
<circle cx="582.94" cy="316.16" r="3.8" fill="#ffb50c" stroke="#111827" stroke-width="1"/>
<circle cx="624.02" cy="292.71" r="3.8" fill="#ffb50c" stroke="#111827" stroke-width="1"/>
<circle cx="665.10" cy="282.49" r="3.8" fill="#ffb50c" stroke="#111827" stroke-width="1"/>
<circle cx="706.18" cy="250.20" r="3.8" fill="#ffb50c" stroke="#111827" stroke-width="1"/>
<circle cx="747.26" cy="237.93" r="3.8" fill="#ffb50c" stroke="#111827" stroke-width="1"/>
<circle cx="788.34" cy="213.53" r="3.8" fill="#ffb50c" stroke="#111827" stroke-width="1"/>
<circle cx="829.42" cy="210.61" r="3.8" fill="#ffb50c" stroke="#111827" stroke-width="1"/>
<circle cx="870.49" cy="194.59" r="3.8" fill="#ffb50c" stroke="#111827" stroke-width="1"/>
<circle cx="911.57" cy="191.06" r="3.8" fill="#ffb50c" stroke="#111827" stroke-width="1"/>
<circle cx="952.65" cy="172.27" r="3.8" fill="#ffb50c" stroke="#111827" stroke-width="1"/>
<circle cx="993.73" cy="171.64" r="3.8" fill="#ffb50c" stroke="#111827" stroke-width="1"/>
<circle cx="1026.99" cy="170.51" r="3.8" fill="#ffb50c" stroke="#111827" stroke-width="1"/>
<circle cx="1028.94" cy="167.07" r="3.8" fill="#ffb50c" stroke="#111827" stroke-width="1"/>
<circle cx="1030.89" cy="133.48" r="3.8" fill="#ffb50c" stroke="#111827" stroke-width="1"/>
<circle cx="1032.86" cy="129.22" r="3.8" fill="#ffb50c" stroke="#111827" stroke-width="1"/>
<circle cx="1034.82" cy="126.26" r="3.8" fill="#ffb50c" stroke="#111827" stroke-width="1"/>
<circle cx="1036.00" cy="124.36" r="3.8" fill="#ffb50c" stroke="#111827" stroke-width="1"/>
<text x="1028.00" y="114.36" text-anchor="end" fill="#ffb50c" font-size="12" font-family="-apple-system,BlinkMacSystemFont,Segoe UI,Helvetica,Arial,sans-serif">1.60M</text>
<polyline fill="none" stroke="url(#repo-1)" stroke-width="4" stroke-linecap="round" stroke-linejoin="round" points="650.91,468.00 659.08,467.29 667.25,467.04 675.42,466.89 683.58,466.84 691.75,466.77 699.92,466.70 708.08,466.59 716.25,466.16 724.42,465.48 732.58,464.59 740.75,463.59 748.92,462.57 757.08,461.63 765.25,460.80 773.42,460.05 781.59,459.29 789.75,458.41 797.92,457.33 806.09,456.01 814.25,454.49 822.42,452.88 830.59,451.31 838.75,449.90 846.92,448.69 855.09,447.69 863.25,446.81 871.42,445.94 879.59,444.98 887.76,443.87 895.92,442.62 904.09,441.31 912.26,440.07 920.42,439.00 928.59,438.18 936.76,437.60 944.92,437.19 953.09,436.83 961.26,436.40 969.43,435.82 977.59,435.09 985.76,434.26 993.93,433.45 1002.09,432.81 1010.26,432.42 1018.43,432.39 1026.59,432.39 1026.99,432.14 1027.36,431.91 1027.76,431.68 1028.14,431.56 1028.54,431.52 1028.94,431.44 1029.33,431.27 1029.72,431.00 1030.11,430.67 1030.51,430.36 1030.89,430.07 1031.29,430.02 1031.69,429.89 1032.07,429.61 1032.47,429.29 1032.86,428.93 1033.25,428.69 1033.64,428.37 1034.04,428.33 1034.43,428.26 1034.82,427.90 1035.21,427.57 1035.61,427.20 1036.00,426.88"/>
<circle cx="650.91" cy="468.00" r="3.8" fill="#3bf2af" stroke="#111827" stroke-width="1"/>
<circle cx="667.25" cy="467.04" r="3.8" fill="#3bf2af" stroke="#111827" stroke-width="1"/>
<circle cx="683.58" cy="466.84" r="3.8" fill="#3bf2af" stroke="#111827" stroke-width="1"/>
<circle cx="699.92" cy="466.70" r="3.8" fill="#3bf2af" stroke="#111827" stroke-width="1"/>
<circle cx="716.25" cy="466.16" r="3.8" fill="#3bf2af" stroke="#111827" stroke-width="1"/>
<circle cx="732.58" cy="464.59" r="3.8" fill="#3bf2af" stroke="#111827" stroke-width="1"/>
<circle cx="748.92" cy="462.57" r="3.8" fill="#3bf2af" stroke="#111827" stroke-width="1"/>
<circle cx="765.25" cy="460.80" r="3.8" fill="#3bf2af" stroke="#111827" stroke-width="1"/>
<circle cx="781.59" cy="459.29" r="3.8" fill="#3bf2af" stroke="#111827" stroke-width="1"/>
<circle cx="797.92" cy="457.33" r="3.8" fill="#3bf2af" stroke="#111827" stroke-width="1"/>
<circle cx="814.25" cy="454.49" r="3.8" fill="#3bf2af" stroke="#111827" stroke-width="1"/>
<circle cx="830.59" cy="451.31" r="3.8" fill="#3bf2af" stroke="#111827" stroke-width="1"/>
<circle cx="846.92" cy="448.69" r="3.8" fill="#3bf2af" stroke="#111827" stroke-width="1"/>
<circle cx="863.25" cy="446.81" r="3.8" fill="#3bf2af" stroke="#111827" stroke-width="1"/>
<circle cx="879.59" cy="444.98" r="3.8" fill="#3bf2af" stroke="#111827" stroke-width="1"/>
<circle cx="895.92" cy="442.62" r="3.8" fill="#3bf2af" stroke="#111827" stroke-width="1"/>
<circle cx="912.26" cy="440.07" r="3.8" fill="#3bf2af" stroke="#111827" stroke-width="1"/>
<circle cx="928.59" cy="438.18" r="3.8" fill="#3bf2af" stroke="#111827" stroke-width="1"/>
<circle cx="944.92" cy="437.19" r="3.8" fill="#3bf2af" stroke="#111827" stroke-width="1"/>
<circle cx="961.26" cy="436.40" r="3.8" fill="#3bf2af" stroke="#111827" stroke-width="1"/>
<circle cx="977.59" cy="435.09" r="3.8" fill="#3bf2af" stroke="#111827" stroke-width="1"/>
<circle cx="993.93" cy="433.45" r="3.8" fill="#3bf2af" stroke="#111827" stroke-width="1"/>
<circle cx="1010.26" cy="432.42" r="3.8" fill="#3bf2af" stroke="#111827" stroke-width="1"/>
<circle cx="1026.59" cy="432.39" r="3.8" fill="#3bf2af" stroke="#111827" stroke-width="1"/>
<circle cx="1027.36" cy="431.91" r="3.8" fill="#3bf2af" stroke="#111827" stroke-width="1"/>
<circle cx="1028.14" cy="431.56" r="3.8" fill="#3bf2af" stroke="#111827" stroke-width="1"/>
<circle cx="1028.94" cy="431.44" r="3.8" fill="#3bf2af" stroke="#111827" stroke-width="1"/>
<circle cx="1029.72" cy="431.00" r="3.8" fill="#3bf2af" stroke="#111827" stroke-width="1"/>
<circle cx="1030.51" cy="430.36" r="3.8" fill="#3bf2af" stroke="#111827" stroke-width="1"/>
<circle cx="1031.29" cy="430.02" r="3.8" fill="#3bf2af" stroke="#111827" stroke-width="1"/>
<circle cx="1032.07" cy="429.61" r="3.8" fill="#3bf2af" stroke="#111827" stroke-width="1"/>
<circle cx="1032.86" cy="428.93" r="3.8" fill="#3bf2af" stroke="#111827" stroke-width="1"/>
<circle cx="1033.64" cy="428.37" r="3.8" fill="#3bf2af" stroke="#111827" stroke-width="1"/>
<circle cx="1034.43" cy="428.26" r="3.8" fill="#3bf2af" stroke="#111827" stroke-width="1"/>
<circle cx="1035.21" cy="427.57" r="3.8" fill="#3bf2af" stroke="#111827" stroke-width="1"/>
<circle cx="1036.00" cy="426.88" r="3.8" fill="#3bf2af" stroke="#111827" stroke-width="1"/>
<text x="1028.00" y="416.88" text-anchor="end" fill="#3bf2af" font-size="12" font-family="-apple-system,BlinkMacSystemFont,Segoe UI,Helvetica,Arial,sans-serif">191.98k</text>
<rect x="90.00" y="514.00" width="14" height="14" fill="url(#repo-0)" rx="3"/>
<text x="112.00" y="526.00" fill="#ffb50c" font-size="13" font-family="-apple-system,BlinkMacSystemFont,Segoe UI,Helvetica,Arial,sans-serif">tkpd/gripmock</text>
<rect x="280.00" y="514.00" width="14" height="14" fill="url(#repo-1)" rx="3"/>
<text x="302.00" y="526.00" fill="#3bf2af" font-size="13" font-family="-apple-system,BlinkMacSystemFont,Segoe UI,Helvetica,Arial,sans-serif">bavix/gripmock</text>
<text x="1036.00" y="526.00" text-anchor="end" fill="#9ca3af" font-size="12" font-family="-apple-system,BlinkMacSystemFont,Segoe UI,Helvetica,Arial,sans-serif">Source: https://github.com/bavix/artifact-stats/blob/master/stats/dockerhub.csv</text>
</svg>