<svg xmlns="http://www.w3.org/2000/svg" width="1100" height="560" viewBox="0 0 1100 560">
<defs>
<linearGradient id="bg" x1="0" y1="0" x2="1" y2="1"><stop offset="0%" stop-color="#0b1220"/><stop offset="100%" stop-color="#111827"/></linearGradient>
<linearGradient id="repo-0" x1="0" y1="0" x2="0" y2="1"><stop offset="0%" stop-color="#f59e0b"/><stop offset="100%" stop-color="#d97706"/></linearGradient>
<linearGradient id="repo-1" x1="0" y1="0" x2="0" y2="1"><stop offset="0%" stop-color="#34d399"/><stop offset="100%" stop-color="#059669"/></linearGradient>
</defs>
<rect x="0" y="0" width="1100" height="560" fill="url(#bg)" rx="16"/>
<text x="90" y="44" fill="#f9fafb" font-size="28" font-family="-apple-system,BlinkMacSystemFont,Segoe UI,Helvetica,Arial,sans-serif" font-weight="700">GripMock Docker Hub Downloads</text>
<text x="90" y="70" fill="#9ca3af" font-size="16" font-family="-apple-system,BlinkMacSystemFont,Segoe UI,Helvetica,Arial,sans-serif">Docker Hub pull count by snapshot date</text>
<line x1="90" y1="90.00" x2="1036" y2="90.00" stroke="#1f2937" stroke-width="1"/>
<text x="80" y="95.00" text-anchor="end" fill="#9ca3af" font-size="12" font-family="-apple-system,BlinkMacSystemFont,Segoe UI,Helvetica,Arial,sans-serif">1.75M</text>
<line x1="90" y1="153.00" x2="1036" y2="153.00" stroke="#1f2937" stroke-width="1"/>
<text x="80" y="158.00" text-anchor="end" fill="#9ca3af" font-size="12" font-family="-apple-system,BlinkMacSystemFont,Segoe UI,Helvetica,Arial,sans-serif">1.46M</text>
<line x1="90" y1="216.00" x2="1036" y2="216.00" stroke="#1f2937" stroke-width="1"/>
<text x="80" y="221.00" text-anchor="end" fill="#9ca3af" font-size="12" font-family="-apple-system,BlinkMacSystemFont,Segoe UI,Helvetica,Arial,sans-serif">1.17M</text>
<line x1="90" y1="279.00" x2="1036" y2="279.00" stroke="#1f2937" stroke-width="1"/>
<text x="80" y="284.00" text-anchor="end" fill="#9ca3af" font-size="12" font-family="-apple-system,BlinkMacSystemFont,Segoe UI,Helvetica,Arial,sans-serif">874.63k</text>
<line x1="90" y1="342.00" x2="1036" y2="342.00" stroke="#1f2937" stroke-width="1"/>
<text x="80" y="347.00" text-anchor="end" fill="#9ca3af" font-size="12" font-family="-apple-system,BlinkMacSystemFont,Segoe UI,Helvetica,Arial,sans-serif">583.09k</text>
<line x1="90" y1="405.00" x2="1036" y2="405.00" stroke="#1f2937" stroke-width="1"/>
<text x="80" y="410.00" text-anchor="end" fill="#9ca3af" font-size="12" font-family="-apple-system,BlinkMacSystemFont,Segoe UI,Helvetica,Arial,sans-serif">291.54k</text>
<line x1="90" y1="468.00" x2="1036" y2="468.00" stroke="#1f2937" stroke-width="1"/>
<text x="80" y="473.00" text-anchor="end" fill="#9ca3af" font-size="12" font-family="-apple-system,BlinkMacSystemFont,Segoe UI,Helvetica,Arial,sans-serif">0</text>
<line x1="90" y1="468" x2="1036" y2="468" stroke="#4b5563" stroke-width="1.4"/>
<line x1="90" y1="90" x2="90" y2="468" stroke="#4b5563" stroke-width="1.4"/>
<line x1="90.00" y1="468" x2="90.00" y2="474" stroke="#6b7280" stroke-width="1"/>
<text x="90.00" y="494" text-anchor="start" fill="#9ca3af" font-size="12" font-family="-apple-system,BlinkMacSystemFont,Segoe UI,Helvetica,Arial,sans-serif">2019-09-16</text>
<line x1="279.20" y1="468" x2="279.20" y2="474" stroke="#6b7280" stroke-width="1"/>
<text x="279.20" y="494" text-anchor="middle" fill="#9ca3af" font-size="12" font-family="-apple-system,BlinkMacSystemFont,Segoe UI,Helvetica,Arial,sans-serif">2021-01-09</text>
<line x1="468.40" y1="468" x2="468.40" y2="474" stroke="#6b7280" stroke-width="1"/>
<text x="468.40" y="494" text-anchor="middle" fill="#9ca3af" font-size="12" font-family="-apple-system,BlinkMacSystemFont,Segoe UI,Helvetica,Arial,sans-serif">2022-05-05</text>
<line x1="657.60" y1="468" x2="657.60" y2="474" stroke="#6b7280" stroke-width="1"/>
<text x="657.60" y="494" text-anchor="middle" fill="#9ca3af" font-size="12" font-family="-apple-system,BlinkMacSystemFont,Segoe UI,Helvetica,Arial,sans-serif">2023-08-29</text>
<line x1="846.80" y1="468" x2="846.80" y2="474" stroke="#6b7280" stroke-width="1"/>
<text x="846.80" y="494" text-anchor="middle" fill="#9ca3af" font-size="12" font-family="-apple-system,BlinkMacSystemFont,Segoe UI,Helvetica,Arial,sans-serif">2024-12-23</text>
<line x1="1036.00" y1="468" x2="1036.00" y2="474" stroke="#6b7280" stroke-width="1"/>
<text x="1036.00" y="494" text-anchor="end" fill="#9ca3af" font-size="12" font-family="-apple-system,BlinkMacSystemFont,Segoe UI,Helvetica,Arial,sans-serif">2026-04-18</text>
<polyline fill="none" stroke="url(#repo-0)" stroke-width="4" stroke-linecap="round" stroke-linejoin="round" points="90.00,468.00 98.24,462.38 106.47,461.17 114.71,461.12 122.95,461.05 131.18,460.96 139.42,460.85 147.65,460.72 155.89,460.58 164.13,460.42 172.36,460.23 180.60,460.04 188.84,459.82 197.07,458.88 205.31,458.23 213.54,457.96 221.78,457.69 230.02,457.40 238.25,456.34 246.49,452.84 254.73,447.93 262.96,442.31 271.20,436.96 279.43,432.75 287.67,430.14 295.91,428.99 304.14,428.58 312.38,428.16 320.62,426.94 328.85,424.23 337.09,420.20 345.32,415.44 353.56,410.81 361.80,407.19 370.03,405.06 378.27,404.38 386.51,403.88 394.74,403.36 402.98,402.84 411.22,400.70 419.45,396.07 427.69,390.06 435.92,383.55 444.16,377.52 452.40,372.70 460.63,369.29 468.87,366.94 477.11,364.85 485.34,362.08 493.58,357.93 501.81,352.20 510.05,345.25 518.29,337.96 526.52,331.34 534.76,326.27 543.00,323.10 551.23,321.59 559.47,320.94 567.70,320.14 575.94,318.25 584.18,314.81 592.41,309.92 600.65,304.23 608.89,298.69 617.12,294.17 625.36,291.15 633.59,289.53 641.83,288.63 650.07,287.47 658.30,285.06 666.54,280.84 674.78,274.79 683.01,267.51 691.25,260.02 699.49,253.35 707.72,248.26 715.96,244.92 724.19,242.90 732.43,241.33 740.67,239.23 748.90,235.89 757.14,231.12 765.38,225.36 773.61,219.49 781.85,214.52 790.08,211.27 798.32,209.98 806.56,209.55 814.79,209.13 823.03,208.72 831.27,208.32 839.50,207.94 847.74,205.06 855.97,200.29 864.21,195.68 872.45,192.16 880.68,190.20 888.92,189.66 897.16,189.37 905.39,189.09 913.63,188.60 921.86,185.69 930.10,181.21 938.34,175.84 946.57,170.64 954.81,169.65 963.05,169.48 971.28,169.34 979.52,169.21 987.76,169.10 995.99,169.01 1004.23,168.94 1012.46,168.89 1020.70,168.86 1028.94,168.85 1029.34,167.87 1029.71,166.77 1030.10,165.79 1030.49,165.16 1030.89,164.84 1031.29,164.40 1031.68,155.16 1032.07,137.63 1032.46,133.54 1032.86,131.44 1033.24,130.50 1033.64,130.43 1034.04,130.30 1034.43,128.98 1034.82,127.44 1035.22,126.21 1035.61,125.21 1036.00,124.36"/>
<circle cx="90.00" cy="468.00" r="3.8" fill="#ffb50c" stroke="#111827" stroke-width="1"/>
<circle cx="131.18" cy="460.96" r="3.8" fill="#ffb50c" stroke="#111827" stroke-width="1"/>
<circle cx="172.36" cy="460.23" r="3.8" fill="#ffb50c" stroke="#111827" stroke-width="1"/>
<circle cx="213.54" cy="457.96" r="3.8" fill="#ffb50c" stroke="#111827" stroke-width="1"/>
<circle cx="254.73" cy="447.93" r="3.8" fill="#ffb50c" stroke="#111827" stroke-width="1"/>
<circle cx="295.91" cy="428.99" r="3.8" fill="#ffb50c" stroke="#111827" stroke-width="1"/>
<circle cx="337.09" cy="420.20" r="3.8" fill="#ffb50c" stroke="#111827" stroke-width="1"/>
<circle cx="378.27" cy="404.38" r="3.8" fill="#ffb50c" stroke="#111827" stroke-width="1"/>
<circle cx="419.45" cy="396.07" r="3.8" fill="#ffb50c" stroke="#111827" stroke-width="1"/>
<circle cx="460.63" cy="369.29" r="3.8" fill="#ffb50c" stroke="#111827" stroke-width="1"/>
<circle cx="501.81" cy="352.20" r="3.8" fill="#ffb50c" stroke="#111827" stroke-width="1"/>
<circle cx="543.00" cy="323.10" r="3.8" fill="#ffb50c" stroke="#111827" stroke-width="1"/>
<circle cx="584.18" cy="314.81" r="3.8" fill="#ffb50c" stroke="#111827" stroke-width="1"/>
<circle cx="625.36" cy="291.15" r="3.8" fill="#ffb50c" stroke="#111827" stroke-width="1"/>
<circle cx="666.54" cy="280.84" r="3.8" fill="#ffb50c" stroke="#111827" stroke-width="1"/>
<circle cx="707.72" cy="248.26" r="3.8" fill="#ffb50c" stroke="#111827" stroke-width="1"/>
<circle cx="748.90" cy="235.89" r="3.8" fill="#ffb50c" stroke="#111827" stroke-width="1"/>
<circle cx="790.08" cy="211.27" r="3.8" fill="#ffb50c" stroke="#111827" stroke-width="1"/>
<circle cx="831.27" cy="208.32" r="3.8" fill="#ffb50c" stroke="#111827" stroke-width="1"/>
<circle cx="872.45" cy="192.16" r="3.8" fill="#ffb50c" stroke="#111827" stroke-width="1"/>
<circle cx="913.63" cy="188.60" r="3.8" fill="#ffb50c" stroke="#111827" stroke-width="1"/>
<circle cx="954.81" cy="169.65" r="3.8" fill="#ffb50c" stroke="#111827" stroke-width="1"/>
<circle cx="995.99" cy="169.01" r="3.8" fill="#ffb50c" stroke="#111827" stroke-width="1"/>
<circle cx="1029.34" cy="167.87" r="3.8" fill="#ffb50c" stroke="#111827" stroke-width="1"/>
<circle cx="1031.29" cy="164.40" r="3.8" fill="#ffb50c" stroke="#111827" stroke-width="1"/>
<circle cx="1033.24" cy="130.50" r="3.8" fill="#ffb50c" stroke="#111827" stroke-width="1"/>
<circle cx="1035.22" cy="126.21" r="3.8" fill="#ffb50c" stroke="#111827" stroke-width="1"/>
<circle cx="1036.00" cy="124.36" r="3.8" fill="#ffb50c" stroke="#111827" stroke-width="1"/>
<text x="1028.00" y="114.36" text-anchor="end" fill="#ffb50c" font-size="12" font-family="-apple-system,BlinkMacSystemFont,Segoe UI,Helvetica,Arial,sans-serif">1.59M</text>
<polyline fill="none" stroke="url(#repo-1)" stroke-width="4" stroke-linecap="round" stroke-linejoin="round" points="652.32,468.00 660.50,467.29 668.69,467.03 676.88,466.88 685.07,466.83 693.25,466.76 701.44,466.69 709.63,466.57 717.82,466.14 726.00,465.46 734.19,464.56 742.38,463.55 750.57,462.52 758.75,461.57 766.94,460.74 775.13,459.98 783.32,459.21 791.50,458.32 799.69,457.23 807.88,455.90 816.06,454.37 824.25,452.75 832.44,451.17 840.63,449.74 848.81,448.52 857.00,447.51 865.19,446.62 873.38,445.75 881.56,444.78 889.75,443.65 897.94,442.39 906.13,441.08 914.31,439.82 922.50,438.75 930.69,437.92 938.88,437.33 947.06,436.92 955.25,436.56 963.44,436.12 971.62,435.54 979.81,434.79 988.00,433.96 996.19,433.15 1004.37,432.50 1012.56,432.10 1020.75,432.08 1028.94,432.07 1029.34,431.82 1029.71,431.59 1030.10,431.36 1030.49,431.24 1030.89,431.20 1031.29,431.12 1031.68,430.94 1032.07,430.67 1032.46,430.34 1032.86,430.02 1033.24,429.73 1033.64,429.69 1034.04,429.55 1034.43,429.27 1034.82,428.94 1035.22,428.58 1035.61,428.34 1036.00,428.02"/>
<circle cx="652.32" cy="468.00" r="3.8" fill="#3bf2af" stroke="#111827" stroke-width="1"/>
<circle cx="668.69" cy="467.03" r="3.8" fill="#3bf2af" stroke="#111827" stroke-width="1"/>
<circle cx="685.07" cy="466.83" r="3.8" fill="#3bf2af" stroke="#111827" stroke-width="1"/>
<circle cx="701.44" cy="466.69" r="3.8" fill="#3bf2af" stroke="#111827" stroke-width="1"/>
<circle cx="717.82" cy="466.14" r="3.8" fill="#3bf2af" stroke="#111827" stroke-width="1"/>
<circle cx="734.19" cy="464.56" r="3.8" fill="#3bf2af" stroke="#111827" stroke-width="1"/>
<circle cx="750.57" cy="462.52" r="3.8" fill="#3bf2af" stroke="#111827" stroke-width="1"/>
<circle cx="766.94" cy="460.74" r="3.8" fill="#3bf2af" stroke="#111827" stroke-width="1"/>
<circle cx="783.32" cy="459.21" r="3.8" fill="#3bf2af" stroke="#111827" stroke-width="1"/>
<circle cx="799.69" cy="457.23" r="3.8" fill="#3bf2af" stroke="#111827" stroke-width="1"/>
<circle cx="816.06" cy="454.37" r="3.8" fill="#3bf2af" stroke="#111827" stroke-width="1"/>
<circle cx="832.44" cy="451.17" r="3.8" fill="#3bf2af" stroke="#111827" stroke-width="1"/>
<circle cx="848.81" cy="448.52" r="3.8" fill="#3bf2af" stroke="#111827" stroke-width="1"/>
<circle cx="865.19" cy="446.62" r="3.8" fill="#3bf2af" stroke="#111827" stroke-width="1"/>
<circle cx="881.56" cy="444.78" r="3.8" fill="#3bf2af" stroke="#111827" stroke-width="1"/>
<circle cx="897.94" cy="442.39" r="3.8" fill="#3bf2af" stroke="#111827" stroke-width="1"/>
<circle cx="914.31" cy="439.82" r="3.8" fill="#3bf2af" stroke="#111827" stroke-width="1"/>
<circle cx="930.69" cy="437.92" r="3.8" fill="#3bf2af" stroke="#111827" stroke-width="1"/>
<circle cx="947.06" cy="436.92" r="3.8" fill="#3bf2af" stroke="#111827" stroke-width="1"/>
<circle cx="963.44" cy="436.12" r="3.8" fill="#3bf2af" stroke="#111827" stroke-width="1"/>
<circle cx="979.81" cy="434.79" r="3.8" fill="#3bf2af" stroke="#111827" stroke-width="1"/>
<circle cx="996.19" cy="433.15" r="3.8" fill="#3bf2af" stroke="#111827" stroke-width="1"/>
<circle cx="1012.56" cy="432.10" r="3.8" fill="#3bf2af" stroke="#111827" stroke-width="1"/>
<circle cx="1028.94" cy="432.07" r="3.8" fill="#3bf2af" stroke="#111827" stroke-width="1"/>
<circle cx="1029.71" cy="431.59" r="3.8" fill="#3bf2af" stroke="#111827" stroke-width="1"/>
<circle cx="1030.49" cy="431.24" r="3.8" fill="#3bf2af" stroke="#111827" stroke-width="1"/>
<circle cx="1031.29" cy="431.12" r="3.8" fill="#3bf2af" stroke="#111827" stroke-width="1"/>
<circle cx="1032.07" cy="430.67" r="3.8" fill="#3bf2af" stroke="#111827" stroke-width="1"/>
<circle cx="1032.86" cy="430.02" r="3.8" fill="#3bf2af" stroke="#111827" stroke-width="1"/>
<circle cx="1033.64" cy="429.69" r="3.8" fill="#3bf2af" stroke="#111827" stroke-width="1"/>
<circle cx="1034.43" cy="429.27" r="3.8" fill="#3bf2af" stroke="#111827" stroke-width="1"/>
<circle cx="1035.22" cy="428.58" r="3.8" fill="#3bf2af" stroke="#111827" stroke-width="1"/>
<circle cx="1036.00" cy="428.02" r="3.8" fill="#3bf2af" stroke="#111827" stroke-width="1"/>
<text x="1028.00" y="418.02" text-anchor="end" fill="#3bf2af" font-size="12" font-family="-apple-system,BlinkMacSystemFont,Segoe UI,Helvetica,Arial,sans-serif">185.02k</text>
<rect x="90.00" y="514.00" width="14" height="14" fill="url(#repo-0)" rx="3"/>
<text x="112.00" y="526.00" fill="#ffb50c" font-size="13" font-family="-apple-system,BlinkMacSystemFont,Segoe UI,Helvetica,Arial,sans-serif">tkpd/gripmock</text>
<rect x="280.00" y="514.00" width="14" height="14" fill="url(#repo-1)" rx="3"/>
<text x="302.00" y="526.00" fill="#3bf2af" font-size="13" font-family="-apple-system,BlinkMacSystemFont,Segoe UI,Helvetica,Arial,sans-serif">bavix/gripmock</text>
<text x="1036.00" y="526.00" text-anchor="end" fill="#9ca3af" font-size="12" font-family="-apple-system,BlinkMacSystemFont,Segoe UI,Helvetica,Arial,sans-serif">Source: https://github.com/bavix/artifact-stats/blob/master/stats/dockerhub.csv</text>
</svg>