<svg xmlns="http://www.w3.org/2000/svg" width="1100" height="560" viewBox="0 0 1100 560">
<defs>
<linearGradient id="bg" x1="0" y1="0" x2="1" y2="1"><stop offset="0%" stop-color="#0b1220"/><stop offset="100%" stop-color="#111827"/></linearGradient>
<linearGradient id="repo-0" x1="0" y1="0" x2="0" y2="1"><stop offset="0%" stop-color="#f59e0b"/><stop offset="100%" stop-color="#d97706"/></linearGradient>
<linearGradient id="repo-1" x1="0" y1="0" x2="0" y2="1"><stop offset="0%" stop-color="#34d399"/><stop offset="100%" stop-color="#059669"/></linearGradient>
</defs>
<rect x="0" y="0" width="1100" height="560" fill="url(#bg)" rx="16"/>
<text x="90" y="44" fill="#f9fafb" font-size="28" font-family="-apple-system,BlinkMacSystemFont,Segoe UI,Helvetica,Arial,sans-serif" font-weight="700">GripMock Docker Hub Downloads</text>
<text x="90" y="70" fill="#9ca3af" font-size="16" font-family="-apple-system,BlinkMacSystemFont,Segoe UI,Helvetica,Arial,sans-serif">Docker Hub pull count by snapshot date</text>
<line x1="90" y1="90.0" x2="1036" y2="90.0" stroke="#1f2937" stroke-width="1"/>
<text x="80" y="95.0" text-anchor="end" fill="#9ca3af" font-size="12" font-family="-apple-system,BlinkMacSystemFont,Segoe UI,Helvetica,Arial,sans-serif">1.7M</text>
<line x1="90" y1="153.0" x2="1036" y2="153.0" stroke="#1f2937" stroke-width="1"/>
<text x="80" y="158.0" text-anchor="end" fill="#9ca3af" font-size="12" font-family="-apple-system,BlinkMacSystemFont,Segoe UI,Helvetica,Arial,sans-serif">1.4M</text>
<line x1="90" y1="216.0" x2="1036" y2="216.0" stroke="#1f2937" stroke-width="1"/>
<text x="80" y="221.0" text-anchor="end" fill="#9ca3af" font-size="12" font-family="-apple-system,BlinkMacSystemFont,Segoe UI,Helvetica,Arial,sans-serif">1.1M</text>
<line x1="90" y1="279.0" x2="1036" y2="279.0" stroke="#1f2937" stroke-width="1"/>
<text x="80" y="284.0" text-anchor="end" fill="#9ca3af" font-size="12" font-family="-apple-system,BlinkMacSystemFont,Segoe UI,Helvetica,Arial,sans-serif">851.3k</text>
<line x1="90" y1="342.0" x2="1036" y2="342.0" stroke="#1f2937" stroke-width="1"/>
<text x="80" y="347.0" text-anchor="end" fill="#9ca3af" font-size="12" font-family="-apple-system,BlinkMacSystemFont,Segoe UI,Helvetica,Arial,sans-serif">567.5k</text>
<line x1="90" y1="405.0" x2="1036" y2="405.0" stroke="#1f2937" stroke-width="1"/>
<text x="80" y="410.0" text-anchor="end" fill="#9ca3af" font-size="12" font-family="-apple-system,BlinkMacSystemFont,Segoe UI,Helvetica,Arial,sans-serif">283.8k</text>
<line x1="90" y1="468.0" x2="1036" y2="468.0" stroke="#1f2937" stroke-width="1"/>
<text x="80" y="473.0" text-anchor="end" fill="#9ca3af" font-size="12" font-family="-apple-system,BlinkMacSystemFont,Segoe UI,Helvetica,Arial,sans-serif">0</text>
<line x1="90" y1="468" x2="1036" y2="468" stroke="#4b5563" stroke-width="1.4"/>
<line x1="90" y1="90" x2="90" y2="468" stroke="#4b5563" stroke-width="1.4"/>
<line x1="90.0" y1="468" x2="90.0" y2="474" stroke="#6b7280" stroke-width="1"/>
<text x="90.0" y="494" text-anchor="start" fill="#9ca3af" font-size="12" font-family="-apple-system,BlinkMacSystemFont,Segoe UI,Helvetica,Arial,sans-serif">2019-09-16</text>
<line x1="279.2" y1="468" x2="279.2" y2="474" stroke="#6b7280" stroke-width="1"/>
<text x="279.2" y="494" text-anchor="middle" fill="#9ca3af" font-size="12" font-family="-apple-system,BlinkMacSystemFont,Segoe UI,Helvetica,Arial,sans-serif">2021-01-07</text>
<line x1="468.4" y1="468" x2="468.4" y2="474" stroke="#6b7280" stroke-width="1"/>
<text x="468.4" y="494" text-anchor="middle" fill="#9ca3af" font-size="12" font-family="-apple-system,BlinkMacSystemFont,Segoe UI,Helvetica,Arial,sans-serif">2022-05-02</text>
<line x1="657.6" y1="468" x2="657.6" y2="474" stroke="#6b7280" stroke-width="1"/>
<text x="657.6" y="494" text-anchor="middle" fill="#9ca3af" font-size="12" font-family="-apple-system,BlinkMacSystemFont,Segoe UI,Helvetica,Arial,sans-serif">2023-08-24</text>
<line x1="846.8" y1="468" x2="846.8" y2="474" stroke="#6b7280" stroke-width="1"/>
<text x="846.8" y="494" text-anchor="middle" fill="#9ca3af" font-size="12" font-family="-apple-system,BlinkMacSystemFont,Segoe UI,Helvetica,Arial,sans-serif">2024-12-15</text>
<line x1="1036.0" y1="468" x2="1036.0" y2="474" stroke="#6b7280" stroke-width="1"/>
<text x="1036.0" y="494" text-anchor="end" fill="#9ca3af" font-size="12" font-family="-apple-system,BlinkMacSystemFont,Segoe UI,Helvetica,Arial,sans-serif">2026-04-09</text>
<polyline fill="none" stroke="url(#repo-0)" stroke-width="4" stroke-linecap="round" stroke-linejoin="round" points="90.00,468.00 98.27,462.22 106.53,460.98 114.80,460.93 123.07,460.86 131.34,460.77 139.60,460.65 147.87,460.52 156.14,460.37 164.40,460.21 172.67,460.02 180.94,459.82 189.21,459.60 197.47,458.63 205.74,457.96 214.01,457.69 222.28,457.40 230.54,457.10 238.81,456.03 247.08,452.43 255.34,447.37 263.61,441.60 271.88,436.11 280.15,431.78 288.41,429.10 296.68,427.92 304.95,427.50 313.21,427.07 321.48,425.81 329.75,423.03 338.02,418.89 346.28,414.00 354.55,409.25 362.82,405.52 371.08,403.34 379.35,402.64 387.62,402.12 395.89,401.59 404.15,401.05 412.42,398.85 420.69,394.09 428.96,387.92 437.22,381.23 445.49,375.04 453.76,370.08 462.02,366.59 470.29,364.17 478.56,362.02 486.83,359.17 495.09,354.91 503.36,349.02 511.63,341.89 519.89,334.39 528.16,327.59 536.43,322.38 544.70,319.13 552.96,317.57 561.23,316.91 569.50,316.08 577.77,314.15 586.03,310.61 594.30,305.59 602.57,299.74 610.83,294.05 619.10,289.40 627.37,286.30 635.64,284.63 643.90,283.71 652.17,282.51 660.44,280.05 668.70,275.70 676.97,269.49 685.24,262.02 693.51,254.31 701.77,247.47 710.04,242.24 718.31,238.80 726.57,236.73 734.84,235.11 743.11,232.95 751.38,229.52 759.64,224.63 767.91,218.71 776.18,212.67 784.45,207.57 792.71,204.22 800.98,202.91 809.25,202.46 817.51,202.03 825.78,201.61 834.05,201.20 842.32,200.80 850.58,197.85 858.85,192.94 867.12,188.21 875.38,184.60 883.65,182.58 891.92,182.03 900.19,181.73 908.45,181.44 916.72,180.93 924.99,177.95 933.25,173.34 941.52,167.82 949.79,162.48 958.06,161.46 966.32,161.29 974.59,161.15 982.86,161.02 991.13,160.90 999.39,160.81 1007.66,160.74 1015.93,160.69 1024.19,160.66 1032.46,160.65 1032.86,159.63 1033.24,158.51 1033.63,157.50 1034.02,156.86 1034.42,156.53 1034.82,156.07 1035.21,146.58 1035.61,128.57 1036.00,124.36"/>
<circle cx="90.00" cy="468.00" r="3.8" fill="#ffb50c" stroke="#111827" stroke-width="1"/>
<circle cx="131.34" cy="460.77" r="3.8" fill="#ffb50c" stroke="#111827" stroke-width="1"/>
<circle cx="172.67" cy="460.02" r="3.8" fill="#ffb50c" stroke="#111827" stroke-width="1"/>
<circle cx="214.01" cy="457.69" r="3.8" fill="#ffb50c" stroke="#111827" stroke-width="1"/>
<circle cx="255.34" cy="447.37" r="3.8" fill="#ffb50c" stroke="#111827" stroke-width="1"/>
<circle cx="296.68" cy="427.92" r="3.8" fill="#ffb50c" stroke="#111827" stroke-width="1"/>
<circle cx="338.02" cy="418.89" r="3.8" fill="#ffb50c" stroke="#111827" stroke-width="1"/>
<circle cx="379.35" cy="402.64" r="3.8" fill="#ffb50c" stroke="#111827" stroke-width="1"/>
<circle cx="420.69" cy="394.09" r="3.8" fill="#ffb50c" stroke="#111827" stroke-width="1"/>
<circle cx="462.02" cy="366.59" r="3.8" fill="#ffb50c" stroke="#111827" stroke-width="1"/>
<circle cx="503.36" cy="349.02" r="3.8" fill="#ffb50c" stroke="#111827" stroke-width="1"/>
<circle cx="544.70" cy="319.13" r="3.8" fill="#ffb50c" stroke="#111827" stroke-width="1"/>
<circle cx="586.03" cy="310.61" r="3.8" fill="#ffb50c" stroke="#111827" stroke-width="1"/>
<circle cx="627.37" cy="286.30" r="3.8" fill="#ffb50c" stroke="#111827" stroke-width="1"/>
<circle cx="668.70" cy="275.70" r="3.8" fill="#ffb50c" stroke="#111827" stroke-width="1"/>
<circle cx="710.04" cy="242.24" r="3.8" fill="#ffb50c" stroke="#111827" stroke-width="1"/>
<circle cx="751.38" cy="229.52" r="3.8" fill="#ffb50c" stroke="#111827" stroke-width="1"/>
<circle cx="792.71" cy="204.22" r="3.8" fill="#ffb50c" stroke="#111827" stroke-width="1"/>
<circle cx="834.05" cy="201.20" r="3.8" fill="#ffb50c" stroke="#111827" stroke-width="1"/>
<circle cx="875.38" cy="184.60" r="3.8" fill="#ffb50c" stroke="#111827" stroke-width="1"/>
<circle cx="916.72" cy="180.93" r="3.8" fill="#ffb50c" stroke="#111827" stroke-width="1"/>
<circle cx="958.06" cy="161.46" r="3.8" fill="#ffb50c" stroke="#111827" stroke-width="1"/>
<circle cx="999.39" cy="160.81" r="3.8" fill="#ffb50c" stroke="#111827" stroke-width="1"/>
<circle cx="1032.86" cy="159.63" r="3.8" fill="#ffb50c" stroke="#111827" stroke-width="1"/>
<circle cx="1034.82" cy="156.07" r="3.8" fill="#ffb50c" stroke="#111827" stroke-width="1"/>
<circle cx="1036.00" cy="124.36" r="3.8" fill="#ffb50c" stroke="#111827" stroke-width="1"/>
<text x="1028.0" y="114.4" text-anchor="end" fill="#ffb50c" font-size="12" font-family="-apple-system,BlinkMacSystemFont,Segoe UI,Helvetica,Arial,sans-serif">1.5M</text>
<polyline fill="none" stroke="url(#repo-1)" stroke-width="4" stroke-linecap="round" stroke-linejoin="round" points="654.43,468.00 662.65,467.27 670.86,467.01 679.08,466.85 687.30,466.79 695.52,466.73 703.74,466.65 711.96,466.53 720.17,466.09 728.39,465.39 736.61,464.47 744.83,463.42 753.05,462.37 761.26,461.39 769.48,460.54 777.70,459.76 785.92,458.97 794.14,458.06 802.35,456.93 810.57,455.57 818.79,454.00 827.01,452.33 835.23,450.71 843.45,449.24 851.66,447.99 859.88,446.95 868.10,446.04 876.32,445.14 884.54,444.14 892.75,442.99 900.97,441.69 909.19,440.34 917.41,439.05 925.63,437.94 933.84,437.09 942.06,436.49 950.28,436.07 958.50,435.69 966.72,435.25 974.93,434.65 983.15,433.88 991.37,433.02 999.59,432.19 1007.81,431.52 1016.03,431.12 1024.24,431.09 1032.46,431.08 1032.86,430.83 1033.24,430.59 1033.63,430.36 1034.02,430.23 1034.42,430.19 1034.82,430.11 1035.21,429.92 1035.61,429.64 1036.00,429.31"/>
<circle cx="654.43" cy="468.00" r="3.8" fill="#3bf2af" stroke="#111827" stroke-width="1"/>
<circle cx="670.86" cy="467.01" r="3.8" fill="#3bf2af" stroke="#111827" stroke-width="1"/>
<circle cx="687.30" cy="466.79" r="3.8" fill="#3bf2af" stroke="#111827" stroke-width="1"/>
<circle cx="703.74" cy="466.65" r="3.8" fill="#3bf2af" stroke="#111827" stroke-width="1"/>
<circle cx="720.17" cy="466.09" r="3.8" fill="#3bf2af" stroke="#111827" stroke-width="1"/>
<circle cx="736.61" cy="464.47" r="3.8" fill="#3bf2af" stroke="#111827" stroke-width="1"/>
<circle cx="753.05" cy="462.37" r="3.8" fill="#3bf2af" stroke="#111827" stroke-width="1"/>
<circle cx="769.48" cy="460.54" r="3.8" fill="#3bf2af" stroke="#111827" stroke-width="1"/>
<circle cx="785.92" cy="458.97" r="3.8" fill="#3bf2af" stroke="#111827" stroke-width="1"/>
<circle cx="802.35" cy="456.93" r="3.8" fill="#3bf2af" stroke="#111827" stroke-width="1"/>
<circle cx="818.79" cy="454.00" r="3.8" fill="#3bf2af" stroke="#111827" stroke-width="1"/>
<circle cx="835.23" cy="450.71" r="3.8" fill="#3bf2af" stroke="#111827" stroke-width="1"/>
<circle cx="851.66" cy="447.99" r="3.8" fill="#3bf2af" stroke="#111827" stroke-width="1"/>
<circle cx="868.10" cy="446.04" r="3.8" fill="#3bf2af" stroke="#111827" stroke-width="1"/>
<circle cx="884.54" cy="444.14" r="3.8" fill="#3bf2af" stroke="#111827" stroke-width="1"/>
<circle cx="900.97" cy="441.69" r="3.8" fill="#3bf2af" stroke="#111827" stroke-width="1"/>
<circle cx="917.41" cy="439.05" r="3.8" fill="#3bf2af" stroke="#111827" stroke-width="1"/>
<circle cx="933.84" cy="437.09" r="3.8" fill="#3bf2af" stroke="#111827" stroke-width="1"/>
<circle cx="950.28" cy="436.07" r="3.8" fill="#3bf2af" stroke="#111827" stroke-width="1"/>
<circle cx="966.72" cy="435.25" r="3.8" fill="#3bf2af" stroke="#111827" stroke-width="1"/>
<circle cx="983.15" cy="433.88" r="3.8" fill="#3bf2af" stroke="#111827" stroke-width="1"/>
<circle cx="999.59" cy="432.19" r="3.8" fill="#3bf2af" stroke="#111827" stroke-width="1"/>
<circle cx="1016.03" cy="431.12" r="3.8" fill="#3bf2af" stroke="#111827" stroke-width="1"/>
<circle cx="1032.46" cy="431.08" r="3.8" fill="#3bf2af" stroke="#111827" stroke-width="1"/>
<circle cx="1033.24" cy="430.59" r="3.8" fill="#3bf2af" stroke="#111827" stroke-width="1"/>
<circle cx="1034.02" cy="430.23" r="3.8" fill="#3bf2af" stroke="#111827" stroke-width="1"/>
<circle cx="1034.82" cy="430.11" r="3.8" fill="#3bf2af" stroke="#111827" stroke-width="1"/>
<circle cx="1035.61" cy="429.64" r="3.8" fill="#3bf2af" stroke="#111827" stroke-width="1"/>
<circle cx="1036.00" cy="429.31" r="3.8" fill="#3bf2af" stroke="#111827" stroke-width="1"/>
<text x="1028.0" y="419.3" text-anchor="end" fill="#3bf2af" font-size="12" font-family="-apple-system,BlinkMacSystemFont,Segoe UI,Helvetica,Arial,sans-serif">174.3k</text>
<rect x="90" y="514" width="14" height="14" fill="url(#repo-0)" rx="3"/>
<text x="112" y="526" fill="#ffb50c" font-size="13" font-family="-apple-system,BlinkMacSystemFont,Segoe UI,Helvetica,Arial,sans-serif">tkpd/gripmock</text>
<rect x="280" y="514" width="14" height="14" fill="url(#repo-1)" rx="3"/>
<text x="302" y="526" fill="#3bf2af" font-size="13" font-family="-apple-system,BlinkMacSystemFont,Segoe UI,Helvetica,Arial,sans-serif">bavix/gripmock</text>
<text x="1036" y="526" text-anchor="end" fill="#9ca3af" font-size="12" font-family="-apple-system,BlinkMacSystemFont,Segoe UI,Helvetica,Arial,sans-serif">Source: https://github.com/bavix/artifact-stats/blob/master/stats/dockerhub.csv</text>
</svg>