<svg xmlns="http://www.w3.org/2000/svg" width="1100" height="560" viewBox="0 0 1100 560">
<defs>
<linearGradient id="bg" x1="0" y1="0" x2="1" y2="1"><stop offset="0%" stop-color="#0b1220"/><stop offset="100%" stop-color="#111827"/></linearGradient>
<linearGradient id="repo-0" x1="0" y1="0" x2="0" y2="1"><stop offset="0%" stop-color="#f59e0b"/><stop offset="100%" stop-color="#d97706"/></linearGradient>
<linearGradient id="repo-1" x1="0" y1="0" x2="0" y2="1"><stop offset="0%" stop-color="#34d399"/><stop offset="100%" stop-color="#059669"/></linearGradient>
</defs>
<rect x="0" y="0" width="1100" height="560" fill="url(#bg)" rx="16"/>
<text x="90" y="44" fill="#f9fafb" font-size="28" font-family="-apple-system,BlinkMacSystemFont,Segoe UI,Helvetica,Arial,sans-serif" font-weight="700">GripMock Docker Hub Downloads</text>
<text x="90" y="70" fill="#9ca3af" font-size="16" font-family="-apple-system,BlinkMacSystemFont,Segoe UI,Helvetica,Arial,sans-serif">Docker Hub pull count by snapshot date</text>
<line x1="90" y1="90.00" x2="1036" y2="90.00" stroke="#1f2937" stroke-width="1"/>
<text x="80" y="95.00" text-anchor="end" fill="#9ca3af" font-size="12" font-family="-apple-system,BlinkMacSystemFont,Segoe UI,Helvetica,Arial,sans-serif">1.75M</text>
<line x1="90" y1="153.00" x2="1036" y2="153.00" stroke="#1f2937" stroke-width="1"/>
<text x="80" y="158.00" text-anchor="end" fill="#9ca3af" font-size="12" font-family="-apple-system,BlinkMacSystemFont,Segoe UI,Helvetica,Arial,sans-serif">1.46M</text>
<line x1="90" y1="216.00" x2="1036" y2="216.00" stroke="#1f2937" stroke-width="1"/>
<text x="80" y="221.00" text-anchor="end" fill="#9ca3af" font-size="12" font-family="-apple-system,BlinkMacSystemFont,Segoe UI,Helvetica,Arial,sans-serif">1.17M</text>
<line x1="90" y1="279.00" x2="1036" y2="279.00" stroke="#1f2937" stroke-width="1"/>
<text x="80" y="284.00" text-anchor="end" fill="#9ca3af" font-size="12" font-family="-apple-system,BlinkMacSystemFont,Segoe UI,Helvetica,Arial,sans-serif">875.19k</text>
<line x1="90" y1="342.00" x2="1036" y2="342.00" stroke="#1f2937" stroke-width="1"/>
<text x="80" y="347.00" text-anchor="end" fill="#9ca3af" font-size="12" font-family="-apple-system,BlinkMacSystemFont,Segoe UI,Helvetica,Arial,sans-serif">583.46k</text>
<line x1="90" y1="405.00" x2="1036" y2="405.00" stroke="#1f2937" stroke-width="1"/>
<text x="80" y="410.00" text-anchor="end" fill="#9ca3af" font-size="12" font-family="-apple-system,BlinkMacSystemFont,Segoe UI,Helvetica,Arial,sans-serif">291.73k</text>
<line x1="90" y1="468.00" x2="1036" y2="468.00" stroke="#1f2937" stroke-width="1"/>
<text x="80" y="473.00" text-anchor="end" fill="#9ca3af" font-size="12" font-family="-apple-system,BlinkMacSystemFont,Segoe UI,Helvetica,Arial,sans-serif">0</text>
<line x1="90" y1="468" x2="1036" y2="468" stroke="#4b5563" stroke-width="1.4"/>
<line x1="90" y1="90" x2="90" y2="468" stroke="#4b5563" stroke-width="1.4"/>
<line x1="90.00" y1="468" x2="90.00" y2="474" stroke="#6b7280" stroke-width="1"/>
<text x="90.00" y="494" text-anchor="start" fill="#9ca3af" font-size="12" font-family="-apple-system,BlinkMacSystemFont,Segoe UI,Helvetica,Arial,sans-serif">2019-09-16</text>
<line x1="279.20" y1="468" x2="279.20" y2="474" stroke="#6b7280" stroke-width="1"/>
<text x="279.20" y="494" text-anchor="middle" fill="#9ca3af" font-size="12" font-family="-apple-system,BlinkMacSystemFont,Segoe UI,Helvetica,Arial,sans-serif">2021-01-09</text>
<line x1="468.40" y1="468" x2="468.40" y2="474" stroke="#6b7280" stroke-width="1"/>
<text x="468.40" y="494" text-anchor="middle" fill="#9ca3af" font-size="12" font-family="-apple-system,BlinkMacSystemFont,Segoe UI,Helvetica,Arial,sans-serif">2022-05-06</text>
<line x1="657.60" y1="468" x2="657.60" y2="474" stroke="#6b7280" stroke-width="1"/>
<text x="657.60" y="494" text-anchor="middle" fill="#9ca3af" font-size="12" font-family="-apple-system,BlinkMacSystemFont,Segoe UI,Helvetica,Arial,sans-serif">2023-08-31</text>
<line x1="846.80" y1="468" x2="846.80" y2="474" stroke="#6b7280" stroke-width="1"/>
<text x="846.80" y="494" text-anchor="middle" fill="#9ca3af" font-size="12" font-family="-apple-system,BlinkMacSystemFont,Segoe UI,Helvetica,Arial,sans-serif">2024-12-24</text>
<line x1="1036.00" y1="468" x2="1036.00" y2="474" stroke="#6b7280" stroke-width="1"/>
<text x="1036.00" y="494" text-anchor="end" fill="#9ca3af" font-size="12" font-family="-apple-system,BlinkMacSystemFont,Segoe UI,Helvetica,Arial,sans-serif">2026-04-20</text>
<polyline fill="none" stroke="url(#repo-0)" stroke-width="4" stroke-linecap="round" stroke-linejoin="round" points="90.00,468.00 98.23,462.38 106.46,461.17 114.69,461.12 122.92,461.05 131.15,460.96 139.38,460.85 147.61,460.73 155.83,460.58 164.06,460.42 172.29,460.24 180.52,460.04 188.75,459.83 196.98,458.89 205.21,458.23 213.44,457.97 221.67,457.69 229.90,457.40 238.13,456.35 246.36,452.85 254.59,447.94 262.82,442.32 271.05,436.98 279.28,432.77 287.50,430.16 295.73,429.01 303.96,428.60 312.19,428.18 320.42,426.96 328.65,424.26 336.88,420.23 345.11,415.47 353.34,410.85 361.57,407.23 369.80,405.10 378.03,404.42 386.26,403.92 394.49,403.40 402.72,402.88 410.95,400.74 419.17,396.11 427.40,390.11 435.63,383.60 443.86,377.58 452.09,372.76 460.32,369.36 468.55,367.01 476.78,364.91 485.01,362.15 493.24,358.00 501.47,352.27 509.70,345.33 517.93,338.04 526.16,331.43 534.39,326.36 542.62,323.19 550.84,321.68 559.07,321.04 567.30,320.23 575.53,318.35 583.76,314.91 591.99,310.02 600.22,304.34 608.45,298.80 616.68,294.28 624.91,291.26 633.14,289.64 641.37,288.75 649.60,287.58 657.83,285.18 666.06,280.96 674.29,274.91 682.51,267.64 690.74,260.15 698.97,253.49 707.20,248.40 715.43,245.07 723.66,243.05 731.89,241.47 740.12,239.37 748.35,236.04 756.58,231.28 764.81,225.52 773.04,219.64 781.27,214.68 789.50,211.43 797.73,210.15 805.96,209.72 814.18,209.30 822.41,208.89 830.64,208.49 838.87,208.10 847.10,205.23 855.33,200.46 863.56,195.86 871.79,192.34 880.02,190.38 888.25,189.84 896.48,189.55 904.71,189.27 912.94,188.77 921.17,185.87 929.40,181.39 937.63,176.02 945.85,170.83 954.08,169.84 962.31,169.67 970.54,169.53 978.77,169.40 987.00,169.29 995.23,169.20 1003.46,169.13 1011.69,169.08 1019.92,169.05 1028.15,169.04 1028.55,168.06 1028.92,166.96 1029.31,165.98 1029.70,165.36 1030.10,165.03 1030.50,164.59 1030.88,155.36 1031.28,137.84 1031.67,133.75 1032.07,131.65 1032.45,130.72 1032.85,130.65 1033.25,130.51 1033.64,129.20 1034.03,127.66 1034.43,126.43 1034.82,125.43 1035.21,124.58 1035.60,124.51 1036.00,124.36"/>
<circle cx="90.00" cy="468.00" r="3.8" fill="#ffb50c" stroke="#111827" stroke-width="1"/>
<circle cx="131.15" cy="460.96" r="3.8" fill="#ffb50c" stroke="#111827" stroke-width="1"/>
<circle cx="172.29" cy="460.24" r="3.8" fill="#ffb50c" stroke="#111827" stroke-width="1"/>
<circle cx="213.44" cy="457.97" r="3.8" fill="#ffb50c" stroke="#111827" stroke-width="1"/>
<circle cx="254.59" cy="447.94" r="3.8" fill="#ffb50c" stroke="#111827" stroke-width="1"/>
<circle cx="295.73" cy="429.01" r="3.8" fill="#ffb50c" stroke="#111827" stroke-width="1"/>
<circle cx="336.88" cy="420.23" r="3.8" fill="#ffb50c" stroke="#111827" stroke-width="1"/>
<circle cx="378.03" cy="404.42" r="3.8" fill="#ffb50c" stroke="#111827" stroke-width="1"/>
<circle cx="419.17" cy="396.11" r="3.8" fill="#ffb50c" stroke="#111827" stroke-width="1"/>
<circle cx="460.32" cy="369.36" r="3.8" fill="#ffb50c" stroke="#111827" stroke-width="1"/>
<circle cx="501.47" cy="352.27" r="3.8" fill="#ffb50c" stroke="#111827" stroke-width="1"/>
<circle cx="542.62" cy="323.19" r="3.8" fill="#ffb50c" stroke="#111827" stroke-width="1"/>
<circle cx="583.76" cy="314.91" r="3.8" fill="#ffb50c" stroke="#111827" stroke-width="1"/>
<circle cx="624.91" cy="291.26" r="3.8" fill="#ffb50c" stroke="#111827" stroke-width="1"/>
<circle cx="666.06" cy="280.96" r="3.8" fill="#ffb50c" stroke="#111827" stroke-width="1"/>
<circle cx="707.20" cy="248.40" r="3.8" fill="#ffb50c" stroke="#111827" stroke-width="1"/>
<circle cx="748.35" cy="236.04" r="3.8" fill="#ffb50c" stroke="#111827" stroke-width="1"/>
<circle cx="789.50" cy="211.43" r="3.8" fill="#ffb50c" stroke="#111827" stroke-width="1"/>
<circle cx="830.64" cy="208.49" r="3.8" fill="#ffb50c" stroke="#111827" stroke-width="1"/>
<circle cx="871.79" cy="192.34" r="3.8" fill="#ffb50c" stroke="#111827" stroke-width="1"/>
<circle cx="912.94" cy="188.77" r="3.8" fill="#ffb50c" stroke="#111827" stroke-width="1"/>
<circle cx="954.08" cy="169.84" r="3.8" fill="#ffb50c" stroke="#111827" stroke-width="1"/>
<circle cx="995.23" cy="169.20" r="3.8" fill="#ffb50c" stroke="#111827" stroke-width="1"/>
<circle cx="1028.55" cy="168.06" r="3.8" fill="#ffb50c" stroke="#111827" stroke-width="1"/>
<circle cx="1030.50" cy="164.59" r="3.8" fill="#ffb50c" stroke="#111827" stroke-width="1"/>
<circle cx="1032.45" cy="130.72" r="3.8" fill="#ffb50c" stroke="#111827" stroke-width="1"/>
<circle cx="1034.43" cy="126.43" r="3.8" fill="#ffb50c" stroke="#111827" stroke-width="1"/>
<circle cx="1036.00" cy="124.36" r="3.8" fill="#ffb50c" stroke="#111827" stroke-width="1"/>
<text x="1028.00" y="114.36" text-anchor="end" fill="#ffb50c" font-size="12" font-family="-apple-system,BlinkMacSystemFont,Segoe UI,Helvetica,Arial,sans-serif">1.59M</text>
<polyline fill="none" stroke="url(#repo-1)" stroke-width="4" stroke-linecap="round" stroke-linejoin="round" points="651.85,468.00 660.03,467.29 668.21,467.03 676.39,466.88 684.57,466.83 692.75,466.76 700.93,466.69 709.11,466.57 717.29,466.14 725.47,465.46 733.65,464.57 741.83,463.55 750.01,462.52 758.19,461.57 766.37,460.74 774.55,459.98 782.73,459.22 790.91,458.33 799.09,457.24 807.27,455.91 815.46,454.38 823.64,452.76 831.82,451.18 840.00,449.75 848.18,448.53 856.36,447.52 864.54,446.64 872.72,445.76 880.90,444.79 889.08,443.67 897.26,442.41 905.44,441.09 913.62,439.84 921.80,438.76 929.98,437.94 938.16,437.35 946.34,436.94 954.52,436.58 962.70,436.14 970.88,435.56 979.07,434.82 987.25,433.98 995.43,433.17 1003.61,432.52 1011.79,432.12 1019.97,432.10 1028.15,432.09 1028.55,431.84 1028.92,431.61 1029.31,431.38 1029.70,431.26 1030.10,431.22 1030.50,431.14 1030.88,430.96 1031.28,430.69 1031.67,430.36 1032.07,430.04 1032.45,429.76 1032.85,429.71 1033.25,429.57 1033.64,429.30 1034.03,428.97 1034.43,428.61 1034.82,428.37 1035.21,428.04 1035.60,428.01 1036.00,427.93"/>
<circle cx="651.85" cy="468.00" r="3.8" fill="#3bf2af" stroke="#111827" stroke-width="1"/>
<circle cx="668.21" cy="467.03" r="3.8" fill="#3bf2af" stroke="#111827" stroke-width="1"/>
<circle cx="684.57" cy="466.83" r="3.8" fill="#3bf2af" stroke="#111827" stroke-width="1"/>
<circle cx="700.93" cy="466.69" r="3.8" fill="#3bf2af" stroke="#111827" stroke-width="1"/>
<circle cx="717.29" cy="466.14" r="3.8" fill="#3bf2af" stroke="#111827" stroke-width="1"/>
<circle cx="733.65" cy="464.57" r="3.8" fill="#3bf2af" stroke="#111827" stroke-width="1"/>
<circle cx="750.01" cy="462.52" r="3.8" fill="#3bf2af" stroke="#111827" stroke-width="1"/>
<circle cx="766.37" cy="460.74" r="3.8" fill="#3bf2af" stroke="#111827" stroke-width="1"/>
<circle cx="782.73" cy="459.22" r="3.8" fill="#3bf2af" stroke="#111827" stroke-width="1"/>
<circle cx="799.09" cy="457.24" r="3.8" fill="#3bf2af" stroke="#111827" stroke-width="1"/>
<circle cx="815.46" cy="454.38" r="3.8" fill="#3bf2af" stroke="#111827" stroke-width="1"/>
<circle cx="831.82" cy="451.18" r="3.8" fill="#3bf2af" stroke="#111827" stroke-width="1"/>
<circle cx="848.18" cy="448.53" r="3.8" fill="#3bf2af" stroke="#111827" stroke-width="1"/>
<circle cx="864.54" cy="446.64" r="3.8" fill="#3bf2af" stroke="#111827" stroke-width="1"/>
<circle cx="880.90" cy="444.79" r="3.8" fill="#3bf2af" stroke="#111827" stroke-width="1"/>
<circle cx="897.26" cy="442.41" r="3.8" fill="#3bf2af" stroke="#111827" stroke-width="1"/>
<circle cx="913.62" cy="439.84" r="3.8" fill="#3bf2af" stroke="#111827" stroke-width="1"/>
<circle cx="929.98" cy="437.94" r="3.8" fill="#3bf2af" stroke="#111827" stroke-width="1"/>
<circle cx="946.34" cy="436.94" r="3.8" fill="#3bf2af" stroke="#111827" stroke-width="1"/>
<circle cx="962.70" cy="436.14" r="3.8" fill="#3bf2af" stroke="#111827" stroke-width="1"/>
<circle cx="979.07" cy="434.82" r="3.8" fill="#3bf2af" stroke="#111827" stroke-width="1"/>
<circle cx="995.43" cy="433.17" r="3.8" fill="#3bf2af" stroke="#111827" stroke-width="1"/>
<circle cx="1011.79" cy="432.12" r="3.8" fill="#3bf2af" stroke="#111827" stroke-width="1"/>
<circle cx="1028.15" cy="432.09" r="3.8" fill="#3bf2af" stroke="#111827" stroke-width="1"/>
<circle cx="1028.92" cy="431.61" r="3.8" fill="#3bf2af" stroke="#111827" stroke-width="1"/>
<circle cx="1029.70" cy="431.26" r="3.8" fill="#3bf2af" stroke="#111827" stroke-width="1"/>
<circle cx="1030.50" cy="431.14" r="3.8" fill="#3bf2af" stroke="#111827" stroke-width="1"/>
<circle cx="1031.28" cy="430.69" r="3.8" fill="#3bf2af" stroke="#111827" stroke-width="1"/>
<circle cx="1032.07" cy="430.04" r="3.8" fill="#3bf2af" stroke="#111827" stroke-width="1"/>
<circle cx="1032.85" cy="429.71" r="3.8" fill="#3bf2af" stroke="#111827" stroke-width="1"/>
<circle cx="1033.64" cy="429.30" r="3.8" fill="#3bf2af" stroke="#111827" stroke-width="1"/>
<circle cx="1034.43" cy="428.61" r="3.8" fill="#3bf2af" stroke="#111827" stroke-width="1"/>
<circle cx="1035.21" cy="428.04" r="3.8" fill="#3bf2af" stroke="#111827" stroke-width="1"/>
<circle cx="1036.00" cy="427.93" r="3.8" fill="#3bf2af" stroke="#111827" stroke-width="1"/>
<text x="1028.00" y="417.93" text-anchor="end" fill="#3bf2af" font-size="12" font-family="-apple-system,BlinkMacSystemFont,Segoe UI,Helvetica,Arial,sans-serif">185.53k</text>
<rect x="90.00" y="514.00" width="14" height="14" fill="url(#repo-0)" rx="3"/>
<text x="112.00" y="526.00" fill="#ffb50c" font-size="13" font-family="-apple-system,BlinkMacSystemFont,Segoe UI,Helvetica,Arial,sans-serif">tkpd/gripmock</text>
<rect x="280.00" y="514.00" width="14" height="14" fill="url(#repo-1)" rx="3"/>
<text x="302.00" y="526.00" fill="#3bf2af" font-size="13" font-family="-apple-system,BlinkMacSystemFont,Segoe UI,Helvetica,Arial,sans-serif">bavix/gripmock</text>
<text x="1036.00" y="526.00" text-anchor="end" fill="#9ca3af" font-size="12" font-family="-apple-system,BlinkMacSystemFont,Segoe UI,Helvetica,Arial,sans-serif">Source: https://github.com/bavix/artifact-stats/blob/master/stats/dockerhub.csv</text>
</svg>