<svg xmlns="http://www.w3.org/2000/svg" width="1100" height="560" viewBox="0 0 1100 560">
<defs>
<linearGradient id="bg" x1="0" y1="0" x2="1" y2="1"><stop offset="0%" stop-color="#0b1220"/><stop offset="100%" stop-color="#111827"/></linearGradient>
<linearGradient id="repo-0" x1="0" y1="0" x2="0" y2="1"><stop offset="0%" stop-color="#f59e0b"/><stop offset="100%" stop-color="#d97706"/></linearGradient>
<linearGradient id="repo-1" x1="0" y1="0" x2="0" y2="1"><stop offset="0%" stop-color="#34d399"/><stop offset="100%" stop-color="#059669"/></linearGradient>
</defs>
<rect x="0" y="0" width="1100" height="560" fill="url(#bg)" rx="16"/>
<text x="90" y="44" fill="#f9fafb" font-size="28" font-family="-apple-system,BlinkMacSystemFont,Segoe UI,Helvetica,Arial,sans-serif" font-weight="700">GripMock Docker Hub Downloads</text>
<text x="90" y="70" fill="#9ca3af" font-size="16" font-family="-apple-system,BlinkMacSystemFont,Segoe UI,Helvetica,Arial,sans-serif">Docker Hub pull count by snapshot date</text>
<line x1="90" y1="90.00" x2="1036" y2="90.00" stroke="#1f2937" stroke-width="1"/>
<text x="80" y="95.00" text-anchor="end" fill="#9ca3af" font-size="12" font-family="-apple-system,BlinkMacSystemFont,Segoe UI,Helvetica,Arial,sans-serif">1.84M</text>
<line x1="90" y1="153.00" x2="1036" y2="153.00" stroke="#1f2937" stroke-width="1"/>
<text x="80" y="158.00" text-anchor="end" fill="#9ca3af" font-size="12" font-family="-apple-system,BlinkMacSystemFont,Segoe UI,Helvetica,Arial,sans-serif">1.53M</text>
<line x1="90" y1="216.00" x2="1036" y2="216.00" stroke="#1f2937" stroke-width="1"/>
<text x="80" y="221.00" text-anchor="end" fill="#9ca3af" font-size="12" font-family="-apple-system,BlinkMacSystemFont,Segoe UI,Helvetica,Arial,sans-serif">1.23M</text>
<line x1="90" y1="279.00" x2="1036" y2="279.00" stroke="#1f2937" stroke-width="1"/>
<text x="80" y="284.00" text-anchor="end" fill="#9ca3af" font-size="12" font-family="-apple-system,BlinkMacSystemFont,Segoe UI,Helvetica,Arial,sans-serif">919.41k</text>
<line x1="90" y1="342.00" x2="1036" y2="342.00" stroke="#1f2937" stroke-width="1"/>
<text x="80" y="347.00" text-anchor="end" fill="#9ca3af" font-size="12" font-family="-apple-system,BlinkMacSystemFont,Segoe UI,Helvetica,Arial,sans-serif">612.94k</text>
<line x1="90" y1="405.00" x2="1036" y2="405.00" stroke="#1f2937" stroke-width="1"/>
<text x="80" y="410.00" text-anchor="end" fill="#9ca3af" font-size="12" font-family="-apple-system,BlinkMacSystemFont,Segoe UI,Helvetica,Arial,sans-serif">306.47k</text>
<line x1="90" y1="468.00" x2="1036" y2="468.00" stroke="#1f2937" stroke-width="1"/>
<text x="80" y="473.00" text-anchor="end" fill="#9ca3af" font-size="12" font-family="-apple-system,BlinkMacSystemFont,Segoe UI,Helvetica,Arial,sans-serif">0</text>
<line x1="90" y1="468" x2="1036" y2="468" stroke="#4b5563" stroke-width="1.4"/>
<line x1="90" y1="90" x2="90" y2="468" stroke="#4b5563" stroke-width="1.4"/>
<line x1="90.00" y1="468" x2="90.00" y2="474" stroke="#6b7280" stroke-width="1"/>
<text x="90.00" y="494" text-anchor="start" fill="#9ca3af" font-size="12" font-family="-apple-system,BlinkMacSystemFont,Segoe UI,Helvetica,Arial,sans-serif">2019-09-16</text>
<line x1="279.20" y1="468" x2="279.20" y2="474" stroke="#6b7280" stroke-width="1"/>
<text x="279.20" y="494" text-anchor="middle" fill="#9ca3af" font-size="12" font-family="-apple-system,BlinkMacSystemFont,Segoe UI,Helvetica,Arial,sans-serif">2021-01-17</text>
<line x1="468.40" y1="468" x2="468.40" y2="474" stroke="#6b7280" stroke-width="1"/>
<text x="468.40" y="494" text-anchor="middle" fill="#9ca3af" font-size="12" font-family="-apple-system,BlinkMacSystemFont,Segoe UI,Helvetica,Arial,sans-serif">2022-05-22</text>
<line x1="657.60" y1="468" x2="657.60" y2="474" stroke="#6b7280" stroke-width="1"/>
<text x="657.60" y="494" text-anchor="middle" fill="#9ca3af" font-size="12" font-family="-apple-system,BlinkMacSystemFont,Segoe UI,Helvetica,Arial,sans-serif">2023-09-24</text>
<line x1="846.80" y1="468" x2="846.80" y2="474" stroke="#6b7280" stroke-width="1"/>
<text x="846.80" y="494" text-anchor="middle" fill="#9ca3af" font-size="12" font-family="-apple-system,BlinkMacSystemFont,Segoe UI,Helvetica,Arial,sans-serif">2025-01-25</text>
<line x1="1036.00" y1="468" x2="1036.00" y2="474" stroke="#6b7280" stroke-width="1"/>
<text x="1036.00" y="494" text-anchor="end" fill="#9ca3af" font-size="12" font-family="-apple-system,BlinkMacSystemFont,Segoe UI,Helvetica,Arial,sans-serif">2026-05-30</text>
<polyline fill="none" stroke="url(#repo-0)" stroke-width="4" stroke-linecap="round" stroke-linejoin="round" points="90.00,468.00 98.09,462.65 106.19,461.50 114.28,461.45 122.38,461.39 130.47,461.30 138.57,461.20 146.66,461.08 154.76,460.94 162.85,460.78 170.95,460.61 179.04,460.43 187.14,460.22 195.23,459.33 203.33,458.70 211.42,458.45 219.52,458.19 227.61,457.91 235.71,456.91 243.80,453.58 251.90,448.90 259.99,443.56 268.09,438.47 276.18,434.47 284.28,431.98 292.37,430.89 300.46,430.50 308.56,430.10 316.65,428.94 324.75,426.36 332.84,422.53 340.94,418.00 349.03,413.60 357.13,410.15 365.22,408.13 373.32,407.48 381.41,407.00 389.51,406.51 397.60,406.01 405.70,403.98 413.79,399.57 421.89,393.85 429.98,387.66 438.08,381.93 446.17,377.34 454.27,374.10 462.36,371.87 470.46,369.87 478.55,367.24 486.65,363.29 494.74,357.84 502.84,351.23 510.93,344.29 519.02,338.00 527.12,333.17 535.21,330.16 543.31,328.72 551.40,328.11 559.50,327.34 567.59,325.55 575.69,322.27 583.78,317.62 591.88,312.21 599.97,306.93 608.07,302.63 616.16,299.76 624.26,298.22 632.35,297.37 640.45,296.26 648.54,293.97 656.64,289.95 664.73,284.20 672.83,277.28 680.92,270.15 689.02,263.81 697.11,258.96 705.21,255.79 713.30,253.86 721.39,252.37 729.49,250.37 737.58,247.19 745.68,242.66 753.77,237.18 761.87,231.59 769.96,226.87 778.06,223.77 786.15,222.55 794.25,222.14 802.34,221.74 810.44,221.35 818.53,220.97 826.63,220.60 834.72,217.87 842.82,213.32 850.91,208.95 859.01,205.60 867.10,203.73 875.20,203.22 883.29,202.94 891.39,202.68 899.48,202.20 907.58,199.44 915.67,195.18 923.76,190.07 931.86,185.12 939.95,184.17 948.05,184.02 956.14,183.88 964.24,183.76 972.33,183.66 980.43,183.57 988.52,183.51 996.62,183.46 1004.71,183.43 1012.81,183.42 1013.20,182.48 1013.57,181.44 1013.95,180.51 1014.33,179.91 1014.73,179.60 1015.12,179.18 1015.50,170.40 1015.89,153.72 1016.27,149.82 1016.66,147.83 1017.04,146.94 1017.44,146.87 1017.83,146.74 1018.21,145.49 1018.59,144.03 1018.98,142.85 1019.37,141.91 1019.75,141.10 1020.14,141.03 1020.53,140.89 1020.91,140.01 1021.30,139.40 1021.69,138.77 1022.08,138.19 1022.46,137.76 1022.85,137.70 1023.24,137.62 1023.63,137.19 1024.01,136.61 1024.40,135.98 1024.79,135.48 1025.17,135.15 1025.56,135.06 1025.95,135.00 1026.33,134.62 1026.72,134.09 1027.11,133.27 1027.48,132.73 1027.88,132.33 1028.27,132.27 1028.66,132.17 1029.04,131.82 1029.43,131.40 1029.82,130.99 1030.21,130.54 1030.58,130.14 1030.98,130.04 1031.37,129.92 1031.76,129.36 1032.14,128.81 1032.53,128.17 1032.92,127.71 1033.29,127.28 1033.68,127.17 1034.08,127.01 1034.46,126.75 1034.85,126.20 1035.23,125.59 1035.62,124.94 1036.00,124.36"/>
<circle cx="90.00" cy="468.00" r="3.8" fill="#ffb50c" stroke="#111827" stroke-width="1"/>
<circle cx="146.66" cy="461.08" r="3.8" fill="#ffb50c" stroke="#111827" stroke-width="1"/>
<circle cx="203.33" cy="458.70" r="3.8" fill="#ffb50c" stroke="#111827" stroke-width="1"/>
<circle cx="259.99" cy="443.56" r="3.8" fill="#ffb50c" stroke="#111827" stroke-width="1"/>
<circle cx="316.65" cy="428.94" r="3.8" fill="#ffb50c" stroke="#111827" stroke-width="1"/>
<circle cx="373.32" cy="407.48" r="3.8" fill="#ffb50c" stroke="#111827" stroke-width="1"/>
<circle cx="429.98" cy="387.66" r="3.8" fill="#ffb50c" stroke="#111827" stroke-width="1"/>
<circle cx="486.65" cy="363.29" r="3.8" fill="#ffb50c" stroke="#111827" stroke-width="1"/>
<circle cx="543.31" cy="328.72" r="3.8" fill="#ffb50c" stroke="#111827" stroke-width="1"/>
<circle cx="599.97" cy="306.93" r="3.8" fill="#ffb50c" stroke="#111827" stroke-width="1"/>
<circle cx="656.64" cy="289.95" r="3.8" fill="#ffb50c" stroke="#111827" stroke-width="1"/>
<circle cx="713.30" cy="253.86" r="3.8" fill="#ffb50c" stroke="#111827" stroke-width="1"/>
<circle cx="769.96" cy="226.87" r="3.8" fill="#ffb50c" stroke="#111827" stroke-width="1"/>
<circle cx="826.63" cy="220.60" r="3.8" fill="#ffb50c" stroke="#111827" stroke-width="1"/>
<circle cx="883.29" cy="202.94" r="3.8" fill="#ffb50c" stroke="#111827" stroke-width="1"/>
<circle cx="939.95" cy="184.17" r="3.8" fill="#ffb50c" stroke="#111827" stroke-width="1"/>
<circle cx="996.62" cy="183.46" r="3.8" fill="#ffb50c" stroke="#111827" stroke-width="1"/>
<circle cx="1014.73" cy="179.60" r="3.8" fill="#ffb50c" stroke="#111827" stroke-width="1"/>
<circle cx="1017.44" cy="146.87" r="3.8" fill="#ffb50c" stroke="#111827" stroke-width="1"/>
<circle cx="1020.14" cy="141.03" r="3.8" fill="#ffb50c" stroke="#111827" stroke-width="1"/>
<circle cx="1022.85" cy="137.70" r="3.8" fill="#ffb50c" stroke="#111827" stroke-width="1"/>
<circle cx="1025.56" cy="135.06" r="3.8" fill="#ffb50c" stroke="#111827" stroke-width="1"/>
<circle cx="1028.27" cy="132.27" r="3.8" fill="#ffb50c" stroke="#111827" stroke-width="1"/>
<circle cx="1030.98" cy="130.04" r="3.8" fill="#ffb50c" stroke="#111827" stroke-width="1"/>
<circle cx="1033.68" cy="127.17" r="3.8" fill="#ffb50c" stroke="#111827" stroke-width="1"/>
<circle cx="1036.00" cy="124.36" r="3.8" fill="#ffb50c" stroke="#111827" stroke-width="1"/>
<text x="1028.00" y="114.36" text-anchor="end" fill="#ffb50c" font-size="12" font-family="-apple-system,BlinkMacSystemFont,Segoe UI,Helvetica,Arial,sans-serif">1.67M</text>
<polyline fill="none" stroke="url(#repo-1)" stroke-width="4" stroke-linecap="round" stroke-linejoin="round" points="642.66,468.00 650.71,467.32 658.75,467.08 666.80,466.93 674.85,466.88 682.89,466.82 690.94,466.75 698.99,466.64 707.03,466.23 715.08,465.58 723.13,464.73 731.17,463.76 739.22,462.79 747.27,461.88 755.31,461.09 763.36,460.37 771.41,459.64 779.45,458.80 787.50,457.75 795.55,456.49 803.59,455.04 811.64,453.49 819.69,451.99 827.73,450.63 835.78,449.47 843.83,448.51 851.87,447.67 859.92,446.83 867.97,445.91 876.01,444.84 884.06,443.64 892.11,442.39 900.15,441.19 908.20,440.17 916.25,439.38 924.29,438.83 932.34,438.43 940.39,438.09 948.43,437.68 956.48,437.12 964.53,436.41 972.57,435.62 980.62,434.85 988.67,434.22 996.71,433.85 1004.76,433.83 1012.81,433.82 1013.20,433.58 1013.57,433.36 1013.95,433.15 1014.33,433.03 1014.73,432.99 1015.12,432.91 1015.50,432.74 1015.89,432.48 1016.27,432.17 1016.66,431.87 1017.04,431.60 1017.44,431.55 1017.83,431.42 1018.21,431.16 1018.59,430.85 1018.98,430.50 1019.37,430.27 1019.75,429.97 1020.14,429.93 1020.53,429.86 1020.91,429.51 1021.30,429.19 1021.69,428.84 1022.08,428.54 1022.46,428.28 1022.85,428.12 1023.24,428.01 1023.63,427.63 1024.01,427.29 1024.40,426.99 1024.79,426.63 1025.17,426.45 1025.56,426.39 1025.95,426.25 1026.33,425.96 1026.72,425.76 1027.11,425.57 1027.48,425.15 1027.88,424.93 1028.27,424.86 1028.66,424.77 1029.04,424.46 1029.43,424.17 1029.82,423.91 1030.21,423.62 1030.58,423.42 1030.98,423.36 1031.37,423.24 1031.76,422.99 1032.14,422.70 1032.53,422.44 1032.92,422.20 1033.29,421.95 1033.68,421.87 1034.08,421.74 1034.46,421.52 1034.85,421.22 1035.23,420.84 1035.62,420.51 1036.00,420.29"/>
<circle cx="642.66" cy="468.00" r="3.8" fill="#3bf2af" stroke="#111827" stroke-width="1"/>
<circle cx="674.85" cy="466.88" r="3.8" fill="#3bf2af" stroke="#111827" stroke-width="1"/>
<circle cx="707.03" cy="466.23" r="3.8" fill="#3bf2af" stroke="#111827" stroke-width="1"/>
<circle cx="739.22" cy="462.79" r="3.8" fill="#3bf2af" stroke="#111827" stroke-width="1"/>
<circle cx="771.41" cy="459.64" r="3.8" fill="#3bf2af" stroke="#111827" stroke-width="1"/>
<circle cx="803.59" cy="455.04" r="3.8" fill="#3bf2af" stroke="#111827" stroke-width="1"/>
<circle cx="835.78" cy="449.47" r="3.8" fill="#3bf2af" stroke="#111827" stroke-width="1"/>
<circle cx="867.97" cy="445.91" r="3.8" fill="#3bf2af" stroke="#111827" stroke-width="1"/>
<circle cx="900.15" cy="441.19" r="3.8" fill="#3bf2af" stroke="#111827" stroke-width="1"/>
<circle cx="932.34" cy="438.43" r="3.8" fill="#3bf2af" stroke="#111827" stroke-width="1"/>
<circle cx="964.53" cy="436.41" r="3.8" fill="#3bf2af" stroke="#111827" stroke-width="1"/>
<circle cx="996.71" cy="433.85" r="3.8" fill="#3bf2af" stroke="#111827" stroke-width="1"/>
<circle cx="1013.57" cy="433.36" r="3.8" fill="#3bf2af" stroke="#111827" stroke-width="1"/>
<circle cx="1015.12" cy="432.91" r="3.8" fill="#3bf2af" stroke="#111827" stroke-width="1"/>
<circle cx="1016.66" cy="431.87" r="3.8" fill="#3bf2af" stroke="#111827" stroke-width="1"/>
<circle cx="1018.21" cy="431.16" r="3.8" fill="#3bf2af" stroke="#111827" stroke-width="1"/>
<circle cx="1019.75" cy="429.97" r="3.8" fill="#3bf2af" stroke="#111827" stroke-width="1"/>
<circle cx="1021.30" cy="429.19" r="3.8" fill="#3bf2af" stroke="#111827" stroke-width="1"/>
<circle cx="1022.85" cy="428.12" r="3.8" fill="#3bf2af" stroke="#111827" stroke-width="1"/>
<circle cx="1024.40" cy="426.99" r="3.8" fill="#3bf2af" stroke="#111827" stroke-width="1"/>
<circle cx="1025.95" cy="426.25" r="3.8" fill="#3bf2af" stroke="#111827" stroke-width="1"/>
<circle cx="1027.48" cy="425.15" r="3.8" fill="#3bf2af" stroke="#111827" stroke-width="1"/>
<circle cx="1029.04" cy="424.46" r="3.8" fill="#3bf2af" stroke="#111827" stroke-width="1"/>
<circle cx="1030.58" cy="423.42" r="3.8" fill="#3bf2af" stroke="#111827" stroke-width="1"/>
<circle cx="1032.14" cy="422.70" r="3.8" fill="#3bf2af" stroke="#111827" stroke-width="1"/>
<circle cx="1033.68" cy="421.87" r="3.8" fill="#3bf2af" stroke="#111827" stroke-width="1"/>
<circle cx="1035.23" cy="420.84" r="3.8" fill="#3bf2af" stroke="#111827" stroke-width="1"/>
<circle cx="1036.00" cy="420.29" r="3.8" fill="#3bf2af" stroke="#111827" stroke-width="1"/>
<text x="1028.00" y="410.29" text-anchor="end" fill="#3bf2af" font-size="12" font-family="-apple-system,BlinkMacSystemFont,Segoe UI,Helvetica,Arial,sans-serif">232.10k</text>
<rect x="90.00" y="514.00" width="14" height="14" fill="url(#repo-0)" rx="3"/>
<text x="112.00" y="526.00" fill="#ffb50c" font-size="13" font-family="-apple-system,BlinkMacSystemFont,Segoe UI,Helvetica,Arial,sans-serif">tkpd/gripmock</text>
<rect x="280.00" y="514.00" width="14" height="14" fill="url(#repo-1)" rx="3"/>
<text x="302.00" y="526.00" fill="#3bf2af" font-size="13" font-family="-apple-system,BlinkMacSystemFont,Segoe UI,Helvetica,Arial,sans-serif">bavix/gripmock</text>
<text x="1036.00" y="526.00" text-anchor="end" fill="#9ca3af" font-size="12" font-family="-apple-system,BlinkMacSystemFont,Segoe UI,Helvetica,Arial,sans-serif">Source: https://github.com/bavix/artifact-stats/blob/master/stats/dockerhub.csv</text>
</svg>