<svg xmlns="http://www.w3.org/2000/svg" width="1100" height="560" viewBox="0 0 1100 560">
<defs>
<linearGradient id="bg" x1="0" y1="0" x2="1" y2="1"><stop offset="0%" stop-color="#0b1220"/><stop offset="100%" stop-color="#111827"/></linearGradient>
<linearGradient id="repo-0" x1="0" y1="0" x2="0" y2="1"><stop offset="0%" stop-color="#f59e0b"/><stop offset="100%" stop-color="#d97706"/></linearGradient>
<linearGradient id="repo-1" x1="0" y1="0" x2="0" y2="1"><stop offset="0%" stop-color="#34d399"/><stop offset="100%" stop-color="#059669"/></linearGradient>
</defs>
<rect x="0" y="0" width="1100" height="560" fill="url(#bg)" rx="16"/>
<text x="90" y="44" fill="#f9fafb" font-size="28" font-family="-apple-system,BlinkMacSystemFont,Segoe UI,Helvetica,Arial,sans-serif" font-weight="700">GripMock Docker Hub Downloads</text>
<text x="90" y="70" fill="#9ca3af" font-size="16" font-family="-apple-system,BlinkMacSystemFont,Segoe UI,Helvetica,Arial,sans-serif">Docker Hub pull count by snapshot date</text>
<line x1="90" y1="90.00" x2="1036" y2="90.00" stroke="#1f2937" stroke-width="1"/>
<text x="80" y="95.00" text-anchor="end" fill="#9ca3af" font-size="12" font-family="-apple-system,BlinkMacSystemFont,Segoe UI,Helvetica,Arial,sans-serif">1.77M</text>
<line x1="90" y1="153.00" x2="1036" y2="153.00" stroke="#1f2937" stroke-width="1"/>
<text x="80" y="158.00" text-anchor="end" fill="#9ca3af" font-size="12" font-family="-apple-system,BlinkMacSystemFont,Segoe UI,Helvetica,Arial,sans-serif">1.47M</text>
<line x1="90" y1="216.00" x2="1036" y2="216.00" stroke="#1f2937" stroke-width="1"/>
<text x="80" y="221.00" text-anchor="end" fill="#9ca3af" font-size="12" font-family="-apple-system,BlinkMacSystemFont,Segoe UI,Helvetica,Arial,sans-serif">1.18M</text>
<line x1="90" y1="279.00" x2="1036" y2="279.00" stroke="#1f2937" stroke-width="1"/>
<text x="80" y="284.00" text-anchor="end" fill="#9ca3af" font-size="12" font-family="-apple-system,BlinkMacSystemFont,Segoe UI,Helvetica,Arial,sans-serif">883.74k</text>
<line x1="90" y1="342.00" x2="1036" y2="342.00" stroke="#1f2937" stroke-width="1"/>
<text x="80" y="347.00" text-anchor="end" fill="#9ca3af" font-size="12" font-family="-apple-system,BlinkMacSystemFont,Segoe UI,Helvetica,Arial,sans-serif">589.16k</text>
<line x1="90" y1="405.00" x2="1036" y2="405.00" stroke="#1f2937" stroke-width="1"/>
<text x="80" y="410.00" text-anchor="end" fill="#9ca3af" font-size="12" font-family="-apple-system,BlinkMacSystemFont,Segoe UI,Helvetica,Arial,sans-serif">294.58k</text>
<line x1="90" y1="468.00" x2="1036" y2="468.00" stroke="#1f2937" stroke-width="1"/>
<text x="80" y="473.00" text-anchor="end" fill="#9ca3af" font-size="12" font-family="-apple-system,BlinkMacSystemFont,Segoe UI,Helvetica,Arial,sans-serif">0</text>
<line x1="90" y1="468" x2="1036" y2="468" stroke="#4b5563" stroke-width="1.4"/>
<line x1="90" y1="90" x2="90" y2="468" stroke="#4b5563" stroke-width="1.4"/>
<line x1="90.00" y1="468" x2="90.00" y2="474" stroke="#6b7280" stroke-width="1"/>
<text x="90.00" y="494" text-anchor="start" fill="#9ca3af" font-size="12" font-family="-apple-system,BlinkMacSystemFont,Segoe UI,Helvetica,Arial,sans-serif">2019-09-16</text>
<line x1="279.20" y1="468" x2="279.20" y2="474" stroke="#6b7280" stroke-width="1"/>
<text x="279.20" y="494" text-anchor="middle" fill="#9ca3af" font-size="12" font-family="-apple-system,BlinkMacSystemFont,Segoe UI,Helvetica,Arial,sans-serif">2021-01-11</text>
<line x1="468.40" y1="468" x2="468.40" y2="474" stroke="#6b7280" stroke-width="1"/>
<text x="468.40" y="494" text-anchor="middle" fill="#9ca3af" font-size="12" font-family="-apple-system,BlinkMacSystemFont,Segoe UI,Helvetica,Arial,sans-serif">2022-05-08</text>
<line x1="657.60" y1="468" x2="657.60" y2="474" stroke="#6b7280" stroke-width="1"/>
<text x="657.60" y="494" text-anchor="middle" fill="#9ca3af" font-size="12" font-family="-apple-system,BlinkMacSystemFont,Segoe UI,Helvetica,Arial,sans-serif">2023-09-03</text>
<line x1="846.80" y1="468" x2="846.80" y2="474" stroke="#6b7280" stroke-width="1"/>
<text x="846.80" y="494" text-anchor="middle" fill="#9ca3af" font-size="12" font-family="-apple-system,BlinkMacSystemFont,Segoe UI,Helvetica,Arial,sans-serif">2024-12-29</text>
<line x1="1036.00" y1="468" x2="1036.00" y2="474" stroke="#6b7280" stroke-width="1"/>
<text x="1036.00" y="494" text-anchor="end" fill="#9ca3af" font-size="12" font-family="-apple-system,BlinkMacSystemFont,Segoe UI,Helvetica,Arial,sans-serif">2026-04-26</text>
<polyline fill="none" stroke="url(#repo-0)" stroke-width="4" stroke-linecap="round" stroke-linejoin="round" points="90.00,468.00 98.21,462.43 106.42,461.24 114.63,461.19 122.84,461.12 131.04,461.03 139.25,460.92 147.46,460.80 155.67,460.65 163.88,460.49 172.09,460.31 180.30,460.12 188.51,459.91 196.72,458.98 204.92,458.33 213.13,458.07 221.34,457.79 229.55,457.50 237.76,456.46 245.97,453.00 254.18,448.13 262.39,442.57 270.60,437.28 278.81,433.11 287.01,430.53 295.22,429.39 303.43,428.99 311.64,428.57 319.85,427.36 328.06,424.68 336.27,420.70 344.48,415.98 352.69,411.40 360.89,407.82 369.10,405.71 377.31,405.04 385.52,404.54 393.73,404.03 401.94,403.51 410.15,401.39 418.36,396.81 426.57,390.86 434.77,384.42 442.98,378.45 451.19,373.68 459.40,370.31 467.61,367.99 475.82,365.91 484.03,363.17 492.24,359.07 500.45,353.39 508.65,346.52 516.86,339.30 525.07,332.75 533.28,327.73 541.49,324.59 549.70,323.10 557.91,322.46 566.12,321.66 574.33,319.80 582.54,316.39 590.74,311.55 598.95,305.92 607.16,300.43 615.37,295.96 623.58,292.97 631.79,291.37 640.00,290.48 648.21,289.33 656.42,286.95 664.62,282.77 672.83,276.78 681.04,269.58 689.25,262.16 697.46,255.56 705.67,250.53 713.88,247.22 722.09,245.22 730.30,243.67 738.50,241.59 746.71,238.28 754.92,233.57 763.13,227.86 771.34,222.05 779.55,217.13 787.76,213.91 795.97,212.64 804.18,212.22 812.38,211.80 820.59,211.39 828.80,211.00 837.01,210.62 845.22,207.77 853.43,203.04 861.64,198.49 869.85,195.01 878.06,193.06 886.27,192.53 894.47,192.24 902.68,191.97 910.89,191.47 919.10,188.60 927.31,184.16 935.52,178.85 943.73,173.70 951.94,172.72 960.15,172.56 968.35,172.41 976.56,172.29 984.77,172.18 992.98,172.09 1001.19,172.02 1009.40,171.97 1017.61,171.94 1025.82,171.93 1026.22,170.96 1026.59,169.88 1026.98,168.90 1027.36,168.28 1027.76,167.96 1028.16,167.52 1028.55,158.39 1028.94,141.03 1029.33,136.98 1029.73,134.90 1030.11,133.98 1030.51,133.91 1030.91,133.78 1031.29,132.47 1031.69,130.95 1032.08,129.73 1032.47,128.75 1032.86,127.90 1033.25,127.83 1033.65,127.69 1034.04,126.77 1034.43,126.13 1034.82,125.48 1035.22,124.88 1035.60,124.44 1036.00,124.36"/>
<circle cx="90.00" cy="468.00" r="3.8" fill="#ffb50c" stroke="#111827" stroke-width="1"/>
<circle cx="131.04" cy="461.03" r="3.8" fill="#ffb50c" stroke="#111827" stroke-width="1"/>
<circle cx="172.09" cy="460.31" r="3.8" fill="#ffb50c" stroke="#111827" stroke-width="1"/>
<circle cx="213.13" cy="458.07" r="3.8" fill="#ffb50c" stroke="#111827" stroke-width="1"/>
<circle cx="254.18" cy="448.13" r="3.8" fill="#ffb50c" stroke="#111827" stroke-width="1"/>
<circle cx="295.22" cy="429.39" r="3.8" fill="#ffb50c" stroke="#111827" stroke-width="1"/>
<circle cx="336.27" cy="420.70" r="3.8" fill="#ffb50c" stroke="#111827" stroke-width="1"/>
<circle cx="377.31" cy="405.04" r="3.8" fill="#ffb50c" stroke="#111827" stroke-width="1"/>
<circle cx="418.36" cy="396.81" r="3.8" fill="#ffb50c" stroke="#111827" stroke-width="1"/>
<circle cx="459.40" cy="370.31" r="3.8" fill="#ffb50c" stroke="#111827" stroke-width="1"/>
<circle cx="500.45" cy="353.39" r="3.8" fill="#ffb50c" stroke="#111827" stroke-width="1"/>
<circle cx="541.49" cy="324.59" r="3.8" fill="#ffb50c" stroke="#111827" stroke-width="1"/>
<circle cx="582.54" cy="316.39" r="3.8" fill="#ffb50c" stroke="#111827" stroke-width="1"/>
<circle cx="623.58" cy="292.97" r="3.8" fill="#ffb50c" stroke="#111827" stroke-width="1"/>
<circle cx="664.62" cy="282.77" r="3.8" fill="#ffb50c" stroke="#111827" stroke-width="1"/>
<circle cx="705.67" cy="250.53" r="3.8" fill="#ffb50c" stroke="#111827" stroke-width="1"/>
<circle cx="746.71" cy="238.28" r="3.8" fill="#ffb50c" stroke="#111827" stroke-width="1"/>
<circle cx="787.76" cy="213.91" r="3.8" fill="#ffb50c" stroke="#111827" stroke-width="1"/>
<circle cx="828.80" cy="211.00" r="3.8" fill="#ffb50c" stroke="#111827" stroke-width="1"/>
<circle cx="869.85" cy="195.01" r="3.8" fill="#ffb50c" stroke="#111827" stroke-width="1"/>
<circle cx="910.89" cy="191.47" r="3.8" fill="#ffb50c" stroke="#111827" stroke-width="1"/>
<circle cx="951.94" cy="172.72" r="3.8" fill="#ffb50c" stroke="#111827" stroke-width="1"/>
<circle cx="992.98" cy="172.09" r="3.8" fill="#ffb50c" stroke="#111827" stroke-width="1"/>
<circle cx="1026.22" cy="170.96" r="3.8" fill="#ffb50c" stroke="#111827" stroke-width="1"/>
<circle cx="1028.16" cy="167.52" r="3.8" fill="#ffb50c" stroke="#111827" stroke-width="1"/>
<circle cx="1030.11" cy="133.98" r="3.8" fill="#ffb50c" stroke="#111827" stroke-width="1"/>
<circle cx="1032.08" cy="129.73" r="3.8" fill="#ffb50c" stroke="#111827" stroke-width="1"/>
<circle cx="1034.04" cy="126.77" r="3.8" fill="#ffb50c" stroke="#111827" stroke-width="1"/>
<circle cx="1036.00" cy="124.36" r="3.8" fill="#ffb50c" stroke="#111827" stroke-width="1"/>
<text x="1028.00" y="114.36" text-anchor="end" fill="#ffb50c" font-size="12" font-family="-apple-system,BlinkMacSystemFont,Segoe UI,Helvetica,Arial,sans-serif">1.61M</text>
<polyline fill="none" stroke="url(#repo-1)" stroke-width="4" stroke-linecap="round" stroke-linejoin="round" points="650.45,468.00 658.61,467.30 666.77,467.04 674.93,466.89 683.09,466.84 691.25,466.78 699.41,466.70 707.57,466.59 715.73,466.16 723.89,465.49 732.05,464.60 740.21,463.59 748.37,462.57 756.53,461.64 764.69,460.81 772.85,460.06 781.01,459.30 789.17,458.42 797.33,457.34 805.49,456.02 813.65,454.51 821.81,452.91 829.97,451.34 838.13,449.93 846.29,448.72 854.45,447.72 862.61,446.84 870.77,445.98 878.93,445.02 887.09,443.91 895.25,442.66 903.41,441.35 911.57,440.11 919.73,439.05 927.89,438.23 936.05,437.65 944.22,437.24 952.38,436.88 960.54,436.45 968.70,435.87 976.86,435.14 985.02,434.31 993.18,433.51 1001.34,432.86 1009.50,432.47 1017.66,432.45 1025.82,432.44 1026.22,432.19 1026.59,431.96 1026.98,431.74 1027.36,431.62 1027.76,431.58 1028.16,431.50 1028.55,431.32 1028.94,431.05 1029.33,430.73 1029.73,430.41 1030.11,430.13 1030.51,430.08 1030.91,429.94 1031.29,429.67 1031.69,429.35 1032.08,428.99 1032.47,428.75 1032.86,428.43 1033.25,428.39 1033.65,428.32 1034.04,427.96 1034.43,427.63 1034.82,427.26 1035.22,426.94 1035.60,426.68 1036.00,426.51"/>
<circle cx="650.45" cy="468.00" r="3.8" fill="#3bf2af" stroke="#111827" stroke-width="1"/>
<circle cx="674.93" cy="466.89" r="3.8" fill="#3bf2af" stroke="#111827" stroke-width="1"/>
<circle cx="699.41" cy="466.70" r="3.8" fill="#3bf2af" stroke="#111827" stroke-width="1"/>
<circle cx="723.89" cy="465.49" r="3.8" fill="#3bf2af" stroke="#111827" stroke-width="1"/>
<circle cx="748.37" cy="462.57" r="3.8" fill="#3bf2af" stroke="#111827" stroke-width="1"/>
<circle cx="772.85" cy="460.06" r="3.8" fill="#3bf2af" stroke="#111827" stroke-width="1"/>
<circle cx="797.33" cy="457.34" r="3.8" fill="#3bf2af" stroke="#111827" stroke-width="1"/>
<circle cx="821.81" cy="452.91" r="3.8" fill="#3bf2af" stroke="#111827" stroke-width="1"/>
<circle cx="846.29" cy="448.72" r="3.8" fill="#3bf2af" stroke="#111827" stroke-width="1"/>
<circle cx="870.77" cy="445.98" r="3.8" fill="#3bf2af" stroke="#111827" stroke-width="1"/>
<circle cx="895.25" cy="442.66" r="3.8" fill="#3bf2af" stroke="#111827" stroke-width="1"/>
<circle cx="919.73" cy="439.05" r="3.8" fill="#3bf2af" stroke="#111827" stroke-width="1"/>
<circle cx="944.22" cy="437.24" r="3.8" fill="#3bf2af" stroke="#111827" stroke-width="1"/>
<circle cx="968.70" cy="435.87" r="3.8" fill="#3bf2af" stroke="#111827" stroke-width="1"/>
<circle cx="993.18" cy="433.51" r="3.8" fill="#3bf2af" stroke="#111827" stroke-width="1"/>
<circle cx="1017.66" cy="432.45" r="3.8" fill="#3bf2af" stroke="#111827" stroke-width="1"/>
<circle cx="1026.59" cy="431.96" r="3.8" fill="#3bf2af" stroke="#111827" stroke-width="1"/>
<circle cx="1027.76" cy="431.58" r="3.8" fill="#3bf2af" stroke="#111827" stroke-width="1"/>
<circle cx="1028.94" cy="431.05" r="3.8" fill="#3bf2af" stroke="#111827" stroke-width="1"/>
<circle cx="1030.11" cy="430.13" r="3.8" fill="#3bf2af" stroke="#111827" stroke-width="1"/>
<circle cx="1031.29" cy="429.67" r="3.8" fill="#3bf2af" stroke="#111827" stroke-width="1"/>
<circle cx="1032.47" cy="428.75" r="3.8" fill="#3bf2af" stroke="#111827" stroke-width="1"/>
<circle cx="1033.65" cy="428.32" r="3.8" fill="#3bf2af" stroke="#111827" stroke-width="1"/>
<circle cx="1034.82" cy="427.26" r="3.8" fill="#3bf2af" stroke="#111827" stroke-width="1"/>
<circle cx="1036.00" cy="426.51" r="3.8" fill="#3bf2af" stroke="#111827" stroke-width="1"/>
<text x="1028.00" y="416.51" text-anchor="end" fill="#3bf2af" font-size="12" font-family="-apple-system,BlinkMacSystemFont,Segoe UI,Helvetica,Arial,sans-serif">193.99k</text>
<rect x="90.00" y="514.00" width="14" height="14" fill="url(#repo-0)" rx="3"/>
<text x="112.00" y="526.00" fill="#ffb50c" font-size="13" font-family="-apple-system,BlinkMacSystemFont,Segoe UI,Helvetica,Arial,sans-serif">tkpd/gripmock</text>
<rect x="280.00" y="514.00" width="14" height="14" fill="url(#repo-1)" rx="3"/>
<text x="302.00" y="526.00" fill="#3bf2af" font-size="13" font-family="-apple-system,BlinkMacSystemFont,Segoe UI,Helvetica,Arial,sans-serif">bavix/gripmock</text>
<text x="1036.00" y="526.00" text-anchor="end" fill="#9ca3af" font-size="12" font-family="-apple-system,BlinkMacSystemFont,Segoe UI,Helvetica,Arial,sans-serif">Source: https://github.com/bavix/artifact-stats/blob/master/stats/dockerhub.csv</text>
</svg>