<svg xmlns="http://www.w3.org/2000/svg" width="1100" height="560" viewBox="0 0 1100 560">
<defs>
<linearGradient id="bg" x1="0" y1="0" x2="1" y2="1"><stop offset="0%" stop-color="#0b1220"/><stop offset="100%" stop-color="#111827"/></linearGradient>
<linearGradient id="repo-0" x1="0" y1="0" x2="0" y2="1"><stop offset="0%" stop-color="#f59e0b"/><stop offset="100%" stop-color="#d97706"/></linearGradient>
<linearGradient id="repo-1" x1="0" y1="0" x2="0" y2="1"><stop offset="0%" stop-color="#34d399"/><stop offset="100%" stop-color="#059669"/></linearGradient>
</defs>
<rect x="0" y="0" width="1100" height="560" fill="url(#bg)" rx="16"/>
<text x="90" y="44" fill="#f9fafb" font-size="28" font-family="-apple-system,BlinkMacSystemFont,Segoe UI,Helvetica,Arial,sans-serif" font-weight="700">GripMock Docker Hub Downloads</text>
<text x="90" y="70" fill="#9ca3af" font-size="16" font-family="-apple-system,BlinkMacSystemFont,Segoe UI,Helvetica,Arial,sans-serif">Docker Hub pull count by snapshot date</text>
<line x1="90" y1="90.00" x2="1036" y2="90.00" stroke="#1f2937" stroke-width="1"/>
<text x="80" y="95.00" text-anchor="end" fill="#9ca3af" font-size="12" font-family="-apple-system,BlinkMacSystemFont,Segoe UI,Helvetica,Arial,sans-serif">1.76M</text>
<line x1="90" y1="153.00" x2="1036" y2="153.00" stroke="#1f2937" stroke-width="1"/>
<text x="80" y="158.00" text-anchor="end" fill="#9ca3af" font-size="12" font-family="-apple-system,BlinkMacSystemFont,Segoe UI,Helvetica,Arial,sans-serif">1.46M</text>
<line x1="90" y1="216.00" x2="1036" y2="216.00" stroke="#1f2937" stroke-width="1"/>
<text x="80" y="221.00" text-anchor="end" fill="#9ca3af" font-size="12" font-family="-apple-system,BlinkMacSystemFont,Segoe UI,Helvetica,Arial,sans-serif">1.17M</text>
<line x1="90" y1="279.00" x2="1036" y2="279.00" stroke="#1f2937" stroke-width="1"/>
<text x="80" y="284.00" text-anchor="end" fill="#9ca3af" font-size="12" font-family="-apple-system,BlinkMacSystemFont,Segoe UI,Helvetica,Arial,sans-serif">877.54k</text>
<line x1="90" y1="342.00" x2="1036" y2="342.00" stroke="#1f2937" stroke-width="1"/>
<text x="80" y="347.00" text-anchor="end" fill="#9ca3af" font-size="12" font-family="-apple-system,BlinkMacSystemFont,Segoe UI,Helvetica,Arial,sans-serif">585.03k</text>
<line x1="90" y1="405.00" x2="1036" y2="405.00" stroke="#1f2937" stroke-width="1"/>
<text x="80" y="410.00" text-anchor="end" fill="#9ca3af" font-size="12" font-family="-apple-system,BlinkMacSystemFont,Segoe UI,Helvetica,Arial,sans-serif">292.51k</text>
<line x1="90" y1="468.00" x2="1036" y2="468.00" stroke="#1f2937" stroke-width="1"/>
<text x="80" y="473.00" text-anchor="end" fill="#9ca3af" font-size="12" font-family="-apple-system,BlinkMacSystemFont,Segoe UI,Helvetica,Arial,sans-serif">0</text>
<line x1="90" y1="468" x2="1036" y2="468" stroke="#4b5563" stroke-width="1.4"/>
<line x1="90" y1="90" x2="90" y2="468" stroke="#4b5563" stroke-width="1.4"/>
<line x1="90.00" y1="468" x2="90.00" y2="474" stroke="#6b7280" stroke-width="1"/>
<text x="90.00" y="494" text-anchor="start" fill="#9ca3af" font-size="12" font-family="-apple-system,BlinkMacSystemFont,Segoe UI,Helvetica,Arial,sans-serif">2019-09-16</text>
<line x1="279.20" y1="468" x2="279.20" y2="474" stroke="#6b7280" stroke-width="1"/>
<text x="279.20" y="494" text-anchor="middle" fill="#9ca3af" font-size="12" font-family="-apple-system,BlinkMacSystemFont,Segoe UI,Helvetica,Arial,sans-serif">2021-01-10</text>
<line x1="468.40" y1="468" x2="468.40" y2="474" stroke="#6b7280" stroke-width="1"/>
<text x="468.40" y="494" text-anchor="middle" fill="#9ca3af" font-size="12" font-family="-apple-system,BlinkMacSystemFont,Segoe UI,Helvetica,Arial,sans-serif">2022-05-06</text>
<line x1="657.60" y1="468" x2="657.60" y2="474" stroke="#6b7280" stroke-width="1"/>
<text x="657.60" y="494" text-anchor="middle" fill="#9ca3af" font-size="12" font-family="-apple-system,BlinkMacSystemFont,Segoe UI,Helvetica,Arial,sans-serif">2023-08-31</text>
<line x1="846.80" y1="468" x2="846.80" y2="474" stroke="#6b7280" stroke-width="1"/>
<text x="846.80" y="494" text-anchor="middle" fill="#9ca3af" font-size="12" font-family="-apple-system,BlinkMacSystemFont,Segoe UI,Helvetica,Arial,sans-serif">2024-12-25</text>
<line x1="1036.00" y1="468" x2="1036.00" y2="474" stroke="#6b7280" stroke-width="1"/>
<text x="1036.00" y="494" text-anchor="end" fill="#9ca3af" font-size="12" font-family="-apple-system,BlinkMacSystemFont,Segoe UI,Helvetica,Arial,sans-serif">2026-04-21</text>
<polyline fill="none" stroke="url(#repo-0)" stroke-width="4" stroke-linecap="round" stroke-linejoin="round" points="90.00,468.00 98.23,462.40 106.45,461.19 114.68,461.14 122.90,461.07 131.13,460.98 139.36,460.87 147.58,460.75 155.81,460.60 164.03,460.44 172.26,460.26 180.49,460.06 188.71,459.85 196.94,458.91 205.16,458.26 213.39,458.00 221.62,457.72 229.84,457.43 238.07,456.38 246.29,452.89 254.52,447.99 262.75,442.39 270.97,437.06 279.20,432.87 287.42,430.26 295.65,429.12 303.88,428.71 312.10,428.29 320.33,427.07 328.55,424.37 336.78,420.36 345.01,415.61 353.23,411.00 361.46,407.39 369.68,405.27 377.91,404.59 386.14,404.09 394.36,403.58 402.59,403.06 410.81,400.92 419.04,396.30 427.27,390.32 435.49,383.83 443.72,377.82 451.94,373.01 460.17,369.62 468.40,367.28 476.62,365.19 484.85,362.43 493.07,358.30 501.30,352.58 509.53,345.66 517.75,338.39 525.98,331.80 534.20,326.74 542.43,323.58 550.66,322.07 558.88,321.43 567.11,320.63 575.33,318.75 583.56,315.32 591.79,310.44 600.01,304.78 608.24,299.25 616.46,294.74 624.69,291.74 632.92,290.12 641.14,289.23 649.37,288.06 657.59,285.67 665.82,281.46 674.04,275.43 682.27,268.18 690.50,260.71 698.72,254.06 706.95,248.99 715.17,245.66 723.40,243.65 731.63,242.08 739.85,239.99 748.08,236.66 756.30,231.91 764.53,226.17 772.76,220.31 780.98,215.36 789.21,212.12 797.43,210.84 805.66,210.41 813.89,209.99 822.11,209.58 830.34,209.18 838.56,208.80 846.79,205.93 855.02,201.17 863.24,196.59 871.47,193.08 879.69,191.12 887.92,190.59 896.15,190.29 904.37,190.02 912.60,189.52 920.82,186.63 929.05,182.16 937.28,176.81 945.50,171.63 953.73,170.63 961.95,170.47 970.18,170.33 978.41,170.20 986.63,170.09 994.86,170.00 1003.08,169.93 1011.31,169.88 1019.54,169.85 1027.76,169.84 1028.16,168.86 1028.53,167.77 1028.93,166.79 1029.31,166.17 1029.71,165.85 1030.11,165.40 1030.50,156.20 1030.89,138.72 1031.28,134.65 1031.68,132.55 1032.06,131.62 1032.46,131.55 1032.86,131.42 1033.25,130.10 1033.64,128.57 1034.04,127.34 1034.43,126.35 1034.82,125.50 1035.21,125.43 1035.61,125.28 1036.00,124.36"/>
<circle cx="90.00" cy="468.00" r="3.8" fill="#ffb50c" stroke="#111827" stroke-width="1"/>
<circle cx="131.13" cy="460.98" r="3.8" fill="#ffb50c" stroke="#111827" stroke-width="1"/>
<circle cx="172.26" cy="460.26" r="3.8" fill="#ffb50c" stroke="#111827" stroke-width="1"/>
<circle cx="213.39" cy="458.00" r="3.8" fill="#ffb50c" stroke="#111827" stroke-width="1"/>
<circle cx="254.52" cy="447.99" r="3.8" fill="#ffb50c" stroke="#111827" stroke-width="1"/>
<circle cx="295.65" cy="429.12" r="3.8" fill="#ffb50c" stroke="#111827" stroke-width="1"/>
<circle cx="336.78" cy="420.36" r="3.8" fill="#ffb50c" stroke="#111827" stroke-width="1"/>
<circle cx="377.91" cy="404.59" r="3.8" fill="#ffb50c" stroke="#111827" stroke-width="1"/>
<circle cx="419.04" cy="396.30" r="3.8" fill="#ffb50c" stroke="#111827" stroke-width="1"/>
<circle cx="460.17" cy="369.62" r="3.8" fill="#ffb50c" stroke="#111827" stroke-width="1"/>
<circle cx="501.30" cy="352.58" r="3.8" fill="#ffb50c" stroke="#111827" stroke-width="1"/>
<circle cx="542.43" cy="323.58" r="3.8" fill="#ffb50c" stroke="#111827" stroke-width="1"/>
<circle cx="583.56" cy="315.32" r="3.8" fill="#ffb50c" stroke="#111827" stroke-width="1"/>
<circle cx="624.69" cy="291.74" r="3.8" fill="#ffb50c" stroke="#111827" stroke-width="1"/>
<circle cx="665.82" cy="281.46" r="3.8" fill="#ffb50c" stroke="#111827" stroke-width="1"/>
<circle cx="706.95" cy="248.99" r="3.8" fill="#ffb50c" stroke="#111827" stroke-width="1"/>
<circle cx="748.08" cy="236.66" r="3.8" fill="#ffb50c" stroke="#111827" stroke-width="1"/>
<circle cx="789.21" cy="212.12" r="3.8" fill="#ffb50c" stroke="#111827" stroke-width="1"/>
<circle cx="830.34" cy="209.18" r="3.8" fill="#ffb50c" stroke="#111827" stroke-width="1"/>
<circle cx="871.47" cy="193.08" r="3.8" fill="#ffb50c" stroke="#111827" stroke-width="1"/>
<circle cx="912.60" cy="189.52" r="3.8" fill="#ffb50c" stroke="#111827" stroke-width="1"/>
<circle cx="953.73" cy="170.63" r="3.8" fill="#ffb50c" stroke="#111827" stroke-width="1"/>
<circle cx="994.86" cy="170.00" r="3.8" fill="#ffb50c" stroke="#111827" stroke-width="1"/>
<circle cx="1028.16" cy="168.86" r="3.8" fill="#ffb50c" stroke="#111827" stroke-width="1"/>
<circle cx="1030.11" cy="165.40" r="3.8" fill="#ffb50c" stroke="#111827" stroke-width="1"/>
<circle cx="1032.06" cy="131.62" r="3.8" fill="#ffb50c" stroke="#111827" stroke-width="1"/>
<circle cx="1034.04" cy="127.34" r="3.8" fill="#ffb50c" stroke="#111827" stroke-width="1"/>
<circle cx="1036.00" cy="124.36" r="3.8" fill="#ffb50c" stroke="#111827" stroke-width="1"/>
<text x="1028.00" y="114.36" text-anchor="end" fill="#ffb50c" font-size="12" font-family="-apple-system,BlinkMacSystemFont,Segoe UI,Helvetica,Arial,sans-serif">1.60M</text>
<polyline fill="none" stroke="url(#repo-1)" stroke-width="4" stroke-linecap="round" stroke-linejoin="round" points="651.61,468.00 659.79,467.29 667.97,467.04 676.15,466.88 684.32,466.83 692.50,466.77 700.68,466.69 708.85,466.58 717.03,466.15 725.21,465.47 733.39,464.58 741.56,463.56 749.74,462.54 757.92,461.59 766.09,460.76 774.27,460.01 782.45,459.24 790.63,458.36 798.80,457.27 806.98,455.94 815.16,454.42 823.33,452.80 831.51,451.22 839.69,449.80 847.87,448.59 856.04,447.58 864.22,446.70 872.40,445.82 880.57,444.85 888.75,443.73 896.93,442.48 905.11,441.17 913.28,439.91 921.46,438.84 929.64,438.02 937.81,437.44 945.99,437.02 954.17,436.66 962.35,436.23 970.52,435.65 978.70,434.90 986.88,434.07 995.05,433.26 1003.23,432.61 1011.41,432.22 1019.59,432.20 1027.76,432.19 1028.16,431.94 1028.53,431.71 1028.93,431.48 1029.31,431.36 1029.71,431.32 1030.11,431.24 1030.50,431.06 1030.89,430.79 1031.28,430.46 1031.68,430.15 1032.06,429.86 1032.46,429.81 1032.86,429.68 1033.25,429.40 1033.64,429.07 1034.04,428.71 1034.43,428.47 1034.82,428.15 1035.21,428.11 1035.61,428.04 1036.00,427.67"/>
<circle cx="651.61" cy="468.00" r="3.8" fill="#3bf2af" stroke="#111827" stroke-width="1"/>
<circle cx="667.97" cy="467.04" r="3.8" fill="#3bf2af" stroke="#111827" stroke-width="1"/>
<circle cx="684.32" cy="466.83" r="3.8" fill="#3bf2af" stroke="#111827" stroke-width="1"/>
<circle cx="700.68" cy="466.69" r="3.8" fill="#3bf2af" stroke="#111827" stroke-width="1"/>
<circle cx="717.03" cy="466.15" r="3.8" fill="#3bf2af" stroke="#111827" stroke-width="1"/>
<circle cx="733.39" cy="464.58" r="3.8" fill="#3bf2af" stroke="#111827" stroke-width="1"/>
<circle cx="749.74" cy="462.54" r="3.8" fill="#3bf2af" stroke="#111827" stroke-width="1"/>
<circle cx="766.09" cy="460.76" r="3.8" fill="#3bf2af" stroke="#111827" stroke-width="1"/>
<circle cx="782.45" cy="459.24" r="3.8" fill="#3bf2af" stroke="#111827" stroke-width="1"/>
<circle cx="798.80" cy="457.27" r="3.8" fill="#3bf2af" stroke="#111827" stroke-width="1"/>
<circle cx="815.16" cy="454.42" r="3.8" fill="#3bf2af" stroke="#111827" stroke-width="1"/>
<circle cx="831.51" cy="451.22" r="3.8" fill="#3bf2af" stroke="#111827" stroke-width="1"/>
<circle cx="847.87" cy="448.59" r="3.8" fill="#3bf2af" stroke="#111827" stroke-width="1"/>
<circle cx="864.22" cy="446.70" r="3.8" fill="#3bf2af" stroke="#111827" stroke-width="1"/>
<circle cx="880.57" cy="444.85" r="3.8" fill="#3bf2af" stroke="#111827" stroke-width="1"/>
<circle cx="896.93" cy="442.48" r="3.8" fill="#3bf2af" stroke="#111827" stroke-width="1"/>
<circle cx="913.28" cy="439.91" r="3.8" fill="#3bf2af" stroke="#111827" stroke-width="1"/>
<circle cx="929.64" cy="438.02" r="3.8" fill="#3bf2af" stroke="#111827" stroke-width="1"/>
<circle cx="945.99" cy="437.02" r="3.8" fill="#3bf2af" stroke="#111827" stroke-width="1"/>
<circle cx="962.35" cy="436.23" r="3.8" fill="#3bf2af" stroke="#111827" stroke-width="1"/>
<circle cx="978.70" cy="434.90" r="3.8" fill="#3bf2af" stroke="#111827" stroke-width="1"/>
<circle cx="995.05" cy="433.26" r="3.8" fill="#3bf2af" stroke="#111827" stroke-width="1"/>
<circle cx="1011.41" cy="432.22" r="3.8" fill="#3bf2af" stroke="#111827" stroke-width="1"/>
<circle cx="1027.76" cy="432.19" r="3.8" fill="#3bf2af" stroke="#111827" stroke-width="1"/>
<circle cx="1028.53" cy="431.71" r="3.8" fill="#3bf2af" stroke="#111827" stroke-width="1"/>
<circle cx="1029.31" cy="431.36" r="3.8" fill="#3bf2af" stroke="#111827" stroke-width="1"/>
<circle cx="1030.11" cy="431.24" r="3.8" fill="#3bf2af" stroke="#111827" stroke-width="1"/>
<circle cx="1030.89" cy="430.79" r="3.8" fill="#3bf2af" stroke="#111827" stroke-width="1"/>
<circle cx="1031.68" cy="430.15" r="3.8" fill="#3bf2af" stroke="#111827" stroke-width="1"/>
<circle cx="1032.46" cy="429.81" r="3.8" fill="#3bf2af" stroke="#111827" stroke-width="1"/>
<circle cx="1033.25" cy="429.40" r="3.8" fill="#3bf2af" stroke="#111827" stroke-width="1"/>
<circle cx="1034.04" cy="428.71" r="3.8" fill="#3bf2af" stroke="#111827" stroke-width="1"/>
<circle cx="1034.82" cy="428.15" r="3.8" fill="#3bf2af" stroke="#111827" stroke-width="1"/>
<circle cx="1035.61" cy="428.04" r="3.8" fill="#3bf2af" stroke="#111827" stroke-width="1"/>
<circle cx="1036.00" cy="427.67" r="3.8" fill="#3bf2af" stroke="#111827" stroke-width="1"/>
<text x="1028.00" y="417.67" text-anchor="end" fill="#3bf2af" font-size="12" font-family="-apple-system,BlinkMacSystemFont,Segoe UI,Helvetica,Arial,sans-serif">187.23k</text>
<rect x="90.00" y="514.00" width="14" height="14" fill="url(#repo-0)" rx="3"/>
<text x="112.00" y="526.00" fill="#ffb50c" font-size="13" font-family="-apple-system,BlinkMacSystemFont,Segoe UI,Helvetica,Arial,sans-serif">tkpd/gripmock</text>
<rect x="280.00" y="514.00" width="14" height="14" fill="url(#repo-1)" rx="3"/>
<text x="302.00" y="526.00" fill="#3bf2af" font-size="13" font-family="-apple-system,BlinkMacSystemFont,Segoe UI,Helvetica,Arial,sans-serif">bavix/gripmock</text>
<text x="1036.00" y="526.00" text-anchor="end" fill="#9ca3af" font-size="12" font-family="-apple-system,BlinkMacSystemFont,Segoe UI,Helvetica,Arial,sans-serif">Source: https://github.com/bavix/artifact-stats/blob/master/stats/dockerhub.csv</text>
</svg>