<svg xmlns="http://www.w3.org/2000/svg" width="1100" height="560" viewBox="0 0 1100 560">
<defs>
<linearGradient id="bg" x1="0" y1="0" x2="1" y2="1"><stop offset="0%" stop-color="#0b1220"/><stop offset="100%" stop-color="#111827"/></linearGradient>
<linearGradient id="repo-0" x1="0" y1="0" x2="0" y2="1"><stop offset="0%" stop-color="#f59e0b"/><stop offset="100%" stop-color="#d97706"/></linearGradient>
<linearGradient id="repo-1" x1="0" y1="0" x2="0" y2="1"><stop offset="0%" stop-color="#34d399"/><stop offset="100%" stop-color="#059669"/></linearGradient>
</defs>
<rect x="0" y="0" width="1100" height="560" fill="url(#bg)" rx="16"/>
<text x="90" y="44" fill="#f9fafb" font-size="28" font-family="-apple-system,BlinkMacSystemFont,Segoe UI,Helvetica,Arial,sans-serif" font-weight="700">GripMock Docker Hub Downloads</text>
<text x="90" y="70" fill="#9ca3af" font-size="16" font-family="-apple-system,BlinkMacSystemFont,Segoe UI,Helvetica,Arial,sans-serif">Docker Hub pull count by snapshot date</text>
<line x1="90" y1="90.00" x2="1036" y2="90.00" stroke="#1f2937" stroke-width="1"/>
<text x="80" y="95.00" text-anchor="end" fill="#9ca3af" font-size="12" font-family="-apple-system,BlinkMacSystemFont,Segoe UI,Helvetica,Arial,sans-serif">1.76M</text>
<line x1="90" y1="153.00" x2="1036" y2="153.00" stroke="#1f2937" stroke-width="1"/>
<text x="80" y="158.00" text-anchor="end" fill="#9ca3af" font-size="12" font-family="-apple-system,BlinkMacSystemFont,Segoe UI,Helvetica,Arial,sans-serif">1.47M</text>
<line x1="90" y1="216.00" x2="1036" y2="216.00" stroke="#1f2937" stroke-width="1"/>
<text x="80" y="221.00" text-anchor="end" fill="#9ca3af" font-size="12" font-family="-apple-system,BlinkMacSystemFont,Segoe UI,Helvetica,Arial,sans-serif">1.17M</text>
<line x1="90" y1="279.00" x2="1036" y2="279.00" stroke="#1f2937" stroke-width="1"/>
<text x="80" y="284.00" text-anchor="end" fill="#9ca3af" font-size="12" font-family="-apple-system,BlinkMacSystemFont,Segoe UI,Helvetica,Arial,sans-serif">880.86k</text>
<line x1="90" y1="342.00" x2="1036" y2="342.00" stroke="#1f2937" stroke-width="1"/>
<text x="80" y="347.00" text-anchor="end" fill="#9ca3af" font-size="12" font-family="-apple-system,BlinkMacSystemFont,Segoe UI,Helvetica,Arial,sans-serif">587.24k</text>
<line x1="90" y1="405.00" x2="1036" y2="405.00" stroke="#1f2937" stroke-width="1"/>
<text x="80" y="410.00" text-anchor="end" fill="#9ca3af" font-size="12" font-family="-apple-system,BlinkMacSystemFont,Segoe UI,Helvetica,Arial,sans-serif">293.62k</text>
<line x1="90" y1="468.00" x2="1036" y2="468.00" stroke="#1f2937" stroke-width="1"/>
<text x="80" y="473.00" text-anchor="end" fill="#9ca3af" font-size="12" font-family="-apple-system,BlinkMacSystemFont,Segoe UI,Helvetica,Arial,sans-serif">0</text>
<line x1="90" y1="468" x2="1036" y2="468" stroke="#4b5563" stroke-width="1.4"/>
<line x1="90" y1="90" x2="90" y2="468" stroke="#4b5563" stroke-width="1.4"/>
<line x1="90.00" y1="468" x2="90.00" y2="474" stroke="#6b7280" stroke-width="1"/>
<text x="90.00" y="494" text-anchor="start" fill="#9ca3af" font-size="12" font-family="-apple-system,BlinkMacSystemFont,Segoe UI,Helvetica,Arial,sans-serif">2019-09-16</text>
<line x1="279.20" y1="468" x2="279.20" y2="474" stroke="#6b7280" stroke-width="1"/>
<text x="279.20" y="494" text-anchor="middle" fill="#9ca3af" font-size="12" font-family="-apple-system,BlinkMacSystemFont,Segoe UI,Helvetica,Arial,sans-serif">2021-01-10</text>
<line x1="468.40" y1="468" x2="468.40" y2="474" stroke="#6b7280" stroke-width="1"/>
<text x="468.40" y="494" text-anchor="middle" fill="#9ca3af" font-size="12" font-family="-apple-system,BlinkMacSystemFont,Segoe UI,Helvetica,Arial,sans-serif">2022-05-07</text>
<line x1="657.60" y1="468" x2="657.60" y2="474" stroke="#6b7280" stroke-width="1"/>
<text x="657.60" y="494" text-anchor="middle" fill="#9ca3af" font-size="12" font-family="-apple-system,BlinkMacSystemFont,Segoe UI,Helvetica,Arial,sans-serif">2023-09-01</text>
<line x1="846.80" y1="468" x2="846.80" y2="474" stroke="#6b7280" stroke-width="1"/>
<text x="846.80" y="494" text-anchor="middle" fill="#9ca3af" font-size="12" font-family="-apple-system,BlinkMacSystemFont,Segoe UI,Helvetica,Arial,sans-serif">2024-12-27</text>
<line x1="1036.00" y1="468" x2="1036.00" y2="474" stroke="#6b7280" stroke-width="1"/>
<text x="1036.00" y="494" text-anchor="end" fill="#9ca3af" font-size="12" font-family="-apple-system,BlinkMacSystemFont,Segoe UI,Helvetica,Arial,sans-serif">2026-04-23</text>
<polyline fill="none" stroke="url(#repo-0)" stroke-width="4" stroke-linecap="round" stroke-linejoin="round" points="90.00,468.00 98.22,462.42 106.44,461.22 114.66,461.17 122.88,461.10 131.10,461.01 139.31,460.90 147.53,460.77 155.75,460.63 163.97,460.47 172.19,460.29 180.41,460.09 188.63,459.88 196.85,458.95 205.07,458.30 213.29,458.04 221.51,457.76 229.73,457.47 237.94,456.43 246.16,452.95 254.38,448.07 262.60,442.49 270.82,437.18 279.04,433.00 287.26,430.40 295.48,429.27 303.70,428.86 311.92,428.44 320.14,427.23 328.36,424.54 336.57,420.54 344.79,415.81 353.01,411.22 361.23,407.62 369.45,405.51 377.67,404.83 385.89,404.33 394.11,403.82 402.33,403.30 410.55,401.18 418.77,396.57 426.99,390.61 435.20,384.15 443.42,378.16 451.64,373.37 459.86,369.99 468.08,367.66 476.30,365.58 484.52,362.83 492.74,358.71 500.96,353.02 509.18,346.12 517.40,338.88 525.62,332.31 533.83,327.27 542.05,324.13 550.27,322.62 558.49,321.98 566.71,321.18 574.93,319.31 583.15,315.89 591.37,311.04 599.59,305.39 607.81,299.89 616.03,295.40 624.25,292.40 632.46,290.79 640.68,289.90 648.90,288.74 657.12,286.36 665.34,282.16 673.56,276.15 681.78,268.93 690.00,261.49 698.22,254.87 706.44,249.82 714.66,246.50 722.87,244.49 731.09,242.93 739.31,240.85 747.53,237.53 755.75,232.80 763.97,227.08 772.19,221.24 780.41,216.31 788.63,213.08 796.85,211.81 805.07,211.38 813.29,210.96 821.50,210.55 829.72,210.16 837.94,209.77 846.16,206.92 854.38,202.18 862.60,197.61 870.82,194.11 879.04,192.16 887.26,191.63 895.48,191.34 903.70,191.07 911.92,190.57 920.13,187.69 928.35,183.24 936.57,177.90 944.79,172.74 953.01,171.75 961.23,171.59 969.45,171.45 977.67,171.32 985.89,171.21 994.11,171.13 1002.33,171.06 1010.55,171.01 1018.76,170.98 1026.98,170.96 1027.38,169.99 1027.75,168.90 1028.15,167.92 1028.53,167.30 1028.93,166.98 1029.33,166.54 1029.72,157.38 1030.11,139.97 1030.50,135.90 1030.90,133.82 1031.28,132.89 1031.68,132.82 1032.08,132.69 1032.47,131.38 1032.86,129.85 1033.25,128.62 1033.65,127.64 1034.03,126.79 1034.43,126.72 1034.83,126.57 1035.21,125.66 1035.61,125.02 1036.00,124.36"/>
<circle cx="90.00" cy="468.00" r="3.8" fill="#ffb50c" stroke="#111827" stroke-width="1"/>
<circle cx="131.10" cy="461.01" r="3.8" fill="#ffb50c" stroke="#111827" stroke-width="1"/>
<circle cx="172.19" cy="460.29" r="3.8" fill="#ffb50c" stroke="#111827" stroke-width="1"/>
<circle cx="213.29" cy="458.04" r="3.8" fill="#ffb50c" stroke="#111827" stroke-width="1"/>
<circle cx="254.38" cy="448.07" r="3.8" fill="#ffb50c" stroke="#111827" stroke-width="1"/>
<circle cx="295.48" cy="429.27" r="3.8" fill="#ffb50c" stroke="#111827" stroke-width="1"/>
<circle cx="336.57" cy="420.54" r="3.8" fill="#ffb50c" stroke="#111827" stroke-width="1"/>
<circle cx="377.67" cy="404.83" r="3.8" fill="#ffb50c" stroke="#111827" stroke-width="1"/>
<circle cx="418.77" cy="396.57" r="3.8" fill="#ffb50c" stroke="#111827" stroke-width="1"/>
<circle cx="459.86" cy="369.99" r="3.8" fill="#ffb50c" stroke="#111827" stroke-width="1"/>
<circle cx="500.96" cy="353.02" r="3.8" fill="#ffb50c" stroke="#111827" stroke-width="1"/>
<circle cx="542.05" cy="324.13" r="3.8" fill="#ffb50c" stroke="#111827" stroke-width="1"/>
<circle cx="583.15" cy="315.89" r="3.8" fill="#ffb50c" stroke="#111827" stroke-width="1"/>
<circle cx="624.25" cy="292.40" r="3.8" fill="#ffb50c" stroke="#111827" stroke-width="1"/>
<circle cx="665.34" cy="282.16" r="3.8" fill="#ffb50c" stroke="#111827" stroke-width="1"/>
<circle cx="706.44" cy="249.82" r="3.8" fill="#ffb50c" stroke="#111827" stroke-width="1"/>
<circle cx="747.53" cy="237.53" r="3.8" fill="#ffb50c" stroke="#111827" stroke-width="1"/>
<circle cx="788.63" cy="213.08" r="3.8" fill="#ffb50c" stroke="#111827" stroke-width="1"/>
<circle cx="829.72" cy="210.16" r="3.8" fill="#ffb50c" stroke="#111827" stroke-width="1"/>
<circle cx="870.82" cy="194.11" r="3.8" fill="#ffb50c" stroke="#111827" stroke-width="1"/>
<circle cx="911.92" cy="190.57" r="3.8" fill="#ffb50c" stroke="#111827" stroke-width="1"/>
<circle cx="953.01" cy="171.75" r="3.8" fill="#ffb50c" stroke="#111827" stroke-width="1"/>
<circle cx="994.11" cy="171.13" r="3.8" fill="#ffb50c" stroke="#111827" stroke-width="1"/>
<circle cx="1027.38" cy="169.99" r="3.8" fill="#ffb50c" stroke="#111827" stroke-width="1"/>
<circle cx="1029.33" cy="166.54" r="3.8" fill="#ffb50c" stroke="#111827" stroke-width="1"/>
<circle cx="1031.28" cy="132.89" r="3.8" fill="#ffb50c" stroke="#111827" stroke-width="1"/>
<circle cx="1033.25" cy="128.62" r="3.8" fill="#ffb50c" stroke="#111827" stroke-width="1"/>
<circle cx="1035.21" cy="125.66" r="3.8" fill="#ffb50c" stroke="#111827" stroke-width="1"/>
<circle cx="1036.00" cy="124.36" r="3.8" fill="#ffb50c" stroke="#111827" stroke-width="1"/>
<text x="1028.00" y="114.36" text-anchor="end" fill="#ffb50c" font-size="12" font-family="-apple-system,BlinkMacSystemFont,Segoe UI,Helvetica,Arial,sans-serif">1.60M</text>
<polyline fill="none" stroke="url(#repo-1)" stroke-width="4" stroke-linecap="round" stroke-linejoin="round" points="651.15,468.00 659.32,467.29 667.49,467.04 675.66,466.88 683.83,466.83 692.00,466.77 700.17,466.70 708.34,466.58 716.51,466.16 724.68,465.48 732.85,464.59 741.02,463.58 749.19,462.56 757.36,461.62 765.53,460.79 773.70,460.04 781.87,459.27 790.04,458.39 798.21,457.31 806.38,455.98 814.55,454.47 822.73,452.86 830.90,451.29 839.07,449.87 847.24,448.66 855.41,447.66 863.58,446.78 871.75,445.91 879.92,444.94 888.09,443.83 896.26,442.57 904.43,441.27 912.60,440.02 920.77,438.95 928.94,438.13 937.11,437.55 945.28,437.14 953.45,436.78 961.62,436.35 969.79,435.77 977.96,435.03 986.13,434.20 994.30,433.39 1002.47,432.75 1010.64,432.35 1018.81,432.33 1026.98,432.32 1027.38,432.08 1027.75,431.84 1028.15,431.62 1028.53,431.50 1028.93,431.46 1029.33,431.38 1029.72,431.20 1030.11,430.93 1030.50,430.61 1030.90,430.29 1031.28,430.00 1031.68,429.96 1032.08,429.82 1032.47,429.54 1032.86,429.22 1033.25,428.86 1033.65,428.62 1034.03,428.30 1034.43,428.26 1034.83,428.19 1035.21,427.83 1035.61,427.50 1036.00,427.13"/>
<circle cx="651.15" cy="468.00" r="3.8" fill="#3bf2af" stroke="#111827" stroke-width="1"/>
<circle cx="667.49" cy="467.04" r="3.8" fill="#3bf2af" stroke="#111827" stroke-width="1"/>
<circle cx="683.83" cy="466.83" r="3.8" fill="#3bf2af" stroke="#111827" stroke-width="1"/>
<circle cx="700.17" cy="466.70" r="3.8" fill="#3bf2af" stroke="#111827" stroke-width="1"/>
<circle cx="716.51" cy="466.16" r="3.8" fill="#3bf2af" stroke="#111827" stroke-width="1"/>
<circle cx="732.85" cy="464.59" r="3.8" fill="#3bf2af" stroke="#111827" stroke-width="1"/>
<circle cx="749.19" cy="462.56" r="3.8" fill="#3bf2af" stroke="#111827" stroke-width="1"/>
<circle cx="765.53" cy="460.79" r="3.8" fill="#3bf2af" stroke="#111827" stroke-width="1"/>
<circle cx="781.87" cy="459.27" r="3.8" fill="#3bf2af" stroke="#111827" stroke-width="1"/>
<circle cx="798.21" cy="457.31" r="3.8" fill="#3bf2af" stroke="#111827" stroke-width="1"/>
<circle cx="814.55" cy="454.47" r="3.8" fill="#3bf2af" stroke="#111827" stroke-width="1"/>
<circle cx="830.90" cy="451.29" r="3.8" fill="#3bf2af" stroke="#111827" stroke-width="1"/>
<circle cx="847.24" cy="448.66" r="3.8" fill="#3bf2af" stroke="#111827" stroke-width="1"/>
<circle cx="863.58" cy="446.78" r="3.8" fill="#3bf2af" stroke="#111827" stroke-width="1"/>
<circle cx="879.92" cy="444.94" r="3.8" fill="#3bf2af" stroke="#111827" stroke-width="1"/>
<circle cx="896.26" cy="442.57" r="3.8" fill="#3bf2af" stroke="#111827" stroke-width="1"/>
<circle cx="912.60" cy="440.02" r="3.8" fill="#3bf2af" stroke="#111827" stroke-width="1"/>
<circle cx="928.94" cy="438.13" r="3.8" fill="#3bf2af" stroke="#111827" stroke-width="1"/>
<circle cx="945.28" cy="437.14" r="3.8" fill="#3bf2af" stroke="#111827" stroke-width="1"/>
<circle cx="961.62" cy="436.35" r="3.8" fill="#3bf2af" stroke="#111827" stroke-width="1"/>
<circle cx="977.96" cy="435.03" r="3.8" fill="#3bf2af" stroke="#111827" stroke-width="1"/>
<circle cx="994.30" cy="433.39" r="3.8" fill="#3bf2af" stroke="#111827" stroke-width="1"/>
<circle cx="1010.64" cy="432.35" r="3.8" fill="#3bf2af" stroke="#111827" stroke-width="1"/>
<circle cx="1026.98" cy="432.32" r="3.8" fill="#3bf2af" stroke="#111827" stroke-width="1"/>
<circle cx="1027.75" cy="431.84" r="3.8" fill="#3bf2af" stroke="#111827" stroke-width="1"/>
<circle cx="1028.53" cy="431.50" r="3.8" fill="#3bf2af" stroke="#111827" stroke-width="1"/>
<circle cx="1029.33" cy="431.38" r="3.8" fill="#3bf2af" stroke="#111827" stroke-width="1"/>
<circle cx="1030.11" cy="430.93" r="3.8" fill="#3bf2af" stroke="#111827" stroke-width="1"/>
<circle cx="1030.90" cy="430.29" r="3.8" fill="#3bf2af" stroke="#111827" stroke-width="1"/>
<circle cx="1031.68" cy="429.96" r="3.8" fill="#3bf2af" stroke="#111827" stroke-width="1"/>
<circle cx="1032.47" cy="429.54" r="3.8" fill="#3bf2af" stroke="#111827" stroke-width="1"/>
<circle cx="1033.25" cy="428.86" r="3.8" fill="#3bf2af" stroke="#111827" stroke-width="1"/>
<circle cx="1034.03" cy="428.30" r="3.8" fill="#3bf2af" stroke="#111827" stroke-width="1"/>
<circle cx="1034.83" cy="428.19" r="3.8" fill="#3bf2af" stroke="#111827" stroke-width="1"/>
<circle cx="1035.61" cy="427.50" r="3.8" fill="#3bf2af" stroke="#111827" stroke-width="1"/>
<circle cx="1036.00" cy="427.13" r="3.8" fill="#3bf2af" stroke="#111827" stroke-width="1"/>
<text x="1028.00" y="417.13" text-anchor="end" fill="#3bf2af" font-size="12" font-family="-apple-system,BlinkMacSystemFont,Segoe UI,Helvetica,Arial,sans-serif">190.48k</text>
<rect x="90.00" y="514.00" width="14" height="14" fill="url(#repo-0)" rx="3"/>
<text x="112.00" y="526.00" fill="#ffb50c" font-size="13" font-family="-apple-system,BlinkMacSystemFont,Segoe UI,Helvetica,Arial,sans-serif">tkpd/gripmock</text>
<rect x="280.00" y="514.00" width="14" height="14" fill="url(#repo-1)" rx="3"/>
<text x="302.00" y="526.00" fill="#3bf2af" font-size="13" font-family="-apple-system,BlinkMacSystemFont,Segoe UI,Helvetica,Arial,sans-serif">bavix/gripmock</text>
<text x="1036.00" y="526.00" text-anchor="end" fill="#9ca3af" font-size="12" font-family="-apple-system,BlinkMacSystemFont,Segoe UI,Helvetica,Arial,sans-serif">Source: https://github.com/bavix/artifact-stats/blob/master/stats/dockerhub.csv</text>
</svg>