<svg xmlns="http://www.w3.org/2000/svg" width="1100" height="560" viewBox="0 0 1100 560">
<defs>
<linearGradient id="bg" x1="0" y1="0" x2="1" y2="1"><stop offset="0%" stop-color="#0b1220"/><stop offset="100%" stop-color="#111827"/></linearGradient>
<linearGradient id="repo-0" x1="0" y1="0" x2="0" y2="1"><stop offset="0%" stop-color="#f59e0b"/><stop offset="100%" stop-color="#d97706"/></linearGradient>
<linearGradient id="repo-1" x1="0" y1="0" x2="0" y2="1"><stop offset="0%" stop-color="#34d399"/><stop offset="100%" stop-color="#059669"/></linearGradient>
</defs>
<rect x="0" y="0" width="1100" height="560" fill="url(#bg)" rx="16"/>
<text x="90" y="44" fill="#f9fafb" font-size="28" font-family="-apple-system,BlinkMacSystemFont,Segoe UI,Helvetica,Arial,sans-serif" font-weight="700">GripMock Docker Hub Downloads</text>
<text x="90" y="70" fill="#9ca3af" font-size="16" font-family="-apple-system,BlinkMacSystemFont,Segoe UI,Helvetica,Arial,sans-serif">Docker Hub pull count by snapshot date</text>
<line x1="90" y1="90.00" x2="1036" y2="90.00" stroke="#1f2937" stroke-width="1"/>
<text x="80" y="95.00" text-anchor="end" fill="#9ca3af" font-size="12" font-family="-apple-system,BlinkMacSystemFont,Segoe UI,Helvetica,Arial,sans-serif">1.74M</text>
<line x1="90" y1="153.00" x2="1036" y2="153.00" stroke="#1f2937" stroke-width="1"/>
<text x="80" y="158.00" text-anchor="end" fill="#9ca3af" font-size="12" font-family="-apple-system,BlinkMacSystemFont,Segoe UI,Helvetica,Arial,sans-serif">1.45M</text>
<line x1="90" y1="216.00" x2="1036" y2="216.00" stroke="#1f2937" stroke-width="1"/>
<text x="80" y="221.00" text-anchor="end" fill="#9ca3af" font-size="12" font-family="-apple-system,BlinkMacSystemFont,Segoe UI,Helvetica,Arial,sans-serif">1.16M</text>
<line x1="90" y1="279.00" x2="1036" y2="279.00" stroke="#1f2937" stroke-width="1"/>
<text x="80" y="284.00" text-anchor="end" fill="#9ca3af" font-size="12" font-family="-apple-system,BlinkMacSystemFont,Segoe UI,Helvetica,Arial,sans-serif">872.47k</text>
<line x1="90" y1="342.00" x2="1036" y2="342.00" stroke="#1f2937" stroke-width="1"/>
<text x="80" y="347.00" text-anchor="end" fill="#9ca3af" font-size="12" font-family="-apple-system,BlinkMacSystemFont,Segoe UI,Helvetica,Arial,sans-serif">581.64k</text>
<line x1="90" y1="405.00" x2="1036" y2="405.00" stroke="#1f2937" stroke-width="1"/>
<text x="80" y="410.00" text-anchor="end" fill="#9ca3af" font-size="12" font-family="-apple-system,BlinkMacSystemFont,Segoe UI,Helvetica,Arial,sans-serif">290.82k</text>
<line x1="90" y1="468.00" x2="1036" y2="468.00" stroke="#1f2937" stroke-width="1"/>
<text x="80" y="473.00" text-anchor="end" fill="#9ca3af" font-size="12" font-family="-apple-system,BlinkMacSystemFont,Segoe UI,Helvetica,Arial,sans-serif">0</text>
<line x1="90" y1="468" x2="1036" y2="468" stroke="#4b5563" stroke-width="1.4"/>
<line x1="90" y1="90" x2="90" y2="468" stroke="#4b5563" stroke-width="1.4"/>
<line x1="90.00" y1="468" x2="90.00" y2="474" stroke="#6b7280" stroke-width="1"/>
<text x="90.00" y="494" text-anchor="start" fill="#9ca3af" font-size="12" font-family="-apple-system,BlinkMacSystemFont,Segoe UI,Helvetica,Arial,sans-serif">2019-09-16</text>
<line x1="279.20" y1="468" x2="279.20" y2="474" stroke="#6b7280" stroke-width="1"/>
<text x="279.20" y="494" text-anchor="middle" fill="#9ca3af" font-size="12" font-family="-apple-system,BlinkMacSystemFont,Segoe UI,Helvetica,Arial,sans-serif">2021-01-09</text>
<line x1="468.40" y1="468" x2="468.40" y2="474" stroke="#6b7280" stroke-width="1"/>
<text x="468.40" y="494" text-anchor="middle" fill="#9ca3af" font-size="12" font-family="-apple-system,BlinkMacSystemFont,Segoe UI,Helvetica,Arial,sans-serif">2022-05-05</text>
<line x1="657.60" y1="468" x2="657.60" y2="474" stroke="#6b7280" stroke-width="1"/>
<text x="657.60" y="494" text-anchor="middle" fill="#9ca3af" font-size="12" font-family="-apple-system,BlinkMacSystemFont,Segoe UI,Helvetica,Arial,sans-serif">2023-08-29</text>
<line x1="846.80" y1="468" x2="846.80" y2="474" stroke="#6b7280" stroke-width="1"/>
<text x="846.80" y="494" text-anchor="middle" fill="#9ca3af" font-size="12" font-family="-apple-system,BlinkMacSystemFont,Segoe UI,Helvetica,Arial,sans-serif">2024-12-22</text>
<line x1="1036.00" y1="468" x2="1036.00" y2="474" stroke="#6b7280" stroke-width="1"/>
<text x="1036.00" y="494" text-anchor="end" fill="#9ca3af" font-size="12" font-family="-apple-system,BlinkMacSystemFont,Segoe UI,Helvetica,Arial,sans-serif">2026-04-17</text>
<polyline fill="none" stroke="url(#repo-0)" stroke-width="4" stroke-linecap="round" stroke-linejoin="round" points="90.00,468.00 98.24,462.36 106.48,461.15 114.72,461.10 122.96,461.03 131.20,460.94 139.44,460.83 147.68,460.71 155.92,460.56 164.16,460.40 172.40,460.22 180.64,460.02 188.88,459.80 197.12,458.86 205.36,458.20 213.59,457.94 221.83,457.66 230.07,457.37 238.31,456.32 246.55,452.81 254.79,447.88 263.03,442.24 271.27,436.88 279.51,432.66 287.75,430.04 295.99,428.89 304.23,428.48 312.47,428.06 320.71,426.84 328.95,424.12 337.19,420.08 345.43,415.31 353.67,410.67 361.91,407.04 370.15,404.91 378.39,404.22 386.63,403.72 394.87,403.20 403.11,402.68 411.35,400.53 419.59,395.89 427.83,389.86 436.07,383.34 444.31,377.30 452.55,372.46 460.78,369.05 469.02,366.69 477.26,364.59 485.50,361.82 493.74,357.66 501.98,351.91 510.22,344.95 518.46,337.63 526.70,331.00 534.94,325.92 543.18,322.74 551.42,321.22 559.66,320.58 567.90,319.77 576.14,317.88 584.38,314.43 592.62,309.53 600.86,303.83 609.10,298.27 617.34,293.74 625.58,290.71 633.82,289.09 642.06,288.19 650.30,287.02 658.54,284.61 666.78,280.37 675.02,274.31 683.26,267.02 691.50,259.50 699.74,252.82 707.97,247.72 716.21,244.37 724.45,242.34 732.69,240.77 740.93,238.66 749.17,235.31 757.41,230.54 765.65,224.76 773.89,218.87 782.13,213.89 790.37,210.63 798.61,209.34 806.85,208.91 815.09,208.49 823.33,208.08 831.57,207.68 839.81,207.29 848.05,204.41 856.29,199.62 864.53,195.01 872.77,191.48 881.01,189.51 889.25,188.97 897.49,188.68 905.73,188.40 913.97,187.90 922.21,184.99 930.45,180.50 938.69,175.11 946.93,169.90 955.16,168.90 963.40,168.74 971.64,168.60 979.88,168.47 988.12,168.36 996.36,168.27 1004.60,168.20 1012.84,168.15 1021.08,168.12 1029.32,168.11 1029.72,167.12 1030.09,166.02 1030.49,165.04 1030.87,164.41 1031.28,164.09 1031.67,163.64 1032.06,154.39 1032.46,136.81 1032.85,132.71 1033.25,130.60 1033.63,129.67 1034.03,129.59 1034.43,129.46 1034.82,128.14 1035.21,126.60 1035.61,125.36 1036.00,124.36"/>
<circle cx="90.00" cy="468.00" r="3.8" fill="#ffb50c" stroke="#111827" stroke-width="1"/>
<circle cx="131.20" cy="460.94" r="3.8" fill="#ffb50c" stroke="#111827" stroke-width="1"/>
<circle cx="172.40" cy="460.22" r="3.8" fill="#ffb50c" stroke="#111827" stroke-width="1"/>
<circle cx="213.59" cy="457.94" r="3.8" fill="#ffb50c" stroke="#111827" stroke-width="1"/>
<circle cx="254.79" cy="447.88" r="3.8" fill="#ffb50c" stroke="#111827" stroke-width="1"/>
<circle cx="295.99" cy="428.89" r="3.8" fill="#ffb50c" stroke="#111827" stroke-width="1"/>
<circle cx="337.19" cy="420.08" r="3.8" fill="#ffb50c" stroke="#111827" stroke-width="1"/>
<circle cx="378.39" cy="404.22" r="3.8" fill="#ffb50c" stroke="#111827" stroke-width="1"/>
<circle cx="419.59" cy="395.89" r="3.8" fill="#ffb50c" stroke="#111827" stroke-width="1"/>
<circle cx="460.78" cy="369.05" r="3.8" fill="#ffb50c" stroke="#111827" stroke-width="1"/>
<circle cx="501.98" cy="351.91" r="3.8" fill="#ffb50c" stroke="#111827" stroke-width="1"/>
<circle cx="543.18" cy="322.74" r="3.8" fill="#ffb50c" stroke="#111827" stroke-width="1"/>
<circle cx="584.38" cy="314.43" r="3.8" fill="#ffb50c" stroke="#111827" stroke-width="1"/>
<circle cx="625.58" cy="290.71" r="3.8" fill="#ffb50c" stroke="#111827" stroke-width="1"/>
<circle cx="666.78" cy="280.37" r="3.8" fill="#ffb50c" stroke="#111827" stroke-width="1"/>
<circle cx="707.97" cy="247.72" r="3.8" fill="#ffb50c" stroke="#111827" stroke-width="1"/>
<circle cx="749.17" cy="235.31" r="3.8" fill="#ffb50c" stroke="#111827" stroke-width="1"/>
<circle cx="790.37" cy="210.63" r="3.8" fill="#ffb50c" stroke="#111827" stroke-width="1"/>
<circle cx="831.57" cy="207.68" r="3.8" fill="#ffb50c" stroke="#111827" stroke-width="1"/>
<circle cx="872.77" cy="191.48" r="3.8" fill="#ffb50c" stroke="#111827" stroke-width="1"/>
<circle cx="913.97" cy="187.90" r="3.8" fill="#ffb50c" stroke="#111827" stroke-width="1"/>
<circle cx="955.16" cy="168.90" r="3.8" fill="#ffb50c" stroke="#111827" stroke-width="1"/>
<circle cx="996.36" cy="168.27" r="3.8" fill="#ffb50c" stroke="#111827" stroke-width="1"/>
<circle cx="1029.72" cy="167.12" r="3.8" fill="#ffb50c" stroke="#111827" stroke-width="1"/>
<circle cx="1031.67" cy="163.64" r="3.8" fill="#ffb50c" stroke="#111827" stroke-width="1"/>
<circle cx="1033.63" cy="129.67" r="3.8" fill="#ffb50c" stroke="#111827" stroke-width="1"/>
<circle cx="1035.61" cy="125.36" r="3.8" fill="#ffb50c" stroke="#111827" stroke-width="1"/>
<circle cx="1036.00" cy="124.36" r="3.8" fill="#ffb50c" stroke="#111827" stroke-width="1"/>
<text x="1028.00" y="114.36" text-anchor="end" fill="#ffb50c" font-size="12" font-family="-apple-system,BlinkMacSystemFont,Segoe UI,Helvetica,Arial,sans-serif">1.59M</text>
<polyline fill="none" stroke="url(#repo-1)" stroke-width="4" stroke-linecap="round" stroke-linejoin="round" points="652.55,468.00 660.74,467.29 668.93,467.03 677.12,466.87 685.31,466.82 693.50,466.76 701.69,466.69 709.88,466.57 718.07,466.14 726.26,465.45 734.46,464.56 742.65,463.54 750.84,462.50 759.03,461.55 767.22,460.72 775.41,459.96 783.60,459.19 791.79,458.30 799.98,457.20 808.17,455.87 816.36,454.34 824.55,452.71 832.74,451.12 840.93,449.69 849.13,448.47 857.32,447.46 865.51,446.57 873.70,445.69 881.89,444.72 890.08,443.59 898.27,442.33 906.46,441.01 914.65,439.75 922.84,438.67 931.03,437.84 939.22,437.26 947.41,436.84 955.61,436.48 963.80,436.04 971.99,435.46 980.18,434.71 988.37,433.87 996.56,433.06 1004.75,432.41 1012.94,432.01 1021.13,431.99 1029.32,431.98 1029.72,431.73 1030.09,431.50 1030.49,431.27 1030.87,431.15 1031.28,431.11 1031.67,431.03 1032.06,430.85 1032.46,430.57 1032.85,430.25 1033.25,429.93 1033.63,429.64 1034.03,429.59 1034.43,429.45 1034.82,429.17 1035.21,428.85 1035.61,428.48 1036.00,428.24"/>
<circle cx="652.55" cy="468.00" r="3.8" fill="#3bf2af" stroke="#111827" stroke-width="1"/>
<circle cx="668.93" cy="467.03" r="3.8" fill="#3bf2af" stroke="#111827" stroke-width="1"/>
<circle cx="685.31" cy="466.82" r="3.8" fill="#3bf2af" stroke="#111827" stroke-width="1"/>
<circle cx="701.69" cy="466.69" r="3.8" fill="#3bf2af" stroke="#111827" stroke-width="1"/>
<circle cx="718.07" cy="466.14" r="3.8" fill="#3bf2af" stroke="#111827" stroke-width="1"/>
<circle cx="734.46" cy="464.56" r="3.8" fill="#3bf2af" stroke="#111827" stroke-width="1"/>
<circle cx="750.84" cy="462.50" r="3.8" fill="#3bf2af" stroke="#111827" stroke-width="1"/>
<circle cx="767.22" cy="460.72" r="3.8" fill="#3bf2af" stroke="#111827" stroke-width="1"/>
<circle cx="783.60" cy="459.19" r="3.8" fill="#3bf2af" stroke="#111827" stroke-width="1"/>
<circle cx="799.98" cy="457.20" r="3.8" fill="#3bf2af" stroke="#111827" stroke-width="1"/>
<circle cx="816.36" cy="454.34" r="3.8" fill="#3bf2af" stroke="#111827" stroke-width="1"/>
<circle cx="832.74" cy="451.12" r="3.8" fill="#3bf2af" stroke="#111827" stroke-width="1"/>
<circle cx="849.13" cy="448.47" r="3.8" fill="#3bf2af" stroke="#111827" stroke-width="1"/>
<circle cx="865.51" cy="446.57" r="3.8" fill="#3bf2af" stroke="#111827" stroke-width="1"/>
<circle cx="881.89" cy="444.72" r="3.8" fill="#3bf2af" stroke="#111827" stroke-width="1"/>
<circle cx="898.27" cy="442.33" r="3.8" fill="#3bf2af" stroke="#111827" stroke-width="1"/>
<circle cx="914.65" cy="439.75" r="3.8" fill="#3bf2af" stroke="#111827" stroke-width="1"/>
<circle cx="931.03" cy="437.84" r="3.8" fill="#3bf2af" stroke="#111827" stroke-width="1"/>
<circle cx="947.41" cy="436.84" r="3.8" fill="#3bf2af" stroke="#111827" stroke-width="1"/>
<circle cx="963.80" cy="436.04" r="3.8" fill="#3bf2af" stroke="#111827" stroke-width="1"/>
<circle cx="980.18" cy="434.71" r="3.8" fill="#3bf2af" stroke="#111827" stroke-width="1"/>
<circle cx="996.56" cy="433.06" r="3.8" fill="#3bf2af" stroke="#111827" stroke-width="1"/>
<circle cx="1012.94" cy="432.01" r="3.8" fill="#3bf2af" stroke="#111827" stroke-width="1"/>
<circle cx="1029.32" cy="431.98" r="3.8" fill="#3bf2af" stroke="#111827" stroke-width="1"/>
<circle cx="1030.09" cy="431.50" r="3.8" fill="#3bf2af" stroke="#111827" stroke-width="1"/>
<circle cx="1030.87" cy="431.15" r="3.8" fill="#3bf2af" stroke="#111827" stroke-width="1"/>
<circle cx="1031.67" cy="431.03" r="3.8" fill="#3bf2af" stroke="#111827" stroke-width="1"/>
<circle cx="1032.46" cy="430.57" r="3.8" fill="#3bf2af" stroke="#111827" stroke-width="1"/>
<circle cx="1033.25" cy="429.93" r="3.8" fill="#3bf2af" stroke="#111827" stroke-width="1"/>
<circle cx="1034.03" cy="429.59" r="3.8" fill="#3bf2af" stroke="#111827" stroke-width="1"/>
<circle cx="1034.82" cy="429.17" r="3.8" fill="#3bf2af" stroke="#111827" stroke-width="1"/>
<circle cx="1035.61" cy="428.48" r="3.8" fill="#3bf2af" stroke="#111827" stroke-width="1"/>
<circle cx="1036.00" cy="428.24" r="3.8" fill="#3bf2af" stroke="#111827" stroke-width="1"/>
<text x="1028.00" y="418.24" text-anchor="end" fill="#3bf2af" font-size="12" font-family="-apple-system,BlinkMacSystemFont,Segoe UI,Helvetica,Arial,sans-serif">183.52k</text>
<rect x="90.00" y="514.00" width="14" height="14" fill="url(#repo-0)" rx="3"/>
<text x="112.00" y="526.00" fill="#ffb50c" font-size="13" font-family="-apple-system,BlinkMacSystemFont,Segoe UI,Helvetica,Arial,sans-serif">tkpd/gripmock</text>
<rect x="280.00" y="514.00" width="14" height="14" fill="url(#repo-1)" rx="3"/>
<text x="302.00" y="526.00" fill="#3bf2af" font-size="13" font-family="-apple-system,BlinkMacSystemFont,Segoe UI,Helvetica,Arial,sans-serif">bavix/gripmock</text>
<text x="1036.00" y="526.00" text-anchor="end" fill="#9ca3af" font-size="12" font-family="-apple-system,BlinkMacSystemFont,Segoe UI,Helvetica,Arial,sans-serif">Source: https://github.com/bavix/artifact-stats/blob/master/stats/dockerhub.csv</text>
</svg>