<svg xmlns="http://www.w3.org/2000/svg" width="1100" height="560" viewBox="0 0 1100 560">
<defs>
<linearGradient id="bg" x1="0" y1="0" x2="1" y2="1"><stop offset="0%" stop-color="#0b1220"/><stop offset="100%" stop-color="#111827"/></linearGradient>
<linearGradient id="repo-0" x1="0" y1="0" x2="0" y2="1"><stop offset="0%" stop-color="#f59e0b"/><stop offset="100%" stop-color="#d97706"/></linearGradient>
<linearGradient id="repo-1" x1="0" y1="0" x2="0" y2="1"><stop offset="0%" stop-color="#34d399"/><stop offset="100%" stop-color="#059669"/></linearGradient>
</defs>
<rect x="0" y="0" width="1100" height="560" fill="url(#bg)" rx="16"/>
<text x="90" y="44" fill="#f9fafb" font-size="28" font-family="-apple-system,BlinkMacSystemFont,Segoe UI,Helvetica,Arial,sans-serif" font-weight="700">GripMock Docker Hub Downloads</text>
<text x="90" y="70" fill="#9ca3af" font-size="16" font-family="-apple-system,BlinkMacSystemFont,Segoe UI,Helvetica,Arial,sans-serif">Docker Hub pull count by snapshot date</text>
<line x1="90" y1="90.00" x2="1036" y2="90.00" stroke="#1f2937" stroke-width="1"/>
<text x="80" y="95.00" text-anchor="end" fill="#9ca3af" font-size="12" font-family="-apple-system,BlinkMacSystemFont,Segoe UI,Helvetica,Arial,sans-serif">1.90M</text>
<line x1="90" y1="153.00" x2="1036" y2="153.00" stroke="#1f2937" stroke-width="1"/>
<text x="80" y="158.00" text-anchor="end" fill="#9ca3af" font-size="12" font-family="-apple-system,BlinkMacSystemFont,Segoe UI,Helvetica,Arial,sans-serif">1.58M</text>
<line x1="90" y1="216.00" x2="1036" y2="216.00" stroke="#1f2937" stroke-width="1"/>
<text x="80" y="221.00" text-anchor="end" fill="#9ca3af" font-size="12" font-family="-apple-system,BlinkMacSystemFont,Segoe UI,Helvetica,Arial,sans-serif">1.26M</text>
<line x1="90" y1="279.00" x2="1036" y2="279.00" stroke="#1f2937" stroke-width="1"/>
<text x="80" y="284.00" text-anchor="end" fill="#9ca3af" font-size="12" font-family="-apple-system,BlinkMacSystemFont,Segoe UI,Helvetica,Arial,sans-serif">947.92k</text>
<line x1="90" y1="342.00" x2="1036" y2="342.00" stroke="#1f2937" stroke-width="1"/>
<text x="80" y="347.00" text-anchor="end" fill="#9ca3af" font-size="12" font-family="-apple-system,BlinkMacSystemFont,Segoe UI,Helvetica,Arial,sans-serif">631.95k</text>
<line x1="90" y1="405.00" x2="1036" y2="405.00" stroke="#1f2937" stroke-width="1"/>
<text x="80" y="410.00" text-anchor="end" fill="#9ca3af" font-size="12" font-family="-apple-system,BlinkMacSystemFont,Segoe UI,Helvetica,Arial,sans-serif">315.97k</text>
<line x1="90" y1="468.00" x2="1036" y2="468.00" stroke="#1f2937" stroke-width="1"/>
<text x="80" y="473.00" text-anchor="end" fill="#9ca3af" font-size="12" font-family="-apple-system,BlinkMacSystemFont,Segoe UI,Helvetica,Arial,sans-serif">0</text>
<line x1="90" y1="468" x2="1036" y2="468" stroke="#4b5563" stroke-width="1.4"/>
<line x1="90" y1="90" x2="90" y2="468" stroke="#4b5563" stroke-width="1.4"/>
<line x1="90.00" y1="468" x2="90.00" y2="474" stroke="#6b7280" stroke-width="1"/>
<text x="90.00" y="494" text-anchor="start" fill="#9ca3af" font-size="12" font-family="-apple-system,BlinkMacSystemFont,Segoe UI,Helvetica,Arial,sans-serif">2019-09-16</text>
<line x1="279.20" y1="468" x2="279.20" y2="474" stroke="#6b7280" stroke-width="1"/>
<text x="279.20" y="494" text-anchor="middle" fill="#9ca3af" font-size="12" font-family="-apple-system,BlinkMacSystemFont,Segoe UI,Helvetica,Arial,sans-serif">2021-01-24</text>
<line x1="468.40" y1="468" x2="468.40" y2="474" stroke="#6b7280" stroke-width="1"/>
<text x="468.40" y="494" text-anchor="middle" fill="#9ca3af" font-size="12" font-family="-apple-system,BlinkMacSystemFont,Segoe UI,Helvetica,Arial,sans-serif">2022-06-03</text>
<line x1="657.60" y1="468" x2="657.60" y2="474" stroke="#6b7280" stroke-width="1"/>
<text x="657.60" y="494" text-anchor="middle" fill="#9ca3af" font-size="12" font-family="-apple-system,BlinkMacSystemFont,Segoe UI,Helvetica,Arial,sans-serif">2023-10-12</text>
<line x1="846.80" y1="468" x2="846.80" y2="474" stroke="#6b7280" stroke-width="1"/>
<text x="846.80" y="494" text-anchor="middle" fill="#9ca3af" font-size="12" font-family="-apple-system,BlinkMacSystemFont,Segoe UI,Helvetica,Arial,sans-serif">2025-02-19</text>
<line x1="1036.00" y1="468" x2="1036.00" y2="474" stroke="#6b7280" stroke-width="1"/>
<text x="1036.00" y="494" text-anchor="end" fill="#9ca3af" font-size="12" font-family="-apple-system,BlinkMacSystemFont,Segoe UI,Helvetica,Arial,sans-serif">2026-06-30</text>
<polyline fill="none" stroke="url(#repo-0)" stroke-width="4" stroke-linecap="round" stroke-linejoin="round" points="90.00,468.00 97.99,462.81 105.99,461.70 113.98,461.65 121.97,461.59 129.97,461.50 137.96,461.40 145.95,461.29 153.95,461.15 161.94,461.00 169.94,460.84 177.93,460.65 185.92,460.46 193.92,459.59 201.91,458.98 209.90,458.74 217.90,458.48 225.89,458.22 233.88,457.25 241.88,454.02 249.87,449.48 257.86,444.29 265.86,439.36 273.85,435.48 281.84,433.06 289.84,432.01 297.83,431.63 305.82,431.24 313.82,430.11 321.81,427.61 329.81,423.90 337.80,419.50 345.79,415.24 353.79,411.89 361.78,409.93 369.77,409.30 377.77,408.83 385.76,408.36 393.75,407.88 401.75,405.90 409.74,401.63 417.73,396.08 425.73,390.08 433.72,384.52 441.71,380.06 449.71,376.92 457.70,374.76 465.69,372.82 473.69,370.27 481.68,366.44 489.68,361.15 497.67,354.74 505.66,348.01 513.66,341.91 521.65,337.23 529.64,334.30 537.64,332.91 545.63,332.31 553.62,331.57 561.62,329.83 569.61,326.66 577.60,322.14 585.60,316.89 593.59,311.78 601.58,307.61 609.58,304.82 617.57,303.33 625.57,302.50 633.56,301.42 641.55,299.21 649.55,295.31 657.54,289.73 665.53,283.02 673.53,276.10 681.52,269.95 689.51,265.25 697.51,262.17 705.50,260.31 713.49,258.86 721.49,256.92 729.48,253.83 737.47,249.44 745.47,244.12 753.46,238.70 761.45,234.12 769.45,231.12 777.44,229.93 785.44,229.54 793.43,229.15 801.42,228.77 809.42,228.40 817.41,228.04 825.40,225.39 833.40,220.98 841.39,216.74 849.38,213.49 857.38,211.68 865.37,211.18 873.36,210.91 881.36,210.66 889.35,210.20 897.34,207.52 905.34,203.38 913.33,198.43 921.33,193.63 929.32,192.71 937.31,192.56 945.31,192.43 953.30,192.31 961.29,192.21 969.29,192.13 977.28,192.06 985.27,192.02 993.27,191.99 1001.26,191.98 1001.65,191.07 1002.01,190.06 1002.39,189.15 1002.77,188.58 1003.16,188.28 1003.54,187.87 1003.92,179.35 1004.30,163.17 1004.68,159.40 1005.07,157.46 1005.44,156.60 1005.83,156.53 1006.22,156.41 1006.59,155.19 1006.97,153.77 1007.36,152.63 1007.74,151.72 1008.12,150.93 1008.50,150.87 1008.89,150.73 1009.27,149.88 1009.65,149.28 1010.03,148.68 1010.41,148.12 1010.79,147.70 1011.18,147.63 1011.56,147.56 1011.94,147.14 1012.32,146.58 1012.71,145.97 1013.09,145.48 1013.47,145.16 1013.85,145.08 1014.24,145.01 1014.61,144.65 1015.00,144.13 1015.38,143.34 1015.75,142.81 1016.14,142.43 1016.53,142.37 1016.92,142.28 1017.29,141.94 1017.68,141.53 1018.06,141.13 1018.44,140.69 1018.81,140.31 1019.20,140.21 1019.59,140.09 1019.97,139.55 1020.35,139.02 1020.73,138.39 1021.12,137.95 1021.49,137.53 1021.88,137.43 1022.27,137.27 1022.64,137.02 1023.03,136.48 1023.41,135.89 1023.79,135.26 1024.16,134.70 1024.55,134.62 1024.96,134.44 1025.32,133.89 1025.71,133.21 1026.09,132.46 1026.46,131.86 1026.84,131.39 1027.23,131.30 1027.61,131.15 1027.99,130.59 1028.37,129.94 1028.76,129.35 1029.14,128.76 1029.51,128.36 1029.90,128.29 1030.31,128.11 1030.69,127.58 1031.06,127.00 1031.43,126.64 1031.83,126.34 1032.19,126.17 1032.58,126.09 1032.98,126.00 1033.33,125.76 1033.71,125.54 1034.09,125.31 1034.47,125.04 1034.85,124.81 1035.24,124.74 1035.63,124.62 1036.00,124.36"/>
<circle cx="90.00" cy="468.00" r="3.8" fill="#ffb50c" stroke="#111827" stroke-width="1"/>
<circle cx="153.95" cy="461.15" r="3.8" fill="#ffb50c" stroke="#111827" stroke-width="1"/>
<circle cx="217.90" cy="458.48" r="3.8" fill="#ffb50c" stroke="#111827" stroke-width="1"/>
<circle cx="281.84" cy="433.06" r="3.8" fill="#ffb50c" stroke="#111827" stroke-width="1"/>
<circle cx="345.79" cy="415.24" r="3.8" fill="#ffb50c" stroke="#111827" stroke-width="1"/>
<circle cx="409.74" cy="401.63" r="3.8" fill="#ffb50c" stroke="#111827" stroke-width="1"/>
<circle cx="473.69" cy="370.27" r="3.8" fill="#ffb50c" stroke="#111827" stroke-width="1"/>
<circle cx="537.64" cy="332.91" r="3.8" fill="#ffb50c" stroke="#111827" stroke-width="1"/>
<circle cx="601.58" cy="307.61" r="3.8" fill="#ffb50c" stroke="#111827" stroke-width="1"/>
<circle cx="665.53" cy="283.02" r="3.8" fill="#ffb50c" stroke="#111827" stroke-width="1"/>
<circle cx="729.48" cy="253.83" r="3.8" fill="#ffb50c" stroke="#111827" stroke-width="1"/>
<circle cx="793.43" cy="229.15" r="3.8" fill="#ffb50c" stroke="#111827" stroke-width="1"/>
<circle cx="857.38" cy="211.68" r="3.8" fill="#ffb50c" stroke="#111827" stroke-width="1"/>
<circle cx="921.33" cy="193.63" r="3.8" fill="#ffb50c" stroke="#111827" stroke-width="1"/>
<circle cx="985.27" cy="192.02" r="3.8" fill="#ffb50c" stroke="#111827" stroke-width="1"/>
<circle cx="1003.54" cy="187.87" r="3.8" fill="#ffb50c" stroke="#111827" stroke-width="1"/>
<circle cx="1006.59" cy="155.19" r="3.8" fill="#ffb50c" stroke="#111827" stroke-width="1"/>
<circle cx="1009.65" cy="149.28" r="3.8" fill="#ffb50c" stroke="#111827" stroke-width="1"/>
<circle cx="1012.71" cy="145.97" r="3.8" fill="#ffb50c" stroke="#111827" stroke-width="1"/>
<circle cx="1015.75" cy="142.81" r="3.8" fill="#ffb50c" stroke="#111827" stroke-width="1"/>
<circle cx="1018.81" cy="140.31" r="3.8" fill="#ffb50c" stroke="#111827" stroke-width="1"/>
<circle cx="1021.88" cy="137.43" r="3.8" fill="#ffb50c" stroke="#111827" stroke-width="1"/>
<circle cx="1024.96" cy="134.44" r="3.8" fill="#ffb50c" stroke="#111827" stroke-width="1"/>
<circle cx="1027.99" cy="130.59" r="3.8" fill="#ffb50c" stroke="#111827" stroke-width="1"/>
<circle cx="1031.06" cy="127.00" r="3.8" fill="#ffb50c" stroke="#111827" stroke-width="1"/>
<circle cx="1034.09" cy="125.31" r="3.8" fill="#ffb50c" stroke="#111827" stroke-width="1"/>
<circle cx="1036.00" cy="124.36" r="3.8" fill="#ffb50c" stroke="#111827" stroke-width="1"/>
<text x="1028.00" y="114.36" text-anchor="end" fill="#ffb50c" font-size="12" font-family="-apple-system,BlinkMacSystemFont,Segoe UI,Helvetica,Arial,sans-serif">1.72M</text>
<polyline fill="none" stroke="url(#repo-1)" stroke-width="4" stroke-linecap="round" stroke-linejoin="round" points="635.74,468.00 643.69,467.34 651.63,467.11 659.58,466.96 667.53,466.92 675.47,466.86 683.42,466.79 691.36,466.68 699.31,466.29 707.26,465.66 715.20,464.83 723.15,463.89 731.09,462.94 739.04,462.07 746.99,461.30 754.93,460.60 762.88,459.89 770.83,459.07 778.77,458.06 786.72,456.83 794.66,455.43 802.61,453.93 810.56,452.47 818.50,451.15 826.45,450.03 834.39,449.10 842.34,448.28 850.29,447.47 858.23,446.57 866.18,445.54 874.12,444.37 882.07,443.16 890.02,442.00 897.96,441.01 905.91,440.24 913.85,439.70 921.80,439.32 929.75,438.99 937.69,438.59 945.64,438.05 953.58,437.36 961.53,436.59 969.48,435.84 977.42,435.24 985.37,434.88 993.31,434.86 1001.26,434.85 1001.65,434.62 1002.01,434.40 1002.39,434.19 1002.77,434.08 1003.16,434.05 1003.54,433.97 1003.92,433.80 1004.30,433.55 1004.68,433.25 1005.07,432.96 1005.44,432.69 1005.83,432.65 1006.22,432.52 1006.59,432.27 1006.97,431.96 1007.36,431.63 1007.74,431.41 1008.12,431.11 1008.50,431.08 1008.89,431.01 1009.27,430.67 1009.65,430.36 1010.03,430.02 1010.41,429.72 1010.79,429.48 1011.18,429.32 1011.56,429.21 1011.94,428.84 1012.32,428.51 1012.71,428.22 1013.09,427.87 1013.47,427.70 1013.85,427.64 1014.24,427.51 1014.61,427.23 1015.00,427.03 1015.38,426.85 1015.75,426.44 1016.14,426.23 1016.53,426.16 1016.92,426.07 1017.29,425.77 1017.68,425.49 1018.06,425.23 1018.44,424.96 1018.81,424.77 1019.20,424.71 1019.59,424.59 1019.97,424.34 1020.35,424.07 1020.73,423.82 1021.12,423.58 1021.49,423.33 1021.88,423.25 1022.27,423.13 1022.64,422.92 1023.03,422.63 1023.41,422.26 1023.79,421.94 1024.16,421.72 1024.55,421.65 1024.96,421.50 1025.32,421.22 1025.71,420.90 1026.09,420.54 1026.46,420.29 1026.84,420.12 1027.23,420.04 1027.61,419.90 1027.99,419.57 1028.37,419.25 1028.76,418.86 1029.14,418.50 1029.51,418.25 1029.90,418.13 1030.31,417.92 1030.69,417.61 1031.06,417.16 1031.43,416.72 1031.83,416.31 1032.19,416.18 1032.58,416.09 1032.98,415.88 1033.33,415.56 1033.71,415.19 1034.09,414.75 1034.47,414.31 1034.85,413.99 1035.24,413.89 1035.63,413.75 1036.00,413.36"/>
<circle cx="635.74" cy="468.00" r="3.8" fill="#3bf2af" stroke="#111827" stroke-width="1"/>
<circle cx="675.47" cy="466.86" r="3.8" fill="#3bf2af" stroke="#111827" stroke-width="1"/>
<circle cx="715.20" cy="464.83" r="3.8" fill="#3bf2af" stroke="#111827" stroke-width="1"/>
<circle cx="754.93" cy="460.60" r="3.8" fill="#3bf2af" stroke="#111827" stroke-width="1"/>
<circle cx="794.66" cy="455.43" r="3.8" fill="#3bf2af" stroke="#111827" stroke-width="1"/>
<circle cx="834.39" cy="449.10" r="3.8" fill="#3bf2af" stroke="#111827" stroke-width="1"/>
<circle cx="874.12" cy="444.37" r="3.8" fill="#3bf2af" stroke="#111827" stroke-width="1"/>
<circle cx="913.85" cy="439.70" r="3.8" fill="#3bf2af" stroke="#111827" stroke-width="1"/>
<circle cx="953.58" cy="437.36" r="3.8" fill="#3bf2af" stroke="#111827" stroke-width="1"/>
<circle cx="993.31" cy="434.86" r="3.8" fill="#3bf2af" stroke="#111827" stroke-width="1"/>
<circle cx="1002.77" cy="434.08" r="3.8" fill="#3bf2af" stroke="#111827" stroke-width="1"/>
<circle cx="1004.68" cy="433.25" r="3.8" fill="#3bf2af" stroke="#111827" stroke-width="1"/>
<circle cx="1006.59" cy="432.27" r="3.8" fill="#3bf2af" stroke="#111827" stroke-width="1"/>
<circle cx="1008.50" cy="431.08" r="3.8" fill="#3bf2af" stroke="#111827" stroke-width="1"/>
<circle cx="1010.41" cy="429.72" r="3.8" fill="#3bf2af" stroke="#111827" stroke-width="1"/>
<circle cx="1012.32" cy="428.51" r="3.8" fill="#3bf2af" stroke="#111827" stroke-width="1"/>
<circle cx="1014.24" cy="427.51" r="3.8" fill="#3bf2af" stroke="#111827" stroke-width="1"/>
<circle cx="1016.14" cy="426.23" r="3.8" fill="#3bf2af" stroke="#111827" stroke-width="1"/>
<circle cx="1018.06" cy="425.23" r="3.8" fill="#3bf2af" stroke="#111827" stroke-width="1"/>
<circle cx="1019.97" cy="424.34" r="3.8" fill="#3bf2af" stroke="#111827" stroke-width="1"/>
<circle cx="1021.88" cy="423.25" r="3.8" fill="#3bf2af" stroke="#111827" stroke-width="1"/>
<circle cx="1023.79" cy="421.94" r="3.8" fill="#3bf2af" stroke="#111827" stroke-width="1"/>
<circle cx="1025.71" cy="420.90" r="3.8" fill="#3bf2af" stroke="#111827" stroke-width="1"/>
<circle cx="1027.61" cy="419.90" r="3.8" fill="#3bf2af" stroke="#111827" stroke-width="1"/>
<circle cx="1029.51" cy="418.25" r="3.8" fill="#3bf2af" stroke="#111827" stroke-width="1"/>
<circle cx="1031.43" cy="416.72" r="3.8" fill="#3bf2af" stroke="#111827" stroke-width="1"/>
<circle cx="1033.33" cy="415.56" r="3.8" fill="#3bf2af" stroke="#111827" stroke-width="1"/>
<circle cx="1035.24" cy="413.89" r="3.8" fill="#3bf2af" stroke="#111827" stroke-width="1"/>
<circle cx="1036.00" cy="413.36" r="3.8" fill="#3bf2af" stroke="#111827" stroke-width="1"/>
<text x="1028.00" y="403.36" text-anchor="end" fill="#3bf2af" font-size="12" font-family="-apple-system,BlinkMacSystemFont,Segoe UI,Helvetica,Arial,sans-serif">274.05k</text>
<rect x="90.00" y="514.00" width="14" height="14" fill="url(#repo-0)" rx="3"/>
<text x="112.00" y="526.00" fill="#ffb50c" font-size="13" font-family="-apple-system,BlinkMacSystemFont,Segoe UI,Helvetica,Arial,sans-serif">tkpd/gripmock</text>
<rect x="280.00" y="514.00" width="14" height="14" fill="url(#repo-1)" rx="3"/>
<text x="302.00" y="526.00" fill="#3bf2af" font-size="13" font-family="-apple-system,BlinkMacSystemFont,Segoe UI,Helvetica,Arial,sans-serif">bavix/gripmock</text>
<text x="1036.00" y="526.00" text-anchor="end" fill="#9ca3af" font-size="12" font-family="-apple-system,BlinkMacSystemFont,Segoe UI,Helvetica,Arial,sans-serif">Source: https://github.com/bavix/artifact-stats/blob/master/stats/dockerhub.csv</text>
</svg>