<svg xmlns="http://www.w3.org/2000/svg" width="1100" height="560" viewBox="0 0 1100 560">
<defs>
<linearGradient id="bg" x1="0" y1="0" x2="1" y2="1"><stop offset="0%" stop-color="#0b1220"/><stop offset="100%" stop-color="#111827"/></linearGradient>
<linearGradient id="repo-0" x1="0" y1="0" x2="0" y2="1"><stop offset="0%" stop-color="#f59e0b"/><stop offset="100%" stop-color="#d97706"/></linearGradient>
<linearGradient id="repo-1" x1="0" y1="0" x2="0" y2="1"><stop offset="0%" stop-color="#34d399"/><stop offset="100%" stop-color="#059669"/></linearGradient>
</defs>
<rect x="0" y="0" width="1100" height="560" fill="url(#bg)" rx="16"/>
<text x="90" y="44" fill="#f9fafb" font-size="28" font-family="-apple-system,BlinkMacSystemFont,Segoe UI,Helvetica,Arial,sans-serif" font-weight="700">GripMock Docker Hub Downloads</text>
<text x="90" y="70" fill="#9ca3af" font-size="16" font-family="-apple-system,BlinkMacSystemFont,Segoe UI,Helvetica,Arial,sans-serif">Docker Hub pull count by snapshot date</text>
<line x1="90" y1="90.0" x2="1036" y2="90.0" stroke="#1f2937" stroke-width="1"/>
<text x="80" y="95.0" text-anchor="end" fill="#9ca3af" font-size="12" font-family="-apple-system,BlinkMacSystemFont,Segoe UI,Helvetica,Arial,sans-serif">1.5M</text>
<line x1="90" y1="153.0" x2="1036" y2="153.0" stroke="#1f2937" stroke-width="1"/>
<text x="80" y="158.0" text-anchor="end" fill="#9ca3af" font-size="12" font-family="-apple-system,BlinkMacSystemFont,Segoe UI,Helvetica,Arial,sans-serif">1.3M</text>
<line x1="90" y1="216.0" x2="1036" y2="216.0" stroke="#1f2937" stroke-width="1"/>
<text x="80" y="221.0" text-anchor="end" fill="#9ca3af" font-size="12" font-family="-apple-system,BlinkMacSystemFont,Segoe UI,Helvetica,Arial,sans-serif">1.0M</text>
<line x1="90" y1="279.0" x2="1036" y2="279.0" stroke="#1f2937" stroke-width="1"/>
<text x="80" y="284.0" text-anchor="end" fill="#9ca3af" font-size="12" font-family="-apple-system,BlinkMacSystemFont,Segoe UI,Helvetica,Arial,sans-serif">770.8k</text>
<line x1="90" y1="342.0" x2="1036" y2="342.0" stroke="#1f2937" stroke-width="1"/>
<text x="80" y="347.0" text-anchor="end" fill="#9ca3af" font-size="12" font-family="-apple-system,BlinkMacSystemFont,Segoe UI,Helvetica,Arial,sans-serif">513.9k</text>
<line x1="90" y1="405.0" x2="1036" y2="405.0" stroke="#1f2937" stroke-width="1"/>
<text x="80" y="410.0" text-anchor="end" fill="#9ca3af" font-size="12" font-family="-apple-system,BlinkMacSystemFont,Segoe UI,Helvetica,Arial,sans-serif">256.9k</text>
<line x1="90" y1="468.0" x2="1036" y2="468.0" stroke="#1f2937" stroke-width="1"/>
<text x="80" y="473.0" text-anchor="end" fill="#9ca3af" font-size="12" font-family="-apple-system,BlinkMacSystemFont,Segoe UI,Helvetica,Arial,sans-serif">0</text>
<line x1="90" y1="468" x2="1036" y2="468" stroke="#4b5563" stroke-width="1.4"/>
<line x1="90" y1="90" x2="90" y2="468" stroke="#4b5563" stroke-width="1.4"/>
<line x1="90.0" y1="468" x2="90.0" y2="474" stroke="#6b7280" stroke-width="1"/>
<text x="90.0" y="494" text-anchor="start" fill="#9ca3af" font-size="12" font-family="-apple-system,BlinkMacSystemFont,Segoe UI,Helvetica,Arial,sans-serif">2019-09-16</text>
<line x1="279.2" y1="468" x2="279.2" y2="474" stroke="#6b7280" stroke-width="1"/>
<text x="279.2" y="494" text-anchor="middle" fill="#9ca3af" font-size="12" font-family="-apple-system,BlinkMacSystemFont,Segoe UI,Helvetica,Arial,sans-serif">2021-01-06</text>
<line x1="468.4" y1="468" x2="468.4" y2="474" stroke="#6b7280" stroke-width="1"/>
<text x="468.4" y="494" text-anchor="middle" fill="#9ca3af" font-size="12" font-family="-apple-system,BlinkMacSystemFont,Segoe UI,Helvetica,Arial,sans-serif">2022-04-30</text>
<line x1="657.6" y1="468" x2="657.6" y2="474" stroke="#6b7280" stroke-width="1"/>
<text x="657.6" y="494" text-anchor="middle" fill="#9ca3af" font-size="12" font-family="-apple-system,BlinkMacSystemFont,Segoe UI,Helvetica,Arial,sans-serif">2023-08-21</text>
<line x1="846.8" y1="468" x2="846.8" y2="474" stroke="#6b7280" stroke-width="1"/>
<text x="846.8" y="494" text-anchor="middle" fill="#9ca3af" font-size="12" font-family="-apple-system,BlinkMacSystemFont,Segoe UI,Helvetica,Arial,sans-serif">2024-12-11</text>
<line x1="1036.0" y1="468" x2="1036.0" y2="474" stroke="#6b7280" stroke-width="1"/>
<text x="1036.0" y="494" text-anchor="end" fill="#9ca3af" font-size="12" font-family="-apple-system,BlinkMacSystemFont,Segoe UI,Helvetica,Arial,sans-serif">2026-04-04</text>
<polyline fill="none" stroke="url(#repo-0)" stroke-width="4" stroke-linecap="round" stroke-linejoin="round" points="90.00,468.00 98.28,461.62 106.57,460.25 114.85,460.19 123.14,460.11 131.42,460.01 139.71,459.89 147.99,459.74 156.28,459.58 164.56,459.39 172.85,459.19 181.13,458.96 189.41,458.72 197.70,457.66 205.98,456.91 214.27,456.61 222.55,456.30 230.84,455.97 239.12,454.77 247.41,450.80 255.69,445.22 263.98,438.85 272.26,432.78 280.54,428.00 288.83,425.03 297.11,423.73 305.40,423.27 313.68,422.79 321.97,421.41 330.25,418.33 338.54,413.76 346.82,408.36 355.11,403.11 363.39,399.00 371.67,396.58 379.96,395.81 388.24,395.24 396.53,394.65 404.81,394.06 413.10,391.63 421.38,386.37 429.67,379.56 437.95,372.17 446.24,365.33 454.52,359.86 462.81,355.99 471.09,353.33 479.37,350.95 487.66,347.81 495.94,343.10 504.23,336.60 512.51,328.72 520.80,320.44 529.08,312.93 537.37,307.17 545.65,303.58 553.94,301.86 562.22,301.13 570.50,300.22 578.79,298.08 587.07,294.17 595.36,288.62 603.64,282.17 611.93,275.88 620.21,270.75 628.50,267.32 636.78,265.48 645.07,264.47 653.35,263.14 661.63,260.42 669.92,255.62 678.20,248.76 686.49,240.50 694.77,232.00 703.06,224.44 711.34,218.66 719.63,214.87 727.91,212.58 736.20,210.79 744.48,208.41 752.76,204.62 761.05,199.21 769.33,192.67 777.62,186.01 785.90,180.37 794.19,176.68 802.47,175.22 810.76,174.73 819.04,174.26 827.33,173.79 835.61,173.34 843.89,172.90 852.18,169.64 860.46,164.22 868.75,159.00 877.03,155.00 885.32,152.77 893.60,152.17 901.89,151.83 910.17,151.52 918.46,150.95 926.74,147.66 935.02,142.57 943.31,136.48 951.59,130.58 959.88,129.45 968.16,129.26 976.45,129.10 984.73,128.96 993.02,128.83 1001.30,128.73 1009.59,128.65 1017.87,128.59 1026.15,128.56 1034.44,128.55 1034.84,127.43 1035.22,126.19 1035.61,125.07 1036.00,124.36"/>
<circle cx="90.00" cy="468.00" r="3.8" fill="#ffb50c" stroke="#111827" stroke-width="1"/>
<circle cx="123.14" cy="460.11" r="3.8" fill="#ffb50c" stroke="#111827" stroke-width="1"/>
<circle cx="156.28" cy="459.58" r="3.8" fill="#ffb50c" stroke="#111827" stroke-width="1"/>
<circle cx="189.41" cy="458.72" r="3.8" fill="#ffb50c" stroke="#111827" stroke-width="1"/>
<circle cx="222.55" cy="456.30" r="3.8" fill="#ffb50c" stroke="#111827" stroke-width="1"/>
<circle cx="255.69" cy="445.22" r="3.8" fill="#ffb50c" stroke="#111827" stroke-width="1"/>
<circle cx="288.83" cy="425.03" r="3.8" fill="#ffb50c" stroke="#111827" stroke-width="1"/>
<circle cx="321.97" cy="421.41" r="3.8" fill="#ffb50c" stroke="#111827" stroke-width="1"/>
<circle cx="355.11" cy="403.11" r="3.8" fill="#ffb50c" stroke="#111827" stroke-width="1"/>
<circle cx="388.24" cy="395.24" r="3.8" fill="#ffb50c" stroke="#111827" stroke-width="1"/>
<circle cx="421.38" cy="386.37" r="3.8" fill="#ffb50c" stroke="#111827" stroke-width="1"/>
<circle cx="454.52" cy="359.86" r="3.8" fill="#ffb50c" stroke="#111827" stroke-width="1"/>
<circle cx="487.66" cy="347.81" r="3.8" fill="#ffb50c" stroke="#111827" stroke-width="1"/>
<circle cx="520.80" cy="320.44" r="3.8" fill="#ffb50c" stroke="#111827" stroke-width="1"/>
<circle cx="553.94" cy="301.86" r="3.8" fill="#ffb50c" stroke="#111827" stroke-width="1"/>
<circle cx="587.07" cy="294.17" r="3.8" fill="#ffb50c" stroke="#111827" stroke-width="1"/>
<circle cx="620.21" cy="270.75" r="3.8" fill="#ffb50c" stroke="#111827" stroke-width="1"/>
<circle cx="653.35" cy="263.14" r="3.8" fill="#ffb50c" stroke="#111827" stroke-width="1"/>
<circle cx="686.49" cy="240.50" r="3.8" fill="#ffb50c" stroke="#111827" stroke-width="1"/>
<circle cx="719.63" cy="214.87" r="3.8" fill="#ffb50c" stroke="#111827" stroke-width="1"/>
<circle cx="752.76" cy="204.62" r="3.8" fill="#ffb50c" stroke="#111827" stroke-width="1"/>
<circle cx="785.90" cy="180.37" r="3.8" fill="#ffb50c" stroke="#111827" stroke-width="1"/>
<circle cx="819.04" cy="174.26" r="3.8" fill="#ffb50c" stroke="#111827" stroke-width="1"/>
<circle cx="852.18" cy="169.64" r="3.8" fill="#ffb50c" stroke="#111827" stroke-width="1"/>
<circle cx="885.32" cy="152.77" r="3.8" fill="#ffb50c" stroke="#111827" stroke-width="1"/>
<circle cx="918.46" cy="150.95" r="3.8" fill="#ffb50c" stroke="#111827" stroke-width="1"/>
<circle cx="951.59" cy="130.58" r="3.8" fill="#ffb50c" stroke="#111827" stroke-width="1"/>
<circle cx="984.73" cy="128.96" r="3.8" fill="#ffb50c" stroke="#111827" stroke-width="1"/>
<circle cx="1017.87" cy="128.59" r="3.8" fill="#ffb50c" stroke="#111827" stroke-width="1"/>
<circle cx="1035.22" cy="126.19" r="3.8" fill="#ffb50c" stroke="#111827" stroke-width="1"/>
<circle cx="1036.00" cy="124.36" r="3.8" fill="#ffb50c" stroke="#111827" stroke-width="1"/>
<text x="1028.0" y="114.4" text-anchor="end" fill="#ffb50c" font-size="12" font-family="-apple-system,BlinkMacSystemFont,Segoe UI,Helvetica,Arial,sans-serif">1.4M</text>
<polyline fill="none" stroke="url(#repo-1)" stroke-width="4" stroke-linecap="round" stroke-linejoin="round" points="655.61,468.00 663.85,467.19 672.08,466.90 680.32,466.73 688.55,466.67 696.79,466.60 705.03,466.51 713.26,466.38 721.50,465.89 729.73,465.12 737.97,464.10 746.20,462.95 754.44,461.78 762.67,460.70 770.91,459.76 779.14,458.90 787.38,458.03 795.61,457.02 803.85,455.78 812.08,454.27 820.32,452.54 828.56,450.70 836.79,448.90 845.03,447.28 853.26,445.90 861.50,444.75 869.73,443.74 877.97,442.75 886.20,441.65 894.44,440.37 902.67,438.94 910.91,437.45 919.14,436.03 927.38,434.80 935.62,433.86 943.85,433.20 952.09,432.73 960.32,432.32 968.56,431.83 976.79,431.16 985.03,430.32 993.26,429.37 1001.50,428.45 1009.73,427.71 1017.97,427.26 1026.20,427.24 1034.44,427.23 1034.84,426.95 1035.22,426.68 1035.61,426.43 1036.00,426.29"/>
<circle cx="655.61" cy="468.00" r="3.8" fill="#3bf2af" stroke="#111827" stroke-width="1"/>
<circle cx="672.08" cy="466.90" r="3.8" fill="#3bf2af" stroke="#111827" stroke-width="1"/>
<circle cx="688.55" cy="466.67" r="3.8" fill="#3bf2af" stroke="#111827" stroke-width="1"/>
<circle cx="705.03" cy="466.51" r="3.8" fill="#3bf2af" stroke="#111827" stroke-width="1"/>
<circle cx="721.50" cy="465.89" r="3.8" fill="#3bf2af" stroke="#111827" stroke-width="1"/>
<circle cx="737.97" cy="464.10" r="3.8" fill="#3bf2af" stroke="#111827" stroke-width="1"/>
<circle cx="754.44" cy="461.78" r="3.8" fill="#3bf2af" stroke="#111827" stroke-width="1"/>
<circle cx="770.91" cy="459.76" r="3.8" fill="#3bf2af" stroke="#111827" stroke-width="1"/>
<circle cx="787.38" cy="458.03" r="3.8" fill="#3bf2af" stroke="#111827" stroke-width="1"/>
<circle cx="803.85" cy="455.78" r="3.8" fill="#3bf2af" stroke="#111827" stroke-width="1"/>
<circle cx="820.32" cy="452.54" r="3.8" fill="#3bf2af" stroke="#111827" stroke-width="1"/>
<circle cx="836.79" cy="448.90" r="3.8" fill="#3bf2af" stroke="#111827" stroke-width="1"/>
<circle cx="853.26" cy="445.90" r="3.8" fill="#3bf2af" stroke="#111827" stroke-width="1"/>
<circle cx="869.73" cy="443.74" r="3.8" fill="#3bf2af" stroke="#111827" stroke-width="1"/>
<circle cx="886.20" cy="441.65" r="3.8" fill="#3bf2af" stroke="#111827" stroke-width="1"/>
<circle cx="902.67" cy="438.94" r="3.8" fill="#3bf2af" stroke="#111827" stroke-width="1"/>
<circle cx="919.14" cy="436.03" r="3.8" fill="#3bf2af" stroke="#111827" stroke-width="1"/>
<circle cx="935.62" cy="433.86" r="3.8" fill="#3bf2af" stroke="#111827" stroke-width="1"/>
<circle cx="952.09" cy="432.73" r="3.8" fill="#3bf2af" stroke="#111827" stroke-width="1"/>
<circle cx="968.56" cy="431.83" r="3.8" fill="#3bf2af" stroke="#111827" stroke-width="1"/>
<circle cx="985.03" cy="430.32" r="3.8" fill="#3bf2af" stroke="#111827" stroke-width="1"/>
<circle cx="1001.50" cy="428.45" r="3.8" fill="#3bf2af" stroke="#111827" stroke-width="1"/>
<circle cx="1017.97" cy="427.26" r="3.8" fill="#3bf2af" stroke="#111827" stroke-width="1"/>
<circle cx="1034.44" cy="427.23" r="3.8" fill="#3bf2af" stroke="#111827" stroke-width="1"/>
<circle cx="1035.22" cy="426.68" r="3.8" fill="#3bf2af" stroke="#111827" stroke-width="1"/>
<circle cx="1036.00" cy="426.29" r="3.8" fill="#3bf2af" stroke="#111827" stroke-width="1"/>
<text x="1028.0" y="416.3" text-anchor="end" fill="#3bf2af" font-size="12" font-family="-apple-system,BlinkMacSystemFont,Segoe UI,Helvetica,Arial,sans-serif">170.1k</text>
<rect x="90" y="514" width="14" height="14" fill="url(#repo-0)" rx="3"/>
<text x="112" y="526" fill="#ffb50c" font-size="13" font-family="-apple-system,BlinkMacSystemFont,Segoe UI,Helvetica,Arial,sans-serif">tkpd/gripmock</text>
<rect x="280" y="514" width="14" height="14" fill="url(#repo-1)" rx="3"/>
<text x="302" y="526" fill="#3bf2af" font-size="13" font-family="-apple-system,BlinkMacSystemFont,Segoe UI,Helvetica,Arial,sans-serif">bavix/gripmock</text>
<text x="1036" y="526" text-anchor="end" fill="#9ca3af" font-size="12" font-family="-apple-system,BlinkMacSystemFont,Segoe UI,Helvetica,Arial,sans-serif">Source: https://github.com/bavix/artifact-stats/blob/master/stats/dockerhub.csv</text>
</svg>